<svg height="331.476309" viewBox="0 0 60.571 66.398" width="301.680685" xmlns="http://www.w3.org/2000/svg"><g stroke-width="7.4066" transform="matrix(.13501 0 0 .13501 -9.4563 -4.3306)"><path d="m454.63 103.52c-4.8359-2.0039-165.54-67.379-349.67.61719 0 0-28.625 291.29 174.27 390.25 0 0 182.37-61 175.52-390.87" fill="#fff"/><path d="m143.34 111.54c-1.7305-7.4688-6.0938-12.41-11.648-14.523-5.0664-2.0195-10.188-2.3164-18.258-.44922l-25.574 6.9922-.85156 45.102 35.23-8.1875c17.664-4.0898 23.914-16.809 21.102-28.934" fill="#009747"/><path d="m182.33 184.32-15.645-67.43c-.17968 14.578-7.9375 27.824-21.973 36.25l34.992 38.199" fill="#009747"/><path d="m213.62 182.68 55.734-12.941-21.848-94.207-37.832 101.5c1.3594 1.8359 2.6133 3.7773 3.9453 5.6523" fill="#eb1923"/><path d="m167.2 214.62-45.922-53.504-29.781 6.9102 14.117 60.871z" fill="#009747"/><path d="m188.84 212.44-82.605 19.164 18.656 80.41 82.609-19.168z" fill="#009747"/><path d="m274.64 192.54-11.945 2.7734c.32031.26172.64063.51563.96094.77735.45703-.5625 1.2344-.83594 2.0117-.67578 1.3086.26953 1.75 1.5391 1.582 2.7148-.0352.26562-.10938.51562-.19141.76172 0 .19922-.004.39844-.008.60156.0547.25.0469.50781-.0156.75-.0703 2.7148-.28516 5.4141-.91797 8.0781-.48047 2.0312-3.0156 1.5938-3.6758 0-1.1133-2.6719-3.0117-5.0117-5.375-6.6914-.22266.0547-.45704.0781-.69922.0664-.16797-.0117-.32032-.0391-.46875-.0742-.19922.66406-.4336 1.3203-.69532 1.9726-.53125 1.332-1.2773 2.7656-1.3398 4.2227-.0469 1.1758-1.1875 2.2461-2.4141 1.8359-3.1445-1.0547-6.25-2.2344-9.3594-3.3984-.72656-.27344-1.4531-.60547-1.6562-1.4531-.3125-1.3164-.5664-2.6758-.62109-4.0273v-.15234l-48.055 11.148 18.66 80.406 82.883-19.23" fill="#eb1923"/><path d="m184.21 179.27 40.727-108.74-2.5274.58984-60.047 13.938z" fill="#eb1923"/><path d="m368.98 229.11c-2.4805-29.555-35.02-39.195-53.328-43.73 22.902.95312 52.297 11.207 63.691 36.152-2.4258 4.3164-8.4844 3.1484-10.363 7.5781m-70.613-87.953c-2.0625-.18359-4.7188 1.1602-6.3281-.17969 6.0312-4.6992 15.117-12.305 23.633-12.969-7.0508 5.8516-13.887 11.742-16.234 18.59-1.918-2.1445.26953-3.4219-1.0703-5.4414m179.36 26.441c-7.1836-3.7969-13.266-19.07-17.766-28.254 0 .40234 0 .80469-.0117 1.207-6.4258-8.1367-13.5-14.594-21.379-19.012 4.625-.0742 7.6328.44922 8.4062-1.4258-2.5273-3.5391-34.266-17.809-50.387-17.305-.5625-.94531-3.1602-1.0078-3.5703-1.8476-2.5742.3789-3.0274-.33203-5.3945-.37891-2.7148-.0508-5.3242-.65625-8.0234-.67969-1.1953.01563-1.8594.01563-2.0039.0039-.98437.0625-1.9688.12109-2.9492.21094-1.9922.1875-3.9726.40625-5.9648.64844-2.6758.3164-5.2461.16796-7.6211-.34766-.97266.26562-1.918.46094-2.8477.59375.008.0195 0 .043.008.0586-24.52 4.5-69.051 6.0234-82.664 32.938-25.32 7.4258-52.637 11.289-77.301 22.492 4.9336 8.9297 12.262 25.219 21.996 27.25 1.6562 6.8633 7.9688 12.57 13.977 13.387-1.3047-5.3008-3.8125-10.848 1.8945-14.664 3.2891.3125 5.8633 2.457 9.0391 3.0703 1.2344-2.25 2.4219-4.5156 4.5-6.5859 3.0039 1.0312 5.9297 2.2852 9.0391 3.0742 8.957-15.109 29.875-4.6875 33.457 9.3945-10.52 5.6211-17.285 1.6484-25.363 1.0039-1.8242 2.1328-1.1602 4.7852-4.4961 6.5898-2.9883-.53125-4.9883-3.6055-8.2383-3.4844-3.5703 1.9492-2.2109 4.9414-6.4766 6.7422-4.0859-1.4336-6.9297-5.6797-8.0976-10.402-4.3008 4.6953-3.9141 10.379-4.293 15.898-18.656 14.578 18.75 16.402 24.852 23.223-.89062-2.7031-2.0976-5.4688-1.418-7.8359 4.6524.65234 8.2812 3.9258 13.391 3.4141-.5-2.2266-.92578-4.4492.53125-6.2656 15.141-.13672 51.949-1.9062 64.113 11.512 11.004 16.516 28.004 18.297 39.832 31.66 12.707-5.7852 25.516-15.848 39.195-18.742 6.6992-1.4102 13.402-2.4453 20.129-3.2617 8.0781-4.3242 16.145-8.6484 24.246-12.812 16.207-8.3242 32.551-16.391 48.949-24.375-9.8086-13.609-16.406-28.828-31.289-36.691" fill="#211e1e" fill-rule="evenodd"/><path d="m297.95 139.09c.20703 0 .41016.008.60547.0273l.98047.0859.54297.82031c.0937.13281.16797.26172.23828.39453 1.6953-2.4961 3.8711-4.8906 6.3633-7.2695-3.1094 1.6914-6.1406 3.8555-8.875 5.9414h.14453m2.3008 11.496-2.3398-2.6133c-1.6758-1.875-1.4023-3.6016-1.2227-4.6484-.125.0195-.25781.043-.39453.0664-.74219.11719-1.5117.24219-2.3086.24219-1.3242 0-2.3906-.35157-3.2617-1.0781l-1.957-1.6289 2.0078-1.5664c.44141-.34375.89844-.70313 1.3672-1.0742 6.2695-4.918 14.855-11.66 23.371-12.32l6.4414-.5-4.9727 4.1289c-7.2969 6.0586-13.508 11.566-15.598 17.672zm45.219 43.301c1.3125.70703 2.6016 1.4492 3.8672 2.2344 11.824 7.3476 18.902 16.926 21.105 28.516.96875-.5664 1.9922-.96484 2.9141-1.3242 1.4492-.5664 2.7383-1.0703 3.6172-1.9961-6.4961-13.332-18.473-22.133-31.504-27.43m22.16 43.664-.69141-8.2656c-2.2383-26.617-30.621-36.668-51.781-41.91l-19.734-4.8945 20.316.84766c12.914.53906 26.051 3.8398 36.992 9.293 13.273 6.6172 23.117 16.32 28.484 28.062l.43359.94922-.51172.90625c-1.543 2.75-4.1758 3.7773-6.2852 4.6016-2.082.80859-3.3867 1.3789-3.9805 2.7734zm-127.07-49.887.91797 3.7226c1.0078 4.0781 3.2812 7.3047 6.0352 8.6406 1.0117-.58985 1.3711-1.2852 1.875-2.25.65625-1.2617 1.4727-2.832 3.6875-4.0391l.42188-.23046.48437-.0195c2.457-.0898 4.2695 1.082 5.8516 2.1094.73829.47656 1.4453.9375 2.1367 1.2031.85157-.65234 1.1367-1.418 1.5352-2.4805.37109-.9961.79687-2.1289 1.7344-3.2227l.67579-.79297 1.0469.082c2.1914.17578 4.2773.58203 6.293.97266 2.6094.5039 5.0742.98437 7.7148.98437 2.9844 0 5.7852-.63281 8.7109-1.9766-2.7305-7.4609-10.996-13.699-18.535-13.699-4.4961 0-8.1914 2.2188-10.68 6.4141l-.78125 1.3203-1.4883-.375c-2.2305-.57032-4.3516-1.3555-6.4062-2.1133-.50782-.1875-1.0234-.37891-1.5391-.56641-1.2695 1.5-2.1562 3.1211-3.0859 4.8164l-.92579 1.6797-1.4648-.28125c-1.6875-.32812-3.1445-.98437-4.5547-1.6211-1.2188-.54688-2.375-1.0742-3.5664-1.3125-2.7774 2.2227-2.3203 4.9883-1.1328 9.3945.61719-1.2148 1.4141-2.3984 2.4492-3.5352zm45.277 30.445c17.672 0 42.324 1.2812 52.344 12.332l.10547.11328.082.12891c5.8477 8.7773 13.352 13.141 21.293 17.758 5.9414 3.4531 12.07 7.0156 17.324 12.543 3.9688-1.8945 7.9258-4.1602 12.09-6.5469 8.3789-4.8047 17.051-9.7734 26.188-11.703 6.1289-1.293 12.648-2.3555 19.926-3.2461l.83203-.44921c7.5664-4.0469 15.383-8.2266 23.109-12.195 13.445-6.9102 27.945-14.137 46.781-23.32-5.8867-8.0273-12.285-15.906-18.484-23.547-3.7383-4.6055-7.6055-9.3633-11.32-14.109-.96094-1.2305-1.9492-2.4648-2.9883-3.7734-4.3203-5.4062-9.1132-11.414-12.832-17.793l-1.9531-2.4726c-6.4336-8.1484-13.422-14.371-20.77-18.496l-6.6367-3.7227 7.6055-.125c.97657-.0117 1.8828-.004 2.707.004.52344.008 1.0274.0156 1.4688.0117-3.0938-1.8125-8.7383-4.6055-16.242-7.5078-11.727-4.5352-22.309-7.1367-29.027-7.1367-.26953 0-.52734.004-.78906.008l-1.2031.043-.48438-.8125c-.21484-.0937-.61328-.21875-.87109-.29687-.55469-.17188-1.1836-.36719-1.7344-.69531-.24609.0156-.48437.0273-.71484.0273-.91406 0-1.6016-.14062-2.2031-.25781-.57812-.11719-1.0703-.21485-1.8594-.23438-1.4219-.0273-2.793-.1914-4.1133-.35156-1.3398-.16016-2.5977-.3125-3.8672-.32422-.65625.008-1.1523.0117-1.4922.0117-.23828 0-.38672-.004-.49609-.004-.89063.0508-1.8477.11329-2.7812.19532-1.8789.17968-3.8125.38672-5.8984.64062-2.6367.31641-5.2812.22266-7.8125-.27344-.15234.0391-.30859.0742-.46094.10938l.0156.0703-2.082.38281c-4.0625.7461-8.6719 1.4102-13.547 2.1133-12.504 1.8047-26.68 3.8516-39.266 8.2344-14.309 4.9844-23.598 12.016-28.391 21.5l-.40234.79297-.85156.25c-8.5664 2.5117-17.508 4.6523-26.148 6.7226-16.352 3.918-33.238 7.9609-48.867 14.77.33203.62109.67188 1.2617 1.0234 1.9219 4.6523 8.7695 11.02 20.777 18.527 22.348l1.2734.26172.30469 1.2656c1.1211 4.6367 4.8594 8.9609 9.0586 10.879-1.1562-4.4805-1.9023-9.6562 3.6758-13.383l.60938-.41015.73047.0703c2.125.20313 3.8828 1 5.5859 1.7656.76563.34765 1.5039.68359 2.2383.9375 1.0508-1.8828 2.2344-3.8008 4.0625-5.625l.90625-.90625 1.2109.41796c.97656.33594 1.9492.69141 2.8906 1.0391 1.5625.58203 3.0586 1.1328 4.582 1.5938 3.2266-4.5898 7.9102-7.0898 13.348-7.0898 9.9336 0 20.469 8.4062 23.004 18.359l.39844 1.5586-1.4219.75781c-4.0976 2.1953-7.9609 3.2109-12.156 3.2109-3.0312 0-5.8125-.53906-8.5-1.0586-1.5859-.3086-3.1016-.60156-4.6445-.78906-.17187.34375-.3125.73046-.47265 1.1562-.56641 1.5156-1.3438 3.5898-4.0703 5.0703l-.63281.33984-.71094-.125c-1.7305-.30859-3.1172-1.2031-4.3398-2-1.0703-.69922-2.0156-1.3086-2.9922-1.4297-.78906.54297-1.1172 1.1719-1.5742 2.0586-.7539 1.4492-1.6953 3.2578-4.6523 4.5l-.73047.30859-.74609-.26172c-3.3477-1.1758-6.1719-3.9766-7.9766-7.7891-1.2422 2.7852-1.3984 5.8867-1.5547 9.125-.0391.76953-.0781 1.5703-.12891 2.3633l-.0664.91406-.72265.5625c-3.0625 2.3945-4.6094 4.5156-4.3477 5.9727.58203 3.2227 9.2188 5.9492 15.52 7.9453 3.3203 1.0508 6.3945 2.0234 8.9062 3.1055-.22265-1.2695-.24609-2.5469.1211-3.8203l.49218-1.7148 1.7656.25c2.1562.30078 4.0391 1.0664 5.8594 1.8047 1.6133.66016 3.1602 1.2891 4.7774 1.5312-.17969-1.7617-.004-3.6992 1.3984-5.4414l.60937-.76172.97266-.008c1.207-.0117 2.5469-.0312 4.0078-.0547 2.7656-.043 5.8984-.0937 9.3008-.0937m90.125 47.875-1.0078-1.1406c-5.043-5.6914-11.02-9.168-17.355-12.852-7.9648-4.6289-16.195-9.4141-22.555-18.898-10.062-10.875-39.508-10.875-49.207-10.875-3.3672 0-6.4883.0469-9.2344.0898-1.0117.0195-1.9648.0352-2.8594.043-.30469.95312-.082 2.1758.27734 3.7812l.50391 2.2617-2.3047.22657c-.42578.043-.85547.0664-1.2773.0664-2.9531 0-5.375-.98828-7.7227-1.9453-.89453-.35937-1.7656-.71875-2.6367-1 .1836 1.043.58594 2.2148 1.0078 3.4258.13672.39453.27343.79297.40234 1.1875l3.0898 9.3594-6.5703-7.3477c-1.625-1.8203-7.207-3.582-12.125-5.1406-8.5039-2.6875-17.301-5.4688-18.32-11.133-.53906-2.9844 1.1406-6.0469 5.1328-9.3516.0234-.46484.0469-.93359.0703-1.3906.0977-1.9883.19922-4.0898.58204-6.1914-6.5977-.94531-13.07-6.8398-15.262-13.723-8.7656-2.7852-15.27-15.047-20.078-24.113-.72656-1.3711-1.4141-2.668-2.0547-3.8281l-1.0742-1.9453 2.0234-.91796c16.547-7.5156 34.375-11.789 51.621-15.918 8.3125-1.9922 16.898-4.0508 25.109-6.4297 5.3984-10.066 15.32-17.508 30.293-22.723 12.957-4.5156 27.34-6.5898 40.027-8.4219 4.0391-.58203 7.8984-1.1367 11.383-1.7344l-.0234-.11328 2.0977-.30859c.86328-.125 1.7383-.30859 2.6055-.54297l.48437-.13277.48828.10547c2.2383.48438 4.5977.59375 6.9414.3125 2.125-.25391 4.0938-.46875 6.0156-.64844 1.0391-.09375 2.0664-.16016 3.0234-.21875l.13672-.0078.13672.01172h.35937c.33594 0 .82031-.0039 1.4727-.01172h.0351c1.5.01172 2.9453.1875 4.3438.35547 1.2812.15625 2.4844.30078 3.6992.32422 1.1524.02344 1.9492.18359 2.5859.30859.51563.10547.89063.17969 1.3984.17969.3164 0 .66406-.03125 1.0742-.08984l1.4805-.21875.46484.94922c.19141.07422.45312.15234.64844.21094.66015.20312 1.418.4414 2.0625.875h.0664c9.9336 0 23.508 4.6953 30.715 7.4961 8.5742 3.3281 18.641 8.0898 20.492 10.68l.66016.92969-.4375 1.0508c-.66797 1.6211-2.0664 2.2734-3.5312 2.5312 4.3594 3.1367 8.5664 6.9805 12.578 11.492l.0117-4.375 3.8711 7.8906c3.6719 7.4883 4.3516 16.957 9.6875 23.648 1.0508 1.3125 2.043 2.5547 3.0195 3.8008 3.6914 4.7148 12.383 6.9062 16.109 11.5 6.75 8.3047 13.719 16.898 20.066 25.703l1.4258 1.9766-2.1914 1.0703c-19.891 9.6836-34.973 17.199-48.91 24.355-7.6953 3.9531-15.496 8.1289-23.047 12.168l-1.5078.8125-.38672.043c-7.3086.88672-13.836 1.9453-19.949 3.2344-8.5117 1.7969-16.891 6.6016-25 11.246-4.5078 2.5859-9.1758 5.2617-13.77 7.3555" fill="#fff"/><path d="m339.32 104.2s50.199-24.187 68.078-36.687c17.867-12.5-13.586 51.621-30.758 56.293" fill="#211e1e" fill-rule="evenodd"/><path d="m376.64 125.86c-.90234 0-1.7344-.60156-1.9844-1.5156-.29688-1.0938.35156-2.2226 1.4453-2.5195 8.418-2.293 22.453-22.449 30.281-39.84 3.875-8.6094 4.4258-12.648 4.2695-13.949-.36328.125-1.0273.42578-2.0742 1.1602-17.812 12.453-66.309 35.863-68.363 36.855-1.0195.49218-2.2461.0625-2.7422-.96094-.49219-1.0195-.0625-2.25.95703-2.7383.5-.24219 50.258-24.262 67.793-36.523 1.8242-1.2773 4.5078-2.8164 6.7031-1.4648 2.3555 1.4453 1.8633 4.875 1.6992 6-.94531 6.5703-6.7344 19.359-14.086 31.098-5.0586 8.0898-14.824 22.004-23.359 24.324-.17969.0508-.35938.0742-.53907.0742" fill="#fff"/><path d="m469.55 162.09 42.719 17.355-3.0742 16.066-41.266 2.1445z" fill="#211e1e"/><path d="m470.37 163.37-1.5156 33.352 39.609-2.0547 2.8047-14.68zm-3.3633 35.211 1.7188-37.777 44.543 18.094-3.3359 17.457" fill="#fff"/><g fill="#211e1e"><path d="m220.56 465.5-36.668-25.777-16.789-61.328 28.066-7.6875z"/><path d="m277.82 492.06-28.07 7.6836-37.461-136.87 28.059-7.6875z"/><path d="m327.19 482.14-28.074 7.6797-37.84-138.25 28.062-7.6797z"/><path d="m368.71 450.16-28.066 7.6836-37.434-136.74 28.066-7.6797z"/><path d="m404.12 399.47-28.062 7.6836-31.777-116.06 28.074-7.6836z"/><path d="m429.44 348.46-19.754 5.4062-24.227-88.512 19.75-5.4062z"/><path d="m85.137 427.93 111.09 12.574-37.379-38.801"/></g><path d="m89.016 427.48 104.89 11.867-35.289-36.629zm107.12 13.895-111.1-12.574-.19531-1.7031 73.719-26.227.92578.21875 37.379 38.797" fill="#fff"/><path d="m453.39 103.65-2.6953.67969 1.0781.42578c3.2891 168.85-44.16 265.22-84.602 316.37-41.102 51.973-83.445 69.012-89 71.082-102.41-50.273-143.92-151.02-160.71-226.77-18.656-84.184-12.125-157.79-11.836-160.88l.0469-.53125-.27344-.44922-.082-.14063c-.41797.34375-.92188.61328-1.3555.9375-.78516 8.4805-25.484 292.23 174.12 389.58 0 0 181.71-60.789 175.3-389.24.008-.35938.008-1.0703.008-1.0703" fill="#fff"/><path d="m278.08 493.96c-199.66-97.383-174.89-381.23-174.12-389.56l-.0117-.0234c182.84-67.52 342.66-3.5274 349.4-.70703l.0195-.0312c6.8203 329.41-175.29 390.32-175.29 390.32m194.38-420.13h-.0742c-6.5742-2.7891-177.55-76.355-386.3.71875l-.0039-.0039v.0039c-.01172.0039-.02344.0078-.03516.01172l.02734.04687c-.64453 5.1094-40.574 328.92 191.68 442.02 0 0 214.68-68.469 194.71-442.79" fill="#211e1e"/><path d="m105.62 105.64c54.898-20.129 113.1-30.336 173-30.336 41.516 0 82.793 4.8164 122.7 14.32 28.074 6.6836 45.922 13.496 50.316 15.246 3.2617 168.89-44.242 265.25-84.73 316.36-22.926 28.949-46.059 46.746-61.426 56.578-14.305 9.1562-24.648 13.262-27.293 14.242-102.33-50.254-143.82-150.94-160.61-226.65-7.7617-35.004-12.152-72.133-13.055-110.36-.61719-26.406.69531-44.602 1.0977-49.406m176.09-67.934c-66.961 0-132.97 11.836-196.19 35.168-.03906.01563-.07031.02734-.10938.03906-.48437.1875-.86328.57813-1.0352 1.0703-.07813.23047-.10938.46875-.09375.70312-.78516 6.4297-10.016 87.027 8.5625 180.77 11.031 55.668 29.664 104.8 55.387 146.04 15.258 24.457 33.215 46.387 53.371 65.156 22.156 20.641 47.52 37.988 75.379 51.551.23829.1211.50391.17969.76954.17969.17968 0 .35937-.0312.53515-.0859.55469-.17578 13.848-4.4805 33.621-16.723 11.582-7.1758 22.98-15.594 33.867-25.023 13.605-11.785 26.453-25.195 38.195-39.852 29.852-37.289 52.797-82.797 68.18-135.27 9.1289-31.121 15.664-65.074 19.43-100.91 4.1367-39.398 5.0273-82.051 2.6367-126.78-.043-.80078-.61719-1.457-1.375-1.625-5.5586-2.3555-25.559-10.398-56.32-18.07-19.16-4.7773-39.098-8.5742-59.258-11.281-24.93-3.3516-50.352-5.0508-75.555-5.0508m-3.6328 456.25s182.11-60.914 175.29-390.32l-.0195.0312c-4.4336-1.8555-74.984-30.129-174.73-30.129-52.023 0-112 7.6914-174.67 30.836l.0117.0234c-.77344 8.3242-25.535 292.18 174.12 389.56m3.6328-454.49c110.74 0 186.35 32.523 190.68 34.359h.0742c19.973 374.32-194.71 442.79-194.71 442.79-232.26-113.1-192.33-436.91-191.68-442.02l-.02734-.04687c.01172-.0039.02344-.0078.03516-.01172v-.0039l.0039.0039c71.297-26.324 138.19-35.078 195.63-35.078" fill="#fff"/><path d="m453.39 103.65c-4.4336-1.8516-75.008-30.113-174.75-30.113-52.008 0-112.04 7.7031-174.7 30.844l1.6172.96094c55.238-20.402 112.77-30.34 173.08-30.34 41.527 0 82.832 4.8203 122.75 14.336 31.867 7.5898 49.574 15.109 50.355 15.434" fill="#fff"/><path d="m88.012 423.98 364.36-107.39s50.367-12.816 53.121-62.215l3.9141-70.281-378.93 117.22s-33.805 6.0938-38.613 53.715c-4.8164 47.621-3.8438 68.957-3.8438 68.957" fill="#211e1e"/><g fill="#fff"><path d="m512.89 179.62-4.4414 1.375-378.77 117.16c-1.4922.3125-9.8789 2.3086-18.77 9.6484-8.7266 7.207-19.676 21.195-22.27 46.883-4.7852 47.312-3.8945 68.547-3.8555 69.43l.1875 4.1211 3.957-1.168 364.3-107.38c1.125-.29297 13.621-3.6953 26.559-13.082 17.742-12.863 27.742-30.871 28.926-52.07l3.918-70.285zm-3.4844 4.4609-3.918 70.285c-2.7539 49.398-53.117 62.215-53.117 62.215l-364.36 107.39s-.97266-21.336 3.8398-68.957c4.8164-47.621 38.621-53.715 38.621-53.715l378.93-117.22"/><path d="m156.86 308.56 10.949-3.25 30.316 54.469-4.8711-53.562c-.54297-6.3242 1.4805-10.168 6.0742-11.535 4.457-1.3281 8.1914.80078 11.199 6.3867l25.27 47.496-4.4453-62.184 10.945-3.2695 4.9883 71.52c.40234 5.6211-1.7617 9.1367-6.5 10.543-4.9414 1.4766-8.7109-.26953-11.309-5.2266l-24.691-46.633 4.8594 52.543c.53906 5.5703-1.5938 9.0703-6.3984 10.504-2.3984.71094-4.5742.63282-6.5156-.24218-1.9453-.875-3.5742-2.5312-4.8945-4.9727"/><path d="m304.43 280.07-1.8516 37.184 24.137-7.1914zm-15.113 69.645 4.5547-74.367c.22266-3.2695.75782-5.6445 1.6172-7.1328.86328-1.4883 2.3555-2.543 4.4844-3.1797 2.3242-.69141 4.2617-.67188 5.8281.0547 1.5547.72266 3.3672 2.4258 5.4297 5.0898l44.414 59.777-11.566 3.4766-10.113-13.793-32.125 9.5703-1.043 17.074"/><path d="m438.62 305.24-31.734 9.457c-4.5195 1.3398-8.8711.74219-13.062-1.8125-4.1914-2.5547-7.0078-6.2617-8.457-11.125l-11.32-37.992c-1.6289-5.4766-1.4062-10.355.67578-14.621 2.082-4.2734 5.6875-7.1758 10.82-8.707l31.219-9.2969 3.2109 10.781-29.777 8.875c-5.1367 1.5234-6.9414 4.8555-5.4062 9.9922l10.984 36.867c.67188 2.2578 1.9531 3.9258 3.8359 5 1.8906 1.082 3.9609 1.2812 6.2188.60937l29.578-8.8047"/><path d="m348.22 465.94c-.42578-.48828-.64063-.72656-1.0625-1.2109 1.4336-1.2578 2.1484-1.8906 3.5547-3.1758.1289-.11719.1914-.17578.32031-.29297.34375-.30859.29297-.70312-.14063-1.1797-.20312-.21875-.30468-.33203-.50781-.54687-.41406-.44922-.85937-.45313-1.3438-.008-.67187.60547-1.0117.91406-1.6836 1.5156-.56641.50781-1.0977.77344-1.5859.8125-.28516.0312-.58594-.0117-.89062-.13281-.30469-.12109-.55079-.28906-.73829-.50391-.3164-.36718-.47656-.54687-.80078-.91406-.45703-.51562-.66797-1.0547-.63672-1.6016.0352-.55469.30079-1.0547.8086-1.5078 1.5273-1.3672 2.2812-2.0547 3.7773-3.4492.44141.47265.66016.70312 1.0977 1.1797-1.3672 1.2695-2.0586 1.9024-3.4492 3.1484-.0977.0859-.14844.13281-.24609.21875-.15235.14063-.23829.30078-.25.48828-.0117.1875.0547.36328.19531.51953.18359.21094.27734.3125.46484.51954.14844.17578.34375.2539.57422.24609.23047-.008.44141-.0977.63672-.26953.73828-.66016 1.1016-.9961 1.832-1.6602.47656-.43359 1.0312-.64453 1.6758-.63672.64063 0 1.168.22266 1.5859.66797.41406.44531.62109.67188 1.0312 1.1172.375.39844.55078.90625.52344 1.5195-.0352.60938-.26563 1.1172-.69141 1.5078-1.6055 1.4688-2.4141 2.1914-4.0508 3.6289"/><path d="m355.38 459.42c-2.2148-2.3438-4.4258-4.6875-6.6406-7.0312.47266-.44531.71094-.66797 1.1758-1.1172 2.2266 2.332 4.457 4.6641 6.6836 6.9883-.48829.46875-.72657.69531-1.2188 1.1602m-8.3125-8.3281c-.21875-.23437-.32813-.5-.32813-.80078 0-.29297.11328-.55078.34375-.76172.23047-.21875.50781-.33203.81641-.32812.3125.0117.57422.125.78906.34765.21875.22266.32031.48438.3125.79688-.008.30078-.13281.5625-.35547.77734-.22656.22266-.49609.32422-.80078.31641-.30859-.004-.56641-.125-.77734-.34766"/><path d="m358.33 456.58c-2.0039-2.0547-3.0039-3.0898-5.0117-5.1445-.58984-.60938-.83984-1.2773-.75781-2.0117.0625-.54297.39062-1.1094.98437-1.6953.73829-.73438 1.1016-1.1016 1.832-1.8398.58984-.59765 1.1562-.93359 1.707-1.0078.35547-.043.70312 0 1.043.125.33593.1211.66015.33203.96875.62891 2.0664 2 3.1016 2.9922 5.1719 4.9883-.46875.48437-.70312.72266-1.1719 1.2031-1.9922-1.9453-2.9922-2.918-4.9844-4.8711-.12891-.125-.19531-.1875-.32031-.3125-.082-.0664-.23047-.11328-.39453-.10547-.25.0156-.53516.19141-.8125.46875-.7461.75781-1.1211 1.1328-1.875 1.8828-.30469.30469-.46485.56641-.46485.78907-.004.21875.13282.47265.40625.7539 1.957 1.9844 2.9375 2.9805 4.8945 4.9609-.48437.47656-.72656.71484-1.2148 1.1875"/><path d="m370.5 443.95c-1.0508 1.1602-1.5742 1.7344-2.6328 2.8789-.54688.58594-1.1797.91797-1.8828.99219-.71093.0742-1.3203-.13282-1.8242-.61719-1.3906-1.3125-2.0781-1.9727-3.4688-3.2852-.35547-.33594-.58985-.65234-.71094-.94922-.11719-.29297-.11719-.65234-.0508-1.0273.10937-.58984.36718-1.1758.83593-1.6797 1.0195-1.1016 1.5274-1.6523 2.5234-2.7617.48047.42969.72266.64844 1.1953 1.0781-1.0078 1.1172-1.5117 1.6719-2.543 2.7773-.21875.23828-.32813.5-.32422.76953.008.27344.1289.51953.36328.73828 1.2266 1.1484 1.8398 1.7266 3.0703 2.8711.23047.21875.51172.33203.83984.33203.32422-.008.59766-.12109.82422-.35938 1.043-1.1289 1.5586-1.6953 2.5898-2.832.47265.42969.71093.64453 1.1953 1.0742"/><path d="m367.75 436.75c.58594.51563.88281.76953 1.4688 1.2812.62109-2.0273.91797-3.0469 1.4844-5.0742-.0508-.0469-.0703-.0664-.12109-.10546-.23047-.19922-.44141-.28516-.62109-.25782-.1836.0312-.39844.19532-.65235.49219-.69922.81641-1.0508 1.2227-1.7539 2.0352-.48047.54687-.41797 1.0938.19531 1.6289m9.5195-.60937c-1.4492 1.7422-2.1836 2.6055-3.6758 4.3164-.55078.63282-1.1719.98438-1.8516 1.0508-.67969.0703-1.3047-.15625-1.8867-.67188-1.2891-1.1523-1.9375-1.7266-3.2305-2.8789-1.3867-1.2305-1.4102-2.5976-.0937-4.1133.63672-.73828.95312-1.1055 1.5898-1.8438.52735-.6289 1.1055-.97656 1.7344-1.043.625-.0703 1.2383.14454 1.8398.65235.35547.29297.53125.4414.87891.73047-.76563 2.7461-1.168 4.1211-2.0195 6.8711.0937.082.14062.125.23437.21094.14063.0937.21094.14062.35156.23047.1211.0586.20313.0976.23829.12109.0351.0234.10156.0391.17968.0469.24219.043.54297-.10157.8711-.47657 1.4609-1.6797 2.1836-2.5234 3.6055-4.2305.49609.41407.74218.61719 1.2344 1.0274"/><path d="m384.42 427.2c-3.4102-2.6055-6.8242-5.2188-10.238-7.8281.45312-.58985.67968-.88672 1.1289-1.4844 3.4336 2.5859 6.8633 5.1719 10.293 7.7539-.47265.625-.70703.9375-1.1836 1.5586"/><path d="m383.21 417.52c.3125-.10937.57813-.33984.77735-.61328.74609-1.043 1.1172-1.5625 1.8516-2.6133.22266-.32031.32812-.6289.3125-.92187-.008-.29688-.15234-.53516-.41406-.71485-.76953-.53125-1.1445-.79297-1.9141-1.3242-.26171-.18359-.57031-.22265-.92578-.13281-.35547.0859-.63672.28516-.83984.58203-.73828 1.0469-1.1094 1.5703-1.8516 2.6094-.16016.22265-.22657.48437-.1875.77734.0351.29688.17187.52735.40234.69531.77734.5625 1.1602.83985 1.9375 1.4062.33594.24219.63281.33204.85156.25m4.125 5.7774c-.60156-.44531-.90234-.66406-1.5078-1.1094 1.5469-2.1016 2.3047-3.1602 3.7969-5.293.22656-.32031.3164-.625.28515-.92968-.0273-.29688-.1914-.55078-.48828-.75391-.51953-.36328-.78125-.54297-1.3047-.90625-1.0312 1.4844-1.5508 2.2227-2.6055 3.6953-.57812.80469-1.2578 1.2656-2.0391 1.3945-.78515.13282-1.4766-.0312-2.0938-.48437-.83203-.61328-1.25-.92188-2.0859-1.5352-.61328-.44922-.99218-1.0781-1.1367-1.8672-.14454-.78907-.008-1.4688.41015-2.0508.85547-1.1914 1.2774-1.7852 2.1172-2.9883.46875-.67578 1.0938-1.0938 1.875-1.2539.78125-.14844 1.5117 0 2.1875.46093 2.3242 1.582 3.4844 2.3711 5.8047 3.957.78125.53125 1.2305 1.1602 1.3633 1.8906.12109.72656-.082 1.4922-.63281 2.2695-1.5469 2.2266-2.3359 3.3242-3.9453 5.5039"/><path d="m394.55 413c-.6211-.41797-.9375-.62109-1.5586-1.0391 1.25-1.875 1.8672-2.8203 3.0781-4.7266.16015-.25.21484-.51953.17187-.80078-.0508-.28515-.19531-.49609-.43359-.65234-.47266-.29688-.71094-.44141-1.1797-.74219-.70703-.44531-1.2734-.32812-1.7031.34766-.5625.8789-.83985 1.3164-1.4102 2.1875-.62891-.40625-.94531-.61328-1.5703-1.0195.5625-.86719.83984-1.3008 1.3945-2.1797.11719-.17188.16797-.36719.1875-.53125.0391-.19922.0547-.37891.0156-.48828-.0625-.20313-.26562-.42969-.62109-.65235-.47266-.30078-.70703-.44921-1.1797-.74609-.23047-.14453-.48437-.18359-.76953-.11719-.27734.0625-.5.21875-.65234.46094-1.1719 1.8398-1.7656 2.7539-2.9727 4.5625-.60547-.40234-.91015-.60547-1.5156-1.0078 1.1602-1.7422 1.7305-2.6172 2.8555-4.3828.52734-.82422 1.1602-1.3203 1.8594-1.5039.33984-.0937.6875-.125 1.043-.0742s.67969.16797.97656.34766c.62891.39453.94922.58984 1.5781.98047.22265.14062.42578.3125.60547.51953.17968.19922.30078.41015.35156.61718.0547.20704.0195.94532.0195.94532.0312.0195.42578-.23047.44531-.24219.1211-.0664.25781-.10547.35156-.125.20704-.0469.46094-.0391.7461.0234.28125.0625.54297.16406.77344.30859.63281.39063.94921.58203 1.5781.98047.63672.39453 1.0156.98828 1.125 1.7812.10938.78906-.0898 1.5859-.58594 2.3711-1.1797 1.8516-1.7812 2.7734-3.0039 4.5977"/><path d="m401 402.86c-3.6797-2.2227-7.3555-4.4453-11.035-6.6641.38281-.64063.57812-.96094.96484-1.6055 3.6914 2.1914 7.3828 4.3867 11.074 6.5781-.40234.67969-.60156 1.0156-1.0039 1.6914"/><path d="m145.8 63.969c1.043-.25 1.5625-.375 2.6055-.61719 2.4844 5.0234 3.7109 7.543 6.1406 12.59-.10937-4.832-.15625-7.2422-.22656-12.078-.0156-1.4219.52735-2.2656 1.6289-2.5078 1.0625-.23438 1.8984.29688 2.4844 1.5977 1.9805 4.4141 2.957 6.6211 4.8945 11.047.0703-5.5977.1211-8.3984.25782-14.004 1.043-.21875 1.5703-.32031 2.6172-.53516-.1914 6.4453-.26953 9.6562-.38281 16.094-.0195 1.2695-.57812 2.0156-1.6719 2.25-1.1484.24609-1.9688-.21094-2.4688-1.3594-1.9024-4.3398-2.8633-6.5039-4.8086-10.832.0625 4.7422.10157 7.1094.20313 11.848.0352 1.2578-.50781 2.0039-1.6211 2.2617-.55468.12891-1.0469.08203-1.4726-.14062-.42969-.22266-.77735-.61328-1.0391-1.1797-2.8203-5.7891-4.25-8.6719-7.1406-14.434"/><path d="m177.8 70.039c.15625.85156.42578 1.4023.80078 1.6406.375.23437 1.0352.26953 1.9805.09766 1.0664-.1875 1.6016-.28516 2.668-.47266.92968-.16406 1.5352-.41406 1.8125-.76563.28125-.34766.33984-.95312.19531-1.8047-.53125-3.1094-.79688-4.6602-1.332-7.7695-.13672-.81641-.40235-1.3594-.80469-1.6172-.39453-.25391-1.0586-.30859-1.9922-.14062-1.0938.19141-1.6445.28516-2.7344.48438-.9336.16797-1.543.4375-1.8281.80078-.28906.36328-.35547.96484-.19922 1.8164.57032 3.0938.85938 4.6367 1.4336 7.7305m3.6094 4.1523c-1.2148.21875-2.0976.30078-2.6523.24219-.55469-.05859-1.1172-.3125-1.6953-.73438-.88672-.64844-1.4922-1.75-1.7891-3.3086-.5664-2.9961-.85156-4.4883-1.4219-7.4844-.16016-.84766-.20313-1.5508-.12891-2.0938.0742-.54297.28516-1.1016.64453-1.6719.35938-.57422.8086-.99609 1.3438-1.2656.53907-.26953 1.4219-.51562 2.6328-.73438.76953-.13672 1.1523-.20703 1.9219-.34375 1.2656-.22266 2.1758-.30078 2.7227-.23438.54297.07031 1.1367.32031 1.7422.75391.92188.66016 1.5078 1.7891 1.7656 3.3398.5 3.0078.75391 4.5039 1.2539 7.5156.14062.85156.17578 1.5547.10156 2.0898-.0742.54297-.30078 1.0938-.67188 1.6602-.37109.5625-.82031.98047-1.3438 1.2383-.52734.25781-1.3789.49609-2.5586.69922-.74609.13281-1.1172.19531-1.8672.33203"/><path d="m207.46 70.141c-2.6016.33984-3.8984.51953-6.4961.89062-1.4766.21094-2.6562.0078-3.5547-.62109-.89453-.62109-1.4492-1.6328-1.6641-3.0273-.77735-5.1211-1.168-7.6797-1.9453-12.805 1.0274-.15625 1.543-.23438 2.5742-.39062.75391 5.1211 1.1289 7.6758 1.8867 12.793.0977.70312.32031 1.1602.64453 1.3867.32813.22656.88282.28906 1.6562.17578 2.6289-.37891 3.9375-.55469 6.5703-.90234.1289 1 .19531 1.5.32812 2.5"/><path d="m213.96 69.324c-.60547-5.0664-.90625-7.6055-1.5156-12.672-.20313-1.6914.125-2.9688.97265-3.8438.39063-.39844.82422-.6875 1.3047-.85547.47266-.16797 1.2383-.30469 2.2969-.42188 2.6758-.29688 4.0117-.4375 6.6875-.70703.0977 1.0078.15235 1.5039.25 2.5117-2.7695.26953-4.1562.41797-6.9297.72656-.3086.03516-.46094.05078-.76953.08594-.29297.06641-.57032.19531-.78907.37891-.40625.34766-.57422.87109-.5 1.5234.14453 1.2578.22266 1.8828.36719 3.1367 3.6328-.41797 5.4453-.60938 9.082-.96875.0977 1.0039.14844 1.5078.2461 2.5117-3.6172.35938-5.4258.55469-9.0391.96875.33594 2.9336.50391 4.3984.84375 7.332-1.0039.11328-1.5039.17188-2.5078.29297"/><path d="m231.76 67.48c-.0898-1.0039-.1289-1.5078-.21875-2.5117 2.8047-.24609 4.207-.36328 7.0117-.57031.46875-.03516.85156-.20313 1.1602-.5.30468-.29297.4414-.64063.41015-1.0391-.0625-.86719-.0937-1.3047-.15625-2.1797-.0312-.44531-.22265-.78906-.57812-1.0312-.35547-.23828-.82031-.33984-1.3945-.29688-1.0586.07813-1.5859.12109-2.6484.20703-1.2109.09375-2.2539-.14844-3.1211-.74219-.86719-.59375-1.3438-1.3945-1.4336-2.4023-.0742-.85937-.11719-1.2852-.1914-2.1484-.0742-.86328-.008-1.5664.19921-2.0977.19922-.53125.59375-1.0156 1.1484-1.4492.34375-.26562.71094-.47656 1.0938-.60156.37891-.125.89453-.21094 1.5391-.26172 2.9102-.23438 4.3672-.34375 7.2774-.53906.0664 1.0078.10547 1.5078.17187 2.5156-2.957.19922-4.4336.30859-7.3867.54297-1.0625.08984-1.5508.60547-1.4766 1.5469.0586.69141.0859 1.0391.14453 1.7266.0977 1.1875.70313 1.7266 1.8203 1.6367 1.2461-.09766 1.8672-.14844 3.1094-.24219 1.1016-.08203 2.0664.18359 2.9023.78125.83204.60156 1.2774 1.3594 1.3359 2.2734.0742 1.082.11328 1.625.1875 2.707.0742 1.1055-.24219 2.0469-.93359 2.8125-.69531.77344-1.5977 1.1953-2.7227 1.2773-2.8984.21484-4.3555.33594-7.25.58594"/><path d="m252.55 58.664c.0937 1.9414.14454 2.9141.23829 4.8555 2.2812-.11328 3.4258-.16406 5.7109-.25391.47266-.01953.87891-.22656 1.2344-.60547.36328-.38672.53906-.82031.52344-1.3047-.0234-.65625-.0391-.98047-.0625-1.6328-.0117-.30859-.1836-.58594-.49219-.83203-.40235-.32422-.85547-.5-1.3477-.48047-2.3242.08984-3.4844.14062-5.8047.25391m-.36718-7.418c.0977 1.957.14453 2.9414.24218 4.9023 2.3438-.11719 3.5117-.17188 5.8555-.26563.54297-.01953.96485-.17969 1.2774-.48828.30859-.30469.45703-.71094.4375-1.2227-.0234-.66016-.0312-.98828-.0586-1.6523-.0156-.46094-.20312-.83594-.5625-1.125-.35547-.28906-.79297-.42969-1.3086-.41016-2.3516.09375-3.5312.14453-5.8828.26172m-1.7852 14.918c-.37109-6.9258-.5625-10.383-.93359-17.305 3.6406-.19531 5.4609-.27734 9.1055-.41406 1.1484-.04297 2.0742.29688 2.7812 1.0273.33984.35547.61718.75391.82421 1.2031.20313.44922.3125.875.32422 1.2734.0274.83203.0391 1.2539.0664 2.0859.008.35156-.0508.74609-.17578 1.1719-.125.42969-.26563.74219-.41016.94531-.15234.20703-.84765.77734-.84375.78516 0 .01563.20313.10547.3086.17969.11328.07812.21093.13672.28906.18359.27344.17578.51953.53125.70312.94141.1836.41406.28516.83594.30078 1.2695.0195.65234.0312.98438.0508 1.6406.0391 1.2852-.3086 2.3594-1.0391 3.2344s-1.6719 1.3398-2.8281 1.3867c-3.4102.12891-5.1133.20703-8.5234.39062"/><path d="m282.07 65.359c-2.7031-.0078-4.0508-.0039-6.7539.01953-.80469.0078-1.4844-.07813-2.0312-.26562-.55079-.18359-1.0469-.5-1.4805-.94141-.4375-.44141-.73828-.91016-.90625-1.3906-.17188-.48438-.26563-1.1523-.28516-2-.0586-3.3359-.0859-5.0078-.14062-8.3398-.0312-1.6523.5-2.8711 1.6016-3.6328.42969-.29297.88281-.49219 1.3633-.59766.48437-.09766 1.2148-.15234 2.1992-.16016 2.6133-.02344 3.9219-.02734 6.5391-.02344-.008 1.0117-.008 1.5156-.0156 2.5234-2.5781-.0039-3.8672-.0039-6.4531.01953-.4375 0-.65625.0039-1.0938.01172-.44531.0039-.82422.1875-1.125.55078-.29687.36328-.44922.80859-.44141 1.3398.0156 1.1797.0234 1.7734.0391 2.957 3.625-.04297 5.4414-.05859 9.0664-.04688-.004 1.0078-.004 1.5156-.008 2.5234-3.6133-.0078-5.418 0-9.0312.04687.0117.92578.0195 1.3867.0312 2.3125.004.43359.0117.64453.0156 1.0742.008.40625.18359.77734.52734 1.0742.29297.25781.61328.40625.90234.45313.54297-.0078.82032-.0078 1.3672-.01172 2.4492-.01953 3.6758-.02344 6.1289-.01563-.004 1.0078-.0117 1.5078-.0156 2.5195"/><path d="m289.72 65.434c.125-6.9336.17578-10.395.28906-17.328 3.6367.0625 5.4531.10547 9.0859.22266 1.1328.03516 2.1016.49219 2.875 1.3711.31641.35547.52734.70703.63281 1.0312.0977.32031.14453.76172.1211 1.3203-.0469 1.2031-.0664 1.8008-.11329 2.9961-.0312.88281-.40625 1.6445-1.1094 2.3008-.71094.64844-1.5.96484-2.3828.9375-1.1953-.04297-1.7969-.05859-2.9883-.08984 2.5156 3.0195 3.7578 4.5391 6.2031 7.5898-1.3398-.05469-2.0117-.08203-3.3516-.125-2.4258-2.9766-3.6484-4.4609-6.1367-7.4102-.21484-.23047-.3125-.51953-.30859-.87891.0156-.54688.1914-.97656.54296-1.293.35157-.3125.82422-.46484 1.4141-.44922 1.5469.03906 2.3242.05859 3.8711.10547.44531.01172.83203-.10156 1.168-.36328.33984-.26562.51172-.58594.52734-.96875.0274-.76562.043-1.1484.0664-1.9141.0391-1.0703-.48047-1.625-1.5508-1.6602-2.4102-.07422-3.6133-.09766-6.0195-.14844-.125 5.9219-.1836 8.875-.31641 14.801-1.0039-.02344-1.5078-.02734-2.5195-.04687"/><path d="m322.85 57.059c-.15235 2.125-.23829 3.1914-.39454 5.3203-.0547.70703-.16015 1.2734-.32812 1.7109-.16016.44141-.42578.86328-.79688 1.2656-.48828.52344-1 .87891-1.5234 1.0586-.51953.17969-1.2109.23828-2.0664.18359-1.3906-.09375-2.0859-.13672-3.4766-.22266-1.2578-.07813-2.2422-.46484-2.9531-1.0859-.5625-.5-.98047-1.0078-1.1797-1.5312-.20313-.51953-.27344-1.2344-.22657-2.1328.17578-3.3086.25782-4.9648.42969-8.2773.16016-3.0273 1.8242-4.457 5.0039-4.2656 2.7617.16797 4.1406.25781 6.8984.45703-.0742 1.0078-.10937 1.5039-.17968 2.5156-2.8398-.20703-4.2578-.29688-7.1016-.46875-.69531-.04297-1.1992.07031-1.5156.34766-.3125.26953-.49219.73828-.52734 1.4102-.19532 3.4258-.28516 5.1445-.48047 8.5664-.0352.54688.0664.99219.30468 1.3438.24219.34766.57032.53906.97266.5625.27344.01953.40625.02734.67969.04297 1.4062.08594 2.1094.12891 3.5195.21875.56641.03906 1.0352-.08203 1.3945-.35938.35938-.28125.56641-.69531.60156-1.2578.16016-2.2383.23438-3.3555.39063-5.5938 1.0195.07422 1.5352.11328 2.5547.19141"/><path d="m341.38 68.68c-2.6875-.29297-4.0312-.4375-6.7266-.69922-.80078-.07813-1.4727-.23047-2-.47266-.52344-.24219-.98828-.61328-1.3789-1.0977-.38281-.48438-.63672-.98047-.75391-1.4805-.11718-.5-.14453-1.168-.0664-2.0156.29297-3.3242.44531-4.9883.73828-8.3125.14844-1.6406.80859-2.7969 1.9844-3.4375.45704-.25.9336-.39844 1.4258-.44922.48828-.05078 1.2226-.02734 2.2031.07031 2.6055.25391 3.9062.38672 6.5117.67578-.11328 1.0039-.16406 1.5-.27344 2.5039-2.5742-.28516-3.8633-.41406-6.4336-.66797-.4336-.04297-.65235-.06641-1.0859-.10938-.44922-.04297-.84766.10547-1.1836.43359-.33594.33203-.53516.75781-.58203 1.2852-.11329 1.1758-.16797 1.7734-.27735 2.9492 3.6133.33984 5.4219.51953 9.0352.91406-.11328 1.0039-.16406 1.5039-.27344 2.5078-3.5977-.39453-5.3945-.57422-8.9961-.91016-.0859.91797-.12891 1.3789-.21485 2.2969-.043.43359-.0586.64453-.10156 1.0742-.0352.40234.0977.79688.40625 1.1289.26953.28516.56641.46484.85547.53906.54297.05469.80859.08203 1.3555.13672 2.4453.23828 3.668.36328 6.1094.63281-.10937 1.0039-.16015 1.5039-.27734 2.5039"/><path d="m348.99 69.566c.85156-6.8828 1.2773-10.316 2.1289-17.203 3.6133.44922 5.4141.69141 9.0234 1.1914 1.125.15625 2.0391.71094 2.7188 1.668.28125.39062.45703.75781.52344 1.0938.0703.33203.0625.77734-.0195 1.332-.17578 1.1836-.26172 1.7773-.4336 2.9609-.1289.87109-.57812 1.5938-1.3516 2.1719-.76953.57422-1.5938.79688-2.4688.67969-1.1875-.16797-1.7891-.25391-2.9766-.41016 2.1914 3.2695 3.2695 4.9102 5.3867 8.2031-1.332-.19531-2-.28516-3.3359-.47266-2.0977-3.2188-3.1602-4.8242-5.3203-8.0195-.19141-.25-.26172-.5625-.21875-.91406.0703-.54297.29687-.94922.67968-1.2266.38672-.27734.86719-.37891 1.4492-.30078 1.543.20313 2.3164.30859 3.8594.52344.4375.05859.83984-.01563 1.1992-.23828.36328-.22266.57422-.52734.625-.91016.10937-.75781.16797-1.1328.26953-1.8945.14844-1.0547-.30078-1.6641-1.3711-1.8125-2.3906-.32812-3.5859-.48828-5.9805-.79297-.75391 5.875-1.1289 8.8125-1.8828 14.691-1-.13281-1.5-.19531-2.5039-.32031"/><path d="m389.12 61.734c-1.7266 2.875-2.5938 4.3164-4.2969 7.2031 2.2774.42188 3.4102.64453 5.6836 1.0938-.54297-3.3164-.8086-4.9766-1.3867-8.2969m-10.328 12.324c3.3945-5.7734 5.1211-8.6406 8.6328-14.367.39063-.62891.75782-1.043 1.0977-1.25.33594-.20312.76172-.25781 1.2695-.16016.5586.10938.95313.31641 1.207.62891.24219.30859.4375.83594.58203 1.582 1.1211 6.6211 1.6524 9.9258 2.6484 16.543-1.0742-.21875-1.6211-.32812-2.6992-.54297-.22656-1.5195-.33593-2.2812-.5664-3.8008-3.0039-.60156-4.5117-.89062-7.5234-1.4492-.78906 1.3203-1.1914 1.9766-1.9727 3.3047-1.0742-.19922-1.6016-.29688-2.6758-.48828"/><path d="m411.06 80.801c-2.9297-.69922-4.3984-1.0391-7.332-1.707-1.0469-.23438-1.8555-.82812-2.4062-1.7852-.55078-.95703-.70703-1.9961-.46484-3.1094.76172-3.4727 1.1406-5.2148 1.9023-8.6875.26953-1.2539.85156-2.1875 1.7578-2.7891.89844-.60156 1.9688-.76172 3.1914-.48828 2.9844.67578 4.4688 1.0195 7.4414 1.7344-.23828.98047-.35157 1.4727-.58985 2.4531-2.8203-.67578-4.2383-1.0117-7.0664-1.6562-1.2188-.27344-1.957.17969-2.2188 1.3516-.75 3.3711-1.1367 5.0547-1.8867 8.4219-.11719.51953-.0391.98047.21484 1.3984.26172.42188.65235.69141 1.1758.8125 2.7539.62109 4.1172.94531 6.8633 1.6016-.23437.98438-.34765 1.4688-.58203 2.4492"/></g></g></svg>