<svg xmlns="http://www.w3.org/2000/svg" xmlns:svg="http://www.w3.org/2000/svg" xmlns:rdf="http://www.w3.org/1999/02/22-rdf-syntax-ns#" xmlns:cc="http://creativecommons.org/ns#" xmlns:dc="http://purl.org/dc/elements/1.1/" width="352.2111842157425" height="283.9205694806849" version="1.1" viewBox="0 0 564.77001 455.61914" id="svg133">
  <defs id="defs133"/>
  <metadata id="metadata1">
    <rdf:RDF>
      <cc:Work rdf:about="">
        <dc:format>image/svg+xml</dc:format>
        <dc:type rdf:resource="http://purl.org/dc/dcmitype/StillImage"/>
      </cc:Work>
    </rdf:RDF>
  </metadata>
  <g stroke-width="0.91352" id="g37" transform="translate(-104.13,-21.569667)">
    <circle cx="386.54999" cy="194.81" r="171.96001" fill="#ffffff" id="circle1"/>
    <path d="m 386.61,475.31 h -1.8727 V 366.16 h 1.891 a 171.29,171.29 0 0 0 171.29,-169.5 v -1.827 h 109.2 v 1.8819 c -1.0232,153.64 -126.85,278.62 -280.5,278.62 z" fill="#ffffff" id="path1"/>
    <path d="M 386.49,368.04 A 173.17,173.17 0 0 1 213.31,196.68 H 107.87 c 1.0231,152.78 125.62,276.8 278.62,276.8 z" fill="#009b46" id="path2"/>
    <path d="m 668.88,194.81 v -1.8818 H 559.71 c -1.0049,-94.622 -78.307,-171.36 -173.2,-171.36 -94.896,0 -172.21,76.735 -173.21,171.36 H 104.13 v 1.8818 c 0,155.7 126.68,282.38 282.39,282.38 155.71,0 282.38,-126.68 282.38,-282.38 z m -411.9,-86.373 c -12.597,16.443 -19.887,56.126 -19.887,56.126 -0.53897,10.286 -4.1291,13.365 -4.1291,13.365 l -12.908,14.333 c -3.8916,4.5676 -2.8228,-1.6992 -2.8228,-1.6992 2.0006,-62.631 38.057,-101.77 38.057,-101.77 3.8185,-4.5676 3.243,-0.11876 3.243,-0.11876 l 0.73995,8.7698 c 1.0506,5.6455 -2.2929,10.962 -2.2929,10.962 z m -14.552,171.66 20.262,3.0329 c 0,0 6.7874,-0.10961 12.945,7.5274 a 157.12,157.12 0 0 0 41.848,34.348 c 0,0 7.0249,2.3386 10.222,8.1212 l 13.42,22.034 c 0,0 1.7722,2.1376 1.9092,3.3161 a 168.57,168.57 0 0 1 -76.443,-44.032 170.65,170.65 0 0 1 -26.711,-34.659 7.3081,7.3081 0 0 1 2.5487,0.3106 z m 197.92,-246.39 c -0.34713,1.0871 -2.2472,2.0006 -2.2472,2.0006 l -5.5542,2.366 c -4.6315,1.827 -10.907,-0.41108 -10.907,-0.41108 -41.784,-6.0749 -67.408,0 -67.408,0 -6.897,2.1559 -9.0621,0 -9.0621,0 l -8.8977,-3.9464 a 3.2795,3.2795 0 0 1 -1.416,-0.73081 169.71,169.71 0 0 1 105.49,0.72168 z m 75.457,79.604 c 15.822,26.775 16.836,56.757 16.836,56.757 a 19.705,19.705 0 0 1 -2.1925,12.122 c -14.114,28.118 -25.094,32.594 -30.146,32.887 -1.3155,0.27405 -4.0103,1.352 -2.0189,5.4354 0,0 0.26492,0.45677 0.67601,1.3246 12.789,14.836 -1.5895,54.875 -1.5895,54.875 -6.9428,21.641 -41.035,40.195 -41.035,40.195 -10.716,8.715 -23.066,4.0834 -23.066,4.0834 -33.279,-7.9568 -44.306,-25.926 -44.306,-25.926 -3.2704,-4.4945 -5.3075,0.20098 -5.3075,0.20098 -14.086,20.216 -46.754,26.748 -46.754,26.748 -12.049,3.2704 -18.782,-2.2473 -18.782,-2.2473 -28.584,-17.357 -39.199,-32.667 -39.199,-32.667 -16.544,-27.095 -8.5505,-58.757 -8.5505,-58.757 a 14.132,14.132 0 0 1 5.4811,-8.2216 c 0.26492,-0.52072 0.42936,-0.80391 0.42936,-0.80391 1.7814,-3.5079 -0.26493,-4.3666 -1.6078,-4.5676 -3.4805,0.57553 -15.676,-0.21924 -31.599,-33.343 a 19.668,19.668 0 0 1 -1.9366,-12.113 c 0,0 1.5347,-29.954 17.823,-56.455 0,0 2.4574,-5.3441 6.0383,-8.1394 a 67.518,67.518 0 0 1 40.889,-16.973 c 0,0 5.609,-0.91352 9.7381,2.2198 3.9829,0.51157 3.8642,-2.0371 3.5719,-3.2887 -0.63947,-1.6535 -0.91351,-4.4032 0.50243,-8.788 0,0 12.981,-29.013 35.728,-35.435 0,0 36.02,-7.3081 66.504,0.73082 0,0 19.686,7.436 31.973,32.814 a 15.877,15.877 0 0 1 1.2789,8.6145 2.6218,2.6218 0 0 1 0,0.28319 c 0,0 -0.9135,5.1796 4.7868,3.855 0,0 0.51159,-0.1553 1.4708,-0.36541 a 15.338,15.338 0 0 1 7.8836,-1.014 67.463,67.463 0 0 1 40.578,17.677 c 3.5353,2.8593 5.9013,8.2216 5.9013,8.2216 z m -87.15,240.87 13.822,-21.778 c 3.3069,-5.7278 10.368,-7.9385 10.368,-7.9385 a 157.12,157.12 0 0 0 42.488,-33.553 c 6.2941,-7.5183 13.072,-7.3082 13.072,-7.3082 l 20.317,-2.6492 c 2.0828,-0.49331 3.0877,-0.32888 3.4896,0.13703 a 170.45,170.45 0 0 1 -92.073,74.251 76.534,76.534 0 0 1 -10.131,2.1833 c -6.6413,2.7406 -1.352,-3.3618 -1.352,-3.3618 z m 127.39,-160.86 c -0.16445,1.151 -0.79477,1.7814 -2.7406,-0.75823 l -12.661,-14.561 c 0,0 -3.2521,-3.0968 -4.1017,-13.374 0,0 -6.3946,-39.884 -18.691,-56.519 0,0 -3.3435,-5.1796 -2.4208,-10.962 l 0.91351,-8.8063 c 0,0 0,-1.5895 0.67601,-1.9184 a 168.83,168.83 0 0 1 38.934,103.48 v 0.91353 c 0,0 0,0.15529 0.0547,0.40194 v 2.092 z m 109.07,3.3526 c -1.014,152.78 -125.62,276.8 -278.62,276.8 -153,0 -277.61,-124 -278.63,-276.78 h 105.44 a 173.17,173.17 0 0 0 173.18,171.36 c 94.887,0 172.19,-76.735 173.2,-171.36 z" fill="#060404" id="path3"/>
    <path d="m 345.03,178.91 c 0,0 -8.788,15.658 -15.996,21.541 -10.67,8.6967 -17.357,7.3081 -17.357,7.3081 0,0 8.1668,-9.1352 11.976,-14.132 3.3161,-4.3849 9.6285,-13.584 12.296,-17.494 a 3.5536,3.5536 0 0 0 2.3386,4.5676 c 2.8593,1.151 5.3532,-1.078 6.285,-1.9458 a 0.16443,0.16443 0 0 1 0.0822,-0.0547 l 0.34715,0.21014 z" fill="#ffffff" id="path4"/>
    <path d="m 364.83,140.88 c 0,0 -9.7198,1.1693 -14.16,-0.36541 a 30.146,30.146 0 0 1 -6.8423,-4.0469 42.022,42.022 0 0 1 11.145,0.48417 c 3.855,0.82216 9.8568,3.9281 9.8568,3.9281 z" fill="#0a8b38" id="path5"/>
    <path d="m 357.53,141.59 a 23.395,23.395 0 0 1 -6.9519,-0.81306 29.561,29.561 0 0 1 -6.9153,-4.0926 l -0.54811,-0.42933 0.68514,-0.0638 a 42.634,42.634 0 0 1 11.227,0.48417 c 3.8459,0.82216 9.6833,3.8276 9.93,3.9555 l 0.80389,0.42022 -0.91351,0.10962 a 69.318,69.318 0 0 1 -7.3081,0.42935 z m -12.945,-4.9239 a 26.903,26.903 0 0 0 6.1754,3.5627 c 3.5262,1.215 10.551,0.69429 13.091,0.45676 a 47.284,47.284 0 0 0 -8.9342,-3.4805 40.971,40.971 0 0 0 -10.332,-0.53897 z" fill="#010101" id="path6"/>
    <path d="m 365.69,140.47 c 0,0 -4.2661,-5.7552 -4.6589,-11.145 a 31.06,31.06 0 0 1 0.67601,-7.3082 c 0,0 3.9829,4.6407 4.2296,10.049 0.10962,2.5122 -0.24665,8.4683 -0.24665,8.4683 z" fill="#0a8b38" id="path7"/>
    <path d="m 365.91,141.24 -0.45677,-0.61204 c -0.17356,-0.23752 -4.3118,-5.8831 -4.7046,-11.282 a 30.722,30.722 0 0 1 0.67602,-7.4178 l 0.11874,-0.53899 0.36541,0.42022 c 0.16444,0.19185 4.0469,4.7777 4.2935,10.177 0.10961,2.4939 -0.23752,8.4318 -0.24666,8.4957 z m -4.056,-18.608 a 28.639,28.639 0 0 0 -0.5481,6.6687 c 0.30147,4.193 3.042,8.6875 4.1382,10.332 0.0913,-1.7083 0.29232,-5.7095 0.20097,-7.6187 -0.19184,-4.2478 -2.8136,-8.0846 -3.7911,-9.3818 z" fill="#010101" id="path8"/>
    <path d="m 348.5,115.21 c 0,0 -5.8465,-4.0743 -8.3587,-9.464 a 39.181,39.181 0 0 1 -2.165,-7.9567 45.996,45.996 0 0 1 6.8057,7.0615 c 2.4026,3.1242 3.7363,10.359 3.7363,10.359 z" fill="#0a8b38" id="path9"/>
    <path d="m 348.94,115.82 -0.55725,-0.38369 c -0.0546,-0.0455 -5.9379,-4.1839 -8.4409,-9.5736 a 38.212,38.212 0 0 1 -2.2107,-8.0298 l -0.12788,-0.72168 0.57552,0.45676 a 46.809,46.809 0 0 1 6.8514,7.1072 c 2.4208,3.1425 3.7363,10.186 3.7911,10.478 z M 338.416,98.463 a 35.773,35.773 0 0 0 2.028,7.1254 c 1.9823,4.2662 6.1571,7.7467 7.6827,8.9251 -0.40194,-1.891 -1.6443,-7.0615 -3.5353,-9.528 A 46.589,46.589 0 0 0 338.416,98.463 Z" fill="#010101" id="path10"/>
    <path d="m 349.21,115.05 c 0,0 1.4159,-9.0621 4.7503,-13.31 a 38.212,38.212 0 0 1 5.2253,-5.1248 27.716,27.716 0 0 1 -2.8776,9.6193 31.9,31.9 0 0 1 -7.098,8.8155 z" fill="#0a8b38" id="path11"/>
    <path d="m 348.81,115.71 0.11876,-0.71254 c 0.0546,-0.37454 1.4616,-9.1352 4.8051,-13.438 a 37.701,37.701 0 0 1 5.2527,-5.1614 l 0.50244,-0.40195 -0.0548,0.63946 a 28.036,28.036 0 0 1 -2.905,9.7198 32.293,32.293 0 0 1 -7.1711,8.8977 l -0.56637,0.45676 z m 10.049,-18.444 a 35.381,35.381 0 0 0 -4.6863,4.6863 c -2.6857,3.4257 -4.1291,10.122 -4.5676,12.396 a 31.644,31.644 0 0 0 6.4403,-8.2216 27.972,27.972 0 0 0 2.7406,-8.8337 z" fill="#010101" id="path12"/>
    <path d="m 351.96,90.61 c 0,0 -2.1194,-8.3587 -0.81302,-13.264 a 36.303,36.303 0 0 1 2.6309,-6.3946 26.044,26.044 0 0 1 1.0597,9.3818 29.744,29.744 0 0 1 -2.8776,10.25 z" fill="#0a8b38" id="path13"/>
    <path d="m 351.87,91.387 -0.18271,-0.70341 c -0.0822,-0.34714 -2.1194,-8.4866 -0.80389,-13.41 a 36.541,36.541 0 0 1 2.6492,-6.3946 l 0.30147,-0.56638 0.21011,0.61206 a 26.821,26.821 0 0 1 1.078,9.4914 30.594,30.594 0 0 1 -2.9142,10.35 l -0.33799,0.6486 z m 1.827,-19.659 a 33.572,33.572 0 0 0 -2.2838,5.6912 c -1.0506,3.919 0.14616,10.186 0.63032,12.351 a 29.826,29.826 0 0 0 2.5122,-9.4275 25.953,25.953 0 0 0 -0.85871,-8.6145 z" fill="#010101" id="path14"/>
    <path d="m 352.59,90.61 c 0,0 5.4811,-6.6687 10.195,-8.5231 a 36.002,36.002 0 0 1 6.687,-1.6626 25.962,25.962 0 0 1 -6.9245,6.3946 29.58,29.58 0 0 1 -9.9573,3.7911 z" fill="#0a8b38" id="path15"/>
    <path d="m 351.96,90.994 0.45675,-0.55724 c 0.22837,-0.27405 5.5724,-6.7418 10.314,-8.6053 a 35.362,35.362 0 0 1 6.7418,-1.6809 l 0.63948,-0.09136 -0.37456,0.5207 a 26.273,26.273 0 0 1 -6.9884,6.5042 30.384,30.384 0 0 1 -10.049,3.8002 l -0.72168,0.10962 z m 16.909,-10.186 a 33.8,33.8 0 0 0 -5.9379,1.5347 c -3.7728,1.489 -8.1029,6.1754 -9.5645,7.8471 a 29.991,29.991 0 0 0 9.0804,-3.581 25.953,25.953 0 0 0 6.3946,-5.8008 z" fill="#010101" id="path16"/>
    <path d="m 363.97,76.168 c 0,0 5.3898,-6.7235 10.104,-8.6327 a 35.362,35.362 0 0 1 6.6595,-1.7357 25.926,25.926 0 0 1 -6.8422,6.4951 29.881,29.881 0 0 1 -9.9208,3.8733 z" fill="#0a8b38" id="path17"/>
    <path d="m 363.29,76.56 0.45677,-0.56638 c 0.21924,-0.28319 5.4811,-6.8057 10.213,-8.715 a 36.449,36.449 0 0 1 6.7235,-1.754 l 0.63945,-0.10049 -0.3654,0.52984 a 26.492,26.492 0 0 1 -6.9245,6.5773 30.511,30.511 0 0 1 -10.049,3.9099 l -0.71255,0.11876 z m 16.8,-10.368 a 33.691,33.691 0 0 0 -5.9196,1.5987 c -3.7637,1.5256 -8.039,6.2576 -9.4823,7.9476 a 29.963,29.963 0 0 0 9.0438,-3.6541 26.154,26.154 0 0 0 6.3946,-5.8739 z" fill="#010101" id="path18"/>
    <path d="m 373.47,145.92 c -0.19182,-0.0639 -19.549,-6.6961 -24.665,-30.091 -5.2162,-23.998 14.753,-39.729 14.991,-39.884 l 0.33801,0.43849 c -0.20098,0.1553 -19.924,15.676 -14.772,39.327 5.0335,23.075 24.089,29.616 24.281,29.68 z" fill="#010101" id="path19"/>
    <path d="m 350.77,123.99 a 2.0006,2.0006 0 1 1 -1.9915,-1.9915 2.0006,2.0006 0 0 1 1.9915,1.9915 z" fill="#0a8b38" id="path20"/>
    <path d="m 348.73,126.27 a 2.2838,2.2838 0 1 1 2.2746,-2.2838 2.2838,2.2838 0 0 1 -2.2746,2.2838 z m 0,-4.0012 a 1.7265,1.7265 0 1 0 1.7174,1.7174 1.7174,1.7174 0 0 0 -1.7174,-1.7174 z" fill="#010101" id="path21"/>
    <path d="m 414.21,140.88 c 0,0 9.7198,1.1693 14.16,-0.36541 a 30.018,30.018 0 0 0 6.8331,-4.0469 41.93,41.93 0 0 0 -11.136,0.48417 c -3.855,0.82216 -9.8568,3.9281 -9.8568,3.9281 z" fill="#0a8b38" id="path22"/>
    <path d="m 421.51,141.59 a 69.318,69.318 0 0 1 -7.3081,-0.42936 l -0.91351,-0.10963 0.80388,-0.42021 c 0.24665,-0.12791 6.084,-3.1334 9.9299,-3.9555 a 42.561,42.561 0 0 1 11.218,-0.48417 l 0.68514,0.0639 -0.53898,0.42933 a 29.561,29.561 0 0 1 -6.9153,4.0926 23.395,23.395 0 0 1 -6.9518,0.81305 z m -6.3216,-0.91352 c 2.5396,0.2375 9.5645,0.75821 13.091,-0.45677 a 26.903,26.903 0 0 0 6.1754,-3.5627 40.971,40.971 0 0 0 -10.332,0.53896 47.284,47.284 0 0 0 -8.9342,3.4805 z" fill="#010101" id="path23"/>
    <path d="m 413.35,140.47 c 0,0 4.2661,-5.7552 4.6589,-11.145 a 31.06,31.06 0 0 0 -0.676,-7.3082 c 0,0 -3.9829,4.6407 -4.2296,10.049 -0.10963,2.5122 0.24665,8.4683 0.24665,8.4683 z" fill="#0a8b38" id="path24"/>
    <path d="m 413.12,141.24 -0.0455,-0.75821 c 0,-0.0638 -0.36541,-6.0018 -0.24664,-8.4957 0.24664,-5.3989 4.1291,-9.9847 4.2935,-10.177 l 0.36542,-0.42022 0.11875,0.53899 a 30.722,30.722 0 0 1 0.67599,7.4178 c -0.3928,5.3989 -4.5676,11.044 -4.7138,11.282 z m 4.056,-18.608 c -0.97746,1.2972 -3.5993,5.134 -3.7911,9.3818 -0.0913,1.9092 0.10048,5.9105 0.19182,7.6187 1.1054,-1.6444 3.8459,-6.1388 4.1474,-10.332 a 28.639,28.639 0 0 0 -0.5481,-6.6687 z" fill="#010101" id="path25"/>
    <path d="m 430.54,115.21 c 0,0 5.8465,-4.0743 8.3495,-9.464 a 38.806,38.806 0 0 0 2.1924,-7.9567 45.996,45.996 0 0 0 -6.8057,7.0615 c -2.4026,3.1242 -3.7363,10.359 -3.7363,10.359 z" fill="#0a8b38" id="path26"/>
    <path d="m 429.33,115.28 0.1827,-0.64861 c 0.0822,-0.29233 2.028,-7.1802 4.7138,-10.094 a 46.726,46.726 0 0 1 7.4634,-6.4677 l 0.61208,-0.40195 -0.18271,0.70341 a 39.391,39.391 0 0 1 -2.9233,7.8014 c -2.9872,5.1431 -9.2082,8.7424 -9.2722,8.7789 z m 12.04,-16.306 a 47.11,47.11 0 0 0 -6.7326,5.9378 c -2.1102,2.2929 -3.8094,7.3082 -4.3758,9.1352 1.6261,-1.0414 6.0932,-4.1291 8.45,-8.2217 a 35.234,35.234 0 0 0 2.6583,-6.9153 z" fill="#010101" id="path27"/>
    <path d="m 429.83,115.05 c 0,0 -1.416,-9.0621 -4.7503,-13.31 a 38.212,38.212 0 0 0 -5.2253,-5.1248 27.716,27.716 0 0 0 2.8776,9.6193 31.717,31.717 0 0 0 7.098,8.8155 z" fill="#0a8b38" id="path28"/>
    <path d="m 430.24,115.71 -0.56638,-0.45676 a 32.293,32.293 0 0 1 -7.1711,-8.8977 28.036,28.036 0 0 1 -2.905,-9.7198 l -0.0547,-0.63946 0.50244,0.40195 a 38.24,38.24 0 0 1 5.271,5.1614 c 3.3435,4.2661 4.7503,13.063 4.8051,13.438 z M 420.191,97.266 a 27.734,27.734 0 0 0 2.7406,8.8337 31.452,31.452 0 0 0 6.4403,8.2217 c -0.42934,-2.2746 -1.8727,-8.9708 -4.5676,-12.396 a 35.381,35.381 0 0 0 -4.6133,-4.6589 z" fill="#010101" id="path29"/>
    <path d="m 427.07,90.61 c 0,0 2.1194,-8.3587 0.81304,-13.264 a 36.303,36.303 0 0 0 -2.6309,-6.3946 26.163,26.163 0 0 0 -1.0688,9.3818 29.863,29.863 0 0 0 2.8867,10.25 z" fill="#0a8b38" id="path30"/>
    <path d="m 427.17,91.387 -0.33802,-0.6486 a 30.594,30.594 0 0 1 -2.9141,-10.35 26.574,26.574 0 0 1 1.0779,-9.4914 l 0.21012,-0.61206 0.30146,0.56638 a 36.541,36.541 0 0 1 2.6492,6.3946 c 1.3155,4.9239 -0.72167,13.063 -0.80389,13.41 l -0.1827,0.70341 z m -1.827,-19.659 a 25.99,25.99 0 0 0 -0.85871,8.6145 29.753,29.753 0 0 0 2.5122,9.4275 c 0.47504,-2.165 1.6809,-8.4318 0.63034,-12.351 a 33.261,33.261 0 0 0 -2.2838,-5.6912 z" fill="#010101" id="path31"/>
    <path d="m 426.41,90.61 c 0,0 -5.4811,-6.6687 -10.195,-8.5231 a 36.002,36.002 0 0 0 -6.687,-1.6626 26.008,26.008 0 0 0 6.9153,6.3946 29.662,29.662 0 0 0 9.9665,3.7637 z" fill="#0a8b38" id="path32"/>
    <path d="m 427.08,90.994 -0.72168,-0.10962 a 30.32,30.32 0 0 1 -10.049,-3.8002 26.273,26.273 0 0 1 -6.9884,-6.5042 l -0.37455,-0.5207 0.63948,0.09136 a 35.792,35.792 0 0 1 6.7235,1.7083 c 4.7412,1.8727 10.049,8.3404 10.304,8.6145 l 0.4659,0.55724 z M 410.143,80.808 a 25.953,25.953 0 0 0 6.3946,5.8008 29.744,29.744 0 0 0 9.1352,3.581 c -1.4616,-1.6717 -5.7917,-6.3946 -9.5645,-7.8471 a 33.8,33.8 0 0 0 -5.9378,-1.5347 z" fill="#010101" id="path33"/>
    <path d="m 415.07,76.168 c 0,0 -5.3897,-6.7235 -10.104,-8.6327 a 35.545,35.545 0 0 0 -6.6596,-1.7357 25.926,25.926 0 0 0 6.8422,6.4951 29.881,29.881 0 0 0 9.9208,3.8733 z" fill="#0a8b38" id="path34"/>
    <path d="m 415.75,76.56 -0.72171,-0.11876 a 30.585,30.585 0 0 1 -10.049,-3.9099 26.492,26.492 0 0 1 -6.9244,-6.5773 l -0.36541,-0.52984 0.63032,0.10049 a 36.276,36.276 0 0 1 6.76,1.7174 c 4.7229,1.9093 9.9939,8.4318 10.213,8.715 l 0.45676,0.56638 z m -16.8,-10.368 a 26.154,26.154 0 0 0 6.3946,5.8739 30.055,30.055 0 0 0 9.0438,3.6541 c -1.4434,-1.69 -5.7186,-6.3946 -9.4823,-7.9476 a 33.691,33.691 0 0 0 -5.9196,-1.5987 z" fill="#010101" id="path35"/>
    <path d="m 405.58,145.92 -0.17357,-0.52986 c 0.19184,-0.0637 19.248,-6.6047 24.281,-29.68 5.1248,-23.651 -14.58,-39.172 -14.781,-39.336 l 0.33801,-0.43849 c 0.20097,0.1553 20.207,15.886 14.973,39.884 -5.0974,23.395 -24.455,30.027 -24.665,30.091 z" fill="#010101" id="path36"/>
    <path d="m 428.32,123.99 a 2.0006,2.0006 0 1 0 1.9915,-1.9915 1.9915,1.9915 0 0 0 -1.9915,1.9915 z" fill="#0a8b38" id="path37"/>
  </g>
  <g fill="#010101" stroke-width="0.91352" id="g40" transform="translate(-104.13,-21.569667)">
    <path d="m 430.31,126.27 a 2.2838,2.2838 0 1 1 2.2746,-2.2838 2.2838,2.2838 0 0 1 -2.2746,2.2838 z m 0,-4.0012 a 1.7265,1.7265 0 1 0 1.7174,1.7174 1.7265,1.7265 0 0 0 -1.7174,-1.7174 z" id="path38"/>
    <path d="m 443.8,188.34 c 2.3203,2.0463 6.3946,5.6456 9.0712,7.8106 a 127.54,127.54 0 0 0 17.439,11.985 c 0,0 0.33801,0.1553 0.44761,0 0.10964,-0.1553 -0.16441,-0.46591 -0.16441,-0.46591 0,0 -6.5225,-5.4171 -13.767,-11.455 a 112.24,112.24 0 0 1 -10.432,-10.277 4.0195,4.0195 0 0 1 -0.91352,1.3977 4.8508,4.8508 0 0 1 -1.6535,1.0231 z" id="path39"/>
    <path d="m 414.94,194.56 c 1.1876,3.3161 3.0877,8.1212 4.9695,10.56 7.1802,9.3453 12.981,11.583 13.063,11.656 0.0822,0.0731 0.3106,0.10962 0.42023,0 0.10963,-0.10962 0,-0.39281 0,-0.39281 a 70.77,70.77 0 0 1 -10.487,-11.465 52.847,52.847 0 0 1 -5.6912,-10.259 6.5042,6.5042 0 0 1 -1.3794,-1.6078 0.073081,0.073081 0 0 0 -0.12789,0 c -0.13703,0.24666 -0.37453,0.8313 -0.73082,1.5164 z" id="path40"/>
  </g>
  <g stroke-width="0.91352" id="g47" transform="translate(-104.13,-21.569667)">
    <path d="m 452.3,175.35 c 0.29235,1.0962 1.7631,3.3891 0.4659,5.0609 4.6589,4.9238 11.154,11.2 16.388,14.041 13.365,7.235 19.86,3.9921 19.86,3.9921 0,0 -10.962,-7.9933 -17.951,-14.497 -3.106,-2.8776 -8.2216,-7.5914 -12.36,-11.382 a 2.229,2.229 0 0 1 -0.0913,0.21924 c -1.3611,2.9781 -4.8416,2.4026 -5.9835,2.2016 a 0.29233,0.29233 0 0 0 -0.32886,0.36541 z" fill="#da0e17" id="path41"/>
    <path d="m 484.61,199.46 c -3.3161,0 -8.4774,-0.91352 -15.585,-4.7686 -5.2984,-2.8684 -11.876,-9.2448 -16.443,-14.086 l -0.16442,-0.17357 0.14617,-0.19183 c 0.91352,-1.1784 0.27405,-2.7406 -0.19184,-3.9281 a 9.4458,9.4458 0 0 1 -0.32886,-0.91351 0.59379,0.59379 0 0 1 0.13702,-0.5481 0.56638,0.56638 0 0 1 0.51158,-0.16444 c 1.0871,0.19183 4.4032,0.76735 5.6821,-2.0463 a 1.0323,1.0323 0 0 0 0.0822,-0.1827 l 0.1279,-0.42023 0.32887,0.29234 c 3.1425,2.8867 8.925,8.2216 12.36,11.392 6.9062,6.3946 17.814,14.388 17.923,14.47 l 0.36539,0.27405 -0.41107,0.20096 a 10.697,10.697 0 0 1 -4.5219,0.76736 z m -31.48,-19.074 c 4.5676,4.7868 10.962,11.017 16.16,13.822 11.136,6.0292 17.476,4.7046 19.184,4.1565 -2.0645,-1.5164 -11.392,-8.4774 -17.558,-14.205 -3.3343,-3.0968 -8.8794,-8.2217 -12.077,-11.127 -0.99575,2.028 -3.0968,2.7406 -6.221,2.229 l -0.28319,0.0914 0.26492,-0.0731 a 8.6236,8.6236 0 0 0 0.3106,0.8313 c 0.46589,1.151 1.1602,2.8776 0.25578,4.2753 z" fill="#010101" id="path42"/>
    <path d="m 479.91,195.87 a 162.61,162.61 0 0 1 -16.663,-11.337 c -3.8733,-3.0968 -10.743,-9.2905 -10.816,-9.3544 l 0.37454,-0.4111 c 0.073,0.0638 6.9245,6.2485 10.789,9.327 a 164.22,164.22 0 0 0 16.599,11.3 z" fill="#010101" id="path43"/>
    <path d="m 462.14,159.94 a 48.161,48.161 0 0 0 11.711,2.5578 c 18.791,0.91353 19.723,-6.9336 19.723,-6.9336 0,0 -5.7826,0.10964 -15.009,-2.2107 -5.3989,-1.352 -10.131,-2.8228 -13.995,-4.1108 l -0.22839,-0.0822 c -0.34713,0.43849 3.179,1.5347 2.8136,5.5725 a 6.1571,6.1571 0 0 1 -0.29229,1.4799 c -0.91353,2.9872 -3.7911,3.2613 -4.7229,3.7272 z" fill="#da0e17" id="path44"/>
    <path d="m 476.78,162.84 c -0.91352,0 -1.9092,0 -2.9415,-0.073 a 47.22,47.22 0 0 1 -11.775,-2.567 l -0.64859,-0.2101 0.61206,-0.30149 a 6.2393,6.2393 0 0 1 0.76735,-0.29229 c 1.2241,-0.40195 3.0786,-1.0049 3.8094,-3.2795 a 6.1662,6.1662 0 0 0 0.2832,-1.416 5.0883,5.0883 0 0 0 -2.229,-4.7229 c -0.42937,-0.34714 -0.8039,-0.64859 -0.52984,-0.99573 l 0.11875,-0.15529 0.19184,0.073 0.21925,0.073 c 4.869,1.6261 9.4366,2.9781 14.004,4.1382 a 63.444,63.444 0 0 0 14.936,2.1924 h 0.31972 v 0.31061 c 0,0.31971 -1.0688,7.2533 -17.083,7.2533 z m -13.776,-2.9233 a 44.963,44.963 0 0 0 10.862,2.3295 c 16.16,0.76736 18.928,-4.9604 19.367,-6.3946 a 66.952,66.952 0 0 1 -14.726,-2.2107 c -4.2844,-1.078 -8.6236,-2.3478 -13.237,-3.8642 a 5.5359,5.5359 0 0 1 2.1742,4.9969 7.2351,7.2351 0 0 1 -0.31059,1.5347 5.6181,5.6181 0 0 1 -4.1291,3.6541 z" fill="#010101" id="path45"/>
    <path d="m 484.49,158.47 a 77.411,77.411 0 0 1 -17.704,-1.9915 l 0.13704,-0.53898 a 77.585,77.585 0 0 0 18.983,1.9549 v 0.55723 h -1.4434 z" fill="#010101" id="path46"/>
    <path d="m 465.68,130.94 c 1.1602,3.5901 -1.1328,5.2253 -2.2655,6.1662 a 40.825,40.825 0 0 0 7.9476,-3.3983 c 16.443,-9.1352 14.799,-14.772 14.799,-14.772 0,0 -6.5956,2.7406 -15.676,5.6181 -3.2887,1.0414 -6.3946,1.9092 -9.2174,2.64 -0.0822,0.10963 -0.16443,0.20098 -0.23752,0.28319 -0.0729,0.0823 3.6541,0.81303 4.5036,3.0238 a 4.1108,4.1108 0 0 1 0.14615,0.43847 z" fill="#da0e17" id="path47"/>
  </g>
  <g fill="#010101" stroke-width="0.91352" id="g52" transform="translate(-104.13,-21.569667)">
    <path d="m 462.22,137.76 1.2058,-1.0049 c 1.1419,-0.91351 3.0511,-2.4939 2.0097,-5.7278 a 3.38,3.38 0 0 0 -0.11875,-0.36541 v -0.0547 c -0.60292,-1.553 -2.8776,-2.3112 -3.8459,-2.6401 -0.50244,-0.16443 -0.61205,-0.21009 -0.66686,-0.38367 v -0.14616 l 0.0913,-0.11877 a 3.2521,3.2521 0 0 0 0.23751,-0.28317 l 0.0546,-0.073 h 0.0913 c 3.1425,-0.81302 6.2393,-1.6991 9.2082,-2.6309 8.9616,-2.8319 15.585,-5.5816 15.658,-5.609 l 0.28319,-0.11876 0.0822,0.30148 c 0.0731,0.23751 1.5438,6.0018 -14.936,15.091 a 41.519,41.519 0 0 1 -8.0024,3.4165 l -1.2881,0.38369 z m 3.7546,-6.8971 a 5.0061,5.0061 0 0 1 -1.3338,5.5725 44.242,44.242 0 0 0 6.6047,-2.9598 c 13.812,-7.6278 14.726,-12.826 14.726,-14.16 -1.4707,0.59379 -7.5274,3.0146 -15.356,5.4811 -2.905,0.91353 -5.9379,1.827 -9.0164,2.5853 h 0.0455 c 1.0506,0.34712 3.4988,1.1693 4.193,2.978 v 0.0546 c 0.0455,0.13703 0.10051,0.27405 0.13705,0.40193 z" id="path48"/>
    <path d="m 465.78,131.19 -0.18271,-0.52068 a 96.979,96.979 0 0 0 15.183,-6.9519 l 0.28318,0.48417 a 97.025,97.025 0 0 1 -15.283,6.9884 z" id="path49"/>
    <path d="m 461.1,167.79 a 33.8,33.8 0 0 0 7.1894,4.2204 c 11.072,4.0103 17.174,2.7862 17.284,2.8045 0.10962,0.0182 0.31973,-0.073 0.34714,-0.22839 0.0273,-0.15531 -0.24667,-0.31973 -0.24667,-0.31973 a 71.035,71.035 0 0 1 -15,-4.0195 45.32,45.32 0 0 1 -7.6278,-3.8733 3.4531,3.4531 0 0 1 -1.9458,1.416 z" id="path50"/>
    <path d="m 467.45,145.8 a 15.393,15.393 0 0 0 2.2838,-0.32887 c 11.474,-2.6857 15.913,-7.0524 16.014,-7.0889 0.10048,-0.0364 0.22839,-0.23751 0.16443,-0.38367 -0.0639,-0.14617 -0.37455,-0.13702 -0.37455,-0.13702 a 70.45,70.45 0 0 1 -14.772,4.8234 30.146,30.146 0 0 1 -2.9781,0.52071 5.545,5.545 0 0 1 -0.338,2.5944 z" id="path51"/>
    <path d="m 462.93,120.85 a 4.1839,4.1839 0 0 1 0.28319,1.827 c 7.5913,-2.8776 10.569,-6.0566 10.642,-6.0932 0.0731,-0.0364 0.21924,-0.24667 0.1553,-0.39281 -0.0638,-0.14616 -0.38369,-0.11876 -0.38369,-0.11876 a 63.626,63.626 0 0 1 -10.871,4.3666 4.0926,4.0926 0 0 1 0.17358,0.40196 z" id="path52"/>
  </g>
  <g stroke-width="0.91352" id="g71" transform="translate(-104.13,-21.569667)">
    <path d="m 427.84,190.91 c 0,0 11.118,19.796 20.234,27.232 13.493,10.962 21.924,9.2265 21.924,9.2265 0,0 -10.323,-11.51 -15.137,-17.868 -4.2022,-5.545 -12.186,-17.174 -15.53,-22.125 0.42936,1.4068 -4.6681,-0.91352 -8.2216,0.52985 -3.5536,1.4434 -1.4708,3.9007 -2.6492,2.8045 a 0.45676,0.45676 0 0 0 -0.10963,-0.0731 l -0.44762,0.27406 z" fill="#da0e17" id="path53"/>
    <path d="m 468.47,227.79 c -3.0603,0 -10.359,-1.0688 -20.591,-9.4184 -9.0621,-7.3904 -20.198,-27.122 -20.307,-27.323 l -0.15532,-0.26492 0.78566,-0.46589 h 0.17354 l 0.11876,0.0455 c 0,-0.71255 0.32888,-1.9275 2.4391,-2.7406 2.1102,-0.81303 4.4671,-0.48416 6.2393,-0.23752 a 6.5499,6.5499 0 0 0 1.827,0.1279 l -0.61208,-1.9732 1.1693,1.7083 c 3.2613,4.7868 11.309,16.516 15.53,22.116 4.7503,6.2759 15.018,17.731 15.119,17.85 l 0.36541,0.39283 -0.52984,0.11874 a 9.4732,9.4732 0 0 1 -1.5895,0.11876 z m -40.195,-36.778 c 1.3612,2.366 11.611,20.024 20.015,26.885 11.245,9.1352 19.001,9.3818 21.093,9.2265 -1.9458,-2.1833 -10.524,-11.876 -14.753,-17.439 -4.12,-5.4811 -11.803,-16.626 -15.247,-21.669 a 4.4032,4.4032 0 0 1 -2.2747,0 c -1.7083,-0.2375 -4.0469,-0.56637 -5.9196,0.19185 -2.1285,0.85871 -2.0737,2.028 -2.0554,2.5304 0,0.20097 0,0.43848 -0.21013,0.54811 -0.21009,0.10962 -0.40194,0 -0.63944,-0.2558 z" fill="#010101" id="path54"/>
    <path d="m 459.07,221.04 c -0.0822,-0.0638 -8.8154,-7.0706 -13.63,-13.876 -3.1973,-4.5128 -9.2813,-13.703 -9.3453,-13.831 l 0.5207,-0.33802 c 0.0637,0.0914 6.1388,9.2996 9.327,13.803 4.7686,6.7417 13.429,13.703 13.52,13.758 z" fill="#010101" id="path55"/>
    <path d="m 376.81,204.27 -0.0822,0.18268 -11.666,24.391 -0.25578,-17.722 -15.996,12.396 15.731,-28.155 2.4756,-4.8051 c 0.47502,-0.69427 1.6626,-1.1693 2.229,-0.55723 1.5164,1.5804 1.9549,2.1924 4.458,6.1662 l 0.19184,0.30147 c 2.9141,4.6498 2.9141,7.8014 2.9141,7.8014 z" fill="#da0e17" id="path56"/>
    <path d="m 364.81,230.07 -0.27405,-18.353 -16.626,12.899 16.443,-29.379 2.4574,-4.7686 a 2.366,2.366 0 0 1 1.6352,-0.9866 1.2789,1.2789 0 0 1 1.0506,0.36541 c 1.5256,1.5987 1.9824,2.2381 4.4762,6.2028 0.0455,0.0731 0.10049,0.14618 0.14616,0.2284 l 0.0546,0.0822 c 2.9233,4.659 2.9598,7.8106 2.9598,7.9476 v 0.11876 l -0.0914,0.18269 -12.168,25.46 z m 0.26491,-19.476 0.25581,17.092 11.209,-23.413 c 0,-0.44763 -0.2558,-3.4166 -2.8776,-7.5913 l -0.0546,-0.0823 -0.13703,-0.21923 c -2.4665,-3.9281 -2.9233,-4.5676 -4.4214,-6.1206 a 0.66687,0.66687 0 0 0 -0.58466,-0.19183 1.7357,1.7357 0 0 0 -1.2058,0.71254 l -2.4939,4.8234 -15.036,26.94 15.347,-11.876 z" fill="#010101" id="path57"/>
    <path d="m 373.71,196.2 c -2.503,-3.9738 -2.9415,-4.5676 -4.458,-6.1662 -0.56637,-0.61205 -1.754,-0.13704 -2.229,0.55726 l -2.4756,4.8051 a 7.6279,7.6279 0 0 1 -5.7004,2.4391 c -1.6078,-0.0914 -4.394,-2.028 -5.0609,-3.2795 -0.35627,-0.68515 -0.60293,-1.2789 -0.73082,-1.5256 a 0.073081,0.073081 0 0 0 -0.11874,0 6.5591,6.5591 0 0 1 -1.3886,1.6169 7.3081,7.3081 0 0 1 -5.3989,1.6443 5.4172,5.4172 0 0 1 -5.2162,-4.9421 0.30146,0.30146 0 0 0 -0.40193,-0.24664 l -0.0914,0.0639 c -1.0597,0.9866 -3.8824,3.5079 -7.1254,2.2107 a 4.0377,4.0377 0 0 1 -2.6492,-5.1979 1.4068,1.4068 0 0 0 0,-0.1553 0.26492,0.26492 0 0 0 -0.36539,-0.338 c -1.1054,0.53899 -3.3618,1.3886 -5.4172,0.65775 a 4.8508,4.8508 0 0 1 -1.6534,-1.0231 4.0195,4.0195 0 0 1 -0.91352,-1.3977 6.9062,6.9062 0 0 1 0.14616,-4.3758 0.1553,0.1553 0 0 0 -0.22838,-0.17356 4.5676,4.5676 0 0 1 -6.1206,-0.76736 c -0.0546,-0.0638 -0.11876,-0.12789 -0.16442,-0.19183 -1.3063,-1.6717 0.17357,-3.9738 0.4659,-5.07 a 0.28319,0.28319 0 0 0 -0.31974,-0.35627 c -1.1419,0.20096 -4.6224,0.78561 -5.9927,-2.2016 a 1.1145,1.1145 0 0 1 -0.0914,-0.21925 c -0.79477,-2.0554 0.65773,-3.782 1.3155,-4.4214 a 0.11876,0.11876 0 0 0 -0.0914,-0.20096 8.6601,8.6601 0 0 1 -3.6541,-0.14617 3.4531,3.4531 0 0 1 -1.9458,-1.416 3.2795,3.2795 0 0 1 -0.42022,-0.95921 c -0.91352,-3.3435 2.1833,-4.7594 1.5073,-5.3532 a 1.0505,1.0505 0 0 0 -0.18269,-0.12789 c -0.91353,-0.4659 -3.7637,-0.73993 -4.7229,-3.7272 a 6.1571,6.1571 0 0 1 -0.29232,-1.4799 c -0.36541,-4.0377 3.1608,-5.134 2.8136,-5.5724 -1.0688,-1.0414 -2.4482,-1.827 -3.0968,-3.3709 a 5.545,5.545 0 0 1 -0.33801,-2.5944 4.0652,4.0652 0 0 1 0.0455,-0.45677 c 0.42937,-3.3161 4.4306,-4.6955 4.4306,-4.7229 0,-0.0273 -0.12788,-0.10048 -0.20097,-0.16444 a 6.2302,6.2302 0 0 1 -2.165,-6.8971 4.1108,4.1108 0 0 1 0.14617,-0.43848 c 0.8587,-2.2107 4.6315,-2.8776 4.5036,-3.0237 -0.12789,-0.14615 -0.1553,-0.17357 -0.23752,-0.28319 a 8.3039,8.3039 0 0 1 -1.9458,-4.5128 4.1839,4.1839 0 0 1 0.28319,-1.827 4.0926,4.0926 0 0 1 0.17357,-0.40193 c 1.3794,-2.8228 4.5219,-2.7406 5.1431,-2.9415 a 0.13703,0.13703 0 0 1 0,-0.0639 c -1.1328,-0.50242 -4.4762,-1.827 -5.7643,-2.4848 -0.91352,-0.46591 -6.5956,-3.6541 -8.852,-5.8282 a 14.616,14.616 0 0 1 -2.7406,-3.5444 11.054,11.054 0 0 1 -1.4159,-3.9373 c 0.20097,0.8039 10.962,6.0566 16.991,8.0664 5.7095,1.9092 9.1352,2.5213 15.685,4.0925 2.7405,0.6486 9.9025,1.3794 7.7192,11.136 -0.66686,2.9963 -5.609,10.862 3.7089,23.751 7.3081,10.104 21.011,9.9025 24.016,9.8568 a 1.553,1.553 0 0 1 0.10962,0.53899 c 0.27405,1.827 0.86784,7.8836 2.3021,14.041 a 51.458,51.458 0 0 0 5.0792,14.077 c 1.5987,2.8319 3.855,5.3166 5.81,8.9707 z" fill="#da0e17" id="path58"/>
    <path d="m 359.22,198.13 h -0.38366 c -1.7357,-0.10048 -4.5676,-2.092 -5.2984,-3.4257 -0.21011,-0.40196 -0.38365,-0.77651 -0.52069,-1.0688 a 1.0231,1.0231 0 0 1 0,-0.11876 7.2351,7.2351 0 0 1 -1.3337,1.3429 7.5457,7.5457 0 0 1 -5.5907,1.7083 c -4.0834,-0.27405 -5.1796,-3.3617 -5.4811,-5.1796 h -0.0455 c -0.98659,0.91351 -3.919,3.6541 -7.3812,2.229 a 4.3118,4.3118 0 0 1 -2.8045,-5.5359 l 0.0637,-0.17358 c -1.1784,0.58466 -3.4896,1.4342 -5.6181,0.67602 a 4.9695,4.9695 0 0 1 -1.7448,-1.0871 4.0743,4.0743 0 0 1 -1.014,-1.4982 6.6504,6.6504 0 0 1 0,-4.2387 4.732,4.732 0 0 1 -6.1845,-0.98661 l -0.18271,-0.21925 c -1.1145,-1.4342 -0.38367,-3.2613 0.10963,-4.4671 a 8.6601,8.6601 0 0 0 0.3106,-0.84044 c -3.2064,0.55725 -5.3258,-0.23752 -6.3033,-2.366 0,-0.0822 -0.073,-0.17357 -0.10051,-0.25581 a 4.2753,4.2753 0 0 1 1.0597,-4.3666 8.3039,8.3039 0 0 1 -3.2795,-0.21924 3.5353,3.5353 0 0 1 -2.5487,-2.567 4.8782,4.8782 0 0 1 1.1784,-4.5676 2.3477,2.3477 0 0 0 0.41108,-0.65775 l -0.13702,-0.0822 a 6.3946,6.3946 0 0 0 -0.68515,-0.25579 c -1.2515,-0.4111 -3.3526,-1.0962 -4.1656,-3.6541 a 6.7235,6.7235 0 0 1 -0.30145,-1.5347 5.6181,5.6181 0 0 1 2.43,-5.207 4.6407,4.6407 0 0 0 0.35628,-0.30148 c -0.2558,-0.24664 -0.52985,-0.46589 -0.81304,-0.7034 a 6.8696,6.8696 0 0 1 -2.2472,-2.6583 5.8922,5.8922 0 0 1 -0.35628,-2.7406 2.8684,2.8684 0 0 1 0,-0.46588 c 0.32887,-2.567 2.6309,-4.0469 4.1839,-4.7594 a 6.5042,6.5042 0 0 1 -2.1102,-7.0706 2.4482,2.4482 0 0 1 0.12788,-0.3928 v -0.0637 c 0.70342,-1.827 3.1516,-2.6309 4.2022,-2.9781 h 0.11875 a 8.5048,8.5048 0 0 1 -2.0097,-4.6681 4.5676,4.5676 0 0 1 0.4933,-2.3751 5.6729,5.6729 0 0 1 4.5676,-2.9415 l -0.98661,-0.40194 c -1.416,-0.59379 -3.1882,-1.3246 -4.056,-1.7722 -0.86783,-0.4476 -6.5865,-3.6541 -8.9159,-5.8739 a 14.662,14.662 0 0 1 -2.7406,-3.6541 11.191,11.191 0 0 1 -1.5256,-4.0012 l 0.54814,-0.10051 c 0.47502,0.79476 10.789,5.8648 16.8,7.8654 a 114.19,114.19 0 0 0 11.565,3.1242 l 4.1017,0.91352 0.66687,0.15529 c 1.827,0.39282 4.9147,1.0506 6.5499,3.6084 1.1967,1.827 1.4342,4.458 0.71254,7.7101 -0.10051,0.42935 -0.2832,0.91352 -0.48417,1.5712 -1.3246,3.8368 -3.782,10.962 4.1382,21.924 4.659,6.4403 13.109,9.8934 23.751,9.7472 0.28318,0 0.31972,0.25579 0.40194,0.7765 0,0.3654 0.11876,0.91352 0.20097,1.5712 a 122.96,122.96 0 0 0 2.0828,12.451 v 0.1827 a 51.038,51.038 0 0 0 5.1248,13.904 42.552,42.552 0 0 0 2.43,3.6541 48.279,48.279 0 0 1 3.38,5.2892 l -0.47503,0.28321 c -2.4665,-3.9281 -2.9232,-4.5676 -4.4214,-6.1206 a 0.69427,0.69427 0 0 0 -0.58464,-0.19184 1.7357,1.7357 0 0 0 -1.2058,0.71255 l -2.5122,4.8416 a 8.0207,8.0207 0 0 1 -5.5268,2.5396 z m -6.221,-5.408 a 0.32887,0.32887 0 0 1 0.30147,0.20097 c 0.0455,0.0822 0.11874,0.24667 0.21923,0.45676 0.1005,0.2101 0.29232,0.6486 0.50242,1.0505 0.62121,1.1602 3.3161,3.042 4.8325,3.1242 a 7.3081,7.3081 0 0 0 5.4811,-2.3203 l 2.4574,-4.7686 a 2.366,2.366 0 0 1 1.6352,-0.9866 1.3703,1.3703 0 0 1 0.62121,0.0822 c -0.49331,-0.72169 -0.9592,-1.4434 -1.3794,-2.1924 a 51.157,51.157 0 0 1 -5.0609,-13.959 l -0.0455,-0.19183 a 121.5,121.5 0 0 1 -2.092,-12.506 c -0.0913,-0.66685 -0.15529,-1.1967 -0.2101,-1.553 0,-0.13703 0,-0.23751 -0.0455,-0.30146 h -0.50243 c -10.533,0 -18.873,-3.5262 -23.532,-9.9756 -8.0938,-11.209 -5.4811,-18.809 -4.2204,-22.463 a 14.525,14.525 0 0 0 0.46589,-1.5164 c 0.69426,-3.0968 0.48417,-5.545 -0.63034,-7.3082 -1.5073,-2.3569 -4.33,-2.9689 -6.2028,-3.3709 l -0.67599,-0.14617 c -1.5073,-0.36541 -2.8593,-0.676 -4.1017,-0.96832 a 113.28,113.28 0 0 1 -11.611,-3.1334 c -4.6589,-1.553 -13.904,-5.81 -16.443,-7.6096 a 13.703,13.703 0 0 0 1.3337,3.0511 14.032,14.032 0 0 0 2.6675,3.4805 c 2.2472,2.165 8.039,5.3989 8.788,5.7826 0.74906,0.38367 2.6035,1.1602 4.0195,1.7448 0.71253,0.30147 1.3428,0.55726 1.7265,0.73083 l 0.20097,0.0822 v 0.41106 l -0.18272,0.0821 a 3.7089,3.7089 0 0 1 -0.63945,0.13702 c -1.151,0.17357 -3.2978,0.51158 -4.3483,2.6675 a 3.5536,3.5536 0 0 0 -0.17356,0.38369 4.0195,4.0195 0 0 0 -0.26492,1.7174 8.1577,8.1577 0 0 0 1.891,4.3575 c 0.0731,0.10047 0.14617,0.18269 0.21012,0.25578 l 0.10051,0.10962 v 0.1827 c -0.0547,0.17358 -0.17358,0.21927 -0.6669,0.38369 -0.96833,0.32886 -3.243,1.0871 -3.855,2.6492 v 0.0546 a 2.7406,2.7406 0 0 0 -0.11874,0.35629 5.9013,5.9013 0 0 0 2.0828,6.6047 l 0.30147,0.24664 v 0.13703 c 0,0.18271 -0.14617,0.24665 -0.27405,0.30147 -1.416,0.6029 -3.8459,1.9823 -4.1656,4.458 0,0.14617 0,0.29233 -0.0455,0.42935 a 5.4811,5.4811 0 0 0 0.31974,2.4848 6.4403,6.4403 0 0 0 2.092,2.4391 c 0.31973,0.26493 0.6486,0.53898 0.91349,0.8313 l 0.0914,0.0822 c 0.16444,0.31059 -0.18269,0.59377 -0.58464,0.91349 a 5.0883,5.0883 0 0 0 -2.229,4.7229 6.6869,6.6869 0 0 0 0.28319,1.416 c 0.73081,2.2747 2.5853,2.8776 3.8094,3.2795 a 5.7186,5.7186 0 0 1 0.76738,0.29231 1.3703,1.3703 0 0 1 0.25577,0.16443 c 0.42935,0.39282 0.0548,0.91352 -0.34712,1.4068 a 4.3575,4.3575 0 0 0 -1.078,4.0834 2.8958,2.8958 0 0 0 0.38368,0.91351 3.1425,3.1425 0 0 0 1.827,1.2972 8.313,8.313 0 0 0 3.4988,0.13702 0.40195,0.40195 0 0 1 0.41109,0.21011 0.40195,0.40195 0 0 1 -0.073,0.45678 c -0.6212,0.61204 -1.9823,2.229 -1.2606,4.1291 l 0.0822,0.20098 c 1.2972,2.8228 4.5676,2.2381 5.7004,2.0463 a 0.55725,0.55725 0 0 1 0.51155,0.17357 0.57552,0.57552 0 0 1 0.12791,0.52983 c -0.073,0.25581 -0.19184,0.54812 -0.32887,0.91353 -0.47504,1.151 -1.1145,2.7405 -0.19184,3.919 a 1.4068,1.4068 0 0 0 0.15532,0.17357 4.257,4.257 0 0 0 5.7643,0.72167 0.43849,0.43849 0 0 1 0.49329,0 0.43849,0.43849 0 0 1 0.14618,0.47504 6.3033,6.3033 0 0 0 -0.14618,4.1748 3.5262,3.5262 0 0 0 0.91353,1.3063 4.3757,4.3757 0 0 0 1.553,0.9592 c 1.9458,0.69428 4.1017,-0.1005 5.207,-0.63947 a 0.53898,0.53898 0 0 1 0.74909,0.66688 l 0.0823,0.0823 -0.15532,0.14616 c -0.25577,0.9135 -0.70338,3.4988 2.503,4.7868 3.2064,1.2881 5.9196,-1.3063 6.8331,-2.1468 a 0.44762,0.44762 0 0 1 0.20098,-0.12789 h 0.0455 a 0.56638,0.56638 0 0 1 0.43848,0.0546 0.59379,0.59379 0 0 1 0.2832,0.42936 c 0.32889,2.0097 1.4525,4.4671 4.9604,4.7046 a 7.0889,7.0889 0 0 0 5.1979,-1.5804 6.5408,6.5408 0 0 0 1.3337,-1.5439 0.32887,0.32887 0 0 1 0.30144,-0.17355 z" fill="#010101" id="path59"/>
    <path d="m 479.97,101.67 a 11.054,11.054 0 0 1 -1.4982,3.9373 14.498,14.498 0 0 1 -2.7405,3.5444 c -2.2655,2.1742 -7.9568,5.3623 -8.852,5.8282 -1.2972,0.65772 -4.6315,1.9823 -5.7643,2.4848 v 0.0182 c 0.62118,0.23752 3.7728,0.11878 5.1431,2.9415 a 4.0926,4.0926 0 0 1 0.18271,0.40195 4.3209,4.3209 0 0 1 0.28319,1.827 8.3039,8.3039 0 0 1 -1.9549,4.5128 c -0.0823,0.10961 -0.16445,0.20095 -0.23752,0.28318 -0.073,0.0821 3.6541,0.81304 4.5036,3.0237 a 4.193,4.193 0 0 1 0.15529,0.4385 6.2302,6.2302 0 0 1 -2.1742,6.8971 l -0.20097,0.16443 c 0,0 4.0012,1.4068 4.4306,4.7229 a 2.6675,2.6675 0 0 1 0,0.45675 5.545,5.545 0 0 1 -0.338,2.5944 c -0.6486,1.5712 -2.028,2.3295 -3.0968,3.3709 -0.34714,0.43849 3.179,1.5347 2.8136,5.5724 a 6.1571,6.1571 0 0 1 -0.29233,1.4799 c -0.95919,2.9872 -3.7911,3.2612 -4.7138,3.7271 a 1.1602,1.1602 0 0 0 -0.19185,0.12789 c -0.66685,0.59378 2.3934,2.0097 1.5073,5.3532 a 3.2795,3.2795 0 0 1 -0.42021,0.95918 3.4257,3.4257 0 0 1 -1.9458,1.416 8.6145,8.6145 0 0 1 -3.6541,0.14616 0.11876,0.11876 0 0 0 -0.10051,0.20098 c 0.65774,0.63946 2.1102,2.366 1.3155,4.4214 a 2.1376,2.1376 0 0 1 -0.0822,0.21925 c -1.3703,2.9872 -4.8599,2.4026 -5.9927,2.2016 a 0.28319,0.28319 0 0 0 -0.32884,0.35627 c 0.2923,1.0962 1.7722,3.3983 0.46588,5.07 a 1.5347,1.5347 0 0 1 -0.16444,0.19182 4.5676,4.5676 0 0 1 -6.1206,0.76736 0.14616,0.14616 0 0 0 -0.21924,0.17355 6.8514,6.8514 0 0 1 0.13703,4.3758 3.782,3.782 0 0 1 -0.91351,1.3977 4.7686,4.7686 0 0 1 -1.6535,1.0231 c -2.0554,0.73083 -4.3027,-0.11876 -5.4172,-0.65773 a 0.26492,0.26492 0 0 0 -0.36542,0.338 0.76735,0.76735 0 0 1 0.0455,0.15531 4.0286,4.0286 0 0 1 -2.6492,5.1979 c -3.2339,1.2972 -6.0566,-1.2241 -7.1163,-2.2107 a 0.27406,0.27406 0 0 0 -0.10049,-0.0639 0.30146,0.30146 0 0 0 -0.40194,0.24665 5.4811,5.4811 0 0 1 -5.2253,4.9421 7.3081,7.3081 0 0 1 -5.3898,-1.6443 6.6687,6.6687 0 0 1 -1.352,-1.5712 0.063946,0.063946 0 0 0 -0.10962,0 c -0.13703,0.24665 -0.37454,0.84044 -0.73994,1.5256 a 9.1352,9.1352 0 0 1 -4.5676,3.4074 7.0798,7.0798 0 0 1 -8.039,-3.1882 l -0.0546,-0.0914 -2.4756,-4.8051 a 1.827,1.827 0 0 0 -0.35628,-0.38369 c 0.51157,-0.74909 0.99574,-1.4982 1.4251,-2.2655 a 51.568,51.568 0 0 0 5.0792,-14.077 118.93,118.93 0 0 0 2.0737,-12.378 13.1,13.1 0 0 1 0.338,-2.2016 c 2.9964,0.0455 16.717,0.24665 24.016,-9.8568 9.3087,-12.89 4.3666,-20.755 3.6541,-23.751 -2.1742,-9.7564 4.9878,-10.487 7.7192,-11.136 6.5591,-1.5712 9.9756,-2.1833 15.694,-4.0925 6.0292,-2.0097 16.781,-7.3081 16.982,-8.0664 z" fill="#da0e17" id="path60"/>
    <path d="m 411.84,198.51 a 7.4817,7.4817 0 0 1 -6.2576,-3.5993 l -0.0546,-0.0914 -2.4756,-4.8142 a 1.7174,1.7174 0 0 0 -0.28319,-0.30146 l -0.21011,-0.1553 0.15529,-0.21924 c 0.58466,-0.84958 1.0323,-1.5621 1.416,-2.2381 a 51.76,51.76 0 0 0 5.0152,-13.885 v -0.13704 a 121.23,121.23 0 0 0 2.0737,-12.36 v -0.19189 c 0.27405,-2.2472 0.27405,-2.2472 0.58464,-2.2472 10.688,0.14617 19.138,-3.2978 23.751,-9.7472 7.9293,-10.962 5.4811,-18.115 4.1474,-21.924 -0.21012,-0.61206 -0.39281,-1.1419 -0.49331,-1.5712 -0.72168,-3.2521 -0.48416,-5.8465 0.71255,-7.7101 1.6352,-2.5578 4.7137,-3.2156 6.5499,-3.6084 l 0.66688,-0.1553 4.1108,-0.91353 a 114.03,114.03 0 0 0 11.556,-3.1242 c 6.0109,-2.0006 16.325,-7.0706 16.818,-7.8928 l 0.52983,0.12789 a 11.191,11.191 0 0 1 -1.5256,4.0012 14.616,14.616 0 0 1 -2.7406,3.6541 c -2.3295,2.2381 -8.1212,5.4811 -8.9159,5.8739 -0.79476,0.39281 -2.6401,1.1785 -4.0652,1.7631 l -0.98659,0.41109 a 5.6821,5.6821 0 0 1 4.5676,2.9415 c 0.0638,0.13703 0.12789,0.27405 0.18269,0.42022 a 4.7412,4.7412 0 0 1 0.30148,1.964 8.4957,8.4957 0 0 1 -2.0098,4.6681 h 0.11876 c 1.0506,0.34714 3.4988,1.1693 4.2022,2.9781 a 4.5676,4.5676 0 0 1 0.15529,0.46588 6.486,6.486 0 0 1 -2.1194,7.0615 c 1.553,0.71255 3.855,2.1924 4.1931,4.7594 v 0.47504 a 5.746,5.746 0 0 1 -0.36542,2.7405 6.7874,6.7874 0 0 1 -2.2473,2.6584 c -0.28318,0.23751 -0.54811,0.46589 -0.8039,0.70339 0.0823,0.0822 0.22838,0.20098 0.34714,0.30147 a 5.6364,5.6364 0 0 1 2.4391,5.207 6.8057,6.8057 0 0 1 -0.31061,1.5347 c -0.81303,2.5396 -2.905,3.2247 -4.1565,3.6541 a 6.9336,6.9336 0 0 0 -0.70343,0.25578 l -0.12787,0.0913 a 2.3386,2.3386 0 0 0 0.42022,0.64859 4.8965,4.8965 0 0 1 1.1784,4.5676 3.5901,3.5901 0 0 1 -2.5578,2.567 8.2947,8.2947 0 0 1 -3.2795,0.21924 4.2935,4.2935 0 0 1 1.0597,4.3849 2.2747,2.2747 0 0 1 -0.10049,0.23752 c -0.97747,2.1285 -3.0968,2.9232 -6.2941,2.3569 a 7.6096,7.6096 0 0 0 0.30146,0.84958 c 0.49329,1.2058 1.2333,3.0329 0.10962,4.4671 a 1.754,1.754 0 0 1 -0.17358,0.21011 4.7412,4.7412 0 0 1 -6.1845,0.99573 6.6413,6.6413 0 0 1 0,4.2387 4.056,4.056 0 0 1 -1.0048,1.4982 5.0518,5.0518 0 0 1 -1.7448,1.0871 c -2.1376,0.74909 -4.4488,-0.0913 -5.6364,-0.66686 l 0.0731,0.16444 a 4.3118,4.3118 0 0 1 -2.8045,5.5359 c -3.4896,1.3977 -6.4494,-1.352 -7.4178,-2.2655 -0.31059,1.827 -1.416,4.9239 -5.4811,5.1979 a 7.6005,7.6005 0 0 1 -5.5907,-1.7083 6.8422,6.8422 0 0 1 -1.2424,-1.3611 l -0.0547,0.11875 c -0.13702,0.29233 -0.30145,0.66688 -0.5207,1.0688 a 9.2722,9.2722 0 0 1 -4.7777,3.5444 8.5505,8.5505 0 0 1 -2.1011,0.28318 z m -8.5322,-9.0621 a 1.6078,1.6078 0 0 1 0.21924,0.27407 l 2.5396,4.9147 a 6.76,6.76 0 0 0 7.7375,3.0511 8.9068,8.9068 0 0 0 4.4214,-3.2613 c 0.21012,-0.40194 0.37454,-0.76735 0.50244,-1.0505 l 0.23751,-0.48415 a 0.32887,0.32887 0 0 1 0.28319,-0.17358 0.338,0.338 0 0 1 0.31973,0.1827 6.2941,6.2941 0 0 0 1.3337,1.5347 7.0889,7.0889 0 0 0 5.1888,1.5804 c 3.5079,-0.23751 4.6407,-2.6949 4.9695,-4.7138 a 0.55725,0.55725 0 0 1 0.27406,-0.42022 0.55725,0.55725 0 0 1 0.4659,0 0.42022,0.42022 0 0 1 0.21008,0.13703 c 0.91352,0.83131 3.6541,3.4074 6.824,2.1376 3.1699,-1.2698 2.7406,-3.9007 2.503,-4.7777 l -0.13702,-0.13702 0.0638,-0.0913 a 0.57552,0.57552 0 0 1 0.14617,-0.5938 0.55725,0.55725 0 0 1 0.61207,-0.0822 c 1.1053,0.53896 3.2521,1.3337 5.1979,0.63946 a 4.5036,4.5036 0 0 0 1.553,-0.9592 3.6541,3.6541 0 0 0 0.91352,-1.3063 6.3946,6.3946 0 0 0 -0.14617,-4.1839 0.41108,0.41108 0 0 1 0.13703,-0.46589 0.43849,0.43849 0 0 1 0.4933,0 4.2661,4.2661 0 0 0 5.7734,-0.72168 1.3337,1.3337 0 0 0 0.14616,-0.17358 c 0.91351,-1.1784 0.2832,-2.7405 -0.18269,-3.919 a 7.1346,7.1346 0 0 1 -0.32887,-0.91353 0.56638,0.56638 0 0 1 0.63946,-0.7034 c 1.0871,0.19184 4.394,0.7765 5.6912,-2.0463 l 0.0729,-0.18272 c 0.73994,-1.9184 -0.62119,-3.5353 -1.2424,-4.1474 a 0.38368,0.38368 0 0 1 -0.073,-0.45676 0.37454,0.37454 0 0 1 0.40193,-0.21012 8.313,8.313 0 0 0 3.4988,-0.13702 3.1973,3.1973 0 0 0 1.827,-1.2972 3.1334,3.1334 0 0 0 0.38369,-0.91351 4.3575,4.3575 0 0 0 -1.078,-4.0834 c -0.40194,-0.52072 -0.78564,-1.014 -0.34713,-1.4068 a 1.3246,1.3246 0 0 1 0.23751,-0.15529 5.271,5.271 0 0 1 0.78562,-0.30146 c 1.2241,-0.40195 3.0694,-1.0049 3.8002,-3.2795 a 5.8922,5.8922 0 0 0 0.28319,-1.416 5.0518,5.0518 0 0 0 -2.229,-4.7229 c -0.39282,-0.31974 -0.73081,-0.59378 -0.58467,-0.91352 l 0.0913,-0.10049 c 0.30148,-0.29232 0.63033,-0.56638 0.91353,-0.83129 a 6.4403,6.4403 0 0 0 2.092,-2.4391 5.2893,5.2893 0 0 0 0.31973,-2.4756 3.5719,3.5719 0 0 0 -0.0455,-0.43849 c -0.31973,-2.4756 -2.7406,-3.8551 -4.1656,-4.458 -0.12789,-0.0546 -0.2649,-0.11877 -0.2649,-0.30146 v -0.13705 l 0.30145,-0.23749 a 5.9287,5.9287 0 0 0 2.0828,-6.6047 c 0,-0.12789 -0.0822,-0.25579 -0.12787,-0.37454 -0.6212,-1.6078 -2.8958,-2.366 -3.8733,-2.7406 -0.4933,-0.16443 -0.61206,-0.2101 -0.65773,-0.38367 v -0.14617 l 0.10049,-0.11876 c 0.0822,-0.10048 0.15529,-0.18269 0.22836,-0.28319 a 8.0846,8.0846 0 0 0 1.891,-4.3483 4.0377,4.0377 0 0 0 -0.26492,-1.7265 2.7406,2.7406 0 0 0 -0.16443,-0.37455 c -1.0597,-2.165 -3.1973,-2.503 -4.3484,-2.6766 a 3.3435,3.3435 0 0 1 -0.63946,-0.13705 l -0.18271,-0.0637 v -0.42937 l 0.19184,-0.10962 c 0.38368,-0.17357 1.014,-0.42933 1.7357,-0.7308 1.4159,-0.58467 3.1699,-1.3155 4.0194,-1.7448 0.84958,-0.42936 6.5317,-3.6541 8.788,-5.7826 a 14.16,14.16 0 0 0 2.6583,-3.4805 13.703,13.703 0 0 0 1.2515,-3.0329 c -2.5852,1.827 -11.876,6.0566 -16.489,7.6096 a 112.68,112.68 0 0 1 -11.611,3.1334 l -4.1017,0.96833 -0.676,0.14617 c -1.827,0.40194 -4.6864,1.014 -6.2028,3.3709 -1.1053,1.7357 -1.3246,4.1839 -0.63031,7.3081 a 14.89,14.89 0 0 0 0.47502,1.5164 c 1.2515,3.6541 3.8733,11.255 -4.2296,22.463 -4.6498,6.4494 -12.99,9.9756 -23.532,9.9756 h -0.50248 c -0.0546,0.30147 -0.13702,0.9866 -0.23751,1.7631 v 0.19183 a 117.61,117.61 0 0 1 -2.1285,12.369 v 0.14614 a 51.924,51.924 0 0 1 -5.07,14.004 c -0.35627,0.63033 -0.7765,1.2972 -1.3063,2.0828 z m 15.776,3.7272 m 0.37454,0 z" fill="#010101" id="path61"/>
    <path d="m 341.63,191.32 c 0,0 -11.108,19.778 -20.216,27.205 -13.484,10.962 -21.924,9.2265 -21.924,9.2265 0,0 10.314,-11.501 15.119,-17.85 4.193,-5.545 12.177,-17.165 15.53,-22.107 -0.43849,1.4068 -0.63947,4.3392 2.9415,5.7826 3.581,1.4434 6.7692,-1.352 7.9476,-2.4574 a 0.23751,0.23751 0 0 1 0.10048,-0.0638 l 0.4476,0.26491 z" fill="#da0e17" id="path62"/>
    <path d="m 301,228.17 a 8.3404,8.3404 0 0 1 -1.5895,-0.11875 l -0.52984,-0.10963 0.3654,-0.40195 c 0.10049,-0.11875 10.359,-11.565 15.1,-17.832 4.2387,-5.5999 12.278,-17.311 15.53,-22.089 l 1.1602,-1.7083 -0.61205,1.9732 c -0.27407,0.9135 -0.91352,3.9281 2.7405,5.408 3.517,1.416 6.6047,-1.4525 7.6187,-2.4026 a 0.54811,0.54811 0 0 1 0.22838,-0.13703 h 0.17357 l 0.78562,0.4659 -0.14616,0.26493 c -0.11875,0.19183 -11.245,19.906 -20.298,27.296 -10.222,8.3404 -17.512,9.4001 -20.563,9.4001 z m -0.91351,-0.66687 c 2.0828,0.14617 9.8294,-0.0547 21.075,-9.2174 8.3861,-6.8514 18.636,-24.491 19.988,-26.857 -1.1419,1.0688 -4.3758,3.9738 -8.2217,2.4482 -2.5852,-1.0414 -3.444,-2.9415 -3.38,-4.732 -3.6541,5.3167 -10.816,15.749 -14.744,20.947 -4.2296,5.5816 -12.789,15.237 -14.744,17.421 z" fill="#010101" id="path63"/>
    <path d="m 310.13,221.86 -0.38369,-0.4933 c 0.0823,-0.0638 8.7332,-7.0067 13.502,-13.703 3.179,-4.4945 9.2539,-13.703 9.3179,-13.794 l 0.52071,0.33801 c -0.0639,0.0914 -6.148,9.3087 -9.3361,13.812 -4.8143,6.8057 -13.529,13.803 -13.621,13.876 z" fill="#010101" id="path64"/>
    <path d="m 316.43,175.35 c -0.29234,1.0962 -1.7631,3.3891 -0.46591,5.0609 -4.6589,4.9238 -11.154,11.2 -16.388,14.041 -13.365,7.235 -19.86,3.9921 -19.86,3.9921 0,0 10.962,-7.9933 17.951,-14.497 3.106,-2.8776 8.2217,-7.5914 12.36,-11.382 a 2.229,2.229 0 0 0 0.0914,0.21924 c 1.3611,2.9781 4.8416,2.4026 5.9835,2.2016 a 0.28319,0.28319 0 0 1 0.32889,0.36541 z" fill="#da0e17" id="path65"/>
    <path d="m 284.08,199.46 a 10.743,10.743 0 0 1 -4.5219,-0.76736 l -0.41107,-0.20098 0.3654,-0.27405 c 0.10963,-0.0822 11.017,-8.0481 17.923,-14.47 3.243,-3.0055 8.514,-7.8563 12.369,-11.392 l 0.31974,-0.29233 0.12789,0.42022 c 0,0.0546 0.0547,0.11876 0.0823,0.18269 1.288,2.8136 4.5676,2.2381 5.6821,2.0463 a 0.55725,0.55725 0 0 1 0.51159,0.16443 0.60292,0.60292 0 0 1 0.13703,0.54812 9.4458,9.4458 0 0 1 -0.32888,0.9135 c -0.46588,1.1602 -1.1053,2.7406 -0.19184,3.9281 l 0.14616,0.19185 -0.16441,0.17357 c -4.5676,4.8416 -11.163,11.218 -16.443,14.086 -7.1072,3.855 -12.278,4.7686 -15.594,4.7686 z m -3.8185,-1.0962 c 1.6809,0.53896 8.0298,1.827 19.138,-4.1565 5.1705,-2.8045 11.62,-9.0255 16.169,-13.822 -0.91352,-1.3977 -0.21925,-3.1242 0.25577,-4.2753 0.1279,-0.32887 0.23753,-0.61206 0.30149,-0.8313 -3.1334,0.54811 -5.2254,-0.20098 -6.2302,-2.229 -3.8185,3.5079 -8.9068,8.2216 -12.077,11.127 -6.1571,5.7277 -15.484,12.68 -17.549,14.205 z" fill="#010101" id="path66"/>
    <path d="m 288.81,195.87 -0.27404,-0.47505 a 164.62,164.62 0 0 0 16.553,-11.3 c 3.8642,-3.0785 10.716,-9.2631 10.789,-9.327 l 0.37453,0.4111 c -0.0729,0.0637 -6.9427,6.2576 -10.816,9.3544 a 161.47,161.47 0 0 1 -16.663,11.337 z" fill="#010101" id="path67"/>
    <path d="m 306.58,159.94 a 48.069,48.069 0 0 1 -11.711,2.5578 c -18.791,0.91353 -19.723,-6.9336 -19.723,-6.9336 0,0 5.7826,0.10964 15.009,-2.2107 5.3989,-1.352 10.14,-2.8228 14.004,-4.1108 l 0.22838,-0.0822 c 0.33801,0.43849 -3.179,1.5347 -2.8228,5.5725 a 7.1894,7.1894 0 0 0 0.29233,1.4799 c 0.9135,2.9872 3.8002,3.2613 4.7229,3.7272 z" fill="#da0e17" id="path68"/>
    <path d="m 291.95,162.84 c -16.014,0 -17.037,-6.9336 -17.074,-7.2533 v -0.3106 h 0.31973 a 63.882,63.882 0 0 0 14.936,-2.1924 c 4.5128,-1.1328 9.1352,-2.4848 13.986,-4.1108 l 0.21927,-0.073 0.19183,-0.073 0.12789,0.1553 c 0.26493,0.34714 -0.10048,0.64859 -0.52983,0.99573 a 5.0792,5.0792 0 0 0 -2.2381,4.7229 6.6869,6.6869 0 0 0 0.28319,1.416 c 0.73082,2.2747 2.5852,2.8776 3.8094,3.2795 a 5.271,5.271 0 0 1 0.76735,0.29231 l 0.61205,0.30148 -0.64859,0.21009 a 47.22,47.22 0 0 1 -11.775,2.567 c -1.0323,0.0546 -2.0097,0.073 -2.9415,0.073 z m -16.443,-7.0067 c 0.43849,1.416 3.2612,7.1528 19.357,6.3946 a 44.963,44.963 0 0 0 10.862,-2.2929 5.6181,5.6181 0 0 1 -4.1291,-3.6541 6.7235,6.7235 0 0 1 -0.30145,-1.5347 5.4811,5.4811 0 0 1 2.165,-4.9969 c -4.6133,1.5164 -8.9525,2.7406 -13.237,3.8642 a 67.527,67.527 0 0 1 -14.717,2.2381 z" fill="#010101" id="path69"/>
    <path d="m 284.25,158.47 h -1.4525 v -0.55723 a 77.585,77.585 0 0 0 18.983,-1.955 l 0.13703,0.53899 a 77.293,77.293 0 0 1 -17.686,1.9915 z" fill="#010101" id="path70"/>
    <path d="m 303.05,130.94 c -1.151,3.5901 1.1328,5.2253 2.2747,6.1662 a 40.578,40.578 0 0 1 -7.9476,-3.3983 c -16.443,-9.1352 -14.808,-14.772 -14.808,-14.772 0,0 6.5956,2.7406 15.676,5.6181 3.2887,1.0414 6.3946,1.9092 9.2174,2.64 0.0822,0.10963 0.16443,0.20098 0.23752,0.28319 0.073,0.0823 -3.6541,0.81303 -4.5036,3.0238 a 4.1108,4.1108 0 0 0 -0.14617,0.43847 z" fill="#da0e17" id="path71"/>
  </g>
  <g fill="#010101" id="g80" transform="translate(-104.13,-21.569667)">
    <g stroke-width="0.91352" id="g79">
      <path d="m 306.54,137.76 -1.2972,-0.38368 a 41.775,41.775 0 0 1 -8.0024,-3.444 c -16.443,-9.1352 -15.009,-14.854 -14.936,-15.091 l 0.0822,-0.30146 0.29233,0.11875 c 0.0637,0 6.687,2.7406 15.649,5.609 2.9689,0.91353 6.0657,1.827 9.2082,2.6309 h 0.0914 l 0.0638,0.073 a 2.0828,2.0828 0 0 0 0.20097,0.25579 l 0.1005,0.10961 v 0.18271 c -0.0455,0.17357 -0.16445,0.21923 -0.66688,0.38368 -0.96833,0.32887 -3.243,1.0871 -3.8459,2.6492 -0.0455,0.12788 -0.0913,0.24664 -0.12789,0.3654 -1.0414,3.2339 0.86784,4.796 2.0097,5.7277 l 1.215,1.0049 z m -23.733,-18.444 c 0,1.2972 0.91353,6.4951 14.698,14.132 a 44.68,44.68 0 0 0 6.6048,2.9598 5.0061,5.0061 0 0 1 -1.3338,-5.5724 c 0,-0.12789 0.0913,-0.26492 0.13704,-0.40194 v -0.0547 c 0.69428,-1.827 3.1516,-2.6309 4.193,-2.9781 h 0.0455 c -3.0785,-0.79477 -6.1114,-1.6626 -9.0164,-2.5853 -7.8288,-2.4665 -13.885,-4.8873 -15.356,-5.4811 z" id="path72"/>
      <path d="m 302.95,131.19 a 96.888,96.888 0 0 1 -15.292,-6.9884 l 0.28321,-0.48417 a 96.833,96.833 0 0 0 15.192,6.9519 z" id="path73"/>
      <path d="m 324.92,188.34 c -2.3112,2.0463 -6.3946,5.6456 -9.0621,7.8106 a 127.89,127.89 0 0 1 -17.448,11.985 c 0,0 -0.33799,0.1553 -0.44761,0 -0.10962,-0.1553 0.17357,-0.46591 0.17357,-0.46591 0,0 6.5134,-5.4171 13.758,-11.455 a 113.68,113.68 0 0 0 10.442,-10.277 3.782,3.782 0 0 0 0.91352,1.3977 4.732,4.732 0 0 0 1.6443,1.0231 z" id="path74"/>
      <path d="m 353.78,194.56 c -1.1784,3.3161 -3.0877,8.1212 -4.9604,10.56 -7.1894,9.3453 -12.99,11.583 -13.072,11.656 -0.0821,0.0731 -0.31057,0.10962 -0.41108,0 -0.10048,-0.10962 0,-0.39281 0,-0.39281 a 70.277,70.277 0 0 0 10.487,-11.465 52.372,52.372 0 0 0 5.6912,-10.259 6.8422,6.8422 0 0 0 1.3886,-1.6078 0.073081,0.073081 0 0 1 0.12789,0 c 0.12789,0.24666 0.36541,0.8313 0.72168,1.5164 z" id="path75"/>
      <path d="m 307.62,167.79 a 33.59,33.59 0 0 1 -7.1894,4.2204 c -11.072,4.0103 -17.174,2.7862 -17.275,2.8045 -0.10049,0.0182 -0.32887,-0.073 -0.35628,-0.22839 -0.0273,-0.15531 0.24667,-0.31973 0.24667,-0.31973 a 70.889,70.889 0 0 0 15,-4.0195 45.32,45.32 0 0 0 7.6278,-3.8733 3.4531,3.4531 0 0 0 1.9458,1.416 z" id="path76"/>
      <path d="m 301.27,145.8 a 15.393,15.393 0 0 1 -2.2838,-0.32887 c -11.474,-2.6857 -15.913,-7.0524 -16.005,-7.0889 -0.0914,-0.0364 -0.2375,-0.23751 -0.17357,-0.38367 0.0638,-0.14617 0.37455,-0.13702 0.37455,-0.13702 a 70.45,70.45 0 0 0 14.772,4.8234 c 0.96833,0.21926 1.964,0.39281 2.9781,0.52071 a 5.545,5.545 0 0 0 0.338,2.5944 z" id="path77"/>
      <path d="m 305.8,120.85 a 4.3209,4.3209 0 0 0 -0.28319,1.827 c -7.5913,-2.8776 -10.569,-6.0566 -10.642,-6.0932 -0.073,-0.0364 -0.21925,-0.24667 -0.1553,-0.39281 0.0637,-0.14616 0.38366,-0.11876 0.38366,-0.11876 a 63.626,63.626 0 0 0 10.871,4.3666 4.0926,4.0926 0 0 0 -0.17357,0.40196 z" id="path78"/>
      <path d="m 328.05,128.32 -0.42021,-0.3654 c 0,0 2.5852,-2.9963 2.0645,-5.1522 -0.8587,-3.5262 -6.1754,-5.1522 -11.318,-6.7235 -1.827,-0.5481 -3.6541,-1.1145 -5.2984,-1.7631 a 152.88,152.88 0 0 1 -14.041,-6.1754 l 0.25577,-0.49331 c 0.0547,0 5.2619,2.7406 13.986,6.1571 1.6261,0.63033 3.4714,1.1967 5.2527,1.7448 5.2984,1.6169 10.77,3.2887 11.702,7.1254 0.58466,2.4391 -2.0646,5.4811 -2.1833,5.6455 z" id="path79"/>
    </g>
    <polygon transform="matrix(0.91352,0,0,0.91352,104.12,21.567)" points="287.4,191.15 287.94,191.44 274.51,216.32 273.97,216.03 " id="polygon79"/>
  </g>
  <path d="m 317.37,201.28033 -15.996,-12.406 -0.25578,17.722 -10.222,-21.376 -1.5256,-3.1973 c 0,0 0,-3.1516 2.9141,-7.7923 2.6766,-4.2479 3.106,-4.8508 4.6498,-6.4768 a 1.4434,1.4434 0 0 1 1.8727,0.17356 1.827,1.827 0 0 1 0.35628,0.38369 l 2.4756,4.8051 0.0546,0.0913 z" fill="#da0e17" stroke-width="0.91352" id="path80"/>
  <g fill="#010101" id="g82" transform="translate(-104.13,-21.569667)">
    <path d="m 405.51,229.36 -12.278,-25.77 c 0,-0.13702 0,-3.2887 2.9598,-7.9476 2.6857,-4.2752 3.1242,-4.8782 4.6772,-6.5134 a 1.69,1.69 0 0 1 2.2472,0.14616 1.9184,1.9184 0 0 1 0.41108,0.44763 l 2.5396,4.9147 16.343,29.233 -16.626,-12.899 -0.27406,18.353 z m -11.72,-25.834 11.2,23.45 0.25578,-17.092 15.347,11.876 -15.064,-26.967 -2.4756,-4.8142 a 1.7174,1.7174 0 0 0 -0.28317,-0.30145 c -0.45677,-0.3654 -1.1602,-0.54811 -1.4982,-0.19184 -1.5164,1.5986 -1.9458,2.2016 -4.5676,6.3946 -2.6218,4.193 -2.8502,7.1346 -2.8684,7.5822 z" stroke-width="0.91352" id="path81"/>
    <polygon transform="matrix(0.91352,0,0,0.91352,104.12,21.567)" points="327.89,190.37 341.32,215.25 340.79,215.54 327.36,190.66 " id="polygon81"/>
    <polygon transform="matrix(0.91352,0,0,0.91352,104.12,21.567)" points="321.21,200.56 329.56,216.03 329.02,216.32 320.67,200.85 " id="polygon82"/>
  </g>
  <g stroke-width="0.91352" id="g91" transform="translate(-104.13,-21.569667)">
    <path d="m 326.36,245.14 c 0,0 -2.43,-0.2558 -3.4896,1.3154 -0.57553,0.85871 0.21925,3.6541 0.21925,3.6541 0,0 -2.3021,0.073 -2.9324,-1.6535 a 3.9555,3.9555 0 0 1 0.91353,-4.4854 c 1.7722,-1.8818 5.3258,-1.4434 5.3258,-1.4434 v 2.6492 z" fill="#fcde03" id="path82"/>
    <path d="m 323.03,250.36 c -0.39281,0 -2.503,-0.0823 -3.1425,-1.827 a 4.2296,4.2296 0 0 1 0.91351,-4.7777 c 1.827,-1.9549 5.408,-1.553 5.5542,-1.5347 h 0.24664 v 3.2064 h -0.3106 c 0,0 -2.2746,-0.21012 -3.2247,1.1967 -0.36542,0.54812 0,2.366 0.25577,3.3892 l 0.10048,0.33799 h -0.35625 z m 2.4482,-7.637 c -1.1236,0 -3.0968,0.19182 -4.2479,1.4068 a 3.6541,3.6541 0 0 0 -0.813,4.2022 2.5853,2.5853 0 0 0 2.302,1.4525 c -0.21008,-0.8313 -0.60291,-2.7406 -0.0821,-3.4805 a 4.0012,4.0012 0 0 1 3.4348,-1.4525 v -2.1011 a 5.07,5.07 0 0 0 -0.59379,0 z" fill="#010101" id="path83"/>
    <path d="m 329.42,233.08 c 0,0 -1.352,-2.3751 -3.0694,-2.0097 -1.2881,0.26493 -1.5073,3.0146 -1.5073,3.0146 0,0 -1.7722,-1.7266 -1.078,-3.4896 0.69428,-1.7631 2.1376,-1.827 3.5171,-1.6809 a 8.45,8.45 0 0 1 4.3666,1.9275 z" fill="#fcde03" id="path84"/>
    <path d="m 325.08,234.7 -0.42936,-0.41109 c -0.0822,-0.0731 -1.9001,-1.8818 -1.151,-3.7911 0.74909,-1.9093 2.2747,-2.028 3.8185,-1.827 a 8.5688,8.5688 0 0 1 4.5219,2.0006 l 0.21013,0.20096 -2.6949,2.6309 -0.17355,-0.31971 c 0,0 -1.2789,-2.1924 -2.7405,-1.8819 -0.91351,0.19185 -1.2332,2.0645 -1.2881,2.7406 l -0.0455,0.59379 z m 1.3337,-5.5542 a 2.2473,2.2473 0 0 0 -2.3934,1.553 2.9507,2.9507 0 0 0 0.63031,2.7406 c 0.15531,-0.91352 0.57552,-2.4117 1.6443,-2.6309 1.5073,-0.31974 2.7406,1.1693 3.1699,1.827 l 1.7722,-1.7631 a 8.2217,8.2217 0 0 0 -3.9829,-1.6809 c -0.29232,0 -0.5755,-0.0455 -0.84043,-0.0455 z" fill="#010101" id="path85"/>
    <path d="m 368.38,244.78 a 4.2296,4.2296 0 0 1 3.243,0.76736 c 1.0049,0.8587 -0.16445,3.1882 -0.16445,3.1882 0,0 2.3478,-0.75822 2.5853,-2.6309 a 2.9415,2.9415 0 0 0 -2.1376,-3.444 6.3033,6.3033 0 0 0 -3.6541,-0.073 z" fill="#fcde03" id="path86"/>
    <path d="m 370.91,249.2 0.29232,-0.59376 c 0.30146,-0.5938 0.91353,-2.2564 0.2375,-2.8502 a 4.0195,4.0195 0 0 0 -3.0146,-0.70342 l -0.31058,0.0638 -0.14616,-2.7406 0.17356,-0.0822 a 6.5225,6.5225 0 0 1 3.8459,0.0638 3.2064,3.2064 0 0 1 2.3295,3.7454 c -0.25579,2.028 -2.6766,2.8228 -2.7406,2.8593 l -0.63032,0.20098 z m -1.7814,-4.732 a 4.1382,4.1382 0 0 1 2.6766,0.91353 c 0.79476,0.68513 0.47504,2.0463 0.17358,2.8593 a 3.0237,3.0237 0 0 0 1.827,-2.1285 2.6675,2.6675 0 0 0 -1.9366,-3.1425 6.5408,6.5408 0 0 0 -3.2887,-0.14616 l 0.0913,1.69 a 3.8002,3.8002 0 0 1 0.49329,0 z" fill="#010101" id="path87"/>
    <path d="m 340.38,261.55 c 0,0 -0.81303,2.1559 0.56637,3.243 1.0414,0.81304 4.2661,-0.0731 4.2661,-0.0731 a 4.6589,4.6589 0 0 1 -2.4939,2.7406 3.9921,3.9921 0 0 1 -4.5128,-1.6352 7.0615,7.0615 0 0 1 -0.5207,-4.1017 3.6541,3.6541 0 0 1 0.96832,-1.827 l 1.7266,1.6626 z" fill="#fcde03" id="path88"/>
    <path d="m 341.58,267.94 a 4.2204,4.2204 0 0 1 -3.6084,-1.9549 7.3081,7.3081 0 0 1 -0.55724,-4.2935 3.9099,3.9099 0 0 1 1.0506,-2.0189 l 0.19182,-0.17357 2.0463,1.9732 -0.0638,0.17356 c 0,0 -0.71255,1.9824 0.48416,2.9232 0.75822,0.5938 3.1608,0.10964 4.0195,-0.12788 l 0.50246,-0.13703 -0.16445,0.49331 a 4.8782,4.8782 0 0 1 -2.6766,2.9507 3.7637,3.7637 0 0 1 -1.2241,0.19183 z m -2.9141,-7.6644 a 3.5901,3.5901 0 0 0 -0.68515,1.5439 6.8057,6.8057 0 0 0 0.49327,3.919 3.718,3.718 0 0 0 4.1748,1.4982 3.9829,3.9829 0 0 0 2.1194,-2.1011 c -1.014,0.22837 -3.0968,0.58465 -3.9738,-0.10962 -1.2881,-1.0231 -0.91353,-2.8136 -0.71254,-3.38 l -1.3977,-1.352 z" fill="#010101" id="path89"/>
    <path d="m 362.94,246.72 h -13.237 c 0,0 -5.335,8.5048 -5.1248,10.122 0.1553,1.1693 1.0962,2.4482 0.91351,3.0603 -0.1827,0.61208 -1.7539,1.6626 -1.7539,1.6626 h -3.3252 l -1.7265,-1.6626 0.12788,-1.9092 a 4.2296,4.2296 0 0 1 0.68514,-2.028 l 6.221,-9.4275 h -13.794 c 0,0 -0.24663,2.7406 -2.5304,2.7406 -3.2978,0 -3.0055,-4.1382 -3.0055,-4.1382 v -2.6492 l 18.855,-0.0455 -12.543,-6.7326 a 5.408,5.408 0 0 1 -3.6541,0.82215 c -1.0414,-0.10047 -0.99573,-1.4982 -0.99573,-1.4982 l 3.6541,-4.193 15.091,8.2856 0.60294,0.338 11.931,-24.016 5.5359,-4.2935 0.11874,8.2216 -13.41,22.929 10.761,-0.073 a 9.4092,9.4092 0 0 1 2.4391,-0.9135 c 2.9324,-0.31974 3.4166,0.76734 3.4166,0.76734 0,0 1.2241,7.0615 -2.4665,7.1437 -2.0372,0.0455 -2.7406,-2.5122 -2.7406,-2.5122 z" fill="#fcde03" id="path90"/>
    <path d="m 343.8,261.82 h -3.5262 l -1.9093,-1.827 0.14618,-2.0371 a 4.4123,4.4123 0 0 1 0.73078,-2.165 l 5.9288,-8.989 h -13.027 a 2.9598,2.9598 0 0 1 -2.7406,2.7406 2.9141,2.9141 0 0 1 -2.2381,-0.91351 5.2619,5.2619 0 0 1 -1.0505,-3.5262 v -2.9141 h 18.033 l -11.419,-6.1297 a 5.8739,5.8739 0 0 1 -3.7089,0.76736 c -1.0232,-0.10051 -1.2607,-1.2059 -1.2515,-1.827 v -0.10048 l 3.8459,-4.4306 15.639,8.5871 11.794,-23.825 6.0292,-4.6772 0.13705,8.8977 -0.0455,0.073 -13.164,22.5 10.204,-0.073 a 9.327,9.327 0 0 1 2.4848,-0.91353 c 3.0512,-0.32887 3.6541,0.79476 3.6997,0.91353 v 0.0638 c 0,0.1827 0.77649,4.6133 -0.82216,6.5591 a 2.4208,2.4208 0 0 1 -1.9184,0.9135 c -1.891,0 -2.7406,-1.827 -2.9233,-2.5122 h -12.881 c -2.1194,3.3983 -5.1522,8.715 -5.0061,9.8112 a 6.2211,6.2211 0 0 0 0.50243,1.5256 2.6218,2.6218 0 0 1 0.3654,1.6626 c -0.21922,0.59379 -1.5804,1.6078 -1.827,1.827 l -0.0731,0.0548 z m -3.3069,-0.55725 h 3.1242 a 6.3033,6.3033 0 0 0 1.5804,-1.489 2.6309,2.6309 0 0 0 -0.34712,-1.2515 6.5042,6.5042 0 0 1 -0.539,-1.6717 c -0.21923,-1.6717 4.6133,-9.4275 5.1614,-10.304 l 0.0822,-0.13702 h 13.602 l 0.0547,0.2101 c 0,0 0.64858,2.3112 2.4026,2.3112 h 0.0455 a 1.827,1.827 0 0 0 1.4982,-0.70341 c 1.3611,-1.6535 0.78564,-5.5907 0.71255,-6.0658 -0.0913,-0.12791 -0.71255,-0.84044 -3.1242,-0.58464 a 9.4732,9.4732 0 0 0 -2.3386,0.9135 h -0.0639 l -11.309,0.0731 13.621,-23.222 -0.11875,-7.6279 -5.0426,3.919 -12.031,24.263 -15.749,-8.651 -3.4257,3.9373 c 0,0.28318 0.10962,1.0505 0.74909,1.1145 a 5.1248,5.1248 0 0 0 3.4622,-0.75822 l 0.13702,-0.10962 0.16444,0.0914 13.52,7.2442 h -19.686 v 2.3751 a 4.7594,4.7594 0 0 0 0.91352,3.1242 2.3751,2.3751 0 0 0 1.827,0.73082 c 1.9914,0 2.2381,-2.3934 2.2472,-2.503 v -0.24666 h 14.58 l -6.4951,9.8569 a 4.0012,4.0012 0 0 0 -0.64859,1.891 l -0.11878,1.7722 1.553,1.5073 z" fill="#010101" id="path91"/>
  </g>
  <polygon transform="matrix(0.91352,0,0,0.91352,-0.01,-0.00266685)" points="284.21,210.12 284.75,210.41 267.76,241.84 267.22,241.54 " fill="#010101" id="polygon91"/>
  <g stroke-width="0.91352" id="g101" transform="translate(-104.13,-21.569667)">
    <path d="m 443.75,244.46 c 0,0 2.43,-0.25579 3.4896,1.3155 0.57551,0.8587 -0.21925,3.6541 -0.21925,3.6541 0,0 2.3021,0.0822 2.9324,-1.6443 a 3.9647,3.9647 0 0 0 -0.91352,-4.4945 c -1.7814,-1.827 -5.3258,-1.4434 -5.3258,-1.4434 v 2.6126 z" fill="#fcde03" id="path92"/>
    <path d="m 447.06,249.64 h -0.37454 l 0.0913,-0.34715 c 0.30145,-1.0231 0.63032,-2.841 0.26491,-3.38 -0.9592,-1.4159 -3.2064,-1.2059 -3.2339,-1.1967 h -0.30144 v -3.2065 h 0.24665 c 0.14614,0 3.6997,-0.42935 5.5542,1.5256 a 4.2296,4.2296 0 0 1 0.91352,4.7777 c -0.63034,1.754 -2.7406,1.827 -3.1425,1.827 z m -2.9233,-5.4811 a 3.9921,3.9921 0 0 1 3.3252,1.4525 c 0.5207,0.76736 0.12789,2.6583 -0.0822,3.4805 a 2.5853,2.5853 0 0 0 2.3021,-1.4525 3.6541,3.6541 0 0 0 -0.81302,-4.2022 c -1.3977,-1.4799 -4.0286,-1.4342 -4.8417,-1.3794 v 2.1011 z" fill="#010101" id="path93"/>
    <path d="m 440.69,232.37 c 0,0 1.352,-2.3751 3.0603,-2.0097 1.2972,0.27405 1.5164,3.0146 1.5164,3.0146 0,0 1.7722,-1.7266 1.078,-3.4896 -0.69429,-1.7631 -2.1376,-1.827 -3.517,-1.6808 a 8.4774,8.4774 0 0 0 -4.3757,1.9366 z" fill="#fcde03" id="path94"/>
    <path d="m 445.02,233.99 -0.0455,-0.58466 c -0.0546,-0.71254 -0.3928,-2.5852 -1.288,-2.7406 -1.4982,-0.3106 -2.7406,1.827 -2.7406,1.827 l -0.18271,0.31973 -2.6857,-2.6949 0.21011,-0.20097 a 8.651,8.651 0 0 1 4.5676,-2.0006 c 1.5347,-0.16442 3.0603,-0.0638 3.8185,1.827 0.75819,1.891 -1.078,3.718 -1.151,3.7911 l -0.42935,0.41106 z m -1.6352,-3.9464 a 2.2747,2.2747 0 0 1 0.42021,0 c 1.0688,0.22839 1.4891,1.7357 1.6443,2.6309 a 2.9689,2.9689 0 0 0 0.63032,-2.7406 c -0.58464,-1.4799 -1.6717,-1.6717 -3.2338,-1.5073 a 8.2765,8.2765 0 0 0 -3.9829,1.6809 l 1.7631,1.7722 c 0.41108,-0.60292 1.4434,-1.891 2.7406,-1.891 z" fill="#010101" id="path95"/>
    <path d="m 401.72,244.07 a 4.2204,4.2204 0 0 0 -3.243,0.76734 c -1.0049,0.85871 0.16444,3.179 0.16444,3.179 0,0 -2.3477,-0.74907 -2.5853,-2.6309 a 2.9507,2.9507 0 0 1 2.1285,-3.444 6.3946,6.3946 0 0 1 3.6541,-0.073 z" fill="#fcde03" id="path96"/>
    <path d="m 399.18,248.48 -0.63033,-0.20098 c -0.10048,0 -2.5213,-0.83131 -2.7405,-2.8593 a 3.2064,3.2064 0 0 1 2.3203,-3.7454 6.5499,6.5499 0 0 1 3.8551,-0.0637 l 0.17356,0.0822 -0.14617,2.7405 -0.31059,-0.0547 a 3.9281,3.9281 0 0 0 -3.0146,0.70342 c -0.68514,0.58463 -0.0639,2.2472 0.22839,2.841 l 0.30145,0.59378 z m 1.0323,-6.5591 a 6.7235,6.7235 0 0 0 -1.9549,0.2832 2.6675,2.6675 0 0 0 -1.9366,3.1425 3.0603,3.0603 0 0 0 1.827,2.1376 c -0.30146,-0.81304 -0.62118,-2.1833 0.17356,-2.8685 a 4.3483,4.3483 0 0 1 3.1699,-0.86783 l 0.0914,-1.6809 a 5.5999,5.5999 0 0 0 -1.3337,-0.14616 z" fill="#010101" id="path97"/>
    <path d="m 429.72,260.84 c 0,0 0.81304,2.1559 -0.56637,3.2338 -1.0414,0.82219 -4.2661,-0.073 -4.2661,-0.073 a 4.6315,4.6315 0 0 0 2.4939,2.7406 3.9829,3.9829 0 0 0 4.5036,-1.6352 6.9884,6.9884 0 0 0 0.52983,-4.1017 3.6541,3.6541 0 0 0 -0.96833,-1.827 l -1.7266,1.6718 z" fill="#fcde03" id="path98"/>
    <path d="m 428.53,267.24 a 3.8733,3.8733 0 0 1 -1.2332,-0.20097 4.8599,4.8599 0 0 1 -2.6675,-2.9507 l -0.16443,-0.48415 0.50244,0.13703 c 0.85869,0.23751 3.2613,0.72168 4.0194,0.11877 1.1967,-0.91353 0.48417,-2.8959 0.47506,-2.9232 l -0.0638,-0.16445 2.0554,-1.9823 0.19185,0.17358 a 4.0926,4.0926 0 0 1 1.0505,2.0189 7.3081,7.3081 0 0 1 -0.55724,4.2935 4.2296,4.2296 0 0 1 -3.6084,1.9641 z m -3.1699,-2.8319 a 3.9829,3.9829 0 0 0 2.1194,2.1011 3.718,3.718 0 0 0 4.1748,-1.4982 6.8788,6.8788 0 0 0 0.4933,-3.919 3.6541,3.6541 0 0 0 -0.70341,-1.5164 l -1.3977,1.3337 c 0.17356,0.57553 0.57551,2.366 -0.71254,3.38 -0.91352,0.69428 -2.9598,0.33801 -3.9738,0.10961 z" fill="#010101" id="path99"/>
    <path d="m 407.16,246.01 h 13.237 c 0,0 5.3349,8.5048 5.1248,10.131 -0.1553,1.1602 -1.0962,2.4391 -0.91352,3.0512 0.1827,0.61205 1.7448,1.6717 1.7448,1.6717 h 3.3344 l 1.7265,-1.6717 -0.12789,-1.9092 a 4.3666,4.3666 0 0 0 -0.68513,-2.028 l -6.221,-9.4275 h 13.785 c 0,0 0.24664,2.7405 2.5396,2.7405 3.2978,0 3.0055,-4.1382 3.0055,-4.1382 v -2.6492 l -18.818,-0.0547 12.543,-6.7235 a 5.3806,5.3806 0 0 0 3.6541,0.81302 c 1.0414,-0.10049 0.99573,-1.489 0.99573,-1.489 l -3.6541,-4.193 -15.082,8.2856 -0.60292,0.32886 -11.931,-24.016 -5.5359,-4.2935 -0.11875,8.2673 13.41,22.92 -10.761,-0.0729 a 9.7564,9.7564 0 0 0 -2.4391,-0.91352 c -2.9415,-0.3106 -3.4166,0.76735 -3.4166,0.76735 0,0 -1.2241,7.0615 2.4665,7.1437 2.0372,0.0455 2.7405,-2.5122 2.7405,-2.5122 z" fill="#fcde03" id="path100"/>
    <path d="m 429.83,261.12 h -3.5262 l -0.0731,-0.0546 c -0.27406,-0.19184 -1.6444,-1.2059 -1.827,-1.827 a 2.6035,2.6035 0 0 1 0.36541,-1.6535 6.486,6.486 0 0 0 0.50242,-1.5256 c 0.13705,-1.1054 -2.8867,-6.3946 -5.006,-9.8112 h -12.862 c -0.21926,0.6486 -1.014,2.5578 -2.9324,2.5213 a 2.4482,2.4482 0 0 1 -1.9092,-0.91352 c -1.6078,-1.9458 -0.85872,-6.3946 -0.83131,-6.559 v -0.0638 c 0.0547,-0.1279 0.64859,-1.2607 3.6998,-0.91352 a 9.2996,9.2996 0 0 1 2.4848,0.91352 l 10.204,0.0638 -13.209,-22.564 0.12791,-8.8977 6.0657,4.732 11.794,23.751 15.63,-8.5871 3.855,4.4397 v 0.10048 c 0,0.56638 -0.22838,1.6717 -1.2515,1.7722 a 5.8739,5.8739 0 0 1 -3.7089,-0.76735 l -11.419,6.1297 h 18.033 v 3.0603 a 5.2984,5.2984 0 0 1 -1.0506,3.5079 2.9598,2.9598 0 0 1 -2.2381,0.91353 c -1.827,0 -2.5944,-1.6809 -2.7406,-2.7405 h -13.072 l 5.9287,8.9981 a 4.4397,4.4397 0 0 1 0.73082,2.1559 l 0.14615,2.0371 -1.9092,1.827 z m -3.3526,-0.55724 h 3.1334 l 1.5438,-1.4799 -0.1279,-1.827 a 3.9281,3.9281 0 0 0 -0.63946,-1.891 l -6.4951,-9.8568 h 14.571 v 0.25578 c 0,0.1005 0.25579,2.503 2.2472,2.503 a 2.4208,2.4208 0 0 0 1.827,-0.73081 4.8142,4.8142 0 0 0 0.91352,-3.1151 v -2.3934 l -19.686,-0.0455 13.703,-7.3081 0.14616,0.10963 a 5.1248,5.1248 0 0 0 3.4622,0.74907 c 0.63946,-0.0546 0.73081,-0.83128 0.73997,-1.1054 l -3.4166,-3.9464 -15.749,8.651 -12.031,-24.217 -5.0426,-3.9007 -0.11876,7.6279 13.621,23.276 -11.318,-0.073 h -0.0547 a 9.3544,9.3544 0 0 0 -2.3386,-0.91351 c -2.4026,-0.26493 -3.0238,0.43848 -3.1242,0.58463 -0.0823,0.48416 -0.6486,4.4123 0.71255,6.0566 a 1.891,1.891 0 0 0 1.4982,0.71254 c 1.7631,0.0547 2.4391,-2.2838 2.4391,-2.3112 l 0.0638,-0.20097 h 13.602 l 0.0822,0.12788 c 0.54811,0.91352 5.3806,8.6419 5.1614,10.304 a 6.5042,6.5042 0 0 1 -0.53899,1.6717 2.6675,2.6675 0 0 0 -0.34712,1.2607 6.3946,6.3946 0 0 0 1.5713,1.4799 z" fill="#010101" id="path101"/>
  </g>
  <polygon transform="matrix(0.91352,0,0,0.91352,-0.01,-0.00266685)" points="330.85,209.34 347.84,240.77 347.3,241.06 330.31,209.63 " fill="#010101" id="polygon101"/>
  <g stroke-width="0.91352" id="g112" transform="translate(-104.13,-21.569667)">
    <path d="m 363.44,176.22 c 0,0 -8.9068,-0.13701 -24.089,-8.9068 -7.774,-4.4945 -13.703,-13.072 -16.443,-17.512 a 0.24665,0.24665 0 0 1 0.2375,-0.37454 7.7558,7.7558 0 0 0 4.6133,-0.91351 4.2844,4.2844 0 0 0 0.68514,-6.6413 c -1.4434,-1.489 -4.12,-1.4342 -6.3398,0.54811 a 12.378,12.378 0 0 0 -1.0414,1.0323 0.19184,0.19184 0 0 1 -0.32886,-0.1553 6.7966,6.7966 0 0 0 -0.79476,-3.7728 c -1.3703,-2.6309 -3.9829,-3.9921 -5.8191,-3.0329 -1.8362,0.95919 -2.229,3.8733 -0.84958,6.5134 a 6.9884,6.9884 0 0 0 2.0006,2.4026 0.28319,0.28319 0 0 1 -0.0821,0.50243 q -0.46589,0.13703 -0.9592,0.32887 c -2.7406,1.0597 -4.3666,3.6541 -3.5444,5.8008 a 4.5676,4.5676 0 0 0 6.3398,2.028 7.0706,7.0706 0 0 0 2.366,-2.5304 0.24665,0.24665 0 0 1 0.42936,0 c 2.905,5.1248 9.3818,14.963 19.184,21.011 12.077,7.4178 26.273,9.3636 26.273,9.3636 l -1.827,-5.7095 z" fill="#fcde03" id="path102"/>
    <path d="m 365.65,182.26 -0.43848,-0.0639 c -0.14618,0 -14.397,-2.0371 -26.382,-9.4001 -9.7929,-6.0201 -16.279,-15.804 -19.275,-21.093 a 6.7874,6.7874 0 0 1 -2.4208,2.6218 4.8782,4.8782 0 0 1 -4.0469,0.31058 4.4854,4.4854 0 0 1 -2.6949,-2.4391 4.0012,4.0012 0 0 1 0.44763,-3.5536 6.5316,6.5316 0 0 1 3.2704,-2.6126 c 0.32887,-0.12789 0.64859,-0.23752 0.96833,-0.32887 a 7.4908,7.4908 0 0 1 -2.0828,-2.5122 c -1.4434,-2.7406 -1.0049,-5.8648 0.96834,-6.8879 a 3.5536,3.5536 0 0 1 3.3435,0.16442 6.9519,6.9519 0 0 1 2.8502,2.9872 7.1346,7.1346 0 0 1 0.84044,3.654 c 0.27404,-0.28319 0.56637,-0.57551 0.91352,-0.8587 2.2107,-1.9732 5.1066,-2.2016 6.7235,-0.52984 a 4.8965,4.8965 0 0 1 1.3155,3.9007 4.2387,4.2387 0 0 1 -2.0554,3.1608 7.9476,7.9476 0 0 1 -4.7868,0.91352 c 2.8593,4.5676 8.7424,12.945 16.398,17.357 14.918,8.6327 23.852,8.8977 23.943,8.8977 h 0.19186 l 2.0097,6.3215 z M 319.572,151.2 a 0.53898,0.53898 0 0 1 0.45677,0.27407 c 2.9689,5.2436 9.4001,14.936 19.083,20.892 10.706,6.5773 23.24,8.852 25.725,9.2539 l -1.6169,-5.0883 c -1.416,-0.0914 -10.186,-0.91352 -24.016,-8.9433 -7.7649,-4.4854 -13.703,-12.954 -16.571,-17.603 a 0.52984,0.52984 0 0 1 0.50244,-0.8039 7.4543,7.4543 0 0 0 4.4397,-0.84043 3.6997,3.6997 0 0 0 1.827,-2.7406 4.3209,4.3209 0 0 0 -1.1602,-3.4531 c -1.4068,-1.4433 -3.9646,-1.2058 -5.947,0.55725 -0.38365,0.34714 -0.7308,0.68515 -1.0322,1.014 a 0.46589,0.46589 0 0 1 -0.53899,0.11876 0.50243,0.50243 0 0 1 -0.27405,-0.4933 6.8788,6.8788 0 0 0 -3.3709,-6.3946 3.0329,3.0329 0 0 0 -2.8319,-0.16443 c -1.7083,0.9135 -2.0371,3.6541 -0.73081,6.1388 a 6.7144,6.7144 0 0 0 1.9275,2.3021 0.59379,0.59379 0 0 1 0.21924,0.55725 0.56638,0.56638 0 0 1 -0.39283,0.43848 c -0.31057,0.0914 -0.62118,0.20097 -0.91352,0.31973 a 5.9835,5.9835 0 0 0 -2.9872,2.3843 3.444,3.444 0 0 0 -0.40194,3.0603 3.8916,3.8916 0 0 0 2.3569,2.1468 4.2753,4.2753 0 0 0 3.5901,-0.2649 6.623,6.623 0 0 0 2.2564,-2.4208 0.52984,0.52984 0 0 1 0.45675,-0.26492 z" fill="#010101" id="path103"/>
    <path d="m 412.51,181.08 c 0,0 0.30146,-0.0823 0.49329,-0.11875 a 71.327,71.327 0 0 0 21.285,-8.3952 c 9.802,-6.0292 16.288,-15.868 19.184,-21.011 a 0.24665,0.24665 0 0 1 0.42934,0 7.0706,7.0706 0 0 0 2.366,2.5305 4.5676,4.5676 0 0 0 6.349,-2.028 c 0.81302,-2.1468 -0.77648,-4.7412 -3.5536,-5.8008 q -0.49329,-0.19184 -0.95918,-0.32886 a 0.28319,0.28319 0 0 1 -0.0823,-0.50245 7.1163,7.1163 0 0 0 2.0097,-2.4025 c 1.3703,-2.6401 0.9866,-5.5542 -0.84958,-6.5134 -1.8362,-0.95919 -4.458,0.40195 -5.8282,3.0329 a 6.7783,6.7783 0 0 0 -0.78564,3.7728 0.19184,0.19184 0 0 1 -0.338,0.15529 12.378,12.378 0 0 0 -1.0414,-1.0323 c -2.2198,-1.9823 -4.8964,-2.0371 -6.3398,-0.54811 a 4.2844,4.2844 0 0 0 0.68513,6.6413 7.774,7.774 0 0 0 4.6133,0.91352 0.24665,0.24665 0 0 1 0.23752,0.37454 c -2.7406,4.4397 -8.6967,13.018 -16.443,17.512 -10.642,6.148 -17.777,7.9933 -21.303,8.5688 l -0.55724,0.0913 c 0,0 0.10962,1.9915 0.16443,2.6583 0.0546,0.66687 0.29232,2.4482 0.29232,2.4482 z" fill="#fcde03" id="path104"/>
    <path d="m 412.27,181.43 -0.0455,-0.31059 c 0,-0.073 -0.22838,-1.827 -0.28319,-2.4665 -0.0546,-0.63946 -0.16444,-2.5852 -0.16444,-2.6675 v -0.24664 h 0.2558 l 0.5481,-0.0913 c 4.1108,-0.676 11.127,-2.7406 21.212,-8.5414 7.6553,-4.4214 13.547,-12.789 16.37,-17.412 a 7.5731,7.5731 0 0 1 -4.7594,-0.91351 4.2204,4.2204 0 0 1 -2.0463,-3.1608 4.8599,4.8599 0 0 1 1.3063,-3.9007 c 1.6169,-1.6718 4.5128,-1.4434 6.7235,0.52984 a 11.583,11.583 0 0 1 0.9135,0.8587 7.1346,7.1346 0 0 1 0.84045,-3.6541 7.0524,7.0524 0 0 1 2.8502,-2.9872 3.5536,3.5536 0 0 1 3.3435,-0.16443 c 1.9823,1.0231 2.4117,4.1108 0.97745,6.8879 a 7.3812,7.3812 0 0 1 -2.0919,2.4939 l 0.97745,0.34714 a 6.5499,6.5499 0 0 1 3.2613,2.6126 4.0012,4.0012 0 0 1 0.44761,3.5536 4.4945,4.4945 0 0 1 -2.6857,2.4756 4.8965,4.8965 0 0 1 -4.056,-0.31058 7.2351,7.2351 0 0 1 -2.4665,-2.6218 c -2.9415,5.2893 -9.4366,15.073 -19.23,21.093 a 71.757,71.757 0 0 1 -21.367,8.4318 l -0.49329,0.11876 -0.30147,0.073 z m 0.0729,-5.2162 c 0,0.55726 0.10049,1.8819 0.14617,2.3934 0.0455,0.5116 0.1827,1.5804 0.25577,2.1285 h 0.19186 a 71.063,71.063 0 0 0 21.203,-8.4409 c 9.6924,-5.9561 16.114,-15.649 19.093,-20.892 a 0.52984,0.52984 0 0 1 0.45677,-0.27406 0.52984,0.52984 0 0 1 0.45675,0.26491 6.6961,6.6961 0 0 0 2.2564,2.4208 4.2753,4.2753 0 0 0 3.5901,0.26492 3.8916,3.8916 0 0 0 2.3569,-2.1468 3.444,3.444 0 0 0 -0.40193,-3.0603 5.947,5.947 0 0 0 -2.9872,-2.3843 c -0.31972,-0.11876 -0.63032,-0.22837 -0.91352,-0.31973 a 0.56638,0.56638 0 0 1 -0.40195,-0.36541 0.57552,0.57552 0 0 1 0.22839,-0.55723 6.9245,6.9245 0 0 0 1.9275,-2.3021 c 1.2972,-2.503 0.96833,-5.2527 -0.73995,-6.1388 a 3.0055,3.0055 0 0 0 -2.8228,0.16443 6.8605,6.8605 0 0 0 -3.38,6.3946 0.50243,0.50243 0 0 1 -0.27404,0.49329 0.46589,0.46589 0 0 1 -0.53898,-0.11874 c -0.30148,-0.32888 -0.64859,-0.66689 -1.0231,-1.014 -1.9915,-1.7631 -4.5676,-2.0006 -5.9562,-0.55726 a 4.3483,4.3483 0 0 0 -1.1602,3.4531 3.7272,3.7272 0 0 0 1.827,2.7405 7.4543,7.4543 0 0 0 4.4397,0.84044 0.52984,0.52984 0 0 1 0.50244,0.24664 0.51157,0.51157 0 0 1 0,0.55725 c -2.8502,4.6498 -8.8063,13.118 -16.571,17.603 -10.149,5.8739 -17.238,7.9202 -21.395,8.6053 l -0.3106,0.0548 z" fill="#010101" id="path105"/>
    <path d="m 361.06,165.9 c -0.0822,0 -8.8246,-0.0455 -16.078,-4.1291 -7.4086,-4.1656 -9.8568,-9.4458 -9.9573,-9.665 l 0.50243,-0.23751 c 0,0.0546 2.4848,5.3441 9.729,9.4184 7.2442,4.0743 15.722,4.056 15.804,4.056 z" fill="#010101" id="path106"/>
    <path d="m 416.02,266.39 c 0,0 -4.5676,6.1114 -10.688,5.6912 -6.3946,-0.44763 -12.607,-7.025 -14.616,-9.1352 a 0.11876,0.11876 0 0 0 -0.18272,0.14617 74.525,74.525 0 0 0 2.8502,7.4543 69.555,69.555 0 0 0 5.1888,7.8654 0.1553,0.1553 0 0 1 -0.15531,0.24665 20.627,20.627 0 0 1 -4.7503,-1.6443 15.703,15.703 0 0 1 -3.8094,-3.1425 h -0.0638 c 0,0.77649 0,5.207 -0.73083,7.4634 a 8.9707,8.9707 0 0 1 -2.9141,3.8094 8.8977,8.8977 0 0 1 -2.9141,-3.8094 c -0.73996,-2.2564 -0.7217,-6.687 -0.73996,-7.4634 0,0 0,-0.0548 -0.0638,0 a 15.703,15.703 0 0 1 -3.8094,3.1425 20.627,20.627 0 0 1 -4.7503,1.6443 0.1553,0.1553 0 0 1 -0.15532,-0.24665 70.606,70.606 0 0 0 5.1979,-7.8654 76.918,76.918 0 0 0 2.8502,-7.4543 0.12059048,0.12059048 0 0 0 -0.19184,-0.14617 c -2.028,2.1102 -8.2216,8.6876 -14.616,9.1352 -6.1388,0.42934 -10.706,-5.6912 -10.706,-5.6912 0,0 6.3946,3.5718 15.402,-2.6218 a 21.139,21.139 0 0 0 8.6328,-11.702 0.065398,0.065398 0 0 0 -0.11875,-0.0547 c -0.7491,0.9135 -3.7089,4.3027 -6.0749,4.4032 a 10.78,10.78 0 0 1 -5.0518,-0.98659 c 0,0 7.436,-3.8277 10.195,-14.169 3.8094,-14.278 -0.73994,-28.118 -2.4482,-36.367 l -0.0823,-0.42022 a 31.361,31.361 0 0 0 -3.0237,-8.2856 c -1.9549,-3.6541 -4.2113,-6.1388 -5.81,-8.9707 a 51.568,51.568 0 0 1 -5.0792,-14.077 c -1.4342,-6.1571 -2.1468,-12.789 -2.4117,-14.616 a 15.365,15.365 0 0 0 8.2217,-3.0694 l 0.23751,-0.17357 0.25579,-0.19184 a 17.622,17.622 0 0 0 1.7265,-1.4708 c 0.10963,-0.0914 0.21012,-0.19186 0.3106,-0.29232 l 0.50243,-0.50244 a 27.57,27.57 0 0 0 5.4811,-8.0116 c 0.56639,-1.2241 -2.7405,1.416 -4.0834,2.2107 a 0.20097,0.20097 0 0 1 -0.30147,-0.1553 0.082217,0.082217 0 0 1 0,-0.0455 32.037,32.037 0 0 0 4.0652,-6.6047 c 0.71255,-1.4251 1.352,-2.8228 1.827,-3.9921 0,-0.10047 0.0729,-0.20097 0.10048,-0.2923 a 24.236,24.236 0 0 0 1.6261,-6.76 c 0,-0.69428 -3.0237,2.229 -2.6949,1.5804 1.0323,-2.0189 1.5712,-5.5633 1.827,-7.7832 a 49.823,49.823 0 0 0 0.27406,-7.1437 v -0.91352 c 0.52984,-0.2101 2.4482,0.21924 3.0146,0.28318 4.4123,0.49332 5.0335,-1.0688 4.869,-1.553 -0.97747,-2.7406 -5.5359,-3.2247 -5.8648,-3.8002 -1.6991,-2.9232 -5.6821,-8.7058 -6.6961,-9.3361 -0.18271,-0.11875 1.151,-1.3977 4.6498,-1.6261 5.7826,-0.37454 15.786,-0.13703 19.549,-0.75822 3.5536,-0.58465 -6.3946,4.3209 -6.3946,4.3209 0,0 1.891,0.66686 4.8234,8.4774 4.5676,12.122 14.16,47.686 14.16,47.686 -0.33802,2.7406 -1.2789,9.7107 -2.4117,14.616 a 51.568,51.568 0 0 1 -5.0792,14.077 c -0.42936,0.76736 -0.91353,1.5164 -1.4251,2.2655 -2.5761,3.7454 -5.8739,7.6005 -7.5,15.411 -0.11877,0.59379 -0.26493,1.2241 -0.41108,1.8819 -1.9093,8.3769 -5.5725,21.239 -2.0372,34.485 2.7406,10.341 10.204,14.169 10.204,14.169 a 10.843,10.843 0 0 1 -5.0244,0.97746 c -2.366,-0.10048 -5.3258,-3.4988 -6.0749,-4.4032 a 0.065398,0.065398 0 0 0 -0.11877,0.0547 21.139,21.139 0 0 0 8.6328,11.702 c 8.9982,6.1936 15.411,2.6218 15.411,2.6218 z" fill="#da0e17" id="path107"/>
    <path d="m 386.13,285.57 -0.16443,-0.11876 a 9.1352,9.1352 0 0 1 -3.0146,-3.9464 26.328,26.328 0 0 1 -0.73996,-6.9518 14.689,14.689 0 0 1 -3.4805,2.7405 20.244,20.244 0 0 1 -4.8234,1.6626 0.42935,0.42935 0 0 1 -0.4385,-0.66687 l 0.11877,-0.15529 a 71.866,71.866 0 0 0 5.0609,-7.6918 65.645,65.645 0 0 0 2.6127,-6.7509 c -2.503,2.5944 -8.2216,8.2764 -14.324,8.6967 -6.1023,0.42023 -10.734,-5.545 -10.962,-5.8008 l -0.76737,-1.0323 1.1236,0.62119 c 0.0638,0 6.3946,3.4074 15.119,-2.6035 a 21.203,21.203 0 0 0 8.2216,-10.615 c -1.2607,1.3886 -3.6541,3.654 -5.6456,3.7637 a 11.099,11.099 0 0 1 -5.1614,-1.0049 l -0.46591,-0.24664 0.47503,-0.24666 c 0.073,0 7.363,-3.9007 10.049,-13.986 3.2156,-12.049 0.48415,-23.633 -1.5073,-32.101 -0.34714,-1.4799 -0.67601,-2.8867 -0.91353,-4.1474 l -0.0822,-0.42023 a 31.124,31.124 0 0 0 -2.9963,-8.2216 49.065,49.065 0 0 0 -3.3526,-5.2345 44.324,44.324 0 0 1 -2.4574,-3.7272 51.157,51.157 0 0 1 -5.0609,-13.959 l -0.0455,-0.19184 c -1.1693,-5.0244 -1.827,-10.295 -2.2198,-13.118 -0.0823,-0.63946 -0.14616,-1.1419 -0.19185,-1.4799 l -0.0546,-0.31973 h 0.32886 a 15.247,15.247 0 0 0 8.0207,-3.0237 l 0.1827,-0.1279 h 0.0547 l 0.24665,-0.18269 a 19.102,19.102 0 0 0 1.7083,-1.4525 l 0.21011,-0.19183 0.1005,-0.1005 c 0.16443,-0.1553 0.32886,-0.32886 0.49331,-0.49331 a 27.223,27.223 0 0 0 5.3166,-7.7466 c -0.49329,0.25579 -1.3977,0.9135 -2.0463,1.3337 -0.64858,0.42025 -1.151,0.80391 -1.5621,1.0506 a 0.4933,0.4933 0 0 1 -0.46589,0 0.47503,0.47503 0 0 1 -0.24667,-0.40194 v -0.26495 l 0.1005,-0.11876 a 31.352,31.352 0 0 0 4.0195,-6.5316 c 0.67602,-1.3429 1.3063,-2.7406 1.827,-3.9281 v -0.0547 c 0,-0.0638 0.0455,-0.13703 0.0731,-0.20096 v -0.0731 a 26.775,26.775 0 0 0 1.5987,-6.3946 16.251,16.251 0 0 0 -1.3338,0.99572 c -0.85869,0.68513 -1.0414,0.83131 -1.2698,0.63947 a 0.32887,0.32887 0 0 1 -0.0546,-0.42935 c 1.0323,-2.028 1.5621,-5.6821 1.827,-7.6827 a 50.189,50.189 0 0 0 0.27405,-7.1072 8.715,8.715 0 0 1 0,-0.91353 v -0.1827 l 0.16443,-0.0638 a 6.6139,6.6139 0 0 1 2.5122,0.17356 l 0.63032,0.10049 c 3.179,0.35627 4.1565,-0.39282 4.4214,-0.73995 a 0.5207,0.5207 0 0 0 0.1553,-0.44762 c -0.63035,-1.754 -2.9141,-2.5396 -4.4214,-3.0512 -0.91353,-0.30145 -1.2789,-0.44762 -1.4251,-0.7034 -1.827,-3.1699 -5.7003,-8.6784 -6.5956,-9.2357 l -0.17357,-0.10962 v -0.24665 c 0.12789,-0.50243 1.754,-1.5804 4.9147,-1.827 2.3934,-0.1553 5.5542,-0.20097 8.6053,-0.24665 a 100.54,100.54 0 0 0 10.916,-0.50243 c 0.45677,-0.08222 0.91353,-0.12789 1.0689,0.23751 0.0729,0.22838 0.27403,0.84044 -6.8788,4.394 0.74908,0.63946 2.3569,2.567 4.5219,8.3496 4.5036,11.985 14.077,47.348 14.169,47.704 v 0.0728 c -0.18269,1.5073 -1.1784,9.2722 -2.4208,14.616 v 0.14614 a 51.924,51.924 0 0 1 -5.07,14.004 q -0.26491,0.4659 -0.57551,0.95919 c -0.25579,0.41108 -0.53897,0.84957 -0.86784,1.3246 l -1.0049,1.4342 c -2.366,3.3343 -5.0426,7.1163 -6.4494,13.876 -0.12788,0.60291 -0.26492,1.2241 -0.41107,1.8818 -0.14617,0.65774 -0.34714,1.4982 -0.53898,2.2838 -1.9823,8.4592 -4.7137,20.043 -1.4982,32.083 2.6857,10.049 9.9847,13.949 10.049,13.986 l 0.47502,0.24663 -0.47502,0.24665 a 11.136,11.136 0 0 1 -5.1614,1.0049 c -2.0189,-0.0822 -4.3849,-2.3751 -5.6364,-3.7637 a 21.093,21.093 0 0 0 8.2216,10.615 c 8.7332,6.0109 15.046,2.64 15.11,2.6035 l 1.1236,-0.62119 -0.76736,1.0323 c -0.1827,0.2558 -4.7046,6.2302 -10.962,5.8009 -6.0749,-0.42024 -11.821,-6.1115 -14.324,-8.7058 a 67.262,67.262 0 0 0 2.6127,6.76 70.249,70.249 0 0 0 5.07,7.6918 l 0.10961,0.14616 a 0.43849,0.43849 0 0 1 0,0.50244 0.42935,0.42935 0 0 1 -0.45676,0.17357 20.481,20.481 0 0 1 -4.8142,-1.6626 14.671,14.671 0 0 1 -3.4714,-2.7406 26.73,26.73 0 0 1 -0.73995,6.9519 9.1352,9.1352 0 0 1 -3.0146,3.9464 l -0.16443,0.11876 z m -3.8002,-11.967 h 0.21927 a 0.31973,0.31973 0 0 1 0.2101,0.30147 v 0.21009 a 27.268,27.268 0 0 0 0.72168,7.1711 8.45,8.45 0 0 0 2.6492,3.5444 8.514,8.514 0 0 0 2.6492,-3.5444 27.406,27.406 0 0 0 0.71255,-7.1711 v -0.4202 l 0.21011,-0.10049 a 0.30146,0.30146 0 0 1 0.34712,0.10962 15.53,15.53 0 0 0 3.718,3.0603 20.317,20.317 0 0 0 4.3575,1.5438 69.336,69.336 0 0 1 -5.0152,-7.637 72.67,72.67 0 0 1 -2.8684,-7.4908 0.37454,0.37454 0 0 1 0.1279,-0.47505 0.39281,0.39281 0 0 1 0.52069,0 l 0.12789,0.12789 c 2.0097,2.1011 8.1394,8.4957 14.324,8.9159 4.5676,0.31973 8.2217,-3.0968 9.729,-4.732 -2.229,0.73082 -7.7192,1.69 -14.616,-3.0694 a 21.258,21.258 0 0 1 -8.7424,-11.876 0.34714,0.34714 0 0 1 0.60291,-0.29234 c 1.6809,2.028 4.1017,4.2205 5.8739,4.2935 a 10.962,10.962 0 0 0 4.394,-0.73081 23.751,23.751 0 0 1 -9.8568,-14.059 c -3.2521,-12.168 -0.50242,-23.825 1.4982,-32.348 0.19184,-0.78563 0.36542,-1.553 0.52985,-2.2746 0.16443,-0.72167 0.29233,-1.2789 0.41109,-1.8727 1.4342,-6.8788 4.1474,-10.706 6.5408,-14.086 l 1.0049,-1.4342 c 0.58465,-0.84957 1.0323,-1.5621 1.416,-2.2381 a 51.34,51.34 0 0 0 5.0061,-13.822 v -0.13704 c 1.215,-5.2527 2.2016,-12.881 2.4026,-14.507 -0.42936,-1.5621 -9.729,-35.846 -14.141,-47.603 -2.7771,-7.436 -4.6041,-8.2765 -4.6041,-8.2856 l -0.56636,-0.23751 0.54809,-0.27405 a 51.102,51.102 0 0 0 6.8331,-3.8368 h -0.25577 a 97.509,97.509 0 0 1 -10.962,0.50243 c -3.0512,0.05482 -6.1936,0.10049 -8.5779,0.25578 -2.6674,0.17357 -3.9464,0.91352 -4.3118,1.2789 1.3429,1.1693 5.0609,6.6596 6.5773,9.2722 a 5.2893,5.2893 0 0 0 1.1236,0.44762 c 1.5073,0.5207 4.0469,1.3794 4.7594,3.3983 a 1.0414,1.0414 0 0 1 -0.2375,0.97747 c -0.40195,0.51156 -1.5804,1.3155 -4.9239,0.91351 l -0.65773,-0.10961 a 10.706,10.706 0 0 0 -2.0554,-0.2284 v 0.67601 a 50.408,50.408 0 0 1 -0.28318,7.1985 30.813,30.813 0 0 1 -1.4799,7.0706 l 0.11875,-0.10048 c 1.2698,-1.014 1.7174,-1.3063 2.0372,-1.1602 a 0.38368,0.38368 0 0 1 0.21011,0.34713 24.793,24.793 0 0 1 -1.6443,6.8605 v 0.073 c 0,0.0547 -0.0455,0.11875 -0.0731,0.17357 v 0.0638 c -0.49331,1.215 -1.1419,2.64 -1.827,4.0103 a 37.454,37.454 0 0 1 -3.7272,6.2119 l 1.0597,-0.72168 c 2.028,-1.4159 2.5761,-1.7357 2.905,-1.4616 0.15529,0.13703 0.17356,0.34712 0.0455,0.63032 a 27.908,27.908 0 0 1 -5.4811,8.0846 c -0.17357,0.17357 -0.338,0.34715 -0.51157,0.51159 l -0.10049,0.10046 -0.21924,0.20098 a 16.361,16.361 0 0 1 -1.7448,1.4799 l -0.25577,0.19186 -0.0547,0.0455 -0.20097,0.13702 a 16.142,16.142 0 0 1 -8.0116,3.1151 c 0,0.3106 0.0913,0.70341 0.15531,1.1784 0.36541,2.8136 1.0414,8.0664 2.2016,13.072 v 0.18269 a 51.038,51.038 0 0 0 4.9239,13.885 c 0.70341,1.2515 1.5438,2.43 2.4208,3.6541 a 46.955,46.955 0 0 1 3.3891,5.2893 31.535,31.535 0 0 1 3.0512,8.3678 l 0.0914,0.42022 c 0.26492,1.2515 0.59377,2.6492 0.91351,4.1291 2.0006,8.5231 4.7503,20.189 1.4982,32.366 a 23.751,23.751 0 0 1 -9.8203,14.105 11.154,11.154 0 0 0 4.4032,0.73083 c 1.7631,-0.0731 4.193,-2.2655 5.8739,-4.3027 a 0.34714,0.34714 0 0 1 0.42022,-0.0822 0.31973,0.31973 0 0 1 0.17357,0.38366 21.212,21.212 0 0 1 -8.7424,11.876 c -6.9062,4.7594 -12.396,3.8002 -14.616,3.0694 1.4982,1.6352 5.1888,5.0426 9.729,4.732 6.1845,-0.42022 12.095,-6.5864 14.324,-8.9068 l 0.12789,-0.13702 a 0.40195,0.40195 0 0 1 0.52985,0 0.38368,0.38368 0 0 1 0.10049,0.52071 73.017,73.017 0 0 1 -2.841,7.4452 70.496,70.496 0 0 1 -5.0243,7.637 19.979,19.979 0 0 0 4.3575,-1.5438 15.301,15.301 0 0 0 3.7272,-3.0786 l 0.12788,-0.13702 z m -8.5322,4.8325 m 24.665,0 m -15.822,-4.3392 m 7.4178,-0.14617 m 0.44762,-10.761 m -8.7424,0 m -0.27407,-0.12789 m 9.2722,-0.0546 v 0.0455 z" fill="#010101" id="path108"/>
    <path d="m 412.27,159.2 -0.0639,0.29233 c -0.19184,1.5073 -1.3612,9.1352 -2.6035,14.434 v 0.14618 a 51.723,51.723 0 0 1 -5.0609,14.004 q -0.2649,0.46589 -0.57549,0.91352 c -0.0455,0.073 -0.50246,0.51156 -0.50246,0.51156 l -0.56638,-0.42935 a 13.511,13.511 0 0 1 0.35629,-2.2929 53.898,53.898 0 0 0 5.408,-13.164 l 0.19184,-0.85872 c 1.215,-5.2527 2.3568,-11.693 2.5578,-13.319 a 3.8642,3.8642 0 0 0 -0.0546,-0.69427 l 0.84958,0.073 c 0.0731,0.25578 0.28318,0.0547 0.29232,0.0822 l -0.19183,0.25579 z" fill="#da0e17" id="path109"/>
    <path d="m 382.11,109.91 c 0,0 -4.8965,-0.0913 -7.0524,-1.0049 -1.9184,-0.81303 -2.7954,-2.8136 -3.9281,-2.5396 -1.3703,0.31973 -2.7406,4.5676 -2.7406,4.5676 0,0 -3.9281,-6.6413 -2.2016,-9.2814 1.0779,-1.6535 5.2436,-1.3246 8.8063,-1.1419 1.1145,0.0548 1.078,0.91351 2.0097,2.2016 2.0463,2.8045 5.134,7.2442 5.134,7.2442 z" fill="#fcde03" id="path110"/>
    <path d="m 368.44,111.57 -0.31973,-0.52985 c -0.15532,-0.27405 -3.9921,-6.8331 -2.1833,-9.5828 1.0962,-1.6809 4.8234,-1.489 8.4226,-1.2972 h 0.6212 c 0.91352,0 1.215,0.58465 1.5804,1.2698 a 10.049,10.049 0 0 0 0.6486,1.0506 c 2.0189,2.7406 5.1066,7.2077 5.134,7.2533 l 0.31059,0.44762 h -0.53896 c -0.20097,0 -4.9787,-0.10962 -7.162,-1.0323 a 7.4634,7.4634 0 0 1 -2.2016,-1.6078 c -0.61205,-0.57551 -1.0871,-1.0231 -1.553,-0.91352 -0.91352,0.21012 -2.0463,2.7406 -2.567,4.3484 l -0.19183,0.58464 z m 2.5213,-10.962 c -2.1194,0 -3.9464,0.22838 -4.5676,1.1602 -1.3429,2.0554 1.0414,6.8605 1.9092,8.4683 0.45676,-1.2241 1.5621,-3.8459 2.7406,-4.1291 0.75823,-0.17357 1.3612,0.39281 2.0645,1.0597 a 6.8148,6.8148 0 0 0 2.0372,1.4982 c 1.6626,0.7034 5.07,0.91352 6.3946,0.96833 -0.84045,-1.2058 -3.1699,-4.5676 -4.8051,-6.7874 a 8.4318,8.4318 0 0 1 -0.68514,-1.1145 c -0.35627,-0.6486 -0.52069,-0.91352 -1.1236,-0.97747 h -0.63035 c -1.1053,-0.0639 -2.2747,-0.11875 -3.3617,-0.11875 z" fill="#010101" id="path111"/>
    <path d="m 392.86,97.873 h -16.653 c 0.0639,0 -0.19185,-2.3569 -2.0554,-5.8008 a 32.43,32.43 0 0 0 -4.1108,-5.545 7.1163,7.1163 0 0 1 4.4762,1.5621 40.706,40.706 0 0 1 5.1796,4.8965 l 4.0377,-10.414 5.271,10.606 c 0,0 3.0968,-4.8051 4.5676,-5.9013 a 12.259,12.259 0 0 1 4.997,-2.3569 44.059,44.059 0 0 0 -3.7911,5.3258 20.344,20.344 0 0 0 -1.9184,7.6279 z" fill="#fcde03" id="path112"/>
  </g>
  <g fill="#010101" stroke-width="0.91352" id="g115" transform="translate(-104.13,-21.569667)">
    <path d="m 376.24,98.229 -0.9135,-0.63033 h 0.58463 a 17.768,17.768 0 0 0 -2.0097,-5.3989 32.576,32.576 0 0 0 -4.0743,-5.4811 l -0.39282,-0.42022 h 0.57551 a 7.3721,7.3721 0 0 1 4.6407,1.6261 41.656,41.656 0 0 1 4.9147,4.5676 l 4.0925,-10.633 5.3441,10.734 c 0.79477,-1.1967 3.1151,-4.6224 4.4032,-5.5633 a 12.332,12.332 0 0 1 5.1248,-2.4026 l 0.69428,-0.09136 -0.44764,0.53898 a 45.557,45.557 0 0 0 -3.7546,5.271 20.417,20.417 0 0 0 -1.891,7.5091 v 0.28319 h -16.781 l -0.0822,0.07307 z m 0.22838,-0.63033 h 16.124 a 21.13,21.13 0 0 1 1.9366,-7.4634 35.335,35.335 0 0 1 3.316,-4.7503 14.013,14.013 0 0 0 -4.1382,2.1102 c -1.4525,1.0597 -4.5036,5.7826 -4.5676,5.8282 l -0.26493,0.41108 -5.2162,-10.478 -3.9646,10.259 -0.31061,-0.34714 a 40.451,40.451 0 0 0 -5.134,-4.8599 7.3081,7.3081 0 0 0 -3.6541,-1.4799 30.895,30.895 0 0 1 3.8002,5.0792 17.567,17.567 0 0 1 2.0737,5.6638 z" id="path113"/>
    <path d="m 393.3,94.511 c -0.0547,0 -5.5451,-0.51157 -9.4092,-0.61206 a 79.403,79.403 0 0 0 -8.5779,0.52071 L 375.249,93.87154 A 79.622,79.622 0 0 1 383.9,93.3417 c 3.8824,0.10049 9.4001,0.61206 9.4549,0.61206 z" id="path114"/>
    <path d="m 381.27,109.33 a 3.9099,3.9099 0 0 1 -2.2929,-0.91352 c -2.43,-1.827 -6.1571,-7.6735 -6.3124,-7.9202 l 0.46589,-0.30146 c 0,0.0639 3.8368,6.0383 6.1754,7.774 a 3.0329,3.0329 0 0 0 2.1376,0.7765 l 0.10962,0.53898 a 0.91352,0.91352 0 0 1 -0.2832,0 z" id="path115"/>
  </g>
  <path d="m 265.25,94.500333 c -1.5438,0.41107 -4.4488,1.827 -6.3489,0.7034 -3.6541,-2.1468 -1.2424,-6.3946 -1.2424,-6.3946 0,0 0.74909,3.1425 2.5213,3.6541 2.5213,0.75823 6.824,-1.3977 10.551,-1.827 a 24.044,24.044 0 0 1 7.3995,0 c 0,0 -3.5444,0.68516 -7.1254,1.827 -2.1924,0.67599 -4.4488,1.6809 -5.7552,2.028 z" fill="#da0e17" stroke-width="0.91352" id="path116"/>
  <g fill="#010101" stroke-width="0.91352" id="g122" transform="translate(-104.13,-21.569667)">
    <path d="m 364.75,117.49 a 3.718,3.718 0 0 1 -1.8727,-0.45675 c -3.8824,-2.2564 -1.3611,-6.7143 -1.3429,-6.76 l 0.35628,-0.60292 0.16442,0.67601 c 0,0 0.73081,2.9964 2.3295,3.4714 1.4616,0.43848 3.6541,-0.16445 5.9013,-0.80392 a 30.913,30.913 0 0 1 4.5676,-1.0414 24.473,24.473 0 0 1 7.4909,0 l 1.2881,0.30143 -1.2972,0.24667 c 0,0 -3.581,0.69427 -7.098,1.827 -1.1054,0.338 -2.2381,0.76734 -3.243,1.151 -1.0049,0.38368 -1.827,0.71254 -2.5213,0.91351 -0.29233,0.073 -0.63947,0.19185 -1.0231,0.31974 a 12.241,12.241 0 0 1 -3.6541,0.80389 z m -3.0237,-6.3215 c -0.4933,1.2059 -1.1784,3.8459 1.4434,5.3624 1.4159,0.83128 3.5353,0.11874 5.0883,-0.39283 0.39281,-0.12789 0.74908,-0.24665 1.0505,-0.32886 0.63033,-0.16444 1.4799,-0.49331 2.4665,-0.91352 0.98661,-0.42023 2.1559,-0.81303 3.2795,-1.1602 2.0737,-0.63947 4.1565,-1.1419 5.5359,-1.4525 a 29.945,29.945 0 0 0 -5.6912,0.18268 31.379,31.379 0 0 0 -4.4488,1.014 c -2.366,0.66687 -4.5676,1.2972 -6.221,0.81302 -1.3612,-0.41107 -2.1559,-2.1742 -2.503,-3.1699 z" id="path117"/>
    <path d="m 402.06,155.18 -0.53899,-0.16443 c 0.19186,-0.6486 0.0731,-5.6181 -0.0729,-11.364 -0.0731,-3.0877 -0.16445,-6.5865 -0.21013,-9.9208 -0.23751,-15.119 -4.5676,-24.784 -4.6406,-24.884 a 32.138,32.138 0 0 0 -3.3892,-5.408 c -0.63946,-0.91351 -0.69426,-0.91351 -0.59377,-1.1328 l 0.073,-0.1553 h 0.17358 c 0.58465,0 1.9184,-0.50243 4.9695,-2.7405 a 5.4811,5.4811 0 0 0 0.99574,-0.91352 34.787,34.787 0 0 1 -6.0018,0.6486 c -1.7265,0.05482 -3.7911,0 -5.8008,0 -4.056,0 -8.2216,-0.08221 -10.049,0.45676 a 12.287,12.287 0 0 0 -2.0463,1.0871 l -0.30146,-0.4659 a 11.876,11.876 0 0 1 2.1924,-1.151 c 1.891,-0.56638 6.1297,-0.5207 10.231,-0.48416 h 5.7734 a 30.913,30.913 0 0 0 6.3946,-0.75822 l 0.21924,-0.05482 0.14615,0.22838 c 0.19185,0.41108 -0.6029,1.2424 -1.4251,1.827 -2.229,1.6443 -3.8276,2.567 -4.8416,2.8045 l 0.33799,0.4659 a 32.092,32.092 0 0 1 3.444,5.4811 c 0,0.0914 4.458,9.866 4.6863,25.103 0.0546,3.3343 0.13704,6.8331 0.21925,9.9117 0.17358,6.9062 0.2558,10.843 0.0546,11.547 z" id="path118"/>
    <path d="m 388.87,102.7 a 66.687,66.687 0 0 1 -8.651,-0.35628 c -2.1102,-0.43849 -2.4026,-3.106 -2.4208,-3.2156 l 0.55724,-0.05482 c 0,0 0.26492,2.366 1.9732,2.7406 2.2564,0.47503 12.789,0.33799 13.429,0.28319 0.63947,-0.0549 2.6127,-0.23752 3.0512,-0.30147 a 9.0073,9.0073 0 0 0 3.0786,-1.2972 l 0.31059,0.46589 a 9.5189,9.5189 0 0 1 -3.3069,1.3794 c -0.47503,0.0731 -2.5304,0.26493 -3.0877,0.30147 -0.29233,0 -2.4208,0.0731 -4.933,0.0731 z" id="path119"/>
    <path d="m 396.96,130.73 a 57.661,57.661 0 0 0 -2.1285,-13.474 c -1.0962,-4.0652 -5.207,-10.259 -5.2527,-10.323 l 0.46588,-0.3106 c 0.17359,0.25579 4.2022,6.3307 5.3258,10.487 a 58.319,58.319 0 0 1 2.1468,13.621 z" id="path120"/>
    <path d="m 386.39,109.26 -0.30145,-0.4659 a 5.7552,5.7552 0 0 0 2.0189,-2.841 11.794,11.794 0 0 0 0.51158,-3.5536 h 0.55724 a 11.766,11.766 0 0 1 -0.53898,3.7454 6.1023,6.1023 0 0 1 -2.2472,3.1151 z" id="path121"/>
    <path d="m 387.82,102.41 a 6.9245,6.9245 0 0 1 -0.1279,0.91351 8.6967,8.6967 0 0 1 -0.75822,2.2747 7.6918,7.6918 0 0 1 -2.4026,2.8319 0.43849,0.43849 0 0 1 -0.22838,-0.0821 7.701,7.701 0 0 1 -2.0463,-2.9507 7.8471,7.8471 0 0 1 -0.4659,-3.1608 z" id="path122"/>
  </g>
  <path d="m 283.06,81.510333 a 7.3995,7.3995 0 0 1 -0.66687,2.0189 6.8422,6.8422 0 0 1 -2.1193,2.4848 h -0.20098 v -4.5036 z" fill="#ffffff" stroke-width="0.91352" id="path123"/>
  <g fill="#010101" stroke-width="0.91352" id="g130" transform="translate(-104.13,-21.569667)">
    <path d="m 367.96,157.86 -0.16441,-0.53899 a 19.96,19.96 0 0 0 6.9244,-4.3392 36.002,36.002 0 0 0 5.3532,-6.6139 l 0.48416,0.28319 a 36.541,36.541 0 0 1 -5.4811,6.7326 20.198,20.198 0 0 1 -7.1437,4.4762 z" id="path124"/>
    <path d="m 380.42,159.05 0.29233,-0.84955 c 0,0 1.5621,-4.5676 2.5304,-8.2217 a 34.714,34.714 0 0 0 0.57552,-6.7144 h 0.55724 a 34.111,34.111 0 0 1 -0.60293,6.8605 c -0.70341,2.6492 -1.7174,5.8008 -2.2198,7.3081 a 17.941,17.941 0 0 0 4.3849,-5.7917 90.904,90.904 0 0 0 2.6218,-9.1991 l 0.53895,0.12789 a 89.232,89.232 0 0 1 -2.6492,9.2905 18.681,18.681 0 0 1 -5.3075,6.6413 l -0.72168,0.53898 z" id="path125"/>
    <path d="m 384.61,140.32 0.44762,-14.927 h 0.54812 l -0.38369,13.182 a 23.962,23.962 0 0 0 2.302,-4.9969 34.714,34.714 0 0 0 1.3977,-8.3039 h 0.55725 a 35.207,35.207 0 0 1 -1.4251,8.4683 20.6,20.6 0 0 1 -2.9233,5.9196 l -0.5207,0.62121 z" id="path126"/>
    <path d="m 380.59,129.3 -0.4659,-0.29234 a 24.391,24.391 0 0 0 2.1924,-4.7868 c 0.45675,-1.4616 1.6078,-5.947 1.6169,-5.9927 l 0.53898,0.13701 c 0,0.0455 -1.1693,4.5676 -1.6261,6.0201 a 23.998,23.998 0 0 1 -2.2564,4.9147 z" id="path127"/>
    <path d="m 374.32,116.83 -0.33802,-0.43851 a 10.478,10.478 0 0 1 3.0146,-1.6078 8.2217,8.2217 0 0 1 3.3161,-0.22838 l -0.0913,0.5481 a 7.637,7.637 0 0 0 -3.0603,0.21926 10.241,10.241 0 0 0 -2.841,1.5073 z" id="path128"/>
    <path d="m 412.89,185.67 c 0,-0.0913 -1.9184,-9.4092 -0.83131,-16.37 a 5.609,5.609 0 0 1 3.4714,-4.4397 13.639,13.639 0 0 1 4.869,-0.98661 c 2.43,-0.17355 5.1888,-0.36542 10.56,-2.9141 a 39.409,39.409 0 0 0 12.223,-9.0712 l 0.42935,0.35628 a 40.195,40.195 0 0 1 -12.406,9.2174 c -5.4811,2.5944 -8.4044,2.8045 -10.761,2.9689 a 13.246,13.246 0 0 0 -4.6955,0.91352 5.07,5.07 0 0 0 -3.1425,4.0195 c -1.0597,6.8514 0.80391,16.078 0.82216,16.169 l -0.53897,0.10964 z" id="path129"/>
    <path d="m 409.32,189.36 c -0.1553,-0.66687 -3.782,-16.261 -2.9872,-21.614 0.69427,-4.6407 5.1248,-9.1352 5.3167,-9.3636 l 0.39282,0.3928 c 0,0.0455 -4.4945,4.5676 -5.1522,9.053 -0.78562,5.2527 2.9324,21.239 2.9781,21.404 z" id="path130"/>
  </g>
  <g fill="#1d1d1b" id="g133" transform="translate(-104.13,-21.569667)">
    <path d="m 314.23,391.22 a 10.78,10.78 0 0 0 0,-3.38 7.6005,7.6005 0 0 0 -1.0962,-2.9781 5.0518,5.0518 0 0 0 -2.5304,-2.0006 c -2.6583,-1.0323 -5.1522,-0.28319 -7.4726,2.2198 -2.3203,2.503 -4.8142,7.1894 -7.4634,14.041 q -1.9001,4.9056 -3.1425,9.0073 a 37.637,37.637 0 0 0 -1.5164,7.2168 10.533,10.533 0 0 0 0.63946,5.1888 5.7186,5.7186 0 0 0 5.6912,3.2978 7.5182,7.5182 0 0 0 2.8411,-0.74909 9.2631,9.2631 0 0 0 2.7406,-2.0463 10.78,10.78 0 0 0 2.1924,-3.6541 l 2.165,-5.5999 -7.3081,-2.8136 3.1516,-8.1303 17.859,6.9153 -11.318,29.561 -8.1303,-3.1425 1.9641,-5.0609 -0.1553,-0.0546 a 12.552,12.552 0 0 1 -6.5591,2.7406 16.553,16.553 0 0 1 -7.2259,-1.2607 18.142,18.142 0 0 1 -7.5639,-4.9512 13.008,13.008 0 0 1 -2.8776,-7.3721 29.945,29.945 0 0 1 1.1054,-10.049 121.34,121.34 0 0 1 4.2387,-12.789 79.403,79.403 0 0 1 5.5725,-11.775 25.862,25.862 0 0 1 6.3946,-7.5274 14.817,14.817 0 0 1 7.701,-3.0603 21.102,21.102 0 0 1 9.5006,1.6535 q 9.053,3.5079 11.3,9.5371 c 1.4982,4.0103 1.1693,8.8154 -0.98661,14.379 l -10.579,-4.0926 a 16.151,16.151 0 0 0 0.86784,-3.2795 z" stroke-width="0.91352" id="path131"/>
    <path d="m 221.68,366.79 a 19.75,19.75 0 0 0 -2.2199,3.0329 6.4494,6.4494 0 0 0 -0.91352,2.9507 6.0658,6.0658 0 0 0 0.63035,2.9598 9.6467,9.6467 0 0 0 2.4391,3.0146 7.5822,7.5822 0 0 0 4.8417,1.891 q 2.8136,0.10961 5.2436,-2.6766 a 9.7107,9.7107 0 0 0 1.827,-2.9141 6.7692,6.7692 0 0 0 0.38369,-3.1151 12.789,12.789 0 0 0 -1.0597,-3.718 46.589,46.589 0 0 0 -2.4665,-4.732 41.446,41.446 0 0 1 -3.2338,-6.6595 18.27,18.27 0 0 1 -1.2059,-5.9196 13.082,13.082 0 0 1 1.0597,-5.4811 20.527,20.527 0 0 1 3.5262,-5.3897 q 5.7369,-6.5499 12.205,-6.5682 6.4677,-0.0182 12.835,5.5633 a 28.968,28.968 0 0 1 4.9056,5.4811 15.283,15.283 0 0 1 2.4848,5.9013 13.091,13.091 0 0 1 -0.41108,6.2028 17.357,17.357 0 0 1 -3.718,6.3033 l -1.0871,1.2332 -8.5323,-7.4817 q 2.7406,-3.1516 3.1425,-5.8282 0.40194,-2.6766 -2.229,-4.9787 a 8.2217,8.2217 0 0 0 -2.8502,-1.7357 5.5268,5.5268 0 0 0 -2.5761,-0.23751 5.1431,5.1431 0 0 0 -2.2381,0.91351 10.962,10.962 0 0 0 -1.9001,1.7265 8.4774,8.4774 0 0 0 -2.1468,4.193 c -0.23752,1.4342 0.25579,3.3709 1.4616,5.8191 l 4.257,8.9799 a 27.844,27.844 0 0 1 2.1102,5.947 14.872,14.872 0 0 1 0.29231,4.8508 11.382,11.382 0 0 1 -1.352,4.2204 22.646,22.646 0 0 1 -2.8867,4.0377 q -6.1206,6.9884 -12.963,6.623 -6.8422,-0.36541 -14.068,-6.7144 -7.5457,-6.6504 -7.9202,-12.762 -0.37454,-6.1114 4.997,-12.241 l 1.5712,-1.827 8.8976,7.8014 -1.1327,1.2972 z" stroke-width="0.91352" id="path132"/>
    <polygon transform="matrix(0.91352,0,0,0.91352,104.12,21.567)" points="51.56,300.78 102.69,260.13 108.55,271.08 70.01,299.78 70.1,299.94 115.56,284.18 121.42,295.13 83.1,324.22 83.18,324.38 128.43,308.22 134.29,319.17 72.12,339.18 65.28,326.41 102.98,298.06 102.9,297.9 58.4,313.56 " id="polygon132"/>
    <path d="m 465.66,384.35 -11.958,4.6315 17.695,45.676 -11.008,4.2935 -17.695,-45.676 -11.994,4.6589 -3.5079,-9.0438 34.96,-13.538 3.5079,9.0438 z m 8.989,-13.767 10.003,-6.3307 31.388,49.613 -10.049,6.3307 -31.379,-49.613 z m 40.551,-27.99 q 5.3258,-5.134 10.88,-5.3075 5.5542,-0.17356 10.862,5.3441 4.1108,4.2661 4.9969,8.6053 a 11.044,11.044 0 0 1 -1.9823,8.5962 l 0.10962,0.11876 q 3.6541,-2.6035 6.6687,-2.4391 3.0146,0.16443 6.8057,3.38 c 0.84042,0.71254 1.7265,1.5164 2.6583,2.4026 l 3.1151,2.9963 c 2.2472,2.1742 4.0286,3.7728 5.3258,4.8051 a 4.5676,4.5676 0 0 0 3.8733,0.91351 l 0.34713,0.35627 -9.2265,8.9068 a 6.3946,6.3946 0 0 1 -2.8045,-1.2424 32.229,32.229 0 0 1 -2.5487,-2.1742 l -8.0572,-7.8745 a 9.1991,9.1991 0 0 0 -5.0061,-2.7405 c -1.6626,-0.22838 -3.38,0.5207 -5.1614,2.229 l -4.5676,4.394 17.238,17.868 -8.5231,8.2217 -40.77,-42.214 z m 14.141,21.997 c 2.0554,-1.9823 3.1699,-3.9829 3.3343,-6.0201 0.16444,-2.0372 -0.84044,-4.193 -3.0511,-6.4768 q -5.6455,-5.8648 -11.565,-0.14617 l -4.0286,3.8733 11.766,12.195 z m 46.069,-28.438 a 27.488,27.488 0 0 0 6.3124,2.631 7.5,7.5 0 0 0 4.5128,-0.0546 8.0846,8.0846 0 0 0 4.5676,-7.162 7.4726,7.4726 0 0 0 -1.8727,-4.1017 27.789,27.789 0 0 0 -5.0883,-4.5676 q -3.3617,-2.4665 -8.3587,-5.6273 -4.9969,-3.1608 -8.6236,-5.1248 a 29.05,29.05 0 0 0 -6.3124,-2.6309 7.4817,7.4817 0 0 0 -4.5676,0.0455 8.0572,8.0572 0 0 0 -4.5676,7.1528 7.5548,7.5548 0 0 0 1.9093,4.1291 28.319,28.319 0 0 0 5.0883,4.5676 q 3.3161,2.4391 8.3221,5.609 5.0061,3.1699 8.6601,5.1339 z m -25.049,-2.229 a 27.287,27.287 0 0 1 -6.7144,-7.4543 15.119,15.119 0 0 1 -2.0828,-8.4683 c 0.1279,-3.0329 1.3886,-6.3946 3.7546,-10.177 2.366,-3.782 4.9056,-6.3307 7.5822,-7.7466 a 15.146,15.146 0 0 1 8.5231,-1.7174 27.168,27.168 0 0 1 9.6102,2.8684 123.01,123.01 0 0 1 20.81,13.164 27.077,27.077 0 0 1 6.6778,7.436 14.415,14.415 0 0 1 1.9823,8.4044 q -0.30147,4.4762 -3.8642,10.104 -3.5627,5.6272 -7.4451,7.7923 a 14.434,14.434 0 0 1 -8.4501,1.827 26.83,26.83 0 0 1 -9.5736,-2.8502 122.21,122.21 0 0 1 -20.81,-13.164 z M 564,278.765 l 4.2753,-11.044 45.676,17.695 7.5639,-19.549 9.053,3.5079 -11.876,30.585 -54.747,-21.194 z" stroke-width="0.91352" id="path133"/>
  </g>
</svg>