<svg xmlns="http://www.w3.org/2000/svg" width="906.17" height="944.12" viewBox="0 0 906.17 944.12"><clipPath id="a"><path d="M0 1080h1080V0H0z"/></clipPath><g clip-path="url(#a)" transform="matrix(1.33333 0 0 -1.33333 -266.915 1191.936)"><path fill="none" stroke="#fff" stroke-miterlimit="10" stroke-width="7" d="m805.51 678.537 23.405 45.558-5.012 3.393c-.822.556-14.534 9.763-38.875 21.785 16.3 28.777 27.395 54.323-13.122 84.384-30.752 22.816-90.559 52.686-93.089 53.947L674.004 890l-4.707-2.599c-.783-.433-78.973-43.294-128.76-43.294h-1.54c-49.722 0-127.979 42.862-128.763 43.295L405.526 890l-4.81-2.395c-2.53-1.26-62.337-31.13-93.088-53.947-40.613-30.13-29.37-55.726-13.009-84.585-25.286-12.317-39.633-21.789-40.486-22.357l-5.172-3.442 24.376-45.389-66.379-37.602 49.267-31.606 4.602-52.462 58.942 29.645c-4.955-39.093-13.333-91.448-24.545-152.49-11.647-63.407 3.86-95.543 32.652-126.84 23.236-25.255 62.774-40.958 94.543-53.573 8.157-3.24 15.86-6.299 22.04-9.069 33.86-15.179 89.265-50.085 89.821-50.436l5.468-3.45 5.467 3.448c.556.352 55.98 35.251 89.86 50.438 6.18 2.77 13.883 5.83 22.04 9.07 31.768 12.614 71.307 28.317 94.541 53.572 28.794 31.297 44.3 63.433 32.654 126.84-11.237 61.173-19.627 113.621-24.578 152.741l59.441-29.896 4.601 52.462 49.267 31.606z"/><path fill="#fff" d="m539.75 201.422-5.399 3.348c-12.797 7.937-56.814 34.85-85.95 47.91-6.36 2.852-14.144 5.943-22.384 9.215-29.27 11.624-69.302 27.523-91.049 51.159-27.477 29.868-41.237 58.844-30.265 118.574 22.635 123.24 33.173 206.14 28.912 227.446-6.278 31.393-19.01 74.465-25.229 85.346l-2.252 3.93c-9.484 16.518-16.338 28.459-16.692 40.514-.49 16.645 11.821 28.07 23.928 37.054 25.411 18.854 73.114 43.632 87.13 50.777l4.728 2.41 4.696-2.472c38.711-20.383 92.947-42.163 129.072-42.163h1.541c36.126 0 90.362 21.78 129.072 42.163l4.697 2.473 4.73-2.411c14.013-7.145 61.716-31.923 87.128-50.777 12.106-8.983 24.417-20.41 23.928-37.054-.354-12.055-7.209-23.996-16.697-40.521l-2.255-3.934c-6.21-10.871-18.943-53.942-25.222-85.336-4.262-21.31 6.278-104.21 28.914-227.445 10.971-59.73-2.79-88.706-30.267-118.574-21.747-23.637-61.779-39.535-91.009-51.142-8.31-3.301-16.076-6.385-22.423-9.231-29.133-13.06-73.179-39.975-85.986-47.912z"/><path fill="#a71610" d="M405.126 856.04c-17.517-9.041-57.683-30.353-79.548-46.576-14.01-10.394-15.776-15.942-15.657-19.998.203-6.916 5.984-16.986 13.985-30.922l2.263-3.948c8.676-15.183 22.103-64.333 27.537-91.504 6.177-30.894-12.28-144.935-28.853-235.164-9.528-51.875 1.008-74.714 25.193-101.002 18.58-20.194 56.097-35.094 83.492-45.973 8.494-3.373 16.48-6.544 23.244-9.577 26.686-11.962 63.764-34.078 82.97-45.865 19.22 11.787 56.32 33.905 83 45.865 6.75 3.028 14.72 6.192 23.155 9.543 27.483 10.913 65.002 25.812 83.58 46.007 24.186 26.289 34.723 49.127 25.194 101.002-16.573 90.225-35.032 204.264-28.852 235.163 5.433 27.17 18.859 76.322 27.53 91.494l2.265 3.952c8.006 13.944 13.786 24.013 13.99 30.929.119 4.056-1.648 9.604-15.658 19.998-21.865 16.223-62.031 37.535-79.547 46.577-24.41-12.494-87.146-42.06-133.871-42.06h-1.541c-46.725 0-109.46 29.566-133.871 42.06M539.75 201.42l-5.4 3.349c-12.797 7.937-56.814 34.85-85.949 47.91-6.36 2.852-14.144 5.943-22.384 9.215-29.27 11.624-69.303 27.523-91.049 51.159-27.477 29.868-41.237 58.844-30.265 118.574 22.634 123.24 33.173 206.14 28.912 227.446-6.279 31.393-19.01 74.465-25.229 85.346l-2.252 3.93c-9.484 16.518-16.339 28.459-16.693 40.514-.489 16.645 11.822 28.07 23.93 37.054 25.41 18.854 73.112 43.632 87.128 50.777l4.728 2.41 4.697-2.473c38.711-20.382 92.947-42.162 129.072-42.162h1.541c36.126 0 90.362 21.78 129.072 42.162l4.696 2.474 4.73-2.411c14.015-7.145 61.717-31.923 87.13-50.777 12.106-8.983 24.417-20.41 23.927-37.054-.354-12.055-7.208-23.996-16.696-40.521l-2.255-3.934c-6.212-10.871-18.944-53.942-25.222-85.336-4.262-21.31 6.277-104.21 28.913-227.445 10.97-59.73-2.79-88.706-30.266-118.574-21.748-23.637-61.78-39.535-91.01-51.142-8.31-3.301-16.075-6.386-22.422-9.231-29.133-13.06-73.18-39.975-85.986-47.912z"/><path fill="#054b87" d="M405.148 866.885c-14.796-7.55-60.824-31.513-85.312-49.681-28.555-21.186-22.441-31.84-4.288-63.46l2.26-3.94c7.437-13.015 20.55-59.113 26.448-88.602 6.189-30.946-15.438-158.347-28.881-231.533-10.205-55.561 1.82-81.268 27.579-109.267 20.069-21.814 58.77-37.183 87.028-48.405 8.368-3.324 16.273-6.464 22.858-9.415 29.157-13.07 71.817-39.038 86.91-48.394 15.104 9.356 57.788 35.324 86.944 48.394 6.585 2.951 14.49 6.091 22.858 9.414 28.258 11.222 66.959 26.591 87.028 48.405 25.76 28 37.784 53.706 27.579 109.267-13.443 73.186-35.07 200.587-28.881 231.533 5.899 29.49 19.01 75.587 26.448 88.602l2.26 3.941c18.152 31.62 24.267 42.273-4.288 63.46-24.488 18.167-70.515 42.131-85.312 49.68-18.591-9.77-85.838-43.266-133.85-43.266h-1.54c-48.01 0-115.258 33.496-133.848 43.266M539.748 190l-5.468 3.452c-.555.351-55.96 35.256-89.821 50.435-6.18 2.771-13.883 5.83-22.04 9.07-31.77 12.615-71.307 28.317-94.543 53.573-28.792 31.297-44.298 63.432-32.652 126.84 21.764 118.492 32.853 204.253 28.94 223.814-6.37 31.854-19.003 73.456-24.145 82.454l-2.24 3.907c-17.888 31.16-33.337 58.072 9.849 90.113 30.75 22.815 90.558 52.686 93.089 53.946l4.81 2.396 4.707-2.598c.785-.432 79.042-43.295 128.762-43.295h1.54c49.789 0 127.979 42.862 128.762 43.295l4.707 2.598 4.812-2.396c2.53-1.26 62.337-31.13 93.089-53.946 43.185-32.04 27.737-58.953 9.848-90.113l-2.24-3.907c-5.142-8.998-17.774-50.6-24.145-82.454-3.913-19.56 7.177-105.322 28.94-223.814 11.647-63.408-3.86-95.543-32.652-126.84-23.235-25.256-62.773-40.958-94.543-53.574-8.156-3.24-15.86-6.298-22.04-9.069-33.88-15.187-89.303-50.086-89.858-50.437z"/><path fill="#fefdfd" d="m481.915 330.847.042-.182c-.068.064-.148.12-.199.196-.029.043-.01.118-.012.18zm13.978-19.706-.517-.41c-.498-.107-.939.491-1.565.137.636-.98 1.323-1.669 2.515-1.15 1.106.481 1.384 1.447 1.203 2.536-.086.516-.376.998-.574 1.495-.47 1.126.392.843.984 1.087.774.318 2.103.122 2.035 1.58 3.361-1.432 4.398-3.127 4.154-6.787-.2-3-1.688-5.537-3.045-8.087-2.108-3.96-3.563-8.039-3.104-12.612-5.933-.65-8.607 1.528-9.1 7.306-.287 3.34-.974 6.526-2.917 9.43-.756 1.13-1.416 1.547-2.747 1.592.443-1.83 1.584-3.322 1.345-5.33-2.32 1.531-2.74 5.384-6.54 4.99 1.196-1.81 2.575-3.26 3.16-5.186-1.27.44-2.529 1.317-4.004.178a46 46 0 0 0 5.248-4.677l.011-.019.32-.554c.81-4.454-2.186-6.433-5.896-8.213 1.757-.365 2.868-.355 4.187.136 1.385.516 3.264 1.994 4.573-.373 1.901-4.89 4.27-9.484 8.527-12.788 1.173-.91 2.462-1.736 4.186-1.539-2.358 3.985-2.366 4.14-.37 5.727 2.251-.496 2.922-2.934 4.614-3.913.946.486-.487 1.082.262 1.556 2.272-1.243 3.95-3.403 6.504-4.21-.476-1.716-1.313-3.615-2.915-4.01-2.873-.707-5.835-1.195-8.765-1.673-1.426-.232-1.574-.81-1.905-1.943 2.355.45 4.514 1.231 6.817.6-2.123-.718-3.946-2.21-6.057-2.634-1.794-.36-1.967-1.1-1.808-2.664 2.59 1.276 5.01 2.62 8.1 2.176-.7-1.073-1.172-2.017-2.28-2.458-1.49-.595-1.429-1.675-.826-3.136 6.581 5.567 14.028 8.564 22.74 8.917-2.068 2.297-4.829.42-6.9 1.874 2.21 2.884 5.337 2.146 8.285 1.998-.197 1.294-1.455 1.6-1.773 2.584 1.001.408 2.032.755 2.998 1.233 5.506 2.728 9.378 7.04 12.181 12.45 2.49 4.801 7.251 6.745 11.294 4.68 2.998-1.53 4.936-4.108 6.617-6.839-.849-1.276-1.956-1.966-2.966-2.767-1.85-1.464-1.97-2.67-.444-4.46 1.074-1.259 2.435-2.163 3.847-2.99 1.376-.807 2.765-1.588 4.076-2.339-.186-.92-.77-.98-1.273-1.15-3.526.053-6.874 1.075-9.956 2.578-2.055 1.002-3.242-.09-5.206-.706 1.682-.653 3.21-.153 4.314-1.162-2.357-1.12-5.688.855-7.38-2.61 2.782.184 5.47.443 8.563-.232-2.63-1.203-5.728-.46-7.149-3.43 5.971.702 11.781 1.751 17.684 1.882.534-.25 1.087-.163 1.64-.088l1.58-.057 3.944-.234c.51 1.194-.083 1.994-.454 2.838-.458 1.043-1.348 1.87-1.503 3.067-.096.746-.252 1.505.435 2.055.772.618 1.244-.189 1.765-.485 2.578-1.464 5.074-3.092 8.032-3.737-.319-2.3-2.098-3.175-3.929-3.95-4.17-1.765-8.605-1.497-12.886-1.026-2.362.26-3.32-.869-5.009-2.145 2.675-.43 5.037.38 7.501-.876-3.008-1.185-7.115.6-8.443-3.878l9.604 1.844c-1.028-.976-2.157-1.943-3.324-1.99-2.494-.104-2.316-2.035-3.263-3.485.47-.02.608-.067.708-.024.5.212.991.442 1.48.676 7.73 3.7 15.454 7.338 24.254 7.814 3.117.168 3.558 1.275 2.297 4.188-.247.571-.934 1.171.143 1.623 5.106-.173 9.581 1.487 13.551 4.642 6.706 5.33 8.938 13.162 5.893 20.732-2.35 6.005-6.639 9.062-13.198 8.745-2.176-.105-4.363-.059-6.518.312-3.944.68-5.2 3.852-2.797 7.062 2.207 2.947 5.14 5.015 8.321 6.781.982.545 2.12.894 2.837 1.94-.53.418-.849.91-.645 1.642-1.07-.295-.987-1.646-2.003-1.73-.456.612.43 1.14.072 1.747-1.448-.343-1.505-2.029-2.515-2.732-.589.86.55 1.571.001 2.408-2.179-.834-2.15-3.36-3.657-4.73-.857 1.323.448 2.383.152 3.541l.276.007-.029.178-.22-.224c-3.026-1.01-3.09-4.114-4.478-6.618-.417 1.554.168 2.77.16 4.14-1.093-.574-2.064-1.254-2.406-2.262-1.307-3.847-1.52-7.86-.102-11.638.882-2.348 3.427-3.135 5.821-3.657 1.921-.418 3.914-.444 5.793-1.114 2.214-.79 3.422-2.377 3.772-4.64.355-2.299-.668-3.909-2.584-5.106-2.032-1.269-4.224-1.953-6.59-1.684-6.424.728-11.192 4.452-15.786 8.713 1.102.554 1.927-.449 3.054-.074-1.85 2.082-3.916 3.577-6.314 5.027l1.81.243c-2.655 2.652-5.908 3.954-9.549 5.667h3.17c-3.77 2.194-7.686 2.124-11.279 3.268.453.585 1.125.146 1.635.592-4.95 2.028-9.6.654-14.225-1.078l-.835 1.407c-2.003-3.204-4.785-5.438-7.39-7.932.185 2.67.362 5.235-.32 7.786-.249-2.708-.984-5.215-2.744-7.333-1.356-1.632-3.043-2.905-4.658-4.255l-.403.381c.045.341.586.666-.05 1.088-2.988-2.105-3.658-5.509-4.644-8.668-3.056.37-4.322 2.23-3.3 5.246 1.755 5.185 4.26 10.088 5.823 15.331.896-.253.925-1.318 1.833-1.427.406 1.874-.69 3.43-.98 5.128.697.327.887-.876 1.612-.386.27 2.221-1.839 3.263-2.642 4.99l1.795.296c-.842 1.426-2.346 1.414-3.405 2.058.27.897 1.471.773 1.646 1.68-1.28.517-2.579.41-4.033.528l1.146 1.942c-1.293.37-2.27-.349-3.342-.439a13 13 0 0 1-.232.228c.078 1.076 1.32 1.4 1.607 2.305-.713.676-1.497-.06-2.197.281.547 1.512 1.743 2.524 2.69 3.715l.012.033.02.002c.58.362 1.353.488 1.745 1.36-1.317.005-2.426-.075-3.573-.293-2.564-.488-4.885-2.556-7.734-1.264l3.504 3.95c-3.534-1.042-7.247-2.434-10.247-5.272-.972-.625-1.539-1.588-2.119-2.54-.53.06-.236.736-.658.877-1.67-1.44-2.439-2.74-1.879-3.886.677-1.384-.08-1.725-1.06-2.224-.469 3.452-.69 3.94-1.96 4.411.75-1.705.75-1.705.44-3.267-2.546 4.521-3.572 5.452-5.757 5.225 3.454-1.678 5.496-5.27 5.08-9.156l-.84 1.15c-1.65-1.555-1.433-3.098-.125-4.738.356.445.648 1.046 1.36.655 1.227-.674 2.357-.236 3.493.288 1.074.497 1.665.095 1.808-1.048a.27.27 0 0 1-.275-.179c-1.447.572-.927-1.144-1.565-1.392-.833-.24-1.378.407-2.152.584.16-1.597.117-3.26 1.36-4.13.644-.452 1.834.222 2.397 1.146l.527.207.89-.01c.87-.57 1.244-1.333.927-2.368z"/><path fill="#b32227" d="M489.942 320.015c1.648.485 2.787.694 3.792 1.676-1.782.942-2.708.158-3.792-1.676m10.912 6.418c-1.405-.203-2.659-.436-3.775-1.243 1.333-1.649 2.594-1.244 3.775 1.243m10.076-3.131c-1.769-.192-2.569-1.316-2.997-2.625-.247-.757.392-1.038 1.132-.738 1.45.589 1.792 1.783 1.865 3.363m-2.826 2.462c-2.676-1.026-3.426-2.188-2.723-4.038 1.767.681 2.568 1.97 2.723 4.038m75.724-56.822c-1.077-.451-.389-1.052-.142-1.623 1.26-2.913.82-4.02-2.298-4.188-8.8-.475-16.524-4.115-24.254-7.814a37 37 0 0 0-1.48-.676c-.1-.043-.237.003-.708.024.947 1.45.77 3.382 3.263 3.484 1.167.049 2.296 1.015 3.324 1.992l-9.603-1.845c1.327 4.478 5.435 2.693 8.443 3.879-2.465 1.255-4.827.445-7.502.875 1.688 1.276 2.648 2.405 5.01 2.145 4.281-.471 8.716-.739 12.886 1.026 1.831.776 3.61 1.649 3.928 3.95.941.951.22 1.359-.556 1.806-1.824 1.05-3.57 2.191-5.066 3.717-4.479 4.569-8.297 9.597-11.447 15.192-2.654 4.714-6.897 7.507-12.162 8.79-4.474 1.091-8.587-.054-12.49-2.059-1.95-1.001-3.893-2.234-4.708-4.464.402-.706 1.118.227 1.493-.499.11-.749-.556-1.117-.996-1.597-1.608-1.758-3.444-3.251-5.362-4.659-2.089-1.534-2.579-3.434-1.46-5.407.628-.023 1.277.565 2.095-.117-1.613-1.903-1.589-4.449-2.494-6.678-.27-.665-.587-1.328.514-1.521.318-.986 1.576-1.291 1.773-2.585-2.948.148-6.076.886-8.284-1.998 2.071-1.454 4.832.423 6.9-1.874-8.713-.353-16.16-3.35-22.74-8.917-.604 1.461-.666 2.542.825 3.136 1.108.442 1.58 1.386 2.28 2.458-3.09.443-5.51-.9-8.1-2.176-.159 1.563.014 2.304 1.808 2.665 2.111.424 3.935 1.915 6.057 2.632-2.303.632-4.462-.149-6.817-.599.331 1.133.48 1.711 1.905 1.944 2.93.477 5.892.965 8.766 1.672 1.601.395 2.44 2.294 2.914 4.01.906.789.09 1.26-.31 1.85-1.665 2.454-3.88 4.561-4.947 7.392-2.175 5.768-2.097 11.617-.453 17.503 1.14 4.078 3.12 7.937 2.925 12.361-.162 3.669-2.975 5.574-6.583 4.267.07-1.457-1.26-1.262-2.034-1.58-.593-.244-1.455.039-.985-1.087a3 3 0 0 1-.294-.251l-1.74-.018-.892.012-.527-.208c-.563-.923-1.752-1.598-2.398-1.146-1.242.869-1.2 2.533-1.358 4.13.773-.176 1.318-.825 2.151-.584.638.248.118 1.964 1.565 1.392.057-.268.22-.673.454-.521 1.126.728 2.232 1.513 2.71 3.153-1.645-.351-1.97-1.739-2.889-2.453-.143 1.143-.734 1.545-1.808 1.049-1.136-.525-2.265-.963-3.493-.289-.712.391-1.004-.209-1.36-.655-1.307 1.64-1.525 3.183.125 4.738.265-.362.52-.709.84-1.15.416 3.886-1.626 7.478-5.079 9.156 2.184.227 3.21-.704 5.756-5.225.31 1.562.31 1.562-.44 3.267 1.27-.472 1.491-.959 1.96-4.411.98.5 1.737.84 1.06 2.224-.56 1.145.21 2.446 1.88 3.887.421-.142.127-.819.657-.878.533-.944.718-.949 1.601.031.296.328.417.896 1.033.655.552-.521-.397-1.192.207-1.686 1.377.314 1.377.314 1.98.82 2.806 2.357 2.806 2.357 4.546-.798.095-.173.176-.355.063-.126.936.717 1.761 1.405 2.641 2.014 1.95 1.35 3.621 3.282 6.32 3.114-.946-1.19-2.14-2.202-2.689-3.715.7-.341 1.484.395 2.198-.281-.288-.905-1.53-1.229-1.607-2.305l-.196-.337.428.11c1.072.089 2.048.807 3.341.439l-1.146-1.943c1.454-.119 2.753-.011 4.033-.529-.175-.906-1.377-.782-1.646-1.679 1.06-.644 2.563-.632 3.405-2.058l-1.795-.297c.803-1.726 2.912-2.767 2.642-4.989-.725-.49-.915.713-1.612.386.29-1.699 1.386-3.253.98-5.128-.908.109-.937 1.174-1.833 1.427-1.564-5.243-4.068-10.146-5.823-15.331-1.022-3.016.244-4.877 3.3-5.246.986 3.16 1.656 6.563 4.643 8.668.637-.422.097-.747.051-1.087l-.399-.56c.325-.199.59-.131.802.179 1.615 1.349 3.303 2.622 4.66 4.254 1.758 2.118 2.493 4.625 2.741 7.333.683-2.551.507-5.116.322-7.786 2.604 2.494 5.386 4.728 7.39 7.932.333-.564.555-.938.834-1.407 4.624 1.732 9.275 3.106 14.225 1.079-.51-.447-1.182-.007-1.635-.593 3.593-1.144 7.508-1.074 11.28-3.268h-3.17c3.64-1.712 6.894-3.015 9.547-5.667l-1.809-.243c2.398-1.45 4.465-2.945 6.314-5.027-1.127-.375-1.952.628-3.054.074 4.594-4.261 9.362-7.985 15.785-8.713 2.367-.269 4.56.415 6.591 1.684 1.916 1.197 2.94 2.807 2.584 5.105-.35 2.264-1.558 3.851-3.772 4.641-1.879.671-3.872.696-5.793 1.114-2.394.522-4.939 1.309-5.82 3.657-1.419 3.779-1.206 7.791.101 11.638.342 1.009 1.314 1.688 2.407 2.261.007-1.37-.577-2.585-.16-4.139 1.388 2.504 1.451 5.607 4.477 6.618l-.027.04c.297-1.159-1.009-2.218-.152-3.542 1.507 1.369 1.478 3.896 3.657 4.73.55-.837-.59-1.548 0-2.408 1.01.703 1.066 2.389 2.514 2.732.358-.608-.528-1.134-.07-1.747 1.014.084.93 1.435 2.001 1.73-.204-.732.114-1.224.645-1.642-.717-1.046-1.855-1.395-2.837-1.94-3.182-1.766-6.114-3.834-8.32-6.781-2.403-3.21-1.148-6.383 2.796-7.062 2.155-.371 4.342-.417 6.518-.311 6.56.316 10.847-2.74 13.2-8.746-.42-.417-.16-.851-.096-1.32.41-2.997.28-5.966-1.1-8.711-1.79-3.559-5.145-4.559-8.752-5.064-1.94-.271-3.907-.443-5.802-.903-2.384-.577-5.284-6.422-4.487-8.834.08-.241.52-.364.791-.542"/><path fill="#82161a" d="M522.056 272.675c-1.1.194-.784.857-.514 1.522.905 2.229.881 4.774 2.494 6.678-.819.68-1.467.094-2.096.117-1.118 1.973-.628 3.873 1.461 5.406 1.918 1.408 3.754 2.902 5.362 4.659.44.48 1.106.849.996 1.598-.375.726-1.09-.207-1.494.499.816 2.229 2.76 3.462 4.708 4.463 3.903 2.006 8.017 3.15 12.491 2.06 5.265-1.283 9.508-4.076 12.162-8.79 3.15-5.595 6.967-10.623 11.447-15.193 1.496-1.525 3.241-2.666 5.066-3.717.776-.447 1.496-.855.556-1.805-2.958.644-5.454 2.273-8.032 3.737-.52.296-.993 1.103-1.765.485-.687-.55-.53-1.31-.435-2.055.155-1.198 1.045-2.024 1.503-3.067.371-.844.964-1.644.454-2.838l-3.944.234c-.512.43-1.04.416-1.58.056-.553-.074-1.106-.161-1.64.089.038 1.052-.33 1.954-1.103 2.65-.6.542-.069.739.233 1.029.503.169 1.087.23 1.273 1.15-1.31.75-2.7 1.533-4.076 2.339-1.412.828-2.773 1.732-3.847 2.99-1.527 1.79-1.406 2.997.444 4.46 1.01.8 2.117 1.492 2.966 2.767-1.68 2.73-3.619 5.309-6.617 6.84-4.043 2.065-8.805.12-11.294-4.681-2.803-5.41-6.675-9.721-12.18-12.45-.967-.478-1.998-.824-2.999-1.232"/><path fill="#b32227" d="M485.62 288.21c-1.308 2.367-3.188.889-4.572.374-1.32-.491-2.431-.501-4.188-.137 3.71 1.78 6.705 3.759 5.897 8.212l-.321.555-.01.019c.117 1.647-.535 3.081-1.245 4.499-.585 1.926-1.964 3.375-3.16 5.185 3.8.395 4.219-3.458 6.541-4.989.238 2.008-.902 3.499-1.345 5.331 1.33-.046 1.99-.463 2.747-1.593 1.943-2.904 2.629-6.091 2.915-9.43.494-5.777 3.169-7.956 9.101-7.305.648-.963.327-2.096.523-3.142.616-3.29 2.86-5.71 4.337-8.536-.749-.474.683-1.07-.262-1.556-1.693.979-2.363 3.418-4.615 3.914-2.635.099-4.693 1.417-6.581 3.104-1.98 1.77-3.574 3.943-5.762 5.495"/><path fill="#82161a" d="M583.828 268.942c-.272.178-.711.301-.791.542-.797 2.412 2.103 8.257 4.487 8.834 1.896.46 3.863.632 5.802.903 3.608.505 6.961 1.505 8.751 5.064 1.381 2.745 1.512 5.714 1.101 8.711-.065.469-.324.903.095 1.32 3.045-7.57.812-15.402-5.894-20.732-3.97-3.155-8.444-4.815-13.551-4.642M502.84 277.253c-1.476 2.826-3.72 5.245-4.337 8.536-.196 1.045.126 2.18-.522 3.141-.46 4.572.996 8.652 3.104 12.612 1.357 2.55 2.845 5.086 3.045 8.087.244 3.66-.794 5.355-4.154 6.787 3.608 1.307 6.42-.598 6.583-4.268.195-4.423-1.786-8.282-2.925-12.36-1.644-5.886-1.722-11.735.452-17.504 1.068-2.83 3.282-4.937 4.948-7.39.4-.59 1.216-1.063.309-1.852-2.553.807-4.232 2.967-6.503 4.211"/><path fill="#b32227" d="M558.387 270.491c-.302-.29-.834-.487-.233-1.029.772-.696 1.14-1.598 1.103-2.65-5.903-.13-11.713-1.18-17.684-1.882 1.42 2.97 4.518 2.226 7.149 3.43-3.093.674-5.781.415-8.564.231 1.693 3.466 5.024 1.49 7.38 2.61-1.104 1.01-2.631.51-4.314 1.162 1.965.616 3.15 1.71 5.207.707 3.082-1.503 6.43-2.525 9.956-2.579"/><path fill="#82161a" d="M485.62 288.21c2.188-1.552 3.782-3.725 5.762-5.495 1.888-1.687 3.946-3.005 6.581-3.104-1.995-1.588-1.987-1.742.37-5.728-1.724-.197-3.013.629-4.186 1.539-4.257 3.305-6.626 7.897-8.527 12.788M512.227 332.992c-2.699.168-4.37-1.765-6.32-3.114-.88-.609-1.705-1.297-2.64-2.015.112-.228.031-.047-.065.127-1.739 3.155-1.74 3.155-4.545.798-.603-.506-.603-.506-1.98-.82-.604.494.345 1.164-.207 1.685-.616.242-.738-.326-1.033-.654-.883-.98-1.068-.975-1.6-.03.58.951 1.146 1.914 2.118 2.54 2.471-.699 4.537.667 6.743 1.321 2.85-1.292 5.17.776 7.733 1.264 1.148.218 2.257.298 3.574.292-.392-.872-1.166-.997-1.746-1.36l-.443.58.424-.58z"/><path fill="#b32227" d="M502.698 332.83c-2.206-.654-4.272-2.02-6.743-1.322 3 2.838 6.713 4.23 10.247 5.271z"/><path fill="#82161a" d="M481.181 301.732c.71-1.418 1.362-2.852 1.245-4.5a46 46 0 0 1-5.249 4.679c1.476 1.139 2.733.26 4.004-.18"/><path fill="#b32227" d="M496.957 313.75c.198-.498.488-.98.573-1.496.18-1.09-.097-2.055-1.202-2.536-1.192-.519-1.88.17-2.516 1.15.626.354 1.068-.244 1.566-.138l.517.411-.047-.028c1.56.355.615 1.565.814 2.385q.14.135.295.251"/><path fill="#82161a" d="M496.662 313.499c-.199-.82.746-2.03-.814-2.386.317 1.034-.058 1.798-.927 2.367z"/><path fill="#b32227" d="M560.896 266.724c.54.36 1.069.375 1.58-.056zM481.916 330.847q-.084.097-.17.193c.003-.06-.016-.136.013-.179.05-.076.13-.132.199-.197zM512.24 333.025c-.06.084-.121.167-.423.58l.443-.579z"/><path fill="#82161a" d="m482.436 297.214.321-.554zM495.895 311.141l-.517-.41zM493.503 313.284"/><path fill="#b32227" d="m583.349 319.263.22.225.029-.178-.276-.007z"/><path fill="#82161a" d="M508.104 325.764c-.155-2.067-.956-3.356-2.723-4.037-.703 1.85.047 3.012 2.723 4.037M510.93 323.302c-.073-1.58-.415-2.774-1.865-3.363-.74-.3-1.379-.019-1.132.737.428 1.31 1.228 2.434 2.997 2.626"/><path fill="#fefdfd" d="M500.854 326.433c-1.181-2.487-2.441-2.892-3.775-1.243 1.116.807 2.37 1.04 3.775 1.243"/><path fill="#82161a" d="M489.942 320.015c1.084 1.834 2.01 2.618 3.792 1.676-1.005-.982-2.144-1.191-3.792-1.676M493.739 317.255c.919.714 1.244 2.102 2.888 2.453-.479-1.64-1.585-2.425-2.71-3.153-.235-.152-.398.253-.454.521q.075.184.275.179"/><path fill="#fefdfd" d="M519.304 298.716c-.212-.31-.477-.378-.802-.18q.2.282.4.56zM510.36 326.464l-.427-.11.196.337q.117-.112.232-.227"/><path fill="#fff" d="m720.894 718.62-43.366-83.52 135.72-68.262 4.016 45.775 42.563 27.305z"/><path fill="#054b87" d="m686.777 638.093 120.548-60.631 3.429 39.09 35.859 23.003-122.921 69.633zm132.397-81.878-150.895 75.893 49.818 95.946 154.945-87.772-49.267-31.605z"/><path fill="#054b87" d="m776.89 625.062-99.583 3.212.44 13.652 99.583-3.212z"/><path fill="#fff" d="m359.106 718.62 43.366-83.52-135.72-68.262-4.016 45.775-42.563 27.305z"/><path fill="#054b87" d="m233.387 639.555 35.86-23.004 3.428-39.09 120.548 60.632-36.914 71.094zm27.44-83.341-4.602 52.463-49.267 31.605 154.944 87.772 49.82-95.947z"/><path fill="#054b87" d="m303.11 625.062-.44 13.652 99.582 3.212.44-13.652z"/><path fill="#fff" d="M257.918 721.03s118.856 79.104 282.685 79.104 279.472-78.301 279.472-78.301l-44.972-87.536S659.86 706.976 540.2 706.976s-235.704-72.68-235.704-72.68z"/><path fill="#054b87" d="m266.964 718.619 40.167-74.794c10.86 6.307 35.124 19.646 67.737 33.123 40.689 16.814 102.4 36.857 165.333 36.857 62.937 0 124.434-20.045 164.942-36.861 32.306-13.412 56.347-26.688 67.22-33.034l38.788 75.497c-10.29 6.309-35.717 20.92-72.287 35.384-44.43 17.569-114.891 38.513-198.262 38.513-140.851 0-249.046-59.878-273.638-74.685m510.807-94.074-6.311 3.975c-1.136.716-115.034 71.626-231.26 71.626-116.35 0-230.935-70.92-232.078-71.637l-6.187-3.875-52.974 98.639 5.173 3.442c1.238.825 30.896 20.406 81.187 40.22 46.346 18.26 119.58 40.028 205.28 40.028 85.708 0 158.074-21.552 203.69-39.631 49.514-19.624 78.407-39.028 79.613-39.844l5.01-3.393z"/><path fill="#044982" d="M540.602 673.758c-90.175 0-163.538-73.363-163.538-163.538s73.363-163.537 163.538-163.537 163.537 73.362 163.537 163.537-73.362 163.538-163.537 163.538m0-333.905c-93.941 0-170.366 76.426-170.366 170.367s76.425 170.367 170.366 170.367S710.969 604.16 710.969 510.22s-76.426-170.367-170.367-170.367"/><path fill="#044982" d="M540.602 665.828c-85.802 0-155.607-69.805-155.607-155.608S454.8 354.612 540.602 354.612 696.21 424.418 696.21 510.22s-69.806 155.608-155.608 155.608m0-314.63c-87.685 0-159.023 71.336-159.023 159.022s71.338 159.023 159.023 159.023c87.686 0 159.022-71.337 159.022-159.023s-71.336-159.022-159.022-159.022"/><g fill="#e8e8e8"><path d="M584.832 622.39s-37.614 3.564-77.131-16.33c-39.516-19.895 8.878-76.12 8.878-76.12l10.617 12.05s-14.568 31.038 9.289 53.687c23.857 22.65 48.347 26.713 48.347 26.713M590.869 510.155s70.693-1.984 86.65.47c0 0-70.08-15.114-74.134-17.775s-26.46 3.72-26.46 3.72zM608.365 482.506c1.116.016 60.462-41.55 65.395-48.548 0 0-91.885 54.5-135.817 31.196-20.295-11.442-11.388-36.608-11.388-36.608l-37.124 48.201s11.59 22.106 13.074 22.498c1.482.393 105.86-16.739 105.86-16.739M468.57 452.651c1.125-.728 18.825-42.879 119.457-84.61 0 0-52.146 31.997-63.913 48.941-11.768 16.943-55.545 35.67-55.545 35.67"/></g><path fill="#06304e" d="m415.401 557.531-13.428 2.787 7.934-8.815s.721-24.908 40.245-58.57c27.092-23.075 90.36-78.325 90.36-78.325s-33.432 38.377-14.567 57.444c21.27 21.498 106.307 4.466 141.191-16.616l-41.64 25.45s-92.384 37.013-93.887 38.107-116.208 38.538-116.208 38.538"/><path fill="#084a7f" d="m402.24 567.76 10.448-2.456s15.477 10.259 40.26-6.502c0 0 7.467 77.465 125.668 82.47 0 0-65.944-18.406-65.37-59.31.573-40.902 34.62-55.302 64.394-56.744s100.022 1.775 100.022 1.775-75.638-16.681-88.93-23.562c0 0 73.738-33.555 89.287-54.908 0 0-38.692 27.35-95.354 36.598s-61.025 2.12-65.786-3.154c-4.76-5.273-9.219-32.114 30.734-69.862 32.035-30.048 43.97-32.484 43.97-32.484s-5.179-1.932-26.144 7.815-129.143 59.184-115.795 115.16c0 0-38.655 24.748-40.245 58.57z"/><path fill="#fff" d="m424.69 531.627 27.895.02s-3.062 32.685-39.86 31.054c0 0 2.545-22.28 11.966-31.074M462.694 553.36s-2.04 39.395 26.818 50.214c0 0-19.793-20.734-14.086-56.358l-6.311-.832zM472.211 484.688l-4.766-4.902-5.347 9.967c-8.161-28.01 44.362-60.373 44.362-60.373s-33.58 34.118-34.249 55.308"/><path fill="#084a7f" d="M425.75 554.956c4.776-.493 8.464.526 10.278-3.265.688-1.44-.509-3.291-1.965-3.473-4.18-.522-5.149 3.242-8.314 6.738"/><g fill="#054b87"><path d="M336.173 694.88q2.772-5.311 1.33-8.867-1.16-2.869-5.85-5.74-1.89-1.161-3.925-2.297l-2.74-1.547q-7.294-3.809-11.649-2.43-3.672 1.16-6.868 6.53-1.42 2.382-3.737 6.822-4.36 8.35-4.999 11.505a11.3 11.3 0 0 0-.049 4.456q.405 2.079 2.044 3.972 2.615 3.016 8.443 6.057 5.862 3.06 8.774 3.69 4.106.888 7.047-1.869 2.178-2.045 4.561-6.61l-6.677-3.486-1.149 2.203q-1.108 2.121-2.656 2.57-1.629.463-6.412-2.034l-.986-.515q-4.761-2.486-5.483-4.695-.723-2.209 1.6-6.66l4.81-9.21q2.73-5.233 5.126-5.572 1.596-.234 2.988.26 1.507.525 3.996 1.824 3.005 1.57 3.99 2.2 1.65 1.313 2.09 2.652.367 1.112-.263 2.797-.365.977-1.63 3.572l6.675 3.485zM363.164 709.244l-14.35 16.448-.035-.016 1.742-21.758zm16.328-7.5-7.182-3.026-5.242 5.908-15.866-6.684.556-7.88-7.278-3.068-3.22 41.78 10.302 4.34zM399.938 736.665q-1.169 3.566-2.449 4.563-1.551.99-5.583-.333l-10.218-3.35 4.225-12.887 10.427 3.42q3.346 1.095 4.258 3.002.61 1.712-.66 5.585m6.921 3.563q2.048-6.248 1.037-8.81-.92-2.346-4.219-4.122l.048-.147q3.425.768 5.772-.614 2.077-1.73 3.465-5.959l2.294-6.997-7.304-2.394-1.867 5.693q-1.354 4.132-2.938 5.056-1.677.962-5.083-.155l-10.119-3.318 4.095-12.493-7.254-2.378-12.385 37.773 18.58 6.092q7.352 2.41 10.862.39 3.105-1.79 5.016-7.617M444.778 738.285l-1.652 6.95q-.77 3.234-1.327 4.406-1.124 2.38-3.233 2.969-1.993.55-5.72-.335l-10.675-2.538 6.177-25.985 11.192 2.66q2.254.535 3.354 1.276 1.401.931 2.152 2.812.989 2.497-.268 7.784m7.711.796q2.448-10.299-2.567-15.109-2.49-2.386-7.389-3.552l-20.105-4.779-9.193 38.675 18.62 4.426q10.285 2.445 14.605-2.354 2.6-2.88 4.069-9.06zM470.484 725.929l-7.573-1.316-6.807 39.166 7.573 1.316zM500.117 763.392l-18.629-2.242 1.261-10.483 17.576 2.115.751-6.245-17.575-2.114 1.956-16.265-7.58-.912-4.748 39.468 26.21 3.153zM535.447 765.263l-18.745-.842.474-10.548 17.685.794.282-6.283-17.684-.794.735-16.366-7.627-.343-1.784 39.713 26.37 1.184zM593.685 740.049q-.451-5.975-3.556-8.231-2.5-1.823-8-1.782-2.218.012-4.545.123l-3.144.134q-8.205.621-11.174 4.09-2.504 2.928-2.382 9.174.054 2.772.433 7.766.71 9.394 1.834 12.41a11.3 11.3 0 0 0 2.312 3.809q1.443 1.552 3.834 2.293 3.814 1.178 10.37.68 6.591-.497 9.397-1.502 3.955-1.414 4.996-5.31.769-2.886.38-8.022l-7.51.569.187 2.477q.182 2.387-.896 3.585-1.139 1.254-6.519 1.66l-1.109.085q-5.355.405-7.136-1.088t-2.16-6.501l-.784-10.361q-.446-5.885 1.41-7.44 1.231-1.04 2.674-1.357 1.557-.35 4.356-.563 3.381-.256 4.55-.24 2.096.243 3.176 1.148.9.75 1.255 2.513.205 1.023.502 3.894l7.51-.568zM606.899 727.23l-7.616 1.034 5.349 39.391 7.617-1.034zM649.257 753.427l-11.502 2.205-6.256-32.636-7.498 1.437 6.256 32.636-11.4 2.186 1.228 6.405 30.4-5.828zM692.921 748.48l-20.749-19.706-4.069-14.663-7.356 2.041 4.068 14.663-7.332 27.496 8.374-2.323 4.562-18.87.2-.056 13.837 13.766zM743.732 722.042l-17.34 7.172-4.035-9.758 16.358-6.766-2.404-5.811-16.357 6.766-6.262-15.138-7.056 2.918 15.195 36.734 24.394-10.09zM770.265 683.693q-2.734-5.332-6.469-6.21-3.01-.711-8.064 1.458-2.04.87-4.142 1.876l-2.846 1.341q-7.325 3.754-8.717 8.102-1.173 3.67 1.361 9.38 1.124 2.534 3.408 6.992 4.297 8.384 6.502 10.73a11.3 11.3 0 0 0 3.608 2.614q1.93.871 4.422.627 3.972-.392 9.822-3.39 5.884-3.016 8.082-5.028 3.096-2.84 2.548-6.832-.411-2.96-2.76-7.542l-6.703 3.434 1.134 2.211q1.091 2.131.562 3.652-.562 1.598-5.365 4.058l-.99.508q-4.78 2.45-7 1.762-2.22-.687-4.511-5.155l-4.738-9.247q-2.691-5.25-1.584-7.404.733-1.437 1.939-2.288 1.3-.927 3.797-2.208 3.018-1.545 4.101-1.985 2.026-.588 3.373-.173 1.121.345 2.131 1.832.587.861 1.972 3.395l6.702-3.436z"/></g></g></svg>