<svg xmlns="http://www.w3.org/2000/svg" width="256.946" height="299.897"><clipPath id="a"><path d="M90.264 46.915c-9.402 2.307-20.13 3.965-28.742 5.297-5.002.772-9.764 1.514-11.872 2.05-1.58 13.389-6.582 68.046 11.296 107.711 18.76 41.63 60.663 69.353 71.184 75.824 10.602-6.22 52.819-33.128 72.768-77.352 16.309-36.185 11.148-92.488 9.56-106.235-2.092-.573-6.659-1.244-11.809-2.001-8.342-1.226-19.764-2.902-30.838-5.582-18.244-4.422-36.023-11.44-39.751-12.95-3.717 1.455-21.334 8.207-41.796 13.238"/></clipPath><path fill="#fff" d="M127.89 239.69c8.133-4.667 53.464-32.231 74.406-78.675 17.136-38.01 10.754-98.445 9.574-108.249-3.55-1.722-24.127-3.248-43.885-8.023-20.496-4.966-40.14-13.129-40.14-13.129s-19.153 7.75-42.2 13.417c-16.832 4.133-38.728 6.282-41.836 7.761-1.206 9.597-7.533 67.998 11.289 109.749 19.666 43.631 64.698 72.272 72.791 77.15"/><path fill="#100f0d" stroke="gray" stroke-width=".4" d="M111.18 299.463v-7.912h-3.068v-1.866q.642.022 1.247-.095.601-.111 1.076-.399.479-.288.815-.759.33-.468.435-1.165h1.969v12.196h-2.474zM120.066 291.77c.368.272.807.409 1.305.409.523 0 .955-.137 1.309-.41.346-.272.523-.667.523-1.194 0-.162-.025-.335-.073-.53a1.505 1.505 0 0 0-.826-.984q-.36-.173-.933-.174-.366.002-.704.114a2 2 0 0 0-.601.32c-.173.14-.314.318-.41.524q-.148.315-.147.73c0 .527.184.922.557 1.195m-.66 4.855q.17.382.457.653c.195.18.424.317.69.42q.402.144.836.144.456 0 .826-.144c.25-.103.472-.24.664-.42q.287-.27.446-.653.155-.381.155-.84a1.87 1.87 0 0 0-.62-1.412 2.2 2.2 0 0 0-.663-.399 2.3 2.3 0 0 0-.808-.136q-.901.001-1.533.494-.626.499-.627 1.435 0 .476.177.858m-1.781-7.72c.243-.42.564-.767.951-1.047.387-.277.83-.49 1.317-.627q.73-.208 1.478-.206 1.133 0 1.917.343.785.352 1.265.848c.317.331.545.689.686 1.065q.21.564.21 1.018 0 .906-.446 1.585-.442.68-1.331.977v.03q1.096.248 1.688 1.043.595.79.594 1.94c0 .648-.13 1.216-.39 1.692q-.395.713-1.04 1.183c-.428.314-.919.55-1.46.705a6 6 0 0 1-1.675.236q-.887.002-1.718-.217a4.4 4.4 0 0 1-1.478-.685 3.56 3.56 0 0 1-1.047-1.188q-.392-.712-.391-1.708 0-1.165.6-1.95c.403-.523.967-.873 1.7-1.05v-.03c-.593-.165-1.04-.47-1.341-.925q-.452-.679-.454-1.586 0-.818.365-1.445M133.507 291.448a14.5 14.5 0 0 0-1.238 2.599 19 19 0 0 0-.767 2.787c-.177.94-.277 1.818-.288 2.629h-2.647q.21-2.736 1.283-5.261a18.7 18.7 0 0 1 2.81-4.635h-5.782v-2.3h8.33v2.127q-.962.836-1.7 2.054M140.03 293.314a1.76 1.76 0 0 0-.621.499q-.244.314-.366.724a3 3 0 0 0-.122.864c0 .28.04.554.133.831.085.273.211.514.384.732q.25.32.617.513c.244.13.52.192.839.192q.455 0 .794-.192c.225-.13.42-.296.584-.506q.242-.312.369-.713c.077-.27.118-.54.118-.824q.001-.433-.115-.846a2.3 2.3 0 0 0-.335-.731 1.8 1.8 0 0 0-.588-.524 1.66 1.66 0 0 0-.827-.204c-.326 0-.617.063-.865.185m-.106-4.048q-.442.392-.706.96a5 5 0 0 0-.38 1.212 7 7 0 0 0-.141 1.156l.033.033c.336-.488.732-.842 1.186-1.049q.682-.314 1.57-.314a3.7 3.7 0 0 1 1.536.34c.503.225.927.535 1.278.916q.483.56.713 1.274a4.943 4.943 0 0 1-.078 3.202 4.3 4.3 0 0 1-.871 1.42q-.57.598-1.356.937a4.3 4.3 0 0 1-1.743.344c-.92 0-1.68-.185-2.29-.55a4.2 4.2 0 0 1-1.445-1.441 6 6 0 0 1-.753-2.017c-.14-.753-.21-1.514-.21-2.294q-.002-1.136.262-2.271a6.6 6.6 0 0 1 .838-2.05m7.229-.133c.221.417.366.905.435 1.452h-2.356a2.14 2.14 0 0 0-.561-1.068m-2.702 4.488a2.2 2.2 0 0 0-.366.724 3 3 0 0 0-.122.864c0 .28.04.554.133.831.085.273.21.514.383.732q.25.32.617.513.363.194.838.192.455 0 .794-.192c.225-.13.422-.295.584-.506q.242-.312.37-.713a3.064 3.064 0 0 0 .003-1.67 2.3 2.3 0 0 0-.337-.731 1.8 1.8 0 0 0-.587-.524 1.67 1.67 0 0 0-.827-.204c-.325 0-.617.063-.865.185m-.106-4.048q-.443.391-.706.96a5 5 0 0 0-.381 1.212 7 7 0 0 0-.14 1.156l.034.033c.336-.488.731-.842 1.184-1.049q.682-.314 1.57-.314a3.7 3.7 0 0 1 1.537.34c.503.225.927.535 1.279.916.32.373.56.798.712 1.274s.228.964.228 1.448a5 5 0 0 1-.306 1.754 4.3 4.3 0 0 1-.871 1.42 4.1 4.1 0 0 1-1.356.937 4.3 4.3 0 0 1-1.743.344c-.92 0-1.68-.185-2.29-.55a4.2 4.2 0 0 1-1.445-1.441 5.9 5.9 0 0 1-.752-2.017 12.4 12.4 0 0 1-.211-2.294q-.001-1.136.261-2.271.263-1.136.838-2.05m7.23-.133c.222.417.365.905.435 1.452h-2.356a2.14 2.14 0 0 0-.563-1.068m-2.703 4.488q-.244.314-.366.724a3 3 0 0 0-.122.864c0 .28.04.554.133.831.085.273.21.514.385.732q.25.32.616.513c.244.13.521.192.839.192q.455 0 .794-.192c.225-.13.42-.295.583-.506q.243-.312.37-.713c.078-.27.118-.539.118-.824q0-.433-.114-.846a2.3 2.3 0 0 0-.337-.731 1.8 1.8 0 0 0-.587-.524 1.67 1.67 0 0 0-.827-.204c-.325 0-.617.063-.865.185m2.084-3.989a1.43 1.43 0 0 0-1.083-.455q-.66.002-1.108.396-.441.392-.705.96a5 5 0 0 0-.38 1.212 7 7 0 0 0-.141 1.156l.033.033c.336-.488.731-.842 1.186-1.049q.682-.315 1.57-.314.788 0 1.536.34c.502.225.927.535 1.278.916q.485.56.713 1.274a4.943 4.943 0 0 1-.078 3.202 4.3 4.3 0 0 1-.871 1.42 4.1 4.1 0 0 1-1.356.937 4.3 4.3 0 0 1-1.743.344c-.92 0-1.68-.185-2.29-.55a4.2 4.2 0 0 1-1.444-1.441 5.9 5.9 0 0 1-.754-2.017c-.14-.753-.21-1.514-.21-2.294q-.002-1.136.262-2.271a6.6 6.6 0 0 1 .838-2.051c.388-.61.88-1.108 1.486-1.491.605-.385 1.34-.577 2.215-.577q.783-.001 1.467.224c.454.156.856.37 1.204.657q.522.427.857 1.052c.221.419.366.906.436 1.452h-2.357c-.085-.41-.27-.76-.561-1.067"/><path fill="#100f0d" stroke="gray" stroke-width=".6" d="M206.036 204.825c3.13-11.717-3.916-21.875 1.644-32.246-11.481 8.989-5.914 26.682-9.66 42.765l-.74 2.643 2.104-1.217c11.895-6.415 29.614-10.84 30.3-30.387-4.664 13.6-16.12 11.042-23.648 18.442m32.272-98.346c-.97-11.916-10.232-17.848-8.248-30.365-7.51 14.169 2.64 28.179 5.091 44.044l.365 2.74 1.273-2.28c7.724-12.59 21.273-24.44 16.314-41.857-.206 14.003-10.614 17.115-14.795 27.718m-4.834 26.119c-.232-12.071-9.15-18.91-6.375-31.185-8.502 13.358.882 28.287 2.153 44.48l.13 2.761 1.496-2.101c8.76-11.614 23.339-22.21 19.42-40.24-1.088 14.08-11.935 16.134-16.824 26.285m-6.883 25.37c.844-12.064-7.806-19.98-4.119-31.819-9.475 12.278-1.099 28.135-1.239 44.527l-.08 2.795 1.658-1.906c9.856-10.294 25.521-19.324 22.808-37.946-2.15 14.054-13.174 14.903-19.028 24.348m-9.074 24.253c2.01-11.923-6.128-21.023-1.434-32.198-10.534 10.821-3.304 27.674-5.17 44.04l-.401 2.74 1.906-1.59c10.968-8.553 27.619-15.628 26.465-34.774-3.407 13.88-14.578 13.287-21.366 21.782m22.14-85.725 1.143-2.378c6.758-13.303 19.286-26.214 13.41-43.045.64 13.91-9.402 17.926-12.839 28.861-1.692-11.717-11.105-16.783-9.907-29.385-6.53 14.737 4.277 27.818 7.703 43.281zm2.577-28.802.446-1.527c2.714-8.635 8.052-16.716 5.206-26.572-2.603-6.562-3.569-9.434-7.311-12.616 1.062 3.126-.317 5.866-2.74 12.804-2.665 9.406 2.29 17.237 4.123 26.329zM191.92 224.996c4.667-10.95-1.343-22.483 5.301-31.638-12.336 6.736-8.771 25.2-14.611 40.494l-1.058 2.507 2.23-.796c12.647-3.85 31.136-4.989 34.042-24.614-6.286 12.86-17.391 8.299-25.904 14.047m-32.343 31.033c-19.083.46-92.97 22.243-93.596 22.745-.011.004 2.618 2.595 2.817 2.518-.199.077 76.268-20.378 84.309-16.156 21.746 10.238 29.13 5.85 36.696-11.647-9.472 10.172-15.474 1.334-30.226 2.54m15.784-13.91c6.139-9.874 1.52-22.723 9.28-30.285-13.003 4.133-11.827 23.12-19.706 37.175l-1.383 2.29 2.323-.336c13.06-1.132 31.79 1.596 37.22-17.572-8.052 11.555-18.47 4.86-27.733 8.727"/><g clip-path="url(#a)" transform="translate(-3.058)"><path fill="#100f0d" d="M217.066 112.009H137.58V34.222h79.486zM122.987 242.102h-74.34V131.13h74.34z"/><path fill="#211d1d" d="M124.642 238.799h5.107V23.05h-5.107zm7.16 2.05h-9.206V20.996h9.206z"/><g fill="#100f0d"><path d="M131.448 238.799h5.107V23.05h-5.107zm7.156 2.05h-9.213V20.996h9.213z"/><path d="M130.58 118.085h96.608v-5.106l-96.609-.004zm98.658 2.05H128.529v-9.21h100.709z"/><path d="M130.578 124.89h96.61v-5.11h-96.61zm98.66 2.05h-100.71v-9.206h100.71z"/><path d="M37.49 122.638h96.61v-5.106H37.49zm98.659 2.057H35.437v-9.21h100.712z"/></g><path fill="#211d1d" d="M37.49 129.448h96.606v-5.11H37.49zm98.659 2.05H35.44v-9.21H136.15z"/></g><path fill="#100f0d" stroke="gray" stroke-width=".6" d="m58.749 217.987-.738-2.644c-3.75-16.082 1.822-33.776-9.66-42.765 5.564 10.372-1.489 20.53 1.641 32.25-7.525-7.403-18.98-4.848-23.648-18.446.69 19.548 18.406 23.973 30.3 30.392zm15.732 18.372-1.058-2.504c-5.84-15.297-2.275-33.76-14.615-40.497 6.647 9.155.638 20.687 5.309 31.638-8.513-5.748-19.618-1.188-25.912-14.044 2.91 19.626 21.4 20.761 34.05 24.61l2.226.797zm-28.957-39.554-.41-2.743c-1.862-16.37 5.369-33.215-5.165-44.04 4.69 11.175-3.444 20.274-1.434 32.198-6.792-8.495-17.963-7.902-21.362-21.783-1.158 19.146 15.489 26.222 26.465 34.775l1.906 1.593zm46.956 54.497-1.382-2.29c-7.879-14.058-6.706-33.046-19.707-37.175 7.761 7.558 3.142 20.403 9.28 30.284-9.261-3.867-19.68 2.825-27.737-8.73 5.435 19.168 24.165 16.44 37.22 17.572l2.326.339zM20.512 122.897l.368-2.74c2.452-15.864 12.599-29.875 5.092-44.044 1.987 12.517-7.278 18.45-8.244 30.366C13.539 95.875 3.135 92.764 2.932 78.757c-4.966 17.42 8.587 29.27 16.311 41.861l1.269 2.279zM16.37 96.498l.494-2.669c3.426-15.463 14.224-28.544 7.702-43.285 1.198 12.606-8.218 17.672-9.91 29.389-3.436-10.936-13.472-14.95-12.83-28.861-5.885 16.83 6.647 29.742 13.405 43.045l1.139 2.381zm16.85 75.066 1.658 1.907-.084-2.795c-.137-16.396 8.24-32.246-1.24-44.527 3.692 11.839-4.954 19.754-4.117 31.818-5.852-9.446-16.875-10.294-19.025-24.349-2.714 18.627 12.952 27.656 22.807 37.947M13.798 67.696l.276-1.589c1.833-9.088 6.784-16.92 4.126-26.325-2.43-6.938-3.812-9.678-2.743-12.804-3.743 3.181-4.708 6.053-7.308 12.616-2.846 9.86 2.489 17.937 5.199 26.572l.45 1.53zm82.657 188.336c-14.755-1.209-20.757 7.629-30.225-2.544 7.569 17.498 14.954 21.886 36.692 11.651 8.041-4.225 84.508 16.23 84.31 16.156.198.074 2.83-2.518 2.82-2.522-.623-.501-74.513-22.287-93.597-22.74M26.65 148.652l.13-2.76c1.275-16.194 10.655-31.122 2.149-44.476 2.78 12.27-6.139 19.11-6.371 31.184-4.893-10.154-15.74-12.208-16.827-26.288-3.912 18.03 10.658 28.625 19.426 40.24l1.493 2.1z"/><path fill="#100f0d" d="M178.566 164.227c0 16.086-6.47 14.103-9.541 21.85h-10.28c-3.498-7.006-9.541-6.261-9.541-21.85v-8.365h29.362zm-24.385-22.789c2.843 0 5.147 2.209 5.147 4.93 0 2.717-2.304 4.922-5.147 4.922-2.839 0-5.143-2.205-5.143-4.922 0-2.721 2.304-4.93 5.143-4.93m19.408 0c2.839 0 5.143 2.209 5.143 4.93 0 2.717-2.304 4.922-5.143 4.922-2.842 0-5.143-2.205-5.143-4.922 0-2.721 2.3-4.93 5.143-4.93m6.043 10.59c1.493-1.464 1.899-3.46 1.899-5.66 0-4.469-3.274-8.104-7.942-8.104a8.7 8.7 0 0 0-3.812.881 5.9 5.9 0 0 0 .545-2.474c0-3.403-2.883-6.164-6.437-6.164s-6.434 2.761-6.434 6.164c0 .881.192 1.718.546 2.474a8.7 8.7 0 0 0-3.816-.881c-4.664 0-7.945 3.635-7.945 8.104 0 2.2.409 4.196 1.903 5.66-1.778.45-3.082 1.99-3.082 3.834v8.365c0 11.316 2.956 15.353 6.82 19.449 1.225 1.301 2.286 2.433 3.131 4.115.694 1.379 2.146 2.256 3.74 2.256h10.28c1.717 0 3.262-1.021 3.874-2.562.78-1.97 1.843-3.053 3.186-4.425 3.756-3.845 6.633-7.669 6.633-18.833v-8.365c0-1.844-1.31-3.385-3.086-3.835"/><path fill="#fff" d="M163.885 155.86h-14.681v8.366c0 15.592 6.043 14.844 9.541 21.853h10.28c3.07-7.75 9.541-5.767 9.541-21.853v-8.365zM178.733 146.366c0 2.718-2.301 4.926-5.144 4.926s-5.143-2.208-5.143-4.926 2.3-4.925 5.143-4.925 5.144 2.208 5.144 4.925M149.039 146.366c0 2.718 2.297 4.926 5.143 4.926 2.84 0 5.147-2.208 5.147-4.926s-2.308-4.925-5.147-4.925c-2.846 0-5.143 2.208-5.143 4.925"/><path fill="#100f0d" d="M97.42 84.896c0 16.082-6.474 14.095-9.545 21.845H77.599c-3.506-7.002-9.546-6.26-9.546-21.845v-8.37H97.42zm-24.389-22.79c2.839 0 5.147 2.205 5.147 4.926s-2.308 4.922-5.147 4.922c-2.843 0-5.143-2.2-5.143-4.922 0-2.72 2.3-4.925 5.143-4.925m19.412 0c2.839 0 5.143 2.204 5.143 4.925s-2.304 4.922-5.143 4.922c-2.843 0-5.147-2.2-5.147-4.922 0-2.72 2.304-4.925 5.147-4.925m6.035 10.585c1.497-1.464 1.903-3.459 1.903-5.66 0-4.465-3.278-8.1-7.938-8.1-1.376 0-2.67.32-3.816.878.346-.76.545-1.597.545-2.474 0-3.403-2.883-6.165-6.433-6.165-3.558 0-6.438 2.762-6.438 6.165 0 .877.196 1.714.546 2.474a8.7 8.7 0 0 0-3.816-.878c-4.668 0-7.942 3.635-7.942 8.1 0 2.201.406 4.196 1.903 5.664-1.777.446-3.086 1.99-3.086 3.83v8.37c0 11.311 2.953 15.348 6.817 19.444 1.231 1.306 2.293 2.43 3.134 4.115.69 1.38 2.145 2.257 3.742 2.257h10.276c1.718 0 3.262-1.022 3.874-2.56.782-1.968 1.844-3.056 3.186-4.427 3.757-3.846 6.633-7.673 6.633-18.83v-8.369c0-1.84-1.309-3.384-3.09-3.834"/><path fill="#fff" d="M82.738 76.527H68.053v8.37c0 15.584 6.04 14.84 9.546 21.844H87.87c3.074-7.75 9.549-5.762 9.549-21.845v-8.369zM97.584 67.03c0 2.722-2.3 4.927-5.143 4.927s-5.147-2.205-5.147-4.926 2.304-4.926 5.147-4.926c2.842 0 5.143 2.205 5.143 4.926M67.886 67.03c0 2.722 2.3 4.927 5.147 4.927 2.839 0 5.143-2.205 5.143-4.926s-2.304-4.926-5.143-4.926c-2.846 0-5.147 2.205-5.147 4.926"/><path fill="#f4a00f" d="m103.727 171.556-5.736-5.737 5.733-5.737 5.737 5.737zm-9.04 9.033-5.733-5.737 5.733-5.733 5.74 5.733zm-14.77-14.77 5.733-5.737 5.737 5.737-5.737 5.733zm14.77-14.77 5.737 5.733-5.737 5.737-5.733-5.737zm20.41 14.77a2.32 2.32 0 0 0-.685-1.648l-7.385-7.389 2.09-2.094a2.336 2.336 0 0 0 0-3.296 2.33 2.33 0 0 0-3.3 0l-2.09 2.094-7.388-7.388a2.33 2.33 0 0 0-3.296 0l-7.393 7.388-2.09-2.094a2.33 2.33 0 0 0-3.3 0 2.33 2.33 0 0 0 0 3.296l2.094 2.094-7.388 7.385a2.35 2.35 0 0 0-.683 1.652c0 .62.248 1.217.683 1.648l7.388 7.385-2.094 2.094a2.334 2.334 0 0 0 3.3 3.3l2.09-2.094 7.393 7.389c.453.453 1.05.682 1.644.682.597 0 1.195-.229 1.652-.682l7.389-7.385 2.09 2.09a2.33 2.33 0 0 0 3.3 0 2.335 2.335 0 0 0 0-3.296l-2.09-2.098 7.384-7.385a2.31 2.31 0 0 0 .686-1.648M159.327 93.86s-5.12-5.254-3.569-9.24c0 0 4.845 6.224 8.126 5.14 0 0 25.296-9.583 28.176-21.31 1.552-6.346-31.184-6.479-36.593 0 0 0-.524-5.83 12.978-11.08 13.502-5.254 39.428 4.081 29.838 13.413-9.597 9.335-14.26 13.225-8.819 16.337 0 0-6.725 1.254-9.331-.778 0 0-8.82 3.89-13.222 7.518-4.41 3.631-7.337 11.377-11.448 11.65-4.11.273-8.907-1.795 3.864-11.65"/><path fill="#100f0d" d="M149.123 120.445c0 11.824-9.582 21.406-21.41 21.406-11.824 0-21.399-9.582-21.399-21.406 0-11.82 9.575-21.407 21.4-21.407 11.827 0 21.41 9.586 21.41 21.407"/><path fill="#fff" d="M115.703 117.274c-1.512-.21-2.89-.35-4.026-.409.291 1.57 1.084 4.83 3.078 8.922 2.15 4.436 5.173 8.152 6.409 9.587.626-.701 1.467-1.74 2.444-3.053-.509-.767-1.995-3.094-4.513-7.776-1.895-3.5-2.92-5.988-3.392-7.27M130.38 105.1c2.629-1.206 4.539-1.944 5.837-2.394a19.8 19.8 0 0 0-10.549-1.82c.62.508 1.316 1.083 1.357 1.109 1.74 1.449 2.798 2.51 3.355 3.104M125.52 133.141c-.392.53-1.903 2.57-3.083 3.816a27 27 0 0 1-1.877 1.81c3.197 1.254 6.655 1.656 10.191 1.11.24-.76.711-2.382 1.113-4.727.31-1.821.48-3.182.572-3.996-3.389 1.294-5.98 1.821-6.917 1.987M122.521 109.773a39.5 39.5 0 0 1 5.46-3.193l.996-.483c-.767-.807-1.821-1.78-3.038-2.787l-2.51-2.057a19.65 19.65 0 0 0-8.38 4.151l2.528 1.36c1.324.723 3.801 2.286 4.944 3.009M109.61 116.763c-.32-.015-.826-.04-1.202-.055a19.5 19.5 0 0 0-.357 3.738c0 7.337 4.022 13.977 10.504 17.399.272-.229.696-.605 1.172-1.044-1.445-1.67-4.52-5.478-6.78-10.131-2.356-4.849-3.116-8.517-3.337-9.907M125.239 131.129c1.625-.291 5.368-1.154 9.825-3.303 4.841-2.327 10.46-6.427 12.311-7.813a20 20 0 0 0-.653-4.638c-2.028 1.467-6.455 4.494-11.787 7.068a138 138 0 0 1-11.886 5.08 76 76 0 0 0 2.19 3.606M142.922 130.38c.074.736.126 1.525.144 2.359a19.44 19.44 0 0 0 4.2-10.147 119 119 0 0 1-4.823 3.311c.074.715.313 2.935.48 4.476M116.01 115.281c.66-.83 2.197-2.588 4.77-4.59-1.18-.749-2.986-1.858-4.018-2.422l-3.038-1.634a19.6 19.6 0 0 0-4.82 8.078l2.556.13c1.578.066 3.303.265 4.55.438M120.872 123.595c0 .004.815 1.49 1.173 2.146a135 135 0 0 0 12.012-5.11c5.737-2.772 10.4-6.083 12.008-7.274a19.7 19.7 0 0 0-2.422-4.461 91 91 0 0 0-12.993 5.888c-5.634 3.126-9.236 5.818-10.722 7.001.321.623.944 1.81.944 1.81M140.548 127.095c-1.718 1.047-3.266 1.906-4.608 2.555-.004.004-.955.435-1.398.634-.059.737-.24 2.544-.697 5.199a44 44 0 0 1-.848 3.908 19.7 19.7 0 0 0 8.042-4.48c.029-.826.062-2.607-.122-4.306 0 0-.243-2.33-.369-3.51M119.025 119.941c1.611-1.253 5.25-3.919 10.651-6.927 5.096-2.825 9.907-4.768 12.614-5.77a20 20 0 0 0-3.673-3.164c-1.198.317-4.291 1.29-9.884 4.03-6.825 3.33-10.376 7.47-11.146 8.44.192.527.645 1.703 1.438 3.391"/><path fill="#100f0d" stroke="gray" stroke-width=".6" d="M45.53 54.193c-1.578 13.373-6.574 67.965 11.282 107.577 18.737 41.578 60.587 69.267 71.095 75.734 10.59-6.216 52.753-33.09 72.677-77.26 16.29-36.14 11.135-92.372 9.553-106.099-2.094-.575-6.655-1.246-11.798-2.002-8.333-1.22-19.74-2.898-30.801-5.578-18.22-4.41-35.977-11.422-39.704-12.93-3.706 1.456-21.307 8.2-41.74 13.221-9.395 2.308-20.11 3.963-28.71 5.294-4.993.77-9.753 1.508-11.854 2.043m82.34 187.676-.95-.571c-8.802-5.303-53.709-33.994-73.533-77.986-18.852-41.81-12.842-99.596-11.445-110.756l.13-1.018.925-.442c1.567-.745 5.814-1.427 13.815-2.662 8.532-1.32 19.15-2.96 28.382-5.228 22.641-5.564 41.755-13.262 41.946-13.34l.712-.287.711.295c.2.081 19.751 8.17 39.86 13.044 10.895 2.629 22.206 4.295 30.461 5.505 7.86 1.158 12.053 1.8 13.804 2.654l.926.447.118 1.017c1.397 11.547 7.484 71.077-9.723 109.248-21.07 46.713-66.328 74.446-75.184 79.53l-.955.55z"/><path fill="#100f0d" d="M46.764 54.414c-1.56 13.221-6.5 67.195 11.154 106.359 18.525 41.107 59.902 68.482 70.29 74.876 10.47-6.146 52.156-32.716 71.854-76.385 16.105-35.73 11.009-91.326 9.445-104.897-2.07-.57-6.58-1.233-11.665-1.98-8.238-1.206-19.516-2.865-30.452-5.515-18.014-4.36-35.57-11.293-39.254-12.783-3.664 1.44-21.066 8.106-41.267 13.071-9.289 2.282-19.882 3.919-28.386 5.235-4.935.761-9.641 1.49-11.719 2.019m81.408 185.55-.94-.565c-8.702-5.242-53.1-33.608-72.7-77.102C35.894 120.96 41.836 63.829 43.217 52.795l.128-1.006.915-.437c1.549-.736 5.748-1.41 13.658-2.632 8.435-1.305 18.934-2.927 28.06-5.169 22.386-5.5 41.283-13.112 41.472-13.188l.704-.284.703.291c.197.08 19.527 8.078 39.409 12.897 10.77 2.599 21.954 4.246 30.116 5.442 7.771 1.145 11.916 1.78 13.647 2.625l.915.44.117 1.007c1.381 11.416 7.4 70.272-9.612 108.01-20.833 46.185-65.577 73.604-74.333 78.63zM243.245 186.64c-7.588.851-17.45 11.532-20.72 15.3 1.942.13 6.297.506 10.857 1.53 6.084 1.372 10.276 3.381 12.525 5.992l9.667-6.216-12.838-3.44z"/><path fill="#fff" d="M223.591 201.506c2.33.184 6.029.594 9.904 1.467 5.917 1.331 10.12 3.29 12.502 5.822l8.329-5.353-11.728-3.138a.51.51 0 0 1-.376-.516l.486-12.55c-6.894 1.227-15.67 10.386-19.117 14.268m22.314 8.469a.54.54 0 0 1-.387-.177c-2.176-2.526-6.294-4.483-12.245-5.825-4.446-1.003-8.664-1.38-10.784-1.523a.5.5 0 0 1-.435-.314.5.5 0 0 1 .085-.53c3.783-4.37 13.41-14.62 21.049-15.475a.51.51 0 0 1 .567.527l-.497 12.757 12.454 3.337a.512.512 0 0 1 .14.93l-9.67 6.212zM13.823 210.213c-.313.346-.59.711-.822 1.095q-.165.26-.299.53c.144.049.28.126.398.226 6.264 5.08 15.965 7.705 28.832 7.809L37.55 204.66l-.41-1.415s-17.638.67-23.316 6.968"/><path fill="#100f0d" d="m245.542 213.735-.265.185c-.18.132-.358.265-.542.394q-.16.105-.325.21c-.17.115-.335.225-.508.336-.118.077-.24.147-.354.22q-.248.156-.502.307c-.125.07-.243.14-.368.21-.174.1-.336.196-.51.288-.125.073-.254.132-.38.203-.172.092-.338.18-.519.269-.125.062-.254.129-.383.191q-.264.128-.535.255c-.125.059-.262.118-.39.18q-.269.124-.546.24-.195.081-.395.17l-.56.225c-.133.051-.262.107-.391.154-.2.078-.391.148-.594.222q-.19.07-.38.14c-.202.073-.413.14-.615.214-.126.04-.247.084-.369.121-.221.07-.439.14-.664.21-.11.03-.22.07-.335.104l-.73.213-.277.082c-.317.084-.63.166-.947.247l-.07.018q-1.045.26-2.094.483l-.262.052q-.395.081-.785.162c-.115.018-.236.04-.347.063-.236.036-.468.084-.704.121-.133.026-.262.048-.395.07q-.328.052-.663.104c-.14.022-.277.04-.417.062-.218.026-.431.063-.641.092-.144.019-.296.037-.44.06-.206.022-.42.055-.626.077-.151.015-.291.033-.446.051q-.311.035-.616.063a6 6 0 0 1-.457.048c-.2.022-.41.04-.605.06-.158.014-.306.029-.46.04-.207.018-.406.033-.613.047-.147.012-.306.023-.46.037q-.299.016-.602.037-.225.017-.458.03-.303.017-.612.03c-.148.01-.299.014-.445.025q-.31.016-.62.026c-.143.004-.29.007-.43.014l-.653.019c-.132.004-.26.007-.394.007-.266.004-.527.015-.79.018q-.142-.001-.29.004h-.53c-.142 0-.28.004-.425.004h-.023c-.325 0-.648-.004-.974-.004-.405-.007-.803-.018-1.208-.022l-.28-.007q-.398-.012-.778-.018a15 15 0 0 0-.361-.015c-.228-.007-.465-.014-.694-.026-.126-.007-.25-.014-.383-.018-.214-.011-.431-.019-.652-.033-.132-.004-.258-.011-.395-.015-.21-.019-.417-.026-.623-.037q-.193-.015-.398-.026c-.199-.01-.401-.026-.601-.04-.13-.007-.263-.019-.392-.026l-.59-.044q-.195-.014-.382-.03c-.195-.022-.383-.032-.579-.048l-.07-.007.266.089c2.935.955 5.383 1.95 7.36 2.986.427.224.836.454 1.223.682q1.475.883 2.507 1.81c.432.38.8.767 1.114 1.158.877 1.092 1.312 2.226 1.32 3.407v.046l-.011.21-.007.014c-.7 4.266-1.737 11.05-2.552 18.622l.048-.01.218-.043c.206-.05.413-.096.612-.145l.254-.066c.17-.036.336-.082.505-.122l.192-.048c.21-.056.413-.106.623-.166l.24-.062c.155-.04.317-.082.464-.125l.2-.06c.198-.059.397-.11.59-.17l.228-.07c.151-.04.29-.085.438-.132l.191-.062c.192-.06.38-.122.56-.178l.207-.07c.138-.048.273-.091.414-.14l.177-.06c.18-.062.354-.125.531-.19l.18-.07c.13-.049.262-.096.388-.144l.162-.067q.254-.093.49-.19l.155-.067c.13-.052.244-.1.365-.151l.144-.07c.151-.063.302-.133.446-.2l.133-.059c.107-.055.217-.106.328-.165l.133-.063c.133-.067.269-.137.394-.207l.104-.055.302-.166.103-.063q.182-.109.354-.213l.074-.045.265-.18.085-.06q.155-.109.291-.213l.045-.037.224-.188.066-.06.228-.217.023-.03.174-.19.051-.06.155-.217.011-.011.11-.203.03-.055.082-.218c1.54-5.125 3.59-7.684 10.762-16.02 4.616-5.357 5.412-9.955 5.401-12.565-.01-1.453-.27-2.29-.27-2.29-.257.207-.515.406-.78.609"/><path fill="#fff" d="m220.71 231.269-.007.03c-.69 4.206-1.677 10.658-2.466 17.9l.17-.037.25-.067c.166-.04.328-.081.498-.118l.192-.055c.202-.052.409-.107.612-.162l.243-.063.457-.125.2-.056q.303-.084.585-.173l.848-.258q.284-.09.557-.177l.203-.066c.136-.048.276-.096.402-.137l.192-.066q.255-.09.508-.185l.18-.066q.202-.072.384-.144l.166-.066q.237-.093.48-.192l.143-.062q.19-.073.362-.152l.147-.062.435-.196.126-.059c.11-.059.221-.107.324-.162l.125-.059c.133-.07.262-.133.388-.203l.095-.051.296-.166.103-.06.332-.202.07-.044.25-.17.082-.055.272-.203.04-.033.211-.173.06-.052.206-.2.17-.19.04-.049.122-.162.014-.022.085-.151.03-.048.048-.144c1.587-5.272 3.717-7.901 10.87-16.212 4.384-5.095 5.29-9.46 5.27-12.222 0-.564-.046-1.028-.096-1.386l-.136.11-.163.115-.103.074c-.184.136-.365.269-.56.398l-.225.151-.1.07c-.17.114-.339.232-.516.34l-.24.15-.121.074c-.17.107-.336.207-.509.31-.103.063-.207.118-.31.18l-.07.034q-.25.153-.512.295-.174.09-.336.18l-.052.022c-.176.093-.346.185-.527.273q-.192.1-.394.192c-.177.088-.354.18-.535.265-.129.06-.269.122-.406.181-.18.081-.36.166-.549.244l-.394.17-.579.231c-.125.056-.258.104-.394.155-.196.081-.395.151-.598.225l-.082.03c-.099.036-.203.077-.306.11-.203.078-.417.144-.626.218l-.369.125c-.22.07-.446.144-.667.21l-.34.103q-.37.115-.74.218l-.28.081c-.317.088-.638.17-.955.25l-.075.023c-.682.173-1.393.335-2.116.487l-.263.051c-.266.052-.527.107-.793.159l-.35.063c-.233.044-.474.088-.707.129l-.395.066-.033.004c-.218.037-.428.066-.638.103l-.392.056c-.25.036-.464.07-.681.1l-.435.054c-.21.026-.425.056-.639.081l-.446.052c-.21.022-.417.048-.623.07l-.457.044q-.31.031-.612.06l-.465.04q-.303.026-.612.048l-.461.037c-.21.01-.405.029-.612.04l-.46.03c-.2.007-.406.022-.613.03l-.453.021q-.301.016-.601.026l-.454.015q-.327.012-.649.018l-.405.015c-.262.004-.524.004-.79.011l-1.253.007c-.347 0-.667 0-1.003-.004q-.604-.007-1.209-.018l-.398-.011q-.336-.008-.668-.023l-.372-.01a39 39 0 0 1-.686-.026l-.357-.015-.683-.033-.276-.012c1.552.601 2.931 1.217 4.126 1.844.435.225.859.46 1.253.697 1.007.604 1.884 1.235 2.596 1.87.446.397.837.81 1.165 1.22.94 1.176 1.42 2.425 1.43 3.727v.044zm-3.027 19.091a.52.52 0 0 1-.354-.125.52.52 0 0 1-.195-.428 334 334 0 0 1 2.554-18.63l.004-.026.012-.14-.004-.044c-.004-1.073-.406-2.087-1.206-3.09a9 9 0 0 0-1.055-1.091c-.66-.594-1.474-1.184-2.43-1.755a25 25 0 0 0-1.205-.671c-1.932-1.014-4.38-2.01-7.278-2.953l-.262-.085a.51.51 0 0 1-.342-.59.51.51 0 0 1 .545-.41l4.012.277c.217.007.43.018.652.026l.38.022.686.022.361.015q.33.009.667.018l.391.007c.398.007.796.019 1.202.019q.48.005.966.004l1.261-.004q.392-.01.785-.011l.394-.011.646-.023.43-.014.616-.022.446-.026q.3-.012.604-.03l.45-.03c.203-.014.406-.021.608-.04l.45-.033.609-.048.454-.037c.207-.018.406-.04.609-.059l.45-.047c.206-.019.409-.045.61-.07l.447-.049.626-.077.428-.059c.21-.026.428-.059.638-.088l.409-.067c.214-.03.42-.062.63-.1l.424-.066q.35-.059.697-.125l.34-.063.781-.155.254-.055a47 47 0 0 0 2.08-.476l.037-.01.03-.012c.317-.077.626-.158.94-.243l.272-.081q.36-.101.726-.207l.329-.107c.22-.07.442-.136.656-.206l.361-.122c.207-.07.41-.136.612-.21l.295-.107.081-.03q.293-.106.576-.217c.132-.048.261-.1.39-.147q.28-.118.557-.229c.13-.055.262-.11.387-.166.181-.077.358-.162.54-.24q.193-.083.387-.176c.174-.082.35-.17.52-.247.129-.063.259-.126.38-.188q.262-.135.514-.27l.049-.018q.16-.088.328-.18c.165-.093.334-.189.493-.277l.075-.04.29-.17c.166-.096.333-.2.494-.303l.118-.07.232-.144q.247-.157.494-.328l.11-.073.211-.14c.18-.122.357-.255.53-.384l.116-.077.144-.107c.26-.192.515-.395.767-.598a.5.5 0 0 1 .472-.088.49.49 0 0 1 .334.335c.016.034.288.933.296 2.445.018 2.942-.926 7.565-5.515 12.897-7.046 8.177-9.14 10.766-10.667 15.839l-.107.28-.032.07-.137.24-.011.018-.188.266-.055.066-.203.225-.018.03-.262.235-.055.048-.255.218-.051.044c-.096.07-.203.151-.31.225l-.088.066-.285.192-.073.048c-.115.07-.24.144-.365.218l-.107.062a7 7 0 0 1-.317.177l-.096.056q-.209.107-.417.213l-.136.067a7 7 0 0 1-.34.162l-.128.063c-.148.07-.303.14-.454.21l-.147.066q-.19.076-.37.151l-.158.07c-.17.067-.331.13-.501.2l-.166.066-.394.144-.185.07q-.26.099-.53.191l-.185.063c-.136.048-.28.096-.413.14l-.214.07q-.283.096-.56.184l-.867.262c-.203.063-.398.118-.6.17l-.203.059q-.227.064-.465.13l-.243.07c-.214.05-.417.11-.63.161l-.196.048c-.162.044-.332.081-.505.125l-.251.063q-.313.077-.616.148l-.221.048-.125.01"/><path fill="#fff" d="M217.685 230.294c.199-.328.53-.55.895-.623-.25-.616-.674-1.21-1.22-1.78a11 11 0 0 0-1.287-1.118c-.372-.28-.774-.553-1.194-.819a25 25 0 0 0-2.076-1.139l-.254-.129c-2.463-1.19-5.365-2.216-8.137-3.049l-.023-.004a82 82 0 0 0-1.85-.535l-.052-.018c-.361-.096-.73-.196-1.091-.291l-.133-.037c-.195-.052-.394-.096-.586-.151h-.004c-.192-.052-.376-.096-.557-.144l-.025-.011c-.133-.026-.266-.063-.391-.092l-.178-.045q-.537-.131-1.043-.25l-.03-.007a103 103 0 0 0-3.078-.679h-.008l-.195-.04a55 55 0 0 0-1.494-.295l-4.177 14.508c.258-.011.513-.03.767-.04 23.257-1.213 26.874-2.814 27.42-3.212"/><path fill="#100f0d" d="M25.179 203.474c4.56-1.026 8.915-1.405 10.858-1.53-3.27-3.772-13.133-14.45-20.72-15.305l.512 13.17-12.846 3.436 9.672 6.216c2.248-2.61 6.44-4.62 12.524-5.988"/><path fill="#fff" d="m4.236 203.442 8.329 5.353c2.382-2.536 6.585-4.49 12.499-5.821 3.878-.874 7.584-1.283 9.907-1.467-3.451-3.88-12.223-13.041-19.12-14.269l.486 12.55a.5.5 0 0 1-.38.513zm8.418 6.53-.273-.078-9.675-6.212a.514.514 0 0 1 .144-.93l12.447-3.336-.494-12.753a.53.53 0 0 1 .162-.398c.11-.1.258-.155.406-.133 7.635.855 17.27 11.109 21.052 15.47.13.152.162.354.089.535a.52.52 0 0 1-.443.313c-2.116.14-6.334.52-10.78 1.523-5.955 1.342-10.073 3.3-12.245 5.825a.53.53 0 0 1-.39.174M43.685 225.954a17 17 0 0 0-1.194.815c-.484.362-.915.741-1.291 1.121-.55.572-.966 1.165-1.217 1.781.362.074.694.295.893.623.545.398 4.162 1.995 27.42 3.211.254.011.508.03.766.04l-4.177-14.507-.133.03c-.21.033-.656.12-1.29.25l-.262.052v.004c-3.687.752-12.572 2.798-18.295 5.88q-.64.343-1.22.7M245.859 211.838a6 6 0 0 0-.295-.531 7.5 7.5 0 0 0-.83-1.095c-5.67-6.29-23.32-6.965-23.32-6.965l-.402 1.412-4.387 15.217c12.871-.107 22.568-2.729 28.836-7.813.117-.1.254-.17.398-.225"/><path fill="#100f0d" d="m38.363 231.219-.019-.21v-.037c.011-1.184.447-2.323 1.32-3.414a10 10 0 0 1 1.11-1.158q1.039-.925 2.514-1.81a27 27 0 0 1 1.228-.682c1.973-1.037 4.421-2.032 7.356-2.987l.265-.088-.073.007-.572.044c-.133.015-.262.022-.387.033q-.293.024-.586.04c-.13.012-.266.019-.402.03q-.29.027-.59.037-.206.014-.406.026c-.206.014-.409.022-.62.04-.132.004-.26.011-.394.015-.217.015-.431.022-.652.033q-.194.007-.387.018c-.225.007-.454.019-.686.026-.122.004-.24.007-.365.015-.258.004-.513.011-.774.019l-.288.007c-.402.004-.804.014-1.206.022-.328 0-.648.004-.973.004h-.022q-.217-.002-.428-.004H41.8l-.291-.007c-.266 0-.524-.011-.785-.011l-.402-.011c-.218-.007-.428-.011-.65-.019l-.43-.015q-.313-.012-.62-.026a16 16 0 0 1-.446-.025 29 29 0 0 1-.612-.03q-.232-.011-.454-.03-.304-.02-.608-.036-.234-.022-.46-.037c-.2-.019-.403-.03-.606-.048-.154-.011-.306-.03-.46-.04l-.609-.056q-.225-.021-.457-.051a34 34 0 0 1-1.062-.115q-.316-.035-.627-.08a15 15 0 0 1-.438-.06q-.321-.04-.642-.092-.205-.027-.417-.059-.331-.05-.66-.107a8 8 0 0 1-.398-.066c-.235-.04-.468-.085-.7-.122a10 10 0 0 0-.35-.063c-.262-.055-.52-.106-.786-.162l-.258-.048a56 56 0 0 1-2.098-.486l-.073-.022q-.473-.118-.944-.244l-.277-.084c-.243-.067-.49-.14-.73-.21q-.17-.052-.34-.104c-.216-.07-.442-.14-.659-.21-.122-.037-.243-.085-.365-.126-.206-.073-.413-.136-.62-.21-.125-.048-.257-.092-.383-.14-.199-.073-.39-.147-.59-.221a6 6 0 0 0-.39-.148c-.185-.08-.373-.154-.56-.235l-.4-.166q-.27-.118-.541-.24l-.39-.18-.536-.255q-.194-.1-.387-.192l-.516-.265c-.129-.074-.258-.137-.383-.207q-.256-.139-.505-.284-.184-.107-.373-.213c-.166-.1-.335-.203-.498-.307q-.175-.106-.357-.217c-.17-.11-.336-.218-.505-.336q-.16-.107-.325-.213c-.176-.13-.361-.259-.541-.391l-.261-.192c-.266-.2-.528-.398-.783-.608 0 0-.265.84-.271 2.297-.011 2.61.788 7.208 5.397 12.557 7.178 8.337 9.224 10.899 10.763 16.024l.084.217.026.056.118.202.004.012.162.217.044.06.177.19.022.034.225.214.07.059.225.188.044.037q.14.105.292.21l.084.063.27.18.073.048c.107.067.23.136.347.21l.107.063c.096.055.202.11.302.166l.104.055c.121.07.257.14.394.207l.126.066q.166.081.339.162l.129.063q.214.101.445.195l.148.07c.117.048.239.1.358.152l.158.066c.159.066.321.125.487.192l.162.062c.13.052.262.107.391.148l.184.074q.26.094.52.184l.185.063q.203.067.413.14l.206.066q.278.092.56.18l.192.063c.144.044.291.092.435.133l.229.07c.195.06.394.11.59.17l.199.055q.232.07.468.129l.243.063.624.166.188.048c.165.04.335.084.501.125l.254.063.612.144.222.047.043.007a341 341 0 0 0-2.551-18.622z"/><path fill="#fff" d="m28.796 244.218.13.173.022.026.166.188.022.026.195.191.052.041.22.184.03.022.284.214.089.06.25.165.067.044c.107.067.214.133.332.203l.11.06c.089.055.181.11.288.161l.096.056.387.203.125.062c.107.052.214.1.325.159l.129.059.431.195.148.063c.114.051.235.103.353.151l.155.063c.152.066.314.129.476.191l.162.067q.188.067.384.14l.18.07c.174.062.343.125.52.184l.18.063q.202.067.406.14l.2.066.556.177.848.262c.196.055.387.114.59.166l.196.059c.147.04.306.081.46.125l.24.063c.207.055.41.11.62.162l.187.048q.249.066.498.126l.254.062.17.04a333 333 0 0 0-2.474-17.877v-.037l-.022-.273v-.037c.011-1.305.49-2.562 1.43-3.734.325-.406.72-.819 1.17-1.22.715-.639 1.588-1.265 2.595-1.87.39-.232.815-.472 1.246-.697a41 41 0 0 1 4.133-1.847l-.276.011c-.214.015-.436.026-.653.037l-.387.015q-.344.015-.693.022l-.365.015c-.25.01-.516.018-.774.022l-.295.01c-.399.008-.804.012-1.21.02q-.49.004-.977.003l-1.276-.01c-.265-.005-.527-.005-.792-.012l-.398-.011a41 41 0 0 1-.653-.019l-.439-.018a18 18 0 0 1-.619-.022l-.453-.026c-.207-.004-.41-.018-.613-.026l-.46-.03c-.218-.01-.413-.029-.613-.04l-.434-.037a25 25 0 0 1-.635-.048l-.464-.04q-.309-.026-.616-.06l-.454-.043c-.21-.022-.416-.048-.63-.07-.144-.019-.295-.034-.443-.052q-.314-.04-.634-.081l-.434-.06c-.218-.025-.436-.062-.65-.091l-.42-.06c-.225-.036-.45-.07-.67-.11l-.395-.063c-.24-.04-.472-.085-.712-.125l-.35-.066a29 29 0 0 0-.79-.155l-.266-.056a49 49 0 0 1-2.116-.486l-.043-.015c-.35-.092-.668-.17-.985-.262l-.28-.078q-.37-.103-.741-.217l-.34-.107c-.224-.07-.45-.136-.667-.206l-.372-.13c-.21-.07-.42-.136-.623-.213l-.39-.141a21 21 0 0 1-.594-.224c-.133-.053-.266-.1-.398-.155-.192-.078-.384-.152-.572-.233-.133-.056-.27-.112-.402-.17-.184-.086-.369-.162-.546-.244q-.203-.091-.405-.181c-.178-.085-.359-.177-.535-.263-.132-.066-.265-.128-.394-.194-.177-.093-.355-.181-.531-.273l-.07-.037q-.15-.083-.317-.17c-.17-.092-.343-.188-.509-.287l-.096-.056-.284-.158c-.17-.103-.335-.207-.505-.31l-.114-.07-.25-.158q-.233-.147-.458-.302l-.177-.112-.214-.147a24 24 0 0 1-.553-.399l-.103-.073-.166-.118-.136-.103c-.048.355-.093.82-.096 1.376-.015 2.769.885 7.137 5.272 12.23 7.153 8.306 9.284 10.939 10.866 16.212l.059.147-.45.244.475-.191.078.143zm12.12 6.153-.119-.01.118-.502-.136.494-.243-.06c-.207-.04-.41-.095-.616-.143l-.258-.063c-.17-.04-.336-.077-.505-.121l-.192-.048c-.214-.056-.42-.111-.627-.162l-.25-.074q-.232-.06-.469-.126l-.199-.059c-.199-.055-.402-.11-.593-.17l-.863-.26q-.292-.094-.572-.185l-.206-.07a8 8 0 0 1-.417-.144l-.184-.06c-.18-.066-.361-.125-.53-.19l-.193-.07c-.125-.049-.258-.097-.387-.148l-.17-.067a19 19 0 0 1-.494-.195l-.158-.07q-.188-.076-.372-.151l-.152-.07a16 16 0 0 1-.45-.207l-.128-.062c-.122-.052-.233-.111-.343-.163l-.133-.066q-.215-.111-.413-.21l-.103-.06c-.103-.055-.207-.117-.31-.176l-.114-.063a16 16 0 0 1-.365-.221l-.04-.033c-.13-.074-.218-.14-.314-.203l-.092-.066a5 5 0 0 1-.306-.229l-.033-.026-.259-.217-.077-.063-.247-.24-.03-.025-.195-.222-.052-.062-.191-.262-.015-.026-.137-.243-.04-.078-.103-.272c-1.523-5.077-3.621-7.662-10.663-15.84-4.59-5.332-5.534-9.955-5.52-12.898.008-1.511.28-2.41.292-2.445a.5.5 0 0 1 .343-.336.5.5 0 0 1 .472.09q.375.309.767.596l.147.106.107.078q.27.194.535.383l.202.137.174.118c.147.096.291.191.442.287l.236.148.107.066.494.302.27.152.095.059c.166.088.328.184.498.272q.15.089.306.17l.07.033q.255.138.509.266c.125.066.25.122.376.191q.269.122.527.247.194.088.387.181c.177.078.358.155.535.237.133.052.261.11.39.161q.277.117.557.225c.13.056.258.103.387.155.188.074.387.147.58.218l.383.136c.195.07.402.14.604.21l.365.122c.214.07.432.136.645.206l.34.104q.36.11.722.21l.273.077c.309.089.62.166.933.247l.047.015c.698.177 1.394.332 2.102.483l.259.051c.261.056.516.107.774.16l.346.058q.352.067.7.13l.391.062c.213.033.435.073.657.103l.413.066c.213.03.424.063.637.089l.43.059.624.077q.222.028.444.049c.206.026.408.052.612.066l.453.052c.2.02.406.037.609.056l.453.036q.3.03.605.049l.453.036.586.04.472.027q.3.021.605.033l.45.022q.304.016.608.026l.435.014c.214.01.432.014.642.023l.398.007.778.01 1.246.007c.347 0 .667 0 .992-.004q.597-.005 1.195-.018l.29-.004.771-.022.358-.015c.236-.007.46-.015.69-.026l.38-.018c.217-.008.438-.019.648-.033l.376-.015c.225-.015.431-.026.638-.037l1.39-.092c.192-.015.39-.026.579-.044l.387-.03.575-.044.037-.004a.523.523 0 0 1 .564.405.495.495 0 0 1-.332.586l-.258.085c-2.898.948-5.346 1.943-7.282 2.957q-.632.333-1.198.671a15.7 15.7 0 0 0-2.437 1.755q-.621.548-1.055 1.092c-.804 1.007-1.198 2.017-1.206 3.1v.034l.011.129.004.033a337 337 0 0 1 2.551 18.633.515.515 0 0 1-.508.565"/><path fill="#100f0d" d="m218.85 231.01-.067.118-.166.166v.004l-.21.152-.037.022-.265.143-.044.026c-.104.048-.21.1-.332.144-.251.1-.531.199-.856.295q-.488.143-1.076.28a40 40 0 0 1-2.02.41c-5 .873-13.38 1.581-23.84 2.12-.277.018-.561.033-.837.047-.192.007-.387.019-.58.026q-.432.029-.866.04c-16.384.79-37.378 1.18-58.371 1.18-20.997 0-41.99-.39-58.38-1.18a22 22 0 0 1-.862-.04c-.192-.007-.387-.018-.575-.026-.28-.014-.564-.03-.84-.048-.587-.025-1.162-.059-1.73-.084l-.129-.012c-.538-.029-1.073-.055-1.6-.088l-.207-.011a89 89 0 0 1-1.511-.1l-.247-.007q-.732-.048-1.453-.092l-.236-.015c-.48-.033-.955-.07-1.423-.1l-.207-.014q-.711-.045-1.4-.1l-.166-.01a230 230 0 0 1-1.39-.11l-.107-.005c-.952-.082-1.87-.158-2.754-.24l-.093-.007c-.42-.036-.833-.078-1.239-.115l-.147-.01q-.586-.064-1.15-.118l-.17-.02c-.372-.04-.73-.08-1.087-.117l-.162-.022a39 39 0 0 1-1.033-.115l-.158-.025a59 59 0 0 1-.978-.118l-.132-.019c-.32-.044-.638-.088-.944-.133l-.089-.01c-.313-.049-.615-.093-.91-.14l-.011-.005c-.343-.051-.671-.107-.981-.158a40 40 0 0 1-2.013-.41 16 16 0 0 1-.56-.136l-.041-.01c-.17-.04-.328-.09-.483-.133l-.048-.023a4 4 0 0 1-.428-.132l-.044-.014c-.133-.048-.258-.092-.372-.144l-.03-.007q-.178-.077-.328-.148l-.008-.003q-.466-.238-.648-.483l-.067-.115q.288 1.727.575 3.602a331 331 0 0 1 2.035 15.551c.049.472.1.951.144 1.427.428 4.232.76 8.513.94 12.61 0 0 .68 4.977 12.54 6.311q.244.03.498.056l.177.014q.177.022.355.037l.227.023c.112.01.218.022.333.033l.27.022q.163.012.335.026l.276.025c.119.007.237.019.359.026q.15.016.306.026l.354.03c.115.007.225.014.34.018.114.011.236.018.361.03.118.01.232.018.35.025q.188.008.383.026l.365.023c.129.01.266.014.395.026.132.003.257.014.391.026.132.007.27.01.402.022.135.01.27.014.401.027.119.007.237.01.359.019q.465.028.95.052l.362.022c.162.01.324.014.487.022l.405.022q.272.015.542.026l.365.022q.282.012.576.026c.125.007.247.01.372.018.188.011.387.023.579.03q.199.002.398.015c.2.01.398.022.597.025l.387.019q.315.014.63.026c.126.007.255.01.377.014q.339.016.678.026c.104.007.214.015.321.015.247.007.494.022.745.033l.265.007c.27.007.542.022.822.033h.026c1.353.048 2.762.1 4.214.148l.207.007c.306.008.612.022.918.03l.265.006q.463.018.926.026l.269.007c.313.015.63.022.944.03l.28.007q.468.02.936.029c.1.007.203.007.306.011.325.007.657.015.985.026l.195.007c.358.011.716.015 1.073.026l.14.011c2.85.07 5.833.14 8.912.203l.147.004c.391.007.79.018 1.187.025l.207.004c.402.011.8.019 1.206.026h.154c.417.011.834.015 1.254.026h.129c2.293.048 4.638.081 7.02.118q3.573.056 7.234.096h.01q.72.014 1.45.015h.044c1.637.022 3.285.036 4.94.055 3.304.022 6.64.052 9.977.066h.03q.721.005 1.441.004h.096c.483.004.963.007 1.453.007h.015q.741.005 1.482.004h.037q2.66.01 5.301.011h1.667c.944 0 1.88 0 2.817-.004h.49c1.01 0 2.017-.007 3.02-.01h.1c1.072-.008 2.134-.008 3.196-.016l.262-.004c.907-.004 1.81-.004 2.713-.015.244 0 .494-.004.741-.004.763-.007 1.516-.01 2.268-.018q.386-.004.778-.007 1.454-.015 2.89-.03h.096q.648-.006 1.294-.018h.074q.656-.005 1.3-.015h.06q4.094-.055 7.95-.129h.033q.598-.015 1.19-.026l.163-.004 1.054-.022.233-.008q.5 0 .991-.022h.233q.496-.014.988-.026l.222-.004a99 99 0 0 1 1.017-.026l.159-.004c1.186-.029 2.356-.066 3.49-.103h.042c.359-.01.708-.022 1.061-.033l.18-.007c.303-.007.594-.019.893-.03l.27-.006q.396-.017.788-.026c.104-.007.2-.011.306-.011.244-.015.498-.022.742-.03q.156-.009.317-.007c.24-.015.478-.022.71-.033l.3-.011c.25-.011.486-.019.726-.03l.284-.01c.25-.012.501-.027.748-.034l.221-.011q.454-.022.896-.037l.06-.004q.48-.027.96-.048l.034-.004.873-.044.195-.01c.233-.011.457-.023.682-.037l.272-.016c.196-.007.388-.022.583-.033l.296-.018c.184-.007.354-.019.539-.03l.313-.022c.17-.007.332-.022.494-.03q.155-.01.313-.018c.158-.015.322-.022.48-.033.099-.007.207-.019.302-.022l.468-.033.284-.023c.162-.01.328-.025.487-.036l.24-.019c.203-.014.405-.036.608-.052l.086-.004q.347-.032.678-.059l.158-.018.487-.044.224-.022c.129-.012.263-.026.392-.037l.236-.026c.122-.011.235-.026.35-.037l.238-.026c.106-.014.218-.029.322-.036l.233-.034c.111-.01.207-.022.306-.033l.214-.03q.149-.02.295-.04l.199-.03.283-.04.181-.03.287-.043.148-.026c.129-.022.266-.04.391-.07 9.372-1.763 12.555-6.312 12.555-6.312.174-4.096.504-8.385.929-12.61q.076-.718.147-1.426c.58-5.49 1.301-10.843 2.035-15.563.188-1.246.383-2.448.572-3.591"/><path fill="#fff" d="m162.154 271.905.059.513-.004-.513c2.783-.037 5.456-.077 7.945-.129h.033l6.246-.144q1.782-.043 3.488-.095l15.61-.745.727-.055c.202-.015.401-.037.6-.048l.097-.007q.338-.03.67-.06l4.078-.475.424-.067c.137-.025.266-.044.391-.07 8.21-1.54 11.588-5.298 12.145-5.994.17-3.809.475-8.005.922-12.48.051-.473.099-.952.15-1.424a326 326 0 0 1 2.032-15.585q.188-1.21.372-2.355l-.217.092c-.265.103-.571.206-.9.306-.331.096-.704.195-1.11.29-.6.14-1.286.281-2.046.414-4.815.84-12.86 1.563-23.902 2.13l-2.286.111c-15.861.764-36.604 1.18-58.397 1.18-21.798 0-42.537-.416-58.401-1.18l-2.286-.11c-.58-.03-1.158-.06-1.726-.092l-.129-.007c-.538-.026-1.073-.06-1.6-.092l-.21-.007q-.766-.05-1.512-.089l-.243-.018q-.74-.052-1.464-.096l-.228-.011c-.483-.037-.96-.067-1.427-.104l-.21-.01-1.402-.1-.165-.015a79 79 0 0 1-1.394-.107l-.103-.007a176 176 0 0 1-2.762-.236l-.092-.004c-.42-.04-.837-.081-1.242-.118l-.148-.019-1.154-.11-.173-.019q-.552-.061-1.088-.118l-.155-.026-1.043-.114-.162-.022c-.332-.04-.664-.085-.981-.122l-.133-.018c-.32-.045-.641-.092-.947-.13l-.056-.01c-.35-.048-.66-.1-.95-.144-.359-.056-.686-.11-1.004-.166a35 35 0 0 1-2.614-.553l-.044-.011a11 11 0 0 1-.494-.14l-.052-.015q-.234-.078-.446-.144l-.04-.018a6 6 0 0 1-.406-.148l-.173-.073c.121.763.25 1.552.376 2.36a346 346 0 0 1 2.035 15.58c.044.472.1.951.144 1.423.457 4.517.77 8.76.94 12.61.063.284 1.187 4.634 12.089 5.862.154.015.321.037.49.052l6.711.497c.313.019.63.034.951.056l8.897.398c1.379.051 2.783.103 4.236.147l7.444.221c2.843.07 5.837.148 8.908.207l4.284.085q3.447.06 7.016.114c2.382.044 4.793.07 7.234.1l1.46.018.037.516.004-.516c1.637.015 3.289.033 4.944.048 3.304.033 6.637.052 9.97.07l4.557.015c1.77.007 3.535.007 5.294.01h1.67c.948 0 1.877-.003 2.82-.003h.488c1.013-.004 2.013-.007 3.019-.007h.1c1.069-.004 2.134-.015 3.196-.015h.258c.907-.007 1.814-.011 2.714-.022l3.778-.033a378 378 0 0 0 2.898-.026zm-22.41 1.165h-1.301q-2.638-.001-5.298-.007l-4.528-.018q-5.05-.022-10.006-.067c-1.655-.018-3.307-.033-4.944-.051h-.045l-1.449-.015c-2.447-.03-4.862-.066-7.244-.1-2.378-.03-4.723-.073-7.024-.114l-4.284-.088c-3.068-.06-6.065-.137-8.912-.207l-7.45-.217-4.215-.151-8.94-.402c-.325-.019-.642-.033-.956-.052l-6.758-.505q-.26-.023-.498-.052c-12.119-1.367-12.963-6.536-12.992-6.75l-.004-.048c-.17-3.846-.483-8.078-.936-12.588q-.071-.712-.148-1.419a333 333 0 0 0-2.607-19.128.515.515 0 0 1 .354-.571.514.514 0 0 1 .616.28l.022.026c.037.047.147.166.46.324l.303.136.033.012c.104.044.218.084.34.129l.047.01c.126.049.259.09.403.133l-.096.51.144-.495q.227.072.468.133l-.089.505.133-.494q.254.072.54.133c.578.136 1.246.269 1.987.401q.466.08.97.16l.917.143.093.007q.454.072.936.133l.133.014q.47.066.973.125l.159.02q.5.06 1.02.117l.166.022c.355.04.711.078 1.08.115l.174.022q.56.054 1.147.118l.148.01q.607.058 1.238.115l.086.007q1.328.121 2.751.236l.106.004q.681.056 1.39.11l.154.012c.468.037.933.066 1.409.1l.21.018q.7.046 1.42.096l.233.014q.715.05 1.455.093l.244.018c.497.03.996.06 1.508.085l.21.015c.527.033 1.063.062 1.597.092l.128.004c.564.03 1.143.063 1.722.092l2.285.114c15.847.756 36.57 1.177 58.35 1.177 21.782 0 42.502-.42 58.349-1.177l2.278-.114c11.002-.568 19.003-1.28 23.781-2.116a38 38 0 0 0 1.988-.402q.58-.133 1.05-.273c.306-.092.578-.184.807-.277q.165-.066.303-.132l.048-.022.218-.122.18-.13.011-.003.073-.081a.524.524 0 0 1 .62-.292c.246.074.408.31.368.56a333.438 333.438 0 0 0-2.603 19.124q-.075.713-.148 1.424c-.45 4.52-.767 8.753-.93 12.584l-.091.273c-.132.191-3.407 4.745-12.874 6.526-.133.021-.265.047-.407.07l-3.321.427-1.268.126c-.222.025-.45.04-.678.062h-.096c-.192.022-.402.037-.609.052l-5.08.34-9.118.394-2.142.066h-.037q-1.71.054-3.492.103l-6.256.14-.044-.509.01.51c-2.488.05-5.165.091-7.952.128h-.055l-2.77.033c-.958.012-1.92.026-2.89.03l-3.79.033c-.9.004-1.806.008-2.71.015l-.265.004c-1.055.004-2.131.011-3.2.011h-.096l-3.02.011h-.49c-.94.004-1.874.004-2.82.004h-.37z"/><path fill="#100f0d" d="M245.904 209.462c-2.245-2.61-6.437-4.616-12.52-5.988-4.569-1.025-8.916-1.408-10.858-1.534 3.266-3.771 13.132-14.449 20.72-15.304l-.509 13.17 12.838 3.44zm-4.712 18.516c-7.17 8.34-9.224 10.898-10.758 16.027l-.085.214-.026.055-.118.206-.008.011-.158.218-.048.055-.173.196-.022.025-.229.218-.066.063-.225.184-.048.037-.288.21-.088.063-.266.18-.077.045q-.162.104-.347.213l-.103.067q-.15.078-.306.162l-.096.055c-.129.07-.265.144-.398.207l-.133.062c-.11.06-.22.11-.335.166l-.13.06c-.14.066-.29.136-.442.198l-.143.07-.365.152-.155.066c-.163.067-.321.13-.49.192l-.163.066c-.129.048-.262.1-.39.144l-.182.074-.527.188-.177.059q-.208.073-.416.14l-.207.07c-.184.055-.365.118-.556.184l-.192.06c-.147.043-.288.088-.439.132l-.228.066c-.192.06-.388.11-.59.17l-.2.055c-.147.048-.309.089-.464.13l-.24.066-.626.162-.192.048c-.166.04-.336.084-.505.121l-.247.067-.616.144-.217.044-.048.01c.81-7.568 1.85-14.356 2.55-18.622v-.015l.02-.206v-.045c-.008-1.185-.447-2.318-1.32-3.41a9 9 0 0 0-1.114-1.155q-1.03-.932-2.51-1.814a29 29 0 0 0-1.221-.682q-2.958-1.555-7.36-2.986l-.265-.089.07.007.58.044c.128.014.25.022.379.033.199.014.394.033.594.044q.195.012.39.025.3.024.605.04.2.009.394.027c.207.01.413.019.624.036.136.007.261.012.394.02.218.01.439.018.653.029.132.007.258.01.383.019q.344.015.693.026.175.006.362.014c.254.007.512.01.778.019l.28.007c.405.007.803.019 1.21.023.32 0 .648.007.972.007h.022c.144 0 .284-.007.425-.007h.53q.149-.005.292-.004.39-.006.785-.014l.398-.01c.218-.008.431-.008.65-.02q.216-.006.434-.014.31-.01.62-.026l.45-.022c.198-.01.405-.023.608-.033.155-.004.302-.02.457-.03q.304-.015.6-.04c.156-.007.314-.02.462-.033.206-.015.405-.03.608-.049.155-.01.306-.03.465-.04.199-.019.402-.033.604-.059q.226-.015.454-.049.31-.029.62-.062c.154-.02.294-.033.445-.052.21-.023.42-.052.627-.079q.216-.032.439-.059c.206-.033.424-.066.641-.092q.208-.032.417-.059.331-.055.664-.106.197-.033.39-.07c.24-.036.469-.081.708-.121.11-.026.233-.044.343-.063l.785-.158.262-.056c.704-.144 1.401-.31 2.094-.48l.074-.023c.317-.081.63-.161.948-.247l.276-.081c.243-.07.483-.14.73-.214q.17-.051.34-.103l.66-.21c.121-.037.243-.085.364-.122.207-.073.413-.14.62-.214q.186-.07.38-.14c.199-.074.39-.144.586-.218.136-.055.261-.106.39-.15l.568-.233q.198-.087.395-.17.275-.116.546-.24c.129-.062.265-.12.39-.18.181-.081.358-.17.531-.254q.2-.094.387-.192c.177-.088.347-.177.52-.265.126-.07.251-.133.38-.21.173-.09.336-.185.509-.28.125-.075.247-.14.368-.215q.254-.15.502-.306c.114-.07.24-.143.35-.217.177-.115.343-.221.513-.34q.16-.099.32-.21c.188-.129.365-.261.546-.394l.266-.184c.261-.203.523-.402.777-.612 0 0 .262.84.27 2.293.014 2.61-.786 7.208-5.398 12.561m-24.95 22.185c-.047.479-.095.95-.15 1.426-.421 4.23-.75 8.514-.922 12.613 0 0-3.186 4.55-12.555 6.313q-.2.036-.394.07l-.147.025-.288.045-.18.033-.284.04-.2.026q-.144.018-.295.04l-.213.026c-.1.011-.196.023-.307.037l-.232.03q-.155.015-.32.037l-.24.025c-.118.015-.229.026-.347.037l-.24.026c-.128.011-.261.026-.39.04l-.225.023c-.159.011-.32.03-.48.044l-.165.015q-.331.032-.679.059l-.084.007c-.204.011-.402.033-.605.048l-.24.018c-.162.011-.329.03-.494.04l-.283.02c-.155.01-.31.025-.468.036a9 9 0 0 0-.301.019l-.48.033q-.16.012-.314.014c-.166.015-.325.03-.494.034-.103.007-.21.018-.313.022l-.539.033-.295.018c-.195.011-.387.023-.586.033l-.273.012c-.221.014-.446.03-.675.037l-.202.014-.87.044-.038.004c-.316.011-.634.03-.958.044l-.059.004q-.443.023-.892.04l-.218.007c-.25.011-.504.026-.755.034l-.284.01-.718.033-.303.011q-.355.012-.715.03l-.317.01c-.243.007-.497.015-.74.026q-.15.01-.307.015-.392.01-.789.026l-.27.007c-.298.01-.589.022-.891.033l-.181.003-1.061.033h-.04c-1.136.037-2.305.07-3.491.1l-.159.004q-.503.015-1.018.025l-.22.007c-.329.004-.657.019-.989.023l-.232.004q-.49.015-.992.025h-.232c-.351.011-.7.019-1.055.026l-.162.004q-.593.01-1.19.026h-.034q-3.855.072-7.949.13h-.055c-.435.003-.867.01-1.305.014h-.07c-.432.004-.867.007-1.298.018h-.096q-1.437.015-2.89.03-.392.002-.779.004l-2.267.022q-.376.002-.741.004-1.354.009-2.714.019h-.262c-1.061.004-2.127.004-3.196.014h-.1c-1.002 0-2.009.007-3.019.007-.166 0-.328.007-.49.007h-4.479c-1.77 0-3.533 0-5.306-.01h-.037c-.49-.005-.988-.005-1.482-.005h-.019c-.486 0-.966-.004-1.452-.01h-.093q-.72.001-1.441-.005h-.03a2166 2166 0 0 1-14.917-.114h-.044q-.73-.009-1.45-.019h-.01a2120 2120 0 0 1-14.254-.214l-.129-.004c-.42-.01-.837-.014-1.254-.022l-.154-.004-1.206-.022-.207-.004q-.599-.012-1.187-.03h-.147c-3.079-.062-6.062-.136-8.911-.206l-.137-.007c-.361-.011-.723-.015-1.073-.026l-.199-.007c-.328-.011-.66-.018-.98-.026-.108-.007-.21-.007-.314-.01a75 75 0 0 1-.933-.027l-.28-.01a69 69 0 0 1-.944-.03l-.269-.007c-.31-.007-.616-.019-.925-.026l-.266-.007c-.306-.01-.616-.022-.918-.03l-.206-.007a827 827 0 0 1-4.215-.147h-.018a34 34 0 0 0-.83-.033l-.265-.007c-.25-.014-.498-.023-.745-.037-.107 0-.217-.004-.32-.01a35 35 0 0 1-.683-.026q-.186-.007-.372-.016c-.214-.007-.42-.014-.63-.03-.133-.003-.259-.01-.388-.014-.199-.007-.401-.018-.597-.025q-.199-.012-.398-.02-.29-.01-.579-.029c-.125-.007-.247-.01-.372-.018-.196-.011-.388-.011-.576-.026l-.361-.022a14 14 0 0 1-.545-.023 8 8 0 0 0-.406-.018c-.162-.015-.328-.015-.487-.03-.121-.007-.24-.01-.361-.018l-.951-.055c-.118-.007-.24-.011-.358-.022-.133-.008-.266-.011-.398-.022-.137-.004-.273-.015-.406-.023-.132-.01-.261-.014-.39-.026a13 13 0 0 1-.395-.025c-.122-.004-.243-.015-.365-.023q-.195-.014-.384-.026a10 10 0 0 1-.35-.025 11 11 0 0 1-.365-.026c-.114-.007-.22-.011-.335-.023-.118-.01-.236-.014-.354-.026-.104-.007-.207-.018-.306-.022-.122-.014-.24-.022-.355-.033l-.28-.019a6 6 0 0 0-.336-.033l-.27-.022c-.11-.011-.216-.019-.327-.033l-.233-.02c-.119-.006-.237-.021-.35-.036l-.18-.014q-.256-.03-.495-.056c-11.864-1.334-12.543-6.312-12.543-6.312-.177-4.099-.512-8.38-.94-12.613-.044-.471-.096-.947-.145-1.426a335 335 0 0 0-2.034-15.555 216 216 0 0 0-.58-3.595l.07.11q.184.247.65.484l.003.004q.155.076.332.15l.03.012q.172.07.372.14l.044.011q.2.076.427.14l.048.015c.155.048.314.092.487.136l.037.01c.18.05.365.093.56.137q.89.208 2.014.405.476.084.991.166c.296.048.598.092.915.136l.085.011q.46.072.944.133l.132.018c.314.044.65.082.978.122l.162.022q.498.062 1.028.118l.162.02q.53.06 1.087.12l.17.015q.565.057 1.15.119l.148.01c.405.04.819.082 1.239.118l.092.007c.881.078 1.803.159 2.75.237l.111.007c.457.033.918.07 1.394.11l.158.008c.465.036.929.07 1.405.103l.203.014c.472.03.951.066 1.431.096l.233.014c.48.034.962.06 1.456.096l.243.011c.498.034 1 .063 1.508.096l.21.011q.796.046 1.6.085l.13.011c.567.026 1.142.063 1.725.092.28.007.563.03.844.044.188.007.383.019.575.026.291.011.579.03.862.044 16.389.782 37.383 1.172 58.376 1.172 20.997 0 41.99-.39 58.375-1.172.288-.014.58-.033.863-.044.195-.007.391-.019.575-.026.286-.014.568-.037.844-.044 10.464-.542 18.84-1.25 23.84-2.127.752-.133 1.431-.266 2.02-.406.395-.096.754-.184 1.077-.28s.612-.195.856-.295c.121-.048.228-.096.332-.144l.048-.022.263-.147.036-.026.21-.151h.004l.161-.17.067-.115a293 293 0 0 0-.572 3.591 333 333 0 0 0-2.035 15.56m-175.373-.318-.221-.044-.612-.144-.254-.066c-.166-.037-.336-.081-.501-.122l-.188-.048c-.21-.055-.421-.107-.623-.162l-.243-.066a9 9 0 0 1-.465-.13l-.2-.055c-.198-.059-.398-.11-.593-.17l-.228-.066-.435-.132-.192-.06q-.283-.1-.56-.184l-.206-.07c-.137-.044-.28-.092-.413-.14l-.185-.06-.52-.187-.184-.074c-.13-.044-.262-.095-.39-.143l-.163-.067a16 16 0 0 1-.487-.191l-.158-.067c-.118-.051-.24-.1-.358-.15l-.147-.07c-.155-.064-.299-.133-.447-.2l-.129-.059c-.114-.055-.224-.106-.339-.165l-.125-.063c-.136-.063-.266-.137-.395-.207l-.103-.055c-.1-.056-.206-.111-.302-.162l-.107-.067q-.18-.108-.347-.214l-.073-.044-.27-.18-.084-.063-.293-.21-.043-.037-.225-.184-.066-.063-.228-.218-.023-.026-.177-.195-.044-.055-.162-.218-.004-.01-.118-.207-.026-.056-.085-.213c-1.537-5.129-3.583-7.688-10.762-16.028-4.605-5.353-5.408-9.95-5.397-12.561.007-1.453.272-2.293.272-2.293.255.21.516.409.782.612l.261.188c.181.129.358.262.543.39q.164.111.324.21c.17.119.34.226.509.34.118.074.232.147.354.217q.249.159.498.307c.125.073.25.14.372.213.165.096.336.192.505.28.125.078.253.14.382.21.17.09.347.178.517.266.129.063.258.13.388.192.177.085.353.173.533.254q.197.088.392.181a34 34 0 0 0 .94.41q.283.115.56.232.201.066.395.151l.586.217c.126.048.258.092.383.14.207.074.413.141.62.211.121.04.243.088.364.125l.66.21c.115.034.224.07.34.104q.361.11.733.213l.273.082q.471.126.944.247l.078.022c.689.17 1.39.336 2.094.48l.258.055c.266.052.523.107.786.159.118.018.231.036.35.062.232.04.464.085.7.122q.2.038.395.07.334.05.664.106c.14.02.28.037.416.06q.321.04.642.092c.144.018.295.036.438.059.207.025.416.055.626.077.148.02.295.033.446.052.203.022.412.044.615.063q.231.032.458.048c.203.026.405.04.608.06.152.01.306.029.461.04q.306.026.605.048c.155.014.306.025.461.033q.304.026.609.04c.15.011.302.026.453.03l.612.033.446.022c.207.01.409.019.62.026l.43.014c.221.011.432.011.65.019l.401.01c.261.005.52.012.786.015l.29.004h.528c.14 0 .284.007.428.007h.018c.328 0 .649-.007.973-.007.406-.004.808-.014 1.21-.022l.287-.007c.261-.007.516-.011.774-.019.125-.003.24-.01.365-.014q.348-.01.686-.026.194-.009.387-.019c.221-.01.435-.019.652-.03.133-.007.263-.01.391-.018.21-.019.417-.026.623-.037.133-.01.273-.022.402-.026q.305-.017.594-.04.21-.012.402-.03c.199-.007.39-.025.582-.04.133-.01.258-.019.391-.033l.572-.044.073-.007-.265.089c-2.935.954-5.383 1.95-7.356 2.986a27 27 0 0 0-1.227.682c-.985.59-1.822 1.19-2.515 1.814a9.5 9.5 0 0 0-1.11 1.154c-.873 1.092-1.309 2.227-1.32 3.414v.041l.019.207v.014a341 341 0 0 1 2.551 18.623l-.043-.011m-37.888-46.6 12.846-3.44-.513-13.17c7.588.856 17.45 11.533 20.72 15.305-1.942.125-6.293.509-10.857 1.534-6.08 1.371-10.272 3.377-12.525 5.987zm34.566 1.413 4.383 15.215c-12.867-.103-22.567-2.732-28.831-7.808a1.3 1.3 0 0 0-.398-.225 6 6 0 0 1 .295-.534c.24-.384.513-.745.826-1.092 5.678-6.294 23.32-6.968 23.32-6.968zm25.65 14.714h.003l.266-.055a52 52 0 0 1 1.283-.25l.133-.027 4.177 14.505c-.254-.011-.513-.026-.767-.04-23.253-1.218-26.874-2.814-27.416-3.212a1.36 1.36 0 0 0-.895-.616c.254-.62.674-1.217 1.22-1.788a11 11 0 0 1 1.287-1.12c.373-.277.77-.55 1.195-.811q.583-.362 1.22-.701c5.727-3.086 14.61-5.128 18.296-5.884m130.477-.332s.56.1 1.493.291l.192.04h.004c.807.166 1.862.391 3.086.679l.03.01q.504.118 1.043.251l.177.04q.193.052.39.096l.027.007q.27.073.556.144h.004c.192.056.391.1.587.155l.132.037c.362.092.73.192 1.092.29l.051.015a82 82 0 0 1 1.851.535l.011.004c2.784.833 5.682 1.858 8.148 3.053l.255.125a26 26 0 0 1 2.075 1.143c.42.262.823.534 1.195.811q.726.547 1.287 1.12c.545.572.97 1.17 1.22 1.789-.365.07-.696.29-.896.619-.545.394-4.162 1.995-27.42 3.208q-.38.022-.766.04l4.177-14.505v.003zm27.342-14.383.402-1.412s17.642.675 23.32 6.969q.468.518.826 1.091.16.263.288.535-.207.076-.395.224c-6.264 5.077-15.961 7.706-28.832 7.81zm35.911-1.618a1.38 1.38 0 0 0-.995-1.114l-11.795-3.156.472-12.075a1.373 1.373 0 0 0-1.364-1.423l-.155.007c-9.67 1.088-22.206 16.455-22.737 17.108l-.019.037-.1.147-.04.066-.08.203-.016.03-4.892 17.012c-8.705-.056-16.381-1.268-19.615-1.862-.984-.2-1.596-.31-1.681-.329l-.236-.018-.225.018-.066.019-.151.037-.074.037-.133.051-.074.048-.106.074-.074.059-.089.092-.063.074-.077.096-.051.092-.06.106-.033.1-.037.084-4.306 14.955c-15.902.774-36.74 1.202-58.777 1.202-22.03 0-42.872-.428-58.774-1.202L66.2 218.653l-.033-.084-.04-.1-.056-.106-.051-.092-.074-.096-.067-.074-.092-.092-.07-.06-.114-.073-.07-.048-.133-.051-.07-.037-.147-.037-.07-.019-.225-.018-.244.018c-.073.019-.69.13-1.677.332-3.23.59-10.906 1.803-19.611 1.858l-4.9-17.012-.011-.029-.081-.203-.037-.066-.1-.148-.022-.037c-.527-.652-13.063-16.02-22.733-17.107l-.155-.007a1.377 1.377 0 0 0-1.368 1.423l.472 12.074-11.79 3.156a1.371 1.371 0 0 0-.384 2.474l9.597 6.169a7.6 7.6 0 0 0-.918 2.175c-.159.534-2.04 7.48 5.401 16.123 6.95 8.075 9.022 10.622 10.493 15.53.833 2.779 6.375 4.833 10.873 6.068a62 62 0 0 0 3.37.83c.432 4.191.794 8.62.978 12.967l.015.125c.085.616 1.187 6.073 13.741 7.485 10.21 1.154 46.81 2.057 83.318 2.057 15.868 0 53.837-.203 63.754-2.068 9.808-1.844 13.28-6.674 13.424-6.876a1.4 1.4 0 0 0 .244-.727c.18-4.332.535-8.75.966-12.963a64 64 0 0 0 3.37-.83c4.498-1.235 10.036-3.289 10.872-6.069 1.468-4.907 3.536-7.455 10.49-15.529 7.455-8.657 5.56-15.61 5.401-16.127a7.7 7.7 0 0 0-.914-2.172l9.596-6.168c.454-.295.698-.826.612-1.36"/><g fill="#f4a00f"><path d="M55.596 253.605h1.707c1.522 0 2.558-.907 2.558-2.854 0-1.865-.744-2.934-2.662-2.934h-1.603zm-3.839-8.613h6.718c3.89 0 5.228 2.854 5.228 5.704 0 3.949-2.426 5.733-6.054 5.733h-2.053v7.6h-3.839zM71.67 261.573c2.268 0 2.64-1.946 2.64-7.064 0-5.092-.372-7.064-2.64-7.064-2.267 0-2.64 1.972-2.64 7.064 0 5.118.373 7.064 2.64 7.064m0-16.952c5.76 0 6.479 4.103 6.479 9.888 0 5.789-.72 9.888-6.478 9.888-5.76 0-6.478-4.1-6.478-9.888 0-5.785.719-9.888 6.478-9.888M84.255 253.307h1.596c1.84 0 2.88-.796 2.88-2.85 0-1.759-.933-2.64-2.666-2.64h-1.81zm-3.842-8.314h7.094c3.144 0 5.062 1.652 5.062 4.903 0 2.533-1.014 4.24-3.17 4.694v.055c2.613.343 3.011 1.785 3.063 5.807.03 2.002.133 3.038.855 3.414v.162h-4.159c-.372-.538-.453-1.253-.479-2.002l-.107-3.65c-.055-1.493-.723-2.4-2.267-2.4h-2.05v8.052h-3.842zM105.897 244.992v3.15h-4.159v15.886H97.9v-15.887h-4.159v-3.149zM116.801 244.992l2.688 14.077h.085l2.824-14.077h3.971l-4.376 19.036h-4.926l-4.369-19.036zM131.007 256.854h3.732l-1.84-8.554h-.056zm-.509-11.86h4.746l5.04 19.031h-3.997l-.881-4.026h-5.066l-.878 4.026h-4.004zM141.615 264.026v-19.032h3.838v15.886h6.798v3.146zM164.593 244.992v3.15h-6.8v4.475h6.402v3.145h-6.401v5.121h7.068v3.145h-10.906v-19.036zM173.174 244.992h10.637v3.15h-6.795v4.475h6.397v3.145h-6.397v8.266h-3.842zM186.183 264.025h-3.517v-4.16h3.517zM197.084 251.416c0-2.772-.557-3.97-2.29-3.97-1.947 0-2.4 1.95-2.4 7.333 0 5.755.8 6.795 2.455 6.795 1.383 0 2.397-.72 2.397-4.827h3.834c0 4.108-1.01 7.65-6.05 7.65-5.755 0-6.474-4.1-6.474-9.887 0-5.782.719-9.889 6.474-9.889 5.494 0 5.9 4.023 5.9 6.795zM206.896 264.025h-3.517v-4.16h3.517zM114.316 7.815c-1.77.921-3.244 2.042-4.089 3.395-.97 1.545-1.036 3.304-.206 5.387.973 2.437 2.393 3.89 4.35 4.443 3.274.921 7.592-.834 10.541-2.482-3.2-1.71-8.026-5.077-10.596-10.743m2.02 17.037c-.987 0-1.975-.118-2.93-.387-3.05-.86-5.302-3.064-6.692-6.548-1.265-3.171-1.095-6.062.497-8.602 1.302-2.072 3.47-3.665 5.94-4.881a20.6 20.6 0 0 1-.579-4.332l3.562-.1c.03 1.077.158 2.09.365 3.045C122.177 1.071 128.102.621 128.51.592l.25 3.55c-2.33.17-6.979.834-11.13 2.275 3.414 7.319 11.48 10.154 11.577 10.19l3.2 1.092-2.71 2.02c-.317.24-6.957 5.133-13.362 5.133"/><path d="M132.186 18.638c2.953 1.622 7.19 3.31 10.397 2.4 1.954-.553 3.374-2.006 4.347-4.443.83-2.08.763-3.842-.206-5.387-.671-1.073-1.737-1.998-3.038-2.798-2.917 5.39-8.086 8.598-11.5 10.228m8.425 6.216c-6.405 0-13.041-4.893-13.366-5.136l-2.805-2.098 3.348-1.029c.114-.033 8.738-2.798 12.653-9.763-4.406-1.725-9.711-2.503-12.255-2.684l.254-3.55c.443.03 7.315.553 13.361 2.957.306-1.103.498-2.286.535-3.551l3.558.1a18.7 18.7 0 0 1-.819 5.014c1.933 1.117 3.595 2.496 4.664 4.203 1.593 2.536 1.76 5.43.498 8.598-1.393 3.488-3.642 5.689-6.691 6.551-.963.27-1.943.388-2.935.388"/></g></svg>