<svg xmlns="http://www.w3.org/2000/svg" width="754.225" height="961.56" viewBox="0 0 754.225 961.56"><clipPath id="a"><path d="M0 1080h1080V0H0z"/></clipPath><g clip-path="url(#a)" transform="matrix(1.33333 0 0 -1.33333 -342.888 1200.046)"><path fill="#fff" d="M720.39 890c100.416 0 92.242-89.324 92.242-89.324v-385.32c0-8.757-5.256-75.899-44.954-122.602-46.632-54.862-108.005-61.886-144.79-71.224-36.776-9.342-82.905-31.53-82.905-31.53s-46.118 22.188-82.88 31.53c-36.776 9.338-98.152 16.362-144.782 71.224-39.701 46.703-44.955 113.845-44.955 122.602v385.32S259.193 890 359.608 890z"/><g fill="none"><path stroke="#06002b" stroke-width="20.069" d="M720.39 890c100.416 0 92.242-89.324 92.242-89.324v-385.32c0-8.757-5.256-75.899-44.954-122.602-46.632-54.862-108.005-61.886-144.79-71.224-36.776-9.342-82.905-31.53-82.905-31.53s-46.118 22.188-82.88 31.53c-36.776 9.338-98.152 16.362-144.782 71.224-39.701 46.703-44.955 113.845-44.955 122.602v385.32S259.193 890 359.608 890z"/><path stroke="#e60000" stroke-width="3.041" d="M564.802 467.605s4.815-.874 15.906 12.116"/><path stroke="#e60000" stroke-width="3.041" d="M564.945 451.696s1.169 17.806-3.066 29.774M510.466 491.107s14.642 11.961 29.503 11.961 29.499-11.961 29.499-11.961"/><path stroke="#e60000" stroke-width="3.041" d="M507.549 496.505c.585-4.669 10.512-14.885 10.512-14.885 7.387 6.908 21.895 6.894 21.895 6.894h.028s14.503.014 21.895-6.894c0 0 9.928 10.216 10.512 14.885"/><path stroke="#e60000" stroke-width="3.041" d="M547.041 487.895s4.015-15.181 3.574-28.754M515.138 467.605s-4.815-.874-15.906 12.116"/><path stroke="#e60000" stroke-width="3.041" d="M514.994 451.696s-1.169 17.806 3.066 29.774M532.898 487.895s-4.015-15.181-3.579-28.754"/><path stroke="#e60000" stroke-width="3.041" d="M539.984 512.902c-23.323 0-42.237-18.91-42.237-42.24 0-23.328 18.914-42.238 42.237-42.238 23.333 0 42.243 18.91 42.243 42.238 0 23.33-18.91 42.24-42.243 42.24z"/></g><g fill="#06002b"><path d="m332.544 603.572 3.739 8.123q6.828-2.827 9.695-7.785 2.865-4.951 1.995-11.903-1.078-8.607-7.65-13.409-6.572-4.804-16.764-3.523-10.788 1.348-16.055 7.666-5.27 6.315-4.135 15.393.996 7.924 6.3 12.287 3.14 2.597 8.509 3.423l.98-8.892q-3.453-.345-5.701-2.532-2.25-2.187-2.686-5.663-.602-4.808 2.47-8.226 3.074-3.424 10.792-4.389 8.192-1.026 12.037 1.483 3.848 2.511 4.437 7.224.436 3.479-1.459 6.26-1.897 2.78-6.504 4.463M336.708 629.77l.594 1.677q1.012 2.855 1.942 4.008.925 1.15 2.59 1.885 1.664.733 7.577 2.228l11.053 2.824 3.512 9.908-9.781-2.173q-5.837-1.271-8.331-2.352-2.497-1.088-5.017-3.217c.755 3.787.451 6.937-.915 9.46q-2.044 3.783-6.664 5.418-3.639 1.29-7.101.501-3.459-.788-5.622-3.375-2.164-2.593-4.494-9.168l-6.182-17.435 41.03-14.547 2.937 8.283zm-14.671 12.476c1.194 3.359 1.953 5.359 2.286 5.996q1.049 1.896 2.717 2.551 1.663.651 3.734-.081 1.847-.654 2.781-1.931.933-1.276.913-2.937-.025-1.664-2.137-7.625l-2.173-6.13-10.411 3.694zM383.317 683.279l-17.336-28.208-37.09 22.796 16.903 27.496 6.274-3.854-12.299-20.012 8.222-5.053 11.443 18.621 6.25-3.84-11.446-18.621 10.097-6.204 12.732 20.719zM397.686 699.613l-6.801-6.681-37.921 23.771 6.42 6.305 25.634-16.731-15.276 26.907 7.455 7.326 26.753-16.343-16.544 26.373 6.313 6.202 22.966-38.463-6.651-6.535-28.992 17.14zM454.939 742.622l-28.387-17.032-22.398 37.327 27.68 16.608 3.788-6.314-20.142-12.086 4.966-8.274 18.742 11.242 3.771-6.288-18.74-11.244 6.096-10.16 20.856 12.512zM475.904 796.17l-5.608-46.382 9.027 2.317 1.025 10.47 16.848 4.324 6.137-8.633 9.261 2.374-27.692 37.839zm6.921-8.71 9.816-14.157-11.498-2.949zM545.978 761.945l-30.595-1.662-2.343 43.11 8.772.476 1.95-35.789 21.823 1.186zM583.094 757.317l-32.818 4.386 5.768 43.148 31.995-4.278-.978-7.299-23.28 3.114-1.279-9.568 21.665-2.894-.972-7.272-21.665 2.898-1.572-11.745 24.109-3.222zM594.027 753.97l-9.966 3.431 21.459 16.641-5.984 24.068 9.722-3.341 3.703-16.065 12.639 10.444 9.63-3.312-19.682-15.588 6.784-26.013-10.023 3.449-4.23 17.375zM662.122 771.21l-37.504-27.851 7.896-4.958 8.298 6.463 14.737-9.254-2.036-10.394 8.097-5.086 8.389 46.136zm-1.552-11.017-3.507-16.869-10.061 6.314zM669.098 712.55l-5.845 5.704 30.409 31.153 6.118-5.972-7.556-33.247 20.305 20.803 5.845-5.702-30.404-31.156-6.31 6.159 7.268 32.574zM701.26 675.505c1.797-2.702 3.493-4.691 5.078-5.962 2.132-1.699 4.24-2.767 6.32-3.213 2.755-.591 5.744-.462 8.988.388 2.649.699 5.461 2.041 8.446 4.03q5.087 3.394 7.766 6.894 2.682 3.5 3.565 7.371a14.6 14.6 0 0 1-.306 7.685c-.595 1.887-1.893 4.34-3.905 7.354l-8.916 13.364-36.216-24.151zm31.635 16.994c.618-1.565.8-3.074.556-4.523q-.375-2.172-2.122-4.412c-1.17-1.495-3.158-3.175-5.956-5.043-2.803-1.866-5.174-3.095-7.129-3.682-1.95-.587-3.545-.726-4.767-.417-1.236.312-2.391.961-3.483 1.948q-1.251 1.127-3.291 4.192l-3.646 5.459 23.993 15.998 2.19-3.287q2.981-4.471 3.655-6.233M734.457 653.306l.656-1.655c.748-1.878 1.136-3.308 1.174-4.296q.059-1.474-.709-3.123-.768-1.646-4.245-6.665l-6.463-9.395 3.871-9.774 5.936 8.071c2.377 3.198 3.948 5.617 4.729 7.254.781 1.638 1.332 3.545 1.662 5.722q2.883-5.023 6.914-6.523 4.024-1.505 8.581.302c2.391.947 4.288 2.379 5.682 4.293q2.086 2.871 2.007 6.245-.071 3.371-2.644 9.857l-6.813 17.2-40.47-16.035 3.234-8.174zm19.26.252q1.963-4.969 2.223-6.018c.302-1.414.182-2.647-.369-3.709q-.825-1.585-2.865-2.395-1.825-.721-3.363-.376c-1.035.233-1.902.769-2.626 1.615q-1.072 1.266-3.401 7.145l-2.401 6.044 10.272 4.07zM774.88 605.271 729.413 616l1.294-9.234 10.296-2.183 2.424-17.228-9.261-5.143 1.327-9.468 40.681 23.323zm-9.424-5.915-15.159-8.187-1.652 11.761zM328.096 459.348l-4.159 7.745 38.353 20.594 14.119-26.291-6.49-3.485-9.96 18.551-9.077-4.877 8.598-16.007-6.487-3.488-8.598 16.014zM350.903 431.007q-.927-8.195 5.251-15.684 6.097-7.401 14.342-8.039 8.238-.634 16.371 6.07c5.469 4.509 8.514 9.51 9.134 15.016q.933 8.25-5.186 15.678c-2.254 2.731-4.688 4.782-7.297 6.144q-2.932 1.546-6.604 1.848a20.4 20.4 0 0 1-7.185-.669q-4.746-1.334-9.881-5.565-8.02-6.614-8.945-14.799m25.723 12.581q4.993-.195 8.447-4.391c2.307-2.793 3.205-5.816 2.704-9.067-.505-3.248-2.678-6.46-6.527-9.632-3.898-3.21-7.532-4.753-10.91-4.624s-6.178 1.543-8.408 4.25q-3.342 4.052-2.57 9.117t6.477 9.762c3.864 3.186 7.46 4.717 10.787 4.585M384.242 393.82c.553-5.467 3.375-10.2 8.457-14.21q7.534-5.938 15.719-4.811 8.188 1.127 14.716 9.405c4.386 5.563 6.299 11.106 5.739 16.611q-.841 8.263-8.396 14.22-4.175 3.29-8.435 4.46c-2.13.589-4.41.728-6.846.402a20.6 20.6 0 0 1-6.878-2.175q-4.357-2.32-8.475-7.536-6.436-8.166-5.601-16.366m22.468 17.755c3.279.58 6.341-.249 9.187-2.496q4.264-3.364 4.563-8.288c.299-4.924-1.248-6.88-4.336-10.794-3.124-3.967-6.351-6.243-9.675-6.837q-4.995-.887-9.12 2.366-4.129 3.256-4.448 8.366c-.214 3.411 1.207 7.047 4.258 10.918 3.101 3.934 6.291 6.186 9.571 6.765M435.551 353.48l-7.819 4.015 16.524 32.177-11.491 5.902 3.363 6.545 30.769-15.801-3.362-6.55-11.459 5.889zM487.268 354.026q1.565-1.084 2.115-2.649c.364-1.05.379-2.199.029-3.459-.412-1.486-1.138-2.568-2.172-3.235-1.041-.665-2.219-.943-3.541-.823q-1.304.084-5.879 1.355l-7.835 2.171 3.109 11.22 6.832-1.897q5.781-1.596 7.342-2.683m-13.434-15.317c5.402-1.456 8.837-2.304 10.286-2.544q3.479-.563 6.231.412 2.751.98 4.827 3.316c1.389 1.557 2.348 3.286 2.875 5.198q1.007 3.63-.307 6.894c-.876 2.171-2.491 3.986-4.837 5.438q3.053.482 5.326 2.501 2.271 2.013 3.09 4.968c.503 1.811.522 3.565.072 5.261q-.682 2.552-2.247 4.398-1.566 1.854-3.9 2.946c-1.552.729-3.989 1.558-7.306 2.473l-16.762 4.652-11.623-41.955zm15.938 33.082q2.048-.848 2.783-2.357.738-1.517.196-3.459c-.373-1.361-1.092-2.333-2.151-2.937q-1.59-.897-3.835-.551c-.829.125-2.894.652-6.187 1.562l-5.551 1.543 2.688 9.697 4.865-1.347q5.976-1.66 7.192-2.151M520.418 373.823l-20.137-42.156 9.3-.69 4.316 9.591 17.354-1.288 3.056-10.143 9.534-.709-14.157 44.705zm3.775-10.464 4.787-16.557-11.849.881zM579.453 332.055l-30.505-2.913-4.101 42.981 8.749.833 3.406-35.679 21.756 2.075zM617.25 341.613l-29.618-7.862-11.077 41.73 8.494 2.252 9.194-34.64 21.124 5.606zM653.177 376.166l8.792 1.624c1.082-4.805.828-8.945-.772-12.403q-2.394-5.203-8.576-8.5-7.653-4.077-15.365-1.475-7.718 2.6-12.547 11.671c-3.407 6.391-4.403 12.241-2.99 17.535 1.418 5.299 4.815 9.38 10.2 12.25q7.042 3.76 13.669 1.936c2.621-.709 5.188-2.367 7.704-4.983l-6.703-5.922q-2.275 2.625-5.356 3.201c-2.06.383-4.115.024-6.18-1.073q-4.269-2.277-5.294-6.761c-.686-2.989.196-6.769 2.635-11.35 2.591-4.858 5.308-7.847 8.149-8.978 2.846-1.13 5.668-.953 8.466.542 2.06 1.096 3.483 2.697 4.269 4.795q1.178 3.155-.101 7.891M700.896 391.377l-23.979-19.082-26.878 33.786 6.875 5.476 22.317-28.052 17.099 13.612zM689.551 408.395l-17.243 15.552 5.888 6.53 17.507-15.796c2.774-2.506 4.652-4.049 5.62-4.628 1.576-.92 3.238-1.208 4.987-.882s3.444 1.404 5.088 3.229q2.508 2.771 2.645 5.213c.091 1.619-.326 3.028-1.256 4.216q-1.401 1.776-5.231 5.234l-17.88 16.134 5.883 6.528 16.979-15.317c3.881-3.503 6.463-6.149 7.747-7.949q1.926-2.7 2.3-5.612c.245-1.945-.024-4.001-.8-6.176-.776-2.18-2.319-4.547-4.628-7.11-2.784-3.085-5.256-5.102-7.403-6.056q-3.234-1.429-6.189-1.269c-1.979.095-3.723.565-5.237 1.399q-3.357 1.866-8.777 6.76M731.75 460.478c.973.817 2.008 1.265 3.114 1.346 1.107.077 2.218-.213 3.344-.881q1.989-1.182 2.554-2.947.552-1.765-.139-3.634-.423-1.237-2.85-5.316l-4.154-6.997-10.004 5.944 3.617 6.103c2.046 3.435 3.546 5.563 4.518 6.382m11.254-16.992q4.242 7.254 5.156 9.271 1.457 3.202 1.24 6.121c-.148 1.938-.795 3.785-1.935 5.529q-1.705 2.621-4.264 4.136c-2.156 1.282-4.403 1.79-6.732 1.512-2.323-.278-4.498-1.353-6.52-3.241q.345 3.077-1.006 5.795a10.16 10.16 0 0 1-3.986 4.283q-2.428 1.445-5.065 1.452c-1.758.005-3.363-.331-4.829-1.016s-2.755-1.679-3.866-2.989c-1.112-1.308-2.545-3.446-4.303-6.401l-8.887-14.968 37.432-22.225zm-27.74 24.071c.901 1.164 1.907 1.854 3.009 2.067 1.102.208 2.232-.034 3.387-.718 1.213-.719 1.965-1.668 2.266-2.851.297-1.176.144-2.463-.469-3.845q-.51-1.147-3.134-5.565l-2.941-4.954-8.653 5.141 2.573 4.338q3.17 5.337 3.962 6.387"/></g><path fill="#f2d41a" d="M613.69 694.336s-18.129-14.079-35.789-13.856c-17.66.221-27.932 7.211-29.671 8.691-1.729 1.481-8.246 6.087-8.246 6.087s6.626 4.444 8.399 5.881c1.768 1.437 12.217 8.166 29.877 7.946 17.655-.22 35.43-14.749 35.43-14.749"/><path fill="none" stroke="#06002b" stroke-width="1.703" d="M613.69 694.336s-18.129-14.079-35.789-13.856c-17.66.221-27.932 7.211-29.671 8.691-1.729 1.481-8.246 6.087-8.246 6.087s6.626 4.444 8.399 5.881c1.768 1.437 12.217 8.166 29.877 7.946 17.655-.22 35.43-14.749 35.43-14.749z"/><path fill="#f2d41a" d="M615.185 694.566s-22.954-.186-36.857 10.708c-13.899 10.893-17.828 22.683-18.302 24.911-.48 2.231-2.861 9.843-2.861 9.843s7.963-.488 10.239-.421c2.28.069 14.67-.923 28.569-11.817 13.903-10.893 19.212-33.224 19.212-33.224"/><path fill="none" stroke="#06002b" stroke-width="1.703" d="M615.185 694.566s-22.954-.186-36.857 10.708c-13.899 10.893-17.828 22.683-18.302 24.911-.48 2.231-2.861 9.843-2.861 9.843s7.963-.488 10.239-.421c2.28.069 14.67-.923 28.569-11.817 13.903-10.893 19.212-33.224 19.212-33.224z"/><path fill="#f2d41a" d="M649.79 666.896s-21.469-8.114-38.281-2.705-24.573 15.114-25.795 17.042c-1.221 1.924-6.084 8.243-6.084 8.243s7.637 2.297 9.75 3.15c2.117.851 14.08 4.207 30.892-1.205 16.812-5.409 29.518-24.525 29.518-24.525"/><path fill="none" stroke="#06002b" stroke-width="1.703" d="M649.79 666.896s-21.469-8.114-38.281-2.705-24.573 15.114-25.795 17.042c-1.221 1.924-6.084 8.243-6.084 8.243s7.637 2.297 9.75 3.15c2.117.851 14.08 4.207 30.892-1.205 16.812-5.409 29.518-24.525 29.518-24.525z"/><path fill="#f2d41a" d="M650.197 665.46s-21.761 7.304-31.357 22.13c-9.592 14.828-9.463 27.256-9.19 29.52s.503 10.236.503 10.236 7.369-3.059 9.549-3.735c2.175-.677 13.563-5.653 23.16-20.479 9.587-14.828 7.335-37.672 7.335-37.672"/><path fill="none" stroke="#06002b" stroke-width="1.703" d="M650.197 665.46s-21.761 7.304-31.357 22.13c-9.592 14.828-9.463 27.256-9.19 29.52s.503 10.236.503 10.236 7.369-3.059 9.549-3.735c2.175-.677 13.563-5.653 23.16-20.479 9.587-14.828 7.335-37.672 7.335-37.672z"/><path fill="#f2d41a" d="M674.57 629.255s-22.925-1.027-37.222 9.345c-14.287 10.378-18.646 22.017-19.207 24.226s-3.215 9.731-3.215 9.731 7.972-.197 10.248-.046c2.271.151 14.689-.386 28.981-10.758 14.292-10.375 20.415-32.498 20.415-32.498"/><path fill="none" stroke="#06002b" stroke-width="1.703" d="M674.57 629.255s-22.925-1.027-37.222 9.345c-14.287 10.378-18.646 22.017-19.207 24.226s-3.215 9.731-3.215 9.731 7.972-.197 10.248-.046c2.271.151 14.689-.386 28.981-10.758 14.292-10.375 20.415-32.498 20.415-32.498z"/><path fill="#f2d41a" d="M675.95 628.364s-18.767 13.216-23.725 30.169c-4.954 16.951-1.28 28.823-.369 30.914.91 2.091 3.411 9.666 3.411 9.666s6.185-5.035 8.078-6.307 11.383-9.292 16.342-26.246c4.954-16.95-3.737-38.196-3.737-38.196"/><path fill="none" stroke="#06002b" stroke-width="1.703" d="M675.95 628.364s-18.767 13.216-23.725 30.169c-4.954 16.951-1.28 28.823-.369 30.914.91 2.091 3.411 9.666 3.411 9.666s6.185-5.035 8.078-6.307 11.383-9.292 16.342-26.246c4.954-16.95-3.737-38.196-3.737-38.196z"/><path fill="#f2d41a" d="M688.114 586.205s-22.211 5.788-32.804 19.921c-10.588 14.134-11.312 26.54-11.197 28.816.115 2.278-.201 10.248-.201 10.248s7.56-2.542 9.778-3.069c2.218-.526 13.923-4.704 24.516-18.84 10.588-14.134 9.908-37.076 9.908-37.076"/><path fill="none" stroke="#06002b" stroke-width="1.703" d="M688.114 586.205s-22.211 5.788-32.804 19.921c-10.588 14.134-11.312 26.54-11.197 28.816.115 2.278-.201 10.248-.201 10.248s7.56-2.542 9.778-3.069c2.218-.526 13.923-4.704 24.516-18.84 10.588-14.134 9.908-37.076 9.908-37.076z"/><path fill="#f2d41a" d="M688.837 584.48S675 602.794 675.46 620.449c.455 17.657 7.58 27.838 9.079 29.551 1.509 1.715 6.2 8.161 6.2 8.161s4.35-6.681 5.768-8.47c1.413-1.787 8.006-12.325 7.551-29.978-.46-17.657-15.221-35.233-15.221-35.233"/><path fill="none" stroke="#06002b" stroke-width="1.703" d="M688.837 584.48S675 602.794 675.46 620.449c.455 17.657 7.58 27.838 9.079 29.551 1.509 1.715 6.2 8.161 6.2 8.161s4.35-6.681 5.768-8.47c1.413-1.787 8.006-12.325 7.551-29.978-.46-17.657-15.221-35.233-15.221-35.233z"/><path fill="#f2d41a" d="M687.386 540.022s-19.265 12.483-24.875 29.228c-5.606 16.747-2.391 28.75-1.562 30.88.824 2.12 3.033 9.788 3.033 9.788s6.377-4.793 8.312-5.989c1.945-1.197 11.743-8.849 17.348-25.593 5.611-16.747-2.256-38.314-2.256-38.314"/><path fill="none" stroke="#06002b" stroke-width="1.703" d="M687.386 540.022s-19.265 12.483-24.875 29.228c-5.606 16.747-2.391 28.75-1.562 30.88.824 2.12 3.033 9.788 3.033 9.788s6.377-4.793 8.312-5.989c1.945-1.197 11.743-8.849 17.348-25.593 5.611-16.747-2.256-38.314-2.256-38.314z"/><path fill="#f2d41a" d="M686.897 539.13s-7.393 21.735-1.418 38.355c5.969 16.62 15.93 24.053 17.899 25.205 1.964 1.155 8.447 5.807 8.447 5.807s2.036-7.709 2.817-9.855c.781-2.141 3.727-14.213-2.242-30.833-5.97-16.62-25.503-28.679-25.503-28.679"/><path fill="none" stroke="#06002b" stroke-width="1.703" d="M686.897 539.13s-7.393 21.735-1.418 38.355c5.969 16.62 15.93 24.053 17.899 25.205 1.964 1.155 8.447 5.807 8.447 5.807s2.036-7.709 2.817-9.855c.781-2.141 3.727-14.213-2.242-30.833-5.97-16.62-25.503-28.679-25.503-28.679z"/><path fill="#f2d41a" d="M671.968 497.312s-14.766 17.578-15.221 35.231c-.46 17.652 6.132 28.193 7.55 29.98 1.409 1.789 5.764 8.475 5.764 8.475s4.695-6.451 6.195-8.166c1.509-1.713 8.634-11.894 9.088-29.551.456-17.653-13.376-35.969-13.376-35.969"/><path fill="none" stroke="#06002b" stroke-width="1.703" d="M671.968 497.312s-14.766 17.578-15.221 35.231c-.46 17.652 6.132 28.193 7.55 29.98 1.409 1.789 5.764 8.475 5.764 8.475s4.695-6.451 6.195-8.166c1.509-1.713 8.634-11.894 9.088-29.551.456-17.653-13.376-35.969-13.376-35.969z"/><path fill="#f2d41a" d="M669.16 497.358s.316 22.954 11.508 36.618c11.192 13.657 23.069 17.324 25.306 17.755 2.243.429 9.899 2.643 9.899 2.643s-.662-7.951-.643-10.229c.02-2.281-1.24-14.642-12.432-28.301-11.197-13.664-33.638-18.486-33.638-18.486"/><path fill="none" stroke="#06002b" stroke-width="1.703" d="M669.16 497.358s.316 22.954 11.508 36.618c11.192 13.657 23.069 17.324 25.306 17.755 2.243.429 9.899 2.643 9.899 2.643s-.662-7.951-.643-10.229c.02-2.281-1.24-14.642-12.432-28.301-11.197-13.664-33.638-18.486-33.638-18.486z"/><path fill="#f2d41a" d="M642.618 460.843s-8.36 21.375-3.148 38.247c5.213 16.876 14.828 24.75 16.74 25.991 1.912 1.244 8.179 6.183 8.179 6.183s2.38-7.611 3.257-9.714c.877-2.106 4.369-14.033-.843-30.904-5.213-16.877-24.185-29.803-24.185-29.803"/><path fill="none" stroke="#06002b" stroke-width="1.703" d="M642.618 460.843s-8.36 21.375-3.148 38.247c5.213 16.876 14.828 24.75 16.74 25.991 1.912 1.244 8.179 6.183 8.179 6.183s2.38-7.611 3.257-9.714c.877-2.106 4.369-14.033-.843-30.904-5.213-16.877-24.185-29.803-24.185-29.803z"/><path fill="#f2d41a" d="M641.823 461.12s6.975 21.869 21.665 31.676c14.68 9.815 27.108 9.87 29.374 9.628 2.266-.24 10.243-.35 10.243-.35s-2.946-7.411-3.593-9.597c-.642-2.191-5.453-13.649-20.132-23.464-14.685-9.812-37.557-7.893-37.557-7.893"/><path fill="none" stroke="#06002b" stroke-width="1.703" d="M641.823 461.12s6.975 21.869 21.665 31.676c14.68 9.815 27.108 9.87 29.374 9.628 2.266-.24 10.243-.35 10.243-.35s-2.946-7.411-3.593-9.597c-.642-2.191-5.453-13.649-20.132-23.464-14.685-9.812-37.557-7.893-37.557-7.893z"/><path fill="#f2d41a" d="M604.51 435.776s-1.663 22.892 8.312 37.466 21.488 19.251 23.683 19.871c2.194.62 9.639 3.488 9.639 3.488s.019-7.977.239-10.248c.211-2.269.02-14.694-9.955-29.269-9.97-14.574-31.918-21.308-31.918-21.308"/><path fill="none" stroke="#06002b" stroke-width="1.703" d="M604.51 435.776s-1.663 22.892 8.312 37.466 21.488 19.251 23.683 19.871c2.194.62 9.639 3.488 9.639 3.488s.019-7.977.239-10.248c.211-2.269.02-14.694-9.955-29.269-9.97-14.574-31.918-21.308-31.918-21.308z"/><path fill="#f2d41a" d="M602.445 435.16s13.319 18.692 30.299 23.555c16.979 4.858 28.832 1.116 30.916.195 2.089-.923 9.644-3.46 9.644-3.46s-5.069-6.161-6.353-8.044c-1.279-1.887-9.352-11.333-26.331-16.194-16.98-4.865-38.175 3.948-38.175 3.948"/><path fill="none" stroke="#06002b" stroke-width="1.703" d="M602.445 435.16s13.319 18.692 30.299 23.555c16.979 4.858 28.832 1.116 30.916.195 2.089-.923 9.644-3.46 9.644-3.46s-5.069-6.161-6.353-8.044c-1.279-1.887-9.352-11.333-26.331-16.194-16.98-4.865-38.175 3.948-38.175 3.948z"/><path fill="#f2d41a" d="M560.739 422.96s5.62 22.257 19.667 32.955c14.057 10.696 26.456 11.518 28.732 11.418 2.281-.099 10.248.282 10.248.282s-2.486-7.582-2.994-9.805c-.513-2.221-4.604-13.956-18.657-24.655-14.047-10.698-36.996-10.195-36.996-10.195"/><path fill="none" stroke="#06002b" stroke-width="1.703" d="M560.739 422.96s5.62 22.257 19.667 32.955c14.057 10.696 26.456 11.518 28.732 11.418 2.281-.099 10.248.282 10.248.282s-2.486-7.582-2.994-9.805c-.513-2.221-4.604-13.956-18.657-24.655-14.047-10.698-36.996-10.195-36.996-10.195z"/><path fill="#f2d41a" d="M559.565 425.108s18.69 13.331 36.321 12.392c17.641-.939 27.621-8.344 29.293-9.893 1.672-1.553 7.991-6.42 7.991-6.42s-6.803-4.169-8.629-5.534c-1.825-1.361-12.538-7.661-30.174-6.722-17.635.944-34.802 16.177-34.802 16.177"/><path fill="none" stroke="#06002b" stroke-width="1.703" d="M559.565 425.108s18.69 13.331 36.321 12.392c17.641-.939 27.621-8.344 29.293-9.893 1.672-1.553 7.991-6.42 7.991-6.42s-6.803-4.169-8.629-5.534c-1.825-1.361-12.538-7.661-30.174-6.722-17.635.944-34.802 16.177-34.802 16.177z"/><path fill="#f2d41a" d="M539.984 403.384s.642 22.949 12.026 36.45c11.383 13.499 23.313 16.999 25.555 17.399 2.247.397 9.937 2.501 9.937 2.501s-.776-7.939-.791-10.217c-.009-2.283-1.442-14.625-12.83-28.123-11.389-13.506-33.897-18.01-33.897-18.01"/><path fill="none" stroke="#06002b" stroke-width="1.703" d="M539.984 403.384s.642 22.949 12.026 36.45c11.383 13.499 23.313 16.999 25.555 17.399 2.247.397 9.937 2.501 9.937 2.501s-.776-7.939-.791-10.217c-.009-2.283-1.442-14.625-12.83-28.123-11.389-13.506-33.897-18.01-33.897-18.01z"/><path fill="#f2d41a" d="M466.265 694.336s18.119-14.079 35.775-13.856c17.659.221 27.936 7.211 29.665 8.691 1.735 1.481 8.251 6.087 8.251 6.087s-6.626 4.444-8.399 5.881c-1.768 1.437-12.217 8.166-29.877 7.946-17.655-.22-35.415-14.749-35.415-14.749"/><path fill="none" stroke="#06002b" stroke-width="1.703" d="M466.265 694.336s18.119-14.079 35.775-13.856c17.659.221 27.936 7.211 29.665 8.691 1.735 1.481 8.251 6.087 8.251 6.087s-6.626 4.444-8.399 5.881c-1.768 1.437-12.217 8.166-29.877 7.946-17.655-.22-35.415-14.749-35.415-14.749z"/><path fill="#f2d41a" d="M464.77 694.566s22.944-.186 36.843 10.708 17.823 22.683 18.302 24.911c.479 2.231 2.855 9.843 2.855 9.843s-7.958-.488-10.238-.421c-2.276.069-14.665-.923-28.564-11.817-13.892-10.893-19.198-33.224-19.198-33.224"/><path fill="none" stroke="#06002b" stroke-width="1.703" d="M464.77 694.566s22.944-.186 36.843 10.708 17.823 22.683 18.302 24.911c.479 2.231 2.855 9.843 2.855 9.843s-7.958-.488-10.238-.421c-2.276.069-14.665-.923-28.564-11.817-13.892-10.893-19.198-33.224-19.198-33.224z"/><path fill="#f2d41a" d="M430.169 666.896s21.471-8.114 38.276-2.705c16.802 5.41 24.566 15.114 25.78 17.042 1.222 1.924 6.085 8.243 6.085 8.243s-7.634 2.297-9.747 3.15c-2.118.851-14.074 4.207-30.878-1.205-16.807-5.409-29.516-24.525-29.516-24.525"/><path fill="none" stroke="#06002b" stroke-width="1.703" d="M430.169 666.896s21.471-8.114 38.276-2.705c16.802 5.41 24.566 15.114 25.78 17.042 1.222 1.924 6.085 8.243 6.085 8.243s-7.634 2.297-9.747 3.15c-2.118.851-14.074 4.207-30.878-1.205-16.807-5.409-29.516-24.525-29.516-24.525z"/><path fill="#f2d41a" d="M429.766 665.46s21.759 7.304 31.35 22.13c9.587 14.828 9.458 27.256 9.185 29.52-.278 2.264-.508 10.236-.508 10.236s-7.359-3.059-9.535-3.735c-2.177-.677-13.563-5.653-23.157-20.479-9.594-14.828-7.335-37.672-7.335-37.672"/><path fill="none" stroke="#06002b" stroke-width="1.703" d="M429.766 665.46s21.759 7.304 31.35 22.13c9.587 14.828 9.458 27.256 9.185 29.52-.278 2.264-.508 10.236-.508 10.236s-7.359-3.059-9.535-3.735c-2.177-.677-13.563-5.653-23.157-20.479-9.594-14.828-7.335-37.672-7.335-37.672z"/><path fill="#f2d41a" d="M405.39 629.255s22.932-1.027 37.224 9.345c14.289 10.378 18.642 22.017 19.202 24.226s3.213 9.731 3.213 9.731-7.968-.197-10.244-.046c-2.268.151-14.686-.386-28.978-10.758-14.292-10.375-20.417-32.498-20.417-32.498"/><path fill="none" stroke="#06002b" stroke-width="1.703" d="M405.39 629.255s22.932-1.027 37.224 9.345c14.289 10.378 18.642 22.017 19.202 24.226s3.213 9.731 3.213 9.731-7.968-.197-10.244-.046c-2.268.151-14.686-.386-28.978-10.758-14.292-10.375-20.417-32.498-20.417-32.498z"/><path fill="#f2d41a" d="M404.015 628.364s18.767 13.216 23.721 30.169c4.956 16.951 1.281 28.823.371 30.914-.908 2.091-3.409 9.666-3.409 9.666s-6.188-5.035-8.08-6.307c-1.89-1.272-11.384-9.292-16.337-26.246-4.959-16.95 3.734-38.196 3.734-38.196"/><path fill="none" stroke="#06002b" stroke-width="1.703" d="M404.015 628.364s18.767 13.216 23.721 30.169c4.956 16.951 1.281 28.823.371 30.914-.908 2.091-3.409 9.666-3.409 9.666s-6.188-5.035-8.08-6.307c-1.89-1.272-11.384-9.292-16.337-26.246-4.959-16.95 3.734-38.196 3.734-38.196z"/><path fill="#f2d41a" d="M391.848 586.205s22.214 5.788 32.804 19.921c10.588 14.134 11.317 26.54 11.197 28.816-.118 2.278.201 10.248.201 10.248s-7.56-2.542-9.778-3.069c-2.218-.526-13.923-4.704-24.514-18.84-10.59-14.134-9.91-37.076-9.91-37.076"/><path fill="none" stroke="#06002b" stroke-width="1.703" d="M391.848 586.205s22.214 5.788 32.804 19.921c10.588 14.134 11.317 26.54 11.197 28.816-.118 2.278.201 10.248.201 10.248s-7.56-2.542-9.778-3.069c-2.218-.526-13.923-4.704-24.514-18.84-10.59-14.134-9.91-37.076-9.91-37.076z"/><path fill="#f2d41a" d="M391.122 584.48s13.836 18.314 13.381 35.969c-.455 17.657-7.579 27.838-9.084 29.551-1.504 1.715-6.197 8.161-6.197 8.161s-4.355-6.681-5.766-8.47c-1.416-1.787-8.006-12.325-7.553-29.978.458-17.657 15.219-35.233 15.219-35.233"/><path fill="none" stroke="#06002b" stroke-width="1.703" d="M391.122 584.48s13.836 18.314 13.381 35.969c-.455 17.657-7.579 27.838-9.084 29.551-1.504 1.715-6.197 8.161-6.197 8.161s-4.355-6.681-5.766-8.47c-1.416-1.787-8.006-12.325-7.553-29.978.458-17.657 15.219-35.233 15.219-35.233z"/><path fill="#f2d41a" d="M392.574 540.022s19.264 12.483 24.873 29.228c5.61 16.747 2.395 28.75 1.566 30.88-.826 2.12-3.032 9.788-3.032 9.788s-6.377-4.793-8.318-5.989c-1.94-1.197-11.735-8.849-17.343-25.593-5.608-16.747 2.254-38.314 2.254-38.314"/><path fill="none" stroke="#06002b" stroke-width="1.703" d="M392.574 540.022s19.264 12.483 24.873 29.228c5.61 16.747 2.395 28.75 1.566 30.88-.826 2.12-3.032 9.788-3.032 9.788s-6.377-4.793-8.318-5.989c-1.94-1.197-11.735-8.849-17.343-25.593-5.608-16.747 2.254-38.314 2.254-38.314z"/><path fill="#f2d41a" d="M393.067 539.13s7.39 21.735 1.416 38.355c-5.972 16.62-15.932 24.053-17.897 25.205-1.967 1.155-8.446 5.807-8.446 5.807s-2.037-7.709-2.818-9.855c-.781-2.141-3.734-14.213 2.24-30.833 5.972-16.62 25.505-28.679 25.505-28.679"/><path fill="none" stroke="#06002b" stroke-width="1.703" d="M393.067 539.13s7.39 21.735 1.416 38.355c-5.972 16.62-15.932 24.053-17.897 25.205-1.967 1.155-8.446 5.807-8.446 5.807s-2.037-7.709-2.818-9.855c-.781-2.141-3.734-14.213 2.24-30.833 5.972-16.62 25.505-28.679 25.505-28.679z"/><path fill="#f2d41a" d="M407.996 497.312s14.764 17.578 15.219 35.231c.455 17.652-6.133 28.193-7.548 29.98-1.414 1.789-5.766 8.475-5.766 8.475s-4.696-6.451-6.2-8.166c-1.502-1.713-8.629-11.894-9.084-29.551-.457-17.653 13.379-35.969 13.379-35.969"/><path fill="none" stroke="#06002b" stroke-width="1.703" d="M407.996 497.312s14.764 17.578 15.219 35.231c.455 17.652-6.133 28.193-7.548 29.98-1.414 1.789-5.766 8.475-5.766 8.475s-4.696-6.451-6.2-8.166c-1.502-1.713-8.629-11.894-9.084-29.551-.457-17.653 13.379-35.969 13.379-35.969z"/><path fill="#f2d41a" d="M410.801 497.358s-.316 22.954-11.508 36.618c-11.192 13.657-23.067 17.324-25.306 17.755-2.238.429-9.901 2.643-9.901 2.643s.661-7.951.644-10.229c-.019-2.281 1.244-14.642 12.435-28.301 11.195-13.664 33.636-18.486 33.636-18.486"/><path fill="none" stroke="#06002b" stroke-width="1.703" d="M410.801 497.358s-.316 22.954-11.508 36.618c-11.192 13.657-23.067 17.324-25.306 17.755-2.238.429-9.901 2.643-9.901 2.643s.661-7.951.644-10.229c-.019-2.281 1.244-14.642 12.435-28.301 11.195-13.664 33.636-18.486 33.636-18.486z"/><path fill="#f2d41a" d="M437.341 460.843s8.363 21.375 3.148 38.247c-5.213 16.876-14.829 24.75-16.74 25.991-1.912 1.244-8.174 6.183-8.174 6.183s-2.383-7.611-3.26-9.714c-.877-2.106-4.372-14.033.843-30.904 5.215-16.877 24.183-29.803 24.183-29.803"/><path fill="none" stroke="#06002b" stroke-width="1.703" d="M437.341 460.843s8.363 21.375 3.148 38.247c-5.213 16.876-14.829 24.75-16.74 25.991-1.912 1.244-8.174 6.183-8.174 6.183s-2.383-7.611-3.26-9.714c-.877-2.106-4.372-14.033.843-30.904 5.215-16.877 24.183-29.803 24.183-29.803z"/><path fill="#f2d41a" d="M438.14 461.12s-6.98 21.869-21.663 31.676c-14.684 9.815-27.112 9.87-29.378 9.628-2.269-.24-10.244-.35-10.244-.35s2.947-7.411 3.594-9.597c.644-2.191 5.45-13.649 20.132-23.464 14.685-9.812 37.559-7.893 37.559-7.893"/><path fill="none" stroke="#06002b" stroke-width="1.703" d="M438.14 461.12s-6.98 21.869-21.663 31.676c-14.684 9.815-27.112 9.87-29.378 9.628-2.269-.24-10.244-.35-10.244-.35s2.947-7.411 3.594-9.597c.644-2.191 5.45-13.649 20.132-23.464 14.685-9.812 37.559-7.893 37.559-7.893z"/><path fill="#f2d41a" d="M475.435 435.776s1.668 22.892-8.303 37.466-21.481 19.251-23.675 19.871-9.639 3.488-9.639 3.488-.022-7.977-.237-10.248c-.216-2.269-.024-14.694 9.951-29.269 9.972-14.574 31.903-21.308 31.903-21.308"/><path fill="none" stroke="#06002b" stroke-width="1.703" d="M475.435 435.776s1.668 22.892-8.303 37.466-21.481 19.251-23.675 19.871-9.639 3.488-9.639 3.488-.022-7.977-.237-10.248c-.216-2.269-.024-14.694 9.951-29.269 9.972-14.574 31.903-21.308 31.903-21.308z"/><path fill="#f2d41a" d="M477.504 435.16s-13.319 18.692-30.289 23.555c-16.98 4.858-28.83 1.116-30.914.195-2.084-.923-9.644-3.46-9.644-3.46s5.068-6.161 6.35-8.044c1.281-1.887 9.357-11.333 26.334-16.194 16.977-4.865 38.163 3.948 38.163 3.948"/><path fill="none" stroke="#06002b" stroke-width="1.703" d="M477.504 435.16s-13.319 18.692-30.289 23.555c-16.98 4.858-28.83 1.116-30.914.195-2.084-.923-9.644-3.46-9.644-3.46s5.068-6.161 6.35-8.044c1.281-1.887 9.357-11.333 26.334-16.194 16.977-4.865 38.163 3.948 38.163 3.948z"/><path fill="#f2d41a" d="M519.2 422.96s-5.62 22.257-19.672 32.955c-14.047 10.696-26.439 11.518-28.715 11.418-2.278-.099-10.243.282-10.243.282s2.486-7.582 2.994-9.805c.51-2.221 4.602-13.956 18.642-24.655 14.045-10.698 36.994-10.195 36.994-10.195"/><path fill="none" stroke="#06002b" stroke-width="1.703" d="M519.2 422.96s-5.62 22.257-19.672 32.955c-14.047 10.696-26.439 11.518-28.715 11.418-2.278-.099-10.243.282-10.243.282s2.486-7.582 2.994-9.805c.51-2.221 4.602-13.956 18.642-24.655 14.045-10.698 36.994-10.195 36.994-10.195z"/><path fill="#f2d41a" d="M520.375 425.108s-18.69 13.331-36.321 12.392c-17.626-.939-27.601-8.344-29.273-9.893-1.67-1.553-7.99-6.42-7.99-6.42s6.804-4.169 8.627-5.534c1.825-1.361 12.533-7.661 30.16-6.722 17.63.944 34.797 16.177 34.797 16.177"/><path fill="none" stroke="#06002b" stroke-width="1.703" d="M520.375 425.108s-18.69 13.331-36.321 12.392c-17.626-.939-27.601-8.344-29.273-9.893-1.67-1.553-7.99-6.42-7.99-6.42s6.804-4.169 8.627-5.534c1.825-1.361 12.533-7.661 30.16-6.722 17.63.944 34.797 16.177 34.797 16.177z"/><path fill="#f2d41a" d="M539.956 403.384s-.642 22.949-12.026 36.45c-11.388 13.499-23.313 16.999-25.555 17.399-2.247.397-9.934 2.501-9.934 2.501s.771-7.939.786-10.217c.014-2.283 1.449-14.625 12.832-28.123 11.384-13.506 33.897-18.01 33.897-18.01"/><path fill="none" stroke="#06002b" stroke-width="1.703" d="M539.956 403.384s-.642 22.949-12.026 36.45c-11.388 13.499-23.313 16.999-25.555 17.399-2.247.397-9.934 2.501-9.934 2.501s.771-7.939.786-10.217c.014-2.283 1.449-14.625 12.832-28.123 11.384-13.506 33.897-18.01 33.897-18.01z"/><path fill="#f2d41a" d="M539.984 403.384s-14.301 17.957-14.301 35.619c0 17.657 6.861 28.02 8.322 29.771s5.979 8.32 5.979 8.32 4.528-6.569 5.989-8.32c1.456-1.751 8.317-12.114 8.317-29.771 0-17.662-14.306-35.619-14.306-35.619"/><path fill="none" stroke="#06002b" stroke-width="1.703" d="M539.984 403.384s-14.301 17.957-14.301 35.619c0 17.657 6.861 28.02 8.322 29.771s5.979 8.32 5.979 8.32 4.528-6.569 5.989-8.32c1.456-1.751 8.317-12.114 8.317-29.771 0-17.662-14.306-35.619-14.306-35.619z"/><path fill="#e60000" d="M483.507 548.322s4.087-1.169 6.274-5.112c1.145-2.056 1.461-5.4 1.461-5.4s-4.837.307-7.876-2.335c-5.623-4.873-1.605-11.822-1.605-11.822s4.664 4.381 6.125 4.669c1.459.292 3.356.292 4.084.146.729-.146 1.752-1.603 1.752-1.603s-2.772-3.794-2.044-6.568c.729-2.774 4.377-8.318 4.377-8.318s-.292 4.521 1.169 7.151c1.456 2.628 2.189 3.062 3.354 3.208 1.169.146 3.899-1.351 6.281-4.085 3.938-4.527 7.881-4.527 7.881-4.527l-.441-5.251s8.466 1.605 11.676 6.274c3.21 4.673 4.269 9.869 6.568 11.532 4.236 3.064 7.005 1.602 7.005 1.602s-5.543 8.615-4.959 13.432c.58 4.815 3.062 8.756 3.062 8.756s-17.406 8.636-24.808-5.108c-3.067-5.692 1.897-13.575 1.897-13.575s-4.159-1.972-6.277-.141a55 55 0 0 1-5.399 4.081s-.33 7.97-6.281 11.971c-7.586 5.107-13.276 1.023-13.276 1.023M492.556 585.1s5.981 1.898 8.755 1.023c2.775-.877 7.106-2.496 9.779-2.192 5.107.585 10.947 7.445 10.947 7.445s-14.157-.73-17.951 1.459c-3.8 2.19-5.112 4.087-5.692 5.549-.585 1.458-.149 10.652-1.169 12.695-1.026 2.044-3.359 6.253-8.028 6.423-8.169.292-10.65-4.087-10.65-4.087s5.837.439 8.027-3.212c-14.586.876-14.002-8.612-14.002-8.612s3.194 2.228 4.813 2.046c2.623-.292 3.643-2.772 3.643-2.772s-8.168-.584-8.896-11.388c2.331-.436 5.253 3.943 9.189 4.525 2.422.362 7.876-.874 11.235-8.902M569.324 543.648l5.84 9.927s3.939-3.066 6.713-2.774 7.004 5.11 7.004 15.324c0 20.873-13.132 23.062-13.132 44.954 0 22.039 5.984 30.213 5.251 35.03 4.963-2.917 1.327-14.6 2.189-26.71 2.468-34.852 14.743-26.271 14.743-60.132 0-19.849-16.932-21.019-18.829-21.019-6.713 0-9.779 5.4-9.779 5.4"/><path fill="#e60000" d="M579.98 647.518s3.238.242 4.599-4.892c.59-2.196.388-7.275-.119-14.279 2.917 1.025 6.611 7.691 6.611 13.966 0 6.276-4.374 12.262-8.025 14.887-3.651 2.629-6.281 6.862-6.281 6.862l-.292-.585s1.073-2.846.733-4.377c-1.605-7.299-6.861-10.842-7.589-16.349-1.557-11.678 5.84-16.541 5.84-16.541s.633 4.961 2.382 10.506c1.753 5.549 2.141 8.469 2.141 10.802M517.217 633.483s1.183 2.747 3.651 3.138c2.113.333 4.015-.728 4.015-.728s-2.703-4.597-7.666-2.41m-12.557-7.515c-.685 0-1.236.553-1.236 1.234 0 .685.551 1.238 1.236 1.238a1.237 1.237 0 0 0 0-2.472m75.755-96.185c-1.897-1.169-4.814-2.187-6.127-2.041 3.21 2.482 3.502 4.23 3.502 7.149-1.025-.693-2.625-2.629-5.692-1.606-2.692.896-2.481 3.361-3.358 4.672-.877 1.315-3.066 2.481-3.066 2.481l9.199 15.181s2.15 9.235-4.672 18.536c-8.466 11.53-8.466 22.037-8.466 22.037s2.19-1.749 5.256 0c-4.087 5.253-7.881 9.634-7.593 15.472 1.173-.292 4.235-.876 5.547.437-3.636 2.641-7.296 10.657-6.86 15.034 1.59-.728 4.235-.728 6.132.73-2.141 1.589-5.404 6.276-6.276 9.925-.877 3.648-4.528 10.799-9.05 12.114-4.523 1.313-7.005 1.459-7.005 1.459s4.523 4.379 1.164 9.343c-3.21-5.984-7.732-7.736-7.732-7.736s.148 6.276-1.749 7.736c-1.461-3.941-5.256-8.613-7.446-10.072-1.312 1.459-3.358 3.795-.733 8.902-2.155-.395-7.588-2.771-8.024-7.589-.283-3.083.584-6.568 0-7.443-.585-.876-6.861-4.671-7.446-5.984-.584-1.315-.397-3.686-1.02-4.379-1.313-1.461-3.359-2.481-4.964-3.066-1.605-.582-4.23-2.479-3.794-3.794.436-1.313 1.461-2.336 1.461-2.336s-.584-3.502.584-5.253c1.165-1.751 3.647-3.357 5.4-2.92 1.749.438 6.569 3.504 7.881 3.358s3.795-.876 3.795-2.189-.455-4.434-4.087-4.087c-3.066.292-5.84.728-6.42-1.167-.326-1.061-.149-4.089 1.021-4.671 1.164-.587 4.671-.879 4.671-.879s-.585-3.062 1.605-3.062 1.456 3.503 1.456 3.503 5.112-.583 9.779.584c4.671 1.167 6.961 3.939 7.642 7.685.809 4.46 1.408 7.982 3.598 8.662.498 0 .44-.584.44-.584s-1.945-1.989-1.945-7.247c0-3.212-2.424-6.858-3.794-8.516-3.503-4.233-5.793-14.452-9.587-17.662-2.697-2.276-10.219-8.32-15.035-9.34-4.814-1.021-6.568 4.233-12.844 3.356-6.274-.874-8.897-5.4-8.897-5.4s5.541 1.316 8.02-1.897c2.482-3.21 5.107-2.776 5.107-2.776s-3.938-2.916-5.979-2.77c-2.043.147-5.979 1.459-5.979 1.459s.793-5.706 3.208-7.006c5.397-2.921 10.211 0 10.211 0s.293-2.921-.579-4.669c-.882-1.751-3.215-4.09-3.215-4.09s6.276-1.312 9.343 1.754c3.066 3.064 3.358 7.589 3.358 7.589s9.194-.728 22.182 4.672c12.994 5.399 16.788 12.26 16.788 12.26s.149-2.942-2.774-6.423c-6.861-8.176-20.874-10.801-20.874-10.801s3.21-6.42 7.445-8.612c4.231-2.187 10.948-3.938 10.948-3.938s-8.466-6.715-7.59-13.722c.873-7.004 6.861-11.824 6.861-11.824s13.578.467 16.635-3.208c1.72-2.062 2.482-3.356.589-8.176-1.107-2.793-5.404-3.792-7.158-2.189-2.05 1.883-3.631 5.878-6.276 7.009-3.061 1.313-11.968 3.646-17.219-6.571 0 0 5.548 4.379 9.194 0-8.466-1.605-6.425-11.822-6.425-11.822s1.754 3.797 5.405 4.377c3.646.587 5.399-1.02 5.399-1.02s-3.766-1.759-3.943-4.379c-.436-6.569 5.697-9.923 5.697-9.923s-1.461 4.523.58 5.838c2.045 1.313 5.547.582 7.588-1.166 2.046-1.754 7.302 1.604 9.348 5.107 2.041 3.502 4.522 1.166 7.44 1.459 2.918.292 3.354 3.94 3.066 6.858-.292 2.922-.876 7.153-.876 7.153s2.045.439 2.338 1.461c.287 1.021-.149 2.188-.149 2.188s5.835 2.773 5.835 8.465"/></g></svg>