<svg xmlns="http://www.w3.org/2000/svg" viewBox="0 0 814.65 720.15"><g data-name="Layer 2"><path d="M804.57 92.68a25 25 0 0 0-2.18-2.68c-3.07-3.62-6.54-4-9.74-3.92l-23.46-36.31c.62-2.62 1.1-5.64 0-8.42a21 21 0 0 0-1-2.45l-70.28 23.65a21 21 0 0 0-1.56-3.42 15.06 15.06 0 0 0-4.52-5.13 26 26 0 0 0-3.78-2.19c-1.52-.75-3.32-1.49-8.6-2.56s-14-2.47-22.17-3.9a166.6 166.6 0 0 1-23.68-5.5 176 176 0 0 1-26.33-11.47c-9.74-5.07-20.68-11.43-31.28-18.3a52 52 0 0 0-8.77 1.29 46 46 0 0 0-7.63 2.54A32.6 32.6 0 0 0 548 22.37a51.4 51.4 0 0 0-5.74 7.8A75 75 0 0 0 537 40.44a54 54 0 0 0-7.71.24 18.8 18.8 0 0 0-6 1.5 32.6 32.6 0 0 0-6.57 4.07 50 50 0 0 0-6.62 6.22 27.5 27.5 0 0 0-12.95-7.06 35.33 35.33 0 0 0-17.79.67 38.8 38.8 0 0 0-13.54 7.52 57.3 57.3 0 0 0-6.8 6.55 52 52 0 0 0-5.64 7.79 27.7 27.7 0 0 0-9.63-3.81 29 29 0 0 0-5.56-.49 30.2 30.2 0 0 0-6.68.77 47.6 47.6 0 0 0-9.31 3.24 57.8 57.8 0 0 0-13.54 8.55c-5.36 4.44-11.61 10.9-18.23 17.51s-13.62 13.38-19.81 20.58a142.4 142.4 0 0 0-15.07 21 56.7 56.7 0 0 0-6.05 14.64 55.7 55.7 0 0 0-1.74 10.85 50.8 50.8 0 0 0 2.53 18.88L207 227.89 10.07 344.21a26.3 26.3 0 0 0 4.65 8 25.6 25.6 0 0 0 3.28 3.3 27 27 0 0 0 3.84 2.64 27 27 0 0 0 4.45 2 24.3 24.3 0 0 0 6 1.28 51 51 0 0 0 9.45-.22c3.81-.39 8.26-1.14 13.15-2s10.21-1.78 13.89-2.18a28 28 0 0 1 7.42 0 20.48 20.48 0 0 1 11.57 5.29 30.4 30.4 0 0 1 3.56 3.86 41 41 0 0 1 3 4.7l55.49 96.57a11 11 0 0 1 .85 1.86 10.2 10.2 0 0 1 .54 2.18 13.2 13.2 0 0 1 .08 3.17 25.7 25.7 0 0 1-1 4.91 37.7 37.7 0 0 1-3.83 8.41c-2.35 4.14-6.2 10.11-9.91 15.83s-7.27 11.17-9.72 15.61a49.7 49.7 0 0 0-4.56 10.74 29.4 29.4 0 0 0-1.12 7.2 32.64 32.64 0 0 0 7.58 22.22l206.52-110L357.19 433l-.36 1.56a44 44 0 0 1-.55 7.78 38 38 0 0 1-2.11 7.87 55 55 0 0 1-4.59 9 65.14 65.14 0 0 1-21.86 22.09 172 172 0 0 1-18.28 9.52c-6 2.84-11.46 5.33-16.17 7.73a128 128 0 0 0-11.83 6.8 79 79 0 0 0-7.65 5.7c-2.2 1.83-4.29 3.67-6.3 5.6s-3.94 3.95-5.77 6-3.59 4.27-5.25 6.5l-10.13 146.36c-.45 2.61.26 5.36 1.81 8.34a18.4 18.4 0 0 0 2.46 3.51 44 44 0 0 0 5.06 4.93 64.6 64.6 0 0 0 8.1 5.73 60.6 60.6 0 0 0 12.35 5.62 112.7 112.7 0 0 0 23.35 5 236.6 236.6 0 0 0 39.68 1.1 311 311 0 0 0 47.65-6.54 277.5 277.5 0 0 0 50.5-16 611 611 0 0 0 65.4-32.58c31.91 11.38 64.49 21 89.51 26.84s42.48 7.76 55.69 8.39 22.18-.06 29.48-1.21a84.3 84.3 0 0 0 18.58-5 114.4 114.4 0 0 0 17-8.42 123 123 0 0 0 15.55-11 76.5 76.5 0 0 0 9.87-10 46.6 46.6 0 0 0 8.89-15.35 45.4 45.4 0 0 0 1.94-7.88L740.7 474.2a27 27 0 0 0-1.62-5.1 20.5 20.5 0 0 0-2.4-4 23.5 23.5 0 0 0-3-3.29 23.15 23.15 0 0 0-11.74-5.7c-4.51-.84-9.67 0-14.84 2.29a29 29 0 0 0-8.84 6.36 28.7 28.7 0 0 0-3.36 4.31c-16-20.24-30.67-41.62-40.65-58.95a232.4 232.4 0 0 1-18.62-40c-3.31-9.41-4.6-14.94-5.32-19.6a57 57 0 0 1-.68-12 46.7 46.7 0 0 1 1.67-10.22 63 63 0 0 1 3.89-10.05c1.66-3.51 3.67-7.28 13.48-21.19s27.41-37.93 41-56 23.09-30.18 28.3-37.37 6.08-9.43 6.72-11.66a28 28 0 0 0 1.16-7.36 55.8 55.8 0 0 0-1-11.52 129 129 0 0 0-4.26-16.5Z" style="fill:#fff;stroke:#fff;stroke-linecap:round;stroke-linejoin:round;stroke-width:20.15px;fill-rule:evenodd"/><path d="M261.29 580.32c2.32-.67 4.62-1.44 6.79-2.26s4.24-1.71 6.57-2.78a54.6 54.6 0 0 0 7.53-4.07 41 41 0 0 0 7.41-6.28 27.7 27.7 0 0 0 4.81-7 14.8 14.8 0 0 0 1.43-5.91 8.27 8.27 0 0 0-1.07-4.74c-1.71-2.86-6.06-3.82-9.67-4.12a21.7 21.7 0 0 1-4.61-.69 2.47 2.47 0 0 1-1.75-2 6.5 6.5 0 0 1 2.57-2.85 12 12 0 0 1 2.38-1.26 11.68 11.68 0 0 1 10.41.61v-14.06a32.1 32.1 0 0 0-12.83 2.83 35 35 0 0 0-7 3.75 35.8 35.8 0 0 0-11.55 13.72 19.7 19.7 0 0 0-1.77 7A5.2 5.2 0 0 0 262 554c1.74 2.36 6.06 3 9.67 3.11a19.7 19.7 0 0 1 4.53.51c2.6.86 2.11 3 .2 4.88a16.93 16.93 0 0 1-7.94 4 13.2 13.2 0 0 1-3.81.35 8.8 8.8 0 0 1-3.39-.92v14.33m74.18-37.22a29.6 29.6 0 0 1-4.42 1.66 9.47 9.47 0 0 1-5.58-.15 7.52 7.52 0 0 1-4.18-3.54c-1.68-3.09-1.72-7.44-.33-11.25a15 15 0 0 1 2.59-4.43 13.62 13.62 0 0 1 10.51-4.82 11.3 11.3 0 0 1 2.93.4 8.6 8.6 0 0 1 2.43 1.12V509a37 37 0 0 0-4.94.18 41 41 0 0 0-5.47.92 36.1 36.1 0 0 0-15.17 7.3c-5.37 4.33-9.75 10.8-11.21 16.42a27.2 27.2 0 0 0-1.08 8.07 18.5 18.5 0 0 0 1.79 8.35 14 14 0 0 0 6.57 6 23.55 23.55 0 0 0 9.34 1.76 42 42 0 0 0 8.54-.85 38.3 38.3 0 0 0 6.31-1.81 43 43 0 0 0 5.32-2.4v-12.38a29.5 29.5 0 0 1-3.95 2.54M765.22 44.18l-65.88 24c3.18 14.46 6.48 28.89 9.66 42.14s6.21 25.3 7.81 31.65 1.78 7 1.94 7.58.34 1.26.5 1.88L799.59 93c-2.88-3.5-5.85-3.75-9.15-3.33l-25.5-39.07a7.57 7.57 0 0 0 .28-6.38m-419.64 493a15.4 15.4 0 0 0 .79 5.32 11 11 0 0 0 3.2 4.72c3.25 2.74 8.25 3.65 12.56 3.72a44.7 44.7 0 0 0 7.37-.34 50 50 0 0 0 10.17-2.26c3.39-1.21 6.37-2.92 8.34-5.61s2.72-6.37 2.72-9.93v-29.45l-17.79.68v30.31a5.6 5.6 0 0 1-.46 2.38 3.68 3.68 0 0 1-1.64 1.67 6.76 6.76 0 0 1-2.94.66 4.93 4.93 0 0 1-3.36-.9 4.47 4.47 0 0 1-1.18-3.36v-30l-17.78 2.4v29.93m69.72 12.33v-13.18l-1.24-12.86.18-.1 13.38 27.17 17.1 2.1v-45.4l-17.1-2.1v11.53l2.08 15.93-.17.1-14.42-28.55-16.91-.71v45.4l17.1.72m64-24.73 10.41 2.38V516l-37.83-7.63v11.23l9.63 1.66v34.17L479.3 559zm60.37 4.54-17.79-5.05v16.39l-8.21-2.25v-16.38l-17.79-4.61v45.4l17.79 4.61V549.2l8.21 2.25v18.26l17.79 5zm7.49 32.14a28.8 28.8 0 0 0 3.51 7.94 36.07 36.07 0 0 0 13.53 12.38 32.8 32.8 0 0 0 7.37 2.87 29.9 29.9 0 0 0 9.9 1.13 16.9 16.9 0 0 0 9.18-3.5c4.62-3.83 6.18-10 6.19-15a25.7 25.7 0 0 0-4.5-14.78A36.94 36.94 0 0 0 578 540.39a34.8 34.8 0 0 0-13.79-3.82 20.7 20.7 0 0 0-7 .68 14.9 14.9 0 0 0-6.43 3.73c-3.53 3.7-4.49 8.68-4.51 13.19a27.6 27.6 0 0 0 .95 7.32m24.35-11.94a4.58 4.58 0 0 0-4.13.52c-1.1.84-1.64 2.33-2 4.06a24.65 24.65 0 0 0 0 11.24 12.8 12.8 0 0 0 2.14 4.82 7.58 7.58 0 0 0 4.12 2.74 4.86 4.86 0 0 0 4-.56 6.7 6.7 0 0 0 2.14-3.79 24.9 24.9 0 0 0 0-11 13 13 0 0 0-2-5.13 8 8 0 0 0-4.21-2.89m49 46.12V577l9.78 20.29 19.27 2-13.33-20.13c3-.85 6-1.7 7.68-3.58s2.15-4.79 2.59-7.69a12.75 12.75 0 0 0-3.85-9.22 22 22 0 0 0-6.15-4c-5-2.25-10.94-3.45-16.59-4.6l-17.19-3.66v45.4l17.79 3.78m0-24.33a10.1 10.1 0 0 0 4.32.16 4.58 4.58 0 0 0 2.89-7.56 8.2 8.2 0 0 0-2.93-2.46 13.5 13.5 0 0 0-4.28-1.39zm51 27.72v-14.56a32 32 0 0 0 12.68-2.85 26.7 26.7 0 0 0 8.29-5.71 19 19 0 0 0 4-6.75 15.6 15.6 0 0 0 1-5.83 9.3 9.3 0 0 0-1.07-4.85 8.6 8.6 0 0 0-3.83-3.74c-3.66-1.82-9.25-1.84-14.06-1.56-2.41.12-4.71.46-7 .52l-17.78.49v45.4l17.78-.48m0-25.28a11.5 11.5 0 0 0 4-1c2.36-1.15 3.36-3.01 3.36-4.78a4.26 4.26 0 0 0-.9-2.67c-1.34-1.71-4.15-2.26-6.63-1.87v10.29m66.3-6.82V556.2l-15.37 13.14v-6.55l13.86-12.16v-10.77L722.4 552v-6.55l15.33-13.14v-10.75l-33.12 23.65v45.4L737.73 567m-476.81 61.28c0 2.24.76 4.65 2.55 5.93s4.42 1.39 7.44.85a47.6 47.6 0 0 0 10.09-3.35 59 59 0 0 0 10.65-5.78c6.16-4.48 8.23-9.64 8.23-14.69V577.9l-13 5v31.24a13.3 13.3 0 0 1-.5 3.86 7.06 7.06 0 0 1-2 3.25 11.8 11.8 0 0 1-4.18 2.37c-1.65.54-3.42.79-4.64.11a4.06 4.06 0 0 1-1.72-3.63v-31.82l-13 6.79v33.21m59.61-11.36 13-2.91v-20.65c-.17-1.88-.48-4-.86-6.2l.17-.16 16.45 24.11 12.29-1.61v-45.4l-13 1.72v22.63a17.5 17.5 0 0 0 1.06 4.69l-.18.16-16.62-24.55-12.31 2.77zm60.17-8.85 13-.26v-45.4l-13 .25zm31.81-36.65 10.25.76v37l13 1.29v-37l10.32 1.39v-8.43L412.51 563v8.43M464.58 615l26.31 5.67v-8.42l-13.31-3V598.9l11.65 2.65v-8.43l-11.65-2.64v-9.83l13.22 3v-8.42l-26.22-5.66zm45.57 10.55 12 3.26c6.57 1.78 14.14 3.23 19.27.61s7.41-8.15 8-13.23a25.27 25.27 0 0 0-2.35-14 31 31 0 0 0-9.07-11.48 42.5 42.5 0 0 0-14.86-7l-13-3.54v45.4m13-33.9v29.49a10.74 10.74 0 0 0 7.45.29 8.28 8.28 0 0 0 4.51-4.67 18.93 18.93 0 0 0-.2-14.53 18.6 18.6 0 0 0-4.5-6.65 17.15 17.15 0 0 0-7.26-3.93m79.29 59.22 13 2.85V635l12 2.19v-8.43l-12-2.18v-9.83l13.22 2.38v-8.43l-26.22-5.24v45.4m36.78 4.81a10.6 10.6 0 0 0 7.14 3.44 10.1 10.1 0 0 0 4-.51 7 7 0 0 0 3.14-2 4.12 4.12 0 0 0 1-3 5.15 5.15 0 0 0-1.27-2.85c-1.37-1.66-4.29-2.69-6.74-2.88a11.1 11.1 0 0 0-3 .08 10 10 0 0 0-2.83.91c-3.17 1.73-3.14 4.44-1.42 6.79M698.3 607c-1.36.36-2.85.78-5.14 1.57a60 60 0 0 0-8.66 3.7 45.6 45.6 0 0 0-9.59 6.72 30 30 0 0 0-6.42 8.5 18.34 18.34 0 0 0-1.9 8.24 18.8 18.8 0 0 0 1.92 8.5 19.9 19.9 0 0 0 6.66 7.5 21.46 21.46 0 0 0 9.73 3.37 26 26 0 0 0 8.58-.82 25.6 25.6 0 0 0 5-1.83 33 33 0 0 0 3.65-2v-8.62a43 43 0 0 1-5.53 3 12 12 0 0 1-6.09.8 11.15 11.15 0 0 1-5.65-2.39 11.85 11.85 0 0 1-3.31-4.79 14.87 14.87 0 0 1 .4-11.11c1.86-4.25 6.16-7.55 9.74-9.34a43 43 0 0 1 4.82-2.15 40 40 0 0 1 5.62-1.65V606c-1.25.28-2.5.59-3.87 1m23.75 30.49c1.73.5 4.73-.82 7.3-3.1a31 31 0 0 0 3.88-4.55c2.29-3.08 4.09-5.91 4.09-8.51a2 2 0 0 0-1.31-1.88 4 4 0 0 0-3.15.77 28 28 0 0 0-3.61 3 32.8 32.8 0 0 0-5.78 6.34c-1.54 2.22-2.58 4.13-2.57 5.92a1.91 1.91 0 0 0 1.15 2m82.56-544.8a25 25 0 0 0-2.18-2.68c-3.07-3.62-6.54-4-9.74-3.92l-23.46-36.31c.62-2.62 1.1-5.64 0-8.42a21 21 0 0 0-1-2.45l-70.28 23.65a21 21 0 0 0-1.56-3.42 15.06 15.06 0 0 0-4.52-5.13 26 26 0 0 0-3.78-2.19c-1.52-.75-3.32-1.49-8.6-2.56s-14-2.47-22.17-3.9a166.6 166.6 0 0 1-23.68-5.5 176 176 0 0 1-26.33-11.47c-9.74-5.07-20.68-11.43-31.28-18.3a52 52 0 0 0-8.77 1.29 46 46 0 0 0-7.63 2.54A32.6 32.6 0 0 0 548 22.37a51.4 51.4 0 0 0-5.74 7.8A75 75 0 0 0 537 40.44a54 54 0 0 0-7.71.24 18.8 18.8 0 0 0-6 1.5 32.6 32.6 0 0 0-6.57 4.07 50 50 0 0 0-6.62 6.22 27.5 27.5 0 0 0-12.95-7.06 35.33 35.33 0 0 0-17.79.67 38.8 38.8 0 0 0-13.54 7.52 57.3 57.3 0 0 0-6.8 6.55 52 52 0 0 0-5.64 7.79 27.7 27.7 0 0 0-9.63-3.81 29 29 0 0 0-5.56-.49 30.2 30.2 0 0 0-6.68.77 47.6 47.6 0 0 0-9.31 3.24 57.8 57.8 0 0 0-13.54 8.55c-5.36 4.44-11.61 10.9-18.23 17.51s-13.62 13.38-19.81 20.58a142.4 142.4 0 0 0-15.07 21 56.7 56.7 0 0 0-6.05 14.64 55.7 55.7 0 0 0-1.74 10.85 50.8 50.8 0 0 0 2.53 18.88L207 227.89 10.07 344.21a26.3 26.3 0 0 0 4.65 8 25.6 25.6 0 0 0 3.28 3.3 27 27 0 0 0 3.84 2.64 27 27 0 0 0 4.45 2 24.3 24.3 0 0 0 6 1.28 51 51 0 0 0 9.45-.22c3.81-.39 8.26-1.14 13.15-2s10.21-1.78 13.89-2.18a28 28 0 0 1 7.42 0 20.48 20.48 0 0 1 11.57 5.29 30.4 30.4 0 0 1 3.56 3.86 41 41 0 0 1 3 4.7l55.49 96.57a11 11 0 0 1 .85 1.86 10.2 10.2 0 0 1 .54 2.18 13.2 13.2 0 0 1 .08 3.17 25.7 25.7 0 0 1-1 4.91 37.7 37.7 0 0 1-3.83 8.41c-2.35 4.14-6.2 10.11-9.91 15.83s-7.27 11.17-9.72 15.61a49.7 49.7 0 0 0-4.56 10.74 29.4 29.4 0 0 0-1.12 7.2 32.64 32.64 0 0 0 7.58 22.22l206.52-110L357.19 433l-.36 1.56a44 44 0 0 1-.55 7.78 38 38 0 0 1-2.11 7.87 55 55 0 0 1-4.59 9 65.14 65.14 0 0 1-21.86 22.09 172 172 0 0 1-18.28 9.52c-6 2.84-11.46 5.33-16.17 7.73a128 128 0 0 0-11.83 6.8 79 79 0 0 0-7.65 5.7c-2.2 1.83-4.29 3.67-6.3 5.6s-3.94 3.95-5.77 6-3.59 4.27-5.25 6.5c6.62-4.19 13.39-8.13 22.87-13.67s21.68-12.69 41-18.41 45.75-10 74-10.5a376 376 0 0 1 86.51 9.09c28.16 6.27 54.4 15.5 78.53 22.74s46.15 12.49 64.18 15.44 32.1 3.61 42.91 3.22a104.7 104.7 0 0 0 24.86-3.61 92.4 92.4 0 0 0 16.56-6.17 76 76 0 0 0 12-7.32 62.5 62.5 0 0 0 8.64-7.74 49.5 49.5 0 0 0 9.93-16.38 52.4 52.4 0 0 0 2.28-8.5 38 38 0 0 0 .66-7.23 28 28 0 0 0-.7-5.86 27 27 0 0 0-1.62-5.1 20.5 20.5 0 0 0-2.4-4 23.5 23.5 0 0 0-3-3.29 23.15 23.15 0 0 0-11.74-5.7c-4.51-.84-9.67 0-14.84 2.29a29 29 0 0 0-8.84 6.36 28.7 28.7 0 0 0-3.36 4.31c-16-20.24-30.67-41.62-40.65-58.95a232.4 232.4 0 0 1-18.62-40c-3.31-9.41-4.6-14.94-5.32-19.6a57 57 0 0 1-.68-12 46.7 46.7 0 0 1 1.67-10.22 63 63 0 0 1 3.89-10.05c1.66-3.51 3.67-7.28 13.48-21.19s27.41-37.93 41-56 23.09-30.18 28.3-37.37 6.08-9.43 6.72-11.66a28 28 0 0 0 1.16-7.36 55.8 55.8 0 0 0-1-11.52 129 129 0 0 0-4.26-16.5l84-63.9M216.13 246.32a11.35 11.35 0 0 1 1.46 8.86 23 23 0 0 1-.93 3.11 17.6 17.6 0 0 1-2.78 5c-1.76 2.34-4.71 5.54-7.62 8.94a110 110 0 0 0-7.92 10.17 44.3 44.3 0 0 0-4.46 8.49 49 49 0 0 0-2.14 6.72 20.2 20.2 0 0 0-.54 7.89 19.2 19.2 0 0 0 2 6.47l61.07 108.83a11.77 11.77 0 0 0 5 4.67 19.8 19.8 0 0 0 3.71 1.34 33 33 0 0 0 7 1c3.38.18 8.14.18 13.08-.08s10.09-.78 14.48-1.19 8-.71 10.82-.76a28 28 0 0 1 6.22.46 13.7 13.7 0 0 1 3.47 1.17 17 17 0 0 1 2.6 1.57 12.77 12.77 0 0 1 5.24 8.8l276-200.93-2.44-60.07a41 41 0 0 1-5.74 2.09 20.5 20.5 0 0 1-4.13.72 17.5 17.5 0 0 1-3.77-.12 29 29 0 0 1-5.65-1.39 75 75 0 0 1-8.36-3.55 48.4 48.4 0 0 1-11.55 14.7 55.1 55.1 0 0 1-17.25 9.82 47.5 47.5 0 0 1-8.38 2.15 39 39 0 0 1-6.88.52 24.7 24.7 0 0 1-9.83-2.2 26 26 0 0 1-4.18-2.4 25.4 25.4 0 0 1-3.64-3.15 54.9 54.9 0 0 1-14.74 14.52A49.7 49.7 0 0 1 477.5 216a42.8 42.8 0 0 1-8 1 38.6 38.6 0 0 1-6.71-.48 25.2 25.2 0 0 1-4.8-1.2 21.4 21.4 0 0 1-3.82-1.85 22.5 22.5 0 0 1-3.32-2.5 21.8 21.8 0 0 1-4.94-6.65 61 61 0 0 1-9.21 7.27 59.4 59.4 0 0 1-10.4 5.34 65 65 0 0 1-10.61 3.07 50.6 50.6 0 0 1-8.75 1.07 29 29 0 0 1-6.23-.47 26 26 0 0 1-4.7-1.31 15 15 0 0 1-3.21-1.76 18.6 18.6 0 0 1-2.52-2.16 16.2 16.2 0 0 1-2.13-2.73 22.3 22.3 0 0 1-1.79-3.63 20.6 20.6 0 0 1-1.15-4.25 34.3 34.3 0 0 1 2.91-18.45 36 36 0 0 1 3.46-6l-176.71 64.41a11 11 0 0 1 1.26 1.6m376.08 435.07c25 5.8 42.48 7.76 55.69 8.39s22.18-.06 29.48-1.21a84.3 84.3 0 0 0 18.58-5 114.4 114.4 0 0 0 17-8.42 123 123 0 0 0 15.55-11 76.5 76.5 0 0 0 9.87-10 46.6 46.6 0 0 0 8.89-15.35 45.4 45.4 0 0 0 1.94-7.88 93 93 0 0 1-8.54 12 95 95 0 0 1-10.31 10.45 90 90 0 0 1-11.83 8.7 110.6 110.6 0 0 1-13.53 7 75.7 75.7 0 0 1-19.7 5.83 190.7 190.7 0 0 1-36.5 2c-14.26-.51-29.78-2.47-49.57-7.19s-43.87-12.18-63.75-18.14-35.57-10.44-53-14.42a441 441 0 0 0-57.92-9.46 467 467 0 0 0-64.56-1.48c-19.5 1-34.77 3.61-47.24 6.91a146.7 146.7 0 0 0-30.35 11.58 158 158 0 0 0-19.82 12.19 77 77 0 0 0-9.93 8.22 30.5 30.5 0 0 0-4.09 5 12.65 12.65 0 0 0-2.2 5.35c-.45 2.61.26 5.36 1.81 8.34a18.4 18.4 0 0 0 2.46 3.51 44 44 0 0 0 5.06 4.93 64.6 64.6 0 0 0 8.1 5.73 60.6 60.6 0 0 0 12.35 5.62 112.7 112.7 0 0 0 23.35 5 236.6 236.6 0 0 0 39.68 1.1 311 311 0 0 0 47.65-6.54 277.5 277.5 0 0 0 50.5-16 611 611 0 0 0 65.4-32.58c31.91 11.38 64.49 21 89.51 26.84" style="fill-rule:evenodd;fill:#600d0c"/><path d="m794.83 93.27-2.71-1.08-58.29 39.24 8.13-1.09zm-32.94-41.88 1.39-3.61L704 69.56l.93 4.25 57-22.42m-387.25 146.2 10.52-10.52L223 246.9a20.2 20.2 0 0 1 .39 10.33 26 26 0 0 1-1.15 3.57 23.8 23.8 0 0 1-2.7 5.05c-1.53 2.22-3.9 5.15-6.45 8.12s-5.26 6-7.05 8.3a32.3 32.3 0 0 0-3.34 5.25 41.9 41.9 0 0 0-4.32 11c-.3 1.25-.53 2.52-.71 3.79l139.29-62 4.33-7.43-72.93 25.6L355.49 218l8.67-9.28-127 47.63 137.53-58.77m135.37 81.24L489.54 284 283.75 424.19c4.31-.4 8.61-.82 12.78-1.27s8.22-.95 11.29-1.19a48 48 0 0 1 6.9-.13 22 22 0 0 1 4.06.59 12.7 12.7 0 0 1 6.32 3.81 13.3 13.3 0 0 1 2.55 4L588.2 238.44l-13 .62L325 414.05l185.1-135.22m-167.7 363.1a216 216 0 0 0-27 6.87 95.7 95.7 0 0 0-17.13 7.54 66.2 66.2 0 0 0-10.31 7.07 29.7 29.7 0 0 0-4.94 5.25 15.5 15.5 0 0 0-1.9 3.29 10.2 10.2 0 0 0-.66 2.38 6.6 6.6 0 0 0 .64 4 10.1 10.1 0 0 0 2.1 2.72 20 20 0 0 0 2.4 1.9 28.5 28.5 0 0 0 5.82 3.13 97 97 0 0 0 11.38 3.5 144 144 0 0 0 17.51 3.42 200.5 200.5 0 0 0 28.86 1.88 186 186 0 0 0 32.83-3.5 257 257 0 0 0 34-9.17 321 321 0 0 0 34.35-14 326 326 0 0 0 32.86-18 278 278 0 0 0-48.67-9.82 412 412 0 0 0-54.12-2.58 218 218 0 0 0-38.11 4.18m78.76-414.59a17.3 17.3 0 0 1-7.64.9l18 28.8 10.35 5.39-20.7-35.09m23.4 67a24.3 24.3 0 0 0-5.85-3.6L422 301.64l-33.77-57.14q-4.14.48-8.55.9l40 66.14 24.75-17.1M379.83 334a20.56 20.56 0 0 0 15.95-10.12 39.46 39.46 0 0 1-17.78 4.05 29.27 29.27 0 0 1-18.05-6.4 62.25 62.25 0 0 1-17.34-21.2c-4.23-8.61-5.86-18-4.73-26.12a32.3 32.3 0 0 1 10.69-20.08 33.6 33.6 0 0 0-17.41 22.35c-2 9.62.66 20.56 5.4 29.72a54.5 54.5 0 0 0 19.37 21.4c7.83 4.85 16.69 7.18 23.93 6.39m-13.28-56.6a22.8 22.8 0 0 1 8.34 7.63 21.2 21.2 0 0 1 3.32 10.29 19.84 19.84 0 0 1-1.78 9.66c2.63 1.37 6.55.28 7.72-4.34s-.45-12.79-4.18-18.63-9.51-9.39-13.95-10.11-7.51 1.39-8.54 4.31a12.83 12.83 0 0 1 9 1.21m86 12.55 15.74-9.9a22.1 22.1 0 0 0-5.84-4.05l-10.8 6.3-24.75-12.6 6.3 10.8zm-151.46 9.24c2.46.09 4.31 1.75 5.5 4.14a15.6 15.6 0 0 1 1.37 8.47 7.7 7.7 0 0 0 4-5.83 12 12 0 0 0-2.17-8 11.4 11.4 0 0 0-13.46-4.05 17.3 17.3 0 0 0-6.15 3.54l3.5 5.25a10.4 10.4 0 0 1 7.44-3.55m1 87.47a51 51 0 0 1-6.09-4.48l-22.2 13.44-47.6-85.28a11.8 11.8 0 0 1-2.82 1.69 31 31 0 0 1-4.44 1.26l52.44 94 30.71-20.64m23.22-46.25c2.83.63 5.89 2.8 9 6.26A56.6 56.6 0 0 1 343 360l15.47-9.64a48 48 0 0 1-4.67-4.38l-9.05 5.25A46 46 0 0 0 336 340c-3.17-2.88-6.32-4.64-9.89-5a17.34 17.34 0 0 0-10.82 2.79l2.92 4.67a7.44 7.44 0 0 1 7.12-2.05m7.48 26.59c-1.18-.87-2.36-1.73-3.29-2.45s-1.59-1.34-2.26-1.93L309.44 374l-45.27-81.49a24 24 0 0 1-6.71 2.63L307 384.51zm142.56-23.54c2.8 2.38 5 4.74 7.35 6.61a22.5 22.5 0 0 0 4 2.47 21 21 0 0 0 4.7 1.63 24.3 24.3 0 0 0 6.06.48 34.6 34.6 0 0 0 8-1.3 48.3 48.3 0 0 0 8.52-3.45 46 46 0 0 0 7.12-4.44 39.5 39.5 0 0 0 5.62-5.23 41.6 41.6 0 0 0 4.5-6.06 32 32 0 0 0 2.79 4.75 29.7 29.7 0 0 0 3.67 4.24 40.1 40.1 0 0 0 10.78 7.13 28.6 28.6 0 0 0 5.74 1.9 28 28 0 0 0 6.88.7 40.7 40.7 0 0 0 9-1.35 84 84 0 0 0 10.67-3.65 59.5 59.5 0 0 0 12-6.39 71.5 71.5 0 0 0 13.29-12.5c4.64-5.47 9.47-12.34 15.59-21.64s13.5-21 20.49-32.8 13.57-23.69 20.36-34.77 13.79-21.34 19.58-29.49 10.36-14.17 13.57-19.82a62.3 62.3 0 0 0 6.23-15.66 66 66 0 0 0 2-13.75 97.7 97.7 0 0 0-.51-15.49 85.1 85.1 0 0 0-9.37-30.27 96 96 0 0 0-7.41-11.78 77 77 0 0 0-7-8.35 66 66 0 0 0-6.87-6.12 71 71 0 0 0-7.39-5 23.7 23.7 0 0 0 9-2.91 42 42 0 0 0 4.2-2.76 7.9 7.9 0 0 0 2.57-2.69c1.07-1.74.65-2.92-1.15-4.3a13.5 13.5 0 0 0-1.93-1c-.9-.42-2.1-1-3.55-1.46s-3.11-1-8.66-2.44-14.94-3.88-24.58-6.72A261 261 0 0 1 612.92 50a151 151 0 0 1-23.21-12.35A124 124 0 0 1 572 23.82a24.4 24.4 0 0 0-8.3 3.38 25 25 0 0 0-3.55 2.8 24 24 0 0 0-6.77 11.48 22.5 22.5 0 0 0-.38 9.47 20.5 20.5 0 0 0 3.68 8.76 41 41 0 0 0 4.65 5.51 90 90 0 0 0 9.57 8.33 75.5 75.5 0 0 0 15.24 9.08 113 113 0 0 0 21.34 6.77 130 130 0 0 0 20.4 2.6 167 167 0 0 0 18.57 0c-6.44 10.68-12.41 21.65-17 30.75s-7.73 16.31-10.23 26.74-4.34 24.06-5.16 39.21a372 372 0 0 0 .65 48.4L475.37 343.45m77.73-237.86a67.5 67.5 0 0 1-7.23-8.74 102 102 0 0 1-7.42-12.45 58 58 0 0 1-4.09-10.51 43.2 43.2 0 0 1-1.49-8.33 36.7 36.7 0 0 1 .13-7.36c-1.48-1.34-3.34-1.48-4.91.45a4.5 4.5 0 0 0-.63 1.19 16.5 16.5 0 0 0-.85 3.47c-.32 2-.66 5-1.14 12.47s-1.08 19.49-1.2 32 .24 25.63.81 33.57 1.33 10.71 2 12.79a27 27 0 0 0 1.86 4.51 13.3 13.3 0 0 0 1.66 2.35 9.4 9.4 0 0 0 2.75 2.18 10.5 10.5 0 0 0 4.12 1.15 14 14 0 0 0 3.29-.08 27.4 27.4 0 0 0 10.55-3.82 28.8 28.8 0 0 0 4.61-3.49 21.4 21.4 0 0 0 3-3.54 23.5 23.5 0 0 0 2.5-4.56 41.8 41.8 0 0 0 2.51-8.51 95.5 95.5 0 0 0 1.43-13.17 114 114 0 0 0-.27-14.54 19.3 19.3 0 0 1-7.21-3 29.3 29.3 0 0 1-4.8-4M321.92 653.09a41 41 0 0 0-7 3.56 25.2 25.2 0 0 0-3.9 3c-3.76 3.68-4.68 6.72-4.85 10.17.05 4.06 1.36 7.28 5.12 11.28a31.06 31.06 0 0 0 13.87 8.12 27.7 27.7 0 0 0 5 .79 26 26 0 0 0 4.37-.07 16.6 16.6 0 0 0 2.81-.51 6.5 6.5 0 0 0 2.21-1 2.52 2.52 0 0 0 .95-2.67c0-1.24-1.8-4.13-2.91-6.45a15.7 15.7 0 0 1-1.57-5 15.3 15.3 0 0 1-.06-3.14 22.6 22.6 0 0 1 .87-4.6 50 50 0 0 1 3-7.84 89 89 0 0 1 5.88-10.33 78 78 0 0 0-12.94 1.48 64.6 64.6 0 0 0-10.83 3.18M511.73 91.77A56 56 0 0 0 510.15 78a22.2 22.2 0 0 0-3.1-7 22.9 22.9 0 0 0-7-6.75 23.4 23.4 0 0 0-4.05-2.09 24.5 24.5 0 0 0-4.14-1.2 16.75 16.75 0 0 0-9.41.85 17.9 17.9 0 0 0-5.87 3.66 29.6 29.6 0 0 0-3.46 3.86 30 30 0 0 0-3.28 5.57 47 47 0 0 0-3.14 9.62 109 109 0 0 0-2.26 18c-.42 7.89-.39 17.9-.64 27.48s-.78 18.73-.69 25.25a49.1 49.1 0 0 0 1.62 13.21 22.1 22.1 0 0 0 2.59 6 24.2 24.2 0 0 0 2.85 3.84 20.3 20.3 0 0 0 11 6.3 21 21 0 0 0 16-3.35 25 25 0 0 0 3.46-2.82 26 26 0 0 0 2.92-3.49 22.2 22.2 0 0 0 2.44-4.54 36 36 0 0 0 2-7.12 79 79 0 0 0 1-10.65c.18-4.35.2-9.63.28-14.12s.26-8.22.49-12.47.51-9 .94-15 1-13.27 1-19.18m-77.36-12.41c-4.5.78-9.56 3.52-14.43 9.73a24 24 0 0 0-2.71 4.29A28.2 28.2 0 0 0 415 100c-.59 2.69-1 6-1.6 13.87s-1.47 20.45-1.86 30.52a200 200 0 0 0 .16 23.13 50 50 0 0 0 2.05 11.23 25.6 25.6 0 0 0 2.15 5.09 16 16 0 0 0 1.9 2.68 15.4 15.4 0 0 0 9.23 5.19 23.53 23.53 0 0 0 13.21-1.71 20.4 20.4 0 0 0 4.17-2.55 22 22 0 0 0 3.39-3.36 23 23 0 0 0 2.42-3.66 27.2 27.2 0 0 0 2.43-6 69.4 69.4 0 0 0 2.49-14.83c.56-7.25.65-17.21.87-26.5s.58-17.9.63-24a82 82 0 0 0-.61-12.5 27.6 27.6 0 0 0-1.6-6.41 18.5 18.5 0 0 0-2.13-3.93 14.8 14.8 0 0 0-4.15-3.89 16.6 16.6 0 0 0-2.54-1.37 20.5 20.5 0 0 0-7.28-1.76 18.5 18.5 0 0 0-4 .25m142.88 56.41a42 42 0 0 0 .95 8.12 12.3 12.3 0 0 0 1.38 3.47 9.5 9.5 0 0 0 1.46 1.91 9.63 9.63 0 0 0 6.68 2.95 8.15 8.15 0 0 0 4.6-1.43 14 14 0 0 0 1.91-1.51 22 22 0 0 0 3-3.35 39 39 0 0 0 3.37-5.65 35.4 35.4 0 0 0 2.18-5.57 18.8 18.8 0 0 0 .73-6.75c-3.83-1.1-7.66-2.19-12-3.62s-9.36-3.21-14.31-5c-.18 6.1-.13 12.21.07 16.41M545 398.08c5.86-6.21 11-11.28 16.27-16.12a199 199 0 0 1-22.51 5 107 107 0 0 1-21.76 1.58c-14.94-.74-31.67-4.68-47.8-9.46l39.33 67.69a237 237 0 0 1 17.67-26.87 282 282 0 0 1 18.8-21.82m93 93a38 38 0 0 1-2.62 7.45 28 28 0 0 1-2.87 4.89 20.54 20.54 0 0 1-9.94 7.61 41.6 41.6 0 0 0 7.55 4.26 49.6 49.6 0 0 0 8.54 2.79 44 44 0 0 0 9.79 1.16 76 76 0 0 0 11.57-.89 45 45 0 0 0 8.18-2 41 41 0 0 0 6.17-2.67 25.8 25.8 0 0 0 4.75-3.27 24.5 24.5 0 0 0 6.28-8.29c1.91-4.32 2.75-8.46 2-12.56a21.6 21.6 0 0 0-1.23-4.19 39 39 0 0 0-3-6 88 88 0 0 0-8.22-11.27c-4.33-5.21-10.69-12.2-18.47-19.81s-17-15.84-26.54-23.66a274 274 0 0 1 7.82 32.6 113 113 0 0 1 1.76 21.6 55.4 55.4 0 0 1-1.5 12.3M569.93 39.54a16 16 0 0 0-.34 3.15 28.6 28.6 0 0 0 2 9.89 37 37 0 0 0 2.65 5.55 29.4 29.4 0 0 0 3.41 4.67 25.7 25.7 0 0 0 17.84 8.57 55.4 55.4 0 0 1-4.9-6.56 39 39 0 0 1-3.49-6.63 20.3 20.3 0 0 1-1.34-6.37 70 70 0 0 1 0-9.08l-13.75-8a13.5 13.5 0 0 0-2.05 4.83m-35.54 285a36.4 36.4 0 0 0 6.82 1 50 50 0 0 0 8-.26 44.2 44.2 0 0 0 11.15-2.54 107.5 107.5 0 0 0 17.25-8.28 120.6 120.6 0 0 0 17.19-12.23 72.6 72.6 0 0 0 10.95-11.74 50.2 50.2 0 0 0 9.14-19.37c-7.06 4.62-14.25 9.06-20.66 12.81s-12.06 6.82-16.26 8.75a43.6 43.6 0 0 1-9 3.15 25 25 0 0 1-4.73.64 26.9 26.9 0 0 1-10-1.77L523 319.36a36 36 0 0 0 5.41 3.05 34.5 34.5 0 0 0 6 2.09m-3.52-222.27v18.79c0 5.92-.2 11.36-.16 15.44a70 70 0 0 0 .51 8.75 21.3 21.3 0 0 0 .86 4 11 11 0 0 0 .82 2 5.33 5.33 0 0 0 2.46 2.26c2.64 1 5.23.27 8.35-2.43a10.66 10.66 0 0 0 3.48-9 4.85 4.85 0 0 0-2-3.46 6.58 6.58 0 0 0-6.93-.12V98.3l-7.45-15.47c.06 6.47.1 13 .13 19.4m-47.31-5.11c0-.93.31-2.51.52-4.18a27 27 0 0 0 .21-2.68 5 5 0 0 0-.93-3.31c-2.2-2.45-4.75-2.8-7.38-.4a5 5 0 0 0-1.08 2 18.1 18.1 0 0 0-.42 5.16c0 1.77.12 2.81.12 4v63a12.13 12.13 0 0 0 2.19 6.55 13.8 13.8 0 0 0 1.66 2.09c2.81 2.89 5.55 3.29 7.77 2.32a13.14 13.14 0 0 0 5.6-4.75 20 20 0 0 0 1.69-2.77 11.9 11.9 0 0 0 1.31-4.32c.12-2 0-3.66-2.09-5.35a10.33 10.33 0 0 0-9-1.22l-.24-55.11v-1.06m-52.2 8.77c.09-1.24.18-2.68.14-3.74a9.5 9.5 0 0 0-.3-2.24 4.84 4.84 0 0 0-1.47-2.54c-2.12-1.67-4.3-1.59-6.66.5a6.4 6.4 0 0 0-.81 1 8.3 8.3 0 0 0-.79 1.54 15.6 15.6 0 0 0-.86 3.1 41 41 0 0 0-.43 5.1l-2.3 56.14a11.94 11.94 0 0 0 2 6.65 15.7 15.7 0 0 0 1.73 2.34c2.55 2.89 5.65 4.13 7.91 3.71a10.92 10.92 0 0 0 6.77-4.21 13 13 0 0 0 2.89-6.75c.17-2.45.22-5-2.3-7.49a7.61 7.61 0 0 0-6.84-1.31 8.4 8.4 0 0 0-2.95 1.33l4-49.84c.08-1 .21-2.06.3-3.29m152.47 32.57a5.3 5.3 0 0 0 1.06 2.27c1.55 1.58 3 1.34 4.66 1a7.88 7.88 0 0 0 4-2.71 14.37 14.37 0 0 0 3.1-6.88c-1.18-.17-2.36-.4-3.53-.69a26 26 0 0 1-3.37-1 37 37 0 0 1-6.84-4c0 2.83.06 5.66.25 7.76a27 27 0 0 0 .71 4.33" style="fill-rule:evenodd;fill:#3cb7e6"/></g></svg>