<svg xmlns="http://www.w3.org/2000/svg" width="274.639" height="364.114" viewBox="0 0 593.291 786.579"><path fill="#fff" d="M297.16 21.716 24.034 46.732v102.104h546.15l.1-102.103-273.126-25.016"/><path fill="#fff200" d="M401.398 700.86C519.793 601.02 570.285 475.49 570.285 348.8V148.836H206.362l195.036 552.022"/><path fill="#ed1c24" d="M206.362 148.836H24.035v199.965c0 159.043 79.566 316.223 273.124 423.097 39.375-21.735 74.02-45.548 104.239-71.038L206.363 148.836"/><path fill="none" stroke="#231f20" stroke-width="11.62061862" d="M401.398 700.86 206.363 148.836M297.16 21.76 24.035 46.776V348.8c0 159.043 79.566 316.223 273.124 423.097 193.56-106.874 273.126-264.054 273.126-423.097V46.776zM24.035 148.836h546.15"/><path fill="#231f20" d="M55.257 94.646h.845c1.892 0 3.553.445 3.553 4.084 0 3.512-1.819 3.955-3.639 3.955h-.759zm-10.832 34.402h10.832v-15.187h.2l4.843 15.187h12.752l-6.605-15.373c-.616-1.39-1.304-2.135-1.863-2.822v-.387c4.112-2.135 5.889-5.145 5.889-12.308 0-11.921-5.803-16.449-12.666-16.449H44.423v47.34m43.301-17.137 2.02-14.443h.401c.202 2.007.402 4.084.73 6.09l1.29 8.353zm-1.978 11.249h8.355l1.017 5.887h11.705L95.963 81.71H83.726l-10.588 47.34h11.72l.89-5.888m43.6-22.239c-1.776-2.579-3.998-4.771-6.49-4.771-3.31 0-6.018 4.084-6.018 9.227 0 5.216 2.865 9.243 6.174 9.243 2.55 0 4.558-1.706 6.334-4.399l-.315 17.71c-1.777 1.318-5.89 1.877-7.882 1.877-8.682 0-15.459-10.488-15.459-23.986 0-13.813 6.991-24.874 15.904-24.874 2.508 0 5.087.702 7.437 1.948zm4.886-19.213h11.06v47.34h-11.06zm16.12 0h10.616l9.945 26.25h.313c-.443-3.956-.93-8.04-.93-12.065V81.708h10.588v47.34h-10.589l-9.727-24.858h-.316c.358 3.266.686 6.347.686 9.485v15.373h-10.587zm67.643 19.471c-.088 7.724-.088 14.187-3.682 20.218-3.226 5.458-8.197 8.41-12.924 8.41-9.286 0-16.793-8.912-16.793-24.115 0-15.444 7.307-24.744 16.877-24.744 5.303 0 12.567 4.083 14.946 12.194l-10.33 5.902c-.862-2.393-2.438-3.653-4.214-3.653-3.956 0-6.132 5.273-6.132 10.99 0 5.215 2.092 10.115 5.688 10.115 1.749 0 3.97-1.26 4.485-4.141h-5V101.18zm43.328-.258c-1.777-2.579-3.999-4.771-6.505-4.771-3.31 0-6.017 4.084-6.017 9.227 0 5.216 2.865 9.243 6.188 9.243 2.537 0 4.557-1.706 6.334-4.399l-.33 17.71c-1.776 1.318-5.889 1.877-7.866 1.877-8.683 0-15.474-10.488-15.474-23.986 0-13.813 6.991-24.874 15.919-24.874 2.493 0 5.086.702 7.422 1.948zm3.998-19.213h11.062v32.153h9.284v15.186h-20.346zm51.481 0v28.011c0 13.813-5.56 20.089-14.084 20.089-8.526 0-14.099-6.276-14.099-20.089V81.71h11.06v26.377c0 3.697.088 6.963 3.038 6.963 2.938 0 3.024-3.266 3.024-6.963V81.709zm15.144 18.21v-6.776h.774c1.605 0 3.669-.258 3.669 3.266 0 3.252-1.82 3.51-3.425 3.51zm-10.259 29.13h15.074c5.33 0 11.148-3.324 11.148-13.053 0-5.66-2.106-9.414-5.416-11.234v-.387c2.665-1.318 3.997-5.4 3.997-9.542 0-10.917-6.017-13.124-11.921-13.124h-12.882zm10.26-19.142h1.09c1.776 0 4.612-.058 4.612 3.882 0 3.897-2.622 3.97-4.442 3.97h-1.26zm47.655-13.382h.688c4.041 0 6.505 2.835 6.505 9.484 0 6.219-2.836 8.854-6.505 8.854h-.686V96.525zm-11.061 32.523h14.014c8.926 0 15.301-8.911 15.301-22.966 0-17.395-7.837-24.374-18.054-24.374h-11.261zM401.77 81.71h20.477v12.937h-9.33v4.515h8.525v12.308h-8.523v4.655h9.656v12.924H401.77zm42.326 0h11.061v32.153h9.286v15.186h-20.346zm23.297 0h20.475v12.937h-9.328v4.515h8.524v12.308h-8.524v4.655h9.657v12.924h-20.804zm25.274 0h10.633l9.929 26.25h.315c-.444-3.956-.917-8.04-.917-12.065V81.708h10.574v47.34h-10.574L502.9 104.19h-.33c.358 3.266.688 6.347.688 9.485v15.373h-10.589zm37.283 30.39.558.688c1.977 2.393 4.371 4.342 6.906 4.342 1.089 0 2.823-.69 2.823-2.823 0-2.135-1.447-2.335-2.45-2.637l-2.22-.631c-4.328-1.19-7.967-5.158-7.967-12.566 0-11.233 6.59-17.523 13.209-17.523 3.47 0 6.664 1.318 9.659 4.155l-2.995 12.123c-1.906-2.022-4.041-3.583-6.419-3.583-.975 0-2.379.559-2.379 2.507 0 1.763 1.362 2.007 2.207 2.32l2.507.89c4.685 1.62 8.082 5.516 8.082 13.554 0 11.305-6.62 16.894-13.212 16.894-3.824 0-8.266-1.635-11.705-4.328l3.396-13.383M221.822 48.71h1.131c3.11 0 5.303 2.335 5.303 6.476 0 4.513-2.465 6.476-5.345 6.476h-1.089zm-4.842 18.04h6.862c5.144 0 9.443-5.059 9.443-11.564s-4.27-11.562-9.443-11.562h-6.862v23.124m22.065-10.158c.273-1.62 1.361-2.478 2.665-2.478 1.204 0 2.32.988 2.536 2.478zm9.37 2.65c0-5.372-2.536-8.754-6.92-8.754-4.127 0-7.006 3.167-7.006 8.411 0 5.43 3.138 8.368 7.321 8.368 2.895 0 5.717-1.677 6.434-5.387h-4.313c-.487 1.03-1.19 1.432-2.15 1.432-1.848 0-2.808-1.218-2.808-3.496h9.443v-.574m9.126-3.896c1.82 0 2.88 1.62 2.88 3.553 0 1.991-1.06 3.525-2.88 3.525s-2.88-1.532-2.88-3.525c0-1.935 1.06-3.553 2.88-3.553m-2.736-4.328h-4.485v23.586h4.485v-9.357c.96 1.375 2.463 2.02 3.926 2.02 3.74 0 6.333-3.798 6.333-8.34 0-4.513-2.623-8.439-6.39-8.439a4.27 4.27 0 0 0-3.827 2.306h-.044v-1.776m16.894 0v8.411c0 1.978.387 3.397 2.236 3.397 1.848 0 2.25-1.42 2.25-3.397v-8.41h4.484v9.471c0 5.186-2.938 6.777-6.734 6.777-3.797 0-6.72-1.591-6.72-6.778v-9.47zm11.82 0h4.486v15.734h-4.485zm4.773-6.047c0 1.72-1.147 3.124-2.522 3.124-1.376 0-2.522-1.404-2.522-3.124s1.146-3.123 2.522-3.123 2.522 1.404 2.522 3.123m11.031 10.089c-.686-.459-1.646-.76-2.406-.76-.516 0-1.404.272-1.404 1.075 0 1.074 1.404 1.217 2.021 1.375 2.091.53 3.668 1.748 3.668 4.655 0 4.143-3.038 5.862-5.96 5.862-1.806 0-3.583-.645-5.116-1.806l1.634-3.896c.917.802 2.45 1.605 3.553 1.605.573 0 1.404-.344 1.404-1.204 0-1.233-1.404-1.29-2.808-1.749s-2.809-1.318-2.809-4.14c0-3.868 2.809-5.589 5.56-5.589 1.446 0 2.865.286 4.17 1.018l-1.505 3.554m15.244-6.348v-5.086h7.495v23.124h-4.83V48.71h-2.665m19.057-1.244c1.69 0 3.08 1.675 3.08 3.796s-1.39 3.798-3.08 3.798c-1.704 0-2.98-1.677-2.98-3.798s1.276-3.796 2.98-3.796m.818 19.284 3.968-6.476c1.59-2.636 2.98-5.86 2.98-9.197 0-2.423-.988-4.872-2.493-6.379-1.433-1.444-3.497-1.99-5.302-1.99-4.241 0-7.995 3.066-7.995 8.74 0 4.255 2.32 8.154 5.975 8.154.99 0 1.776-.244 2.608-.703l.059.057-5.303 7.794zm17.938-18.74c2.493 0 3.08 4.9 3.08 7.149 0 2.236-.587 7.207-3.08 7.207s-3.08-4.971-3.08-7.207c0-2.248.586-7.149 3.079-7.149zm0-5.302c-5.517 0-7.881 6.462-7.881 12.48s2.335 12.479 7.881 12.479c5.545 0 7.895-6.461 7.895-12.479s-2.365-12.479-7.896-12.479m17.783 20.245c-1.677 0-3.067-1.734-3.067-3.84 0-2.091 1.39-3.768 3.065-3.768 1.693 0 2.982 1.677 2.982 3.768 0 2.106-1.29 3.839-2.98 3.839zm-.789-19.328-3.999 6.505c-1.604 2.606-2.978 5.86-2.978 9.198 0 2.393 1.002 4.815 2.492 6.348 1.419 1.403 3.496 1.991 5.301 1.991 4.227 0 7.982-3.066 7.982-8.74 0-4.228-2.32-8.124-5.975-8.124-.96 0-1.748.243-2.579.702l-.044-.059 5.274-7.823h-5.474"/><g stroke="#231f20"><path fill="#fff" stroke-width="4.47047913" d="m316.676 348.414-1.562 4.17c-3.08 6.333-.674 10.53-.674 10.53s3.955.36 7.722-4.111c.832 7.32 5.13 9.643 5.13 9.643s4.328-2.35 5.144-9.715c3.783 4.557 7.779 4.183 7.779 4.183s2.393-4.197-.686-10.53l-1.547-4.17h-21.308zm20.159-4.37s.487-3.108 1.763-5.315c2.421-4.17 6.734-2.837 6.734-2.837 2.02.5 4.597 2.062 6.806 6.32 0 0 4.254-8.283-.244-15.749-1.992-3.037-4.599-4.599-7.006-5.187 0 0-10.99-3.31-13.627 16.091h-8.01c-2.636-19.401-13.626-16.09-13.626-16.09-2.407.587-5.015 2.149-7.006 5.186-4.514 7.466-.243 15.748-.243 15.748 2.206-4.257 4.77-5.819 6.79-6.32 0 0 4.328-1.332 6.75 2.838 1.275 2.205 1.763 5.315 1.763 5.315z"/><path fill="#fff" stroke-width="4.47047913" d="M327.292 295.729s-14.157 13.182-2.708 47.34h5.43c11.434-34.158-2.722-47.34-2.722-47.34z"/><path fill="#231f20" stroke-width="3.5816375400000005" d="M337.923 343.099h-21.262c-1.763 0-3.181 1.518-3.181 3.394 0 1.864 1.418 3.368 3.181 3.368h21.262c1.764 0 3.197-1.504 3.197-3.368 0-1.876-1.433-3.394-3.197-3.394z"/><path fill="#fff" stroke-width="4.47047913" d="m517.07 348.414-1.562 4.17c-3.08 6.333-.688 10.53-.688 10.53s3.956.36 7.736-4.111c.832 7.32 5.13 9.643 5.13 9.643s4.313-2.35 5.13-9.715c3.796 4.557 7.78 4.183 7.78 4.183s2.408-4.197-.672-10.53l-1.562-4.17h-21.294zm20.145-4.37s.5-3.108 1.776-5.315c2.423-4.17 6.735-2.837 6.735-2.837 2.02.5 4.585 2.062 6.805 6.32 0 0 4.256-8.283-.257-15.749-1.992-3.037-4.6-4.599-7.005-5.187 0 0-10.99-3.31-13.628 16.091h-7.995c-2.65-19.401-13.626-16.09-13.626-16.09-2.423.587-5.015 2.149-7.02 5.186-4.5 7.466-.244 15.748-.244 15.748 2.22-4.257 4.786-5.819 6.806-6.32 0 0 4.327-1.332 6.734 2.838 1.276 2.205 1.776 5.315 1.776 5.315z"/><path fill="#fff" stroke-width="4.47047913" d="M527.686 295.729s-14.156 13.182-2.707 47.34h5.414c11.45-34.158-2.707-47.34-2.707-47.34z"/><path fill="#231f20" stroke-width="3.5816375400000005" d="M538.317 343.099h-21.262c-1.762 0-3.196 1.518-3.196 3.394 0 1.864 1.434 3.368 3.196 3.368h21.264c1.761 0 3.181-1.504 3.181-3.368 0-1.876-1.42-3.394-3.181-3.394z"/><path fill="#fff" stroke-width="4.47047913" d="M471.864 458.254v-31.407c0-5.574 4.198-10.087 9.37-10.087 5.187 0 9.385 4.513 9.385 10.087v31.408h25.003L493.515 352.27l-.116-67.142 8.51-10.69v-17.48h-9.17v7.91h-7.764v-7.91h-9.027v7.91h-7.98v-7.91h-8.929v8.253h-63.028v-8.253h-8.941v7.91h-7.981v-7.91h-9.027v7.91h-7.752v-7.91h-9.184v17.48l8.525 10.69-.114 67.142-22.109 105.985h24.988v-31.407c0-5.574 4.198-10.087 9.385-10.087 5.173 0 9.37 4.513 9.37 10.087v31.408h88.693z"/></g><path fill="#231f20" d="M465.99 327.022v-18.527c0-4.284 3.224-7.764 7.207-7.764 3.997 0 7.234 3.48 7.234 7.764v18.527z"/><path fill="none" stroke="#231f20" stroke-width="4.47047913" d="M493.155 352.269H361.737"/><path fill="#231f20" d="m465.86 466.694-6.848-49.52c2.693-1.66 4.542-4.756 4.542-8.352 0-4.098-2.394-7.565-5.746-8.97l-5.23-158.299 14.157-.916-.087-3.611-39.13-25.131-39.345 25.132v3.61l14.157.918-5.632 158.454c-3.138 1.505-5.345 4.887-5.345 8.813 0 3.596 1.85 6.692 4.542 8.353l-6.848 49.52v3.97h76.727l.087-3.97"/><path fill="#fff200" d="M409.364 242.858h6.807v16.163h-6.807zm14.773 0h6.805v16.163h-6.805zm15 0h6.808v16.163h-6.807z"/><path fill="#231f20" d="M417.417 205.792c0 5.945 4.513 10.788 10.03 10.788 5.531 0 10.03-4.843 10.03-10.79s-4.5-10.773-10.03-10.773c-5.517 0-10.03 4.828-10.03 10.774zm4.528.028c0-3.253 2.463-5.904 5.487-5.904s5.488 2.65 5.488 5.904c0 3.252-2.465 5.902-5.488 5.902s-5.487-2.65-5.487-5.902"/><path fill="#fff" d="M406.814 369.433h7.493v29.632h-7.492v-29.63zm33.614 0h7.493v29.632h-7.493v-29.63zm-16.808 0h7.495v29.632h-7.495v-29.63z"/><path fill="#fff" stroke="#231f20" stroke-width="4.47047913" d="M353.327 274.71H501.41m-139.958 10.732h131.706m-131.706 56.08h131.706"/><path fill="#231f20" d="M389.062 327.022v-18.527c0-4.284-3.24-7.764-7.222-7.764-3.999 0-7.222 3.48-7.222 7.764v18.527z"/><path fill="#fff" d="M101.953 274.94h21.863c19.416 0 28.901-8.054 28.901-24.803 0-18.025-9.915-26.077-30.404-26.077h-9.93v121.273h-38.4V206.894h61.483c36.235 0 56.725 16.75 56.725 42.384 0 19.098-11.004 31.378-32.783 36.48l39.03 59.577h-44.216l-35.334-57.315h-14.873zm83.418 247.032c-19.2 0-35.806-5.301-48.974-15.904-17.466-13.985-26.306-32.64-26.306-55.322 0-42.612 31.277-73.575 76.57-73.575 25.892 0 44.647 9.973 58.673 31.163l-17.909 12.939c-8.196-17.179-20.275-26.922-36.881-26.922-23.728 0-38.186 19.499-38.186 55.334 0 32.855 17.052 54.06 41.639 54.06 15.532 0 28.685-9.97 38.4-29.686l16.806 10.816c-11.634 23.958-34.072 37.097-63.832 37.097m46.982 18.054h39.475v119.782h51.122v18.671h-90.597z"/></svg>