<svg xmlns="http://www.w3.org/2000/svg" width="264.795" height="377.651" viewBox="0 0 564.374 804.912"><clipPath id="a"><path d="M34.02 354.33h34.011v45.351H34.02z"/></clipPath><clipPath id="b"><path d="M34.02 354.33h34.011v45.351H34.02z"/></clipPath><g clip-path="url(#a)" transform="matrix(17.52683 0 0 -17.52683 -591.184 7010.207)"><path fill="#fff" d="m49.83 354.33-.228.128c-6.571 3.689-11.131 8.889-13.555 15.456-2.032 5.506-2.032 10.673-2.032 12.88 0 5.147 1.087 11.945 1.098 12.014l.039.243.518.239c.091.725.201 1.524.201 1.524l.224.108c.063.031 1.575.757 3.922 1.418a36.7 36.7 0 0 0 9.813 1.344c4.165 0 7.635-.731 9.814-1.344 2.346-.661 3.858-1.387 3.921-1.418l.224-.108s.111-.799.202-1.524l.518-.239.039-.243c.011-.069 1.097-6.867 1.097-12.014 0-2.207 0-7.374-2.032-12.88-2.423-6.567-6.984-11.767-13.555-15.456z"/><path fill="#f58113" d="M63.145 396.346s-5.406 2.636-13.314 2.636-13.315-2.636-13.315-2.636-.664-4.765-.92-9.237h28.47c-.256 4.472-.921 9.237-.921 9.237m-13.314-37.569c10.807 6.295 13.468 14.81 14.121 20.706H35.709c.654-5.896 3.315-14.411 14.122-20.706"/><path fill="#fff" d="M49.721 366.473h.304l-.304-.406zm1.004-.193v-.399h-.299zm-2.201.891v.089h-.594l-.041-.076-.174-.33-.11-.209h.261v-1.384h.658v.088a.4.4 0 0 1 .241-.088h.587q.128.003.232.085v-.085h1.283v.081a.4.4 0 0 1 .231-.081h.587a.4.4 0 0 1 .258.107c.074.07.11.155.111.263v.574a.35.35 0 0 1-.103.254h.103v.433a.35.35 0 0 1-.113.264.4.4 0 0 1-.26.104h-.587a.4.4 0 0 1-.299-.151.4.4 0 0 1-.301.151h-.541a.4.4 0 0 1-.301-.154.4.4 0 0 1-.304.154h-.587a.38.38 0 0 1-.237-.089m.295 2.618q.294.03.578.052c2.731.2 4.912-.3 5.656-1.588.757-1.313-.64-3.784-3.232-4.67a4 4 0 0 0-.423-.127l-.082-.021a6 6 0 0 0-.275-.061l-.01-.003a6.3 6.3 0 0 0-1-.111q-.1-.004-.201-.004c-1.096 0-2.129.371-3.037 1.027-1.158.872-1.833 2.089-1.889 2.816-.086 1.128-.126 2.048 4.282 3.342 1.221.332 1.888.385 2.614.504.915.15 2.286.449 3.231 1.253 0 0 .345.045.419.077.088.037.14.423.087.488-.059.073-.607.855-2.229 1.52-1.201.494-3.186 1.054-5.601 1.054-.378 0-.472-.003-1.032.178a9 9 0 0 1-.807.217 6.84 6.84 0 0 0 3.962 1.259 6.875 6.875 0 0 0 6.864-6.51c-1.876.241-5.375-.019-7.875-.692m8.46.561q-.082.032-.173.057c-.078 3.946-3.311 7.132-7.276 7.132a7.24 7.24 0 0 1-4.642-1.677c-.66.102-1.411.145-2.054-.002-.131-.031-.356-.13-.047-.528l.495-.636c.047-.061.104-.252-.084-.252-.189 0-.985.048-1.068-.034-.631-.631-1.337-2.11-1.337-3.957 0-.522.1-1.057.284-1.589.001-.002.069-.19.104-.277 1.316-3.353 4.521-5.604 8.349-5.604 2.761 0 5.186 1.192 6.825 3.1.408.473.766.992 1.07 1.547.614 1.283.444 2.365-.446 2.72M64.066 387.109c-.256 4.472-.921 9.237-.921 9.237s-5.406 2.636-13.314 2.636c-2.285 0-4.36-.22-6.158-.533q.01-.035.047-.23c.049-.265.127-.747.186-1.401-1.689-.158-3.946-.268-6.938-.27a10 10 0 0 1-.451-.202l-.005-.036-.001-.003c-.063-.458-.672-4.959-.914-9.198z"/><path fill="#231f20" d="M46.586 393.304q-.41.89-.803 1.784a72 72 0 0 0-1.055-1.985q.282.11.56.224l.357-.3.406.382q.267-.054.535-.105m-1.265-3.057-.302.257a80 80 0 0 0-.85-.362q.398-.11.797-.216zm-.18.37.297-.253.345.318q-.136.303-.269.605-.185-.335-.373-.67m1.039 4.337q.392.19.779.384-.375.094-.748.193l-.321-.324zm-1.927-6.783.604.22.378-.301q.222.19.441.38l.571-.109q-.422.893-.827 1.79a77 77 0 0 0-1.167-1.98m-.58 4.269a71 71 0 0 0-1.168-1.949q.295.1.589.205.179-.157.358-.311.219.183.435.369l.549-.123q-.39.903-.763 1.809m1.863-2.172.306-.254q.425.188.845.381-.401.096-.799.196zm-8.416.035.267-.286.379.277q-.1.316-.198.632a65 65 0 0 0-.448-.623m2.655 1.946a75 75 0 0 0-1.279-1.88q.302.085.6.171l.341-.33.455.343.542-.154a111 111 0 0 0-.659 1.85m-2.301-2.338.275-.288q.444.138.884.282-.388.141-.773.287zm4.038.063q.144-.136.291-.271.435.162.865.332a65 65 0 0 0-.787.242zm4.6 5.648q-.131.3-.261.603-.165-.336-.335-.672l.281-.251zm-6.003-7.668.616.185.361-.323.462.354.564-.14q-.37.915-.723 1.834a75 75 0 0 0-1.28-1.91m-1.54 4.387q.374-.142.752-.279l.367.291-.272.28a56 56 0 0 0-.847-.292m3.212-1.967-.234.619-.41-.648.282-.27zm3.909 4.81-.286.255q-.39-.186-.785-.366.371-.108.746-.212zm-7.031-.021-.19.629-.411-.629.251-.282zm-.009-.671q.411.144.819.293a57 57 0 0 0-.721.277q-.178-.144-.357-.286zm1.516-1.742q-.108.312-.213.625-.204-.32-.41-.638l.266-.276zm-1.977 2.026-.255.286a66 66 0 0 0-.824-.273q.358-.15.719-.295zm-.932-4.862-.272.29q-.441-.133-.887-.262.383-.154.769-.306zm.641 2.725q.225.166.447.334l.52-.167q-.306.931-.594 1.865a74 74 0 0 0-1.277-1.852l.583.158q.159-.17.321-.338m2.274-.56q.422.154.842.312a61 61 0 0 0-.755.26l-.363-.294zm3.907.214q.412.177.822.36-.385.106-.768.216l-.345-.314zm-.849-.065q.177.155.35.311l-.287.264q-.411-.173-.827-.34.381-.12.764-.235m.804.735q-.125.305-.247.612a54 54 0 0 0-.374-.661l.282-.26zm-8.078-4.988q.315.072.627.149l.341-.343q.243.163.483.327l.556-.173q-.318.934-.619 1.873a72 72 0 0 0-1.388-1.833m5.823 4.747.427.359q.263-.07.528-.136-.358.912-.699 1.827a72 72 0 0 0-1.169-1.922l.573.191zm.168 2.15-.271.272a56 56 0 0 0-.806-.321q.366-.129.733-.253zm.447.414q-.114.308-.226.617-.185-.326-.374-.652l.266-.267zm.028-.671q.402.167.801.339-.369.116-.735.236l-.34-.306zm-2.283-4.688q.39-.133.784-.261l.373.299-.288.274q-.433-.159-.869-.312m10.586-24.046h-.298l.298.399zm0-.477h-.998v.432l.583.779v.167h-.168v-.167h-.415v.275a.2.2 0 0 0 .067.159.24.24 0 0 0 .164.068h.536a.24.24 0 0 0 .165-.068.2.2 0 0 0 .066-.159v-.373l-.583-.779h.583zm-1.004 1.069h.304l-.304-.406zm-.142-.843a.21.21 0 0 0-.066-.159.24.24 0 0 0-.165-.067h-.582a.24.24 0 0 0-.165.067.21.21 0 0 0-.066.159v.29h.391v-.188h.238v.358h-.398a.24.24 0 0 0-.165.068.21.21 0 0 0-.066.159v.573a.2.2 0 0 0 .066.159.24.24 0 0 0 .165.068h.582a.24.24 0 0 0 .165-.068.2.2 0 0 0 .066-.159zm-1.197-.226h-.373v1.383h-.167l.174.33h.366zm2.486 1.486a.2.2 0 0 0 .066.159c.05.046.101.066.164.068h.583a.24.24 0 0 0 .164-.068.2.2 0 0 0 .067-.159v-.289h-.391v.187h-.238v-.358h.398a.25.25 0 0 0 .164-.067.2.2 0 0 0 .067-.16v-.573a.2.2 0 0 0-.067-.159.24.24 0 0 0-.164-.067h-.583a.24.24 0 0 0-.164.067.2.2 0 0 0-.066.159zm-.001-1.549a.4.4 0 0 1 .231-.08h.587a.4.4 0 0 1 .259.107q.109.103.11.262v.574a.34.34 0 0 1-.103.254h.103v.434a.35.35 0 0 1-.113.263.38.38 0 0 1-.26.104h-.587a.38.38 0 0 1-.298-.15.38.38 0 0 1-.302.15h-.54a.38.38 0 0 1-.301-.154.38.38 0 0 1-.305.154h-.587a.38.38 0 0 1-.237-.088v.088h-.594l-.04-.075-.174-.331-.111-.208h.262v-1.384h.657v.088a.38.38 0 0 1 .242-.088h.587a.38.38 0 0 1 .232.085v-.085h1.282zm.654.757h-.238v-.358h.238zm-2.595.324h.238v.358h-.238zm2.701 6.668c1.04-.325 1.434.083 1.458.204s.055.335-.517.636c-.111.058-.293.14-.387.16-.112.024-.647.062-.383-.193.213-.203.498-.451.415-.533-.082-.083-.474-.176-.978.04-.547.236-.582.522-.582.522s-.067-.51.974-.836m-5.951-1.85c.827-.134 1.047-.064 1.441.245.394.306 1.37 1.344 1.37 1.344s-.716-.503-1.275-.826c-.56-.323-.811-.307-.914-.307s-1.181.213-1.558.323c-.379.11-.331.338.078.496 1.404.539 3.543.677 3.543.677-2.551.197-4.094-.347-4.732-.653s-.409-.646-.086-.772c.322-.127 1.307-.394 2.133-.527m-.047 3.054c3.186 1.024 6.405.425 7.582-.024 1.192-.454 1.828-1.175 1.94-1.452.051-.125-.047-.351-.106-.374-.248-.099-1.037-.273-1.866-.366.484 0 1.852.119 1.852.119s.345.046.42.078c.088.036.14.422.086.488-.059.073-.606.854-2.228 1.52-1.202.493-3.186 1.054-5.602 1.054-.378 0-.472-.004-1.031.178a10 10 0 0 1-.807.217 6.872 6.872 0 0 0 10.825-5.252c-1.876.242-5.374-.019-7.875-.691 3.187.341 6.033-.084 6.801-1.549.909-1.735-1.276-3.809-2.529-4.39-1.253-.582-2.054-.778-3.263-.778s-3.984.405-6.351 3.09c-1.404 1.594-2.955 6.492 2.152 8.132m-4.251-5.43c0-.003.069-.191.104-.278 1.316-3.352 4.521-5.603 8.349-5.603 2.761 0 5.185 1.191 6.825 3.099.407.474.765.993 1.069 1.548.615 1.282.444 2.365-.446 2.72a2 2 0 0 1-.173.057c-.078 3.945-3.31 7.132-7.275 7.132a7.25 7.25 0 0 1-4.643-1.677c-.659.101-1.411.144-2.053-.002-.132-.031-.356-.131-.047-.528l.494-.637c.048-.06.104-.251-.084-.251s-.985.048-1.067-.035c-.631-.63-1.338-2.109-1.338-3.956 0-.523.1-1.058.285-1.589m9.774 2.675c-.374.067-.606.2-.839.378-1.027.787-1.48 1.673-1.365 1.904.231.471 1.531.449 1.531.449s-.705.063-1.457-.11c-.578-.134-.631-.474-.539-.74.086-.251.417-.881.968-1.48.103-.111.026-.198-.09-.227-.217-.056-5.327-1.642-5.645-3.259-.422-2.137 2.445-5.198 6.115-5.198-1.096 0-2.129.371-3.037 1.026-1.159.872-1.834 2.09-1.889 2.817-.087 1.128-.127 2.047 4.281 3.342 1.221.332 1.888.385 2.615.504.914.15 2.285.448 3.23 1.252-1.413-1.043-3.435-.738-3.879-.658m-1.321-12.762c-10.807 6.295-13.468 14.811-14.121 20.706h28.242c-.653-5.896-3.314-14.411-14.121-20.706m-13.32 37.533h.328c4.802 0 7.736.27 9.496.586.88.157 1.466.326 1.849.481q.136.057.24.108c-.44-1.103-1.522-4.349-1.522-9.576l.001-.276h6.832q.666.157 1.357.294c4.341.866 7.665.921 8.857.907a103 103 0 0 0 .117-1.725h-28.47c.243 4.25.855 8.763.915 9.201m.449.234-.093-.04zm6.713 1.905q.009-.035.047-.23c.049-.265.127-.747.186-1.401-1.689-.158-3.946-.268-6.938-.27.946.401 3.335 1.314 6.705 1.901m4.422-.852c-.601-.244-1.788-.54-3.952-.756a15 15 0 0 1-.21 1.525c1.579-.007 2.756-.119 3.541-.249.404-.068.704-.14.898-.203q.116-.039.178-.069a1.7 1.7 0 0 0-.455-.248m6.885-.111c5.344 0 8.142-1.13 8.164-1.139l.001-.001s.358-2.566.65-5.699l-.056.581c-.945.085-3.574.22-7.737-.338-3.766-.505-7.329-1.682-8.854-2.229.019.935.072 1.803.149 2.599 1.131.414 3.678 1.227 7.236 1.666 5.065.624 8.476.134 9.025.045-.09.811-.175 1.522-.244 2.08-.493.15-3.296.917-8.14.63a35 35 0 0 1-7.392-1.243q.099.463.2.863c.166.654.331 1.182.471 1.582 1.433.281 3.665.603 6.527.603m9.109-2.752c-.176.082-.527.24-.527.24-.105.858-.199 1.53-.199 1.53s-1.511.732-3.845 1.389a36.2 36.2 0 0 1-9.687 1.327c-4.112 0-7.538-.722-9.687-1.327-2.334-.657-3.846-1.389-3.846-1.389s-.093-.672-.199-1.53c0 0-.35-.158-.527-.24 0 0-1.091-6.77-1.091-11.939 0-5.168.225-19.44 15.35-27.93 15.124 8.49 15.35 22.762 15.35 27.93 0 5.169-1.092 11.939-1.092 11.939"/><path fill="#fff" d="M41.287 385.56a.7.7 0 0 1-.47.193h-1.309a.7.7 0 0 1-.47-.193.58.58 0 0 1-.189-.454v-3.603a.59.59 0 0 1 .189-.455.7.7 0 0 1 .47-.193h1.309a.7.7 0 0 1 .47.193.59.59 0 0 1 .189.455v1.123h-.985v-.888a.16.16 0 0 0-.044-.108.16.16 0 0 0-.108-.044h-.335a.15.15 0 0 0-.152.152v3.139a.153.153 0 0 0 .152.153h.335a.15.15 0 0 0 .108-.046.15.15 0 0 0 .044-.107v-.898h.985v1.127a.58.58 0 0 1-.189.454m20.23.193v-.723h.502a.153.153 0 0 0 .153-.152v-4.023h.942v4.023h.001a.15.15 0 0 0 .152.152h.502v.723zm-6.26-4.898h2.221v.724h-1.069a.15.15 0 0 0-.152.15v1.046c0 .084.068.152.152.152h1.069v.748h-1.069a.15.15 0 0 0-.152.151v1.053a.15.15 0 0 0 .152.151h1.069v.723h-2.221zm-1.735-.003h.988v4.901h-.988zm7.142 4.708a.7.7 0 0 1-.469.193h-1.969v-4.898h1.003v4.022a.153.153 0 0 0 .152.153h.335a.15.15 0 0 0 .108-.046.15.15 0 0 0 .044-.107v-4.022h.986v4.251a.59.59 0 0 1-.19.454m-12.278-3.822a.16.16 0 0 0-.044-.108.16.16 0 0 0-.109-.044h-.334a.15.15 0 0 0-.152.152v3.139c0 .04.016.08.044.108a.16.16 0 0 0 .108.045h.334a.155.155 0 0 0 .153-.153zm.796 3.822a.7.7 0 0 1-.47.193h-1.31a.7.7 0 0 1-.469-.193.59.59 0 0 1-.19-.454v-3.603a.6.6 0 0 1 .19-.455.7.7 0 0 1 .469-.193h1.31c.18.005.328.065.47.193a.6.6 0 0 1 .189.455v3.603a.6.6 0 0 1-.189.454m2.555-1.733a.15.15 0 0 0-.152-.152h-.335a.155.155 0 0 0-.152.152v1.05a.153.153 0 0 0 .152.153h.335a.15.15 0 0 0 .108-.046.15.15 0 0 0 .044-.107zm.616-.76c.086.068.117.091.232.187a.59.59 0 0 1 .189.455v1.4a.6.6 0 0 1-.189.454.7.7 0 0 1-.471.193h-1.995v-4.901h.98v1.57a.152.152 0 0 0 .293.058l.615-1.628h.94l-.677 1.795c-.077.185-.018.337.083.417m-7.408-1.425a.15.15 0 0 0-.044.108v4.003H43.88v-4.898h2.199l.001.742h-1.027a.15.15 0 0 0-.108.045m-9.065-.787h1v1.92c0 .084.068.152.152.152H38.1v.748h-1.068a.15.15 0 0 0-.108.045.15.15 0 0 0-.044.108v1.051a.15.15 0 0 0 .152.151H38.1v.723h-2.22z"/></g><g clip-path="url(#b)" transform="matrix(1.25 0 0 -1.25 -37.52 504.606)"><path fill="#fff" d="m255.765-236.245-3.197 1.795C160.433-182.725 96.495-109.813 62.508-17.734c-28.493 77.202-28.493 149.65-28.493 180.596 0 72.169 15.242 167.487 15.396 168.454l.547 3.407 7.263 3.351a2105 2105 0 0 0 2.818 21.37l3.141 1.513c.883.435 22.084 10.615 54.992 19.883a514.6 514.6 0 0 0 137.593 18.845c58.4 0 107.054-10.25 137.607-18.845 32.894-9.268 54.095-19.448 54.978-19.883l3.14-1.514s1.557-11.203 2.833-21.369l7.263-3.35.547-3.408c.154-.967 15.382-96.285 15.382-168.454 0-30.945 0-103.394-28.492-180.596-33.974-92.08-97.926-164.991-190.061-216.716z"/><path fill="#f58113" d="M442.454 352.874s-75.8 36.96-186.682 36.96-186.696-36.96-186.696-36.96-9.31-66.812-12.9-129.516h399.192c-3.59 62.704-12.914 129.516-12.914 129.516M255.772-173.899C407.302-85.633 444.613 33.76 453.77 116.43H57.761c9.17-82.67 46.481-202.063 198.011-290.329"/><path fill="#fff" d="M254.235-65.999h4.263l-4.263-5.693zm14.078-2.706V-74.3h-4.193zM237.45-56.212v1.248h-8.328l-.575-1.066-2.44-4.627-1.542-2.93h3.66v-19.406h9.225v1.234a5.48 5.48 0 0 1 3.38-1.234h8.23a5.4 5.4 0 0 1 3.253 1.192v-1.192h17.99v1.136a5.37 5.37 0 0 1 3.239-1.136h8.23a5.43 5.43 0 0 1 3.618 1.5c1.037.982 1.542 2.174 1.556 3.688v8.048a4.92 4.92 0 0 1-1.444 3.562h1.444v6.071a4.94 4.94 0 0 1-1.584 3.702 5.48 5.48 0 0 1-3.646 1.458h-8.23a5.48 5.48 0 0 1-4.193-2.117 5.48 5.48 0 0 1-4.22 2.117h-7.586a5.48 5.48 0 0 1-4.22-2.16 5.48 5.48 0 0 1-4.263 2.16h-8.23a5.33 5.33 0 0 1-3.324-1.248m4.137 36.708c2.748.28 5.454.533 8.104.73 38.293 2.804 68.874-4.207 79.305-22.267 10.615-18.41-8.973-53.057-45.317-65.48a51 51 0 0 0-5.931-1.78l-1.15-.295a81 81 0 0 0-3.856-.856l-.14-.042a88.5 88.5 0 0 0-14.021-1.556c-.94-.028-1.865-.056-2.819-.056-15.367 0-29.851 5.202-42.583 14.4-16.237 12.227-25.701 29.29-26.486 39.484-1.206 15.817-1.767 28.716 60.04 46.86 17.12 4.655 26.472 5.398 36.652 7.067 12.83 2.103 32.053 6.296 45.303 17.569 0 0 4.837.63 5.875 1.08 1.234.518 1.963 5.93 1.22 6.842-.827 1.024-8.511 11.988-31.254 21.313-16.84 6.926-44.672 14.778-78.534 14.778-5.3 0-6.618-.042-14.47 2.496a132 132 0 0 1-11.316 3.043 95.95 95.95 0 0 0 55.553 17.653 96.4 96.4 0 0 0 96.244-91.28c-26.305 3.38-75.366-.266-110.42-9.703m118.622 7.866c-.77.295-1.57.561-2.425.8-1.094 55.328-46.426 100-102.02 100a101.56 101.56 0 0 1-65.088-23.513c-9.254 1.43-19.785 2.033-28.8-.028-1.837-.435-4.992-1.823-.66-7.404l6.941-8.917c.66-.856 1.458-3.534-1.178-3.534-2.65 0-13.81.673-14.975-.477-8.847-8.847-18.746-29.585-18.746-55.483 0-7.319 1.402-14.82 3.982-22.28.014-.028.967-2.664 1.458-3.884 18.452-47.014 63.391-78.576 117.065-78.576 38.714 0 72.716 16.714 95.697 43.467 5.72 6.632 10.74 13.909 15.003 21.69 8.609 17.99 6.225 33.162-6.254 38.14M455.362 223.354c-3.59 62.704-12.914 129.516-12.914 129.516s-75.8 36.96-186.682 36.96c-32.039 0-61.133-3.084-86.344-7.473.084-.322.323-1.402.66-3.224.686-3.716 1.78-10.475 2.607-19.645-23.682-2.215-55.329-3.757-97.28-3.785a145 145 0 0 1-6.324-2.833l-.07-.504-.015-.043c-.883-6.421-9.422-69.532-12.815-128.969z"/><path fill="#231f20" d="M210.27 310.217a1589 1589 0 0 0-11.26 25.014 1003 1003 0 0 0-14.792-27.832 654 654 0 0 1 7.852 3.14l5.006-4.206 5.693 5.356c2.495-.505 4.991-.995 7.501-1.472m-17.737-42.864-4.235 3.604a1126 1126 0 0 0-11.918-5.076c3.716-1.023 7.446-2.033 11.175-3.029zm-2.524 5.188 4.164-3.547 4.838 4.459c-1.276 2.832-2.524 5.664-3.772 8.483a1573 1573 0 0 0-5.23-9.395m14.568 60.811a878 878 0 0 1 10.923 5.385c-3.505.883-6.997 1.78-10.488 2.706a458 458 0 0 0-4.5-4.543zm-27.02-95.107 8.47 3.085 5.3-4.22a768 768 0 0 1 6.183 5.327l8.007-1.528c-3.94 8.343-7.81 16.713-11.596 25.098a1080 1080 0 0 0-16.363-27.762m-8.133 59.857a998 998 0 0 0-16.377-27.327c2.763.939 5.51 1.893 8.259 2.874 1.669-1.472 3.351-2.916 5.02-4.36q3.07 2.565 6.1 5.173l7.697-1.724a1651 1651 0 0 0-10.699 25.364m26.122-30.454 4.291-3.562c3.968 1.753 7.922 3.548 11.848 5.343a933 933 0 0 0-11.203 2.748zm-118.004.49 3.743-4.01 5.315 3.884c-.94 2.959-1.865 5.903-2.777 8.862a912 912 0 0 0-6.281-8.735m37.227 27.285a1053 1053 0 0 0-17.934-26.36c2.819.785 5.623 1.598 8.413 2.398l4.782-4.627 6.38 4.809 7.599-2.16a1549 1549 0 0 0-9.24 25.94m-32.264-32.782 3.856-4.038c4.15 1.29 8.273 2.608 12.395 3.954a906 906 0 0 0-10.838 4.024 763 763 0 0 0-5.413-3.94m56.62.884a353 353 0 0 1 4.08-3.8 699 699 0 0 1 12.128 4.655 917 917 0 0 0-11.035 3.393zm64.498 79.193c-1.234 2.804-2.44 5.636-3.66 8.455a982 982 0 0 0-4.697-9.423l3.94-3.52zm-84.171-107.517 8.637 2.594 5.062-4.529 6.478 4.964 7.908-1.963a1481 1481 0 0 0-10.138 25.715 1049 1049 0 0 0-17.947-26.78M97.86 296.713a857 857 0 0 1 10.544-3.912l5.146 4.08-3.814 3.927a788 788 0 0 0-11.876-4.095m45.037-27.58-3.281 8.68a1084 1084 0 0 0-5.749-9.087l3.954-3.785zm54.81 67.443-4.01 3.576a717 717 0 0 0-11.007-5.132 819 819 0 0 1 10.46-2.973zm-98.585-.294-2.664 8.82a1576 1576 0 0 0-5.763-8.82l3.52-3.954zm-.126-9.408a797 797 0 0 1 11.483 4.108 793 793 0 0 0-10.11 3.884c-1.654-1.346-3.336-2.678-5.005-4.01zm21.256-24.426a920 920 0 0 0-2.986 8.764c-1.907-2.987-3.814-5.974-5.75-8.946l3.73-3.87zm-27.72 28.408-3.576 4.01a929 929 0 0 0-11.553-3.828 799 799 0 0 1 10.081-4.136zm-13.068-68.173-3.814 4.066a1073 1073 0 0 0-12.437-3.673c3.575-1.444 7.179-2.875 10.782-4.29zm8.987 38.209a728 728 0 0 1 6.268 4.683l7.291-2.342a1487 1487 0 0 0-8.329 26.15 1033 1033 0 0 0-17.905-25.967l8.175 2.215a475 475 0 0 1 4.5-4.74m31.885-7.851c3.94 1.43 7.88 2.902 11.806 4.374a855 855 0 0 0-10.586 3.646l-5.09-4.122zm54.782 3a843 843 0 0 1 11.526 5.048 1206 1206 0 0 0-10.769 3.029 488 488 0 0 0-4.837-4.403zm-11.904-.911a494 494 0 0 1 4.907 4.36l-4.024 3.702a772 772 0 0 0-11.595-4.767 725 725 0 0 1 10.712-3.295m11.273 10.306a913 913 0 0 0-3.463 8.58 750 750 0 0 0-5.244-9.267l3.954-3.646zm-113.265-69.94a574 574 0 0 1 8.791 2.09l4.782-4.81c2.271 1.515 4.528 3.057 6.772 4.585l7.796-2.425a1597 1597 0 0 0-8.68 26.262 1014 1014 0 0 0-19.461-25.701m81.647 66.56 5.987 5.033c2.454-.645 4.921-1.29 7.403-1.907a1500 1500 0 0 0-9.8 25.618 1016 1016 0 0 0-16.392-26.95l8.034 2.678zm2.355 30.146a973 973 0 0 0-3.8 3.814 790 790 0 0 0-11.3-4.501 889 889 0 0 1 10.277-3.548zm6.268 5.805a908 908 0 0 0-3.169 8.65c-1.739-3.042-3.477-6.099-5.244-9.141l3.73-3.744zm.393-9.409a998 998 0 0 1 11.23 4.753c-3.448 1.094-6.884 2.188-10.305 3.31l-4.767-4.291zm-32.011-65.733a673 673 0 0 1 10.992-3.66l5.23 4.193-4.038 3.842a897 897 0 0 0-12.184-4.375m148.43-337.16h-4.178l4.179 5.595zm0-6.688h-13.993v6.057l8.175 10.923v2.342h-2.356v-2.342h-5.819v3.856a2.86 2.86 0 0 0 .94 2.23 3.32 3.32 0 0 0 2.3.953h7.515a3.38 3.38 0 0 0 2.313-.954 2.89 2.89 0 0 0 .926-2.23v-5.23l-8.175-10.922h8.175zm-14.077 14.989h4.263l-4.263-5.693zm-1.99-11.82a2.95 2.95 0 0 0-.926-2.23 3.37 3.37 0 0 0-2.314-.939h-8.16a3.34 3.34 0 0 0-2.314.94 2.95 2.95 0 0 0-.925 2.229v4.066h5.482v-2.636h3.337v5.02h-5.58a3.42 3.42 0 0 0-2.314.953 2.95 2.95 0 0 0-.925 2.23v8.034a2.89 2.89 0 0 0 .925 2.23 3.37 3.37 0 0 0 2.314.953h8.16a3.38 3.38 0 0 0 2.314-.954 2.89 2.89 0 0 0 .925-2.23zm-16.784-3.169h-5.23v19.392h-2.342l2.44 4.627h5.132zm34.857 20.836a2.85 2.85 0 0 0 .925 2.23c.701.644 1.417.925 2.3.953h8.174a3.32 3.32 0 0 0 2.3-.954 2.86 2.86 0 0 0 .94-2.23v-4.051h-5.483v2.622h-3.337v-5.02h5.58a3.44 3.44 0 0 0 2.3-.94 2.93 2.93 0 0 0 .94-2.243v-8.034a2.9 2.9 0 0 0-.94-2.23 3.3 3.3 0 0 0-2.3-.939h-8.174a3.34 3.34 0 0 0-2.3.94 2.89 2.89 0 0 0-.925 2.229zm-.014-21.72a5.43 5.43 0 0 1 3.239-1.121h8.23a5.47 5.47 0 0 1 3.632 1.5c1.024.982 1.528 2.174 1.542 3.674v8.048a4.82 4.82 0 0 1-1.444 3.562h1.444v6.085a4.9 4.9 0 0 1-1.584 3.688 5.33 5.33 0 0 1-3.646 1.458h-8.23a5.38 5.38 0 0 1-4.179-2.103 5.38 5.38 0 0 1-4.234 2.103h-7.572a5.33 5.33 0 0 1-4.22-2.16 5.38 5.38 0 0 1-4.277 2.16h-8.23a5.3 5.3 0 0 1-3.323-1.234v1.234h-8.33l-.56-1.052-2.44-4.64-1.556-2.917h3.674v-19.406h9.212v1.234a5.36 5.36 0 0 1 3.393-1.234h8.23a5.33 5.33 0 0 1 3.253 1.192v-1.192h17.976zm9.17 10.615h-3.337v-5.02h3.337zm-36.386 4.543h3.337v5.02h-3.337zm37.872 93.495c14.583-4.557 20.107 1.164 20.444 2.86.35 1.683.77 4.698-7.25 8.918-1.556.813-4.108 1.963-5.426 2.243-1.57.337-9.072.87-5.37-2.706 2.986-2.846 6.983-6.323 5.819-7.473-1.15-1.164-6.646-2.468-13.713.56-7.67 3.31-8.16 7.32-8.16 7.32s-.94-7.151 13.656-11.722M197.51.847c11.596-1.879 14.68-.897 20.205 3.436 5.525 4.29 19.21 18.844 19.21 18.844s-10.04-7.052-17.878-11.581c-7.852-4.53-11.371-4.305-12.815-4.305-1.43 0-16.56 2.987-21.846 4.529-5.314 1.542-4.64 4.74 1.094 6.955 19.686 7.557 49.678 9.492 49.678 9.492-35.769 2.762-57.404-4.865-66.35-9.156-8.945-4.304-5.734-9.058-1.205-10.824 4.515-1.781 18.326-5.525 29.907-7.39m-.659 42.822c44.673 14.358 89.808 5.959 106.311-.337 16.714-6.365 25.631-16.475 27.202-20.359.715-1.753-.66-4.921-1.486-5.244-3.478-1.388-14.54-3.828-26.164-5.132 6.786 0 25.967 1.669 25.967 1.669s4.838.645 5.89 1.094c1.233.504 1.962 5.917 1.205 6.842-.827 1.024-8.497 11.974-31.24 21.313-16.853 6.912-44.672 14.778-78.548 14.778-5.3 0-6.618-.056-14.456 2.496a139 139 0 0 1-11.315 3.043A96.356 96.356 0 0 0 351.999-9.81c-26.304 3.393-75.351-.266-110.42-9.689 44.687 4.781 84.592-1.178 95.361-21.72 12.745-24.326-17.891-53.407-35.46-61.553-17.57-8.16-28.8-10.91-45.752-10.91-16.966 0-55.862 5.68-89.05 43.327-19.687 22.35-41.434 91.028 30.173 114.023m-59.605-76.137c0-.042.968-2.678 1.458-3.898 18.453-47 63.391-78.562 117.066-78.562 38.713 0 72.701 16.7 95.696 43.453a127 127 0 0 1 14.99 21.705c8.622 17.975 6.225 33.16-6.254 38.138a33 33 0 0 1-2.426.8c-1.094 55.314-46.411 100-102.006 100a101.66 101.66 0 0 1-65.102-23.513c-9.24 1.416-19.784 2.019-28.786-.029-1.85-.434-4.992-1.836-.66-7.403l6.928-8.932c.673-.84 1.458-3.519-1.178-3.519s-13.811.673-14.961-.49c-8.848-8.834-18.76-29.572-18.76-55.47 0-7.333 1.401-14.834 3.995-22.28M274.292 5.04c-5.244.94-8.497 2.804-11.764 5.3-14.4 11.035-20.752 23.458-19.14 26.697 3.24 6.604 21.468 6.295 21.468 6.295s-9.886.884-20.43-1.542c-8.104-1.879-8.847-6.646-7.557-10.376 1.206-3.52 5.847-12.353 13.573-20.752 1.444-1.556.364-2.776-1.262-3.183-3.043-.785-74.693-23.023-79.152-45.696-5.917-29.963 34.283-72.883 85.742-72.883-15.368 0-29.852 5.202-42.584 14.386-16.25 12.227-25.715 29.305-26.486 39.498-1.22 15.817-1.78 28.702 60.026 46.86 17.12 4.655 26.472 5.398 36.666 7.067 12.816 2.103 32.039 6.282 45.29 17.555C308.868-.36 280.517 3.918 274.291 5.04M255.77-173.902C104.24-85.637 66.929 33.77 57.772 116.426h395.995C444.61 33.756 407.3-85.637 255.77-173.902M69.004 352.366h4.599c67.33 0 108.47 3.785 133.148 8.216 12.339 2.201 20.555 4.571 25.925 6.744a65 65 0 0 1 3.365 1.515c-6.169-15.466-21.34-60.98-21.34-134.27l.014-3.87h95.794a560 560 0 0 0 19.028 4.123c60.867 12.142 107.474 12.913 124.188 12.717a1437 1437 0 0 0 1.64-24.187H56.174c3.407 59.591 11.988 122.87 12.83 129.012m6.295 3.28-1.304-.56zm94.126 26.711c.07-.322.309-1.402.66-3.224.687-3.716 1.78-10.475 2.607-19.645-23.682-2.215-55.328-3.757-97.28-3.785 13.264 5.622 46.761 18.424 94.013 26.654m62.003-11.946c-8.427-3.421-25.07-7.571-55.412-10.6a206 206 0 0 1-2.945 21.383c22.14-.098 38.643-1.669 49.65-3.492 5.665-.953 9.871-1.963 12.591-2.846 1.08-.365 1.921-.687 2.496-.968a23.2 23.2 0 0 0-6.38-3.477m96.538-1.556c74.931 0 114.163-15.844 114.472-15.97l.014-.015s5.02-35.979 9.113-79.908l-.785 8.146c-13.25 1.192-50.112 3.085-108.484-4.739-52.805-7.08-102.763-23.584-124.146-31.254.266 13.11 1.01 25.281 2.09 36.442 15.858 5.805 51.57 17.204 101.459 23.36 71.018 8.75 118.846 1.879 126.543.63a2359 2359 0 0 1-3.42 29.166c-6.913 2.103-46.216 12.857-114.136 8.833a490 490 0 0 1-103.646-17.429c.911 4.319 1.865 8.371 2.804 12.1 2.328 9.17 4.641 16.574 6.604 22.183 20.093 3.94 51.389 8.455 91.518 8.455m127.722-38.587a873 873 0 0 1-7.39 3.365c-1.472 12.03-2.79 21.453-2.79 21.453s-21.186 10.263-53.912 19.476a508 508 0 0 1-135.826 18.606c-57.657 0-105.694-10.123-135.826-18.606-32.726-9.213-53.927-19.476-53.927-19.476s-1.304-9.423-2.79-21.453c0 0-4.908-2.216-7.39-3.365 0 0-15.297-94.926-15.297-167.403 0-72.463 3.155-272.577 215.23-391.62C467.83-109.711 471 90.403 471 162.866c0 72.477-15.312 167.403-15.312 167.403"/><path fill="#fff" d="M135.978 201.631a9.7 9.7 0 0 1-6.59 2.706h-18.354a9.74 9.74 0 0 1-6.59-2.706 8.18 8.18 0 0 1-2.65-6.366v-50.52a8.2 8.2 0 0 1 2.65-6.379 9.74 9.74 0 0 1 6.59-2.706h18.354a9.7 9.7 0 0 1 6.59 2.706 8.2 8.2 0 0 1 2.65 6.38v15.746h-13.811v-12.451a2.19 2.19 0 0 0-.617-1.514 2.19 2.19 0 0 0-1.514-.617h-4.698a2.13 2.13 0 0 0-2.13 2.13v44.014a2.145 2.145 0 0 0 2.13 2.146h4.698a2.08 2.08 0 0 0 1.514-.645 2.1 2.1 0 0 0 .617-1.5v-12.592h13.811v15.802a8.18 8.18 0 0 1-2.65 6.366m283.654 2.706V194.2h7.04a2.145 2.145 0 0 0 2.144-2.132V135.66h13.209v56.408h.014a2.117 2.117 0 0 0 2.13 2.132h7.04v10.137zm-87.774-68.677H363v10.152h-14.99a2.103 2.103 0 0 0-2.13 2.103v14.666a2.13 2.13 0 0 0 2.13 2.131H363v10.489h-14.99a2.117 2.117 0 0 0-2.13 2.117v14.764a2.13 2.13 0 0 0 2.13 2.118H363v10.137h-31.142zm-24.327-.042h13.853v68.72H307.53zm100.141 66.013a9.68 9.68 0 0 1-6.576 2.706h-27.608V135.66h14.063v56.394a2.145 2.145 0 0 0 2.131 2.146h4.698a2.08 2.08 0 0 0 1.514-.645 2.05 2.05 0 0 0 .617-1.5V135.66h13.825v59.605a8.23 8.23 0 0 1-2.664 6.366m-172.156-53.59a2.19 2.19 0 0 0-.617-1.514 2.23 2.23 0 0 0-1.528-.617h-4.683a2.117 2.117 0 0 0-2.131 2.13v44.014c0 .561.224 1.122.617 1.515a2.19 2.19 0 0 0 1.514.63h4.683a2.173 2.173 0 0 0 2.145-2.145zm11.162 53.59a9.74 9.74 0 0 1-6.59 2.706h-18.369a9.68 9.68 0 0 1-6.576-2.706 8.23 8.23 0 0 1-2.664-6.366v-50.52a8.27 8.27 0 0 1 2.664-6.379 9.68 9.68 0 0 1 6.576-2.706h18.368c2.524.07 4.6.911 6.59 2.706a8.3 8.3 0 0 1 2.65 6.38v50.52a8.27 8.27 0 0 1-2.65 6.365m35.824-24.3a2.13 2.13 0 0 0-2.13-2.13h-4.698a2.173 2.173 0 0 0-2.131 2.13v14.723a2.145 2.145 0 0 0 2.13 2.146h4.698a2.08 2.08 0 0 0 1.514-.645 2.05 2.05 0 0 0 .617-1.5zm8.638-10.656c1.205.954 1.64 1.276 3.253 2.622a8.24 8.24 0 0 1 2.65 6.38v19.63a8.27 8.27 0 0 1-2.65 6.366 9.76 9.76 0 0 1-6.605 2.706h-27.972V135.66h13.74v22.014a2.131 2.131 0 0 0 4.109.813l8.623-22.827h13.18l-9.492 25.169c-1.08 2.593-.253 4.725 1.164 5.846m-103.871-19.98a2.1 2.1 0 0 0-.617 1.514v56.128h-14.316V135.66h30.833l.014 10.404h-14.4a2.15 2.15 0 0 0-1.514.63M60.164 135.66h14.021v26.921a2.13 2.13 0 0 0 2.132 2.131h14.975v10.489H76.317a2.1 2.1 0 0 0-1.515.63 2.08 2.08 0 0 0-.617 1.515v14.736a2.13 2.13 0 0 0 2.132 2.118h14.975v10.137H60.164z"/></g></svg>