<svg xmlns="http://www.w3.org/2000/svg" width="281.947" height="354.677" viewBox="0 0 317.976 400"><path fill="#e6001a" d="M157.993 12.863c-41.46 0-71.493 7.555-94.846 15.651-23.352 8.097-49.556 10.49-49.556 10.49l3.809 64.813c8.596 7.617 8.262 11.03 9.532 24.788 1.249 13.591 8.575 136.306 8.575 136.306 1.894 43.833.895 63.377 17.15 79.653 14.861 14.86 38.13 16.942 38.13 16.942s18.69.478 35.258 4.995c15.006 4.08 27.848 20.5 27.848 20.5h10.24s12.717-16.4 27.703-20.5c16.609-4.537 35.278-4.995 35.278-4.995s23.27-2.082 38.13-16.942c16.318-16.318 15.256-35.8 17.15-79.653 0 0 7.389-122.715 8.596-136.306 1.27-14.34.937-17.17 9.533-24.788l3.808-64.813s-26.224-2.393-49.556-10.49c-23.353-8.096-53.386-15.651-94.846-15.651h-1.915z"/><path fill="#b7002e" d="M67.372 40.67c18.482-6.411 47.975-14.924 90.621-14.924h1.915c42.667 0 72.16 8.513 90.621 14.923 14.57 5.058 29.888 7.972 40.232 9.553-.832 14.424-2.414 41.086-2.81 47.87-7.617 8.097-8.533 14.653-9.574 26.704l-.229 2.685c-1.207 13.612-8.304 131.665-8.596 136.681l-.478 11.76c-1.395 35.09-2.082 48.682-12.925 59.546-10.886 10.886-28.66 13.03-29.992 13.175-3.08.104-21.022.895-37.693 5.432-12.821 3.497-23.498 13.009-29.472 19.315-5.994-6.286-16.734-15.818-29.555-19.315-16.671-4.537-34.612-5.328-37.692-5.432-1.312-.146-19.086-2.29-29.992-13.175-10.844-10.843-11.51-24.497-12.925-59.817l-.458-11.302c-.312-5.224-7.368-123.277-8.638-136.93l-.25-2.81c-.957-10.823-1.602-17.941-9.532-26.495-.395-6.765-1.977-33.468-2.83-47.892 10.364-1.581 25.662-4.495 40.252-9.553M157.993 0c-46.559 0-78.84 9.324-99.07 16.36-21.501 7.471-46.269 9.802-46.519 9.823L0 27.328l.728 12.446 4.121 70.14 3.996 3.54c4.121 3.683 4.121 3.683 4.996 13.444l.27 2.914c1.228 13.217 8.471 134.662 8.534 135.89l.457 11.01c1.437 36.278 2.123 58.631 20.46 76.968 17.962 17.962 44.936 20.563 46.08 20.667l.396.042.395.02c.167 0 17.4.521 32.22 4.559 8.762 2.394 18.42 12.634 21.104 16.026l3.85 4.891 6.265.021h16.505l3.892-4.953c2.664-3.393 12.218-13.612 20.96-15.985 14.818-4.038 32.03-4.558 32.218-4.558l.375-.02.416-.043c1.145-.104 28.119-2.684 46.08-20.667 18.358-18.357 19.024-40.607 20.44-76.718l.478-11.468c.062-1.02 7.368-122.486 8.533-135.744l.25-2.747c.833-9.845.833-9.845 5.016-13.57l3.996-3.539 4.87-82.566-12.404-1.145c-.25-.042-24.997-2.373-46.539-9.824C238.748 9.345 206.447 0 159.908 0z"/><path fill="#e6001a" d="M157.993 12.863c-41.46 0-71.493 7.555-94.846 15.651-23.352 8.097-49.556 10.49-49.556 10.49l3.809 64.813c8.596 7.617 8.262 11.03 9.532 24.788 1.249 13.591 8.575 136.306 8.575 136.306 1.894 43.833.895 63.377 17.15 79.653 14.861 14.86 38.13 16.942 38.13 16.942s18.69.478 35.258 4.995c15.006 4.08 27.848 20.5 27.848 20.5h10.24s12.717-16.4 27.703-20.5c16.609-4.537 35.278-4.995 35.278-4.995s23.27-2.082 38.13-16.942c16.318-16.318 15.256-35.8 17.15-79.653 0 0 7.389-122.715 8.596-136.306 1.27-14.34.937-17.17 9.533-24.788l3.808-64.813s-26.224-2.393-49.556-10.49c-23.353-8.096-53.386-15.651-94.846-15.651h-1.915z"/><g fill="#fff"><path d="M64.438 32.219c19.085-6.619 49.535-15.423 93.555-15.423h1.915c44.02 0 74.47 8.804 93.535 15.423 18.711 6.494 38.67 9.324 46.726 10.26-.396 6.453-3.351 56.78-3.518 59.548-7.909 7.41-8.367 11.78-9.366 23.519l-.25 2.705c-1.186 13.487-8.283 131.415-8.575 136.41l-.478 11.594c-1.374 34.425-1.832 51.783-15.548 65.499-13.632 13.653-35.466 15.776-35.695 15.797-.52 0-19.085.541-35.923 5.12-13.57 3.705-24.935 16.089-28.535 20.376h-6.577c-3.622-4.266-15.069-16.671-28.64-20.376-16.837-4.579-35.403-5.12-36.194-5.14 0 0-21.812-2.144-35.445-15.777-13.695-13.695-14.153-31.137-15.547-65.77l-.479-11.26c-.312-5.078-7.326-123.006-8.575-136.514l-.25-2.852c-.978-11.03-1.519-15.943-9.366-23.352-.145-2.768-3.122-53.095-3.496-59.568 8.055-.957 28.014-3.788 46.705-10.26zm93.555-23.29c-45.206 0-76.51 9.054-96.136 15.86-22.603 7.825-48.37 10.24-48.62 10.281l-3.809.354 4.121 70.245 1.228 1.082c6.785 6.036 6.973 8.076 7.972 19.336l.25 2.872c1.248 13.362 8.512 134.953 8.574 136.181l.458 11.177c1.436 35.924 1.978 55.155 17.858 71.015 15.693 15.693 39.545 17.982 40.544 18.066.437.02 18.67.54 34.571 4.89 13.529 3.685 25.642 18.983 25.788 19.128l1.186 1.52h14.07l1.186-1.52c.125-.145 12.114-15.422 25.663-19.106 15.922-4.35 34.134-4.85 34.321-4.87 1.249-.105 25.101-2.394 40.815-18.087 15.88-15.88 16.4-35.03 17.837-70.765l.458-11.51c.062-1.166 7.389-122.757 8.575-136.14l.25-2.726c1.02-11.864 1.165-13.383 7.992-19.482l1.207-1.082 4.142-70.245-3.788-.353c-.25-.021-26.017-2.456-48.62-10.282-19.627-6.827-50.93-15.86-96.136-15.86h-1.915z"/><path d="M128.022 320.608v18.315c0 1.083.541 1.873 1.707 1.873h2.393v3.247h-15.068v-3.247h2.539c1.165 0 1.706-.77 1.706-1.873v-11.967h-4.183v-3.268h.978c2.248 0 3.871-.729 4.87-3.101h5.037zM143.09 327.518c0 2.976 1.208 4.329 3.185 4.329s3.164-1.353 3.164-4.33c0-2.976-1.207-4.37-3.164-4.37-1.977 0-3.184 1.394-3.184 4.37m6.828 5.702c-2.082 1.437-3.372 1.749-5.932 1.749-4.641 0-8.013-2.435-8.013-7.098 0-5.494 4.933-7.825 9.886-7.825 7.763 0 11.198 5.265 11.198 11.26 0 7.95-3.996 13.32-12.03 13.32h-.042c-3.101 0-7.992-1.04-7.992-4.933 0-2.393 1.56-3.371 3.371-3.371 2.144 0 3.476 1.124 3.476 2.56 0 1.186-.458 1.748-1.52 2.268l1.978.583c3.996 0 5.62-2.851 5.62-7.243v-1.311zM168.754 337.196c0 2.976 1.207 4.329 3.163 4.329 1.978 0 3.164-1.353 3.164-4.33 0-2.976-1.207-4.37-3.164-4.37-1.977 0-3.163 1.394-3.163 4.37m-.437-5.724c2.102-1.436 3.371-1.748 5.931-1.748 4.33 0 7.972 2.56 7.972 7.097 0 5.495-4.87 7.826-9.845 7.826-7.638 0-11.177-4.288-11.177-11.28 0-7.93 3.664-13.321 12.114-13.321 3.06 0 7.93 1.56 7.93 4.932 0 2.394-1.395 3.372-3.83 3.372-1.665 0-3.018-1.124-3.018-2.56 0-1.207.479-1.748 1.52-2.29l-1.999-.582c-3.975 0-5.62 2.872-5.62 6.431v2.144zM188.797 320.025c2.726.416 5.39.583 8.096.583 2.664 0 7.347-.583 8.055-.583l.728.707c0 2.79-5.307 4.767-10.26 4.767-1.353 0-2.644-.188-3.56-.541l-.124 3.538c1.54-.978 3.288-1.29 5.057-1.29 5.39 0 9.886 2.83 9.886 8.616 0 6.036-5.078 8.825-10.531 8.825-4.288 0-9.678-1.436-9.678-6.619 0-2.123 1.54-3.767 3.684-3.767 1.935 0 3.434 1.04 3.434 3.101 0 1.749-1.395 2.644-3.018 2.727.853.895 2.206 1.478 3.455 1.478 3.955 0 5.536-2.165 5.536-5.89 0-2.852-1.29-4.996-4.454-4.996-1.248 0-2.435.27-3.496 1.561h-3.726l.895-12.176zM33.51 287.556c21.125 33.114 51.158 66.124 100.694 81.255l-3.393-4.953c-48.35-19.211-76.364-51.93-96.053-82.796l-1.27 6.515zM36.506 82.108l-1.04-3.205 2.227-.708c.915-.29 1.248-.999.957-1.914l-4.787-14.84c-.291-.916-.978-1.29-1.873-1l-2.269.73-1.02-3.206L52.95 50.16l2.976 9.262-3.393 1.082c-1.685-5.245-3.996-5.39-8.658-3.892l-3.6 1.166L42.5 64.75l1.145-.354c2.081-.666 2.581-1.873 2.081-3.413l-.457-1.415 3.018-.979 3.538 11.01-3.018.979-.458-1.416c-.5-1.54-1.603-2.227-3.684-1.54l-1.124.354 1.977 6.14c.292.916.979 1.29 1.894 1l2.269-.73 1.02 3.227-14.174 4.558zM63.272 71.119c.458 1.686-.583 3.455-2.248 3.934a3.205 3.205 0 0 1-3.913-2.207c-.478-1.706.541-3.496 2.207-3.954 1.644-.458 3.496.541 3.954 2.227M81.671 43l3.372-.75 2.268 10.158-3.475.77c-.875-3.85-3.684-6.64-7.91-5.682-4.162.916-5.723 4.412-4.245 11.073 1.31 5.91 3.621 9.366 8.845 8.2 3.934-.874 5.308-4.6 4.538-8.076l3.475-.77c1.416 6.91-1.894 11.135-8.824 12.696-7.743 1.728-14.174-1.457-16.13-10.219-1.77-7.93 2.538-14.34 9.781-15.964 1.874-.416 6.036-.353 8.034.833zM99.05 63.418c.312 1.748-.937 3.393-2.643 3.684a3.176 3.176 0 0 1-3.663-2.602c-.313-1.727.895-3.413 2.58-3.704 1.707-.292 3.414.895 3.726 2.622M106.605 48.911l-1.02-9.678 25.289-2.643.999 9.678-3.539.375c-.395-3.872-1.81-6.203-6.181-5.745l1.769 17.025c.104.958.687 1.457 1.644 1.374l2.29-.229.353 3.351-14.777 1.54-.354-3.35 2.373-.25c.957-.105 1.415-.729 1.332-1.686l-1.77-17.026c-4.39.458-5.265 3.018-4.87 6.89zM134.329 36.132l11.613-.187.063 3.371-1.04.021-1.146.978.542 2.082 3.704 12.925h.084l3.163-11.822-.728-2.248c-.417-1.249-1.083-2.019-2.02-1.998h-.81l-.063-3.372 12.175-.208.042 3.372-1.727.02-1.124.979.54 2.081 3.456 12.509h.083l2.956-12.592.374-2.227-.999-.833-1.727.021-.063-3.372 9.429-.166.041 3.372h-.458c-1.207.02-2.06.52-2.643 2.81l-4.641 19.356-7.077.104-3.08-10.636h-.083l-2.893 10.719-7.119.125-5.411-17.962c-.895-3.018-1.707-3.954-2.914-3.934h-.5l-.062-3.371zM177.703 41.002c.063-.957-.416-1.56-1.373-1.623l-2.373-.167.229-3.372 25.392 1.79-.666 9.7-3.559-.25c.396-5.495-1.707-6.494-6.577-6.827l-3.767-.27-.52 7.284 1.186.083c2.227.146 3.08-.666 3.247-3.039l.062-.853 3.164.23-.812 11.53-3.164-.23.063-.915c.104-1.415-.312-3.205-1.686-3.31l-2.29-.145-.561 7.95 4.662.313c4.017.291 6.202-.396 6.64-6.556l3.558.25-.728 10.344-25.372-1.77.23-3.371 2.33.166c.958.063 1.54-.458 1.603-1.436l1.082-15.547zM223.617 58.652h.084l1.894-12.467c.125-.937-.312-1.582-1.25-1.728l-2.33-.354.52-3.33 11.656 1.77-.5 3.33-2.269-.354c-.957-.146-1.56.353-1.706 1.29l-3.08 20.251-7.64-1.165-7.72-20.272h-.063l-2.082 13.82c-.145.957.292 1.602 1.25 1.748l2.31.354-.52 3.35-11.698-1.768.5-3.33 2.31.353c.937.146 1.582-.333 1.707-1.29l2.352-15.423c.145-.936-.313-1.582-1.25-1.727l-2.33-.354.5-3.33 12.196 1.831 7.201 18.795zM234.565 52.616l2.186-9.47 24.788 5.724-2.185 9.47-3.476-.791c.874-3.81.312-6.452-3.975-7.43l-3.85 16.67c-.23.937.145 1.603 1.102 1.832l2.227.52-.749 3.268-14.465-3.33.75-3.288 2.31.52c.936.229 1.602-.208 1.81-1.145l3.85-16.671c-4.287-.978-5.952 1.145-6.826 4.953l-3.476-.79zM266.888 55.509c.27-.916-.041-1.623-.957-1.915l-2.269-.707 1.02-3.227 24.31 7.639-2.914 9.283-3.413-1.062c1.665-5.266-.125-6.702-4.808-8.18l-3.622-1.144-2.185 6.972 1.145.354c2.123.666 3.142.063 3.85-2.206l.25-.791 3.039.937-3.455 11.03-3.04-.936.271-.874c.417-1.353.438-3.205-.874-3.6l-2.185-.688-2.394 7.597 4.454 1.415c3.83 1.208 6.14 1.041 7.993-4.849l3.392 1.061-3.1 9.908-24.27-7.618 1-3.226 2.227.708c.916.29 1.603-.105 1.873-1.02l4.683-14.882zM243.036 106.064l22.936-20.147-5.931-1.186-20.356 18.003c.646.583 1.915 1.728 3.351 3.33M170.46 288.243a478 478 0 0 1-.645 4.537c19.502 8.846 41.835 16.672 67.352 22.936a107 107 0 0 0 1.748-3.912c-26.079-6.39-48.744-14.445-68.455-23.561M145.86 275.484c-7.806-4.516-15.049-9.178-21.772-13.965-.416 1.103-1.103 2.29-2.206 3.496l-.27.396c6.473 4.579 13.466 9.033 20.917 13.362.79-1.145 1.873-2.248 3.33-3.289"/><path d="m254.67 242.953-.374-.437c-1.353.687-2.976 1.27-2.976.77l-.375-.083c.729 6.91 2.373 34.966-12.03 68.621.854.209 1.665.417 2.498.625l-1.457 3.975c-.937-.229-1.832-.458-2.768-.687-6.806 14.799-16.734 30.513-31.241 45.914l3.434 3.226c50.576-53.677 47.371-111.496 46.143-122.652l-.5.458-.332.27z"/><path d="M241.413 312.428c-.833-.208-1.644-.416-2.498-.624a207 207 0 0 1-1.748 3.912c.937.23 1.831.48 2.768.687l1.457-3.975zM285.89 209.11c-8.949 7.993-19.855 17.588-33.509 29.618l1.624.27 1.935.292.063 1.936-.541.583.041.395a7431 7431 0 0 0 29.91-26.412l.457-6.681z"/><path d="m254.67 242.953.333-.27.5-.48-.042-.395-1.165.708zM250.945 243.203c-.104-1.02-.208-1.582-.208-1.644l2.186-.625-1.332-1.498.333-.292.478-.416c-12.654-1.998-24.268-5.182-34.862-9.324a35 35 0 0 1-2.123 4.08c10.823 4.266 22.624 7.617 35.55 9.698zM115.971 116.742c-5.723-15.985-8.138-28.057-8.783-31.574l-.687.832-3.559-3.06.645-.748c-36.61.999-63.855 10.136-83.565 21.042v5.411c19.107-10.99 46.039-20.522 82.733-21.666.895 4.724 3.621 17.191 9.47 33.134 1.061-1.144 2.477-2.33 3.725-3.35z"/><path d="m107 84.148-.312-2.04-2.06.042-1.062.041-.645.75L106.48 86l.708-.812zM250.737 241.58c.021.041.104.624.208 1.644l.375.062c0 .52 1.644-.062 2.976-.77l-1.373-1.56zM251.59 239.436l1.333 1.52 2.33-.667c.021.042.105.604.209 1.54l.54-.582-.062-1.936-1.914-.291-1.624-.271-.458.416-.333.292z"/><path d="m252.923 240.955 1.373 1.561 1.187-.707c-.104-.937-.209-1.499-.209-1.54l-2.33.665zM77.466 218.456l-1.144-1.353z"/></g><path fill="#e41d2d" d="m77.466 218.456-1.144-1.353z"/><g fill="#fff"><path d="M72.492 212.275a262 262 0 0 1-3.913-5.225c1.062 2.436 2.519 4.1 3.913 5.225"/><path d="m77.467 218.456-1.145-1.353a351 351 0 0 1-3.83-4.808 201 201 0 0 1-3.913-5.224 235 235 0 0 1-9.553-14.07c-27.723-44.145-29.284-76.696-29.305-77.071l-5.87-5.849c.105 1.603 2.602 39.983 30.867 85.085 10.406 16.63 24.85 35.258 45.352 53.24.395-1.665.79-2.851 1.27-3.767l.145-.291.354-.645a238 238 0 0 1-24.351-25.247z"/><path d="M130.124 251.091c6.577.312 22.645 4.059 25.996 5.162 3.351 1.124 5.661-3.56 7.639-5.578 1.998-2.04.25-5.328-2.706-11.884-2.956-6.577-5.204-15.735-5.204-15.735s-3.017-2.102-5.66-1.894c-2.665.208-3.997-.895-4.705-.583-2.04.874-.416 5.932 0 9.158.438 3.205 3.414 11.03 3.018 13.175-.416 2.143-2.04 2.789-4.058 3.288-2.02.5-12.821-1.249-12.821-1.249s-10.51-2.227-16.817-2.893c-6.265-.666-7.639 3.663-8.43 5.183-.77 1.52-1.457 5.828-1.686 7.222-.25 1.374-.666 1.748-2.934 5.911s-1.436 5.495-1.52 6.619c-.083 1.144.313 1.29 1.312 1.873s1.852-.25 6.91-2.706 7.118-3.6 7.055-4.496c-.083-.895-.416-1.415-.686-1.831-.271-.437-1.811-1.894-2.248-3.06l-.042-.478c.853.25 1.748.478 2.643.686 3.476.833 2.498 4.142 2.498 4.142 3.122-3.392-.042-5.827-2.456-7.055.77-.146 1.603-.354 2.394-.583 2.664-.708 3.309 1.935 3.309 1.935.978-4.412-4.142-4.058-5.745-3.85l1.395-1c1.249-.81 6.972.21 13.528.521zm30.97-162.114c-1.103.79-.832-.541-.832-.541s.936-3.913 2.123-4.413l2.893 6.473s-2.04-3.039-4.204-1.52zm-4.474 13.695c-.063 1.103-.396 3.476-1.832 4.017-2.685.999-4.142-.167-4.829-1.04-2.622 1.54-5.349 3.184-5.349 3.184 2.144-2.581 7.535-7.535 10.011-8.409 1.749-.624 4.371 1.873 4.371 1.873s-1.207.167-2.352.354zm-27.474 18.69-1.04-1.332 2.04-.812s.436 1.499-.98 2.144zm97.219 94.45c11.697-3.891 1.394-11.821 6.39-20.25 6.639-11.177 14.153-3.622 14.423-21.646.063-4.205-.812-7.743 4.163-13.3 7.18-8.034-1.478-25.559-1.478-25.559s2.935 15.506-5.411 20.356c-5.703 3.288-6.827 8.117-7.41 13.174-.562 5.058-.708 5.37-.708 5.37s.417-3.018-.333-9.116c-.77-6.202-1.519-7.888.021-14.985 1.311-6.078 5.661-11.864 8.992-22.125 3.33-10.26-9.387-20.876-9.387-20.876 7.638 10.116 3.1 22.562-3.726 27.661-6.806 5.1-7.014 12.925-7.014 12.925s-2.622-6.16 5.412-18.586c8.7-13.55-5.308-23.248-7.93-26.329-2.602-3.08 4.433-4.08 4.266-10.823s-8.512-10.053-8.512-10.053c1.478 1.874 4.08 7.535 4.12 9.679.126 5.827-2.975 5.39-2.975 5.39-3.122-.125-3.622-3.871-3.622-3.871s-2.06 3.06 4.87 12.613c6.931 9.532-1.31 22.957-1.31 22.957-.688-12.634-4.684-16.755-4.684-16.755s2.56 5.495-4.059 22.291c-5.015 12.717-.54 15.548 3.955 21.167 15.194 18.961 12.342 27.765 10.698 29.139-1.623 1.353-3.288 1.124-5.016-.27-5.016-3.58-1.54-13.737-3.018-18.67-1.353-4.538-4.85-6.494-7.513-7.347l-.313-.104c-1.727-.52-3.018-.562-3.018-.562 1.124.936 1.998 1.748 2.685 2.58a7.8 7.8 0 0 1 1.499 3.018l.187.895c.354 2.248.146 5.266-.374 10.136-1.083 10.261-1.666 11.843 5.994 18.836 10.49 9.595 2.768 19.815-1.603 20.918l-.083-1.624c-2.54-11.405-16.234-15.422-22.666-17.42-8.533-2.664-24.414-27.724-24.414-27.724-2.768-4.807-1.644-7.971-1.644-7.971 1.166 3.705 4.954 5.328 4.954 5.328 2.997 1.457 6.41-1.082 10.947-1.02 4.517.042 4.184 6.515 4.184 6.515l.936-4.163c1.978-9.366-7.7-6.514-12.383-7.826-4.704-1.31.874-7.638.874-7.638 5.598 6.993 11.78 2.602 11.78 2.602s-5.536-.5-6.952-6.078c-1.394-5.599 3.85-2.997 3.85-2.997 4.954 1.332 5.683 5.765 5.683 5.765 2.976 9.179 11.926 5.162 11.926 5.162-7.555.125-7.285-8.346-7.285-8.346-1.52-9.179-2.955-9.2-5.91-11.385s-2.02-7.555 2.476-6.764c2.664.208 4.704 1.769 5.016 5.182.479 5.578 5.724 5.328 5.724 5.328-3.06-1.831-1.624-9.24-1.624-9.24.479-6.952-3.538-7.66-5.411-8.076-10.157-2.269-5.849-10.511-5.849-10.511 6.057 8.471 14.382 1.478 14.382 1.478-5.703 1.894-6.64-.104-7.93-6.286-1.103-5.224-5.827-7.763-9.24-8.95l1.102-.79c9.928-8.076 13.716 1.727 13.716 1.727.125-13.383-11.78-10.948-17.566-8.887-5.765 2.019-7.201-9.262-18.045-6.14l-.333.104c-1.187-2.58-2.519-4.641-3.56-3.975-.957.624-2.185 3.6-3.309 6.972l-1.207.604c-.957.27-1.915.645-2.851 1.082-.583-1.644-1.728-4.641-2.519-4.121-.874.562-2.227 5.474-2.684 7.264-4.725 3.476-8.076 7.597-8.076 7.597-1.499 2.664-2.56 5.682-5.078 8.262s-9.491 9.387-10.199 9.97c-1.165.978-1.915 1.207-4.1 3.101-1.915 1.665-.146 3.976.936 6.785 1.104 2.81 3.164 4.87 5.62 4.33 3.08-.667 2.31-1.582 4.808-3.08 2.622-1.541 5.12-1.208 11.426-1.208 4.975 0 13.404-4.204 16.214-7.014 2.789-2.81 3.85-11.177 3.85-11.177s-.208 1.894-.54 4.662c-.375 2.977-.334 5.433-2.311 8.284-1.499 2.165-11.489 7.514-14.132 8.346-2.644.833-9.866-.395-11.968.208-2.123.625-4.641 3.434-4.641 3.434l-13.03 8.367c-11.093 9.99-10.031 17.067-10.031 17.067l2.123-.874c-3.539 6.015-11.74 4.974-16.401 4.912-4.662-.062-13.154-.624-13.154-.624-6.203 3.33-5.557 5.12-4.662 7.18.874 2.06.145 8.513.145 8.513s-1.748 9.865-2.56 19.876c-.832 10.012 4.766 10.72 6.223 12.072 1.457 1.353 1.124 2.331 1.79 3.892.666 1.54 1.52.333 3.04 1 1.518.665 4.89 3.454 4.89 3.454s1.374-.624 2.102-3.559c.729-2.955-1.415-9.345-1.415-9.345l-1.082.687c-1.083.666-1.603.624-3.393.27-1.769-.374-1.935-1.873-2.227-4.911l-.354-1.707 1.874-1.207c2.08-1.416 3.475.624 3.475.624-.374-2.643-2.372-2.747-4.058-2.31l1.103-1.686c1.374-2.185 3.455-.396 3.455-.396-2.435-4.974-6.598.646-6.598.646l-1.582.478-.27-.353c-1.187-1.582-1-4.059-.979-7.805 0-3.747 1.77-10.365 2.977-12.53 1.186-2.165 5.723-3.871 5.723-3.871s11.74-1.228 18.69 1.498c6.932 2.706 11.531 3.85 11.531 3.85 26.204 4.871 26.933-12.3 26.933-12.3 3.725 24.477-35.196 15.818-35.196 15.818 2.935 7.888 6.869 11.572 6.869 11.572 20.314 27.328 32.219 25.934 32.219 25.934 6.39-.27 7.513 1.436 7.513 1.436l.791-1.707h.021c1.852-16.38 14.902-14.278 14.902-14.278-20.043 8.638-8.887 28.952-8.887 28.952 3.788 11.988 7.243 17.961 9.241 22.603 1.436 3.288-.728 5.453-2.102 6.41l-1.04 1.353c-4.267 5.453-18.296 16.755-18.296 16.755-6.722 3.538-4.454 7.95-3.683 11.468.77 3.559 4.308 7.305 4.308 7.305l.166 2.498c-.062 4.496 5.37 9.116 5.37 9.116s3.976-5.765 5.87-10.365c1.873-4.62.29-4.225-.979-4.33-1.29-.082-2.58-.166-4.828-.915-2.144-.707-2.186-1.707-.52-3.434a2.6 2.6 0 0 1 1.852-.333c1.228.229 4.35.062 3.746-2.165 0 0-1.186 1.665-3.35.562l-.271-.125c.104-.145.957-1.228 2.456-1.332 1.56-.104 5.349-1.352 4.058-4.058 0 0-1.04 2.56-3.975 1.831-1.416-.353-2.352-.458-3.08-.374.29-.978.686-2.206 1.144-3.518 1.062-3.08 11.822-10.281 18.774-13.57 6.972-3.288 5.245-7.909 5.245-7.909 1.04-14.424 8.408-18.087 8.408-18.087 12.925-5.536 17.067-5.203 21.167-15.152 1.062-2.539 1.686-4.89 2.02-7.055 0 0 2.08-1.77 9.303 1.498 11.197 5.079 24.81.291 21.458-9.387-6.348-18.482 5.412-20.771 5.412-20.771-12.343-3.663-14.653 9.074-12.051 18.003 2.04 7.035-6.681 8.45-9.637 8.575-7.388.396-9.262-.354-9.262-.354s2.477.375 6.515-.957zM74.324 148.025c-.812-.645-3.33-3.351-3.892-4.288l-.167-.52-.041.104.166.187s1.124-.333 2.144.375c1.04.687 3.954 1.77 4.33-.52 0 0-1.77 1.061-3.29-.791-1.31-1.624-2.04-2.04-3.08-2.081.458-.791.916-2.227 2.644-3.684 1.769-1.499 4.037-3.788 4.037-3.788 6.37-6.66 13.071-7.306 13.071-7.306 4.059-.333 5.1 2.768 7.597 11.739s6.431 13.945 6.431 13.945 1.603-3.185 3.226-5.412c1.645-2.227 5.266-5.827 5.287-6.223.041-.395.083-1.207-5.495-6.64-5.599-5.432-6.514-10.156-7.597-14.173-1.082-4.017-4.225-2.519-6.556-2.352-2.31.146-2.81-.396-5.703.395-2.914.791-7.347 7.347-8.242 8.284-.916.957-6.036 5.058-11.156 7.639-5.12 2.601-6.473 6.847-6.264 8.283s2.997 7.701 3.06 8.409l.02 1.311c-.042 3.642 1.727 8.117 1.727 8.117 1.124.396 4.58-3.725 4.58-3.725 4.453-4.954 3.933-6.619 3.163-7.285M165.403 30.72c6.077-4.433 13.091-9.553 21.396-15.61l.312-.25-2.747-3.787-.333.229c-10.76 7.846-19.44 14.153-26.558 19.398 1.374-.021 2.726-.042 4.12-.042 1.291 0 2.54.02 3.81.042zM103.567 82.192l1.082-.042 2.06-.042.313 2.04.187 1.04a407 407 0 0 0 12.425-15.276c-2.185.229-4.37.478-6.514.728a375 375 0 0 1-9.533 11.572z"/></g></svg>