<?xml version="1.0" encoding="UTF-8" standalone="no"?>
<svg
   xmlns:dc="http://purl.org/dc/elements/1.1/"
   xmlns:cc="http://creativecommons.org/ns#"
   xmlns:rdf="http://www.w3.org/1999/02/22-rdf-syntax-ns#"
   xmlns:svg="http://www.w3.org/2000/svg"
   xmlns="http://www.w3.org/2000/svg"
   xmlns:sodipodi="http://sodipodi.sourceforge.net/DTD/sodipodi-0.dtd"
   xmlns:inkscape="http://www.inkscape.org/namespaces/inkscape"
   width="80.331505mm"
   height="87.3125mm"
   viewBox="0 0 303.61514 330"
   version="1.1"
   id="svg87156"
   inkscape:version="1.0.1 (3bc2e813f5, 2020-09-07)"
   sodipodi:docname="FC Vollental logo.svg">
  <defs
     id="defs87150" />
  <sodipodi:namedview
     id="base"
     pagecolor="#ffffff"
     bordercolor="#666666"
     borderopacity="1.0"
     inkscape:pageopacity="0.0"
     inkscape:pageshadow="2"
     inkscape:zoom="0.35"
     inkscape:cx="389.6647"
     inkscape:cy="250.71429"
     inkscape:document-units="px"
     inkscape:current-layer="layer1"
     inkscape:document-rotation="0"
     showgrid="false"
     inkscape:window-width="1267"
     inkscape:window-height="729"
     inkscape:window-x="78"
     inkscape:window-y="0"
     inkscape:window-maximized="0" />
  <metadata
     id="metadata87153">
    <rdf:RDF>
      <cc:Work
         rdf:about="">
        <dc:format>image/svg+xml</dc:format>
        <dc:type
           rdf:resource="http://purl.org/dc/dcmitype/StillImage" />
        <dc:title></dc:title>
      </cc:Work>
    </rdf:RDF>
  </metadata>
  <g
     inkscape:label="Layer 1"
     inkscape:groupmode="layer"
     id="layer1"
     transform="translate(14.664703,-269.28571)">
    <path
       style="fill:#f36617;fill-opacity:1;fill-rule:nonzero;stroke:none;stroke-width:0.7866"
       d="m 137.11828,599.28572 -9.2364,-13.33532 c -2.00337,-2.89444 -8.4498,-8.85233 -29.082683,-16.23283 -13.903754,-4.97156 -28.901374,-8.67718 -37.861239,-10.89256 -2.02488,-0.50086 -3.770148,-0.93102 -5.223508,-1.30282 C 40.249776,553.54926 24.735944,544.20531 13.142818,531.87783 -1.8548079,515.93075 -9.7822547,495.8571 -9.7822547,473.8231 c 0,-18.50046 4.5598189,-33.79306 8.97214984,-48.57867 C 2.7388111,413.34097 6.0910781,402.09812 6.0910781,391.055 c 0,-30.70503 -13.8423087,-49.58957 -13.9836513,-49.77393 l -6.7721298,-8.80315 7.4757685,-8.1917 50.4253305,-55.00051 7.156212,3.25701 c 28.526519,12.99119 66.400062,14.39232 81.360822,14.39232 1.88353,0 5.36177,0.0461 5.36177,0.0461 0,0 3.50591,-0.0461 5.36486,-0.0461 14.96076,0 52.83429,-1.40113 81.36083,-14.39232 l 7.1562,-3.25701 57.95333,63.21065 -6.84586,8.81237 c -0.56231,0.77431 -13.96215,19.54208 -13.96215,49.74627 0,11.04312 3.35227,22.28597 6.90119,34.18943 4.4154,14.78561 8.97521,30.07821 8.97521,48.57867 0,22.034 -7.93052,42.10765 -22.92815,58.05473 -11.59004,12.32748 -27.10695,21.67143 -42.56855,25.64436 -1.45336,0.3718 -3.19862,0.80196 -5.18049,1.29359 -9.00595,2.22461 -24.00358,5.93023 -37.90427,10.90179 -20.63595,7.3805 -27.07929,13.33839 -29.08267,16.23283 z m 0,0"
       id="path87049" />
    <path
       style="fill:#ffffff;fill-opacity:1;fill-rule:nonzero;stroke:none;stroke-width:0.7866"
       d="m 246.97489,391.055 c 0,14.13728 3.95758,27.40501 7.7861,40.23948 4.16038,13.94371 8.09031,27.11003 8.09031,42.52862 0,16.54317 -5.93945,31.60224 -17.17921,43.5518 -8.78779,9.34701 -20.90634,16.69065 -32.41343,19.64348 -0.003,0 -5.00228,1.25057 -5.00228,1.25057 -9.35624,2.31063 -25.02678,6.18218 -39.94759,11.51938 -13.88225,4.96541 -24.08347,10.07522 -31.19051,15.67361 -7.11012,-5.60145 -17.31133,-10.71128 -31.19052,-15.67361 -14.899293,-5.32799 -30.539112,-9.19646 -39.886124,-11.50402 -0.03383,-0.009 -5.085241,-1.26901 -5.085241,-1.26901 -0.891068,-0.23044 -1.78521,-0.49469 -2.682429,-0.77431 L 252.38277,355.41222 c -3.03272,9.65734 -5.40788,21.67757 -5.40788,35.64278 M 48.484489,538.13069 c 3.668749,1.68688 7.408173,3.04806 11.138377,4.00365 0,0 5.189708,1.29667 5.15284,1.28437 9.245613,2.28914 24.725651,6.11459 39.369924,11.35039 15.65825,5.60144 26.47705,11.461 32.97265,17.81217 6.49252,-6.35117 17.31134,-12.21073 32.97266,-17.80909 14.66885,-5.24811 30.17347,-9.07969 39.43137,-11.36576 l 4.28328,-1.06928 c 0.29191,-0.0737 0.5623,-0.11987 0.82347,-0.15977 -0.003,0 -0.0553,-0.0339 -0.0553,-0.0339 12.62553,-3.24164 25.36476,-10.94787 34.9545,-21.14293 12.17694,-12.94817 18.61415,-29.26397 18.61415,-47.17754 0,-16.18981 -4.03746,-29.71871 -8.30846,-44.04035 -3.72098,-12.46884 -7.56487,-25.36476 -7.56487,-38.72775 0,-31.04302 12.15849,-51.8326 15.99931,-57.62762 -0.007,-0.006 -0.0153,-0.0154 -0.0245,-0.0246 z m 0,0"
       id="path87051" />
    <path
       style="fill:#ffffff;fill-opacity:1;fill-rule:nonzero;stroke:none;stroke-width:0.7866"
       d="m 11.85845,481.65836 c -0.304193,-2.57181 -0.473189,-5.18049 -0.473189,-7.83526 0,-15.41244 3.926852,-28.58491 8.087226,-42.52554 3.828528,-12.84063 7.786107,-26.11141 7.786107,-40.24256 0,-27.78908 -9.368523,-47.82586 -14.696506,-56.98852 7.795323,-8.50511 24.965316,-27.23293 36.066815,-39.33919 31.055319,11.98949 67.942537,13.37526 83.124527,13.37526 l 5.26653,0.0461 0.37179,-0.003 5.08831,-0.043 c 12.05094,0 37.77521,-0.87878 63.40423,-7.2361 z m 215.1442,-193.23923 c -30.87711,12.92973 -69.17161,14.39231 -84.48571,14.39231 0,0 -5.42016,0.0461 -5.48776,0.0461 l -5.27575,-0.0461 c -15.34792,0 -53.645483,-1.46258 -84.522583,-14.39231 -3.269304,3.56428 -41.0629529,44.79008 -41.2749659,45.02053 3.902271,5.99782 16.0116019,27.0793 16.0116019,57.61534 0,13.35683 -3.674895,25.68124 -7.564875,38.72773 -4.274063,14.32472 -8.3084579,27.85362 -8.3084579,44.04037 0,6.30201 0.798891,12.40737 2.362871,18.2362 L 227.00571,288.4222 c 0,0 -0.003,-0.003 -0.003,-0.003"
       id="path87053" />
    <path
       style="fill:#211e1e;fill-opacity:1;fill-rule:nonzero;stroke:none;stroke-width:0.7866"
       d="m 249.52827,521.00063 c -9.58976,10.19507 -22.32898,17.90435 -34.95452,21.14602 0,0 0.0553,0.0308 0.0553,0.0308 -0.26119,0.04 -0.53158,0.086 -0.82348,0.15977 l -4.28328,1.06929 c -9.25791,2.28606 -24.76253,6.11766 -39.43138,11.36575 -15.66132,5.59837 -26.48013,11.45792 -32.97264,17.80603 -6.4956,-6.34811 -17.31442,-12.20766 -32.97266,-17.80911 -14.644283,-5.2358 -30.124313,-9.06125 -39.369925,-11.34731 0.03689,0.009 -5.15284,-1.28744 -5.15284,-1.28744 -3.730204,-0.9556 -7.469629,-2.31372 -11.138377,-4.00674 L 268.24688,333.40279 c 0.007,0.009 0.012,0.0184 0.0215,0.0246 -3.84388,5.79502 -16.00239,26.5846 -16.00239,57.62762 0,13.36605 3.84698,26.25891 7.56795,38.72773 4.271,14.32164 8.30847,27.85055 8.30847,44.04037 0,17.91664 -6.43721,34.22937 -18.61415,47.17753 M 14.402608,429.78273 c 3.88998,-13.04649 7.564875,-25.3709 7.564875,-38.72773 0,-30.53604 -12.1093309,-51.61752 -16.0116019,-57.61534 0.212013,-0.23045 38.0056619,-41.45625 41.2749659,-45.02053 30.8771,12.92973 69.174663,14.39231 84.522583,14.39231 l 5.27268,0.0461 c 0.0707,0 5.49083,-0.0461 5.49083,-0.0461 15.3141,0 53.6086,-1.46258 84.48571,-14.39231 0,0 0,0 0.003,0.003 L 8.4570211,492.0593 c -1.56398,-5.82883 -2.365943,-11.93419 -2.365943,-18.2362 0,-16.18675 4.0374669,-29.71565 8.3115299,-44.04037 M 260.20574,391.055 c 0,-32.23829 13.9007,-52.24434 15.48618,-54.41978 l 0.0707,-0.0983 c 0.0676,-0.086 2.81148,-3.61959 2.81148,-3.61959 l -2.26762,-2.46734 -47.26665,-51.55299 -2.60868,1.16761 c -29.90614,13.36604 -68.67076,14.81019 -83.95107,14.81019 -0.0339,0 -5.44781,0.0461 -5.45088,0.0461 -0.003,0 -5.24194,-0.0461 -5.24194,-0.0461 -15.31105,0 -54.081798,-1.44415 -83.9818,-14.81327 l -2.611744,-1.16454 -46.5076969,50.72953 c -0.0092,0.009 -2.998911,3.28774 -2.998911,3.28774 l 2.76539,3.595 c 0.125973,0.17514 15.5783579,21.30272 15.5783579,54.54576 0,12.19844 -3.515116,23.98515 -7.2361019,36.46012 -4.443057,14.89316 -8.640303,28.96284 -8.640303,46.30798 0,19.97532 7.183864,38.1685 20.7711439,52.61613 10.591439,11.26127 24.713358,19.7879 38.749242,23.38904 0.02769,0.007 5.174353,1.29359 5.174353,1.29359 9.122706,2.25533 24.356927,6.01933 38.62326,11.12301 16.77055,5.99782 27.69691,12.26296 32.47182,18.62336 l 3.17405,4.22797 3.17406,-4.22797 c 4.77182,-6.3604 15.69512,-12.62554 32.4718,-18.62336 14.28784,-5.11289 29.55279,-8.88305 38.66936,-11.1353 0.009,-0.003 5.08832,-1.269 5.08832,-1.269 14.06968,-3.61344 28.19773,-12.14007 38.78919,-23.40442 13.58728,-14.44455 20.76807,-32.63773 20.76807,-52.61305 0,-17.34822 -4.19726,-31.4179 -8.64031,-46.31106 -3.55505,-11.92189 -7.23303,-24.25245 -7.23303,-36.45704"
       id="path87055" />
    <path
       style="fill:#ffffff;fill-opacity:1;fill-rule:nonzero;stroke:none;stroke-width:0.7866"
       d="m 17.429172,500.34932 15.059079,-14.03589 4.151157,4.45535 -9.626626,8.96908 5.908713,6.34196 9.061258,-8.44059 4.148083,4.45536 -9.058184,8.43751 10.901777,11.70375 -5.435525,5.0668 z m 0,0"
       id="path87057" />
    <path
       style="fill:#ffffff;fill-opacity:1;fill-rule:nonzero;stroke:none;stroke-width:0.7866"
       d="m 55.354942,482.00556 c -3.656452,-3.92684 -6.031614,-4.88858 -8.483595,-2.60253 -2.756172,2.56875 -0.83269,5.92408 6.271284,13.54733 7.598676,8.15483 10.102887,8.57271 12.441181,6.39112 1.963422,-1.82822 2.448904,-4.18496 -2.968187,-9.99841 l 5.438604,-5.06373 c 5.414015,5.81345 8.658738,12.17078 1.524038,18.81693 -8.154828,7.59868 -14.592044,2.73467 -22.221442,-5.45704 -7.632473,-8.19169 -12.029442,-14.95767 -3.874616,-22.55328 7.776886,-7.24532 13.651801,-2.07096 17.311337,1.85588 z m 0,0"
       id="path87059" />
    <path
       style="fill:#ffffff;fill-opacity:1;fill-rule:nonzero;stroke:none;stroke-width:0.7866"
       d="m 69.63664,451.70612 22.381217,16.38032 0.11369,-0.10453 -14.570524,-23.65944 5.626035,-5.24195 18.921412,32.72378 -6.984143,6.50481 -31.304214,-21.18596 z m 0,0"
       id="path87061" />
    <path
       style="fill:#ffffff;fill-opacity:1;fill-rule:nonzero;stroke:none;stroke-width:0.7866"
       d="m 116.12283,452.2592 c 3.20785,-2.98969 1.16761,-6.23748 -5.58302,-13.48588 -6.71681,-7.20844 -9.84785,-9.50987 -13.055693,-6.52017 -3.21093,2.9897 -1.13689,6.27437 5.579933,13.48589 6.7537,7.24839 9.85092,9.50986 13.05878,6.52016 M 93.753907,428.25256 c 8.154823,-7.59868 14.588963,-2.73467 22.221443,5.45703 7.63246,8.19169 12.02944,14.95461 3.87461,22.55328 -8.15483,7.5956 -14.58896,2.7316 -22.221443,-5.46009 -7.63246,-8.19171 -12.02944,-14.95462 -3.87461,-22.55022"
       id="path87063" />
    <path
       style="fill:#ffffff;fill-opacity:1;fill-rule:nonzero;stroke:none;stroke-width:0.7866"
       d="m 132.19588,443.76947 -25.10972,-26.95334 5.43552,-5.06373 20.96166,22.49797 9.62661,-8.966 4.14809,4.45228 z m 0,0"
       id="path87065" />
    <path
       style="fill:#ffffff;fill-opacity:1;fill-rule:nonzero;stroke:none;stroke-width:0.7866"
       d="m 140.07418,386.08345 4.15114,4.45534 -9.62661,8.96601 5.90871,6.34196 9.05818,-8.44058 4.15116,4.45535 -9.06125,8.44058 6.75368,7.2484 10.00456,-9.31938 4.14809,4.45535 -15.44008,14.38311 -25.10973,-26.95332 z m 0,0"
       id="path87067" />
    <path
       style="fill:#ffffff;fill-opacity:1;fill-rule:nonzero;stroke:none;stroke-width:0.7866"
       d="m 149.89746,376.93308 23.76697,12.33978 0.0737,-0.0706 -17.19765,-18.4605 4.98385,-4.64279 25.10972,26.9564 -6.18832,5.76737 -24.23094,-12.68699 -0.0737,0.0706 17.58174,18.87533 -4.98078,4.64277 -25.11281,-26.95333 z m 0,0"
       id="path87069" />
    <path
       style="fill:#ffffff;fill-opacity:1;fill-rule:nonzero;stroke:none;stroke-width:0.7866"
       d="m 192.82858,379.80909 2.41511,-2.24919 c 3.77629,-3.51818 2.3137,-6.60006 -4.50759,-13.92219 -5.69671,-6.11458 -9.10735,-8.79086 -13.26158,-4.9224 l -2.30142,2.14472 z m -26.8212,-17.88592 8.91069,-8.29924 c 7.54952,-7.03638 13.72863,-3.12796 21.11222,4.79948 8.89841,9.54981 10.86797,15.75043 3.65953,22.47033 l -8.56964,7.98275 z m 0,0"
       id="path87071" />
    <path
       style="fill:#ffffff;fill-opacity:1;fill-rule:nonzero;stroke:none;stroke-width:0.7866"
       d="m 208.20106,353.99265 5.28497,-4.92547 -13.89146,-9.69115 -0.0768,0.0707 z m -16.36803,-16.13144 6.71991,-6.259 32.24749,20.3041 -5.66289,5.27575 -6.55704,-4.53831 -7.17157,6.68303 4.06512,6.85816 -5.66291,5.27575 z m 0,0"
       id="path87073" />
    <path
       style="fill:#ffffff;fill-opacity:1;fill-rule:nonzero;stroke:none;stroke-width:0.7866"
       d="m 208.14269,322.67001 8.07801,-7.52493 21.57617,15.43701 0.0768,-0.0707 -13.83924,-22.64853 8.04114,-7.49114 25.10973,26.95333 -4.98077,4.64278 -20.04907,-21.5178 -0.0737,0.0707 15.24958,25.98544 -4.2249,3.93607 -24.8424,-17.05016 -0.0768,0.0707 20.04906,21.5178 -4.98385,4.64278 z m 0,0"
       id="path87075" />
    <path
       style="fill:#ffffff;fill-opacity:1;fill-rule:nonzero;stroke:none;stroke-width:0.7866"
       d="m 206.89211,441.7876 10.0015,0.89415 c 0.82654,3.57964 4.32937,15.89484 15.92249,29.85083 l -25.92399,6.08385 z m 0,0"
       id="path87077" />
    <path
       style="fill:#ffffff;fill-opacity:1;fill-rule:nonzero;stroke:none;stroke-width:0.7866"
       d="m 179.09688,475.43316 c 17.16078,-15.65824 22.48569,-27.50333 25.10053,-37.76292 v 47.03927 z m 0,0"
       id="path87079" />
    <path
       style="fill:#211e1e;fill-opacity:1;fill-rule:nonzero;stroke:none;stroke-width:0.7866"
       d="m 211.99579,464.59284 h -2.03409 l 2.37823,-6.2805 h -3.21092 v -1.62236 h 5.23888 l -0.012,1.69302 z m 0,0"
       id="path87081" />
    <path
       style="fill:#211e1e;fill-opacity:1;fill-rule:nonzero;stroke:none;stroke-width:0.7866"
       d="m 218.01206,464.59284 h -2.02796 l 2.37824,-6.2805 h -3.22321 v -1.62236 h 5.25116 l -0.012,1.69302 z m 0,0"
       id="path87083" />
    <path
       style="fill:#211e1e;fill-opacity:1;fill-rule:nonzero;stroke:none;stroke-width:0.7866"
       d="m 206.89211,490.23722 v -8.85232 l 30.86482,-7.24226 -1.46874,-1.68688 c -14.22945,-16.34344 -16.92725,-31.11063 -16.95182,-31.25811 l -0.17514,-1.0232 -12.26912,-1.09386 V 426.3936 c 3.43216,1.20448 11.37804,4.27713 18.439,9.16573 l 1.53327,-2.21538 c -9.62049,-6.66152 -20.47617,-9.97078 -20.93401,-10.10904 l -1.39806,-0.41788 -0.30725,1.42572 c -0.338,1.56397 -0.62683,3.09722 -0.93716,4.72573 -2.2922,12.06939 -4.88553,25.75192 -27.64775,45.94848 l -1.68075,1.49331 30.23801,11.08307 v 2.75924 c -9.10736,0.28882 -17.71694,2.95282 -17.71694,7.99812 0,10.70512 8.67411,19.37923 19.37616,19.37923 10.70514,0 19.37923,-8.67411 19.37923,-19.37923 0,-5.16206 -9.01516,-7.8322 -18.34375,-8.01348 m 0,-48.44962 10.0015,0.89107 c 0.82654,3.58272 4.32937,15.89792 15.92249,29.85391 l -25.92399,6.08385 z m -27.79523,33.64556 c 17.16078,-15.65824 22.48569,-27.50333 25.10053,-37.76292 v 47.03927 z m 0,0"
       id="path87085" />
    <path
       style="fill:#ffffff;fill-opacity:1;fill-rule:nonzero;stroke:none;stroke-width:0.7866"
       d="m 68.300041,374.4258 c -14.284773,0 -25.905552,-11.62078 -25.905552,-25.90555 0,-6.91962 2.694718,-13.42443 7.586382,-18.31917 4.894741,-4.89166 11.39955,-7.58945 18.31917,-7.58945 14.284766,0 25.905546,11.62385 25.905546,25.90862 0,14.28477 -11.62078,25.90555 -25.905546,25.90555"
       id="path87087" />
    <path
       style="fill:#211e1e;fill-opacity:1;fill-rule:nonzero;stroke:none;stroke-width:0.7866"
       d="m 68.300041,374.4258 c -14.284773,0 -25.905552,-11.62078 -25.905552,-25.90555 0,-6.91962 2.694718,-13.42443 7.586382,-18.31917 4.894741,-4.89166 11.39955,-7.58945 18.31917,-7.58945 14.284766,0 25.905546,11.62385 25.905546,25.90862 0,14.28477 -11.62078,25.90555 -25.905546,25.90555 m -5.672121,-2.95283 c 3.017349,0.74359 6.203691,0.88493 9.251763,0.41789 l 3.499747,-3.62573 -4.575178,-4.03133 H 60.627621 l -2.710079,3.21093 z m 14.721084,-2.16007 -1.671524,1.66845 c 4.427698,-1.45336 8.345334,-4.20646 11.248987,-7.91516 l -0.65755,-0.19357 z M 50.73367,364.31983 c 1.779068,1.97265 3.889986,3.6411 6.206765,4.9224 l -0.771237,-0.66062 z m 9.952332,-2.07096 h 9.961543 l 4.695017,-7.66013 -5.278822,-8.23471 -9.048963,-0.29805 -4.833284,8.29309 z m 26.265045,-1.29359 1.23828,0.33799 c 2.45505,-3.81623 3.75171,-8.22242 3.75171,-12.77302 0,-1.04163 -0.0676,-2.09248 -0.20587,-3.12489 l -1.64694,0.15363 -3.8316,8.97523 z M 44.659036,348.42807 v 0.0922 c 0,4.18495 1.100009,8.25622 3.189415,11.8543 l -1.044703,-6.34504 z m 32.385775,4.8425 h 7.546439 l 3.634957,-8.44672 -4.959269,-8.21936 -8.259295,0.15671 -3.300028,8.36069 z m -28.640211,-0.64219 6.237486,0.42404 4.618204,-8.11796 -2.660916,-8.16404 h -6.550903 l -4.553674,8.07493 z m 2.086334,-19.63733 -0.07064,1.76985 6.686096,-0.0952 8.200914,-4.93468 0.553073,-3.94836 -1.434931,-0.5838 c -5.386357,0.89414 -10.321043,3.65338 -13.934484,7.79225 m 16.905746,-3.18942 7.395876,4.81178 7.973539,-0.14442 v -3.92378 l -3.450592,-2.93745 c -2.577953,-1.36733 -5.34949,-2.22768 -8.240856,-2.56567 l -3.152542,0.84805 z m 0,0"
       id="path87089" />
  </g>
</svg>
