<svg height="262.851496" viewBox="0 0 54.7763 38.41701" width="380.442955" xmlns="http://www.w3.org/2000/svg"><path d="m9.4154 18.709a18.49849 18.49849 0 1 1 18.498 18.498 18.49839 18.49839 0 0 1 -18.498-18.498" fill="#fff"/><circle cx="27.91363" cy="18.70873" fill="none" r="18.4985" stroke="#fff" stroke-miterlimit="3.864" stroke-width=".42"/><path d="m11.66439 12.54276h-1.125a17.9967 17.9967 0 0 1 17.374-12.332 18.64006 18.64006 0 0 1 18.499 19.338h-1.124a17.52639 17.52639 0 0 0 -17.375-18.214 16.88969 16.88969 0 0 0 -16.249 11.20795" fill="#fff"/><path d="m11.66439 12.54276h-1.125a17.9967 17.9967 0 0 1 17.374-12.332 18.64006 18.64006 0 0 1 18.499 19.338h-1.124a17.52639 17.52639 0 0 0 -17.375-18.214 16.88969 16.88969 0 0 0 -16.249 11.208z" fill="none" stroke="#fff" stroke-miterlimit="3.864" stroke-width=".42"/><path d="m9.9714 23.19456c-.141-.54395-.212-.855-.309-1.409-.095-.541-.134-.849-.185-1.396h45.054l-.433 2.805z" fill="#fff"/><path d="m9.9714 23.19456c-.141-.54395-.212-.855-.309-1.409-.095-.541-.134-.849-.185-1.396h45.054l-.433 2.805z" fill="none" stroke="#fff" stroke-miterlimit="3.864" stroke-width=".42"/><path d="m10.25561 24.03483h35.316a18.42147 18.42147 0 0 1 -35.316 0" fill="#fff"/><path d="m10.25561 24.03483h35.316a18.42147 18.42147 0 0 1 -35.316 0z" fill="none" stroke="#fff" stroke-miterlimit="3.864" stroke-width=".336"/><path d="m3.18767 15.48863a.7417.7417 0 0 1 -.82.681l.216-1.411.12-.008c.393 0 .544.349.484.738m-1.339 4.062.307-2.003a2.24164 2.24164 0 0 0 2.648-2.035c.247-1.605-.758-2.075-2.158-2.075h-1.463l-.938 6.113z" fill="#fff" fill-rule="evenodd"/><path d="m3.18767 15.48863a.7417.7417 0 0 1 -.82.681l.216-1.411.12-.008c.393-.00004.544.34896.484.738zm-1.339 4.062.307-2.003a2.24164 2.24164 0 0 0 2.648-2.035c.247-1.605-.758-2.075-2.158-2.075h-1.463l-.938 6.113z" fill="none" stroke="#fff" stroke-miterlimit="3.864" stroke-width=".42"/><path d="m6.44558 17.46659.438-1.419c.122-.381.221-.77.327-1.151h.015c-.019.381-.047.77-.058 1.151l-.045 1.419zm2.323 2.084-.32-6.113h-1.958l-2.362 6.113h1.652l.254-.78595h1.077l-.002.78595z" fill="#fff" fill-rule="evenodd"/><path d="m6.44558 17.46659.438-1.419c.122-.381.221-.77.327-1.151h.015c-.019.381-.047.77-.058 1.151l-.045 1.419zm2.323 2.084-.32-6.113h-1.958l-2.362 6.113h1.652l.254-.78595h1.077l-.002.78595z" fill="none" stroke="#fff" stroke-miterlimit="3.864" stroke-width=".42"/><path d="m11.60351 14.96153c.731 0 .715.924.613 1.58905-.088.576-.358 1.516-1.091 1.524z" fill="#fff" fill-rule="evenodd"/><path d="m11.60351 14.96153c.731 0 .715.924.613 1.58905-.088.576-.358 1.516-1.091 1.524z" fill="none" stroke="#fff" stroke-miterlimit="3.864" stroke-width=".42"/><path d="m14.161 19.551h2.981l.221-1.443h-1.376l.143-.933h1.235l.221-1.443h-1.235l.131-.851h1.376l.222-1.443h-2.981z" fill="#fff" fill-rule="evenodd"/><path d="m14.161 19.551h2.981l.221-1.443h-1.376l.143-.933h1.235l.221-1.443h-1.235l.131-.851h1.376l.222-1.443h-2.981z" fill="none" stroke="#fff" stroke-miterlimit="3.864" stroke-width=".42"/><path d="m20.19259 16.25858.232-1.508c.444-.024.724.203.642.738a.84588.84588 0 0 1 -.773.778zm2.114 3.292-.805-2.546a1.86974 1.86974 0 0 0 1.156-1.532c.247-1.614-.695-2.035-2.087-2.035h-1.549l-.938 6.113h1.604l.25-1.62994c.046-.3.077-.6.115-.9l.018-.016.498 2.546z" fill="#fff" fill-rule="evenodd"/><path d="m20.19259 16.25858.232-1.508c.444-.024.724.203.642.738a.84588.84588 0 0 1 -.773.778zm2.114 3.292-.805-2.546a1.86974 1.86974 0 0 0 1.156-1.532c.247-1.614-.695-2.035-2.087-2.035h-1.549l-.938 6.113h1.604l.25-1.62994c.046-.3.077-.6.115-.9l.018-.016.498 2.546z" fill="none" stroke="#fff" stroke-miterlimit="3.864" stroke-width=".42"/><path d="m25.00908 15.8126.162-1.054h.157c.33 0 .551.15405.495.519a.64815.64815 0 0 1 -.72.535zm-.371 2.416.181-1.175h.125c.37 0 .651.17.587.584a.70572.70572 0 0 1 -.759.591zm-1.807 1.322h2.155a2.0297 2.0297 0 0 0 2.139-1.743c.126-.819-.214-1.322-.99-1.387l.002-.01605a1.35483 1.35483 0 0 0 1.297-1.224c.203-1.322-.834-1.743-1.777-1.743h-1.888z" fill="#fff" fill-rule="evenodd"/><path d="m25.00908 15.8126.162-1.054h.157c.33 0 .551.15405.495.519a.64815.64815 0 0 1 -.72.535zm-.371 2.416.181-1.175h.125c.37 0 .651.17.587.584a.70572.70572 0 0 1 -.759.591zm-1.807 1.322h2.155a2.0297 2.0297 0 0 0 2.139-1.743c.126-.819-.214-1.322-.99-1.387l.002-.01605a1.35483 1.35483 0 0 0 1.297-1.224c.203-1.322-.834-1.743-1.777-1.743h-1.888z" fill="none" stroke="#fff" stroke-miterlimit="3.864" stroke-width=".42"/><path d="m29.55086 16.49387c.058-.381.272-1.62195.878-1.62195.605 0 .439 1.241.38 1.62195-.058.381-.272 1.622-.878 1.622s-.439-1.241-.38-1.622m-1.636 0c-.229 1.492.152 3.162 1.78 3.162s2.521-1.67 2.75-3.162-.152-3.162-1.78-3.162-2.521 1.67-2.75 3.162" fill="#fff" fill-rule="evenodd"/><path d="m29.55086 16.49387c.058-.381.272-1.62195.878-1.62195.605 0 .439 1.241.38 1.62195-.058.381-.272 1.622-.878 1.622s-.43899-1.24095-.38-1.622zm-1.636 0c-.229 1.492.152 3.162 1.78 3.162s2.521-1.67 2.75-3.162-.152-3.162-1.78-3.162-2.52101 1.67006-2.74998 3.162z" fill="none" stroke="#fff" stroke-miterlimit="3.864" stroke-width=".42"/><path d="m34.85387 16.25858.232-1.508c.444-.024.724.203.642.738a.84588.84588 0 0 1 -.773.778zm2.114 3.292-.805-2.546a1.86974 1.86974 0 0 0 1.156-1.532c.247-1.614-.695-2.035-2.087-2.035h-1.549l-.938 6.113h1.604l.25-1.62994c.046-.3.077-.6.115-.9l.018-.016.498 2.546z" fill="#fff" fill-rule="evenodd"/><path d="m34.85387 16.25858.232-1.508c.444-.024.724.203.642.738a.84588.84588 0 0 1 -.773.778zm2.114 3.292-.805-2.546a1.86974 1.86974 0 0 0 1.156-1.532c.247-1.614-.695-2.035-2.087-2.035h-1.549l-.938 6.113h1.604l.25-1.62994c.046-.3.077-.6.115-.9l.018-.016.498 2.546z" fill="none" stroke="#fff" stroke-miterlimit="3.864" stroke-width=".42"/><path d="m37.4923 19.55058h1.541l.275-1.792c.089-.575.105-1.143.154-1.719l.018-.016.654 3.527h1.542l.938-6.113h-1.541l-.239 1.556c-.108.706-.098 1.403-.143 2.108l-.018.017-.717-3.681h-1.526z" fill="#fff" fill-rule="evenodd"/><path d="m37.4923 19.55058h1.541l.275-1.792c.089-.575.105-1.143.154-1.719l.018-.016.654 3.527h1.542l.938-6.113h-1.541l-.239 1.556c-.108.706-.098 1.403-.143 2.108l-.018.017-.717-3.681h-1.526z" fill="none" stroke="#fff" stroke-miterlimit="3.864" stroke-width=".42"/><path d="m10.25561 24.03483h35.316a18.42147 18.42147 0 0 1 -35.316 0" fill="#005ca8"/><path d="m9.9714 23.19456c-.141-.54395-.212-.855-.309-1.409-.095-.541-.134-.849-.185-1.396h45.054l-.433 2.805z"/><g fill-rule="evenodd"><path d="m3.18767 15.48863a.7417.7417 0 0 1 -.82.681l.216-1.411.12-.008c.393 0 .544.349.484.738m-1.339 4.062.307-2.003a2.24164 2.24164 0 0 0 2.648-2.035c.247-1.605-.758-2.075-2.158-2.075h-1.463l-.938 6.113z"/><path d="m6.44558 17.46659.438-1.419c.122-.381.221-.77.327-1.151h.015c-.019.381-.047.77-.058 1.151l-.045 1.419zm2.323 2.084-.32-6.113h-1.958l-2.362 6.113h1.652l.254-.78595h1.077l-.002.78595z"/><path d="m11.6039 14.96159c.731 0 .715.924.613 1.589-.088.576-.359 1.51605-1.091 1.524zm-2.211 4.589h1.4c.975 0 2.737-.259 3.17-3.081.284-1.849-.517-3.032-2.342-3.032h-1.29z"/><path d="m14.161 19.551h2.981l.221-1.443h-1.376l.143-.933h1.235l.221-1.443h-1.235l.131-.851h1.376l.222-1.443h-2.981z"/><path d="m20.19259 16.25858.232-1.508c.444-.024.724.203.642.738a.84588.84588 0 0 1 -.773.778zm2.114 3.292-.805-2.546a1.86974 1.86974 0 0 0 1.156-1.532c.247-1.614-.695-2.035-2.087-2.035h-1.549l-.938 6.113h1.604l.25-1.62994c.046-.3.077-.6.115-.9l.018-.016.498 2.546z"/><path d="m25.00908 15.8126.162-1.054h.157c.33 0 .551.15405.495.519a.64815.64815 0 0 1 -.72.535zm-.371 2.416.181-1.175h.125c.37 0 .651.17.587.584a.70572.70572 0 0 1 -.759.591zm-1.807 1.322h2.155a2.0297 2.0297 0 0 0 2.139-1.743c.126-.819-.214-1.322-.99-1.387l.002-.01605a1.35483 1.35483 0 0 0 1.297-1.224c.203-1.322-.834-1.743-1.777-1.743h-1.888z"/><path d="m29.55086 16.49387c.058-.381.272-1.62195.878-1.62195.605 0 .439 1.241.38 1.62195-.058.381-.272 1.622-.878 1.622s-.439-1.241-.38-1.622m-1.636 0c-.229 1.492.152 3.162 1.78 3.162s2.521-1.67 2.75-3.162-.152-3.162-1.78-3.162-2.521 1.67-2.75 3.162"/><path d="m34.85387 16.25858.232-1.508c.444-.024.724.203.642.738a.84588.84588 0 0 1 -.773.778zm2.114 3.292-.805-2.546a1.86974 1.86974 0 0 0 1.156-1.532c.247-1.614-.695-2.035-2.087-2.035h-1.549l-.938 6.113h1.604l.25-1.62994c.046-.3.077-.6.115-.9l.018-.016.498 2.546z"/><path d="m37.4923 19.55058h1.541l.275-1.792c.089-.575.105-1.143.154-1.719l.018-.016.654 3.527h1.542l.938-6.113h-1.541l-.239 1.556c-.108.706-.098 1.403-.143 2.108l-.018.017-.717-3.681h-1.526z"/><path d="m31.50228 3.53367a2.38684 2.38684 0 0 0 -.908-.162c-.864 0-2.888.513-2.888 3.554 0 2.321 1.239 3.46405 2.696 3.46405a2.4692 2.4692 0 0 0 1.074-.243l.104-1.898a1.27683 1.27683 0 0 1 -.942.432c-.89 0-1.117-1.008-1.117-1.8 0-.747.227-1.799 1.152-1.799a1.07089 1.07089 0 0 1 .829.396zm-7.618 6.577a3.41487 3.41487 0 0 0 1.335.27905 2.13041 2.13041 0 0 0 2.095-2.267 1.97753 1.97753 0 0 0 -.323-1.179 3.324 3.324 0 0 0 -.873-.828 3.0722 3.0722 0 0 1 -.323-.278.58356.58356 0 0 1 -.174-.378.44665.44665 0 0 1 .462-.414 1.44544 1.44544 0 0 1 1.047.72894v-2.061a2.71932 2.71932 0 0 0 -1.265-.342 2.1075 2.1075 0 0 0 -2.007 2.232 2.0015 2.0015 0 0 0 .358 1.187 4.33577 4.33577 0 0 0 .881.864 1.454 1.454 0 0 1 .297.261.54085.54085 0 0 1 .139.378.485.485 0 0 1 -.523.45 1.5033 1.5033 0 0 1 -1.126-.756z"/><path d="m35.18868 32.31046a.41377.41377 0 0 0 -.131.301.39521.39521 0 1 0 .79.01.41122.41122 0 0 0 -.137-.31zm-1.508 0 .15.674h.717l.178-.674zm-1.23 0a.41768.41768 0 0 0 -.131.301.39521.39521 0 1 0 .79.01.40773.40773 0 0 0 -.137-.31zm-2.015 0a.82454.82454 0 0 0 1.628.037h-.663a.153.153 0 0 1 -.148.132c-.096 0-.135-.082-.15-.169zm-3.782 0-.315.674h1.911l.295-.674zm-4.494 0a2.02 2.02 0 0 0 3.207-.001z" fill="#fff"/><path d="m31.094 31.81449c-.003-.096.038-.238.152-.238.12 0 .158.13495.162.238zm-7.331-4.165c.541 0 .576 1.178.576 1.943s-.035 1.943-.576 1.943-.576-1.178-.576-1.943.035-1.943.576-1.943m11.947 4.66097a.41234.41234 0 0 0 -.273-.101.36448.36448 0 0 0 -.248.102zm-.984 0 .529-2.007h-.762l-.193 1.102c-.038.217-.049.43-.08.647h-.006c-.028-.217-.045-.43-.076-.647l-.166-1.102h-.738l.447 2.007zm-1.754 0a.41041.41041 0 0 0 -.273-.101.36448.36448 0 0 0 -.248.102zm-1.869 0a.71637.71637 0 0 1 -.009-.119h.993a1.32439 1.32439 0 0 0 -.196-.818.71908.71908 0 0 0 -.614-.306.90561.90561 0 0 0 -.859 1.014 1.421 1.421 0 0 0 .018.23zm-2.558 0 2.672-6.11h-4.677v1.566h2.234l-2.121 4.54395zm-3.178 0a4.69751 4.69751 0 0 0 .726-2.718c0-1.502-.497-3.509-2.33-3.509-1.832 0-2.33 2.007-2.33 3.509a4.693 4.693 0 0 0 .727 2.717z" fill="#fff"/></g><path d="m11.66439 12.54276h-1.125a17.9967 17.9967 0 0 1 17.374-12.332 18.64006 18.64006 0 0 1 18.499 19.338h-1.124a17.52639 17.52639 0 0 0 -17.375-18.214 16.88969 16.88969 0 0 0 -16.249 11.20795" fill="#005ca8"/></svg>