<svg xmlns="http://www.w3.org/2000/svg" width="264.865" height="252" viewBox="0 0 264.865 252"><path fill="none" stroke="#ff0" stroke-width=".137" d="M52.233 152.4h4.98v10.894h-4.98z"/><path fill="#24216a" d="M213.664 251H51.204L1.002 96.493 132.432 1l131.434 95.49z"/><path fill="#fff" d="M205.518 239.77H59.365L14.201 100.773l118.24-85.907L250.68 100.77z"/><g fill="#e01e13"><path fill-rule="evenodd" d="M130.58 25.241c.08 16.587-8.91 30.646-41.463 51.675-49.32 34.076-46.894 49.05-52.915 66.938l-13.42-40.3z"/><path fill-rule="evenodd" d="M49.012 182.4c-8.985-25.777-5.172-45.031 3.5-59.876 8.095-13.861 20.267-24.213 33.826-33.55-8.942 11.03-14.878 20.02-18.762 27.623-10.51 20.57-8.588 33.337-5.08 44.01.585-14.29 2.575-28.247 17.585-39.7-10.393 25.482-4.175 41.009 1.51 48.546z"/><path d="m132.447 156.545-81.518 33.636L64.67 232.47h135.552l13.741-42.289z"/></g><path fill="#24216a" fill-rule="evenodd" d="M126.468 122.35c-1.573 14.62 4.147 16.875 9.735 20.048.386-6.147 2.4-7.753 5.199-8.376 13.311-2.967 17.038 11.82 25.576 16.792 4.716 2.71 14.32 1.562 19.241.131 17.15-4.987 23.266-22.55 24.651-35.773 2.918-1.736 6.418-1.9 7.26-9.241-14.065-5.769-25.83-12.689-36.384-20.214 1.364-.965 3.732-.862 4.208-3.217.135-.389-2.557-2.557-5.544-5.19-6.762-5.964-18.162-15.033-23.91-16.344-.13-6.194-1.298-12.22-8.169-17.326.028 4.865-.718 9.938-2.64 14.356l-5.28-.413c2.629-9.913 2.896-20.585-3.058-30.129l104.756 76.098-25.616 78.84-81.797-32.323c-7.907-3.43-17.093-11.264-8.228-27.72"/><path fill="#201e5f" fill-rule="evenodd" d="M150.642 82.747c5.626 2.955 8.774 7.035 10.808 12.293 2.204-.79 4.734-.955 7.59-1.072 2.902-.908 3.984-3.579 4.208-6.436-1.637.894-3.535 1.004-5.61.578-5.004-5.187-10.817-6.063-16.996-5.363"/><path fill="#fff" d="M133.258 182.284c.55-5.568 8.243-4.844 8.243-4.844l-2.901-3.592s-3.458-.468-4.999 3.47l-.086.23c-.021.06-.07.098-.135.08-.048-.013-.082-.054-.066-.135.018-.092.033-.142.05-.208.962-3.905 3.007-6.849 3.007-6.849l-3.832-5.173-3.832 5.173s2.046 2.944 3.008 6.85c.016.065.032.114.05.207.016.08-.018.122-.067.135-.064.018-.113-.02-.134-.08l-.086-.23c-1.54-3.938-4.999-3.47-4.999-3.47l-2.901 3.591s7.693-.723 8.243 4.845z"/><g fill="#fff"><path d="M74.352 189.674v33.25H96.05l-2.063-7.359h-10.23v-25.891zM169.85 189.714c-3.232 0-5.835 2.395-5.835 5.369v18.353l3.195 9.447h17.493c3.233 0 5.835-2.394 5.835-5.368v-6.495h-8.886v4.934h-8.75V196.81h8.75v4.769h8.886v-6.495c0-2.974-2.602-5.369-5.835-5.369zM105.166 189.714c-3.232 0-5.835 2.394-5.835 5.368v18.354l3.195 9.447h17.493c3.233 0 5.835-2.393 5.835-5.367v-22.434c0-2.974-2.602-5.368-5.835-5.368zm3.052 7.095h8.75v19.145h-8.75zm31.351 11.841 9.741 2.31v4.994h-8.75v-2.518h-8.886l3.194 9.447h17.493c3.233 0 5.835-2.393 5.835-5.367v-7.464c-.156-2.616-2.214-4.86-10.206-6.435l-7.43-1.815v-4.994h8.75v2.766h8.886v-4.493c0-2.973-2.602-5.367-5.835-5.367h-14.853c-3.232 0-5.835 2.394-5.835 5.367v8.536c.097 3.192 4.594 4.164 7.896 5.033z"/></g></svg>