<svg xmlns="http://www.w3.org/2000/svg" width="200" height="287" fill="none" viewBox="0 0 200 287"><mask id="a" width="200" height="287" x="0" y="0" maskUnits="userSpaceOnUse"><path fill="#fff" d="M200 0H0v286.2h200z"/></mask><g fill="#731013" stroke="#fff" mask="url(#a)"><path stroke-width="2" d="M78.2 113.2h1V56.603a9477 9477 0 0 1 27.313 27.302c4.725 4.736 9.45 9.472 14.187 14.209V113.2h29v41.5h-29v16.5h58v41.5h-58v71.086l-41.5-41.5V212.7h-58v-41.5h58v-16.5h-29v-41.5z"/><path d="M8.1 7.3h-.5v11.4h15.6v6.8H7.6v15.1H.5V.5h23.1v6.8zM43.189 35h.011c3.139 0 5.855-1.562 7.029-4.1h7.044c-1.57 6.237-7.216 10.6-14.073 10.6-8.615 0-15-6.668-15-15.1 0-8.428 6.38-15 15-15 6.855 0 12.497 4.36 14.071 10.5h-7.042c-1.174-2.538-3.89-4.1-7.029-4.1-4.68 0-8.4 3.628-8.4 8.6 0 4.982 3.728 8.494 8.389 8.6zM85.2 13.5v27.1h-7.1V.5h8.372l10.769 24.898.459 1.061.459-1.06L108.928.5h8.372v40.1h-7V13.5l-.959-.198-8.97 20.798h-5.242l-8.97-20.798zm61 10.6h.618l-.129-.605c-.472-2.203-1.506-3.789-2.876-4.82-1.365-1.027-3.026-1.475-4.713-1.475-2.093 0-3.905.577-5.318 1.667s-2.394 2.669-2.868 4.615l-.15.618zm-14.8 5h-.633l.147.616c.524 2.202 1.609 3.835 3.092 4.913 1.478 1.075 3.312 1.571 5.294 1.571 2.698 0 5.19-1.144 6.378-2.904l6.515-.087c-1.984 5.261-6.736 8.291-12.893 8.291-9.215 0-15.2-6.568-15.2-15s6.085-15 15.1-15c8.285 0 14.1 6.636 14.1 15 0 .92-.072 1.765-.216 2.6zm37-10.2v21.7h-6.6V18.5h-5.1v-6.3h5.1V2.8h6.6v9.5H199v4.337l-12.404 17.07-.577.793H199.5v6.1h-22.2v-4.339l12.306-17.069.571-.792H168.4z"/></g></svg>