<?xml version="1.0" encoding="utf-8"?>
<!-- Generator: Adobe Illustrator 18.1.1, SVG Export Plug-In . SVG Version: 6.00 Build 0)  -->
<svg version="1.1" id="Layer_1" xmlns="http://www.w3.org/2000/svg" xmlns:xlink="http://www.w3.org/1999/xlink" x="0px" y="0px"
	 viewBox="0 0 512 512" enable-background="new 0 0 512 512" xml:space="preserve">
<g>
	<path fill="#FE1011" d="M256,166.8c20.1,0,39.5,2.7,57.8,7.9c1.4-1.2,2.4-2.2,3-3.3c0.7-1.1,1.1-2.2,1.4-3.3s0.4-2.2,0.5-2.8
		s0.1-0.6,0.7-0.8s1.9-0.6,2.9-1.1c1.1-0.5,1.9-1.1,2.7-1.4c0.7-0.3,1.3-0.3,1.9,0.1c0.6,0.4,1.1,1.1,1.9,2.4c0.8,1.3,2,3.1,2.8,4.2
		c0.8,1.1,1.4,1.3,1.6,1.5c0.3,0.1,0.3,0.1,0.8,0.1c0.5-0.1,1.6-0.2,2.4-0.6c0.8-0.4,1.4-0.9,2.1-1.8c0.7-0.9,1.6-2.1,2.2-3.3
		s0.8-2.5,1.1-3.7c0.3-1.2,0.5-2.4,0.7-3c0.1-0.6,0.1-0.6,1-1.6c0.8-1,2.5-3,4-5.1s2.7-4.2,3.5-5.8s0.9-2.8,1-4s0-2.5-0.1-3.1
		s-0.1-0.6-0.1-0.6s0,0-0.7,0.1s-2,0.3-3,0.5s-1.7,0.4-2.3,0.5c-0.6,0.1-1.1,0.1-1.7-0.3c-0.6-0.3-1.1-0.8-1.7-1.3s-1-0.9-1.6-1.1
		c-0.5-0.2-1.1-0.2-1.9-0.1s-1.7,0.5-2.7,0.9s-2.1,0.9-3.1,1.1c-1,0.3-1.8,0.3-2.5,0.1s-1.3-0.5-2.1-0.6c-0.8-0.2-1.8-0.2-2.8,0.1
		c-0.9,0.3-1.8,0.7-2.4,1.6c-0.7,0.9-1.2,2.1-1.4,3.1c-0.3,1-0.4,1.9-0.4,2.3c0,0.4,0,0.4,0.1,0.4s0,0-0.9-0.1s-2.9-0.3-4.3-0.8
		c-1.4-0.4-2.4-1.1-3.2-1.9c-0.8-0.8-1.4-1.8-2.1-2.6c-0.8-0.8-1.8-1.5-2.8-1.9c-1-0.5-2.1-0.7-3.7-0.9c-1.6-0.1-3.7-0.1-4.8-0.1
		c-1.1,0-1.1,0-0.9-1.8s0.6-5.3,1.2-7c0.6-1.8,1.5-1.8,2.3-1.3s1.7,1.6,2.9,2.3c1.2,0.7,2.8,0.9,5,1.1c2.3,0.1,5.2,0.1,8.1-0.1
		c2.9-0.2,5.8-0.4,7.9-0.7s3.3-0.5,4.5-1.1c1.2-0.7,2.2-1.8,3.1-3.1c0.9-1.4,1.7-3,2.1-4.6s0.6-3.1,0.6-4.6
		c-0.1-1.5-0.3-2.9-0.7-4.4c-0.4-1.5-1-3-1.8-4s-1.8-1.4-2.9-1.6s-2.4,0-6.1,0.3s-9.7,0.7-12.7,1s-3,0.3-0.3-5.7
		c2.8-6,8.3-17.9,11.5-23.6c3.1-5.7,3.8-5.1,5.2-3c1.4,2.1,3.5,5.7,5.3,8.8c1.8,3.1,3.4,5.6,4.8,8s2.8,4.5,4,6.9
		c1.3,2.4,2.5,5,3.5,7.3s1.9,4.4,2.6,5.7c0.7,1.3,1.3,1.9,1.9,2.3c0.6,0.3,1.3,0.4,2,0.2c0.7-0.2,1.4-0.6,2.2-1.4
		c0.8-0.8,1.7-1.9,2.3-3c0.6-1.1,0.9-2.1,1.1-3s0.2-1.6,0-2s-0.4-0.7-1-0.9c-0.6-0.2-1.7-0.4-2.4-0.7s-1.3-0.7-1.7-1.2
		c-0.5-0.5-0.9-1.1-1.1-1.4s-0.2-0.3-0.2-0.3s0,0,0.8-0.1s2.4-0.2,3.7-0.5c1.3-0.3,2.3-0.7,2.9-1.3c0.6-0.5,0.8-1.2,0.8-1.7
		c-0.1-0.6-0.4-1.1-0.8-1.5s-1-0.7-1.5-0.9s-0.8-0.4-0.9-0.5s-0.2-0.1,0.3-0.6s1.5-1.4,2.9-2.4s3.5-2.1,5.5-3.1s4.1-2.1,5.8-2.7
		c1.7-0.6,3-0.9,4.3-1s2.5,0,3.6,0.4s2.2,1,3.1,1.6s1.7,1.3,2.4,1.6c0.7,0.3,1.4,0.3,2,0s1.3-0.7,1.6-0.9c0.3-0.2,0.3-0.2,0.3-0.2
		s0,0,1.2,1.4s3.6,4.1,4.8,5.4c1.2,1.4,1.2,1.4,0.1,2.4c-1.1,1.1-3.4,3.3-5,5.3s-2.7,3.9-3.2,5.4c-0.6,1.5-0.6,2.6-0.4,3.8
		c0.2,1.2,0.8,2.5,1.6,4c0.9,1.5,2.1,3.2,3.2,4.5s2.1,2.3,3,3s1.7,1.2,2.5,1.2c0.8,0.1,1.7-0.3,2.5-1s1.7-1.9,2.3-3.3
		c0.6-1.4,1-3,1.2-4.8s0.2-3.8,0.1-5s-0.3-1.7-0.6-1.9c-0.3-0.2-0.6-0.2-0.9-0.1c-0.4,0.1-0.8,0.2-1.6,0.8c-0.7,0.6-1.8,1.6-2.5,2.5
		s-1.2,1.8-1.4,2.2c-0.2,0.4-0.2,0.4-0.2,0.4s0,0,0-0.6s-0.1-1.8,0.2-3.1s0.7-2.9,1.5-4.2c0.8-1.3,1.8-2.5,3-3.3
		c1.1-0.7,2.3-1.1,3.5-1.2s2.2,0.2,3.1,0.7s1.8,1.3,2.5,2.5s1.2,2.7,1.5,4.1c0.3,1.5,0.3,2.9,0.1,4.7c-0.3,1.8-0.9,4-1.6,5.7
		s-1.5,2.9-2.4,3.8s-2,1.7-3.3,2.2s-2.7,0.9-4.1,1.1s-2.8,0.2-4.6-0.1c-1.8-0.3-3.8-0.9-5.4-1.3c-1.5-0.4-2.5-0.6-3.3-0.7
		s-1.4,0-1.9,0.3s-1,0.6-1.4,1.2c-0.3,0.5-0.5,1.1-0.8,2.4c-0.3,1.2-0.8,3-1.6,4.7c-0.7,1.6-1.7,3-2.5,4.3s-1.3,2.3-1.6,3.4
		c-0.4,1.1-0.5,2.2-0.6,3.9s0,4,0.4,6.3c0.5,2.3,1.4,4.7,2.5,6.8c1.1,2.2,2.4,4.1,3.4,5.4s1.8,2,2.6,2.4c0.8,0.4,1.8,0.5,2.6,0.4
		c0.8-0.1,1.6-0.4,2.4-0.8c0.8-0.5,1.7-1.2,2.7-2.1c1-0.9,2.1-2.1,2.7-3.3s0.6-2.4,0.5-3.5c-0.1-1-0.3-1.8-0.8-2.6s-1.3-1.7-2.4-2.9
		s-2.6-2.6-3.7-3.8s-1.7-2.1-2.2-2.9c-0.4-0.8-0.6-1.6-0.5-2.3c0.1-0.8,0.6-1.5,1.3-2.3c0.7-0.7,1.6-1.4,2.7-2s2.3-1.1,3.8-1.3
		c1.4-0.3,3-0.3,4.4-0.2c1.3,0.1,2.4,0.3,3.3,0.6s1.7,0.8,2.3,1.3c0.7,0.6,1.3,1.3,1.5,1.6c0.3,0.4,0.3,0.4,0.3,0.4s0,0-1,0
		s-3.1,0-4.6,0.2s-2.6,0.7-3.3,1.3c-0.7,0.6-1.1,1.4-1.4,2.5s-0.5,2.4-0.3,3.8c0.2,1.4,0.7,3,1.2,4.6c0.4,1.6,0.8,3.3,0.8,4.9
		c0,1.6-0.4,3-0.9,4.2s-1.3,2.3-2.4,3.2c-1.2,1-2.9,1.9-4.8,2.8c-1.9,0.9-4.1,1.7-5.5,2.3c-1.4,0.7-2,1.2-2.6,2s-1,1.9-1.3,2.8
		c-0.2,0.9-0.1,1.8,0.2,2.8c0.3,0.9,0.7,2,1.4,2.8c0.7,0.8,1.8,1.4,2.8,1.8c1,0.4,2,0.8,2.7,0.9c0.7,0.2,1.2,0.2,1.5,0.3
		c0.3,0,0.3,0,0.3,0s0,0,0.1,1.7s0.1,5,0.3,7.3c0.2,2.3,0.4,3.6,0.6,4.2c0.1,0.6,0.1,0.6,0.1,0.6s0,0-0.6,0.3s-1.9,1-3.1,2
		s-2.1,2.3-2.8,3.6c-0.7,1.3-1.2,2.6-1.5,5.7c-0.1,0.4-0.1,0.8-0.1,1.2c41.2,31.6,67.3,78.4,67.3,130.6
		c0,95.1-86.3,172.2-192.9,172.2S63,434,63,338.9c0-52,25.9-98.7,66.8-130.3c-0.1-0.6-0.1-1.1-0.2-1.6c-0.4-3-0.8-4.4-1.5-5.7
		s-1.7-2.6-2.8-3.6c-1.1-1-2.4-1.6-3.1-2s-0.6-0.3-0.6-0.3s0,0,0.1-0.6s0.4-1.9,0.6-4.2s0.3-5.6,0.3-7.3c0.1-1.7,0.1-1.7,0.1-1.7
		s0,0,0.3,0s0.7-0.1,1.5-0.3c0.7-0.2,1.7-0.5,2.7-0.9c1-0.4,2-1,2.8-1.8c0.7-0.8,1.2-1.9,1.4-2.8c0.3-0.9,0.4-1.8,0.2-2.8
		c-0.2-0.9-0.7-2-1.3-2.8s-1.2-1.3-2.6-2s-3.6-1.5-5.5-2.3c-1.9-0.9-3.6-1.8-4.8-2.8c-1.2-1-1.9-2-2.4-3.2s-0.9-2.6-0.9-4.2
		s0.4-3.3,0.8-4.9c0.4-1.6,1-3.2,1.2-4.6c0.2-1.4,0-2.8-0.3-3.8c-0.3-1.1-0.7-1.9-1.4-2.5s-1.7-1.1-3.3-1.3
		c-1.5-0.2-3.6-0.2-4.6-0.2s-1,0-1,0s0,0,0.3-0.4s0.9-1.1,1.5-1.6c0.7-0.6,1.4-1,2.3-1.3s2-0.5,3.3-0.6s2.9-0.1,4.4,0.2
		c1.4,0.3,2.7,0.7,3.8,1.3c1.1,0.6,2,1.3,2.7,2s1.1,1.5,1.3,2.3c0.1,0.8-0.1,1.5-0.5,2.3s-1.1,1.7-2.2,2.9s-2.5,2.6-3.7,3.8
		c-1.1,1.2-1.9,2.1-2.4,2.9c-0.5,0.8-0.7,1.6-0.8,2.6c-0.1,1-0.1,2.3,0.5,3.5s1.7,2.4,2.7,3.3c1,0.9,1.9,1.6,2.7,2.1
		c0.8,0.5,1.6,0.8,2.4,0.8c0.8,0.1,1.8,0,2.6-0.4s1.6-1,2.6-2.4c1-1.3,2.3-3.3,3.4-5.4s2-4.5,2.4-6.8c0.5-2.3,0.5-4.6,0.4-6.3
		s-0.3-2.8-0.6-3.9c-0.4-1.1-0.9-2.2-1.6-3.4c-0.8-1.3-1.7-2.7-2.5-4.3c-0.7-1.6-1.2-3.5-1.6-4.7c-0.3-1.2-0.5-1.8-0.8-2.4
		c-0.3-0.5-0.8-0.9-1.4-1.2c-0.5-0.3-1.1-0.3-1.9-0.3c-0.8,0.1-1.8,0.3-3.3,0.7c-1.5,0.4-3.6,1-5.4,1.3s-3.2,0.3-4.6,0.1
		c-1.4-0.2-2.8-0.5-4.1-1.1c-1.3-0.5-2.3-1.3-3.3-2.2c-0.9-0.9-1.7-2.2-2.4-3.8c-0.7-1.7-1.3-3.9-1.6-5.7c-0.3-1.8-0.3-3.2,0.1-4.7
		c0.3-1.5,0.8-3,1.5-4.1c0.7-1.2,1.5-1.9,2.5-2.5c0.9-0.5,2-0.8,3.1-0.7c1.1,0.1,2.3,0.4,3.5,1.2c1.1,0.8,2.2,1.9,3,3.3
		c0.8,1.3,1.3,2.8,1.5,4.2s0.2,2.6,0.2,3.1c0,0.6,0,0.6,0,0.6s0,0-0.2-0.4s-0.7-1.3-1.4-2.2c-0.7-0.9-1.8-1.9-2.5-2.5
		s-1.2-0.7-1.6-0.8c-0.4-0.1-0.7-0.1-0.9,0.1c-0.3,0.2-0.5,0.6-0.6,1.9c-0.1,1.2-0.1,3.2,0.1,5s0.6,3.4,1.2,4.8s1.5,2.5,2.3,3.3
		c0.8,0.7,1.7,1,2.5,1c0.8-0.1,1.6-0.5,2.5-1.2s1.9-1.7,3-3s2.3-3,3.2-4.5c0.9-1.5,1.4-2.8,1.6-4s0.1-2.3-0.4-3.8
		c-0.6-1.5-1.6-3.4-3.2-5.4s-3.9-4.2-5-5.3c-1.1-1.1-1.1-1.1,0.1-2.4c1.2-1.4,3.6-4.1,4.8-5.4c1.2-1.4,1.2-1.4,1.2-1.4s0,0,0.3,0.2
		s0.9,0.7,1.6,0.9c0.6,0.3,1.3,0.3,2,0s1.5-1,2.4-1.6s2-1.3,3.1-1.6c1.1-0.4,2.3-0.4,3.6-0.4c1.3,0.1,2.6,0.4,4.3,1s3.8,1.7,5.8,2.7
		s4,2.1,5.5,3.1s2.5,1.9,2.9,2.4c0.5,0.5,0.5,0.5,0.3,0.6s-0.5,0.3-0.9,0.5s-1,0.5-1.5,0.9c-0.4,0.4-0.8,0.9-0.8,1.5
		c-0.1,0.6,0.2,1.2,0.8,1.7s1.6,1,2.9,1.3s2.9,0.4,3.7,0.5s0.8,0.1,0.8,0.1s0,0-0.2,0.3s-0.7,0.9-1.1,1.4c-0.5,0.5-0.9,0.9-1.7,1.2
		c-0.8,0.3-1.8,0.5-2.4,0.7c-0.6,0.2-0.9,0.4-1,0.9s-0.1,1.2,0,2c0.2,0.9,0.5,1.9,1.1,3s1.5,2.3,2.3,3c0.8,0.8,1.5,1.2,2.2,1.4
		c0.7,0.2,1.4,0.1,2-0.2c0.6-0.3,1.2-0.9,1.9-2.3c0.7-1.3,1.6-3.4,2.6-5.7s2.3-4.9,3.5-7.3s2.6-4.6,4-6.9c1.4-2.4,3-4.9,4.8-8
		s3.9-6.7,5.3-8.8c1.4-2.1,2.1-2.7,5.2,3c3.1,5.7,8.7,17.6,11.5,23.6s2.8,5.9-0.3,5.7c-3-0.3-9.1-0.7-12.7-1c-3.7-0.3-5-0.4-6.1-0.3
		c-1.1,0.2-2.1,0.6-2.9,1.6c-0.8,1-1.4,2.6-1.8,4c-0.4,1.5-0.7,2.9-0.7,4.4c-0.1,1.5,0.1,3,0.6,4.6s1.2,3.2,2.1,4.6
		c0.9,1.4,2,2.5,3.1,3.1c1.2,0.7,2.4,0.9,4.5,1.1c2.1,0.3,5,0.5,7.9,0.7s5.8,0.2,8.1,0.1c2.3-0.1,3.8-0.4,5-1.1s2-1.8,2.9-2.3
		c0.8-0.5,1.7-0.5,2.3,1.3s1,5.3,1.2,7c0.2,1.8,0.2,1.8-0.9,1.8c-1.1,0-3.2,0-4.8,0.1s-2.7,0.4-3.7,0.9s-2,1.1-2.8,1.9
		c-0.8,0.8-1.4,1.8-2.1,2.6c-0.8,0.8-1.8,1.5-3.2,1.9s-3.4,0.7-4.3,0.8s-0.9,0.1-0.9,0.1s0.1,0,0.1-0.4s-0.1-1.3-0.4-2.3
		c-0.3-1-0.8-2.3-1.4-3.1c-0.7-0.9-1.5-1.4-2.4-1.6c-0.9-0.3-1.9-0.3-2.8-0.1c-0.8,0.2-1.4,0.5-2.1,0.6s-1.6,0.2-2.5-0.1
		c-1-0.3-2.1-0.7-3.1-1.1c-1-0.4-1.9-0.7-2.7-0.9s-1.3-0.2-1.9,0.1c-0.5,0.2-1,0.6-1.6,1.1c-0.5,0.5-1.1,1-1.7,1.3
		c-0.6,0.3-1.1,0.3-1.7,0.3s-1.3-0.3-2.3-0.5s-2.3-0.4-3-0.5s-0.7-0.1-0.7-0.1s0,0-0.1,0.6s-0.1,1.9-0.1,3.1c0.1,1.2,0.3,2.4,1,4
		s2,3.8,3.5,5.8c1.5,2.1,3.1,4.1,4,5.1c0.8,1,0.8,1,1,1.6c0.1,0.6,0.4,1.8,0.7,3s0.5,2.5,1.1,3.7s1.5,2.4,2.2,3.3
		c0.7,0.9,1.3,1.5,2.1,1.8s1.9,0.5,2.4,0.6s0.5,0.1,0.8-0.1c0.3-0.1,0.8-0.4,1.6-1.5s2-2.9,2.8-4.2s1.4-2,1.9-2.4
		c0.6-0.4,1.1-0.4,1.9-0.1s1.6,0.9,2.7,1.4c1.1,0.5,2.3,0.9,2.9,1.1c0.6,0.2,0.6,0.2,0.7,0.8s0.2,1.7,0.5,2.8s0.7,2.2,1.4,3.3
		c0.7,1,1.7,2.1,3.1,3.4C216.2,169.6,235.7,166.8,256,166.8L256,166.8z M333.5,181.3c10.4,4.1,20.3,9,29.7,14.5
		c4-0.3,7.2-0.6,9.7-0.9c2.9-0.3,4.7-0.6,5.8-0.9s1.4-0.6,1.6-0.8s0.2-0.2,0.1-0.7c-0.1-0.6-0.2-1.7-0.5-2.6s-0.9-1.8-1.6-2.6
		s-1.6-1.5-2.6-2s-2.1-0.8-3.8-0.9c-1.7-0.2-4-0.2-5.1-0.2s-1.1,0-1.1,0s0,0-0.2-1s-0.6-3-1-4.7s-0.8-3-1.1-4
		c-0.3-1-0.6-1.6-1.1-2.6c-0.5-0.9-1.3-2.3-2.1-3.1c-0.8-0.9-1.5-1.4-2.6-1.6c-1-0.2-2.3-0.2-3.5,0.2s-2.4,1.2-3.6,2.3
		s-2.5,2.5-3.5,3.7c-0.9,1.2-1.6,2-1.9,2.5c-0.3,0.4-0.3,0.4-1.4,0.3c-1.1-0.2-3.3-0.5-5-0.7c-1.6-0.2-2.7-0.2-3.5,0.1
		s-1.3,0.9-1.5,1.7c-0.3,0.8-0.3,1.8-0.2,3.7L333.5,181.3L333.5,181.3z M148.8,195.9c9.2-5.5,19-10.3,29.2-14.4v-0.4
		c0.1-1.9,0.1-2.9-0.2-3.7s-0.7-1.4-1.5-1.7s-1.8-0.3-3.5-0.1c-1.6,0.2-3.9,0.5-5,0.7s-1.1,0.2-1.4-0.3c-0.3-0.4-0.9-1.3-1.9-2.5
		c-0.9-1.2-2.3-2.6-3.5-3.7c-1.2-1.1-2.4-1.8-3.6-2.3c-1.2-0.4-2.5-0.4-3.5-0.2s-1.8,0.7-2.6,1.6c-0.8,0.9-1.6,2.2-2.1,3.1
		c-0.5,0.9-0.8,1.6-1.1,2.6s-0.7,2.3-1.1,4c-0.4,1.7-0.8,3.7-1,4.7s-0.2,1-0.2,1s0,0-1.1,0s-3.4,0.1-5.1,0.2
		c-1.7,0.2-2.8,0.4-3.8,0.9s-1.9,1.2-2.6,2c-0.7,0.8-1.3,1.6-1.6,2.6s-0.5,2.1-0.5,2.6c-0.1,0.6-0.1,0.6,0.1,0.7
		c0.2,0.2,0.5,0.5,1.6,0.8s2.8,0.6,5.8,0.9C141.2,195.2,144.6,195.5,148.8,195.9L148.8,195.9z"/>
	<path fill="#FFFFFF" d="M256.8,0.5c43.4,0,78.7,34.6,78.7,77.3s-35.2,77.3-78.7,77.3s-78.7-34.6-78.7-77.3S213.3,0.5,256.8,0.5
		L256.8,0.5z"/>
	<g>
		<g>
			<g>
				<g>
					<defs>
						<rect id="SVGID_1_" x="63.1" width="385.9" height="512"/>
					</defs>
					<clipPath id="SVGID_2_">
						<use xlink:href="#SVGID_1_"  overflow="visible"/>
					</clipPath>
					<path clip-path="url(#SVGID_2_)" fill="none" stroke="#FE1011" stroke-width="1.063" d="M256.8,0.5c43.4,0,78.7,34.6,78.7,77.3
						s-35.2,77.3-78.7,77.3s-78.7-34.6-78.7-77.3S213.3,0.5,256.8,0.5L256.8,0.5z"/>
				</g>
			</g>
		</g>
	</g>
	<path fill="#FE1011" d="M245.2,146.5c-1-1-1.9-2.1-3.1-3.4c-1.1-1.3-2.4-2.9-3.5-4.7c-1-1.8-1.9-3.8-2.6-5.5
		c-0.7-1.8-1.1-3.3-1.5-4.9s-0.6-3.4-0.8-5.2 M209.9,19.4c1.3-1.3,2.7-2.6,4.1-4.1c1.5-1.5,3-3.3,4.6-5 M267.6,11.9
		c-0.3-1.3-0.5-2.5-1-3.7s-1.2-2.4-2.2-3.7S262.2,2,261,0.7 M317.1,110.7c0.9,1.2,1.8,2.5,2.5,3.6s1.2,2.2,1.6,3.2s0.7,1.8,1,2.7
		 M215.6,27.5c1.8-0.2,3.6-0.4,6.8-0.7c3.3-0.3,8-0.6,12-0.8c4-0.2,7.3-0.2,10.7-0.2 M189.2,56.8c-1.2,2.2-2.3,4.3-3.2,6.6
		s-1.6,4.6-2.2,7.5s-1,6.3-1.3,9.4c-0.3,3-0.4,5.7-0.5,8.4 M192.9,113c2.5-0.4,4.9-0.7,6.7-1.1c1.8-0.3,3-0.6,4.8-1.1s4.2-1.2,6.6-2
		 M199.3,55c0.3,1,0.6,2.1,1.3,4s1.9,4.7,3.4,7.7c1.5,3,3.1,6,4.7,8.5c1.6,2.5,3,4.3,4.4,6.1 M238.1,80.2c1.5-2.9,3.1-5.7,4.6-8.4
		c1.5-2.7,3-5.2,4.7-7.8c1.7-2.6,3.5-5.2,5.5-7.8s4.2-5.3,6.3-8 M315.1,32.6c-1.8-1-3.6-2.1-5.6-2.9c-1.9-0.9-3.9-1.6-5.9-1.9
		c-2-0.4-4-0.5-6.2-0.4c-2.3,0.1-4.8,0.4-7.3,0.6 M304.1,83.2c-1.1-2.8-2.1-5.7-3.2-8.5s-2.2-5.5-3.4-8c-1.2-2.4-2.4-4.6-3.8-6.8
		s-3.1-4.3-4.5-6.1s-2.7-3.3-3.9-4.7 M329.6,60.9c0,1.3-0.1,2.6-0.3,4.6c-0.3,1.9-0.8,4.6-1.4,6.8c-0.6,2.3-1.2,4.3-2.2,6.5
		c-0.9,2.2-2.2,4.7-3.5,7.1 M250,106.2c1.8,0.3,3.6,0.7,6.5,1c2.8,0.4,6.7,0.8,11.3,1.1c4.6,0.2,9.9,0.2,14.8,0.1
		c4.9-0.2,9.5-0.5,14-0.7 M273.8,148.8c2.5-1.7,5-3.4,7.3-5.1s4.6-3.4,6.5-5s3.3-3,4.6-4.5s2.2-2.7,3.2-4.2c0.9-1.5,1.8-3.1,2.7-4.7
		"/>
	<g>
		<g>
			<g>
				<g>
					<defs>
						<rect id="SVGID_3_" x="63.1" width="385.9" height="512"/>
					</defs>
					<clipPath id="SVGID_4_">
						<use xlink:href="#SVGID_3_"  overflow="visible"/>
					</clipPath>
					<path clip-path="url(#SVGID_4_)" fill="none" stroke="#FE1011" stroke-width="1.063" d="M245.2,146.5c-1-1-1.9-2.1-3.1-3.4
						c-1.1-1.3-2.4-2.9-3.5-4.7c-1-1.8-1.9-3.8-2.6-5.5c-0.7-1.8-1.1-3.3-1.5-4.9s-0.6-3.4-0.8-5.2 M209.9,19.4
						c1.3-1.3,2.7-2.6,4.1-4.1c1.5-1.5,3-3.3,4.6-5 M267.6,11.9c-0.3-1.3-0.5-2.5-1-3.7s-1.2-2.4-2.2-3.7S262.2,2,261,0.7
						 M317.1,110.7c0.9,1.2,1.8,2.5,2.5,3.6s1.2,2.2,1.6,3.2s0.7,1.8,1,2.7 M215.6,27.5c1.8-0.2,3.6-0.4,6.8-0.7
						c3.3-0.3,8-0.6,12-0.8c4-0.2,7.3-0.2,10.7-0.2 M189.2,56.8c-1.2,2.2-2.3,4.3-3.2,6.6s-1.6,4.6-2.2,7.5s-1,6.3-1.3,9.4
						c-0.3,3-0.4,5.7-0.5,8.4 M192.9,113c2.5-0.4,4.9-0.7,6.7-1.1c1.8-0.3,3-0.6,4.8-1.1s4.2-1.2,6.6-2 M199.3,55
						c0.3,1,0.6,2.1,1.3,4s1.9,4.7,3.4,7.7c1.5,3,3.1,6,4.7,8.5c1.6,2.5,3,4.3,4.4,6.1 M238.1,80.2c1.5-2.9,3.1-5.7,4.6-8.4
						c1.5-2.7,3-5.2,4.7-7.8c1.7-2.6,3.5-5.2,5.5-7.8s4.2-5.3,6.3-8 M315.1,32.6c-1.8-1-3.6-2.1-5.6-2.9c-1.9-0.9-3.9-1.6-5.9-1.9
						c-2-0.4-4-0.5-6.2-0.4c-2.3,0.1-4.8,0.4-7.3,0.6 M304.1,83.2c-1.1-2.8-2.1-5.7-3.2-8.5s-2.2-5.5-3.4-8
						c-1.2-2.4-2.4-4.6-3.8-6.8s-3.1-4.3-4.5-6.1s-2.7-3.3-3.9-4.7 M329.6,60.9c0,1.3-0.1,2.6-0.3,4.6c-0.3,1.9-0.8,4.6-1.4,6.8
						c-0.6,2.3-1.2,4.3-2.2,6.5c-0.9,2.2-2.2,4.7-3.5,7.1 M250,106.2c1.8,0.3,3.6,0.7,6.5,1c2.8,0.4,6.7,0.8,11.3,1.1
						c4.6,0.2,9.9,0.2,14.8,0.1c4.9-0.2,9.5-0.5,14-0.7 M273.8,148.8c2.5-1.7,5-3.4,7.3-5.1s4.6-3.4,6.5-5s3.3-3,4.6-4.5
						s2.2-2.7,3.2-4.2c0.9-1.5,1.8-3.1,2.7-4.7"/>
				</g>
			</g>
		</g>
	</g>
	<path fill="#FE1011" d="M195.5,125.3c-0.1-1-0.3-2.7-0.4-4.7c-0.1-2,0-4.2,0.1-5.6s0.3-1.8,0.5-2.1c0.2-0.3,0.5-0.4,0.6-0.5
		s0.1-0.1-0.3-0.3c-0.4-0.2-1.2-0.6-2.2-1.3c-1-0.7-2.2-1.7-3.5-3.4c-1.3-1.7-2.7-4-3.8-6.1c-1.1-2-1.8-3.7-2.4-5.6
		c-0.6-1.9-0.9-3.9-1.1-5.5c-0.2-1.5-0.3-2.5-0.4-3.2s-0.1-1-0.1-1.2s0-0.2-0.2-0.1s-0.5,0.3-0.8,0.3s-0.7-0.2-1.1-0.5
		c-0.4-0.4-0.8-0.9-1.1-1.3s-0.5-0.6-0.7-1c-0.3-0.4-0.6-0.9-0.7-1.2s-0.2-0.3,0.1,1.4c0.2,1.7,0.6,5,1.7,9.2
		c1,4.3,2.8,9.5,4.2,13.3c1.5,3.9,2.7,6.3,3.9,8.6c1.3,2.3,2.5,4.2,3.6,5.8c1.1,1.6,1.9,2.7,2.6,3.7c0.7,1,1.2,1.7,1.4,2.1
		c0.3,0.4,0.3,0.4,0.2,0.3C195.7,126.6,195.7,126.3,195.5,125.3L195.5,125.3z M282.4,18.2c1.7,1,3.8,2.4,5.7,3.7s3.4,2.8,4.4,3.6
		c1,0.8,1.4,1,1.8,1.2s0.9,0.3,1.2,0.3c0.3,0.1,0.3,0.1,0,0.2c-0.2,0.2-0.6,0.5-0.9,1.2s-0.5,1.7-0.6,3c-0.1,1.3-0.1,2.8-0.2,4.6
		c-0.1,1.7-0.3,3.6-0.7,5.5c-0.4,1.8-1,3.7-1.7,5.2c-0.7,1.6-1.6,2.9-2.2,3.7s-0.9,1.1-0.9,1.5c-0.1,0.4,0.1,0.9,0.1,1.2
		c0.1,0.3,0.1,0.3,0.1,0.3s0,0-0.5-0.2s-1.5-0.6-3.5-1s-5-0.7-8-0.9s-6.1-0.2-8.8-0.1c-2.7,0.1-4.9,0.4-6.7,0.8
		c-1.8,0.4-3.2,0.9-4.2,1.3c-1,0.5-1.8,0.9-2.1,1.1c-0.4,0.2-0.4,0.2-0.4-0.6c0-0.9,0-2.6-0.3-4.5s-0.8-4.1-1.6-6.3
		s-1.7-4.6-2.7-6.7c-1-2.2-2.1-4.2-2.9-5.7c-0.8-1.5-1.5-2.5-2.1-3.2c-0.7-0.7-1.4-1.1-1.7-1.3c-0.3-0.2-0.3-0.2-0.3-0.2
		s0,0,0.5-0.3s1.6-0.7,2.8-1.6s2.7-2.2,4.3-3.4c1.7-1.3,3.6-2.5,5.4-3.7c1.8-1.1,3.3-2.1,4.9-2.9c1.6-0.8,3.1-1.3,4.1-1.7
		s1.5-0.8,1.9-1.1c0.3-0.4,0.5-0.7,0.6-1s0.1-0.6,0-0.7c0-0.1,0-0.1,0-0.1s0,0,0.2,0.3s0.5,1,1,1.6s1,1,1.9,1.4s2.2,0.8,3.6,1.4
		c1.4,0.5,2.9,1.2,4.4,1.8C279.5,16.5,280.7,17.2,282.4,18.2L282.4,18.2z M332,63c-0.2,0-0.5-0.1-0.7-0.1c-0.5,0-1,0-1.3,0.2
		c-0.3,0.1-0.6,0.4-0.7,0.6c-0.1,0.2-0.2,0.5-0.2,0.6c0,0.1,0,0.1-0.1-0.3s-0.1-1.2-0.4-2.3s-0.7-2.6-1.5-4.5
		c-0.7-1.9-1.7-4.1-2.8-6.5c-1.1-2.3-2.4-4.7-3.7-6.9c-1.3-2.2-2.5-4.2-3.8-6s-2.5-3.4-3.5-4.6c-1-1.2-1.7-1.9-2.3-2.4
		c-0.6-0.5-1.2-0.7-1.4-0.8c-0.3-0.1-0.3-0.1,0-0.2s0.8-0.2,1.2-0.4c0.4-0.2,0.6-0.6,0.8-1.1c0.2-0.6,0.3-1.4,0.2-2.3
		c0-0.7-0.1-1.5-0.2-2.1c-0.3-1-0.5-1.7-0.6-2s-0.1-0.3-0.1-0.3s0,0,0.3,0.3s0.9,0.9,2.2,2.2c1.2,1.3,3,3.3,4.8,5.6s3.6,4.7,5,6.8
		c1.4,2.1,2.4,3.9,3.6,6.2s2.4,5.1,3.5,7.9c1.1,2.8,1.9,5.6,2.6,7.7c0.6,2.2,0.9,3.8,1.1,4.6s0.2,0.8,0,0.7s-0.5-0.4-1-0.6
		C332.7,63.1,332.3,63.1,332,63L332,63z M229.7,149.8c0.7-0.2,2.5-0.4,4.2-0.8c1.7-0.4,3.4-0.9,4.7-1.4s2.3-1.1,2.9-1.6
		s1-0.8,1.1-1.3c0.1-0.4,0-0.8,0-1.1c-0.1-0.2-0.1-0.2,0.5,0.1c0.5,0.4,1.6,1.1,3.1,1.7c1.4,0.6,3.3,1.2,5.4,1.6
		c2.1,0.4,4.6,0.6,7.1,0.7s5.2,0,7.4-0.2c2.3-0.2,4.2-0.4,5.9-0.8c1.7-0.4,3.2-0.8,4.6-1.4s2.7-1.2,3.3-1.6c0.6-0.3,0.6-0.3-0.1,0.4
		c-0.7,0.8-2.2,2.3-3.2,3.6s-1.6,2.4-1.9,3.1s-0.4,1.3-0.5,1.6s-0.1,0.3-1.3,0.4c-0.1,0.3-0.2,0.5-0.2,0.7c-0.1,0.2-0.1,0.2-1.2,0.4
		s-3.4,0.4-5.8,0.7c-2.4,0.2-4.8,0.4-7.9,0.4c-3,0.1-6.6,0.1-9.3-0.1c-2.7-0.2-4.7-0.5-6.8-0.9c-2.2-0.4-4.6-1-6-1.4
		c-1.5-0.4-2-0.6-2.4-0.8c-0.1-0.1-0.2-0.1-0.3-0.2c-0.3-0.1-0.7-0.2-0.9-0.2c-1.7-0.4-2.2-0.7-2.7-0.9
		C229.3,150.3,229,150,229.7,149.8L229.7,149.8z M185.7,47.5c0.1,1.7,0.4,4.9,0.6,7.1c0.2,2.2,0.4,3.4,0.5,4.5s0,1.8,0,2.2
		s0,0.4,0,0.4s0,0,0.5-0.5s1.4-1.5,2.6-2.3c1.2-0.8,2.6-1.3,3.8-1.6c1.3-0.3,2.3-0.5,3.2-0.5s1.6,0.2,2.1,0.5s0.9,0.8,1,1
		c0.2,0.2,0.2,0.2,0.2,0.2s0,0,0.2-0.8s0.6-2.4,1.4-4.7c0.8-2.3,2.1-5.2,3.6-8c1.5-2.9,3.1-5.7,4.7-8.1c1.6-2.5,3.3-4.6,4.6-6
		c1.3-1.5,2.3-2.3,3-2.8s1.1-0.8,1.3-0.9s0.2-0.1-0.3-0.2s-1.4-0.1-2-0.3c-0.7-0.2-1.1-0.5-1.8-1.4c-0.8-0.9-1.8-2.4-2.5-3.5
		c-0.7-1-0.9-1.6-1-2.2s0.1-1.2,0.4-1.8c0.4-0.6,1-1.2,1.3-1.5s0.3-0.3-0.1,0c-0.4,0.3-1.2,0.8-1.8,1.1c-0.6,0.3-1.1,0.5-1.5,0.5
		c-0.4,0.1-0.8,0-1-0.1c-0.3-0.1-0.5-0.3-0.6-0.4s-0.1-0.1-0.5,0.2c-0.4,0.3-1.3,0.9-2.4,1.8c-1.2,1-2.7,2.4-4.2,3.9
		c-1.5,1.6-3.1,3.3-4.6,5.1c-1.5,1.8-2.8,3.6-4.3,5.9s-3.3,4.9-4.4,6.8c-1.1,1.9-1.6,2.9-1.8,3.6C185.6,45.4,185.6,45.8,185.7,47.5
		L185.7,47.5z M313,81.7c1.3,0.2,3.1,0.4,4.7,0.6s3,0.5,3.8,0.6s1.1,0.1,1.5-0.3s1-1.1,1.3-1.5s0.3-0.4,0.1,0.2
		c-0.2,0.5-0.6,1.6-0.8,2.7c-0.2,1.1-0.1,2.2,0,3.6s0.3,3,0.3,4.9c0.1,1.8,0,3.9-0.2,6.1c-0.3,2.2-0.7,4.4-1.4,6.5
		c-0.7,2.2-1.5,4.3-2.6,6.1c-1.1,1.9-2.4,3.5-3.9,5.1s-3.3,3.1-5,4.3c-1.7,1.2-3.5,2.2-5.1,3s-3.2,1.5-4.5,2.2
		c-1.3,0.6-2.4,1.1-3.2,1.7c-0.8,0.6-1.5,1.2-1.8,1.5c-0.3,0.3-0.3,0.3-0.3,0.3s0,0,0.1-0.4s0.1-1.1,0-2c-0.1-0.8-0.4-1.8-0.9-3.1
		c-0.5-1.4-1.3-3.1-2-4.8c-0.7-1.7-1.5-3.3-2.2-4.6c-0.7-1.4-1.3-2.4-1.8-3.2c-0.5-0.8-0.8-1.2-1.3-1.5s-1-0.6-1.5-0.7
		c-0.5-0.2-1-0.3-1.3-0.3c-0.3-0.1-0.3-0.1,0.1-0.2c0.4-0.2,1.2-0.5,2-1.1s1.8-1.5,2.9-2.8s2.4-3,3.8-5.1c1.4-2,2.9-4.5,4-6.4
		s1.8-3.5,2.4-4.9s1.2-2.8,1.5-3.9s0.5-2,0.5-3.1s-0.1-2.5-0.2-3.1c-0.1-0.7-0.1-0.7,0.2-0.1c0.2,0.6,0.7,1.7,1.3,2.4
		c0.6,0.6,1.3,0.8,2.5,0.9s2.8,0.1,4,0.2C310.9,81.4,311.7,81.5,313,81.7L313,81.7z M247.3,92.3c1,1.8,2.5,4.7,3.9,7.1
		s2.7,4.3,3.6,5.6c0.9,1.3,1.5,1.8,1.8,2.1c0.3,0.3,0.3,0.3-0.1,0.6c-0.4,0.3-1.2,0.8-2.6,2c-1.4,1.3-3.5,3.2-6.4,5.7
		s-6.7,5.5-8.9,7.3s-2.9,2.5-3.3,3c-0.4,0.6-0.5,1.2-0.5,1.4c-0.1,0.3-0.1,0.3,0,0.3c0,0,0,0-0.5-0.4s-1.7-1.2-3.1-1.8
		c-1.5-0.7-3.3-1.2-5-1.8c-1.7-0.7-3.4-1.5-5.4-2.6c-2-1.2-4.3-2.7-6.3-4.4c-2-1.6-3.7-3.3-4.9-4.3s-1.8-1.5-2.2-1.7
		c-0.3-0.2-0.3-0.2-0.3-0.2s0,0,0-1.7s0-5.1,0.1-8.1s0.4-5.8,0.7-8.1c0.4-2.2,0.8-3.9,1.3-5.6c0.5-1.6,1.1-3.1,1.4-4.1
		c0.4-1,0.5-1.5,0.6-1.9c0.1-0.5,0-0.9,0-1.1s0-0.2,0-0.2s0,0,0.3,0.1s1,0.4,2.6,0.5c1.7,0.1,4.4,0.1,7.8-0.1
		c3.4-0.2,7.4-0.6,10.2-0.9c2.7-0.3,4.1-0.6,5.4-1.1c1.2-0.5,2.2-1.1,2.7-1.4s0.5-0.3,0.5-0.3s0,0,0.1,0.5s0.1,1.4,0.4,2.6
		c0.3,1.1,0.7,2.4,1.5,4.1s1.9,3.8,2.7,5.2C245.9,89.8,246.3,90.5,247.3,92.3L247.3,92.3z"/>
	<path fill="#FFFFFF" d="M217,176.6l2.1-0.4c-0.1,1-0.2,2-0.2,3c0,18.5,16.6,33.5,37.1,33.5s37.1-15,37.1-33.5
		c0-1.1-0.1-2.2-0.2-3.3l1.9,0.4c39,8.1,73.3,22,101.1,51.2c0.1,0.1-21.5-11.9-30-13.6c-8-1.7,6,20.5,7.2,22.7
		c0.3,0.6,3.9,5.7,7,10.4c4.6,5.7,8.9,11.8,12.9,18.3c50.6,81.7,9.2,173.4-79.3,203.4c-19.5,6.6-37.2,9.1-57.7,9.4
		c-77.4-2.2-151.8-47.9-159.3-130.4c-3-32.8,13.1-73.8,33.4-99.4c1.3-1.6,2.6-3.1,3.9-4.6c2.3-3.4,4.3-6.3,4.6-6.8
		c1.2-2.2,15.2-24.4,7.2-22.7c-8.5,1.8-30.1,13.7-30,13.6C143.8,198.7,178.1,184.8,217,176.6L217,176.6z"/>
	
		<radialGradient id="SVGID_5_" cx="999.1957" cy="-465.8098" r="869.2621" gradientTransform="matrix(0.256 0 0 -0.256 0.744 132.328)" gradientUnits="userSpaceOnUse">
		<stop  offset="0.3401" style="stop-color:#000000"/>
		<stop  offset="1" style="stop-color:#FE1011"/>
	</radialGradient>
	<path fill="url(#SVGID_5_)" d="M255.9,473.9c-75.3-2.1-147.6-46.6-154.8-126.8c-2.9-31.9,12.7-71.7,32.5-96.6
		c72.2-88.2,196.2-79.2,255.5,16.5c49.2,79.4,8.9,168.6-77.1,197.8C293.1,471.2,275.9,473.7,255.9,473.9L255.9,473.9z"/>
	<path fill="#FFFFFF" d="M318.2,441.9h-11.3c-0.5,0-1,0.4-1,1v12.3h-4.4v-12.3c0-0.5-0.4-1-1-1h-11.3c-0.5,0-1,0.4-1,1v12.3h-4.7
		v-12.3c0-0.5-0.4-1-1-1h-11.3c-0.5,0-1,0.4-1,1v12.3h-6.6v-21.9c0-0.5-0.4-1-1-1h-11.3c-0.5,0-1,0.4-1,1v21.9h-5v-7.1
		c0-3.4-2.8-6.2-6.2-6.2h-17.9c-3.4,0-6.2,2.8-6.3,6.2v7.1h-8.7v-12.3c0-0.5-0.4-1-1-1h-4.7c-1.1,0.2-1.9,0.3-2.7,0.5
		c-0.1,0-0.2,0.1-0.3,0.1c-0.2,0.1-0.4,0.2-0.6,0.3c-0.8,0.4-1.4,0.8-1.9,1.1c-0.5,0.3-0.9,0.6-1.2,1c-0.3,0.3-0.5,0.7-0.8,1.5v13
		c0,0.1,0.1,0.3,0.3,0.3h125.6c0.1,0,0.3-0.1,0.3-0.3v-16.5C319.2,442.4,318.8,441.9,318.2,441.9z M232.5,454.2c0,0.6-0.5,1-1,1H229
		c-0.6,0-1-0.5-1-1v-7c0-0.6,0.4-1,1-1h2.5c0.6,0,1,0.5,1,1V454.2z"/>
	<path fill="#FFFFFF" d="M230.2,427.9c3,0,5.5,2.5,5.5,5.5s-2.5,5.5-5.5,5.5s-5.5-2.5-5.5-5.5C224.6,430.4,227.1,427.9,230.2,427.9
		L230.2,427.9z"/>
	<path fill="#FFFFFF" d="M276.7,427.9c3,0,5.5,2.5,5.5,5.5s-2.5,5.5-5.5,5.5s-5.5-2.5-5.5-5.5S273.7,427.9,276.7,427.9L276.7,427.9z
		"/>
	<path fill="#FFFFFF" d="M295,427.9c3,0,5.5,2.5,5.5,5.5s-2.5,5.5-5.5,5.5s-5.5-2.5-5.5-5.5C289.4,430.4,291.9,427.9,295,427.9
		L295,427.9z"/>
	<path fill="#FFFFFF" d="M312.2,427.9c3.1,0,5.5,2.5,5.5,5.5s-2.5,5.5-5.5,5.5s-5.5-2.5-5.5-5.5S309.2,427.9,312.2,427.9
		L312.2,427.9z"/>
	<polygon fill="#FFFFFF" points="256,269.3 261.5,252.2 279.5,252.2 265,241.6 270.6,224.5 256,235.1 241.5,224.5 247.1,241.6 
		232.6,252.1 250.6,252.1 	"/>
	<path fill="#FFFFFF" d="M256.1,316.2c32.7,0,59.2-24.8,59.2-55.5c0-18.1-9.3-34.2-23.6-44.3c5.9,7.2,9.3,16.3,9.3,26.2
		c0,23.7-20.2,42.9-45.1,42.9s-45.1-19.2-45.1-42.9c0-9.7,3.4-18.6,9.1-25.8c-14.1,10.1-23.1,26.1-23.1,44
		C196.9,291.4,223.4,316.2,256.1,316.2L256.1,316.2z"/>
	<path fill="#FFFFFF" d="M424.8,333.1c-0.1-2.5-0.3-5.7-0.6-9.3c-0.3-3.5-0.9-7.4-1.9-12s-2.5-9.9-4.2-15c-1.7-5-3.6-9.9-5.4-13.9
		s-3.5-7.4-5.4-10.6c-1.8-3.2-3.7-6.2-5.9-9.5s-4.7-6.7-6.5-9.2c-1.8-2.4-2.8-3.8-3.4-4.7s-0.7-1.4-0.7-1.9c0-0.6,0.1-1.3,0.5-2
		s1.1-1.4,2-2s2.2-1.1,2.7-1.3c0.6-0.3,0.6-0.3,0.4,0.3c-0.2,0.5-0.5,1.6-0.6,2.4s0,1.6,0.4,2.4c0.4,0.8,1.1,1.6,1.8,2.5
		s1.5,1.8,1.8,2.2c0.4,0.4,0.4,0.4,0.8,0.2s1.3-0.7,1.9-0.9c0.6-0.3,0.8-0.3,1.1-0.2c0.2,0.1,0.4,0.3,0.7,0.7c0.3,0.4,0.7,0.9,1,1.3
		c0.3,0.4,0.5,0.6,0.5,0.9c0,0.3-0.1,0.7-0.4,1.2s-0.8,1.2-0.9,1.6c-0.2,0.4-0.1,0.5,0.7,1.9s2.4,4.2,4,7s3.2,5.6,4.7,8.5
		c1.5,2.8,2.8,5.6,3.8,7.6c0.9,1.9,1.5,3,1.8,3.5s0.3,0.5,0.6,0.5c0.3-0.1,1-0.2,1.9-0.4c0.9-0.2,2.1-0.6,3-0.7
		c1-0.2,1.8-0.1,2.3,0.1s0.8,0.5,1,0.9s0.2,1,0.1,1.4s-0.2,0.7-0.6,1c-0.3,0.3-0.9,0.4-1.7,0.6c-0.8,0.2-2,0.3-2.9,0.4
		c-0.9,0.2-1.7,0.4-2,0.5c-0.4,0.1-0.4,0.1,0.1,1.4s1.4,3.7,2.4,7.1s2.2,7.6,3.1,11.5c0.9,4,1.6,7.7,2.1,11.6s0.9,8.1,1,12.4
		c0.2,4.3,0.2,8.8-0.1,12.7c-0.3,3.9-0.7,7.1-1.1,10.3c-0.4,3.2-0.6,6.3-0.7,8.7c-0.1,2.4-0.1,4.1-0.2,5.1s-0.2,1.2-0.6,1.9
		c-0.4,0.8-1.1,2.2-1.9,4.3c-0.8,2.1-1.7,5-2.9,8.3c-1.2,3.3-2.7,7.1-3.9,9.9c-1.2,2.8-2,4.7-2.5,5.6c-0.4,0.9-0.4,0.9,0.6,1.6
		c1,0.6,3.2,1.9,4.4,2.8c1.3,0.9,1.7,1.5,1.8,2.2c0.1,0.7,0,1.5-0.2,2.1c-0.2,0.5-0.5,0.8-0.9,0.8s-0.9-0.3-2.1-1
		c-1.2-0.8-3.1-2.2-4.9-3.3c-1.7-1.2-3.3-2-4.1-2.7c-0.8-0.6-0.9-1-0.8-1.6s0.4-1.3,1.3-3.1c0.9-1.8,2.3-4.7,3.6-7.7
		c1.3-3,2.4-6.1,3.5-9.3c1.1-3.2,2.1-6.5,3-10.9s1.8-10,2.4-15.3c0.5-5.2,0.8-10.2,0.9-13.6C425,337.4,424.9,335.6,424.8,333.1
		L424.8,333.1z"/>
	<path fill="#FFFFFF" d="M406.8,250.9c-0.4-0.3-1.1-1-1.4-1.5s-0.4-0.8-0.3-1s0.3-0.4,0.7-0.4c0.4-0.1,1-0.1,1.4,0s0.6,0.2,0.7,0.6
		c0.1,0.4,0.1,0.9,0.1,1.4c0,0.4-0.1,0.8-0.2,0.9c-0.1,0.2-0.2,0.3-0.3,0.3C407.4,251.3,407.3,251.3,406.8,250.9L406.8,250.9z"/>
	<path fill="#FFFFFF" d="M420.2,411c-0.3-0.4-0.8-1.1-1.9-1.9s-2.8-1.8-4.5-2.8c-1.7-0.9-3.4-1.7-4.3-2.1c-0.9-0.3-1-0.2-1,0.2
		c0,0.4,0.3,1,0.6,1.6c0.3,0.6,0.8,1.4,1.7,2.1c0.9,0.7,2.2,1.5,3.4,2.4c1.3,0.8,2.5,1.7,3.4,2.4s1.5,1.2,1.9,1.4
		c0.4,0.2,0.6,0.2,0.8,0c0.2-0.2,0.3-0.4,0.3-0.7c0-0.4,0-0.8,0-1.2c0-0.3,0-0.6,0-0.7C420.5,411.5,420.4,411.4,420.2,411L420.2,411
		z"/>
	<path fill="#FFFFFF" d="M431.4,372.8c-0.3-0.1-0.5-0.2-0.7-0.4c-0.2-0.2-0.2-0.6-0.1-0.9s0.2-0.5,0.3-0.6c0.2-0.2,0.3-0.3,0.4-0.4
		s0.2-0.3,0.2-0.4c0.1-0.2,0.1-0.5,0-0.9s-0.2-0.9-0.2-1.2c-0.1-0.3,0-0.3,0.2-0.2c0.2,0.1,0.7,0.4,1.1,0.7c0.4,0.3,0.8,0.8,1,1.2
		s0.3,0.8,0.3,1.3c0,0.4-0.1,0.8-0.3,1c-0.2,0.3-0.4,0.5-0.7,0.6c-0.3,0.2-0.6,0.3-0.8,0.3C431.9,373,431.6,372.9,431.4,372.8
		L431.4,372.8z"/>
	<path fill="#FFFFFF" d="M391.1,420.2c0.4-0.5,1-1.2,1.7-1.7c0.6-0.5,1.3-0.8,2-1.1c0.8-0.3,1.8-0.5,2.3-0.5s0.4,0.2,0.1,0.6
		c-0.4,0.5-1.1,1.2-1.6,1.8c-0.5,0.6-0.8,1.2-1,1.7s-0.2,1.2-0.2,1.5c0,0.4,0.1,0.5,0.1,0.6s0.1,0.1,0.3-0.1s0.7-0.7,1.3-0.9
		c0.6-0.3,1.3-0.3,1.9-0.3c0.7,0.1,1.3,0.2,2,0.7c0.6,0.5,1.2,1.2,1.7,2c0.4,0.8,0.7,1.7,0.8,2.5c0.1,0.8,0.1,1.6-0.1,2.1
		s-0.5,0.8-0.8,1s-0.8,0.4-1.5,0.5s-1.8,0.2-2.4,0.2c-0.5,0-0.5,0-1.4,1c-0.9,0.9-2.6,2.8-5.3,5.5c-2.6,2.7-6.1,6.1-10,9.6
		s-8.2,6.9-11.9,9.7c-3.7,2.8-6.9,5-10.5,7.3s-7.7,4.8-11.6,6.9s-7.7,3.8-10.3,5.1c-2.6,1.3-4.2,2-5.2,2.8s-1.5,1.6-1.9,2.1
		s-0.6,0.8-0.8,0.9c-0.2,0.1-0.5,0.1-0.8-0.2c-0.3-0.3-0.7-0.7-1.2-1.7c-0.5-0.9-1.1-2.4-1.3-3.2c-0.2-0.9-0.1-1.2,0.2-1.5
		c0.2-0.3,0.5-0.4,2.1-1.1s4.4-2,7.3-3.4c3-1.4,6-2.9,9.3-4.6s6.6-3.6,9.6-5.4c2.9-1.8,5.5-3.6,8-5.5s5.1-3.9,7.7-6s5.1-4,7.4-6
		s4.4-3.9,6.5-6c2.1-2,4.2-4.2,5.7-5.8s2.2-2.7,2.5-3.3s0.4-0.6,0.2-0.9c-0.2-0.3-0.5-0.9-0.8-1.6s-0.5-1.5-0.6-2.2s0-1.4,0.1-1.9
		C390.5,421.2,390.7,420.8,391.1,420.2L391.1,420.2z"/>
	<path fill="#FFFFFF" d="M402.1,421.4c-0.5-0.4-1.2-0.9-1.6-1.5s-0.5-1.2-0.5-1.7c0.1-0.6,0.3-1.2,0.7-1.8c0.4-0.7,1.1-1.4,1.9-1.9
		c0.8-0.4,1.6-0.5,2.3-0.5c0.7,0.1,1.2,0.3,1.6,0.5c0.4,0.3,0.6,0.6,0.6,1c0.1,0.4-0.1,0.8-0.3,1.2c-0.3,0.4-0.7,0.6-1.1,0.9
		c-0.3,0.3-0.6,0.7-0.6,1c-0.1,0.3,0.1,0.5,0.3,0.7c0.3,0.2,0.7,0.3,1.3,0.4c0.6,0.1,1.3,0.1,1.7,0.2c0.4,0.1,0.5,0.2,0.5,0.5
		s-0.1,0.7-0.4,1s-0.7,0.6-1.3,0.8c-0.6,0.2-1.5,0.3-2.2,0.3s-1.2-0.1-1.6-0.3C403,422,402.7,421.8,402.1,421.4L402.1,421.4z"/>
	<path fill="#FFFFFF" d="M323.3,477.9c0.6,1.1,1.7,3.3,2.5,5.3s1.4,3.7,2,5.1s1.1,2.3,1.5,3.1c0.3,0.8,0.4,1.6,0.4,2.2
		c-0.1,0.6-0.3,0.9-0.7,1.1c-0.4,0.2-0.9,0.1-1.4-0.3c-0.5-0.3-1.1-1-1.7-1.8c-0.7-0.9-1.4-2-2-3.5c-0.6-1.4-0.9-3.2-1.2-4.7
		c-0.3-1.6-0.6-2.9-0.7-4.1s-0.1-2.2,0-2.7c0.1-0.6,0.2-0.7,0.4-0.8C322.4,476.8,322.6,476.8,323.3,477.9L323.3,477.9z"/>
	<path fill="#FFFFFF" d="M88.9,304.1l-0.3,0.9c-0.1,0.5-0.2,0.9-0.1,1.1s0.4,0.4,0.8,0.5c0.7,0.2,1.3,0.3,1.7,0.3
		c0.4,0,0.7,0,0.7-0.1c0.2-0.2,0.4-0.3,0.6-0.5s0.4-0.2,0.7-0.1c1,0.3,1.1,1.6,0.5,4c-0.3,1.1-0.6,1.9-1,2.5s-0.8,0.8-1.3,0.6
		c-0.4-0.1-0.6-0.3-0.6-0.5c-0.1-0.2-0.1-0.5-0.1-0.8c-0.1-0.3-1.4-0.8-3.9-1.5c-1.5-0.4-2.6-0.7-3.4-0.8c-0.8-0.2-1.3-0.2-1.5-0.2
		c-0.1,0-0.1,0.1-0.2,0.2s-0.2,0.2-0.3,0.3c-0.1,0.1-0.3,0.2-0.4,0.3c-0.2,0.1-0.3,0.1-0.5,0c-0.8-0.2-0.9-1.5-0.3-3.9
		c0.3-1.2,0.6-2,1-2.6c0.3-0.5,0.7-0.8,1.2-0.6c0.3,0.1,0.5,0.2,0.6,0.3c0.1,0.1,0.2,0.3,0.3,0.5c0.1,0.3,0.2,0.5,0.4,0.7
		c0.2,0.2,0.5,0.3,0.9,0.4l0.7,0.2c0.4,0.1,0.6,0.1,0.8-0.1c0.2-0.2,0.4-0.6,0.6-1.4c0.1-0.4,0.2-0.7,0.2-0.9c0-0.2,0-0.4,0-0.5
		c-0.1-0.1-0.1-0.2-0.2-0.3c-0.1-0.1-0.3-0.1-0.4-0.2l-0.7-0.2c-0.5-0.1-0.8-0.2-1-0.2s-0.4,0.1-0.5,0.3c-0.1,0.2-0.3,0.3-0.5,0.4
		s-0.4,0.1-0.7,0.1c-0.5-0.1-0.8-0.5-0.8-1.2s0.2-1.6,0.5-2.9c0.3-1.2,0.6-2,0.9-2.5s0.7-0.7,1.2-0.6c0.2,0.1,0.3,0.1,0.4,0.2
		s0.2,0.2,0.2,0.4c0.1,0.1,0.1,0.3,0.1,0.4c0,0.2,0.1,0.3,0.1,0.4c0.1,0.2,0.5,0.4,1.2,0.6s1.7,0.5,3,0.8c1,0.3,1.7,0.4,2.3,0.6
		c0.6,0.1,1,0.2,1.4,0.3c0.3,0.1,0.6,0.1,0.7,0c0.2,0,0.3-0.1,0.3-0.2c0.1-0.2,0.3-0.3,0.5-0.5s0.5-0.3,0.8-0.2
		c0.5,0.1,0.7,0.5,0.8,1.2c0,0.7-0.1,1.6-0.4,2.8c-0.6,2.3-1.4,3.4-2.4,3.1c-0.2-0.1-0.4-0.2-0.6-0.3c-0.1-0.1-0.2-0.3-0.3-0.6
		c0-0.2-0.1-0.3-0.1-0.4s-0.1-0.2-0.3-0.3s-0.4-0.2-0.7-0.3c-0.3-0.1-0.7-0.2-1.2-0.4c-0.5-0.1-0.8-0.1-1,0
		C89.2,303.4,89.1,303.6,88.9,304.1L88.9,304.1z"/>
	<path fill="#FFFFFF" d="M91,291.4c-0.7-0.3-1.4-0.5-1.8-0.7c-0.5-0.2-0.8-0.3-1.1-0.4c-0.3-0.1-0.5-0.1-0.7-0.1s-0.3,0-0.4,0.1
		s-0.2,0.1-0.3,0.2c-0.1,0.1-0.2,0.2-0.4,0.3c-0.1,0.1-0.3,0.2-0.4,0.2s-0.3,0-0.5-0.1c-0.7-0.3-0.8-0.9-0.4-1.9
		c0.1-0.4,0.4-0.9,0.7-1.7s0.7-1.8,1.2-3c0.3-0.8,0.5-1.4,0.7-2c0.2-0.5,0.3-1,0.4-1.3c0.1-0.4,0.2-0.6,0.2-0.8
		c0.1-0.2,0.1-0.4,0.2-0.6c0.1-0.3,0.4-0.5,0.9-0.6c0.4-0.1,0.9,0,1.5,0.3c0.7,0.3,1.2,0.6,1.5,0.9c0.3,0.4,0.4,0.7,0.3,1
		c-0.1,0.2-0.3,0.4-0.6,0.5c-0.3,0.1-0.6,0.2-0.8,0.3c-0.4,0.1-0.7,0.4-1,0.7c-0.3,0.3-0.5,0.7-0.7,1.2c-0.3,0.9-0.5,1.5-0.4,1.8
		c0,0.1,0.1,0.1,0.1,0.2c0.1,0.1,0.1,0.1,0.3,0.2c0.1,0.1,0.3,0.2,0.5,0.3s0.5,0.2,0.9,0.4c0.5,0.2,0.8,0.3,0.9,0.2
		c0.2,0,0.3-0.3,0.5-0.6c0.1-0.3,0.2-0.6,0.1-0.7c-0.1-0.2-0.2-0.3-0.4-0.4c-0.4-0.2-0.6-0.3-0.8-0.5c-0.2-0.2-0.2-0.4-0.1-0.7
		c0.2-0.4,0.5-0.7,1.1-0.7c0.6-0.1,1.3,0.1,2.2,0.4c0.9,0.4,1.7,0.8,2.1,1.2c0.5,0.4,0.6,0.9,0.4,1.3c-0.2,0.5-0.6,0.6-1.3,0.3
		c-0.2-0.1-0.4-0.1-0.7-0.1c-0.3,0-0.5,0.2-0.6,0.6s-0.2,0.6,0,0.7c0.1,0.1,0.4,0.3,0.9,0.5c0.4,0.2,0.8,0.3,1,0.4
		c0.3,0.1,0.5,0.2,0.6,0.2c0.2,0,0.3,0.1,0.3,0c0.1,0,0.1-0.1,0.2-0.1c0.1-0.1,0.3-0.3,0.4-0.5s0.3-0.5,0.4-1
		c0.3-0.8,0.4-1.4,0.3-1.8c-0.1-0.5-0.3-0.8-0.5-1.1c-0.2-0.3-0.4-0.5-0.6-0.7s-0.3-0.4-0.2-0.7c0.1-0.2,0.2-0.4,0.3-0.5
		c0.1-0.1,0.3-0.3,0.5-0.3c0.2-0.1,0.5-0.1,0.8,0s0.7,0.2,1.3,0.4c0.3,0.1,0.5,0.2,0.8,0.4c0.3,0.2,0.5,0.4,0.7,0.6s0.4,0.4,0.5,0.7
		c0.1,0.2,0.1,0.5,0,0.7c0,0.1-0.1,0.2-0.2,0.3c-0.1,0.2-0.2,0.4-0.4,0.7c-0.2,0.3-0.4,0.8-0.6,1.3c-0.3,0.5-0.5,1.3-0.9,2.1
		c-0.2,0.5-0.4,0.9-0.5,1.3c-0.1,0.3-0.2,0.6-0.3,0.9c-0.1,0.3-0.2,0.6-0.3,0.9c-0.1,0.3-0.2,0.7-0.4,1.1c-0.2,0.6-0.5,1.1-0.9,1.5
		s-0.7,0.5-1,0.4c-0.2-0.1-0.3-0.2-0.4-0.3c-0.1-0.1-0.2-0.2-0.2-0.3c-0.1-0.1-0.1-0.3-0.1-0.4s-0.1-0.3-0.1-0.4
		c-0.2-0.3-0.6-0.7-1.4-1C93.7,292.5,92.6,292,91,291.4L91,291.4z"/>
	<path fill="#FFFFFF" d="M93.1,270.3c0.6-1.1,1.1-1.9,1.6-2.4s0.9-0.6,1.3-0.4c0.2,0.1,0.3,0.2,0.4,0.3c0.1,0.1,0.1,0.3,0.1,0.4
		s0,0.3,0,0.4s0,0.3,0,0.4c0.1,0.3,0.2,0.6,0.5,0.8c0.3,0.2,0.7,0.5,1.2,0.7c0.3,0.2,0.6,0.3,0.9,0.5c0.4,0.2,0.7,0.4,1.2,0.6
		l1.4,0.7c0.6,0.3,1.1,0.5,1.5,0.7s0.7,0.3,0.8,0.3c0.4,0.1,0.7-0.2,1-0.9c0.3-0.6,0.5-1.1,0.4-1.5c0-0.4-0.2-0.8-0.5-1.2
		c-0.3-0.3-0.5-0.5-0.6-0.7c-0.2-0.2-0.2-0.5,0-0.7c0.2-0.3,0.5-0.5,0.9-0.5c0.5-0.1,1,0.1,1.7,0.4c0.2,0.1,0.5,0.3,0.8,0.5
		s0.5,0.4,0.8,0.6s0.4,0.5,0.5,0.8s0.1,0.6-0.1,0.8c-0.2,0.4-0.5,0.8-0.8,1.3c-0.4,0.4-0.7,1-1.1,1.7c-0.3,0.6-0.5,1-0.7,1.4
		s-0.3,0.7-0.5,1.1c-0.2,0.3-0.3,0.6-0.4,0.9s-0.3,0.7-0.5,1.1c-0.1,0.2-0.2,0.5-0.4,0.7c-0.1,0.2-0.3,0.4-0.5,0.6s-0.4,0.3-0.6,0.3
		c-0.2,0.1-0.5,0-0.8-0.2c-0.2-0.1-0.4-0.3-0.3-0.4c0-0.2,0-0.4-0.1-0.6c-0.1-0.3-0.2-0.5-0.5-0.9s-0.8-0.7-1.7-1.1l-2.6-1.4
		c-0.9-0.5-1.7-0.8-2.2-1.1c-0.5-0.3-0.9-0.3-1.1-0.3c-0.2,0.1-0.3,0.1-0.4,0.2s-0.2,0.2-0.3,0.3c-0.1,0.1-0.2,0.2-0.4,0.2
		c-0.1,0-0.3,0-0.5-0.1C91.7,274.2,91.9,272.7,93.1,270.3L93.1,270.3z"/>
	<path fill="#FFFFFF" d="M110,266.1c-0.3-0.2-0.5-0.5-0.5-0.7c0-0.3,0-0.6,0-0.9s-0.3-0.6-0.9-1.1s-1.5-1.1-2.7-1.9
		c-0.7-0.5-1.3-0.8-1.8-1.1c-0.4-0.3-0.8-0.5-1-0.6c-0.3-0.1-0.4-0.2-0.6-0.2c-0.1,0-0.2,0-0.3,0c-0.3,0.1-0.5,0.2-0.7,0.3
		c-0.2,0.1-0.5,0.1-0.8-0.1c-0.8-0.5-0.5-1.8,0.9-3.9c0.7-1,1.3-1.7,1.7-2.1c0.5-0.4,0.9-0.4,1.4-0.2c0.2,0.1,0.3,0.2,0.4,0.4
		s0.1,0.3,0.1,0.4c0,0.2,0,0.3,0,0.4c0,0.1,0,0.2,0.1,0.3s0.2,0.2,0.3,0.4c0.2,0.2,0.5,0.4,0.9,0.7c0.4,0.3,1,0.7,1.7,1.2
		s1.6,1.1,2.7,1.8c0.4,0.3,0.8,0.5,1.1,0.6c0.3,0.1,0.5,0.2,0.7,0.2c0.3-0.1,0.5-0.2,0.8-0.3c0.3-0.1,0.5-0.1,0.8,0.1
		c0.8,0.5,0.5,1.8-0.9,4c-0.7,1-1.3,1.7-1.9,2.1C110.8,266.3,110.3,266.3,110,266.1L110,266.1z"/>
	<path fill="#FFFFFF" d="M116.1,256.8c-0.3-0.2-0.4-0.4-0.4-0.6c0-0.2,0-0.4,0.1-0.6c0.1-0.2,0.1-0.3,0.1-0.4c0-0.1-0.1-0.3-0.3-0.5
		c-0.2-0.2-0.5-0.5-0.8-0.8c-0.4-0.4-0.9-0.8-1.7-1.4c-1.2-1-2.2-1.7-2.9-2.2s-1.1-0.7-1.3-0.8c-0.2,0-0.4,0-0.5,0.2
		c-0.2,0.1-0.3,0.2-0.4,0.2s-0.3,0-0.4,0s-0.3-0.1-0.4-0.2c-0.6-0.5-0.6-1.2,0.2-2.2c0.1-0.1,0.2-0.2,0.4-0.4
		c0.2-0.2,0.4-0.4,0.6-0.6c0.2-0.2,0.5-0.5,0.7-0.8c0.3-0.3,0.5-0.6,0.8-0.9c0.7-0.8,1.2-1.5,1.6-2.1s0.7-1,0.9-1.4
		c0.2-0.4,0.4-0.6,0.5-0.8s0.2-0.3,0.3-0.4c0.2-0.3,0.6-0.5,1-0.5c0.5-0.1,1,0.2,1.7,0.7c0.5,0.4,0.9,0.8,1.1,1.2s0.2,0.7-0.1,1.1
		c-0.2,0.2-0.4,0.3-0.6,0.3c-0.3,0-0.5-0.1-0.8,0c-0.6,0.1-1.2,0.2-1.5,0.5s-0.8,0.7-1.2,1.2c-0.2,0.2-0.3,0.4-0.4,0.6
		c-0.1,0.2-0.1,0.3-0.1,0.4c0.1,0.1,0.2,0.3,0.3,0.5c0.2,0.2,0.6,0.6,1.2,1c0.3,0.3,0.6,0.4,0.8,0.4c0.2,0,0.4-0.1,0.6-0.4
		c0.2-0.2,0.3-0.5,0.2-0.7c-0.1-0.3-0.2-0.5-0.3-0.6c-0.2-0.2-0.4-0.4-0.5-0.5c-0.1-0.2-0.1-0.4,0.1-0.6c0.3-0.4,0.7-0.5,1.2-0.4
		s1.2,0.4,2,1.1c0.8,0.7,1.4,1.3,1.7,1.8c0.3,0.5,0.2,0.9-0.1,1.3c-0.2,0.2-0.4,0.3-0.6,0.3s-0.4-0.1-0.5-0.2
		c-0.3-0.3-0.7-0.4-0.9-0.5c-0.3,0-0.6,0.1-0.8,0.4c-0.2,0.2-0.2,0.4-0.2,0.5s0.1,0.3,0.3,0.5l1,0.8c0.5,0.4,0.9,0.7,1.2,0.7
		c0.3,0,0.5-0.1,0.8-0.3c0.5-0.4,1-0.4,1.4-0.1c0.4,0.4,0.5,0.8,0.3,1.5c-0.2,0.6-0.8,1.5-1.6,2.5c-0.9,1.1-1.6,1.8-2.2,2.2
		C117,257.1,116.5,257.1,116.1,256.8L116.1,256.8z"/>
	<path fill="#FFFFFF" d="M192.4,487.6c-1.2-0.4-2.1-0.8-2.6-1.2s-0.7-0.8-0.6-1.2c0.1-0.2,0.2-0.3,0.3-0.4s0.2-0.2,0.4-0.2
		c0.1,0,0.3-0.1,0.4-0.1c0.1,0,0.3,0,0.4-0.1c0.3-0.1,0.5-0.3,0.7-0.6c0.2-0.3,0.4-0.7,0.5-1.3c0.1-0.3,0.2-0.6,0.3-1
		s0.3-0.8,0.4-1.3l0.5-1.5c0.2-0.6,0.4-1.2,0.5-1.6s0.2-0.7,0.2-0.9c0-0.4-0.3-0.7-1-0.9c-0.6-0.2-1.1-0.3-1.5-0.2
		c-0.4,0.1-0.7,0.3-1.1,0.7c-0.2,0.3-0.4,0.5-0.6,0.7c-0.2,0.2-0.4,0.2-0.7,0.1s-0.5-0.4-0.7-0.9c-0.1-0.5-0.1-1,0.2-1.8
		c0.1-0.3,0.2-0.5,0.3-0.8s0.3-0.6,0.5-0.8c0.2-0.3,0.4-0.4,0.7-0.6s0.5-0.1,0.8,0c0.4,0.2,0.9,0.4,1.4,0.7c0.5,0.3,1.1,0.6,1.9,0.8
		c0.6,0.2,1.1,0.4,1.5,0.5s0.8,0.2,1.1,0.3c0.3,0.1,0.7,0.2,1,0.3c0.3,0.1,0.7,0.2,1.1,0.4c0.2,0.1,0.5,0.2,0.7,0.3
		c0.3,0.1,0.5,0.2,0.6,0.4s0.3,0.4,0.4,0.6c0.1,0.2,0.1,0.5-0.1,0.8c-0.1,0.3-0.2,0.4-0.4,0.4s-0.4,0.1-0.6,0.2
		c-0.2,0.1-0.5,0.3-0.8,0.6c-0.3,0.3-0.6,0.9-0.9,1.8l-1,2.8c-0.3,1-0.6,1.8-0.8,2.3c-0.2,0.6-0.2,0.9-0.2,1.1
		c0.1,0.2,0.2,0.3,0.3,0.4s0.2,0.2,0.3,0.3c0.1,0.1,0.2,0.2,0.2,0.3s0,0.3-0.1,0.6C196.3,488.5,194.9,488.5,192.4,487.6L192.4,487.6
		z"/>
	<path fill="#FFFFFF" d="M182.1,476.7c-0.3,0.7-0.6,1.3-0.8,1.8s-0.3,0.8-0.4,1.1c-0.1,0.3-0.2,0.5-0.2,0.6c0,0.2,0,0.3,0.1,0.4
		c0,0.1,0.1,0.2,0.2,0.4c0.1,0.1,0.2,0.2,0.3,0.4c0.1,0.1,0.1,0.3,0.2,0.4c0,0.2,0,0.3-0.1,0.5c-0.3,0.6-0.9,0.7-1.9,0.3
		c-0.3-0.2-0.9-0.4-1.6-0.8c-0.7-0.4-1.7-0.8-2.9-1.4c-0.8-0.3-1.4-0.6-1.9-0.8c-0.5-0.2-0.9-0.4-1.3-0.5c-0.3-0.1-0.6-0.2-0.8-0.3
		c-0.2-0.1-0.4-0.1-0.6-0.2c-0.3-0.2-0.5-0.4-0.5-0.9c0-0.4,0.1-0.9,0.3-1.5c0.3-0.7,0.6-1.2,1-1.5s0.7-0.4,1.1-0.2
		c0.2,0.1,0.3,0.3,0.4,0.6c0.1,0.3,0.2,0.6,0.2,0.8c0.1,0.4,0.3,0.8,0.6,1c0.3,0.3,0.7,0.5,1.2,0.7c0.9,0.4,1.4,0.5,1.7,0.5
		c0.1,0,0.1-0.1,0.2-0.1c0.1-0.1,0.1-0.1,0.2-0.2c0.1-0.1,0.2-0.3,0.3-0.5s0.3-0.5,0.4-0.9c0.2-0.5,0.3-0.8,0.3-0.9
		c0-0.2-0.2-0.3-0.6-0.5c-0.3-0.2-0.6-0.2-0.7-0.1c-0.2,0.1-0.3,0.2-0.4,0.3c-0.2,0.4-0.4,0.6-0.6,0.8c-0.2,0.2-0.4,0.2-0.7,0.1
		c-0.4-0.2-0.6-0.6-0.6-1.1c0-0.6,0.2-1.3,0.6-2.2c0.4-0.9,0.9-1.6,1.3-2c0.5-0.4,0.9-0.5,1.3-0.3c0.5,0.2,0.6,0.6,0.3,1.3
		c-0.1,0.2-0.1,0.4-0.1,0.7c0,0.3,0.2,0.5,0.5,0.6c0.4,0.2,0.6,0.2,0.7,0.1c0.1-0.1,0.3-0.4,0.5-0.9c0.2-0.4,0.3-0.8,0.4-1
		c0.1-0.3,0.2-0.5,0.2-0.6c0.1-0.2,0.1-0.3,0.1-0.3c0-0.1,0-0.1-0.1-0.2s-0.2-0.3-0.4-0.4s-0.5-0.3-0.9-0.5
		c-0.7-0.3-1.4-0.5-1.8-0.4s-0.8,0.2-1.2,0.4c-0.3,0.2-0.6,0.4-0.8,0.6s-0.4,0.2-0.7,0.1c-0.2-0.1-0.4-0.2-0.5-0.3
		c-0.1-0.1-0.2-0.3-0.3-0.5s0-0.5,0-0.8c0.1-0.3,0.2-0.7,0.4-1.2c0.1-0.3,0.3-0.5,0.5-0.8s0.4-0.5,0.6-0.7c0.2-0.2,0.5-0.3,0.7-0.4
		s0.5-0.1,0.7,0c0.1,0,0.2,0.1,0.3,0.2c0.2,0.1,0.4,0.3,0.7,0.4c0.3,0.2,0.7,0.4,1.3,0.7c0.5,0.3,1.2,0.6,2.1,1
		c0.5,0.2,0.9,0.4,1.2,0.5s0.6,0.3,0.9,0.4c0.3,0.1,0.6,0.2,0.9,0.3c0.3,0.1,0.6,0.3,1.1,0.5c0.6,0.3,1,0.6,1.4,1
		c0.3,0.4,0.4,0.7,0.3,1c-0.1,0.2-0.2,0.3-0.3,0.4s-0.2,0.2-0.3,0.2s-0.3,0.1-0.4,0.1c-0.1,0-0.3,0.1-0.4,0.1
		c-0.3,0.1-0.7,0.6-1.1,1.3C183.3,474.1,182.7,475.2,182.1,476.7L182.1,476.7z"/>
	<path fill="#FFFFFF" d="M166.8,460.2c0.5,0.3,1,0.6,1.5,1c0.4,0.4,0.8,0.7,1.1,1s0.6,0.6,0.7,0.9c0.2,0.3,0.3,0.5,0.3,0.7
		c0.1,0.4,0,0.8-0.1,1.4s-0.4,1.2-0.8,1.9c-0.4,0.7-0.8,0.9-1.4,0.6c-0.2-0.1-0.3-0.2-0.4-0.3c-0.1-0.1-0.1-0.3-0.2-0.4
		c0-0.2-0.1-0.3-0.1-0.5s0-0.4-0.1-0.6c-0.2-1.5-0.8-2.5-1.7-3c-0.4-0.2-0.7-0.3-1-0.3s-0.5,0.2-0.6,0.4c-0.1,0.2-0.1,0.3-0.1,0.4
		c0.1,0.2,0.1,0.3,0.3,0.5c0.1,0.2,0.3,0.4,0.5,0.6c0.2,0.3,0.5,0.5,0.7,0.9c1.8,2.2,2.2,4.2,1.2,6.1c-0.3,0.6-0.7,1-1.3,1.4
		c-0.5,0.4-1.1,0.6-1.7,0.7c-0.6,0.1-1.3,0.1-2,0s-1.4-0.4-2.2-0.8c-0.7-0.4-1.2-0.7-1.5-1.1c-0.3-0.3-0.6-0.6-0.7-0.6
		c-0.2-0.1-0.4-0.2-0.6-0.2c-0.2-0.1-0.4-0.1-0.5-0.2c-0.4-0.2-0.6-0.6-0.7-1.2c-0.1-0.6-0.1-1.1-0.1-1.5c0.1-0.5,0.2-0.8,0.3-1.1
		c0.2-0.4,0.5-0.6,0.9-0.7s0.7-0.1,1,0.1s0.5,0.4,0.6,0.8s0.2,0.8,0.4,1.3c0.2,0.7,0.7,1.3,1.3,1.7c0.6,0.4,1.1,0.3,1.4-0.2
		c0.2-0.4,0.2-0.7-0.2-1.1c-0.3-0.4-0.8-0.9-1.4-1.5c-1-1-1.6-2-1.8-2.9c-0.3-0.9-0.1-1.8,0.5-2.9c0.4-0.6,0.8-1.2,1.4-1.5
		s1.2-0.7,1.9-0.8c0.7-0.1,1.5-0.1,2.3,0.1C165.2,459.4,166,459.7,166.8,460.2L166.8,460.2z"/>
	<path fill="#FFFFFF" d="M136.5,456.8c-1-0.8-1.6-1.5-2-2.1s-0.4-1-0.1-1.4c0.1-0.2,0.3-0.3,0.4-0.3c0.1-0.1,0.3-0.1,0.4-0.1
		c0.1,0,0.3,0,0.4,0.1c0.1,0.1,0.3,0.1,0.4,0.1c0.3,0,0.6-0.1,0.9-0.3c0.3-0.2,0.6-0.6,1-1c0.2-0.3,0.4-0.5,0.7-0.8s0.5-0.6,0.8-1
		l1-1.2c0.4-0.5,0.8-0.9,1-1.3c0.3-0.3,0.4-0.6,0.5-0.7c0.2-0.3-0.1-0.7-0.6-1.2c-0.5-0.4-0.9-0.7-1.3-0.7c-0.4-0.1-0.8,0-1.3,0.3
		c-0.3,0.2-0.6,0.3-0.8,0.4s-0.5,0.1-0.7-0.2c-0.3-0.2-0.4-0.6-0.3-1c0.1-0.5,0.3-1,0.8-1.6c0.2-0.2,0.4-0.4,0.6-0.7
		c0.2-0.3,0.5-0.4,0.8-0.6s0.6-0.3,0.8-0.3c0.3,0,0.6,0.1,0.8,0.3c0.4,0.3,0.7,0.7,1,1.1s0.8,0.9,1.5,1.5c0.5,0.4,0.9,0.7,1.2,1
		s0.6,0.5,0.9,0.7c0.3,0.2,0.6,0.4,0.8,0.6c0.3,0.2,0.6,0.5,0.9,0.7c0.2,0.2,0.4,0.3,0.6,0.5c0.2,0.2,0.4,0.4,0.5,0.6
		s0.2,0.4,0.2,0.7s-0.1,0.5-0.3,0.7s-0.3,0.3-0.5,0.2c-0.2-0.1-0.4-0.1-0.6-0.1c-0.3,0-0.6,0.1-0.9,0.3c-0.4,0.2-0.9,0.7-1.5,1.4
		l-1.9,2.3c-0.7,0.8-1.2,1.4-1.6,1.9c-0.4,0.5-0.5,0.8-0.5,1s0.1,0.3,0.1,0.4c0.1,0.1,0.2,0.3,0.2,0.4c0.1,0.1,0.1,0.3,0.1,0.4
		s-0.1,0.3-0.3,0.5C139.9,459,138.6,458.5,136.5,456.8L136.5,456.8z"/>
	<path fill="#FFFFFF" d="M136,439.6c-0.3,0.3-0.5,0.4-0.8,0.3s-0.6-0.1-0.8-0.1c-0.3,0-0.7,0.2-1.2,0.7c-0.6,0.5-1.3,1.3-2.3,2.4
		c-0.6,0.6-1.1,1.2-1.4,1.6c-0.3,0.4-0.6,0.7-0.8,0.9c-0.2,0.2-0.3,0.4-0.3,0.5s-0.1,0.2,0,0.3c0.1,0.3,0.1,0.5,0.2,0.8
		s0,0.5-0.2,0.7c-0.6,0.7-1.9,0.2-3.7-1.5c-0.9-0.8-1.5-1.5-1.8-2.1s-0.3-1,0.1-1.4c0.1-0.2,0.3-0.2,0.4-0.3c0.2,0,0.3-0.1,0.4,0
		c0.1,0,0.3,0,0.4,0.1c0.1,0,0.2,0,0.3,0c0.1,0,0.3-0.1,0.5-0.3c0.2-0.2,0.5-0.4,0.8-0.8c0.4-0.4,0.8-0.8,1.4-1.4s1.3-1.4,2.2-2.4
		c0.4-0.4,0.6-0.7,0.8-1s0.3-0.5,0.3-0.7c0-0.3-0.1-0.6-0.1-0.8c-0.1-0.3,0-0.5,0.2-0.8c0.7-0.7,1.9-0.2,3.8,1.5
		c0.9,0.8,1.5,1.6,1.8,2.2C136.3,438.8,136.3,439.3,136,439.6L136,439.6z"/>
	<path fill="#FFFFFF" d="M126.7,428.8c-0.3-1-0.8-1.8-1.5-2.6c-0.7-0.9-1.5-1.5-2.4-1.9c-0.9-0.5-1.8-0.7-2.7-0.8
		c-0.9,0-1.8,0.1-2.7,0.4c-0.9,0.3-1.7,0.8-2.5,1.5c-0.8,0.8-1.4,1.5-1.8,2.4c-0.4,0.8-0.6,1.7-0.7,2.6c0,0.9,0.2,1.8,0.5,2.7
		c0.3,0.9,0.9,1.8,1.6,2.6s1.5,1.4,2.4,1.9c0.9,0.4,1.8,0.7,2.7,0.8c0.9,0.1,1.8,0,2.7-0.3c0.9-0.3,1.7-0.8,2.5-1.5s1.3-1.5,1.7-2.3
		c0.3-0.9,0.6-1.8,0.6-2.7C127.2,430.7,127,429.8,126.7,428.8z M122.7,429.1c-0.1,0.6-0.3,1.2-0.6,1.9c-0.3,0.6-0.7,1.2-1.1,1.8
		c-0.4,0.6-0.8,1-1.1,1.3c-0.5,0.4-0.9,0.7-1.5,0.7c-0.4,0.1-0.8-0.1-1.1-0.4c-0.3-0.3-0.5-0.8-0.4-1.4c0-0.5,0.2-1.2,0.5-1.8
		c0.2-0.6,0.6-1.2,1-1.8c0.4-0.6,0.8-1.1,1.2-1.4c0.6-0.5,1-0.7,1.5-0.8c0.5-0.1,0.9,0.1,1.2,0.4C122.6,428,122.8,428.5,122.7,429.1
		z"/>
	<path fill="#FFFFFF" d="M112.3,421.1c-1,0.6-1.8,1.2-2.4,1.7s-1,0.9-1.3,1.3c-0.1,0.2-0.1,0.3-0.1,0.5s0.1,0.3,0.1,0.4
		c0,0.4-0.1,0.7-0.4,0.9c-0.4,0.3-0.9,0.2-1.3-0.1c-0.5-0.4-1-1-1.6-2c-0.2-0.3-0.3-0.5-0.5-0.8c-0.1-0.2-0.2-0.4-0.2-0.6
		c0-0.4,0-0.8,0.1-1.4c0.1-0.5,0.2-1.2,0.3-1.9c0.3-1.5,0.5-2.6,0.6-3.5s0.1-1.4,0-1.6c-0.2-0.2-0.5-0.2-1,0.1
		c-0.3,0.2-0.5,0.3-0.7,0.4s-0.3,0.2-0.3,0.2c-0.4,0.2-0.6,0.4-0.7,0.6s-0.2,0.4-0.1,0.8c0,0.2,0,0.4,0,0.5s-0.2,0.3-0.4,0.5
		c-0.4,0.3-0.8,0.3-1.3-0.1c-0.4-0.3-0.9-0.9-1.4-1.7c-0.5-0.8-0.8-1.4-0.9-1.8c-0.1-0.5,0-0.8,0.4-1.1c0.3-0.2,0.5-0.3,0.7-0.2
		c0.2,0.1,0.4,0.1,0.6,0.3c0.3,0.2,0.5,0.2,0.7,0.2c0.2-0.1,0.6-0.2,1.1-0.5c0.6-0.3,1.2-0.6,1.7-1c0.6-0.4,1.3-0.8,1.9-1.2
		c1-0.6,1.9-1.1,2.5-1.5s1.1-0.6,1.4-0.7c0.8-0.3,1.3-0.2,1.6,0.2c0.2,0.3,0.2,0.8,0.1,1.7c-0.1,0.8-0.3,1.9-0.5,3.3
		c-0.3,1.6-0.5,2.8-0.7,3.7c-0.2,0.9-0.2,1.4-0.1,1.6c0.2,0.2,0.4,0.3,0.6,0.2c0.3-0.1,0.7-0.3,1.2-0.6c0.5-0.3,0.9-0.6,1.2-0.9
		s0.4-0.5,0.5-0.6s0.1-0.2,0.1-0.4c0-0.1,0-0.3,0-0.4c0-0.2,0-0.3,0.1-0.4s0.2-0.3,0.3-0.4c0.8-0.5,1.7,0,2.7,1.6s1.2,2.6,0.5,3.1
		c-0.2,0.1-0.3,0.2-0.5,0.2s-0.3,0-0.4-0.1s-0.3-0.1-0.4-0.2s-0.2-0.1-0.4-0.1c-0.3,0-0.7,0.2-1.3,0.5
		C114,420,113.3,420.5,112.3,421.1L112.3,421.1z"/>
	<path fill="#FFFFFF" d="M106.1,397.6c0.3,0.6,0.5,1.1,0.7,1.6s0.3,1,0.4,1.5s0.1,0.8,0.1,1.2c0,0.3-0.1,0.6-0.1,0.8
		c-0.2,0.3-0.4,0.7-0.9,1.1c-0.4,0.4-1,0.8-1.7,1.2c-0.7,0.4-1.2,0.3-1.5-0.3c-0.1-0.2-0.1-0.3-0.1-0.5s0.1-0.3,0.1-0.4
		s0.2-0.3,0.2-0.5c0.1-0.2,0.2-0.3,0.3-0.5c0.6-1.3,0.7-2.5,0.2-3.5c-0.2-0.4-0.4-0.7-0.7-0.8c-0.3-0.1-0.5-0.2-0.7,0
		c-0.2,0.1-0.3,0.2-0.3,0.3c-0.1,0.2-0.1,0.3-0.1,0.6c0,0.2,0.1,0.5,0.1,0.8c0.1,0.3,0.1,0.7,0.1,1.1c0.3,2.8-0.5,4.7-2.4,5.7
		c-0.6,0.3-1.2,0.5-1.8,0.5c-0.6,0-1.2-0.1-1.8-0.3c-0.6-0.3-1.2-0.6-1.7-1.1s-1-1.1-1.4-1.8c-0.3-0.7-0.6-1.2-0.6-1.7
		c-0.1-0.5-0.2-0.8-0.2-0.9c-0.1-0.2-0.2-0.4-0.4-0.5c-0.1-0.2-0.3-0.3-0.3-0.4c-0.2-0.4-0.2-0.9,0.1-1.4c0.2-0.5,0.5-0.9,0.8-1.3
		s0.6-0.6,0.9-0.7c0.4-0.2,0.8-0.3,1.2-0.2s0.6,0.3,0.8,0.7c0.2,0.3,0.2,0.7,0.1,1c-0.1,0.4-0.2,0.8-0.4,1.3
		c-0.2,0.7-0.2,1.5,0.2,2.1c0.3,0.7,0.7,0.9,1.2,0.6c0.4-0.2,0.5-0.5,0.5-1c-0.1-0.5-0.2-1.2-0.3-2c-0.3-1.4-0.2-2.5,0.1-3.4
		c0.3-0.9,0.9-1.6,2-2.1c0.6-0.3,1.3-0.5,2-0.5s1.4,0.1,2,0.4c0.7,0.3,1.3,0.7,1.9,1.3C105.1,396,105.6,396.7,106.1,397.6
		L106.1,397.6z"/>
	<path fill="#FFFFFF" d="M96.8,376.1c-0.1-0.4-0.2-0.7-0.4-1.1c-0.2-0.5-0.3-0.8-0.4-1.2c-0.2-0.7-0.3-1.3-0.4-1.9s-0.2-1.1-0.3-1.5
		c-0.6-2.2-1.6-3.8-3.1-4.7c-1.5-0.9-3.3-1.1-5.5-0.5c-2.1,0.6-3.7,1.6-4.6,3.3c-0.9,1.5-1.1,3.3-0.5,5.4c0.3,1,0.5,1.7,0.7,2.3
		c0.2,0.6,0.3,0.9,0.4,1.2c0.1,0.4,0.2,0.7,0.2,1s0,0.5,0.1,0.8c0.2,0.8,0.4,1.3,0.7,1.7c0.3,0.3,0.7,0.4,1.2,0.3
		c0.3-0.1,0.5-0.2,0.6-0.3c0.1-0.1,0.2-0.2,0.2-0.3c0-0.1,0-0.2,0.1-0.3c0-0.1,0.2-0.3,0.4-0.4c0.2-0.1,0.5-0.3,1-0.5
		c0.4-0.2,1.1-0.4,2-0.6l2.3-0.6c0.8-0.2,1.4-0.4,1.9-0.4c0.4-0.1,0.8-0.1,1,0c0.3,0.1,0.4,0.2,0.5,0.3c0,0.1,0.1,0.2,0.2,0.3
		c0.1,0.1,0.2,0.1,0.3,0.2c0.2,0,0.4,0,0.7-0.1c0.4-0.1,0.6-0.3,0.8-0.7C97,377.5,97,376.9,96.8,376.1z M93,372.5
		c-0.2,0.2-0.6,0.3-1.2,0.5l-4.2,1.1l-1.1,0.4c-0.4,0.1-0.7,0.1-1,0.2h-0.6c-0.1-0.1-0.2-0.1-0.3-0.2c-0.1-0.1-0.2-0.2-0.2-0.3
		c-0.3-1-0.1-1.8,0.6-2.5s1.8-1.2,3.4-1.6c2.7-0.7,4.3-0.2,4.8,1.7C93.2,372.1,93.2,372.3,93,372.5z"/>
	<path fill="#FFFFFF" d="M83.6,361h-0.2c-0.5,0.1-0.9,0.2-1.2,0.2c-0.2,0.1-0.4,0.3-0.6,0.6c-0.1,0.3-0.2,0.5-0.3,0.6
		c-0.1,0.2-0.3,0.3-0.6,0.3c-0.5,0.1-0.9-0.2-1.3-0.9s-0.7-1.7-0.9-3c-0.2-1.1-0.2-1.9-0.1-2.5c0.1-0.5,0.4-0.8,0.9-0.9
		c0.4-0.1,0.7,0,0.9,0.2c0.2,0.2,0.4,0.4,0.6,0.6c0.2,0.3,1.8,0.2,4.8-0.3c1.2-0.2,2.1-0.5,2.6-0.9s0.7-1.1,0.6-2.1
		c-0.2-1-0.5-1.6-1.2-2c-0.4-0.2-0.9-0.3-1.7-0.2c-0.7,0.1-1.7,0.2-2.8,0.3l-0.6,0.1c-0.7,0.1-1.4,0.2-1.8,0.3
		c-0.4,0.1-0.7,0.2-0.8,0.4c-0.1,0.1-0.1,0.2-0.2,0.3c0,0.1-0.1,0.3-0.1,0.4c-0.1,0.1-0.1,0.3-0.2,0.4s-0.2,0.2-0.4,0.2
		c-0.4,0.1-0.7-0.2-1-0.7s-0.5-1.3-0.7-2.3c-0.3-1.7,0.1-2.6,0.9-2.8c0.3-0.1,0.6,0,0.7,0.2c0.2,0.2,0.3,0.3,0.5,0.5
		s0.4,0.3,0.7,0.3c0.3,0,0.6,0,1.1,0c0.8-0.1,1.5-0.2,2.3-0.3c0.7-0.1,1.4-0.2,2-0.2c0.6-0.1,1.2-0.1,1.7-0.1s1,0.1,1.4,0.2
		c2.1,0.6,3.4,2.4,3.8,5.4c0.1,0.9,0.1,1.8,0,2.6c-0.1,0.8-0.4,1.5-0.7,2c-0.3,0.6-0.8,1-1.4,1.4s-1.2,0.6-1.9,0.7L83.6,361z"/>
	<path fill="#FFFFFF" d="M82.1,316.2c0.6,0.1,1.2,0.3,1.5,0.7c0.3,0.4,0.5,0.8,0.5,1.3c0,0.4-0.2,0.7-0.4,0.9
		c-0.2,0.2-0.6,0.4-1.1,0.6c-0.6,0.3-1.1,0.6-1.5,1c-0.3,0.4-0.5,1-0.6,1.8c-0.1,0.7,0.1,1.3,0.5,1.7c0.4,0.4,1,0.7,1.8,0.7
		c1.7,0.1,2.9-0.1,3.9-0.8c0.9-0.7,1.4-1.7,1.6-2.9c0.1-0.4,0-0.8-0.1-1.3c-0.1-0.4-0.3-0.8-0.5-1.1c-0.1-0.2-0.3-0.4-0.4-0.6
		c-0.2-0.2-0.2-0.5-0.2-0.8c0-0.2,0.2-0.4,0.4-0.6c0.3-0.2,0.6-0.2,1-0.2c0.3,0,0.6,0.1,0.9,0.3s0.6,0.3,0.8,0.5
		c0.2,0.2,0.4,0.4,0.6,0.6s0.2,0.4,0.2,0.7c0,0.2,0,0.4,0.2,0.6c0.1,0.2,0.3,0.5,0.4,0.8c0.2,0.4,0.3,0.8,0.4,1.3s0.1,1.2,0,2
		c-0.1,1-0.4,1.9-0.8,2.8c-0.4,0.8-1,1.5-1.7,2.1s-1.5,1-2.4,1.3s-1.8,0.4-2.8,0.3s-1.9-0.4-2.7-0.8c-0.8-0.5-1.6-1-2.2-1.7
		s-1.1-1.5-1.4-2.4s-0.4-1.8-0.3-2.8c0.1-0.5,0.1-0.9,0.2-1.2c0.1-0.4,0.2-0.7,0.3-0.9c0.1-0.3,0.2-0.5,0.3-0.7
		c0.1-0.2,0.1-0.3,0.2-0.5c0-0.2,0-0.3-0.1-0.5s-0.1-0.3-0.1-0.5c0-0.3,0.1-0.5,0.4-0.7c0.2-0.2,0.5-0.4,0.8-0.6s0.7-0.3,1.2-0.4
		C81.2,316.2,81.6,316.1,82.1,316.2L82.1,316.2z"/>
	<path fill="#FFFFFF" d="M231.3,184.1c0.4,0,0.6-0.1,0.7-0.2c0.1-0.2,0.2-0.4,0.3-0.8c0.1-0.4,0.1-0.9,0.2-1.7
		c0-0.8,0.1-1.7,0.1-2.9c0-0.5-0.1-0.9-0.1-1.1c-0.1-0.2-0.4-0.3-1-0.3c-0.2,0-0.3,0-0.4,0c-0.1,0-0.2,0-0.3,0
		c-0.6,0-0.8-0.3-0.8-0.8s0.7-1.1,2.1-1.6c0.9-0.3,1.8-0.6,3-0.8c1.1-0.2,2.2-0.3,3.1-0.3c0.6,0,1,0.1,1.3,0.2
		c0.3,0.1,0.4,0.4,0.4,0.7c0,0.2,0,0.3-0.1,0.5c-0.1,0.1-0.2,0.2-0.3,0.3s-0.2,0.1-0.4,0.2c-0.1,0.1-0.3,0.1-0.4,0.2
		c-0.2,0.1-0.3,0.4-0.4,0.8s-0.1,1-0.1,1.8v1.2c0,1.3,0,2.3,0.1,3s0.2,1.2,0.4,1.4c0.3,0.2,0.6,0.4,0.9,0.4c0.3,0,0.6,0.1,0.9,0.1
		c0.4,0.1,0.6,0.4,0.6,0.9c0,0.6-0.4,0.9-1.2,1.1c-0.8,0.2-2.1,0.3-3.8,0.3c-2.2,0-3.8-0.1-4.8-0.3s-1.6-0.6-1.6-1.2
		c0-0.6,0.4-0.9,1.1-0.9c0.1,0,0.2,0,0.4,0C231.1,184.1,231.2,184.1,231.3,184.1L231.3,184.1z"/>
	<path fill="#FFFFFF" d="M254.9,176.6c-0.3-0.6-0.7-1.1-1.3-1.6c-0.5-0.4-1.2-0.7-2-1s-1.6-0.4-2.6-0.4c-0.9,0-1.8,0.1-2.6,0.4
		c-0.8,0.2-1.4,0.5-2,1c-0.6,0.4-1,0.9-1.3,1.6c-0.3,0.7-0.5,1.4-0.5,2.1s0.1,1.5,0.4,2.1c0.3,0.6,0.6,1.2,1,1.6
		c0.4,0.5,0.9,0.8,1.4,1s1.1,0.3,1.7,0.3c0.4,0,0.9-0.1,1.4-0.2c0,0.7-0.4,1.5-1.1,2.3c-0.3,0.3-0.5,0.5-0.8,0.7s-0.4,0.3-0.4,0.5
		c0,0.3,0.2,0.6,0.8,0.9c0.5,0.3,0.9,0.5,1.3,0.6c0.4,0.1,0.7,0.2,1,0.2s0.5-0.1,0.8-0.3c0.2-0.2,0.5-0.4,0.9-0.8
		c2.9-3.1,4.4-6,4.4-8.9C255.4,177.9,255.2,177.2,254.9,176.6z M250,180.2c-0.1,0.1-0.2,0.2-0.4,0.2c-0.4,0-0.8-0.2-1.1-0.7
		c-0.4-0.4-0.6-1-0.6-1.7c0-0.3,0-0.5,0.2-0.7c0.1-0.2,0.3-0.3,0.5-0.3c0.4,0,0.8,0.3,1.1,0.8s0.5,1.1,0.5,1.8
		C250.2,179.8,250.1,180,250,180.2z"/>
	<path fill="#FFFFFF" d="M268.5,182.9c0-0.1-0.2-0.2-0.5-0.2h-0.3c-0.1,0-0.2,0-0.2,0c-0.1,0-0.2,0-0.2-0.1c0,0,0-0.1,0-0.3v-0.2
		c0-1,0-2.1,0.1-3.3c0-1.2,0.1-2.4,0.1-3.8c0-0.6-0.1-1-0.3-1.2s-0.6-0.3-1.2-0.3c-0.9,0-1.9,0.4-2.8,1.2c-0.9,0.9-2.1,2-3.4,3.5
		c-0.6,0.7-1.2,1.4-1.7,2s-0.9,1.1-1.3,1.6c-0.3,0.5-0.6,1-0.8,1.4c-0.2,0.5-0.3,1-0.3,1.4c0,0.5,0.2,0.9,0.4,1.2s0.6,0.4,1.2,0.4
		l4.4,0.3c0.2,0,0.3,0.1,0.3,0.3v1.6c0,0.1,0.1,0.3,0.1,0.4c0,0.1,0.1,0.2,0.3,0.3c0.1,0,0.4,0.1,0.8,0.1h2.7c0.5,0,0.9,0,1.1-0.1
		s0.3-0.3,0.3-0.6v-1.7c0-0.2,0.1-0.2,0.1-0.3c0,0,0-0.1,0.1-0.1h0.3c0.1,0,0.2,0,0.3-0.1c0.2-0.1,0.3-0.2,0.4-0.3s0.1-0.3,0.1-0.5
		v-2C268.6,183.2,268.6,183,268.5,182.9z M262.4,182c0,0.3-0.1,0.5-0.2,0.6s-0.3,0.2-0.7,0.2H260c-0.7,0-1.1-0.1-1.1-0.4
		c0-0.2,0.5-1,1.7-2.3c0.3-0.3,0.6-0.6,0.8-0.8c0.2-0.2,0.5-0.3,0.6-0.3s0.2,0,0.3,0.1c0.1,0.1,0.1,0.2,0.1,0.4V182z"/>
	<path fill="#FFFFFF" d="M274.9,173.8h5.8c0.7,0,1.2,0.1,1.4,0.2c0.3,0.1,0.5,0.4,0.5,0.8c0,0.6-0.4,1.9-1.2,3.7
		c-0.8,1.9-1.7,4.5-2.8,7.7c-0.2,0.5-0.4,1-0.5,1.4s-0.2,0.7-0.3,0.9c-0.1,0.3-0.6,0.4-1.4,0.4c-0.5,0-1-0.1-1.4-0.1
		c-0.4-0.1-0.8-0.2-1-0.3c-0.3-0.1-0.5-0.3-0.7-0.4c-0.2-0.2-0.2-0.3-0.2-0.4c0-0.3,0.2-0.8,0.7-1.6s1.1-1.9,1.8-3.2
		c0.7-1.2,1.2-2.1,1.5-2.8c0.4-0.7,0.5-1.1,0.5-1.3c0-0.4-0.3-0.6-0.8-0.6h-2.6c-0.3,0-0.5,0-0.7,0.1s-0.4,0.2-0.6,0.4
		c-0.3,0.2-0.5,0.4-0.7,0.6c-0.2,0.2-0.5,0.3-0.8,0.3c-0.5,0-1-0.2-1.3-0.6c-0.3-0.4-0.5-0.9-0.5-1.7c0-1.2,0.2-2.1,0.7-2.8
		c0.4-0.7,1-1,1.6-1c0.2,0,0.3,0.1,0.5,0.2c0.2,0.1,0.4,0.2,0.6,0.3s0.5,0.1,0.8,0.1C274.2,173.7,274.5,173.8,274.9,173.8
		L274.9,173.8z"/>
	<path fill="#FFFFFF" d="M219.6,414.6c-0.5-0.5-1.6-1.1-3.3-1.7c-0.5-0.1-1-0.6-1.5-1.3c-0.5-0.7-1-1.7-1.6-2.8
		c-0.5-1.2-1.2-2.5-1.8-3.9s-1.3-2.9-2-4.4l-7.2-15.2c-1.4-3-2.6-5.2-3.7-7s-2.2-3.1-3.4-4c-1.1-0.9-2.4-1.5-3.8-1.8
		c-1.4-0.3-3.1-0.4-5.1-0.4c-1.6,0-2.9,0.1-3.8,0.4c-0.9,0.3-1.6,0.6-2.1,0.9s-0.8,0.6-0.9,1c-0.1,0.4-0.2,0.7-0.2,0.9
		c0,1,0.1,1.6,0.3,1.9s0.3,0.8,0.3,1.3c0,1.5-0.9,4-2.7,7.5c-1.8,3.4-4.1,8-6.9,13.6c-1.9,3.8-3.4,6.7-4.5,9s-2,3.7-2.9,4.2
		c-0.7,0.4-1.4,0.8-2,1c-0.7,0.2-1.2,0.4-1.7,0.6s-0.8,0.5-1.1,0.8c-0.3,0.4-0.4,0.9-0.4,1.7c0,1.5,0.9,2.6,2.5,3.3
		c1.6,0.7,4.4,1.1,8.1,1.1c3.9,0,6.8-0.3,8.7-1s2.8-1.9,2.8-3.4c0-0.9-0.2-1.5-0.7-1.9s-1-0.7-1.7-0.9c-0.7-0.2-1.2-0.4-1.7-0.7
		c-0.4-0.3-0.7-0.8-0.7-1.4c0-1.2,0.7-1.9,2-2.3c1.3-0.3,3.4-0.5,6.2-0.5h3c5.5,0,8.2,0.9,8.3,3c0,0.5-0.2,0.9-0.7,1.2
		c-0.5,0.3-1,0.5-1.6,0.8c-0.6,0.2-1.1,0.6-1.6,1s-0.7,1-0.7,1.9c0,1.6,1.3,2.7,3.7,3.4s6.4,1,11.8,1c2.9,0,5.4-0.1,7.3-0.4
		c2-0.3,3.5-0.6,4.7-1c1.1-0.4,1.9-0.9,2.4-1.4s0.7-1.1,0.7-1.6C220.4,416,220.1,415.1,219.6,414.6z M179.7,400.4
		c1.4-3.1,2.5-5.5,3.3-6.9c0.8-1.6,1.5-2.4,2.1-2.4s1.4,0.7,2.4,2.3c1.1,1.5,2.2,3.9,3.5,7H179.7z"/>
	<path fill="#FFFFFF" d="M256.8,422.1c-2.4,0-4.7-0.2-6.8-0.5s-4-0.7-5.7-1.2s-3.1-1-4.3-1.6s-2-1.1-2.5-1.6c-0.9-1-1.7-2.5-2.4-4.4
		s-1-4.2-1-6.9c0-2.7,1.2-4.1,3.5-4.1c0.8,0,1.4,0.1,1.9,0.4s0.9,0.6,1.4,1s0.8,0.9,1.2,1.5s0.8,1.1,1.4,1.7c3.4,4,7.2,6.1,11.5,6.1
		c1.7,0,3-0.3,4-0.9s1.4-1.4,1.4-2.2c0-0.6-0.2-1.1-0.6-1.4c-0.4-0.4-1.1-0.7-1.9-1s-1.8-0.7-3-1c-1.2-0.4-2.6-0.8-4.1-1.4
		c-10.3-3.6-15.4-9-15.4-16.2c0-2.3,0.5-4.4,1.5-6.3c1-2,2.5-3.7,4.4-5.1s4.2-2.6,6.8-3.4s5.6-1.2,8.7-1.2c2.9,0,5.2,0.2,7,0.7
		s2.9,0.7,3.5,0.7c0.9,0,1.7-0.1,2.4-0.3c0.7-0.2,1.5-0.3,2.1-0.3c1.7,0,3.3,0.8,4.8,2.4c1.4,1.5,2.4,3,3.1,4.5s1,2.8,1,3.9
		c0,1.5-0.5,2.8-1.5,3.7c-1,0.9-2.3,1.4-3.8,1.4c-1.4,0-2.6-0.4-3.6-1.3s-2.3-1.9-3.8-3.2c-2.2-1.8-4.7-2.7-7.7-2.7
		c-2.9,0-4.3,0.9-4.3,2.7c0,1.5,0.9,2.5,2.7,3.1s4.2,1.3,7.4,2.2c5.2,1.4,9.1,3.2,11.6,5.5s3.8,5.4,3.8,9.4c0,2.5-0.6,4.8-1.7,7
		c-1.2,2.2-2.8,4-5,5.6s-4.7,2.8-7.8,3.7C263.9,421.6,260.5,422.1,256.8,422.1L256.8,422.1z"/>
	<path fill="#FFFFFF" d="M353.3,387.1c-1.4-3-3.3-5.6-5.8-7.8c-2.5-2.1-5.4-3.8-8.9-5c-3.4-1.2-7.3-1.8-11.4-1.8
		c-4.2,0-8.1,0.6-11.7,1.8s-6.8,2.8-9.4,5c-2.6,2.1-4.7,4.7-6.2,7.7s-2.3,6.2-2.3,9.8c0,3.5,0.8,6.7,2.1,9.7c1.5,3,3.6,5.6,6.2,7.9
		s5.7,4.1,9.2,5.4s7.4,2,11.4,2c4.2,0,8-0.6,11.5-1.8c3.6-1.2,6.6-2.9,9.2-5.1c2.5-2.2,4.6-4.8,6-7.8c1.5-3,2.2-6.4,2.2-10
		C355.4,393.4,354.7,390.1,353.3,387.1z M334.2,409.3c-1,1.3-2.4,2-4.1,2c-2,0-3.8-0.8-5.4-2.5c-1.5-1.7-2.9-3.7-4-5.9
		c-1.1-2.2-1.9-4.6-2.5-7c-0.5-2.4-0.8-4.4-0.8-5.9c0-2.3,0.5-4.1,1.6-5.4c1-1.2,2.4-1.8,4.1-1.8c1.8,0,3.5,0.8,5.1,2.3
		s2.9,3.3,4,5.5s2,4.5,2.6,6.9s0.9,4.5,0.9,6.3C335.7,406.1,335.2,408,334.2,409.3z"/>
</g>
</svg>
