<svg height="387.065233" viewBox="0 0 277.46286 414.71662" width="258.354384" xmlns="http://www.w3.org/2000/svg" xmlns:xlink="http://www.w3.org/1999/xlink"><linearGradient id="a" gradientUnits="userSpaceOnUse" x1="338.89999" x2="322.79999" y1="292.10001" y2="203.10001"><stop offset="0" stop-color="#e6d82f"/><stop offset="1" stop-color="#faf26f"/></linearGradient><linearGradient id="b" gradientUnits="userSpaceOnUse" x1="391.89999" x2="341.20001" y1="310.60001" y2="310.60001"><stop offset="0" stop-color="#d2c308"/><stop offset="1" stop-color="#e8da34"/></linearGradient><path clip-rule="evenodd" d="m139.01465 411.31661c34.1-51.6 147.9-22 132.6-142.5 6.8-12.2 4.7-19.8-2.1-25 3.3-6.5-9.3-16.3 2.3-19.5-54.6-70.6 20.9-107-20.4-132.799997-21 17.099997-41.9 16.999997-62.9 0-14.4 13.599997-30.9 20.199997-49.7 18.999997-18.9 1.2-35.4-5.4-49.700005-18.999997-21 16.999997-41.9 17.099997-62.9 0-41.1 25.699997 34.3 62.099997-20.2999996 132.699997 11.5999996 3.2-1 13 2.3 19.5-6.7 5.2-8.89999996 12.8-2.1 25-15.1 120.5 98.8000046 90.9 132.9000046 142.6z" fill="#fbffff" fill-rule="evenodd"/><path d="m139.01465 408.01661c12.8-17.4 34.7-25.3 57.2-33.4 40.6-14.6 83.2-29.9 73.6-105.6l-.1-.6.3-.5c3.2-5.7 4.3-10.3 3.8-14-.5-3.5-2.4-6.3-5.4-8.6l-1.3-1 .7-1.4c.9-1.8-.1-4.6-1.2-7.3-.5-1.2-.9-2.3-1.3-3.6-1-3.6-.8-6.7 3.4-8.7-29.1-39.1-19.2-67.7-11.6-89.9 5.7-16.5 10.1-29.2-5.6-39.699997-10.5 8.299997-21 12.399997-31.6 12.299997-10.5 0-21-4.1-31.4-12.199997-7 6.399997-14.5 11.199997-22.6 14.299997-8.5 3.3-17.6 4.7-27.2 4.1-9.7.6-18.7-.8-27.2-4.1-8-3.1-15.600005-7.9-22.600005-14.299997-10.4 8.099997-20.9 12.199997-31.4 12.199997-10.6 0-21.1-4.1-31.6-12.299997-15.4 10.599997-11 23.299997-5.3 39.699997 7.7 22.2 17.5 50.8-11.5999996 89.9 4.1999996 2 4.3999996 5.1 3.3999996 8.7-.3 1.2-.8 2.4-1.3 3.6-1 2.7-2.0999996 5.4-1.1999996 7.3l.6999996 1.4-1.2999996 1c-3 2.3-4.9 5.1-5.4 8.6-.5 3.7.6 8.2 3.8 14l.3.5-.1.6c-9.6 75.7 32.9999996 91 73.6999996 105.6 22.600005 8.1 44.500005 15.9 57.400005 33.4zm58.4-29.8c-22.8 8.2-45 16.2-56.9 34.1l-1.6 2.4-1.6-2.4c-11.9-18-34.1-26-56.900005-34.1-41.9-15-85.8999996-30.8-76.2999996-109-3.39999996-6.3-4.49999996-11.4-3.99999996-15.8.5-4.2 2.59999996-7.5 5.69999996-10.2-.8-2.9.4-6 1.6-8.9.4-1.1.9-2.2 1.1-3.2.6-2.1.3-3.9-3.3-4.9l-2.7-.8 1.7-2.3c29.6999996-38.5 19.9999996-66.6 12.4999996-88.4-6.1-18.5-10.9999996-32.7 8.5-44.899997l1.2-.7 1.1.9c10.1 8.3 20.2 12.399997 30.2 12.399997s20.1-4.099997 30.2-12.399997l1.3-1.1 1.2 1.2c7 6.6 14.500005 11.499997 22.500005 14.599997s16.6 4.4 25.8 3.8h.1.1c9.2.6 17.7-.7 25.8-3.8 8-3.1 15.5-7.999997 22.5-14.599997l1.2-1.2 1.3 1.1c10.1 8.2 20.2 12.399997 30.2 12.399997s20.1-4.099997 30.2-12.399997l1.1-.9 1.2.7c19.6 12.299997 14.7 26.399997 8.3 44.899997-7.5 21.8-17.2 49.9 12.5 88.4l1.7 2.3-2.7.8c-3.6 1-3.9 2.8-3.3 4.9.3.9.7 2.1 1.1 3.2 1.2 2.9 2.4 6 1.6 8.9 3.1 2.7 5.2 6.1 5.7 10.2.6 4.3-.6 9.5-4 15.8 9.9 78.2-34 94-75.9 109z" fill="#ceaf54"/><path d="m89.214645 124.11661c15.400005 8.9 32.100005 13 49.800005 12.9v67h-83.000005c9.3-24.8 9.5-49.7 0-74.5 11.1 1.3 22.1-.4 33.2-5.4z" style="fill-rule:evenodd;clip-rule:evenodd;fill:#fbffff;stroke:#fbffff;stroke-width:.4799;stroke-miterlimit:22.9256"/><path clip-rule="evenodd" d="m224.41465 198.21661c-24.3-1.6-32.1-25.4-28.5-64.4 1.4 37.5 11.1 58.6 28.5 64.4zm-34.1-62.1v.2-.2c-.3 2.1-.6 4.1-.8 6.2-.9 7.6-1.3 15.1-1.3 22.5 0 9 .6 17.8 2 26.4v-.1.1c1.4-8.6 2-17.4 2-26.4 0-7.4-.4-14.9-1.3-22.5-.1-2-.3-4.1-.6-6.2zm-34.2 62.1c17.4-5.9 27.2-26.9 28.6-64.4 3.5 39-4.3 62.8-28.6 64.4z" fill="#fbffff" fill-rule="evenodd"/><path d="m92.314645 183.21661-19.1-34.4h13.2l8.9 17.6 2.6 5.9c.7-1.5 1.1-2.5 1.3-3 .4-1 .900005-1.9 1.300005-2.9l9-17.6h12.9l-18.8 34.4z" fill="#e30615"/><g fill="#ceaf54"><path d="m91.414645 183.71661-19.1-34.4-.8-1.4h1.6 13.2.6l.3.5 8.9 17.6 1.7 3.9c.2-.4.3-.7.4-.9v-.1c.2-.5.4-1 .7-1.5.2-.5.5-1 .7-1.5l9.000005-17.6.3-.5h.6 12.9 1.6l-.8 1.4-18.8 34.4-.3.5h-.6-11.300005-.6zm-16.6-33.9 18 32.5h10.200005l17.8-32.5h-10.7l-8.7 17c-.2.5-.4.9-.7 1.4-.2.4-.4.9-.6 1.4-.1.3-.300005.6-.500005 1.1-.2.4-.5 1-.8 1.9l-.9 1.9-.9-1.9-2.6-5.8-8.7-17z"/><path d="m87.214645 144.31661c0 .1 0 .2-.1.2-.1.1-.2.1-.3.1-.2 0-.6 0-1 0-.5 0-.8 0-1 0s-.3-.1-.3-.2v-.1c.1-1.8.1-2.9.1-3.3v-2.1c0-.1 0-.2-.1-.2s-.2 0-.4.1-.3.1-.4.1-.2-.1-.2-.3 0-.4 0-.7 0-.6 0-.7.1-.2.2-.2c.7-.3 1.2-.7 1.6-1.2.1-.1.2-.1.2-.1h.1c.2 0 .4.1.8.2.2 0 .5.1.8.1.1 0 .1.1.1.2v.2c-.1.4-.1 1.4-.1 3.1v2.5z"/><path d="m95.914645 139.81661c0 1.6-.6 2.8-1.7 3.8-1.1.9-2.4 1.3-4 1.3-.1 0-.2-.1-.2-.2-.3-.8-.5-1.4-.5-1.6s.1-.2.3-.2c1.5 0 2.5-.4 3-1.2.1-.1.1-.2.1-.2s-.1 0-.2.1c-.4.2-.9.3-1.4.3-.8 0-1.5-.2-2-.7s-.8-1.2-.8-2c0-1.1.4-1.9 1.1-2.5.7-.5 1.5-.8 2.6-.8 1.2 0 2.1.4 2.8 1.1.5.6.9 1.6.9 2.8zm-2.7-.7c0-.4-.1-.7-.3-.9-.2-.3-.5-.4-.9-.4-.8 0-1.2.4-1.2 1.2 0 .3.1.6.3.8s.5.3.8.3.6-.1.8-.3c.4-.1.5-.4.5-.7z"/><path d="m104.11465 141.51661c0 1.1-.4 1.9-1.1 2.5s-1.5.8-2.6.8c-1.200005 0-2.100005-.4-2.800005-1.1s-1-1.7-1-2.9c0-1.5.6-2.7 1.7-3.7 1.1-.9 2.400005-1.4 3.900005-1.4.1 0 .2.1.2.2.4.9.5 1.4.5 1.5 0 .2-.1.3-.3.3-.6 0-1.1.1-1.6.2-.6.2-1 .5-1.300005.8-.1.1-.1.2-.1.2h.1c.400005-.2.900005-.3 1.400005-.3.8 0 1.5.2 2 .7.7.7 1 1.3 1 2.2zm-2.5 0c0-.3-.1-.6-.3-.8s-.5-.3-.8-.3c-.4 0-.700005.1-.900005.3s-.3.5-.3.9.1.7.3.9c.2.3.500005.4.900005.4s.7-.1.9-.4c.1-.3.2-.6.2-1z"/><path d="m111.81465 142.61661v.5.5.5.5c0 .1-.1.2-.2.2s-.3 0-.7-.1-1.2-.1-2.4-.1c-.4 0-.9 0-1.6.1-.7 0-1.3.1-1.6.1-.1 0-.2-.1-.2-.2 0-.2-.1-.4-.1-.7-.1-.5-.2-.8-.2-.8 0-.1.2-.2.6-.2.5-.1.8-.1.9-.3.5-.4 1-.9 1.5-1.5.6-.8 1-1.4 1-1.7s-.1-.6-.4-.9c-.2-.2-.5-.3-.9-.3s-.8.1-1.1.2-.5.2-.8.4c-.2.1-.4.2-.4.2-.2 0-.2-.2-.2-.6 0-.3 0-.5 0-.6s0-.2-.1-.4-.1-.3-.1-.4 0-.1.1-.2c.4-.3.9-.5 1.6-.7.6-.1 1.2-.2 1.7-.2.9 0 1.7.2 2.3.6.7.5 1.1 1.1 1.1 2 0 1.1-.9 2.5-2.6 4 1.2-.1 2.2-.1 2.9-.1-.2-.1-.1 0-.1.2z"/><path d="m70.714645 196.81661c0 .7-.2 1.2-.6 1.6-.5.5-1.3.7-2.5.7-.1 0-.2 0-.4 0s-.3 0-.4 0c-1.3 0-2.1 0-2.4-.1-.1 0-.2-.1-.2-.2 0-.4 0-1 .1-1.7 0-.8.1-1.4.1-1.8s0-1.2-.1-2.4c0-.3 0-.7-.1-1.3v-.1c0-.1.1-.1.2-.1h1.2 2c.9 0 1.5.2 2 .4.6.3.8.9.8 1.7 0 .2-.1.4-.2.7-.1.2-.2.3-.4.5-.1.1-.2.2-.2.2s0 .1.1.1c.3.1.4.4.6.7.3.5.4.8.4 1.1zm-2.4-3c0-.3-.2-.5-.5-.6-.2-.1-.5-.1-.9-.1s-.6 0-.6.1v.3.3c0 .4 0 .6.1.6h.7c.9.1 1.2-.1 1.2-.6zm.2 3c0-.3-.1-.5-.4-.7-.2-.1-.5-.1-.8-.1-.5 0-.7 0-.8 0 0 0-.1.3-.1.7s0 .7.1.7c0 0 .3.1.8.1.4 0 .7 0 .8-.1.3-.1.4-.3.4-.6z"/><path d="m76.914645 197.51661c0 .2 0 .4-.1.9-.1.4-.1.7-.2.8 0 .1-.1.1-.2.1 0 0-.1 0-.2 0-.3 0-1-.1-2.3-.1-.3 0-.7 0-1.2 0s-1 0-1.2 0c-.1 0-.2-.1-.2-.2 0-.4 0-1 .1-1.8 0-.8.1-1.4.1-1.8s0-1.2-.1-2.3c0-.3 0-.7-.1-1.3v-.1c0-.1 0-.1.1-.1h1.2 1.2 1.2 1.2c.2 0 .3.1.3.2s0 .3.1.8c0 .4.1.7.1.8s0 .1-.1.1h-.1c-1-.1-1.8-.1-2.6-.1-.2 0-.3 0-.4.1v.4c0 .2 0 .4.1.5s.2.1.4.1h.2.3 1.4.3.3c.1 0 .1 0 .1.1 0-.1 0 .2-.1.8v.9c0 .1-.1.1-.2.1 0 0-.2 0-.5-.1-.2 0-.7 0-1.4 0h-.6c-.1 0-.2 0-.3.1v.3c0 .3 0 .4.1.5s.3.2.7.2h.8c.2 0 .5 0 .9-.1.4 0 .7-.1.8-.1 0 .1.1.2.1.3z"/><path d="m82.614645 199.31661c-.3 0-.7 0-1.2 0-.6 0-1.1 0-1.2 0h-1.6c-.2 0-.4 0-.7 0-.1 0-.2-.1-.2-.2 0-.4 0-1 0-1.8s0-1.4 0-1.8 0-1 0-1.9c0-.8 0-1.5 0-1.9 0-.1.1-.1.2-.1h.5.5.5.5c.1 0 .1 0 .1.1v.1c0 .7-.1 1.7-.1 3.1v1.4 1 .1s0 .1.1.1h.1c.3 0 .8 0 1.5-.1.6 0 1.1-.1 1.5-.1.1 0 .1 0 .1.1 0 .6 0 1.1-.1 1.6 0 .1-.1.1-.1.2-.2.1-.3.1-.4.1z"/><path d="m91.114645 195.41661c0 1.1-.4 2.1-1.1 2.8-.7.8-1.7 1.2-2.8 1.2s-2-.4-2.8-1.2c-.7-.8-1.1-1.7-1.1-2.8s.4-2.1 1.1-2.8c.7-.8 1.7-1.2 2.8-1.2s2 .4 2.8 1.2c.8.7 1.1 1.7 1.1 2.8zm-2 0c0-.5-.2-1-.5-1.4s-.8-.6-1.3-.6-.9.2-1.3.6c-.3.4-.5.9-.5 1.4 0 .6.2 1 .5 1.4s.8.6 1.3.6.9-.2 1.3-.6c.3-.4.5-.9.5-1.4z"/><path d="m98.414645 196.51661c0 .9-.1 1.5-.3 1.9-.4.6-1.4.9-3 .9-.7 0-1.3-.1-1.7-.2-.6-.2-1-.5-1.2-1-.1-.2-.1-.7-.1-1.3 0-.1 0-.4 0-.7s0-.5 0-.7c0-.4 0-1-.1-1.9 0-.8-.1-1.5-.1-1.9 0-.1 0-.1.1-.1h1 1c.1 0 .1 0 .1.1v2.1 2.1c0 .6.1.9.2 1.1.2.3.5.4 1 .4.7 0 1.1-.4 1.1-1.1 0-.5 0-1.3 0-2.3s0-1.8 0-2.3c0-.1 0-.2.1-.2h1 1c.1 0 .2 0 .2.1v1.9c0 .8-.1 1.5-.1 1.9v.5c-.2.4-.2.6-.2.7z"/><path d="m101.61465 195.21661v1.9 1.9.1h-.1c-.2 0-.5 0-.9 0-.5 0-.900005 0-1.000005 0s-.2-.1-.2-.2c0 .1 0-.3 0-.9.1-1.5.1-2.4.1-2.9 0-.4 0-1 0-1.7 0-.8 0-1.3 0-1.7 0-.1 0-.1.1-.1h.500005.5.5.5c.1 0 .2 0 .2.1 0 .4 0 1-.1 1.7 0 .8-.1 1.4-.1 1.8z"/><path d="m107.61465 199.31661c-.2 0-.5 0-1 0-.4 0-.7 0-1 0s-.8 0-1.4 0-1.1 0-1.4 0c-.1 0-.2 0-.2-.1 0-.2 0-.6-.1-1 0-.2-.1-.3-.1-.3s.4-.7 1.3-2.1 1.3-2.1 1.3-2.2 0-.1-.1-.1c-.3 0-.6 0-1.1 0s-.9 0-1.1 0c-.1 0-.1 0-.1-.1s0-.4.1-.8.1-.7.1-.8 0-.1.1-.1h2.2 2.2c.1 0 .1 0 .1.1.1.3.1.7.1 1.2 0 .1 0 .1-.1.2-.2.3-.7 1.1-1.4 2.2-.8 1.3-1.2 1.9-1.2 2h.1 1.7c.1 0 .3 0 .5-.1.2 0 .4-.1.5-.1s.1 0 .1.1c0 .6-.1 1.2-.2 1.8.2.1.2.2.1.2z"/><path d="m115.71465 195.41661c0 1.1-.3 2-1 2.8-.6.7-1.4 1.1-2.5 1.1-.2 0-.8 0-1.7 0-.2 0-.4 0-.8 0s-.6 0-.8 0c-.1 0-.2 0-.2-.1 0-.4 0-1 0-1.8s0-1.4 0-1.8 0-1 0-1.9c0-.8 0-1.4 0-1.9 0-.1.1-.1.2-.1h1.3 2.2c.9.1 1.5.3 2 .6s.8.8 1.1 1.4c.1.5.2 1.1.2 1.7zm-2 0c0-.6-.2-1.1-.5-1.5-.4-.4-.9-.6-1.5-.6s-.8.1-.8.2v1 1 .9.9c0 .2.3.2.9.2s1.1-.2 1.5-.6c.2-.4.4-.9.4-1.5z"/><path d="m123.71465 199.01661c0 .1 0 .1-.1.1s-.4 0-1 0c-.5 0-.8 0-1 0-.1 0-.2-.1-.2-.2-.1-.5-.2-.8-.3-.8s-.5 0-1.4 0c-.6 0-.9 0-1 0-.1.1-.1.3-.2.6s-.2.5-.2.5c-.1 0-.5 0-1.2 0-.6 0-.8-.1-.8-.2s.4-1.2 1.2-3.4c.9-2.4 1.4-3.7 1.4-3.9 0-.1.1-.2.2-.2h.5.5.4.4c.1 0 .1.1.2.2.2.4.7 1.7 1.5 3.9.7 2.2 1.1 3.3 1.1 3.4zm-3.8-4.9c-.1.2-.2.5-.4 1-.2.6-.3.9-.3 1s.1.1.3.1h.6c.2 0 .4 0 .4-.1 0 0 0 0 0-.1s-.1-.4-.2-1c-.2-.4-.3-.7-.4-.9z"/><path d="m131.31465 195.41661c0 1.1-.3 2-1 2.8-.6.7-1.4 1.1-2.5 1.1-.2 0-.8 0-1.7 0-.2 0-.4 0-.8 0s-.6 0-.8 0c-.1 0-.2 0-.2-.1 0-.4 0-1 0-1.8s0-1.4 0-1.8 0-1 0-1.9c0-.8 0-1.4 0-1.9 0-.1.1-.1.2-.1h1.3 2.2c.9.1 1.5.3 2 .6s.8.8 1.1 1.4c.1.5.2 1.1.2 1.7zm-2.1 0c0-.6-.2-1.1-.5-1.5-.4-.4-.9-.6-1.5-.6s-.8.1-.8.2v1 1 .9.9c0 .2.3.2.9.2s1.1-.2 1.5-.6c.3-.4.4-.9.4-1.5z"/></g><path d="m71.414645 220.91661c.2.6.7 2.1 1.5 4.7.3 1.2.5 2.4.5 3.8h-2.5c-1.8-2.5-3.6-4.3-5.5-5.4s-4-1.7-6.3-1.7c-2.9 0-5.2 1.1-6.9 3.4-2.4 3-3.6 7.3-3.6 12.7 0 3.1.2 5.4.6 6.7.7 2.2 1.5 3.9 2.5 5.3.8 1 1.8 1.9 3.1 2.5 1.6.8 3.4 1.3 5.2 1.3 2 0 4-.6 5.9-1.9s3.7-3.2 5.5-5.7c.7-.1 1.6-.2 2.7-.2-.1.7-.2 1.4-.4 2.2-.1.3-.3 1.5-.6 3.5l-.3.8-.4 1.3c-1.1.9-2.7 1.5-4.8 2-2 .4-4.6.7-7.5.7-2.3 0-4.4-.2-6.5-.6-2-.4-3.8-1.1-5.2-2-2.1-1.3-3.8-2.8-5-4.3-1.2-1.6-2.1-3.3-2.7-5.1s-.9-3.9-.9-6.2c0-5.5 1.8-10.1 5.5-13.7 3.6-3.6 8.3-5.4 13.9-5.4 2.3 0 4.5.1 6.5.3s3.9.5 5.7 1z" fill="#e30615"/><path d="m97.314645 248.91661c1.2 0 2.2.4 3.000005 1.1.8.7 1.2 1.6 1.2 2.5 0 1.2-.3 2.2-.7 2.8-.900005 1.1-2.000005 1.6-3.200005 1.6s-2.2-.4-2.9-1.1c-.8-.8-1.1-1.7-1.1-2.9 0-.8.2-1.4.6-2.1.3-.5.8-1 1.7-1.6.1-.1.7-.3 1.4-.3z" fill="#e30615"/><path d="m121.31465 254.61661c.5-.3 1.2-.5 2.1-.6s1.8-.3 2.6-.6c.1-.4.2-.6.2-.8 0-.3.1-1.1.1-2.7v-6.2l.1-3.3v-2.6-1.5c.1-2 .1-3.9.1-5.7 0-3.8 0-6.3-.1-7.4l-1.6-.3c-1.5-.1-2.5-.2-3-.3l-.1-1.7.1-.3c.9-.2 1.8-.2 2.6-.2h2.6c1.3.1 2.1.2 2.2.2l1.5-.1 3.5-.2c2.2-.2 4.5-.3 6.9-.3 3.8 0 6.8 1 9.1 2.9 2.2 1.9 3.4 4.2 3.4 6.7 0 1.9-.6 3.6-1.8 5.1s-3.1 2.7-5.6 3.5c.2.4.5.8.9 1.4.8 1.1 1.4 2.1 1.9 2.8l4.4 7.2c1.1 1.9 1.8 3 2.2 3.3.3.3 1.1.7 2.1 1.1.8.3 1.5.6 1.9.9.1.3.2.6.2.8v.6h-.7-.6l-1.4-.2h-1.1c-.6-.1-1.3-.1-2.2-.1h-2.8c-.2 0-.9.1-1.9.2-.5 0-.9.1-1.2.1l-.9-1.8c-.8-1.4-1.3-2.4-1.6-3.1-.8-1.8-2.2-4.7-4.2-8.6-.9-1.8-1.6-2.8-1.9-3.1-.5-.4-1.5-.6-2.9-.6-.4 0-1 0-1.9.1-.1.5-.1 1.2-.1 1.9l.1 6.2-.1 5.2c.5.3 1.2.6 2 .7 1.5.3 2.7.7 3.7 1.1 0 .9 0 1.6-.1 2.1-.4 0-.6 0-.7 0l-1.1.1c-4-.4-6.3-.5-7.1-.5-.5 0-.8 0-1 0l-3.8.3c-1.2.1-2.2.2-3.2.2h-1.2c0-.5-.1-.8-.1-.9-.5-.4-.5-.7-.5-1zm12.5-18c.9 0 1.5.1 2 .1 3.1 0 5.4-.6 6.7-1.7s2-2.6 2-4.5c0-1.2-.2-2.3-.5-3.3s-.7-1.8-1.2-2.3c-.7-.7-1.6-1.3-2.7-1.6-.8-.3-2.1-.4-3.9-.4-.9 0-1.6 0-2.2.1v.5 3.7l-.1 2.3v3c0 .8-.1 2-.1 3.3z" fill="#e30615"/><path d="m180.31465 248.91661c1.2 0 2.2.4 3 1.1s1.2 1.6 1.2 2.5c0 1.2-.3 2.2-.7 2.8-.9 1.1-2 1.6-3.2 1.6s-2.2-.4-2.9-1.1c-.8-.8-1.1-1.7-1.1-2.9 0-.8.2-1.4.6-2.1.3-.5.8-1 1.7-1.6.1-.1.6-.3 1.4-.3z" fill="#e30615"/><path d="m204.01465 256.51661.1-2.2c.4-.1 1-.2 1.6-.3 1.2-.2 2.2-.4 2.9-.7.3-.4.4-.8.5-1.2.2-1 .2-2.6.2-4.6v-11.8c0-1.2-.1-4.4-.2-9.6 0-1.4-.1-2.2-.3-2.6-.1-.1-.2-.2-.3-.3-.3-.2-.8-.3-1.7-.4-.4 0-1.3-.1-2.7-.3l-.1-2 6.2-.1 9.1-.3h1.1.7 1.5 1.8c1.4 0 2.9.2 4.6.6.6.2 1.3.5 2.3.9.9.5 1.8 1.1 2.5 1.8s1.2 1.6 1.5 2.5.5 1.9.5 2.9c0 1.1-.3 2.1-.8 3s-1.3 1.7-2.3 2.5c-.5.4-1.7 1-3.6 1.8 2.8.6 4.9 1.8 6.4 3.5s2.2 3.5 2.2 5.6c0 1.2-.2 2.5-.7 3.8-.3 1-.9 1.9-1.7 2.8-1.1 1.1-2.2 2-3.3 2.6-1.2.6-2.8 1.1-4.9 1.4-1 .2-2.6.3-4.7.3l-4.7-.1c-2 0-4.4.1-7.1.3-.9 0-3.1.1-6.6.2zm12.9-21.1c.7.1 1.6.2 2.6.2 2.8 0 4.9-.5 6.3-1.5s2.1-2.8 2.1-5.3c0-1.8-.7-3.3-2-4.4-1.3-1.2-3.4-1.8-6.1-1.8-.8 0-1.8.1-3.1.3v1.8c.1 1.6.1 3.8.1 6.6v2.3c.1.4.1 1 .1 1.8zm.3 17.7c1.2.5 2.3.8 3.4.8 2.1 0 3.8-.3 5.2-1 1.3-.6 2.3-1.5 2.9-2.7.6-1.1.9-2.6.9-4.3 0-1.8-.3-3.2-1-4.3-.9-1.5-2-2.5-3.4-3-1.3-.5-3.3-.8-5.9-.8-1.2 0-2 .1-2.4.2v3.4 4.1l.1 6.4c0 .5.1.8.2 1.2z" fill="#e30615"/><path clip-rule="evenodd" d="m139.01465 215.71661 111.7.1c-21.3-36.2-20.3-72.5 0-108.7-20.7 11.8-41.4 11.1-62.1-.1-14.9 11.7-31.4 17.3-49.6 16.6-18.2.6-35-4.9-49.800005-16.6-20.7 11.2-41.4 11.9-62.1.1 20.3 36.2 21.3 72.5 0 108.7zm0-78.7v67h-83.000005c9.3-24.8 9.5-49.7 0-74.5 11 1.3 22.1-.4 33.1-5.4 15.500005 8.9 32.100005 13 49.900005 12.9zm85.4 61.2c-24.3-1.6-32.1-25.4-28.5-64.4 1.4 37.5 11.1 58.6 28.5 64.4zm-39.7-64.4c3.6 39-4.2 62.8-28.6 64.4 17.4-5.8 27.2-26.9 28.6-64.4zm4.8 8.5c.2-2.1.5-4.1.7-6.2v.2-.2c.3 2.1.5 4.1.7 6.2.8 7.6 1.3 15.1 1.3 22.5 0 9-.6 17.8-2 26.4v-.1.1c-1.4-8.6-2-17.4-2-26.4 0-7.4.5-14.9 1.3-22.5z" fill="#e30615" fill-rule="evenodd"/><path clip-rule="evenodd" d="m122.71465 360.91661v-91.2h16.3 16.1v91.2l-16 16zm130.9-100.2h-114.6-.2-114.600005c-21.9999996 123.3 86.000005 72.3 114.800005 128.1 28.8-55.8 136.6-4.8 114.6-128.1zm-167.100005 9v78.1l-27.9-7.5-.1-70.7h28zm104.800005 78.1v-78.1h28l-.1 70.7z" fill="#e30615" fill-rule="evenodd"/><path clip-rule="evenodd" d="m58.514645 269.71661h28v78.1l-27.9-7.5zm160.800005 0h-28v78.1l27.9-7.5zm-80.3 0h16.1v91.2l-16 16-16.3-16v-91.2z" fill="#fbffff" fill-rule="evenodd"/><path d="m58.514645 268.81661h28 1v1 78 1.2l-1.2-.3-27.9-7.5-.7-.2v-.7l-.1-70.7v-1h.9zm27.1 1.9h-26.1l.1 69 26 7zm132.700005 0h-26.1v75.9l26-7zm-27-1.9h28 1v1l-.1 70.7v.7l-.7.2-27.9 7.5-1.2.3v-1.4-78.1-1h.9zm-52.3 0h16.1 1v1 91.2.4l-.3.3-16 16-.7.7-.7-.7-16.3-16-.3-.3v-.4-91.2-1h1zm15.1 1.9h-15.1-15.3v89.9l15.4 15.1 15.1-15.1v-89.9z" fill="#ceaf54"/><g fill-rule="evenodd" transform="matrix(.31024668 0 0 .31024668 34.736079 -47.250569)"><path d="m340.1 292.8-.4-140.5-32.16 98.6z" fill="url(#a)"/><path d="m340.2 152.4 31.45 97.64-31.04 42.7z" fill="#d2c308"/><path d="m341.1 292.4 133.8-42.39-103.6-.01z" fill="#faf26f"/><path d="m341 293.1 50.85 17.34 83.1-60.32z" fill="#a29910"/><path d="m289.1 310.6 50.32-17.12-134.2-43.5z" fill="#d2c308"/><path d="m339.6 293.8-82.67 116.1 32.22-99.1z" fill="#faf26f"/><path d="m341.1 293.6 50.78 16.82 31.72 97.69z" fill="url(#b)"/><path d="m340.2 348.6 83.08 59.65-82.56-114.4z" fill="#a29910"/><path d="m306.9 251.2 33.56 42.72-135.6-43.9z" fill="#faf26f"/><path d="m340.2 348.6-82.9 59.3 83.03-114.5z" fill="#a29910"/></g></svg>