<?xml version="1.0" encoding="UTF-8"?>
<svg id="Calque_2" data-name="Calque 2" xmlns="http://www.w3.org/2000/svg" xmlns:xlink="http://www.w3.org/1999/xlink" viewBox="0 0 325.54 389.01">
  <defs>
    <style>
      .cls-1 {
        fill: none;
      }

      .cls-2 {
        fill: #3fb542;
      }

      .cls-3, .cls-4, .cls-5, .cls-6, .cls-7, .cls-8 {
        fill-rule: evenodd;
      }

      .cls-3, .cls-9 {
        fill: #fff;
      }

      .cls-10, .cls-8 {
        fill: #fee930;
      }

      .cls-11 {
        fill: #9ad15a;
      }

      .cls-12 {
        fill: #faeb22;
      }

      .cls-4 {
        fill: #49a553;
      }

      .cls-6 {
        fill: #fdfdfc;
      }

      .cls-7 {
        fill: #ff2a00;
        opacity: .23;
      }

      .cls-13 {
        fill: #25b675;
      }

      .cls-14 {
        fill: url(#Dégradé_sans_nom_12);
      }
    </style>
    <linearGradient id="Dégradé_sans_nom_12" data-name="Dégradé sans nom 12" x1="259.17" y1="34.66" x2="69.12" y2="302.19" gradientUnits="userSpaceOnUse">
      <stop offset="0" stop-color="#fff6b5"/>
      <stop offset=".24" stop-color="#fcf4b3"/>
      <stop offset=".84" stop-color="#d6d266"/>
    </linearGradient>
  </defs>
  <g id="svg">
    <g>
      <path class="cls-2" d="M80.14,333.03c-29.09-25.28-54.27-51.74-60.69-59.66-13.89-17.12-12.8-31.82-12.07-41.55.07-.89.13-1.76.18-2.61l.02-.23C17.12,124.07,27.11,83.39,31.38,66.02c.32-1.29.6-2.45.85-3.48,7.97-33.41,17.34-40.87,45.44-49.18,18.09-5.35,78.18-6.27,84.97-6.36h.13V0h-.22c-11.24.15-68.27,1.15-86.87,6.65-30.13,8.91-41.62,18-50.27,54.27-.24,1.02-.52,2.16-.84,3.43-4.3,17.52-14.38,58.55-23.98,163.97l-.03.45c-.05.82-.11,1.65-.18,2.51-.76,10.17-2.03,27.2,13.61,46.48,6.55,8.08,32.12,34.98,61.54,60.54,39.81,34.59,67.52,50.7,87.22,50.7v-7c-17.67,0-44.7-16.02-82.63-48.99Z"/>
      <path class="cls-10" d="M325.14,231.21c-.06-.83-.12-1.65-.18-2.52l-.03-.44c-9.59-105.36-19.67-146.39-23.97-163.91-.31-1.27-.59-2.41-.83-3.42-8.65-36.27-20.14-45.36-50.27-54.27C231.25,1.15,174.18.15,162.92,0h-.16v7h.06c6.86.09,66.94,1.01,85.04,6.36,28.1,8.31,37.48,15.77,45.44,49.18.25,1.03.53,2.18.85,3.47,4.27,17.37,14.26,58.03,23.8,162.87l.02.23c.06.93.12,1.8.19,2.69.73,9.73,1.82,24.43-12.07,41.56-6.42,7.92-31.6,34.38-60.69,59.66-37.93,32.96-64.96,48.99-82.63,48.99v7c19.7,0,47.42-16.11,87.22-50.7,29.41-25.56,54.98-52.46,61.54-60.53,15.64-19.28,14.37-36.31,13.61-46.56Z"/>
      <path class="cls-9" d="M318.16,231.81c-.06-.89-.13-1.76-.19-2.69v-.23c-9.56-104.84-19.55-145.51-23.81-162.87-.32-1.29-.6-2.44-.85-3.47-7.97-33.41-17.34-40.87-45.44-49.19-18.09-5.35-78.18-6.27-85.04-6.36h-.19c-6.79.09-66.88,1.01-84.97,6.36-28.1,8.32-37.48,15.78-45.45,49.19-.24,1.03-.53,2.18-.84,3.48-4.27,17.37-14.26,58.04-23.81,162.94l-.02.23c-.05.85-.11,1.72-.18,2.61-.72,9.73-1.82,24.43,12.07,41.56,6.43,7.91,31.6,34.38,60.7,59.66,37.93,32.96,64.96,48.99,82.63,48.99s44.7-16.03,82.63-48.99c29.09-25.28,54.27-51.74,60.69-59.66,13.9-17.13,12.8-31.83,12.07-41.56ZM302.21,270.22c-6.33,7.8-31.23,33.95-60.09,59.03-36.47,31.7-63.17,47.77-79.35,47.77s-42.88-16.07-79.35-47.77c-28.87-25.08-53.76-51.23-60.09-59.03-12.64-15.59-11.68-28.56-10.97-38.04.07-.91.13-1.81.19-2.68v-.16c9.52-104.44,19.44-144.86,23.68-162.12.32-1.3.61-2.47.86-3.51,7.5-31.45,15.23-37.64,42-45.55,17.73-5.24,80.93-6.12,83.61-6.16h.13c2.68.04,65.89.92,83.62,6.16,26.76,7.92,34.5,14.1,42,45.55.25,1.04.53,2.2.85,3.5,4.24,17.26,14.17,57.67,23.68,162.13v.16c.06.87.13,1.77.2,2.68.7,9.48,1.67,22.45-10.97,38.04Z"/>
      <path class="cls-10" d="M27.21,267.06c-12.55-15.47-10.26-27.54-9.67-37.27,10.21-112.13,20.92-150.26,24.41-164.93,7.1-29.76,13.68-34.56,38.55-41.91,17.27-5.11,82.26-5.95,82.26-5.95v-5h-.06c-2.68.03-65.88.91-83.62,6.16-26.76,7.92-34.5,14.1-42,45.55-.25,1.04-.53,2.21-.85,3.51-4.24,17.26-14.17,57.68-23.67,162.13v.15c-.06.88-.13,1.77-.2,2.69-.71,9.47-1.67,22.45,10.97,38.03,6.33,7.81,31.23,33.96,60.09,59.04,36.47,31.69,63.17,47.76,79.35,47.76v-5c-34.96,0-122.71-89.11-135.56-104.95Z"/>
      <path class="cls-11" d="M302.21,270.21c12.64-15.58,11.67-28.56,10.97-38.03-.07-.92-.13-1.81-.19-2.69v-.15c-9.52-104.46-19.45-144.88-23.69-162.13-.32-1.3-.6-2.46-.85-3.5-7.5-31.44-15.23-37.63-42-45.55-17.73-5.24-80.94-6.12-83.62-6.16h-.06v5h0s64.99.84,82.26,5.95c24.87,7.35,31.45,12.15,38.55,41.91,3.5,14.67,14.21,52.8,24.41,164.93.58,9.73,2.88,21.8-9.67,37.27-12.85,15.84-100.6,104.95-135.56,104.95h0v5c16.18,0,42.88-16.07,79.35-47.76,28.86-25.08,53.76-51.23,60.09-59.04Z"/>
      <path class="cls-14" d="M298.32,267.06c-12.84,15.84-100.6,104.95-135.56,104.95s-122.71-89.11-135.55-104.95c-12.55-15.47-10.26-27.53-9.68-37.27,10.21-112.13,20.92-150.26,24.42-164.93,7.1-29.76,13.68-34.55,38.55-41.91,17.27-5.11,82.26-5.95,82.26-5.95,0,0,64.99.84,82.27,5.95,24.87,7.36,31.45,12.15,38.55,41.91,3.5,14.67,14.21,52.8,24.42,164.93.58,9.74,2.87,21.8-9.68,37.27Z"/>
      <path class="cls-7" d="M57.07,60.75c0,.51.24.64,1.4.79.77.1,2.32.31,3.46.47,25.42,3.49,49.23,5.56,74.85,6.5,12.18.45,41.16.44,50.74-.01,20.67-.98,30.59-1.64,43.09-2.86,14.34-1.4,35.18-4.08,35.81-4.6.81-.68-.2-.78-3.61-.37-39.08,4.65-60.13,6.09-95,6.51-33.29.4-71.58-1.91-105.59-6.38-5.53-.73-5.15-.72-5.15-.05"/>
      <line class="cls-1" x1="178.31" y1="327.86" x2="174.58" y2="328.48"/>
      <g>
        <path class="cls-5" d="M196.64,282.01c-.32-.2-.98.55-.71.82.35.35.97.2.97-.23,0-.24-.11-.5-.26-.59Z"/>
        <path class="cls-5" d="M265.95,182.03c-3.53,3.35-6.43,5.3-9.73,6.53-2.06.77-2.09.5-.24-1.67,4.29-5.01,7.31-11.55,8.87-19.2.83-4.05.77-4.06-2.22-.23-4.28,5.47-10.05,11.12-10.54,10.33-.08-.13.32-.83.9-1.55,10.37-12.91,13.79-28.48,9.31-42.41-1.23-3.83-1.43-3.9-1.67-.59-1.25,17.26-12.04,33.23-31,45.89-5.09,3.41-10.17,6.36-21.84,12.7-13.29,7.22-16.95,9.65-23.61,15.7-7.8,7.08-15.25,17.99-18.47,27.03-.48,1.35-.71,1.38-1.34.15-3.22-6.24-12.86-16.97-23.2-25.83-2.29-1.95-16.37-13.41-22.39-18.22-17.85-14.24-30.8-30.24-35.35-43.67-3.96-11.7-3.93-26.78.09-36.69.35-.85-.02-.6-1.48,1.03-13.12,14.58-14.89,35.75-4.77,57.22.97,2.07.87,2.7-.23,1.37-10.88-13.13-16.01-26.69-16.03-42.42q-.01-4.97-1.14-1.32c-6.35,20.7-4.26,36.23,6.91,51.47,1.79,2.43-4.19-1.52-7.84-5.18-4.75-4.77-10.27-15.06-10.27-19.14,0-.32-.12-.64-.26-.73-.82-.5-1.18,10.48-.5,15.08,1.5,10.18,6.95,18.95,15.48,24.93,2.87,2.01,2.72,2.33-.7,1.56-5.43-1.2-9.78-3.44-14.28-7.34l-2.45-2.13.21,1.29c2.2,13.01,13.55,28.64,29.47,40.58l2.71,2.04.61,2.13c6.63,23.03,27.24,43.95,48.61,49.33,4.08,1.03,4.06.87.5,4.01-8.39,7.39-19.62,13.03-33.05,16.6-4.06,1.07-3.96.92-2.25,3.58,5.97,9.31,20.08,15.28,36.19,15.3,9.81.01,12.24-1.05,16.77-7.35,1.89-2.64,3.51-4.86,3.6-4.95.09-.09,1.07.3,2.18.85,2.52,1.27,6.08,2.42,8.83,2.86,1.91.3,3.88,1.32,5.31,2.76.09.08-.45.74-1.19,1.46-1.58,1.53-1.83,2.46-1.54,5.63.23,2.37.49,2.68,1.17,1.35,1.93-3.73,8.31-4.82,10.82-1.85,2.35,2.8.39,7.99-2.32,8.96l2.67.35c4.46-.95,5.44-3.66,5.45-6.84v-1.76c.07-.28,2.44,1.24,2.8,1.79.93,1.41,1.32,3.41,1,5.12-.38,2.07-.21,2.18.94.62,1.53-2.07,2.15-3.73,2.19-5.75.04-2.97,1.79-4.3,4.79-3.67,3.79.79,5.44,3.63,3.89,6.67-.82,1.6-.76,1.72.54,1.05,2.61-1.33,3.87-2.95,3.87-5,0-.82.12-1.19.4-1.19.68,0,2.77,2.52,3.16,3.81.51,1.7.84.97,1.06-2.3.32-4.97-1.38-6.64-9.62-9.43-2.03-.69-4.67-1.74-5.87-2.33l-2.2-1.08-.64-1.94c-1.23-3.73-4.66-10.43-8.41-16.4-2.21-3.52-2.25-3.48,2.26-1.66,9.34,3.75,12.02,5.2,13.45,7.25,1.54,2.23,4.2,4.79,4.74,4.58.47-.18,2.32-3.87,2.66-5.28.51-2.1,1.52.43,1.26,3.13-.09.99-.26,2.22-.36,2.75-.26,1.25.06,1.23,2.67-.1,7.48-3.83,9.03-9.19,4.42-15.23-.83-1.08-1.04-1.63-1.04-2.65,0-3.6-4.38-9.41-10.52-13.98-2.53-1.88-2.51-1.78-.67-2.79,6.72-3.65,10.27-8.1,19.27-24.14,9.76-17.39,12.58-20.85,22.95-28.17,1.29-.92,4.93-3.53,8.09-5.82,3.15-2.28,6.24-4.48,6.86-4.89.62-.4,1.08-.78,1.01-.85-.13-.13-8.8.61-11.07.94-1.84.26-1.49-.43.56-1.13,8.85-3.01,16.78-10.17,21.36-19.32,1.87-3.72,1.81-3.87-.56-1.61ZM122.61,264.97c-11.43-3.89-24.88-15.59-29.71-25.84-.74-1.58-.46-1.61,2.44-.22,4.83,2.32,7.46,3.35,13.25,5.15.81.26.28-.22-1.61-1.44-8.71-5.6-20.71-17.64-28.61-28.72-6.07-8.49-6.08-8.55-1.47-5.12,10.04,7.47,20.63,14.34,29.53,19.15,3.74,2.03,3.74,1.92.01-1.39-12.85-11.4-25.13-28.53-31.04-43.3-3.38-8.46-3.99-11.26-1.55-7.21,7.76,12.94,23.9,28.34,41.88,39.94,16.37,10.57,22.59,16.32,27.76,25.69,7.8,14.12-5.22,28.65-20.88,23.31ZM138.04,314.33c-13.97,3.64-26.45,1-37.24-7.87-2.64-2.18-2.67-2.04.59-2.65,4.82-.9,11.74-3.65,14.62-5.81,1.23-.91,1.55-.68,2.94,2.15,3.11,6.32,13.14,12.87,19.73,12.87,1.88,0,1.51.75-.64,1.31ZM184.44,320.51c-2.2-1.67-5.57-3.38-5.93-3.02-.08.08,0,.55.17,1.04.36,1.03.27,3.29-.13,3.39-.15.04-.46-.49-.69-1.17-1.16-3.5-3.6-4.9-7.87-4.54-3.56.3-3.9.1-1.95-1.18,1.89-1.24,1.9-1.16-.55-2.79-2.36-1.57-2.47-1.79-.95-1.95.6-.06,1.27-.13,1.47-.16.21-.03,1.41.47,2.68,1.1,1.26.64,3.68,1.78,5.36,2.53,3.83,1.72,6.63,3.57,8.05,5.3,1.02,1.24,1.22,2.11.34,1.45ZM186.88,311.68c.46.24,3.11,1.1,5.89,1.92,5.43,1.6,7.86,2.66,9.39,4.09,1.34,1.25.92,1.67-.8.79-1.35-.68-3.57-1.28-3.57-.96,0,.09.25.76.57,1.5.75,1.75.38,1.9-1.04.43-2.32-2.4-5.3-3.25-8.52-2.44-1.07.26-2.01.41-2.09.32-.2-.2,1.35-2.25,1.7-2.25.14,0,.26-.2.26-.44s-.17-.44-.38-.44c-.53,0-4.35-1.64-4.42-1.9-.2-.77,1.89-1.2,3.01-.62ZM177.2,297.68l1.91.19,1.68,2.5c1.72,2.55,3.17,5.68,3.17,6.81,0,1.46-6.78.18-10.43-1.97-2.11-1.23-1.8-1.69,1.02-1.56,2.77.13,2.87.01.82-.95-2.76-1.28-7.29-4.54-7.29-5.25,0-.22,6.2-.07,9.12.23ZM200.1,294.85c-.84,2.66-1.06,2.51-1.02-.65.03-2.69.17-2.97,1.13-2.24.65.49.65.48-.11,2.89ZM207.7,288.17c3.19,3.66,2.72,7.7-1.13,9.72-.95.49-1.14.32-1.14-1.02s-1.41-3.82-2.85-4.95c-1.76-1.38-7.49-3.95-7.9-3.54-.18.18,2.55,6.65,3.41,8.11.61,1.03.73,1.53.35,1.53-.79,0-6.84-11.04-6.42-11.72.09-.14.86-.05,1.71.21,1.18.35,2.92.47,7.25.47h5.7s1.02,1.19,1.02,1.19ZM205.84,283.46c.24,1.77.04,1.92-2.4,1.71-2.18-.18-2.46-.38-1.67-1.18.63-.62.29-.86-.58-.39-1.44.77-2.12.23-3.63-2.84-.82-1.66-1.7-3.02-2.13-3.3l-.73-.47.51.8c.72,1.11.65,1.48-.37,2.06-.1.06-.19.12-.28.19-.89.67-1.52,1.99-.76,2.89.23.27.58.51,1.09.67.52.18,1.21.28,2.1.28.32,0,.52-.03.62-.07.96.37,1.84,1.17,1.47,1.55-.53.55-2.79.45-5.33-.25-1.33-.36-2.88-.61-3.44-.57l-1.02.1,1.45,3.36c1.75,4.05,1.78,4-1.24,2.07-4.53-2.91-10.55-5.49-16.4-7.03-1.69-.44-3.12-.94-3.18-1.11-.1-.32,4.54-3.46,6.48-4.38,1.75-.83,1.67-.94-2.14-2.97-2.23-1.19-5.62-2.55-7.16-2.88-1.02-.21-.65-.88.62-1.12.44-.08,1.66-.38,2.71-.66,1.05-.29,3.47-.6,5.37-.69l3.46-.18-2.19-3.28c-1.94-2.9-2.28-3.66-1.66-3.62.09,0,1.49.38,3.11.84,13.25,3.75,26.36,13.58,27.32,20.47ZM195.53,282.93c-.58.12-.93-.04-1.1-.34-.02-.04-.04-.07-.05-.1-.05-.09-.07-.2-.09-.31v-.02c-.06-.53.17-1.19.54-1.54.05-.05.1-.09.15-.12,1.17-.77,1.81.04.86,1.09-.4.44-.48.95-.31,1.34ZM196.64,282.01c.15.09.26.35.26.59,0,.43-.62.58-.97.23-.27-.27.39-1.02.71-.82ZM226.05,209.24c-4.03,2.66-4.37,3.03-1.88,2.05,5.09-2,18.03-4.59,18.03-3.61,0,.16-1.33.97-2.95,1.79-9.5,4.78-16.28,10.76-21.94,19.36-1.47,2.23-2.57,4.18-6.88,12.28-.86,1.61-2.05,3.84-2.64,4.95-1.95,3.64-5.52,7.22-9.49,9.52-3.2,1.85-3.27,1.73-.98-1.59,3.14-4.56,5.84-10.78,7.32-16.85,1.24-5.11,1.33-5.59,1.07-5.75-.49-.3-4.93,1.66-7.34,3.25-2.28,1.5-2.94,1.83-2.94,1.48,0-.08.52-1.72,1.16-3.65,4.15-12.66,11.56-20.48,28.84-30.47,10.35-5.99,21.26-12.9,22.48-14.25.58-.64,1.05-.8,1.05-.35,0,2.6-14.09,16.03-22.91,21.84ZM251.04,170.59c-2.63,5.82-11.44,14.04-20.75,19.36-16.74,9.55-25.06,15.72-31.3,23.18-9.04,10.81-14,25.92-14,42.61,0,3.68-.07,6.69-.16,6.69s-1.32-.46-2.73-1.03c-4.26-1.72-13.6-4-14.14-3.45-.08.07,1.04,1.9,2.49,4.06,3.13,4.68,3.09,4.41.79,4.67-2.39.26-6.15,1.53-10.21,3.43-3.33,1.57-3.88,2.03-2.39,2.03,2.28,0,13.54,3.79,13.54,4.56,0,.16-1.43.98-3.16,1.83-2.82,1.38-7.69,4.62-7.7,5.13,0,.1.62.33,1.39.5,5.73,1.27,7.56,1.75,7.64,1.99,0,.17-3.43.57-8.07.95-10.75.9-11.33.97-11.05,1.24.5.5,5.64,1.77,7.82,1.94q2.62.21,4.4,3.77c1.53,3.04,4.04,10.61,4.04,12.16,0,1.13-8.2,1.17-11.47.06-3.48-1.18-6.69-3.22-4-2.55,1.42.36,6.35.55,6.35.25,0-.16-.53-.37-1.19-.48-4.85-.77-15.45-6.17-18.49-9.42-1.05-1.12-.74-1.14,2.94-.18,1.85.48,5.21,1.21,7.48,1.62,2.26.41,4.5.83,4.96.93,1.15.23.8-.25-.77-1.07-4.28-2.23-10.44-7.14-13.31-10.61-2.34-2.83-2.34-2.9-.08-3.97,5.18-2.45,10.6-7.94,13.01-13.2,4.99-10.92,1.48-27.58-7.96-37.79-6.56-7.08-9.83-9.75-33.9-27.6-15.07-11.17-25.62-26.23-30.63-43.68-1.6-5.56-1.51-6.66.23-2.93,5.72,12.3,21.3,30.04,37.57,42.8.97.76,3.15,2.48,4.85,3.81,1.7,1.34,5.85,4.61,9.24,7.27,20.25,15.9,29.05,26.78,32.65,40.31l.66,2.49,4.47.82c2.46.45,5.23,1.07,6.15,1.38.92.31,1.73.51,1.8.44.47-.47-5.4-4.67-7.99-5.73-1.97-.8-1.94-.45-.45-5.28,6.7-21.68,19.39-36.02,43.47-49.13,3.32-1.81,6.89-3.75,7.94-4.32,18.31-9.94,25.3-14.74,29.37-20.2.76-1.01,1.17-.8.65.34Z"/>
        <path class="cls-3" d="M224.17,211.29c5.09-2,18.03-4.59,18.03-3.61,0,.16-1.33.97-2.95,1.79-9.5,4.78-16.28,10.76-21.94,19.36-1.47,2.23-2.57,4.18-6.88,12.28-.86,1.61-2.05,3.84-2.64,4.95-1.95,3.64-5.52,7.22-9.49,9.52-3.2,1.85-3.27,1.73-.98-1.59,3.14-4.56,5.84-10.78,7.32-16.85,1.24-5.11,1.33-5.59,1.07-5.75-.49-.3-4.93,1.66-7.34,3.25-2.28,1.5-2.94,1.83-2.94,1.48,0-.08.52-1.72,1.16-3.65,4.15-12.66,11.56-20.48,28.84-30.47,10.35-5.99,21.26-12.9,22.48-14.25.58-.64,1.05-.8,1.05-.35,0,2.6-14.09,16.03-22.91,21.84-4.03,2.66-4.37,3.03-1.88,2.05Z"/>
        <path class="cls-3" d="M138.04,314.33c-13.97,3.64-26.45,1-37.24-7.87-2.64-2.18-2.67-2.04.59-2.65,4.82-.9,11.74-3.65,14.62-5.81,1.23-.91,1.55-.68,2.94,2.15,3.11,6.32,13.14,12.87,19.73,12.87,1.88,0,1.51.75-.64,1.31Z"/>
        <g>
          <path class="cls-8" d="M201.36,318.48c-1.35-.68-3.57-1.28-3.57-.96,0,.09.25.76.57,1.5.75,1.75.38,1.9-1.04.43-2.32-2.4-5.3-3.25-8.52-2.44-1.07.26-2.01.41-2.09.32-.2-.2,1.35-2.25,1.7-2.25.14,0,.26-.2.26-.44s-.17-.44-.38-.44c-.53,0-4.35-1.64-4.42-1.9-.2-.77,1.89-1.2,3.01-.62.46.24,3.11,1.1,5.89,1.92,5.43,1.6,7.86,2.66,9.39,4.09,1.34,1.25.92,1.67-.8.79Z"/>
          <path class="cls-8" d="M184.44,320.51c-2.2-1.67-5.57-3.38-5.93-3.02-.08.08,0,.55.17,1.04.36,1.03.27,3.29-.13,3.39-.15.04-.46-.49-.69-1.17-1.16-3.5-3.6-4.9-7.87-4.54-3.56.3-3.9.1-1.95-1.18,1.89-1.24,1.9-1.16-.55-2.79-2.36-1.57-2.47-1.79-.95-1.95.6-.06,1.27-.13,1.47-.16.21-.03,1.41.47,2.68,1.1,1.26.64,3.68,1.78,5.36,2.53,3.83,1.72,6.63,3.57,8.05,5.3,1.02,1.24,1.22,2.11.34,1.45Z"/>
        </g>
        <path class="cls-3" d="M183.96,307.18c0,1.46-6.78.18-10.43-1.97-2.11-1.23-1.8-1.69,1.02-1.56,2.77.13,2.87.01.82-.95-2.76-1.28-7.29-4.54-7.29-5.25,0-.22,6.2-.07,9.12.23l1.91.19,1.68,2.5c1.72,2.55,3.17,5.68,3.17,6.81Z"/>
        <path class="cls-8" d="M200.1,294.85c-.84,2.66-1.06,2.51-1.02-.65.03-2.69.17-2.97,1.13-2.24.65.49.65.48-.11,2.89Z"/>
        <path class="cls-8" d="M206.57,297.89c-.95.49-1.14.32-1.14-1.02s-1.41-3.82-2.85-4.95c-1.76-1.38-7.49-3.95-7.9-3.54-.18.18,2.55,6.65,3.41,8.11.61,1.03.73,1.53.35,1.53-.79,0-6.84-11.04-6.42-11.72.09-.14.86-.05,1.71.21,1.18.35,2.92.47,7.25.47h5.7s1.02,1.19,1.02,1.19c3.19,3.66,2.72,7.7-1.13,9.72Z"/>
        <path class="cls-8" d="M195.84,281.59c-.4.44-.48.95-.31,1.34-.58.12-.93-.04-1.1-.34-.02-.04-.04-.07-.05-.1-.04-.1-.07-.21-.09-.31v-.02c-.06-.53.17-1.19.54-1.54.05-.05.1-.09.15-.12,1.17-.77,1.81.04.86,1.09Z"/>
        <path class="cls-3" d="M203.44,285.17c-2.18-.18-2.46-.38-1.67-1.18.63-.62.29-.86-.58-.39-1.44.77-2.12.23-3.63-2.84-.82-1.66-1.7-3.02-2.13-3.3l-.73-.47.51.8c.72,1.11.65,1.48-.37,2.06-.1.06-.19.12-.28.19-.89.67-1.52,1.99-.76,2.89.23.27.58.51,1.09.67.52.18,1.21.28,2.1.28.32,0,.52-.03.62-.07.96.37,1.84,1.17,1.47,1.55-.53.55-2.79.45-5.33-.25-1.33-.36-2.88-.61-3.44-.57l-1.02.1,1.45,3.36c1.75,4.05,1.78,4-1.24,2.07-4.53-2.91-10.55-5.49-16.4-7.03-1.69-.44-3.12-.94-3.18-1.11-.1-.32,4.54-3.46,6.48-4.38,1.75-.83,1.67-.94-2.14-2.97-2.23-1.19-5.62-2.55-7.16-2.88-1.02-.21-.65-.88.62-1.12.44-.08,1.66-.38,2.71-.66,1.05-.29,3.47-.6,5.37-.69l3.46-.18-2.19-3.28c-1.94-2.9-2.28-3.66-1.66-3.62.09,0,1.49.38,3.11.84,13.25,3.75,26.36,13.58,27.32,20.47.24,1.77.04,1.92-2.4,1.71Z"/>
        <path class="cls-3" d="M251.04,170.59c-2.63,5.82-11.44,14.04-20.75,19.36-16.74,9.55-25.06,15.72-31.3,23.18-9.04,10.81-14,25.92-14,42.61,0,3.68-.07,6.69-.16,6.69s-1.32-.46-2.73-1.03c-4.26-1.72-13.6-4-14.14-3.45-.08.07,1.04,1.9,2.49,4.06,3.13,4.68,3.09,4.41.79,4.67-2.39.26-6.15,1.53-10.21,3.43-3.33,1.57-3.88,2.03-2.39,2.03,2.28,0,13.54,3.79,13.54,4.56,0,.16-1.43.98-3.16,1.83-2.82,1.38-7.69,4.62-7.7,5.13,0,.1.62.33,1.39.5,5.73,1.27,7.56,1.75,7.64,1.99,0,.17-3.43.57-8.07.95-10.75.9-11.33.97-11.05,1.24.5.5,5.64,1.77,7.82,1.94q2.62.21,4.4,3.77c1.53,3.04,4.04,10.61,4.04,12.16,0,1.13-8.2,1.17-11.47.06-3.48-1.18-6.69-3.22-4-2.55,1.42.36,6.35.55,6.35.25,0-.16-.53-.37-1.19-.48-4.85-.77-15.45-6.17-18.49-9.42-1.05-1.12-.74-1.14,2.94-.18,1.85.48,5.21,1.21,7.48,1.62,2.26.41,4.5.83,4.96.93,1.15.23.8-.25-.77-1.07-4.28-2.23-10.44-7.14-13.31-10.61-2.34-2.83-2.34-2.9-.08-3.97,5.18-2.45,10.6-7.94,13.01-13.2,4.99-10.92,1.48-27.58-7.96-37.79-6.56-7.08-9.83-9.75-33.9-27.6-15.07-11.17-25.62-26.23-30.63-43.68-1.6-5.56-1.51-6.66.23-2.93,5.72,12.3,21.3,30.04,37.57,42.8.97.76,3.15,2.48,4.85,3.81,1.7,1.34,5.85,4.61,9.24,7.27,20.25,15.9,29.05,26.78,32.65,40.31l.66,2.49,4.47.82c2.46.45,5.23,1.07,6.15,1.38.92.31,1.73.51,1.8.44.47-.47-5.4-4.67-7.99-5.73-1.97-.8-1.94-.45-.45-5.28,6.7-21.68,19.39-36.02,43.47-49.13,3.32-1.81,6.89-3.75,7.94-4.32,18.31-9.94,25.3-14.74,29.37-20.2.76-1.01,1.17-.8.65.34Z"/>
        <path class="cls-3" d="M122.61,264.97c-11.43-3.89-24.88-15.59-29.71-25.84-.74-1.58-.46-1.61,2.44-.22,4.83,2.32,7.46,3.35,13.25,5.15.81.26.28-.22-1.61-1.44-8.71-5.6-20.71-17.64-28.61-28.72-6.07-8.49-6.08-8.55-1.47-5.12,10.04,7.47,20.63,14.34,29.53,19.15,3.74,2.03,3.74,1.92.01-1.39-12.85-11.4-25.13-28.53-31.04-43.3-3.38-8.46-3.99-11.26-1.55-7.21,7.76,12.94,23.9,28.34,41.88,39.94,16.37,10.57,22.59,16.32,27.76,25.69,7.8,14.12-5.22,28.65-20.88,23.31Z"/>
        <path class="cls-6" d="M196.9,282.6c0,.43-.62.58-.97.23-.27-.27.39-1.02.71-.82.15.09.26.35.26.59Z"/>
        <path class="cls-4" d="M202.9,287.68h3.23s5.5,5.1,1.31,7.98c-.26.16-.51-.5-.22-.74,0,0,2.66-2.66-1.79-6.19l-2.53-.44v-.61Z"/>
      </g>
      <g>
        <circle class="cls-12" cx="162.77" cy="158.76" r="32.18"/>
        <path class="cls-13" d="M195.08,150.67c-.51-2.07-1.22-4.06-2.1-5.95-4.61-9.9-13.93-17.15-25.09-18.88-1.67-.26-3.38-.39-5.13-.39-6.46,0-12.47,1.84-17.57,5.01h-.01c-.38.24-.74.48-1.1.72h-.01c-8.82,6-14.61,16.11-14.61,27.58,0,3.21.46,6.32,1.3,9.26.24.81.5,1.62.8,2.4,1.58,4.24,4.01,8.07,7.07,11.29h.01c1.53,1.62,3.21,3.06,5.03,4.33,5.4,3.79,11.99,6.02,19.09,6.02,1.49,0,2.96-.1,4.39-.29,7.98-1.05,15.05-4.92,20.21-10.56h.01c3.09-3.39,5.49-7.4,6.98-11.84h0c1.11-3.34,1.72-6.9,1.72-10.61,0-2.79-.34-5.5-.99-8.09ZM144.99,131.93c5.09-3.38,11.2-5.35,17.77-5.35,1.68,0,3.32.13,4.93.38l-.88,5.11v.02c-4.11.58-8.11,2.25-11.91,5-.87-.23-3.44-.88-5.54-1.22-1.56-.26-3.16-.25-4.69.14.03-1.26.14-2.61.32-4.08ZM143.9,132.69c-.14,1.3-.22,2.51-.23,3.64-.99.38-1.96.96-2.67,1.87-2.13,2.73-4.02,5.36-5.32,9.62-.02.08-.03.17-.04.25-1.32.47-2.69,1.42-4.1,2.84,1.87-7.44,6.33-13.85,12.36-18.22ZM133.79,172.79c.83.85,1.67,1.63,2.53,2.35h0c.12.64.38,1.67.99,3.31-1.36-1.75-2.54-3.65-3.52-5.66ZM141.73,170.72h-.01s-5.14,3.32-5.14,3.32c-1.33-1.16-2.65-2.5-3.93-3.91-1.34-3.54-2.07-7.37-2.07-11.37,0-2.02.19-3.98.54-5.9,1.61-1.9,3.15-3.16,4.59-3.76.51,2.07,2.9,4.95,6.03,7.46-.67,4.85-1.16,9.86-.01,14.16ZM142.72,170.57c-1.15-4.21-.64-9.23.04-14.07,2.24-1.07,7.21-3.52,11.16-5.95,3.43,2.87,7.25,5.43,11.62,7.77v13.98c-3.29,2.59-7.25,4.54-11.77,5.8-.87-.37-7.33-3.22-11.05-7.53ZM162.76,190.94c-5.91,0-11.46-1.59-16.21-4.39,2.92.48,6.16.92,8.07.83,3.36,1.45,7.44,2.33,12.12,2.61l.16.69c-1.36.17-2.74.26-4.14.26ZM178.02,183.54c-.18,0-.27-.02-.27-.02-4.42,3.12-8.84,4.9-10.5,5.5h-.01c-4.7-.24-8.76-1.09-12.1-2.51-.16-1.69-.57-5.59-.99-7.48,4.5-1.27,8.46-3.21,11.78-5.77,1.22.54,5.34,2.16,12.09,2.64v7.64ZM178.73,152.71c-1.64.81-8.9,4.33-12.01,5.11-4.63-2.43-8.62-5.07-12.19-8.07l.63-11.61c3.77-2.8,7.73-4.5,11.8-5.06,1.71.6,9.87,3.63,11.99,7.22.06,4.7.04,8.71-.22,12.41ZM193.99,166.54c-1.53,6.16-4.83,11.6-9.32,15.78h-.01c-2.51.9-4.47,1.15-5.64,1.21v-7.83c1.17-1.12,5.82-5.94,7.1-11.92,2.78-.21,5.21-.87,7.26-1.96.1,1.2.34,2.74.61,4.71h0ZM194.55,153.72c-.39,2.16-.83,4.54-1.13,6.04-.06.28-.08.58-.09.94-2.01,1.17-4.46,1.87-7.31,2.09-.6-1.34-2.53-5.22-6.32-9.54.28-3.79.32-7.88.25-12.67.29-.26,1.68-1.29,5.86-1.73.91-.05,2.41.98,3.96,2.42,2.4,3.7,4.06,7.91,4.78,12.44h0Z"/>
      </g>
      <g>
        <path d="M50.01,97c.16.03.33.05.5.06.18.01.34.02.5.03.46.03.85-.07,1.18-.3.33-.23.49-.75.49-1.56v-15.72c.97-.09,1.95-.18,2.92-.27v15.88c0,1.07-.12,1.94-.34,2.6-.23.67-.54,1.18-.93,1.53-.39.36-.84.59-1.34.7-.5.11-1.03.14-1.58.09-.27-.02-.5-.05-.72-.07-.21-.02-.44-.06-.69-.12v-2.87Z"/>
        <path d="M60.52,88.09c1.34-.02,2.67-.04,4.01-.05v3.24c-1.34-.01-2.67-.03-4.01-.04v6.44c1.68.1,3.36.2,5.05.3v3.26c-2.66-.22-5.31-.44-7.97-.67,0-7.16,0-14.33,0-21.49,2.66-.23,5.31-.46,7.97-.68v3.26c-1.68.1-3.36.2-5.05.3v6.13Z"/>
        <path d="M70.17,78.03v18.19c0,.85.14,1.45.41,1.81.27.35.64.54,1.1.57.46.03.83-.12,1.1-.45.27-.33.41-.93.41-1.8v-18.54c.92-.07,1.84-.14,2.76-.2v18.61c0,1.98-.37,3.48-1.1,4.49-.74,1.01-1.82,1.44-3.26,1.33-1.44-.11-2.52-.71-3.26-1.77-.74-1.06-1.1-2.52-1.1-4.39,0-5.87,0-11.73,0-17.6.97-.08,1.95-.15,2.92-.23Z"/>
        <path d="M80.56,84.19v18.18c-.88-.06-1.75-.12-2.63-.18v-24.73c1.22-.09,2.45-.17,3.67-.26,1,4.97,2,10.02,3,15.15,0-5.12,0-10.23,0-15.35.87-.06,1.74-.11,2.61-.17v25.97c-1-.06-2-.13-3-.19-1.21-6.26-2.43-12.4-3.64-18.42Z"/>
        <path d="M92.23,87.73c1.34-.01,2.68-.02,4.02-.04,0,1.29,0,2.58,0,3.86-1.34,0-2.68-.02-4.02-.03,0,2.6,0,5.19,0,7.79,1.68.07,3.37.14,5.05.2v3.88c-2.66-.15-5.32-.3-7.98-.46,0-8.75,0-17.49,0-26.24,2.66-.16,5.32-.32,7.98-.46v3.88c-1.68.07-3.37.13-5.05.21,0,2.47,0,4.94,0,7.41Z"/>
        <path d="M98.72,82.72c0-2.21.36-3.92,1.08-5.14.72-1.22,1.8-1.88,3.23-1.95,1.44-.07,2.51.48,3.23,1.66.72,1.19,1.08,2.93,1.08,5.21v.89c-.92.02-1.84.04-2.77.06v-1.16c0-1.01-.13-1.72-.39-2.12-.26-.4-.62-.59-1.08-.58-.46.02-.82.24-1.08.65-.26.42-.39,1.13-.39,2.12,0,.95.14,1.78.43,2.5.28.72.64,1.4,1.06,2.04.43.64.88,1.29,1.37,1.94.49.65.94,1.36,1.37,2.14.43.78.78,1.66,1.06,2.66.28,1,.43,2.17.43,3.51,0,2.28-.37,4.02-1.1,5.21-.74,1.19-1.82,1.74-3.26,1.66-1.44-.07-2.52-.73-3.26-1.95-.74-1.22-1.1-2.93-1.1-5.14v-1.68c.92.02,1.84.04,2.77.06v1.97c0,1,.14,1.7.41,2.1.27.4.64.62,1.1.63.46.02.83-.17,1.1-.56.27-.39.41-1.09.41-2.1,0-.96-.14-1.8-.43-2.54-.28-.73-.64-1.43-1.06-2.08-.43-.65-.88-1.3-1.37-1.95-.49-.65-.94-1.35-1.37-2.11-.43-.76-.78-1.61-1.06-2.57-.28-.96-.43-2.09-.43-3.39Z"/>
        <path d="M108.68,82.46c0-2.29.36-4.06,1.08-5.32.72-1.26,1.8-1.93,3.23-1.99,1.44-.06,2.52.52,3.23,1.75.72,1.23,1.08,3.02,1.08,5.37,0,.3,0,.61,0,.91-.92.02-1.85.03-2.77.05v-1.19c0-1.04-.13-1.77-.39-2.19-.26-.42-.62-.62-1.08-.6-.46.01-.82.24-1.08.67-.26.43-.39,1.16-.39,2.19,0,.98.14,1.84.43,2.58.28.75.64,1.45,1.06,2.12.43.67.88,1.33,1.37,2,.49.67.95,1.41,1.37,2.21.43.8.78,1.71,1.06,2.74.28,1.02.43,2.23.43,3.61,0,2.35-.37,4.15-1.1,5.37-.74,1.23-1.82,1.81-3.26,1.75-1.44-.06-2.52-.73-3.26-1.99-.74-1.26-1.1-3.03-1.1-5.32v-1.74c.92.02,1.85.03,2.77.05v2.04c0,1.03.14,1.76.41,2.17.27.42.64.63,1.1.65.46.01.83-.18,1.1-.58.27-.4.41-1.13.41-2.17,0-.99-.14-1.86-.43-2.62-.28-.76-.64-1.47-1.06-2.15-.43-.67-.88-1.34-1.37-2.01-.49-.67-.94-1.39-1.37-2.18-.43-.78-.78-1.67-1.06-2.67-.28-1-.43-2.16-.43-3.51Z"/>
        <path d="M121.93,87.51c1.34,0,2.68-.01,4.02-.02v4.23c-1.34,0-2.68-.01-4.02-.02v8.6c1.69.04,3.37.08,5.06.12v4.24c-2.66-.08-5.32-.17-7.99-.26v-29.15c2.66-.1,5.32-.19,7.99-.27v4.24c-1.69.04-3.37.07-5.06.12v8.18Z"/>
        <path d="M132.55,82.02c0-2.43.36-4.3,1.08-5.61.72-1.32,1.8-2,3.24-2.03,1.44-.03,2.52.6,3.24,1.9.72,1.3,1.08,3.18,1.08,5.64v.95c-.92,0-1.85.02-2.77.02v-1.25c0-1.09-.13-1.86-.39-2.31-.26-.44-.62-.66-1.08-.65-.46,0-.82.24-1.08.68-.26.45-.39,1.22-.39,2.31,0,1.03.14,1.94.43,2.73.28.79.64,1.53,1.07,2.23.43.7.88,1.41,1.37,2.11.49.71.95,1.48,1.37,2.31.43.84.78,1.79,1.06,2.86.28,1.07.43,2.33.43,3.77,0,2.46-.37,4.34-1.11,5.64-.74,1.3-1.82,1.93-3.26,1.9-1.44-.03-2.53-.71-3.26-2.03-.74-1.32-1.11-3.19-1.11-5.61v-1.84c.92,0,1.85.02,2.77.03v2.15c0,1.09.14,1.85.41,2.29.27.44.64.66,1.11.66.46,0,.83-.2,1.11-.63.27-.43.41-1.19.41-2.28,0-1.04-.14-1.95-.43-2.75-.28-.79-.64-1.54-1.06-2.25-.43-.71-.88-1.41-1.37-2.11-.49-.7-.95-1.47-1.37-2.3-.43-.83-.78-1.77-1.07-2.83-.28-1.06-.43-2.3-.43-3.72Z"/>
        <path d="M147.2,74.54c1.47-.02,2.57.61,3.29,1.89.72,1.28,1.08,3.16,1.08,5.64v3.98c0,2.48-.36,4.36-1.08,5.65-.72,1.28-1.82,1.92-3.29,1.92-.46,0-.92,0-1.38,0,0,3.82,0,7.64,0,11.46-.98-.01-1.95-.03-2.93-.04v-30.42c1.44-.02,2.88-.05,4.31-.06ZM145.81,78.92c0,3.44,0,6.89,0,10.33.46,0,.92,0,1.38,0,.46,0,.82-.2,1.07-.61.25-.41.37-1.17.37-2.27v-4.59c0-1.11-.12-1.86-.37-2.27-.25-.41-.6-.61-1.07-.6-.46,0-.92,0-1.38.01Z"/>
        <path d="M152.82,81.84c0-2.48.38-4.39,1.15-5.72.76-1.33,1.86-2.01,3.3-2.01,1.44,0,2.54.66,3.3,1.99.76,1.33,1.15,3.24,1.15,5.73v15.99c0,2.49-.38,4.4-1.15,5.73-.76,1.33-1.86,1.99-3.3,1.99-1.44,0-2.54-.68-3.3-2.01-.76-1.33-1.15-3.24-1.15-5.72v-15.95ZM155.75,98.11c0,1.11.14,1.89.41,2.35.28.45.64.68,1.11.68.46,0,.83-.22,1.11-.68.28-.45.41-1.24.41-2.35v-16.6c0-1.11-.14-1.89-.41-2.35-.28-.45-.64-.68-1.11-.68-.46,0-.83.23-1.11.68-.28.45-.41,1.24-.41,2.35,0,5.53,0,11.05,0,16.58Z"/>
        <path d="M169.73,105.17c-.04-.2-.07-.39-.11-.57-.04-.18-.07-.4-.09-.66-.03-.26-.04-.6-.05-1.01,0-.41-.01-.92-.01-1.54v-4.83c0-1.43-.15-2.44-.45-3.03-.3-.58-.79-.88-1.46-.88-.34,0-.67,0-1.01,0v12.51c-.98,0-1.95,0-2.93,0v-30.75c1.47,0,2.95,0,4.42.01,1.53,0,2.63.6,3.32,1.77.68,1.17,1.02,2.94,1.02,5.31v2.41c0,3.15-.64,5.23-1.92,6.22.75.5,1.26,1.31,1.53,2.43.28,1.13.41,2.49.41,4.1v4.73c0,.76.02,1.42.05,1.99.04.57.12,1.15.27,1.73-.99,0-1.99.02-2.98.02ZM166.53,78.84v9.44c.38,0,.76,0,1.15,0,.55,0,.98-.23,1.29-.7.31-.47.47-1.32.47-2.54v-3.03c0-1.11-.12-1.92-.36-2.41-.24-.5-.62-.75-1.13-.75-.47,0-.94,0-1.41,0Z"/>
        <path d="M173.46,74.49c3.02.03,6.04.07,9.05.12v4.35c-1.02-.01-2.04-.02-3.06-.03,0,8.72,0,17.44,0,26.15-.98.01-1.95.03-2.93.04v-26.22c-1.02,0-2.04-.02-3.06-.02v-4.38Z"/>
        <path d="M183.79,74.63c.98.02,1.95.04,2.93.06v30.27c-.98.02-1.95.04-2.93.06v-30.38Z"/>
        <path d="M193.27,99.28c.75-8.16,1.49-16.29,2.24-24.39.9.02,1.79.05,2.69.08-.96,9.87-1.92,19.8-2.88,29.78-1.46.04-2.91.08-4.37.11-.96-10-1.92-20.06-2.88-30.15.99.02,1.97.04,2.96.07.75,8.2,1.49,16.36,2.24,24.5Z"/>
        <path d="M202.48,87.5c1.34,0,2.68.01,4.02.02v4.16c-1.34,0-2.68.01-4.02.02,0,2.87,0,5.75,0,8.62,1.69-.04,3.37-.08,5.06-.13v4.15c-2.66.1-5.32.19-7.99.27,0-9.87,0-19.74,0-29.61,2.66.08,5.32.17,7.99.27v4.15c-1.69-.05-3.37-.09-5.06-.13,0,2.73,0,5.47,0,8.2Z"/>
        <path d="M213.1,82.37c0-2.32.36-4.09,1.08-5.3.72-1.21,1.8-1.78,3.23-1.71,1.44.07,2.51.73,3.23,1.97.72,1.24,1.08,2.98,1.08,5.24,0,.29,0,.58,0,.88-.92-.02-1.85-.04-2.77-.06v-1.16c0-1.02-.13-1.74-.39-2.16-.26-.42-.62-.64-1.08-.66-.46-.02-.82.18-1.08.59-.26.41-.39,1.13-.39,2.16,0,.97.14,1.83.43,2.58.28.75.64,1.45,1.06,2.12.43.66.88,1.32,1.37,1.98.49.66.94,1.37,1.37,2.14.43.77.78,1.65,1.06,2.62.28.98.43,2.13.43,3.45,0,2.25-.37,4-1.1,5.24-.74,1.24-1.82,1.91-3.26,1.97-1.44.07-2.52-.5-3.26-1.71-.74-1.21-1.1-2.98-1.1-5.3v-1.76c.92-.02,1.85-.03,2.77-.05,0,.68,0,1.35,0,2.03,0,1.03.14,1.74.41,2.14.28.4.64.59,1.1.57.46-.02.83-.23,1.1-.64.28-.41.41-1.12.41-2.14,0-.96-.14-1.81-.43-2.54-.28-.73-.64-1.43-1.07-2.08-.43-.66-.88-1.31-1.37-1.97-.49-.66-.94-1.39-1.37-2.17-.43-.79-.78-1.69-1.06-2.7-.28-1.01-.43-2.2-.43-3.56Z"/>
        <path d="M232.9,103.14c-.98.06-1.97.11-2.95.17-.17-1.62-.34-3.25-.51-4.88-1.2.04-2.39.08-3.59.12-.17,1.66-.34,3.33-.51,5-.9.05-1.79.09-2.69.14.99-9.3,1.99-18.5,2.98-27.59,1.43.08,2.86.15,4.28.23.99,9.05,1.99,17.98,2.98,26.8ZM226.22,94.82c.94-.02,1.88-.04,2.82-.06-.47-4.55-.94-9.13-1.41-13.74-.47,4.57-.94,9.17-1.41,13.8Z"/>
        <path d="M234.02,82.93c0-2.15.38-3.78,1.14-4.88.76-1.1,1.86-1.6,3.3-1.5,1.44.09,2.54.73,3.3,1.88.76,1.15,1.14,2.75,1.14,4.8v13.2c0,2.05-.38,3.65-1.14,4.8-.76,1.15-1.86,1.78-3.3,1.88-1.44.09-2.54-.4-3.3-1.5-.76-1.1-1.14-2.73-1.14-4.88v-13.78ZM236.94,96.88c0,.95.14,1.61.41,1.98.27.37.64.55,1.1.53.46-.02.83-.23,1.1-.62.27-.39.41-1.05.41-1.99v-13.91c0-.93-.14-1.59-.41-1.99-.28-.39-.64-.6-1.1-.62-.46-.02-.83.15-1.1.53-.27.37-.41,1.03-.41,1.98,0,4.71,0,9.41,0,14.12Z"/>
        <path d="M247.58,77.46v19.08c0,.89.14,1.51.41,1.85.27.34.64.5,1.1.47.46-.02.83-.22,1.1-.58.27-.36.41-.98.41-1.86v-18.74c.92.07,1.84.14,2.76.21v18.18c0,1.93-.37,3.43-1.1,4.53-.74,1.09-1.82,1.7-3.26,1.81-1.44.11-2.52-.35-3.26-1.39-.74-1.04-1.1-2.58-1.1-4.62v-19.14c.97.07,1.95.14,2.92.2Z"/>
        <path d="M261.47,101.12c-.04-.15-.07-.28-.11-.41-.04-.13-.07-.29-.09-.48-.03-.19-.04-.44-.05-.74,0-.3-.01-.68-.01-1.13v-3.56c0-1.06-.15-1.8-.45-2.22-.3-.43-.79-.64-1.46-.63-.34,0-.67.01-1.01.01v9.41c-.97.08-1.95.15-2.92.23v-23.57c1.47.11,2.94.23,4.41.35,1.52.12,2.63.65,3.31,1.55.68.9,1.02,2.2,1.02,3.91v1.74c0,2.28-.64,3.76-1.91,4.5.74.36,1.25.95,1.53,1.76.28.81.41,1.79.41,2.95,0,1.14,0,2.28,0,3.42,0,.55.02,1.03.05,1.44.04.41.12.82.27,1.23-.99.08-1.98.17-2.97.25ZM258.29,81.57v7.1c.38,0,.76,0,1.14,0,.55,0,.98-.17,1.29-.51.31-.34.47-.97.47-1.87v-2.23c0-.82-.12-1.42-.36-1.8-.24-.38-.62-.59-1.13-.62-.47-.03-.94-.05-1.41-.08Z"/>
        <path d="M275.5,99.88c-.98.09-1.96.18-2.95.27-.17-1.23-.34-2.47-.5-3.72-1.19.07-2.39.14-3.58.21-.17,1.3-.34,2.61-.5,3.93-.89.08-1.79.16-2.68.23.99-7.4,1.98-14.64,2.97-21.69,1.43.13,2.85.26,4.28.39.99,6.98,1.98,13.78,2.97,20.38ZM268.83,93.72c.94-.03,1.88-.06,2.81-.09-.47-3.49-.94-7.03-1.41-10.61-.47,3.53-.94,7.09-1.41,10.7Z"/>
      </g>
      <g>
        <path d="M148.36,345.04c.18.02.37.03.56.03h.56c.52,0,.96-.12,1.32-.35.37-.23.55-.72.55-1.46v-14.42h3.27v14.2c0,.95-.13,1.74-.39,2.35-.26.61-.6,1.09-1.04,1.44-.44.35-.94.6-1.5.74-.56.14-1.15.22-1.77.22h-.8c-.24,0-.5-.02-.77-.05v-2.7Z"/>
        <path d="M156.44,333.38c0-1.53.4-2.7,1.2-3.52.8-.82,2.01-1.23,3.61-1.23s2.81.41,3.61,1.23c.8.82,1.2,1.99,1.2,3.52v.59h-3.09v-.78c0-.68-.14-1.17-.43-1.44-.29-.28-.69-.42-1.2-.42s-.92.14-1.2.42c-.29.28-.43.76-.43,1.44,0,.65.16,1.22.48,1.71.32.5.71.96,1.19,1.4.48.44.98.88,1.53,1.32.54.44,1.05.92,1.53,1.44.48.52.87,1.12,1.19,1.78s.48,1.45.48,2.35c0,1.53-.41,2.71-1.23,3.52-.82.82-2.04,1.23-3.64,1.23s-2.82-.41-3.64-1.23c-.82-.82-1.23-1.99-1.23-3.52v-1.16h3.09v1.35c0,.68.15,1.16.46,1.43s.72.41,1.23.41.93-.14,1.23-.41c.31-.27.46-.75.46-1.43,0-.65-.16-1.22-.48-1.71-.32-.5-.71-.96-1.19-1.4-.48-.44-.99-.88-1.53-1.32-.55-.44-1.05-.92-1.53-1.45-.48-.52-.87-1.12-1.19-1.78-.32-.67-.48-1.45-.48-2.35Z"/>
        <path d="M167.55,333.38c0-1.53.4-2.7,1.2-3.52.8-.82,2-1.23,3.61-1.23s2.81.41,3.61,1.23c.8.82,1.2,1.99,1.2,3.52v.59h-3.09v-.78c0-.68-.14-1.17-.43-1.44-.29-.28-.69-.42-1.2-.42s-.92.14-1.2.42c-.29.28-.43.76-.43,1.44,0,.65.16,1.22.48,1.71.32.5.71.96,1.19,1.4.48.44.99.88,1.53,1.32.55.44,1.05.92,1.53,1.44.48.52.87,1.12,1.19,1.78.32.67.48,1.45.48,2.35,0,1.53-.41,2.71-1.23,3.52-.82.82-2.03,1.23-3.64,1.23s-2.82-.41-3.64-1.23c-.82-.82-1.23-1.99-1.23-3.52v-1.16h3.09v1.35c0,.68.15,1.16.46,1.43.31.27.72.41,1.23.41s.93-.14,1.23-.41c.31-.27.46-.75.46-1.43,0-.65-.16-1.22-.48-1.71-.32-.5-.71-.96-1.19-1.4-.48-.44-.98-.88-1.53-1.32-.55-.44-1.05-.92-1.53-1.45-.48-.52-.87-1.12-1.19-1.78-.32-.67-.48-1.45-.48-2.35Z"/>
      </g>
      <g>
        <path d="M152.48,352.86c0-.55-.1-.92-.3-1.11s-.46-.29-.79-.29-.59.09-.79.27-.29.49-.29.94v1.31h-1.98v-1.19c0-.99.26-1.76.79-2.29.53-.53,1.3-.8,2.33-.8s1.8.27,2.33.8.79,1.29.79,2.29c0,.64-.1,1.22-.3,1.74-.2.52-.46.99-.77,1.42-.31.43-.65.82-1.01,1.18-.36.36-.7.71-1.01,1.03-.31.33-.57.65-.77.96-.2.31-.3.63-.3.97,0,.12,0,.21.02.26h3.96v1.75h-6.05v-1.51c0-.6.1-1.12.3-1.58.2-.46.46-.87.77-1.25.31-.38.64-.74,1-1.07.35-.33.69-.69,1-1.06.31-.37.57-.78.77-1.23.2-.44.3-.96.3-1.56Z"/>
        <path d="M155.69,352.79c0-.99.27-1.76.82-2.29.55-.53,1.33-.8,2.36-.8s1.81.27,2.36.8c.55.53.82,1.29.82,2.29v6.38c0,.99-.27,1.76-.82,2.29-.55.53-1.33.8-2.36.8s-1.81-.27-2.36-.8c-.55-.53-.82-1.29-.82-2.29v-6.38ZM157.79,359.29c0,.44.1.76.29.94.2.18.46.27.79.27s.59-.09.79-.27c.2-.18.29-.49.29-.94v-6.62c0-.44-.1-.76-.29-.94-.2-.18-.46-.27-.79-.27s-.59.09-.79.27-.29.49-.29.94v6.62Z"/>
        <path d="M163.23,352.79c0-.99.27-1.76.82-2.29.55-.53,1.33-.8,2.36-.8s1.81.27,2.36.8.82,1.29.82,2.29v6.38c0,.99-.27,1.76-.82,2.29s-1.33.8-2.36.8-1.81-.27-2.36-.8c-.55-.53-.82-1.29-.82-2.29v-6.38ZM165.32,359.29c0,.44.1.76.29.94.2.18.46.27.79.27s.59-.09.79-.27c.2-.18.29-.49.29-.94v-6.62c0-.44-.1-.76-.29-.94-.2-.18-.46-.27-.79-.27s-.59.09-.79.27c-.2.18-.29.49-.29.94v6.62Z"/>
        <path d="M177.21,359.17c0,.99-.28,1.76-.84,2.29s-1.37.8-2.44.8-1.88-.27-2.44-.8-.84-1.29-.84-2.29v-.96c0-.6.1-1.11.3-1.55.2-.44.53-.77.99-1.01-.86-.43-1.29-1.26-1.29-2.47v-.38c0-.99.28-1.76.84-2.29s1.37-.8,2.44-.8,1.88.27,2.44.8.84,1.29.84,2.29v.38c0,1.2-.43,2.03-1.29,2.47.46.23.79.57.99,1.01.2.44.3.96.3,1.55v.96ZM172.76,353.54c0,.49.11.83.33,1.02s.5.28.85.28.61-.09.84-.28.34-.53.34-1.02v-.68c0-.55-.11-.92-.34-1.11s-.51-.29-.84-.29-.61.1-.84.29c-.23.19-.34.56-.34,1.11v.68ZM172.76,359.11c0,.55.11.92.34,1.1.23.19.51.28.84.28s.61-.09.83-.28.34-.56.35-1.1v-1.14c0-.49-.1-.84-.31-1.06-.21-.22-.5-.32-.87-.32s-.66.11-.87.32c-.21.22-.31.57-.31,1.06v1.14Z"/>
      </g>
      <path d="M56.95,59.77c70.19,9.99,141.44,9.99,211.63,0,.09.63.18,1.26.27,1.89-70.37,10.01-141.8,10.01-212.16,0,.09-.63.18-1.26.27-1.89Z"/>
      <path d="M177.8,46.76v-12.75h-2.79v6.32c0,7.44,0,7.29-2.64,7.29-3.1,0-2.63.3-2.72-10.45l-.08-9.45h-2.79v17.63c0,3.12,1.27,6.42,3.57,6.42h4.09c2.7,0,3.37-4.03,3.37-5.01Z"/>
      <path d="M123.53,37.38c0,10.18.06,9.94-2.22,10l-1.45.04-6.94-.04v-12.71h-2.96v12.7h-2.15v-12.43h-2.96v12.4h-1.82v-12.14h-2.96v12.11h-.22s-2.14,0-2.14,0c-3.74,0-3.3.76-3.3-8.86v-8.22h-2.96l.08,9.04c.13,12.89-1.65,11.65,17.33,12.13,0,0,8.58.3,11.22.37,6.34.17,6.34-3.56,6.34-6.19v-17.06l-2.89-.02v8.89Z"/>
      <path d="M189.41,28.22s-.04,4.24-.07,9.3c-.08,10.43.05,9.94-2.47,9.92h-1.42s-.15-6.63-.15-6.63l-.15-6.62h-2.65v8.38c0,9.6-.12,9.22-1.97,11.29-.56.62-1.03,1.17-1.03,1.17l1.27,3.43c2.14-1.15,4.17-4.13,4.27-6.77h2.31c3.8,0,4.86-.52,4.86-13.53v-9.85l-1.4-.09c-.77-.05-1.4-.05-1.4,0Z"/>
      <path d="M197.07,28.41c0-.21-2.31-.19-2.52.02-.07.07-.13,5.34-.13,11.71v11.58l1.34-.09,1.34-.09v-11.47c-.02-6.31-.03-11.56-.03-11.66Z"/>
      <path d="M260.24,40.2c0,9.18.27,10.16-8.91,10.16-3.24.1-9.33.3-13.53.45-4.21.15-12.65.36-18.75.47l-11.11.21v-5.01c0-4.7,0-3.4,0-4.25,0-3.27-5.03-6.16-5.03,1.99,0,2.96-.03,3.06,1.69,3.06h.99v4.21h-1.48c-2.99,0-4.21-1.94-4.21-7.6,0-11.72,11.01-11.72,11.01-.45v3.86h4.98v-12.41l1.39.09,1.4.09.15,6.03.14,6.03h5l.08-5.99.08-5.63,2.93.04v11.43h5v-11.18h2.94v11.18h5.59v-10.29h2.8v10.29h2.06v-10.29h2.94v10.29h2.02v-10.03h2.94v10.03h1.75c2.32,0,2.25.21,2.25-7.59v-6.53h2.92s-.03.37-.03,7.34Z"/>
      <path d="M264.61,33.33l-2.26-.27v17l2.79-.08s-.08-13.31-.09-16.11c0-.26-.19-.48-.45-.54Z"/>
      <path d="M164.43,43.74c-.03-7.73-1.78-10.55-6-9.64-.63.13-1.51.5-1.96.82-1.14.81-1.76.76-1.76-.14,0-.69-.1-.74-1.47-.74h-1.47v13.24h-3.81l-.08-6.55-.08-6.54h-2.65l-.08,6.55-.08,6.56-2.42-.09-2.42-.08-.17-3.83c-.52-11.54-10.26-12.05-11.07-.58-.41,5.83,1.21,8.97,4.62,8.97h1.2l-.08-2.14-.09-2.13-1.12-.09c-1.99-.16-2.2-5.84-.28-7.76,2.41-2.41,3.7-.15,3.9,6.82l.15,5.15,11.81.25c13.75.29,13.37.35,14.67-2.31.71-1.45.76-1.81.74-5.74ZM160.91,47.24c-.59.29-4.83.43-5.61.18-.68-.21-.87-4.07-.28-5.64.97-2.55,4.39-4.21,5.7-2.76,1.08,1.19,1.23,7.71.19,8.22Z"/>
      <path d="M89.07,45.54c-.11-5.69-.63-7.54-2.48-8.75-1.17-.77-3.57-.82-4.88-.11-2.36,1.28-3.17,3.28-3.18,7.8,0,4.71.96,5.95,4.8,6.24,3.67.28,2.6,1.56-1.3,1.56h-2.06l.18,3.38,2.21.09c5.69.24,6.87-1.56,6.71-10.21ZM86.35,44.17v2.33c0,.44-.36.8-.8.8h-3.13c-.58,0-1.04-.47-1.04-1.04v-4.09c0-1.37,1.11-2.48,2.48-2.48,1.76,0,2.74,1.4,2.49,4.48Z"/>
      <path d="M76.18,36.54h-3.07v10.76c0,.33.02,1.24-.02,2.07-.05.88-.54,1.67-1.3,2.1l-1.47.84,1.14,3.22c5.74-2,4.72-8.23,4.72-12.21v-6.77Z"/>
      <path d="M67.33,38.9c-.97-.98-2.31-1.58-3.8-1.58-2.97,0-5.38,2.41-5.38,5.38v3.64c0,2.17,1.76,3.92,3.93,3.92h2.9c2.16,0,3.92-1.75,3.92-3.92v-3.64c0-1.48-.6-2.83-1.57-3.8ZM65.97,45.64c0,.74-.6,1.34-1.34,1.34h-2.21c-.74,0-1.34-.6-1.34-1.34v-1.82c0-1.35.7-3.45,2.45-3.45.8,0,1.41.53,1.82,1.22.41.69.62,1.55.62,2.23v1.82Z"/>
      <rect x="116.71" y="28.8" width="2.96" height="19.67"/>
      <ellipse cx="61.79" cy="34.69" rx="1.41" ry="1.52"/>
      <ellipse cx="65.55" cy="34.31" rx="1.41" ry="1.52"/>
      <ellipse cx="132.45" cy="30.32" rx="1.47" ry="2.2"/>
      <ellipse cx="136.47" cy="30.32" rx="1.47" ry="2.2"/>
      <ellipse cx="142.65" cy="55.78" rx="1.47" ry="2.2"/>
      <ellipse cx="146.65" cy="55.78" rx="1.47" ry="2.2"/>
      <ellipse cx="172.7" cy="56.01" rx="1.47" ry="2.2"/>
      <ellipse cx="176.7" cy="56.01" rx="1.47" ry="2.2"/>
      <ellipse cx="216.56" cy="55.14" rx="1.47" ry="2.06"/>
      <ellipse cx="221.71" cy="54.88" rx="1.47" ry="1.93"/>
      <ellipse cx="225.6" cy="54.62" rx="1.47" ry="1.8"/>
      <ellipse cx="232.79" cy="54.62" rx="1.47" ry="1.8"/>
      <ellipse cx="158.15" cy="29.91" rx="1.47" ry="2.2"/>
      <ellipse cx="203.5" cy="30.67" rx="1.47" ry="2.2"/>
      <ellipse cx="207.45" cy="30.67" rx="1.47" ry="2.2"/>
      <ellipse cx="245" cy="33.36" rx="1.53" ry="1.87"/>
      <ellipse cx="248.88" cy="33.5" rx="1.53" ry="1.87"/>
      <ellipse cx="246.93" cy="29.75" rx="1.53" ry="1.87"/>
    </g>
  </g>
</svg>