<?xml version="1.0" encoding="UTF-8"?>
<!DOCTYPE svg PUBLIC "-//W3C//DTD SVG 1.1//EN" "http://www.w3.org/Graphics/SVG/1.1/DTD/svg11.dtd">
<!-- Creator: CorelDRAW -->
<svg xmlns="http://www.w3.org/2000/svg" xml:space="preserve" width="378" height="265" style="shape-rendering:geometricPrecision; text-rendering:geometricPrecision; image-rendering:optimizeQuality; fill-rule:evenodd; clip-rule:evenodd"
viewBox="0 0 429 300.231"
 xmlns:xlink="http://www.w3.org/1999/xlink">
 <defs>
  <style type="text/css">
   <![CDATA[
    .fil0 {fill:#1F1A17}
    .fil1 {fill:#DA251D}
    .fil2 {fill:white}
    .fil3 {fill:white;fill-rule:nonzero}
   ]]>
  </style>
 </defs>
 <g id="Layer_x0020_1">
  <metadata id="CorelCorpID_0Corel-Layer"/>
  <g id="_186034216">
   <path id="_186034840" class="fil0" d="M229.304 17.0786c5.38968,-4.55415 15.8949,-9.55875 23.0743,-9.55875 12.2538,0 22.6294,8.06046 26.1134,19.1671 0.656673,4.0657 1.21555,7.89578 1.45066,11.9868 2.63379,-1.40911 5.49558,-2.56336 6.88797,-3.01532 4.50095,-1.4613 9.82425,-2.04197 13.8575,0.950048 1.66854,1.23836 3.33707,2.4762 5.00662,3.71456 -1.91023,0.818814 -3.82046,1.63712 -5.73069,2.45594 -3.14048,1.34577 -5.64556,3.65781 -7.45597,6.46792 16.0561,0 32.1121,0 48.1682,0 0.0537094,3.23928 0.107925,6.47857 0.162648,9.71835 0.00557361,0.339484 0.0106405,0.678967 0.0157075,1.01896 10.9258,-7.03289 22.0183,-13.8504 33.3327,-20.2206 7.36933,-4.1493 14.8714,-8.13494 22.5311,-11.7238 6.64628,-3.11464 13.6493,-6.07625 20.7191,-8.11467 3.85441,-1.08584 7.70831,-2.17168 11.5627,-3.25702 -2.48786,3.1425 -4.97572,6.28552 -7.46307,9.42802 -4.59519,5.73271 -10.0239,11.056 -15.4561,15.9922 -6.26018,5.68813 -12.8259,11.0783 -19.4914,16.2836 -15.0092,11.7198 -30.6473,22.5574 -46.4627,33.1225 -1.34527,21.3662 -4.52273,42.6913 -10.224,63.3416 -4.77051,17.2787 -11.3595,34.1967 -20.1983,49.822 13.0544,8.52053 26.1093,17.0411 39.1643,25.5621 0.405354,1.67816 0.810707,3.35684 1.21657,5.035 3.80982,-5.80314 7.88362,-13.1056 6.81906,-17.7373 -0.712409,-3.09994 -3.59295,-5.15509 -6.24498,-6.55254 -3.69125,-1.9457 -7.382,-3.89089 -11.0722,-5.83608 4.16096,-0.303002 8.32191,-0.605497 12.4829,-0.907486 9.32516,-0.677954 19.9946,1.53072 24.19,10.9369 3.04319,6.82109 1.20339,14.7356 -2.60896,20.8448 -0.00962715,0.0146941 -0.0192543,0.0304015 -0.0288815,0.0456023 -2.14736,3.22155 -4.29422,6.4431 -6.44107,9.66515 11.8586,7.89984 23.7178,15.7997 35.5764,23.7 0.871004,2.38855 1.7415,4.77811 2.61301,7.16716 3.52202,0.2726 7.04403,0.544694 10.5661,0.816788 2.71992,7.30853 5.44035,14.6181 8.16129,21.9261 -7.79242,0.301482 -15.5864,0.603977 -23.3783,0.906472 -1.60672,-3.14656 -3.21344,-6.29261 -4.82016,-9.43815 -2.54055,0.115526 -5.08111,0.231052 -7.62166,0.347084 -11.8556,-7.90541 -23.7112,-15.8113 -35.5657,-23.7162 -2.26795,3.40244 -4.53591,6.80538 -6.80386,10.2078 -0.0101338,0.0141874 -0.0202677,0.0288815 -0.0304015,0.0435755 -4.1868,5.89232 -10.7404,10.6147 -18.2358,10.4313 -10.2965,-0.252839 -16.4411,-9.25068 -19.4038,-18.1183 -1.32247,-3.95727 -2.64443,-7.91453 -3.96639,-11.8708 3.21547,2.6576 6.43144,5.31571 9.64742,7.97331 2.31052,1.91023 5.31571,3.7779 8.45112,3.24232 3.3239,-0.567495 6.40763,-3.70189 8.49672,-6.15074 1.9837,-2.3247 3.82198,-4.89009 5.57716,-7.50664 -1.69387,0.26956 -3.38724,0.53912 -5.0806,0.808681 -13.0154,-8.85647 -26.0308,-17.7134 -39.0462,-26.5694 -8.53675,10.1901 -18.4993,19.3673 -29.7905,26.3885 -10.451,6.49883 -23.3859,11.8657 -35.85,11.8657 -12.4641,0 -25.399,-5.36688 -35.8505,-11.8657 -14.954,-9.29881 -27.6411,-22.4237 -37.7602,-36.7534 -0.124646,-0.176329 -0.248786,-0.353164 -0.372925,-0.53 -18.3524,12.4879 -36.7043,24.9759 -55.0567,37.4643 -1.69337,-0.26956 -3.38673,-0.53912 -5.0806,-0.808681 1.75518,2.61656 3.59295,5.18194 5.57665,7.50664 2.08909,2.44884 5.17333,5.58324 8.49672,6.15074 3.13592,0.535574 6.14111,-1.33209 8.45162,-3.24232 3.21597,-2.6576 6.43144,-5.31571 9.64691,-7.97331 -1.32196,3.95625 -2.64341,7.91352 -3.96588,11.8708 -2.96263,8.86762 -9.10728,17.8655 -19.4038,18.1183 -7.4955,0.183423 -14.0491,-4.53895 -18.2358,-10.4313 -0.0101338,-0.0146941 -0.0202677,-0.0293881 -0.0304015,-0.0435755 -2.26795,-3.40244 -4.53591,-6.80538 -6.80386,-10.2078 -11.8546,7.9049 -23.7102,15.8108 -35.5657,23.7162 -2.54055,-0.116032 -5.08111,-0.231558 -7.62166,-0.347084 -1.60672,3.14554 -3.21344,6.2916 -4.82016,9.43815 -7.79191,-0.302495 -15.5858,-0.60499 -23.3783,-0.906472 2.72094,-7.30802 5.44137,-14.6176 8.16129,-21.9261 3.52202,-0.272094 7.04403,-0.544187 10.5661,-0.816788 0.87151,-2.38905 1.74201,-4.77861 2.61301,-7.16716 11.8586,-7.90034 23.7178,-15.8002 35.5764,-23.7 -2.14685,-3.22206 -4.29371,-6.4436 -6.44107,-9.66515 -0.00962715,-0.0152008 -0.0192543,-0.0309082 -0.0288815,-0.0456023 -3.81235,-6.10919 -5.65215,-14.0237 -2.60896,-20.8448 4.19541,-9.40623 14.8648,-11.6149 24.19,-10.9369 4.16096,0.301989 8.32191,0.604484 12.4829,0.907486 -3.69024,1.94519 -7.38098,3.89038 -11.0722,5.83608 -2.65203,1.39746 -5.53257,3.4526 -6.24498,6.55254 -1.06456,4.63167 3.00924,11.9341 6.81906,17.7373 0.40586,-1.67816 0.811214,-3.35684 1.21657,-5.035 19.115,-12.4758 38.2294,-24.9521 57.3439,-37.4278 -5.82189,-12.1819 -10.4333,-24.95 -14.0247,-37.9558 -4.13461,-14.9753 -6.93966,-30.3053 -8.68318,-45.7381 -8.22311,-5.59591 -16.4457,-11.1913 -24.6688,-16.7867 -16.242,-10.8295 -32.295,-21.9205 -47.6878,-33.9398 -6.66553,-5.20525 -13.2313,-10.5954 -19.4914,-16.2836 -5.43225,-4.93619 -10.8609,-10.2595 -15.4632,-16.0008 -2.48532,-3.13997 -4.97065,-6.27994 -7.45597,-9.41941 3.85795,1.08635 7.7154,2.1732 11.5734,3.26006 7.05923,2.03538 14.0622,4.997 20.7085,8.11163 7.65966,3.5889 15.1612,7.57454 22.5306,11.7238 17.0178,9.58104 33.4321,20.1299 49.6649,30.9437 2.69611,1.75974 5.39171,3.51898 8.08681,5.27872 -0.131233,-5.67292 -0.143901,-11.3479 -0.0491491,-17.0208 0.0542161,-3.23979 0.108939,-6.47907 0.162648,-9.71835 12.9272,0 25.854,0 38.7807,0 -1.81041,-2.80961 -4.3155,-5.12215 -7.45597,-6.46792 -1.91023,-0.818814 -3.82046,-1.63712 -5.73018,-2.45594 1.66904,-1.23836 3.33758,-2.4762 5.00662,-3.71456 0.542161,-0.402314 1.12283,-0.748891 1.73289,-1.0372 3.7936,-1.79217 8.27074,-1.16387 12.1241,0.087151 1.3929,0.451969 4.25469,1.60621 6.88848,3.01532 0.0825908,-1.43799 0.0967782,-2.85926 0.0967782,-3.61221 0,-13.7841 10.1982,-27.5418 27.4668,-27.5418 8.19777,0 16.4888,3.99425 23.0748,9.55875 1.98927,-4.29574 3.30262,-8.14761 3.74901,-13.7785 0.087151,-1.09952 0.174302,-2.19955 0.261453,-3.30009 2.20664,0 4.41329,0 6.62044,0 0.087151,1.10054 0.174302,2.20056 0.261453,3.30009 0.446396,5.63087 1.75924,9.48274 3.74901,13.7785zm-37.7161 2.05768c8.69484,0 15.746,7.05113 15.746,15.746 0,8.69484 -7.05113,15.746 -15.746,15.746 -8.69433,0 -15.7455,-7.05113 -15.7455,-15.746 0,-8.69484 7.05113,-15.746 15.7455,-15.746zm60.7904 0c8.69484,0 15.746,7.05113 15.746,15.746 0,8.69484 -7.05113,15.746 -15.746,15.746 -8.69484,0 -15.746,-7.05113 -15.746,-15.746 0,-8.69484 7.05113,-15.746 15.746,-15.746zm0 3.25448c6.89861,0 12.4915,5.59337 12.4915,12.4915 0,6.89861 -5.59287,12.4915 -12.4915,12.4915 -6.89861,0 -12.4915,-5.59287 -12.4915,-12.4915 0,-6.89811 5.59287,-12.4915 12.4915,-12.4915zm-60.7904 0c6.89861,0 12.4915,5.59337 12.4915,12.4915 0,6.89861 -5.59287,12.4915 -12.4915,12.4915 -6.89811,0 -12.491,-5.59287 -12.491,-12.4915 0,-6.89811 5.59287,-12.4915 12.491,-12.4915zm60.7904 -11.2881c13.1309,0 23.7796,10.6486 23.7796,23.7796 -0.00152008,0.104379 -0.00304015,0.20825 -0.00456023,0.312629 0.0364818,-0.0445889 0.072457,-0.0891778 0.108939,-0.13326 0,8.16737 1.26622,10.0214 1.53173,9.3586 0.265507,-0.662753 14.1195,-9.86023 20.7587,-4.93467 -6.55102,2.80758 -9.72444,8.43034 -11.0677,11.6696 -0.163662,0.394206 -0.397247,0.99869 -0.650593,1.67512 16.7725,0 33.545,0 50.3181,0 0.0344551,2.06477 0.0689101,4.12954 0.103365,6.19482 0.0420554,2.50407 0.0628298,5.0122 0.0613097,7.52286 20.7977,-13.5793 57.2785,-36.308 81.0971,-43.1757 0.304522,-0.0861377 0.609044,-0.171769 0.913566,-0.256893 -0.197103,0.247772 -0.393193,0.496052 -0.589283,0.744331 -18.7876,23.434 -66.2196,55.0658 -81.8318,65.4763 -0.0830975,0.0562428 -0.166195,0.112486 -0.249293,0.169742 -1.26622,21.7569 -4.43508,43.4651 -10.2083,64.3762 -4.98028,18.0377 -11.998,35.7527 -21.5451,51.9218 13.6052,8.87978 27.2104,17.7596 40.8156,26.6398 0.913059,3.77891 1.82663,7.55833 2.73968,11.3372 0.0349618,0.00709369 0.0699235,0.0146941 0.104885,0.0222945 10.4667,-15.2271 19.1611,-27.8934 3.76574,-36.0076 21.5071,-1.56365 26.1691,13.6721 18.2815,26.311 -2.79998,4.20098 -5.59996,8.40146 -8.39944,12.6024 12.5269,8.34522 25.0544,16.6904 37.5819,25.0357 0.999704,2.74424 1.99991,5.48798 3.00012,8.23223 3.52759,0.272094 7.05518,0.544694 10.5833,0.817294 1.84183,4.94785 3.68314,9.8962 5.52446,14.8446l0.110966 0.296922 -0.317189 0.0126673c-5.27618,0.204197 -10.5514,0.408901 -15.8265,0.613097 -1.60925,-3.15112 -3.21851,-6.30224 -4.82776,-9.45335 -2.91804,0.132753 -5.83557,0.265507 -8.75311,0.398767 -12.5234,-8.35079 -25.0468,-16.7016 -37.5702,-25.0524 -2.92057,4.38137 -5.84064,8.76324 -8.76121,13.1451 -8.62947,12.1449 -24.4869,13.7055 -31.3202,-6.74711 13.5723,11.2187 21.9555,-2.12051 32.141,-17.8852 -0.0182409,-0.026348 -0.0364818,-0.0532027 -0.0547227,-0.079044 -3.83971,0.611071 -7.67943,1.22265 -11.5186,1.83423 -13.5272,-9.20508 -27.0538,-18.4096 -40.5805,-27.6137 -8.7602,10.9263 -19.155,20.7931 -30.9888,28.1518 -9.83439,6.11527 -22.1946,11.3256 -33.958,11.3256 -11.7634,0 -24.1236,-5.21032 -33.958,-11.3256 -14.5334,-9.03736 -26.8962,-21.8577 -36.7256,-35.777 -0.801587,-1.1355 -1.58899,-2.28062 -2.36169,-3.43588 -18.9452,12.8913 -37.8899,25.783 -56.8357,38.6748 -3.83921,-0.611577 -7.67892,-1.22315 -11.5186,-1.83423 -0.0182409,0.0258413 -0.0364818,0.052696 -0.0547227,0.079044 10.1855,15.7647 18.5682,29.1039 32.141,17.8852 -6.83325,20.4526 -22.6907,18.892 -31.3202,6.74711 -2.92057,-4.38187 -5.84064,-8.76375 -8.76121,-13.1451 -12.5234,8.35079 -25.0468,16.7016 -37.5702,25.0524 -2.91753,-0.13326 -5.83507,-0.266013 -8.75311,-0.398767 -1.60925,3.15112 -3.21851,6.30224 -4.82776,9.45335 -5.27517,-0.204197 -10.5503,-0.408901 -15.8265,-0.613097l-0.317189 -0.0126673 0.110966 -0.296922c1.84132,-4.94836 3.68264,-9.89671 5.52446,-14.8446 3.5281,-0.2726 7.05569,-0.545201 10.5833,-0.817294 1.00021,-2.74424 2.00042,-5.48798 3.00012,-8.23223 12.5275,-8.34522 25.0549,-16.6904 37.5819,-25.0357 -2.79947,-4.20098 -5.59945,-8.40146 -8.39944,-12.6024 -7.88768,-12.6389 -3.2256,-27.8747 18.2815,-26.311 -15.3953,8.11417 -6.701,20.7805 3.76574,36.0076 0.0349618,-0.00760038 0.0699235,-0.0152008 0.104885,-0.0222945 0.913059,-3.77891 1.82663,-7.55833 2.73968,-11.3372 19.6004,-12.7935 39.2012,-25.5864 58.8011,-38.3794 -6.3904,-12.8441 -11.3773,-26.4189 -15.1769,-40.1817 -4.21872,-15.2778 -7.04606,-30.9812 -8.75767,-46.8178 -8.6842,-5.90955 -17.3689,-11.8196 -26.0536,-17.7287 -15.6122,-10.4105 -63.0442,-42.0423 -81.8318,-65.4763 -0.19609,-0.248279 -0.39218,-0.496558 -0.589283,-0.744331 0.304522,0.0851243 0.609044,0.170755 0.913566,0.256893 28.8597,8.3214 76.3088,39.9273 91.9261,50.3307 4.61749,3.0138 9.23446,6.0271 13.8519,9.04091 -0.320736,-7.92213 -0.397753,-15.8402 -0.266013,-23.7188 0.0344551,-2.06528 0.0689101,-4.13005 0.103365,-6.19482 13.6437,0 27.2869,0 40.9306,0 -0.252839,-0.676434 -0.486931,-1.28092 -0.650086,-1.67512 -1.34324,-3.23928 -4.51716,-8.86205 -11.0677,-11.6696 6.63868,-4.92555 20.4932,4.27192 20.7587,4.93467 0.265507,0.662753 1.53122,-1.19123 1.53122,-9.3586 0.0364818,0.0440822 0.0729637,0.0886711 0.109445,0.13326 -0.00152008,-0.104379 -0.00304015,-0.20825 -0.00456023,-0.312629 0,-13.1309 10.6481,-23.7796 23.7791,-23.7796 4.09255,0 7.9424,1.03365 11.3053,2.85521 -0.0456023,-0.0547227 -0.0912046,-0.109952 -0.137314,-0.165182 10.8898,5.27466 12.7615,9.69859 12.7615,9.69859 2.60896,-5.21842 5.72866,-10.6066 6.4659,-19.9079 0.73673,9.30135 3.85643,14.6895 6.4659,19.9079 0,0 1.87172,-4.42393 12.7615,-9.69859 -0.046109,0.0552294 -0.0917113,0.110459 -0.137314,0.165182 3.36241,-1.82156 7.21226,-2.85521 11.3048,-2.85521z"/>
   <path id="_186035104" class="fil1" d="M252.378 11.1026c13.1309,0 23.7796,10.6486 23.7796,23.7796 0,0.104885 -0.00304015,0.208757 -0.00456023,0.312629l0.108939 -0.13326c0,8.16737 1.26622,10.0214 1.53173,9.3586 0.265507,-0.662753 14.1195,-9.86023 20.7587,-4.93467 -6.55102,2.80758 -9.72444,8.43034 -11.0677,11.6696 -0.167715,0.40434 -0.409407,1.03061 -0.670354,1.72833l-64.8313 0 -64.8313 0c-0.260946,-0.697715 -0.503145,-1.32399 -0.670354,-1.72833 -1.34324,-3.23928 -4.51716,-8.86205 -11.0677,-11.6696 6.63868,-4.92555 20.4932,4.27192 20.7587,4.93467 0.265507,0.662753 1.53122,-1.19123 1.53122,-9.3586l0.109445 0.13326c-0.00152008,-0.103872 -0.00456023,-0.207744 -0.00456023,-0.312629 0,-13.1309 10.6481,-23.7796 23.7791,-23.7796 4.09255,0 7.9424,1.03365 11.3053,2.85521l-0.137314 -0.165182c10.8898,5.27466 12.7615,9.69859 12.7615,9.69859 2.60896,-5.21842 5.72866,-10.6066 6.4659,-19.9079 0.73673,9.30135 3.85643,14.6895 6.4659,19.9079 0,0 1.87172,-4.42393 12.7615,-9.69859l-0.137314 0.165182c3.36241,-1.82156 7.21226,-2.85521 11.3048,-2.85521zm-60.7904 8.0336c-8.69433,0 -15.7455,7.05113 -15.7455,15.746 0,8.69484 7.05113,15.746 15.7455,15.746 8.69484,0 15.746,-7.05113 15.746,-15.746 0,-8.69484 -7.05113,-15.746 -15.746,-15.746zm60.7904 0c8.69484,0 15.746,7.05113 15.746,15.746 0,8.69484 -7.05113,15.746 -15.746,15.746 -8.69484,0 -15.746,-7.05113 -15.746,-15.746 0,-8.69484 7.05113,-15.746 15.746,-15.746z"/>
   <path id="_186034816" class="fil1" d="M419.328 23.1153l-0.589283 0.744331c-18.7876,23.434 -66.2196,55.0658 -81.8318,65.4763l-0.249293 0.170249c0.445382,-7.65865 0.656166,-15.3229 0.660727,-22.9597 20.7972,-13.5788 57.2765,-36.306 81.0961,-43.1742l0.913566 -0.256893zm-48.7164 210.991c7.88768,-12.6389 3.2256,-27.8747 -18.2815,-26.311 15.3958,8.11417 6.70151,20.7805 -3.76523,36.0076l-0.105392 -0.0222945 -2.73968 -11.3372 -40.8156 -26.6404c-2.35815,3.99324 -4.87032,7.89376 -7.54363,11.6798 -1.82612,2.58616 -3.73888,5.13279 -5.73677,7.62572l40.5805 27.6137 11.5186 -1.83423 0.0547227 0.0795507c-10.185,15.7642 -18.5687,29.1029 -32.141,17.8847 6.83325,20.4526 22.6907,18.892 31.3202,6.74711l8.76121 -13.1451 37.5702 25.0524 8.75311 -0.398767 4.82776 9.45335 16.1437 -0.625765 -5.63543 -15.1415 -10.5833 -0.817294 -3.00012 -8.23223 -37.5819 -25.0357 8.39944 -12.6024zm-216.979 -20.0594l-56.8367 38.6753 -11.5186 -1.83423 -0.0537094 0.0780306c10.185,15.7642 18.5677,29.1049 32.14,17.8862 -6.83325,20.4526 -22.6907,18.892 -31.3202,6.74711l-8.76121 -13.1451 -37.5702 25.0524 -8.75311 -0.398767 -4.82776 9.45335 -16.1437 -0.625765 5.63543 -15.1415 10.5833 -0.817294 3.00012 -8.23223 37.5819 -25.0357 -8.39944 -12.6024c-7.88768,-12.6389 -3.2256,-27.8747 18.2815,-26.311 -15.3958,8.11417 -6.69999,20.78 3.76726,36.0071l0.103365 -0.0217878 2.73968 -11.3372 58.8031 -38.3804c3.43335,6.90013 7.27103,13.59 11.549,19.9839zm-35.4847 -106.982l-26.0546 -17.7292c-15.6122,-10.4105 -63.0442,-42.0423 -81.8318,-65.4763l-0.589283 -0.744331 0.913566 0.256893c28.8597,8.3214 76.3088,39.9273 91.9261,50.3307l13.8525 9.04141c0.32783,8.11518 0.910019,16.2359 1.78356,24.3207z"/>
   <path id="_186034504" class="fil2" d="M226.677 261.002c35.5571,0 109.46,-54.2571 106.996,-201.916l-0.0445889 -2.67128 -106.951 0 0 194.887 0 0.0400287 0 0.0385086 0 0.0385086 0 0.0385086 0 0.0400287 0 0.0385086 0 0.0385086 0 0.0385086 0 0.0400287 0 0.0385086 0 0.0380019 0 0.0385086 0 0.0400287 0 0.0385086 0 0.0385086 0 0.0385086 0 0.0400287 0 0.0385086 0 0.0380019 0 0.0385086 0 0.0400287 0 0.0385086 0 0.0385086 0 0.0385086 0 0.0400287 0 0.0385086 0 0.0380019 0 0.0385086 0 0.0400287 0 0.0385086 0 0.0385086 0 0.0385086 0 0.0400287 0 0.0380019 0 0.0385086 0 0.0385086 0 0.0400287 0 0.0385086 0 0.0385086 0 0.0385086 0 0.0400287 0 0.0380019 0 0.0385086 0 0.0385086 0 0.0400287 0 0.0385086 0 0.0385086 0 0.0385086 0 0.0400287 0 0.0380019 0 0.0385086 0 0.0385086 0 0.0400287 0 0.0385086 0 0.0385086 0 0.0385086 0 0.039522 0 0.0385086 0 0.0385086 0 0.0385086 0 0.0400287 0 0.0385086 0 0.0385086 0 0.0385086 0 7.2153z"/>
   <path id="_186034768" class="fil1" d="M226.677 261.002c-35.5571,0 -109.46,-54.2571 -106.996,-201.916l0.0445889 -2.67128 106.951 0 0 194.887c-7.16817,0.192543 -14.427,-1.34324 -21.505,-3.24384 0,0 12.6562,6.13047 21.505,5.72917l0 7.2153zm-78.4744 -201.871l-25.7921 0c-0.225985,7.80711 -0.0157075,13.9812 0.144407,20.4324l2.44175 -17.5457 23.206 -2.88662z"/>
   <g>
    <path id="_186034624" class="fil0" d="M188.456 124.59c-0.311616,-1.17553 -0.837562,-2.63632 -1.11726,-3.49871l-1.96951 -6.27488c-0.496052,-0.0456023 -1.21049,-0.0319216 -1.5297,-0.0319216l-8.54536 0c-0.0927247,0 -0.20673,-0.00253346 -0.32631,-0.00253346l-2.78377 8.72676c-0.087151,0.290335 -0.185956,0.611577 -0.267533,0.939407 0.249293,0.0547227 0.489465,0.0982983 0.639952,0.125153l3.11768 0.520373 0.551281 0.642992c1.47042,1.71414 1.27788,5.17029 -0.851243,6.27234l-0.567495 0.292868 -0.637419 -0.0364818c-2.92969,-0.167208 -5.88574,-0.155554 -8.821,-0.224971 -2.612,0.00202677 -5.2169,0.229025 -7.8441,0.229025l-0.609551 0 -0.53152 -0.297935c-2.13317,-1.1963 -2.37335,-4.50399 -0.842122,-6.25309l0.596883 -0.682514 2.94945 -0.325296c1.63662,-0.204704 2.12507,-0.889245 2.79086,-2.41743 1.68779,-3.97095 3.17747,-8.07313 4.69602,-12.1231l12.5072 -32.5428 9.79436 0.135793 0.474264 1.67158c0.941434,3.31934 2.12608,6.63767 3.27323,9.8957l10.3755 29.9065c0.364312,1.04075 1.37314,4.2476 2.2938,4.91339 0.277667,0.20065 0.65566,0.289828 0.982476,0.343031l3.53266 0.557868 0.494025 0.411941c1.75265,1.46029 1.63054,5.10847 -0.251319,6.398l-0.639952 0.438795 -0.775746 -0.0324283c-3.87923,-0.161635 -7.76962,-0.226998 -11.6519,-0.226998 -3.407,0 -6.79525,0.079044 -10.1987,0.226998l-0.66326 0.0288815 -0.578642 -0.32479c-2.35358,-1.32044 -2.56538,-5.01676 -0.383566,-6.60321l0.45501 -0.33087 2.8623 -0.447409zm-5.95921 -18.5135l-1.71414 -5.34155c-0.212811,-0.652619 -0.424608,-1.32804 -0.639952,-2.01309 -0.278681,0.812227 -0.546214,1.61939 -0.803614,2.40932l-1.64878 4.94532 4.80648 0z"/>
    <path id="_186035200" class="fil3" d="M183.84 112.452c2.67077,0 3.28083,0.152514 3.66237,1.37364l2.06021 6.56166c0.915593,2.82278 1.44965,4.65397 1.44965,5.18802 0,0.45805 -0.305029,0.992103 -2.06021,1.29713l-2.44124 0.381539c-0.839589,0.610564 -0.686568,2.21272 0.152514,2.68293 3.50986,-0.152514 6.48515,-0.228518 10.3,-0.228518 3.9674,0 8.08731,0.0760038 11.7497,0.228518 0.686568,-0.47021 0.534053,-2.3014 0.0760038,-2.68293l-2.89929 -0.45805c-2.82278,-0.457543 -3.50935,-2.21222 -5.11202,-6.79018l-10.376 -29.9085c-1.7871,-5.07604 -2.70371,-7.874 -3.31478,-10.0264l-6.43094 -0.0891778 -11.9225 31.0207c-2.06021,5.49356 -3.43385,9.15593 -4.73048,12.2077 -1.29713,2.9758 -2.82329,3.58586 -4.65447,3.81488l-2.07288 0.229025c-0.534053,0.610564 -0.610057,2.21272 0.229025,2.68293 3.52252,0 5.2772,-0.228518 7.87146,-0.228518 3.20432,0.0760038 6.25663,0.0760038 8.9269,0.228518 0.763078,-0.394206 0.610564,-2.14888 0.152514,-2.68293l-2.28873 -0.381539c-2.13672,-0.381539 -2.74678,-0.839082 -2.74678,-1.29713 0,-0.610564 0.0760038,-1.22062 0.534053,-2.74678l2.82278 -8.85039c0.45805,-1.44965 0.687075,-1.52616 2.51775,-1.52616l8.54536 0zm-7.01921 -4.04391c-1.90719,0 -2.28873,-0.228518 -1.60216,-2.28873l1.90719 -5.72207c1.14462,-3.50986 2.36524,-6.71468 3.12832,-8.39285 0.686568,1.60216 1.67867,4.73048 2.74678,8.01131l1.9837 6.18012c0.610564,1.9837 0.229025,2.21222 -1.52565,2.21222l-6.63817 0z"/>
   </g>
   <g>
    <path id="_186034600" class="fil0" d="M284.315 196.44c2.75235,-6.87632 5.39627,-13.8058 8.11265,-20.71 0.364818,-0.884684 0.969302,-2.45796 1.38327,-3.79006 -1.249,1.29865 -2.63784,0.966262 -4.19186,0.966262 -0.615124,0 -1.22974,0 -1.84487,0 -0.73521,0.816788 -1.7866,2.6804 -2.10835,3.23219 -1.55301,2.65304 -3.09944,5.40286 -4.47409,8.15318 -0.366845,0.73217 -0.926233,1.83169 -1.24697,2.70067 0.0810707,0.218891 0.185449,0.451969 0.26348,0.629818 1.14715,2.46607 2.2938,4.92859 3.43791,7.38757 0.225478,0.477304 0.447916,0.954101 0.668834,1.43039zm8.86103 -31.457c0.900899,-1.27281 2.38449,-1.53173 3.85998,-1.62091l0.0820841 -0.00506692 0.0820841 0c2.50509,0 5.00966,0 7.51475,0 2.23553,0 3.8914,0.592323 4.68184,2.91601 0.20217,0.595363 0.481864,1.15576 0.687075,1.76076 0.435755,1.28294 0.417008,2.6424 -0.53,3.71304 -1.11523,1.26166 -2.49293,1.15931 -3.98108,1.15931 -0.0253346,0 -0.0511759,0 -0.0770172,0 -1.39036,2.10176 -2.67888,5.22552 -3.6421,7.47422 -4.97774,11.8855 -10.5797,23.6159 -15.1921,35.6382l-0.668327 1.7415 -1.86513 0c-1.68171,0 -3.36393,0 -5.04564,0l-1.76582 0 -0.714943 -1.61483c-0.844149,-1.90618 -1.64016,-3.82603 -2.45492,-5.72765 -1.02909,-2.32926 -2.05666,-4.65295 -3.08829,-6.98576 -0.0714436,-0.163155 -0.143901,-0.329857 -0.216358,-0.500612 -1.14614,2.48634 -2.29329,4.97572 -3.44247,7.47016 -0.891778,1.90415 -1.67462,3.86099 -2.54815,5.77325l-0.725076 1.58544 -1.74353 0c-1.7719,0 -3.54279,0 -5.31469,0l-1.83271 0 -0.684541 -1.70046c-1.89199,-4.69856 -4.03276,-9.37634 -6.12287,-13.9862 -4.01959,-8.77489 -8.03816,-17.5478 -12.0583,-26.3221 -0.197103,-0.431702 -0.918126,-2.04754 -1.45218,-2.89271 -1.89554,-0.172275 -3.08423,-0.879111 -3.86302,-3.16784 -0.158595,-0.467677 -0.283748,-0.939914 -0.442342,-1.40607 -0.444876,-1.30727 -0.484904,-2.67989 0.493518,-3.78499 0.972849,-1.09851 2.17168,-1.14259 3.50074,-1.14259 4.97926,0 9.95853,0 14.9378,0 1.69742,0 3.04978,0.500105 3.9147,1.74251 0.897352,-1.28902 2.52079,-1.69489 4.02212,-1.69489 3.89241,0 7.7833,-0.0476291 11.6752,-0.0476291 0.335937,0 0.695688,-0.0450956 1.03467,-0.059283 1.93404,-0.0785373 3.79411,0.544187 4.47612,2.54714 0.102858,0.303509 0.206224,0.607524 0.309082,0.911539 0.0638432,-2.10328 2.0217,-3.3994 4.26128,-3.3994 3.11616,0 6.23181,0 9.34746,0 1.85399,0 3.52404,0.308069 4.59114,1.62597zm-38.6773 6.56014c-0.692648,0.981463 -1.66296,1.27281 -2.73158,1.34324 0.793987,1.83423 1.60875,3.65832 2.41591,5.48089 2.42706,5.41705 4.85107,10.829 7.27559,16.2415 0.428662,0.948528 0.856816,1.89756 1.28953,2.84406 0.32935,-0.694675 0.651099,-1.39391 0.965755,-2.10176 0.318709,-0.710889 0.635392,-1.41823 0.949034,-2.11747 0.248786,-0.568002 0.607017,-1.56568 0.718489,-2.21678 -0.0288815,-0.262467 -0.131233,-0.616138 -0.221424,-0.853776 -2.34244,-5.14951 -4.68386,-10.296 -7.02427,-15.4394 -0.179876,-0.39218 -0.519359,-1.16235 -0.863403,-1.78862 -0.503145,-0.0116539 -0.996663,-0.0917113 -1.57176,-0.382553 -0.505679,-0.25588 -0.894818,-0.600937 -1.20187,-1.00933zm21.2598 -1.24292c-0.0729637,0.575096 -0.304015,1.12688 -0.766625,1.62952 -0.453489,0.492505 -0.916606,0.743317 -1.40151,0.86847 0.416501,0.957141 0.833509,1.91631 1.25052,2.87548 0.114512,-0.255373 0.229532,-0.510239 0.344044,-0.764598 0.353164,-0.79044 0.914579,-2.03336 1.32196,-3.14706 -0.290335,-0.377992 -0.524933,-0.860363 -0.748384,-1.46181z"/>
    <path id="_186034984" class="fil1" d="M296.857 170.192c0.0471224,0.0912046 0.0694168,0.194063 0.0694168,0.311616 0,0.808681 -1.47042,5.00004 -1.98522,6.25005 -3.52962,8.97048 -6.98526,18.0879 -10.5144,26.6176 -0.441836,-1.0296 -1.32399,-3.16176 -3.23574,-7.20618 -1.15171,-2.4757 -2.30393,-4.95089 -3.45564,-7.42659 -0.514799,-1.17603 -0.58827,-1.61736 -0.58827,-1.83777 0,-0.367858 0.955621,-2.50002 1.61736,-3.8235 0.956128,-1.91226 2.79441,-5.29443 4.55922,-8.30874 1.67259,-2.86737 2.47671,-3.99679 3.5205,-4.57644 1.22214,0 1.55301,0 2.77465,0 1.51501,0 2.78174,0.427141 2.25782,-1.1127 -0.252333,-0.742304 -0.237132,-1.022 -0.489971,-1.76481 -0.424101,-1.25001 -1.54845,-1.24444 -2.80099,-1.24444 -3.11616,0 -6.23181,0 -9.34796,0 -0.879618,0 -1.82004,0.200143 -1.4537,1.27686 0.27412,0.806654 0.13934,0.903939 0.412954,1.70958 0.370899,1.0904 0.210784,1.1355 1.36148,1.1355 0.0643499,0.108939 0.0881644,0.235105 0.0881644,0.384579 0,0.441836 -0.73521,2.64747 -1.98522,5.44137 -0.220411,0.489971 -0.440822,0.980449 -0.661233,1.47093 -0.735717,1.61736 -1.47093,3.08778 -2.20614,4.63218 -0.66174,-1.32348 -1.39746,-2.94084 -2.05869,-4.48524 -0.73521,-1.69134 -1.47042,-3.38268 -2.20614,-5.07351 -0.367352,-0.808681 -0.66174,-1.61787 -0.66174,-2.20614 0,-0.0572562 0.0141874,-0.111979 0.039522,-0.164168 0.636405,0 0.890258,0 1.52616,0 1.43597,0 1.94722,0.298948 1.46738,-1.11219 -0.267533,-0.7874 -0.535574,-1.57531 -0.803107,-2.36271 -0.348097,-1.0225 -1.99181,-0.647046 -2.94084,-0.647046 -4.21517,0 -7.45901,0.0481358 -11.6752,0.0481358 -0.526453,0 -2.34193,0.0993117 -1.80433,1.26521l0.638939 1.75771c0.440822,1.39036 0.818308,1.05088 2.31964,1.05088 0.635899,0.636405 1.17046,1.66752 1.96698,3.3994 2.35308,5.17181 4.70616,10.3431 7.05873,15.5149 0.294388,0.73521 0.441329,1.5444 0.441329,1.98573 0,0.440822 -0.441329,2.05869 -0.955621,3.23472 -0.318709,0.710889 -0.636912,1.42178 -0.956128,2.13267 -1.47042,3.3087 -2.64696,5.51484 -3.52962,7.1322 -0.882151,-1.7643 -1.61736,-3.3087 -3.67605,-7.86741 -2.42655,-5.41705 -4.8531,-10.8336 -7.27965,-16.2501 -2.27961,-5.14698 -3.8235,-8.60313 -3.8235,-9.11792 0,-0.0562428 0.00760038,-0.111472 0.019761,-0.164168 1.06709,0 2.13419,0 3.20077,0 1.47245,0 1.42837,-0.153021 0.940421,-1.58696 -0.258413,-0.760038 -0.273614,-0.613097 -0.532027,-1.37314 -0.344044,-1.01338 -0.930287,-1.16185 -1.96597,-1.16185 -4.97926,0 -9.95903,0 -14.9388,0 -1.28497,0 -1.89908,-0.0542161 -1.42431,1.34071 0.242706,0.714436 0.200143,0.692648 0.442849,1.40708 0.501625,1.47599 0.974876,1.37415 2.51927,1.37415 0.85631,0.629312 1.49119,1.80129 2.69408,4.429 4.01959,8.77439 8.03918,17.5493 12.0588,26.3237 2.22793,4.9139 4.80395,10.7044 6.17202,14.1012 1.7714,0 3.5433,0 5.31419,0 0.907486,-1.98421 1.62902,-3.81032 2.55778,-5.792 1.15171,-2.50053 2.30393,-5.00054 3.45564,-7.50056 0.956128,-2.05869 1.83828,-3.82299 2.50053,-5.07351 0.66174,1.10307 1.61736,3.30921 2.64645,5.66178 1.03011,2.32825 2.0592,4.6565 3.0888,6.98526 0.763078,1.78102 1.69032,4.00185 2.45036,5.71903 1.68171,0 3.36393,0 5.04513,0 3.74192,-9.7523 11.7162,-27.3391 15.2251,-35.7188 1.98522,-4.63269 3.23574,-6.98526 4.04391,-8.1618 0.27412,-0.352658 0.632858,-0.684541 1.16286,-0.973356 0.570535,0 0.442342,0 1.01389,0 1.47549,0 2.44226,0.191023 1.94063,-1.28649 -0.260946,-0.769159 -0.425115,-0.990076 -0.686061,-1.75924 -0.368365,-1.08128 -1.01136,-1.07621 -2.11291,-1.07621 -2.68851,0 -4.82675,0 -7.51526,0 -2.33686,0.141874 -2.18891,0.575096 -1.46383,2.71688 0.226998,0.667314 0.388633,1.40506 1.1208,1.40506z"/>
   </g>
   <g>
    <path id="_186034528" class="fil0" d="M270.335 77.1768c15.3442,0 27.7875,12.4439 27.7875,27.7875 0,15.3442 -12.4433,27.7875 -27.7875,27.7875 -15.3437,0 -27.787,-12.4433 -27.787,-27.7875 0,-15.3437 12.4433,-27.7875 27.787,-27.7875z"/>
    <g>
     <path id="_186033808" class="fil2" d="M270.335 78.9345c14.3733,0 26.0298,11.6565 26.0298,26.0298 0,14.3733 -11.6565,26.0298 -26.0298,26.0298 -14.3733,0 -26.0293,-11.6565 -26.0293,-26.0298 0,-14.3733 11.6559,-26.0298 26.0293,-26.0298z"/>
     <path id="_186034408" class="fil0" d="M270.335 114.914l5.24376 -0.235105c0.573069,-0.0162141 0.510746,0.00557361 0.864417,0.45653 0.804627,1.02605 4.06671,4.36566 4.06671,5.55639 0,0.843136 -2.9682,4.49284 -3.51948,5.23058 -0.574589,0.768652 -1.10611,1.29156 -1.7187,1.64675 -1.09192,0.632352 -2.29532,0.78892 -4.6038,0.78892 -0.111979,0 -0.222945,-0.00101338 -0.332897,-0.00304015 -0.109445,0.00202677 -0.220411,0.00304015 -0.332897,0.00304015 -2.30849,0 -3.51138,-0.156568 -4.6033,-0.78892 -0.612591,-0.355191 -1.14411,-0.878097 -1.7187,-1.64675 -0.551281,-0.737744 -3.51948,-4.38745 -3.51948,-5.23058 0,-1.19073 3.26208,-4.53033 4.06671,-5.55639 0.353671,-0.450956 0.290841,-0.472744 0.864417,-0.45653l5.24325 0.235105zm0 -36.1976c14.4944,0 26.2487,11.7542 26.2487,26.2482 0,14.4939 -11.7542,26.2482 -26.2487,26.2482 -14.4939,0 -26.2482,-11.7542 -26.2482,-26.2482 0,-14.4939 11.7542,-26.2482 26.2482,-26.2482zm0.482878 0.531013c6.53683,0.120086 12.4783,2.67989 16.9519,6.8069 0.0602964,0.19305 0.115019,0.393193 0.115019,0.746864 0,0.12718 0,0.253853 0,0.380526 0,0.367858 -0.0374952,1.86919 -0.565975,1.73998 -2.97175,-1.10712 -5.69522,-1.03112 -8.67052,-1.20542 -0.353164,-0.0207744 -0.644512,-0.174809 -0.865937,-0.324283 -1.16083,-0.784866 -2.18536,-1.55402 -3.4678,-2.23907 -0.473757,-0.253346 -3.49668,-1.75163 -3.49668,-2.06021l0 -3.84529zm24.6359 20.1557c0.394713,1.79116 0.60499,3.65173 0.60499,5.56145 0,4.55567 -1.18667,8.83418 -3.26512,12.5462 -0.0192543,0.00405354 -0.0385086,0.006587 -0.0577629,0.006587 -0.328336,0 -2.00397,-1.10814 -2.87852,-1.59253 -0.510746,-0.283241 -0.452983,-0.185449 -0.40586,-0.79652 0.0532027,-0.693155 0.106405,-1.38631 0.159608,-2.07946 -0.00456023,-0.761052 -0.00962715,-1.5221 -0.0141874,-2.28366 -0.073977,-1.29865 -0.147447,-2.59781 -0.221424,-3.89646 0.0278681,-0.0542161 3.45513,-6.31845 3.45513,-8.65582 0.98653,0.0217878 1.9837,0.607017 2.62315,1.19022zm-3.06346 18.8033c-3.22611,5.3603 -8.34978,9.44981 -14.4417,11.3352 -0.774226,-0.155554 -1.44559,-0.634885 -1.90466,-1.13955 -0.459063,-0.504159 -0.281214,-0.423595 0.175822,-0.818814 1.70249,-1.47295 3.91977,-4.7852 4.97217,-6.58193 0.282734,-0.482878 2.65912,-1.41266 3.9902,-2.19195 1.33108,-0.779799 2.60896,-1.69235 3.48858,-2.23299 0.377486,-0.232065 0.395727,-0.228518 0.813241,-0.0385086 0.860363,0.39066 2.5669,1.37618 2.90639,1.66854zm-29.6683 11.3352c-6.09196,-1.88591 -11.2161,-5.97441 -14.4417,-11.3352 0.339484,-0.292361 2.04602,-1.27788 2.90588,-1.66854 0.418021,-0.19001 0.436262,-0.193556 0.813748,0.0385086 0.879618,0.54064 2.1575,1.45319 3.48858,2.23299 1.33108,0.779292 3.70696,1.70907 3.9902,2.19195 1.05189,1.79673 3.26968,5.10898 4.97217,6.58193 0.457036,0.39522 0.634885,0.314656 0.175822,0.818814 -0.459063,0.504665 -1.13043,0.983996 -1.90466,1.13955zm-14.8451 -12.0309c-2.07845,-3.71203 -3.26512,-7.99053 -3.26512,-12.5462 0,-1.90972 0.209771,-3.7703 0.60499,-5.56145 0.639445,-0.583203 1.63662,-1.16843 2.62264,-1.19022 0,2.33737 3.42777,8.60161 3.45564,8.65582 -0.073977,1.29865 -0.147447,2.59781 -0.221424,3.89646 -0.00456023,0.761558 -0.00962715,1.52261 -0.0141874,2.28366 0.0532027,0.693155 0.106405,1.38631 0.159608,2.07946 0.0471224,0.611071 0.104885,0.513279 -0.40586,0.79652 -0.874551,0.484398 -2.55069,1.59253 -2.87852,1.59253 -0.0192543,0 -0.0385086,-0.00253346 -0.0577629,-0.006587zm5.02385 -31.4565c4.47409,-4.1265 10.4151,-6.68682 16.9519,-6.8069l0 3.84529c0,0.308575 -3.02293,1.80686 -3.49668,2.06021 -1.28244,0.685048 -2.30697,1.45421 -3.4678,2.23907 -0.221424,0.149474 -0.512772,0.303509 -0.865937,0.324283 -2.9753,0.174302 -5.69877,0.0982983 -8.67052,1.20542 -0.528987,0.129206 -0.565975,-1.37212 -0.565975,-1.73998 0,-0.126673 0,-0.253346 0,-0.380526 0,-0.353671 0.0547227,-0.553814 0.115019,-0.746864zm17.4343 9.578c0.586749,0.00405354 1.1735,0.00861377 1.75974,0.013174 0.736224,0.0567495 1.47295,0.114006 2.20918,0.170755 0.60195,0.0471224 0.66022,-0.0309082 0.983996,0.458556 0.39218,0.59283 0.915086,1.23836 1.31689,1.89908 0.502639,0.825908 1.00578,1.59507 1.47954,2.41945 0.388633,0.675421 2.57146,4.52577 2.57146,5.13178 0,0.561415 -1.7638,3.69632 -2.11139,4.26077 -0.199637,0.324283 -1.42279,2.25934 -2.06376,3.28336 -0.365832,0.584723 -0.262973,0.626778 -0.916606,0.6663 -1.69438,0.101845 -3.38876,0.204197 -5.08314,0.306549 -0.0694168,-0.0374952 -0.115526,-0.0425621 -0.145927,-0.0243212 -0.0298948,-0.0182409 -0.0760038,-0.013174 -0.145421,0.0243212 -1.69438,-0.102352 -3.38876,-0.204704 -5.08314,-0.306549 -0.653633,-0.039522 -0.550774,-0.0815774 -0.916606,-0.6663 -0.640966,-1.02402 -1.86412,-2.95908 -2.06376,-3.28336 -0.347591,-0.564455 -2.11139,-3.69936 -2.11139,-4.26077 0,-0.606004 2.18232,-4.45636 2.57146,-5.13178 0.473757,-0.824388 0.976902,-1.59355 1.47954,-2.41945 0.401807,-0.660727 0.924713,-1.30625 1.31689,-1.89908 0.323776,-0.489465 0.382046,-0.411434 0.983996,-0.458556 0.736224,-0.0567495 1.47245,-0.114006 2.20867,-0.170755 0.586749,-0.00456023 1.1735,-0.00912046 1.75974,-0.013174zm-5.37398 -0.177342c0,-0.72457 -1.96394,-4.6945 -2.64797,-6.50441 -0.262973,-0.694675 -0.150488,-0.628805 -0.920153,-0.626778 -2.7863,0.00962715 -5.26858,0.0993117 -7.3977,0.827935 -1.38479,0.473757 -1.65942,0.930793 -2.40831,2.06173 -0.622218,0.939407 -1.10104,1.70299 -1.68576,2.68902 -1.34172,2.26187 -2.14483,3.65376 -1.08635,6.56825 0.33391,0.918126 2.28822,5.82493 3.01989,5.82493 0.126673,0 0.253346,0 0.380526,0l6.42587 -0.731663c0.425115,-0.121099 0.771692,-0.33239 0.962208,-0.725583 0.33847,-0.697208 0.66022,-1.22619 1.01338,-1.93455 0.450449,-0.902419 4.34438,-7.39213 4.34438,-7.44888zm10.7485 0c0,-0.72457 1.96394,-4.6945 2.64797,-6.50441 0.262973,-0.694675 0.149981,-0.628805 0.920153,-0.626778 2.7863,0.00962715 5.26858,0.0993117 7.3977,0.827935 1.38479,0.473757 1.65942,0.930793 2.40831,2.06173 0.621711,0.939407 1.10104,1.70299 1.68576,2.68902 1.34172,2.26187 2.14483,3.65376 1.08584,6.56825 -0.333403,0.918126 -2.28771,5.82493 -3.01938,5.82493 -0.126673,0 -0.253853,0 -0.380526,0l-6.42638 -0.731663c-0.425115,-0.121099 -0.771185,-0.33239 -0.961702,-0.725583 -0.33847,-0.697208 -0.66022,-1.22619 -1.01338,-1.93455 -0.450449,-0.902419 -4.34438,-7.39213 -4.34438,-7.44888z"/>
    </g>
   </g>
   <path id="_186034384" class="fil1" d="M226.677 56.4141l106.951 0 0.0445889 2.67128c2.46455,147.659 -71.4385,201.916 -106.996,201.916 -35.5571,0 -109.46,-54.2571 -106.996,-201.916l0.0445889 -2.67128 106.951 0zm0 197.372c25.4902,0 106.866,-40.4817 104.279,-194.655l-44.6862 0 -59.5931 0 -104.279 0c-2.58666,154.174 78.7891,194.655 104.279,194.655z"/>
   <g>
    <path id="_186034072" class="fil0" d="M183.03 162.738c15.3442,0 27.7875,12.4439 27.7875,27.7875 0,15.3442 -12.4433,27.7875 -27.7875,27.7875 -15.3437,0 -27.787,-12.4433 -27.787,-27.7875 0,-15.3437 12.4433,-27.7875 27.787,-27.7875z"/>
    <g>
     <path id="_186033832" class="fil2" d="M183.03 164.496c14.3733,0 26.0298,11.6565 26.0298,26.0298 0,14.3733 -11.6565,26.0298 -26.0298,26.0298 -14.3733,0 -26.0293,-11.6565 -26.0293,-26.0298 0,-14.3733 11.6559,-26.0298 26.0293,-26.0298z"/>
     <path id="_186033976" class="fil0" d="M183.03 200.475l5.24376 -0.235105c0.573069,-0.0162141 0.510746,0.00557361 0.864417,0.45653 0.804627,1.02605 4.06671,4.36566 4.06671,5.55639 0,0.843136 -2.9682,4.49284 -3.51948,5.23058 -0.574589,0.768652 -1.10611,1.29156 -1.7187,1.64675 -1.09192,0.632352 -2.29532,0.78892 -4.6038,0.78892 -0.111979,0 -0.222945,-0.00101338 -0.332897,-0.00304015 -0.109445,0.00202677 -0.220411,0.00304015 -0.332897,0.00304015 -2.30849,0 -3.51138,-0.156568 -4.6033,-0.78892 -0.612591,-0.355191 -1.14411,-0.878097 -1.7187,-1.64675 -0.551281,-0.737744 -3.51948,-4.38745 -3.51948,-5.23058 0,-1.19073 3.26208,-4.53033 4.06671,-5.55639 0.353671,-0.450956 0.290841,-0.472744 0.864417,-0.45653l5.24325 0.235105zm0 -36.1976c14.4944,0 26.2487,11.7542 26.2487,26.2482 0,14.4939 -11.7542,26.2482 -26.2487,26.2482 -14.4939,0 -26.2482,-11.7542 -26.2482,-26.2482 0,-14.4939 11.7542,-26.2482 26.2482,-26.2482zm0.482878 0.531013c6.53683,0.120086 12.4783,2.67989 16.9519,6.8069 0.0602964,0.19305 0.115019,0.393193 0.115019,0.746864 0,0.12718 0,0.253853 0,0.380526 0,0.367858 -0.0374952,1.86919 -0.565975,1.73998 -2.97175,-1.10712 -5.69522,-1.03112 -8.67052,-1.20542 -0.353164,-0.0207744 -0.644512,-0.174809 -0.865937,-0.324283 -1.16083,-0.784866 -2.18536,-1.55402 -3.4678,-2.23907 -0.473757,-0.253346 -3.49668,-1.75163 -3.49668,-2.06021l0 -3.84529zm24.6359 20.1557c0.394713,1.79116 0.60499,3.65173 0.60499,5.56145 0,4.55567 -1.18667,8.83418 -3.26512,12.5462 -0.0192543,0.00405354 -0.0385086,0.006587 -0.0577629,0.006587 -0.328336,0 -2.00397,-1.10814 -2.87852,-1.59253 -0.510746,-0.283241 -0.452983,-0.185449 -0.40586,-0.79652 0.0532027,-0.693155 0.106405,-1.38631 0.159608,-2.07946 -0.00456023,-0.761052 -0.00962715,-1.5221 -0.0141874,-2.28366 -0.073977,-1.29865 -0.147447,-2.59781 -0.221424,-3.89646 0.0278681,-0.0542161 3.45513,-6.31845 3.45513,-8.65582 0.98653,0.0217878 1.9837,0.607017 2.62315,1.19022zm-3.06346 18.8033c-3.22611,5.3603 -8.34978,9.44981 -14.4417,11.3352 -0.774226,-0.155554 -1.44559,-0.634885 -1.90466,-1.13955 -0.459063,-0.504159 -0.281214,-0.423595 0.175822,-0.818814 1.70249,-1.47295 3.91977,-4.7852 4.97217,-6.58193 0.282734,-0.482878 2.65912,-1.41266 3.9902,-2.19195 1.33108,-0.779799 2.60896,-1.69235 3.48858,-2.23299 0.377486,-0.232065 0.395727,-0.228518 0.813241,-0.0385086 0.860363,0.39066 2.5669,1.37618 2.90639,1.66854zm-29.6683 11.3352c-6.09196,-1.88591 -11.2161,-5.97441 -14.4417,-11.3352 0.339484,-0.292361 2.04602,-1.27788 2.90588,-1.66854 0.418021,-0.19001 0.436262,-0.193556 0.813748,0.0385086 0.879618,0.54064 2.1575,1.45319 3.48858,2.23299 1.33108,0.779292 3.70696,1.70907 3.9902,2.19195 1.05189,1.79673 3.26968,5.10898 4.97217,6.58193 0.457036,0.39522 0.634885,0.314656 0.175822,0.818814 -0.459063,0.504665 -1.13043,0.983996 -1.90466,1.13955zm-14.8451 -12.0309c-2.07845,-3.71203 -3.26512,-7.99053 -3.26512,-12.5462 0,-1.90972 0.209771,-3.7703 0.60499,-5.56145 0.639445,-0.583203 1.63662,-1.16843 2.62264,-1.19022 0,2.33737 3.42777,8.60161 3.45564,8.65582 -0.073977,1.29865 -0.147447,2.59781 -0.221424,3.89646 -0.00456023,0.761558 -0.00962715,1.52261 -0.0141874,2.28366 0.0532027,0.693155 0.106405,1.38631 0.159608,2.07946 0.0471224,0.611071 0.104885,0.513279 -0.40586,0.79652 -0.874551,0.484398 -2.55069,1.59253 -2.87852,1.59253 -0.0192543,0 -0.0385086,-0.00253346 -0.0577629,-0.006587zm5.02385 -31.4565c4.47409,-4.1265 10.4151,-6.68682 16.9519,-6.8069l0 3.84529c0,0.308575 -3.02293,1.80686 -3.49668,2.06021 -1.28244,0.685048 -2.30697,1.45421 -3.4678,2.23907 -0.221424,0.149474 -0.512772,0.303509 -0.865937,0.324283 -2.9753,0.174302 -5.69877,0.0982983 -8.67052,1.20542 -0.528987,0.129206 -0.565975,-1.37212 -0.565975,-1.73998 0,-0.126673 0,-0.253346 0,-0.380526 0,-0.353671 0.0547227,-0.553814 0.115019,-0.746864zm17.4343 9.578c0.586749,0.00405354 1.1735,0.00861377 1.75974,0.013174 0.736224,0.0567495 1.47295,0.114006 2.20918,0.170755 0.60195,0.0471224 0.66022,-0.0309082 0.983996,0.458556 0.39218,0.59283 0.915086,1.23836 1.31689,1.89908 0.502639,0.825908 1.00578,1.59507 1.47954,2.41945 0.388633,0.675421 2.57146,4.52577 2.57146,5.13178 0,0.561415 -1.7638,3.69632 -2.11139,4.26077 -0.199637,0.324283 -1.42279,2.25934 -2.06376,3.28336 -0.365832,0.584723 -0.262973,0.626778 -0.916606,0.6663 -1.69438,0.101845 -3.38876,0.204197 -5.08314,0.306549 -0.0694168,-0.0374952 -0.115526,-0.0425621 -0.145927,-0.0243212 -0.0298948,-0.0182409 -0.0760038,-0.013174 -0.145421,0.0243212 -1.69438,-0.102352 -3.38876,-0.204704 -5.08314,-0.306549 -0.653633,-0.039522 -0.550774,-0.0815774 -0.916606,-0.6663 -0.640966,-1.02402 -1.86412,-2.95908 -2.06376,-3.28336 -0.347591,-0.564455 -2.11139,-3.69936 -2.11139,-4.26077 0,-0.606004 2.18232,-4.45636 2.57146,-5.13178 0.473757,-0.824388 0.976902,-1.59355 1.47954,-2.41945 0.401807,-0.660727 0.924713,-1.30625 1.31689,-1.89908 0.323776,-0.489465 0.382046,-0.411434 0.983996,-0.458556 0.736224,-0.0567495 1.47245,-0.114006 2.20867,-0.170755 0.586749,-0.00456023 1.1735,-0.00912046 1.75974,-0.013174zm-5.37398 -0.177342c0,-0.72457 -1.96394,-4.6945 -2.64797,-6.50441 -0.262973,-0.694675 -0.150488,-0.628805 -0.920153,-0.626778 -2.7863,0.00962715 -5.26858,0.0993117 -7.3977,0.827935 -1.38479,0.473757 -1.65942,0.930793 -2.40831,2.06173 -0.622218,0.939407 -1.10104,1.70299 -1.68576,2.68902 -1.34172,2.26187 -2.14483,3.65376 -1.08635,6.56825 0.33391,0.918126 2.28822,5.82493 3.01989,5.82493 0.126673,0 0.253346,0 0.380526,0l6.42587 -0.731663c0.425115,-0.121099 0.771692,-0.33239 0.962208,-0.725583 0.33847,-0.697208 0.66022,-1.22619 1.01338,-1.93455 0.450449,-0.902419 4.34438,-7.39213 4.34438,-7.44888zm10.7485 0c0,-0.72457 1.96394,-4.6945 2.64797,-6.50441 0.262973,-0.694675 0.149981,-0.628805 0.920153,-0.626778 2.7863,0.00962715 5.26858,0.0993117 7.3977,0.827935 1.38479,0.473757 1.65942,0.930793 2.40831,2.06173 0.621711,0.939407 1.10104,1.70299 1.68576,2.68902 1.34172,2.26187 2.14483,3.65376 1.08584,6.56825 -0.333403,0.918126 -2.28771,5.82493 -3.01938,5.82493 -0.126673,0 -0.253853,0 -0.380526,0l-6.42638 -0.731663c-0.425115,-0.121099 -0.771185,-0.33239 -0.961702,-0.725583 -0.33847,-0.697208 -0.66022,-1.22619 -1.01338,-1.93455 -0.450449,-0.902419 -4.34438,-7.39213 -4.34438,-7.44888z"/>
    </g>
   </g>
  </g>
 </g>
</svg>
