<svg xmlns="http://www.w3.org/2000/svg" width="292.831" height="341.494" viewBox="0 0 686.018 800"><path fill="#c88c28" d="M.052 0 0 572.818c0 38.86 10.872 69.398 32.306 90.675 20.653 20.497 49.993 31.057 89.686 32.15 94.785 2.652 151.282 23.67 194.98 72.623L343.01 800l26.038-31.734c43.698-48.953 100.194-69.97 194.979-72.624 39.693-1.092 69.034-11.652 89.687-32.149 21.433-21.277 32.305-51.815 32.305-90.675L685.966 0z"/><path fill="#fff" d="m17.115 17.064.052 555.754c0 34.178 9.156 60.606 27.26 78.554 17.947 17.843 44.27 26.271 78.137 27.208 97.646 2.757 159.189 24.398 207.465 78.605l12.98 15.919 12.98-15.919c48.276-54.207 109.818-75.848 207.464-78.605 33.867-.937 60.19-9.365 78.138-27.208 18.104-17.948 27.26-44.376 27.26-78.554l.052-555.754z"/><path fill="#f40043" d="M652.022 33.97H34.048l-.052 219.795h618.026z"/><g fill="#fff"><path d="M619.092 125.426h-44.375V61.178h44.063v11.133h-31.474v15.087h27.728v11.184h-27.728v15.815h31.734v11.029zM592.248 227.39c-12.589 0-21.953-3.33-29.496-9.156l7.439-11.861c6.815 5.462 14.306 8.063 22.265 8.063 6.763 0 11.862-2.913 11.862-9.052s-4.318-8.74-15.607-11.86c-12.798-3.538-22.838-8.533-22.838-21.746s10.977-22.058 27.26-22.058c11.08 0 19.352 3.122 25.283 7.752l-6.815 11.184c-5.15-3.797-10.977-6.034-18.624-6.034-6.867 0-12.07 2.601-12.07 8.167s4.943 7.231 15.4 10.353c12.797 3.745 22.733 8.74 22.733 23.254s-10.613 22.994-26.792 22.994M559.11 97.802c0 18.572-11.237 28.456-28.248 28.456s-28.248-9.884-28.248-28.456V61.126h12.641v37.716c0 8.688 5.098 16.023 15.711 16.023s15.659-7.335 15.659-16.023V61.178h12.537v36.624zM549.85 226.453h-14.878V150.71h14.878zM482.117 150.761l-33.19 75.693h15.763l6.034-14.62h32.41l6.035 14.62h15.659l-32.93-75.693zm4.838 21.07 11.393 27.363h-22.89zM439.043 227.286h-8.428l-45.103-50.618V226.4h-14.567v-76.473h8.428l45 50.514V150.71h14.67zM338.016 61.178v64.248h12.589v-18.468l9.572.052c15.919-.104 26.791-8.375 26.791-22.577s-10.716-23.255-26.27-23.255zm12.589 11.133h9.415c8.792 0 13.891 5.515 13.891 11.862s-4.943 11.548-13.89 11.548h-9.416zM351.489 227.286h-8.428l-45.103-50.618V226.4h-14.566v-76.473h8.427l45 50.514V150.71h14.67zM228.872 149.773c-23.15 0-40.057 17.115-40.057 38.964s16.907 38.652 40.057 38.652c22.942 0 39.64-16.282 39.64-38.652s-16.49-38.964-39.64-38.964m0 13.785c13.994 0 24.45 10.873 24.45 25.18s-10.144 24.97-24.45 24.97-24.867-10.664-24.867-24.97 10.561-25.18 24.867-25.18M158.434 196.905V226.4h-14.878v-29.496l-27.78-46.196h17.74l18.103 31.525 18.104-31.525h16.803zM123.11 226.453H71.61V150.71h14.878v62.687h36.624zM100.95 60.346c-19.665 0-34.024 14.514-34.024 33.086s14.515 32.826 34.023 32.826 33.66-13.838 33.66-32.826-14.151-33.086-33.66-33.086m0 11.705c11.912 0 20.756 9.208 20.756 21.38s-8.844 21.226-20.757 21.226c-12.173 0-21.12-9.104-21.12-21.225s9.207-21.381 21.12-21.381M147.197 61.126h12.59v53.22h31.109v11.08h-43.699zM199.792 61.126l15.346 26.792 15.347-26.792h14.254l-23.826 39.277v25.075H208.27v-25.075l-23.618-39.225h15.139zM255.404 61.126h7.96l24.346 42.242 24.866-42.242h7.856l1.924 64.3h-12.433l-.52-38.6-17.74 31.109h-7.855l-17.376-31.11-.624 38.6h-12.33zM398.049 61.126h12.59v64.3h-12.642zM457.199 60.346c-19.665 0-34.023 14.514-34.023 33.086s14.358 32.826 34.023 32.826c2.913 0 5.67-.26 8.323-.884l16.127 14.618 7.803-9.052-11.965-10.872c8.324-5.775 13.37-15.4 13.37-26.636 0-18.988-14.15-33.086-33.658-33.086m.051 11.705c11.913 0 20.757 9.312 20.757 21.38s-8.844 21.226-20.757 21.226c-12.173 0-21.12-9.156-21.12-21.225s9.207-21.381 21.12-21.381"/></g><path fill="#0f23aa" d="M34.022 270.673v302.145c0 59.461 29.861 86.669 88.438 88.49 102.016 3.277 171.856 26.375 220.549 82.351 48.692-55.976 118.533-79.074 220.549-82.351 58.577-1.821 88.438-29.029 88.438-88.49V270.673z"/><path fill="#fff" d="M594.693 603.875H421.927V317.44h83.392v213.864h89.374zM230.225 610.69c-82.716 0-150.033-67.317-150.033-150.032s67.317-150.033 150.033-150.033 150.032 67.317 150.032 150.033S312.94 610.69 230.225 610.69"/><g fill="#c88c28"><path d="M200.26 400.832c6.19-1.873 11.393-4.526 17.48-2.497-2.238-4.526-7.492-6.607-12.278-5.254-2.497.676-4.734 1.82-6.763 2.497-6.19 2.757-12.017 2.757-18.364.884 4.682 5.775 13.37 6.607 19.925 4.37"/><path d="M326.986 419.456c-8.635 17.272-42.71 14.098-40.681 33.815l-2.497-4.526c-2.914-5.463-.677-12.278 4.786-15.19l31.317-16.544c9.988-5.254 13.63-18.416 7.023-28.196-5.254-7.7-15.242-10.404-23.878-7.231 0 0-9.104 4.058-12.954-6.607-4.526 4.786-2.237 11.34.677 13.214-2.914.416-8.636 4.474-8.844 12.485 6.607 1.82 13.838-.676 15.19-2.757-.416 2.497 3.85 7.7 10.04 6.607-5.254-5.463-3.849-11.601 0-13.162 3.59-1.352 8.168-.26 10.665 2.913 3.434 4.526 1.821 10.925-3.017 13.37l-31.317 16.543c-10.665 5.463-14.775 18.884-9.052 29.549l14.098 26.583c1.56 2.914 1.144 6.815-1.353 9.104-3.173 3.382-8.636 2.705-11.393-1.196-8.583-12.486-15.867-25.855-21.537-40.162 4.786 1.821 8.428-1.352 8.428-1.352s-5.463-3.85-2.497-11.757c1.56-4.786 2.08-8.896 1.352-12.746 1.353 1.197 3.434 2.081 5.93 1.873-2.08-9.364.417-9.78 1.145-17.948.156-3.693-.676-6.398-1.82-8.427 1.976.208 4.317 0 6.346-2.081-8.896-3.694-7.283-16.127-17.948-17.532 4.058-1.82 4.318-5.41 4.318-6.086-9.104.676-15.71-5.93-25.49-5.93-10.665 0-13.579 2.756-17.428 2.756-5.463 0-8.168 2.706-7.491 5.41L200 376.747c-1.353 2.497 0 4.526 1.144 5.254 0 0-1.56 1.353-.936 3.642.676 2.549 2.289 7.023 2.289 7.023l1.82-1.821c.937-.885 2.238-1.56 3.85-1.82l2.913-.261c3.694-.416 7.023 1.353 8.896 4.786l3.85 7.7h-19.56s1.352 4.317 1.82 5.67c.937 2.08 2.757 3.017 6.191 3.017 3.642 0 5.67-.52 5.67-.52v5.254c0 2.913-2.289 6.763-10.196 4.526l-16.595-4.786c-9.78-2.497-14.566-7.023-21.173-15.19l-1.977-3.174a9.94 9.94 0 0 1-2.08-7.023c.207-2.08.207-4.734-.261-7.283-.884-6.087-5.41-8.168-6.607-8.428.26.677 2.29 6.191 0 11.133-1.82-5.41-5.41-9.52-13.838-10.196 0 0 6.19 5.254 6.347 12.017-7.491-4.994-16.595-1.56-16.595-1.56s14.514 2.912 14.514 14.513c0 4.318-2.237 10.04-9.052 13.89 0 0 7.231 1.561 12.017-1.196 1.353-.884 3.174-.884 4.526.26 4.734 4.786 15.19 15.034 16.751 18.208 3.434 6.815-1.144 12.277-1.144 12.277s7.283-.52 9.78-4.786c.416-.676 1.353-.936 2.081-.676l13.578 8.167-9.156 6.139c-8.168 5.41-17.688 8.167-27.312 8.167h-9.26c-2.913 0-5.93-.676-8.427-2.08-2.497-1.145-6.347-2.758-10.197-2.758-8.167 0-10.664 4.11-10.664 4.11s8.167-.416 11.34 2.757c-4.994-.676-14.098 1.561-15.034 9.78 0 0 5.93-3.433 11.601-2.549-4.058 1.873-8.584 7.284-3.173 15.971 0 0 .52-9.104 11.86-9.104s9.78 9.989 9.78 9.989 4.995-1.145 6.088-7.492c.26-1.352 1.144-2.497 2.497-2.497h23.878c.936 0 1.56.677 1.56 1.353 1.197 4.994 7.804 6.347 7.804 6.347s-3.225-5.93 1.82-8.168l17.428-7.543 7.96 10.456c-13.162 7.492-31.786 15.867-36.832 17.948-10.405 4.11-13.422 4.11-17.948 3.85 0 0 5.462 4.994 15.71 3.85.937 0 1.822-.26 2.914-.677.936-.416 2.081 0 2.497.937 1.613 3.173 4.11 8.167 4.786 10.196 1.613 4.318-1.352 5.41-4.526 6.815-4.318 2.08-8.844 4.11-16.127 6.607-11.08-6.347-19.508-.417-19.508-.417s6.555 1.145 9.728 4.995c-6.347-.52-13.162 3.173-15.45 10.404 1.612-.676 8.635-3.59 14.774-2.705-1.82 1.56-4.318 4.994-4.318 9.52.26 2.237.676 3.381.676 3.381s5.463-8.583 15.45-8.583c4.319 0 6.348 2.237 6.348 4.526 0 1.82-1.353 4.057-1.353 4.057s13.214-1.144 8.896-12.901l24.034-8.636c1.145-.416 2.497-.26 3.174.677 1.612 1.352 4.526 3.173 8.635 2.757l-7.023-15.867c-1.873-4.11.416-8.636 5.15-10.04l12.538-4.058s3.381 2.705 14.306 11.757c7.231 5.93 7.231 16.387 7.231 16.387s6.347-2.497 6.347-8.22c1.196.52 2.549.937 3.85 1.197 6.346 1.56 10.716 7.023 6.346 15.867l-4.058 7.49c-1.612 2.758-3.173 3.434-5.462 3.434-2.497-.26-5.67-.416-8.844 0-11.757 1.145-12.017 9.104-12.017 9.104s3.85-2.289 8.584-2.289c1.873 0 3.693.52 5.254.937 0 0-9.78 1.56-9.78 9.988 0 3.434 2.757 5.254 2.757 5.254s2.497-8.844 12.537-8.844c0 0-5.462 2.498-5.462 7.7s4.786 6.815 4.786 6.815-3.173-7.908 12.017-7.908h4.11c2.705 0 4.994-1.612 5.93-4.11l2.914-8.167c1.82-4.786 4.786-4.786 6.607-4.37 2.913.676 2.913 4.786 2.913 4.786s4.994-7.491-.936-14.306c-1.145-1.352-1.561-3.59-.885-5.41l4.11-11.341c9.052 2.237 13.422-5.254 13.422-5.254-9.624-2.081-14.306-5.047-28.144-16.387-6.139-4.995-10.04-11.341-10.04-12.486a18.02 18.02 0 0 0 13.161 5.67c3.85 0 7.7-1.352 11.133-3.849 3.017-2.497 4.994-5.67 5.93-9.104 4.786-8.167 16.127-1.613 17.948-18.364-4.786 6.763-15.19 2.237-17.271 10.665-4.318-18.624 22.473-6.347 22.733-34.491-6.606 11.34-30.017 7.491-28.404 21.537l-.26-.208c-9.052-29.184 35.48-10.352 32.982-48.9m-110.183-39.59c-3.382 0-4.318-4.994.936-4.994 3.694 0 7.023 1.144 7.023 1.144s-4.734 3.85-7.96 3.85"/></g></svg>