<svg xmlns="http://www.w3.org/2000/svg" width="316.228" height="316.228" viewBox="0 0 700 700"><g transform="matrix(1.24798 0 0 -1.24804 -48.17 1352.503)"><path d="M319.043 1083.701c-154.63 0-280.445-125.808-280.445-280.43 0-154.64 125.815-280.449 280.445-280.449 154.646 0 280.461 125.81 280.461 280.448 0 154.623-125.815 280.431-280.461 280.431"/><path fill="#fff" d="M319.043 1081.607c-153.475 0-278.35-124.87-278.35-278.337 0-153.484 124.875-278.353 278.35-278.353 153.491 0 278.367 124.869 278.367 278.353 0 153.468-124.876 278.337-278.367 278.337"/><circle cx="319.048" cy="-803.269" r="263.913" fill="#009fe3" transform="scale(1 -1)"/></g><path fill="#dc2f34" d="M93.7 142.966a329.729 329.744 0 0 0-68.988 155.612l443.844 359.054A329.729 329.744 0 0 0 606 557.4z"/><path fill="#fff" d="m115.088 514.775-5.064-7.48 13.518-3.624zm15.68-19.557-37.526 9.428 4.154 6.124 6.568-1.78 7.226 10.7-4.111 5.382 4.153 6.123 22.65-31.38-3.114-4.598zm17.18 23.116-4.62-5.404-27.608 23.648 15.319 17.926 4.83-4.133-10.72-12.522zm16.497 42.767c-.105-2.203-.996-4.237-3.093-6.843l-2.713-3.455c-.973-1.185-1.398-2.309-1.483-3.283-.063-1.039.381-1.886 1.06-2.585 1.716-1.822 4.449-2.12 7.182.466 1.76 1.63 3.603 3.792 3.73 6.929l6.315-.17c-.212-4.323-2.014-7.692-5.658-11.124-5.721-5.383-12.332-5.361-16.76-.636-2.12 2.225-3.116 4.576-3.008 6.992.105 2.268 1.037 4.47 3.071 7.014l2.69 3.454c1.166 1.44 1.484 2.161 1.548 3.136.043 1.08-.403 2.076-1.25 2.965-1.992 2.12-4.746 1.781-7.819-1.143-2.437-2.268-4.174-4.958-4.26-8.2l-6.504.19c.128 5.086 2.373 8.815 6.377 12.587 5.574 5.254 12.545 6.335 17.376 1.208 2.246-2.374 3.39-4.874 3.199-7.5m17.282 21.226-7.247-5.404 11.612-7.84-4.365 13.243zm8.411-23.604-32.355 21.188 5.912 4.429 5.615-3.835 10.361 7.732-2.14 6.443 5.933 4.428 11.124-37.06-4.449-3.325zm33.574 34.916c2.691-7.226.17-13.222-5.7-16.654-3.602-2.119-6.95-2.48-10.34-1.61-4.958 1.292-7.076 4.788-10.573 10.783-3.517 5.977-5.53 9.535-4.238 14.495.911 3.39 2.86 6.123 6.485 8.242 5.805 3.41 12.31 2.712 17.29-3.179l-6.21-3.644c-2.117 2.204-4.852 3.136-7.882 1.357-1.672-.975-2.69-2.395-2.966-3.92-.38-2.014.127-3.772 3.644-9.769 3.497-5.997 4.79-7.31 6.718-7.946 1.482-.508 3.2-.317 4.873.658 3.051 1.78 3.517 4.597 2.648 7.522zm-4.958 25.532 21.889 9.705 2.563-5.784-15.404-6.824 3.58-8.072 13.117 5.805 2.563-5.784-13.116-5.806 3.475-7.797 15.383 6.823 2.565-5.785-21.89-9.705-14.726 33.224zm-38.036-504.676 5.509-3.814c2.543-1.758 5.361-1.291 6.971 1.017 1.59 2.31 1.038 5.107-1.504 6.887l-5.51 3.814zm17.079 24.686-8.243-11.93 4.196-2.902 14.09 7.882 6.758-4.661-15.594-8.286c2.161-3.05 2.924-7.416.02-11.61-3.452-5.001-9.937-6.654-16.038-2.46l-11.696 8.117 20.679 29.897zm29.99-32.667-8.01 4.195-2.055-13.836zm-5.954 17.12-1.038-6.716 11.441-5.997 4.895 4.705 6.548-3.433-28.626-26.042-4.937 2.586 5.17 38.352zm25.697-16.598c3.221 1.398 6.57 1.588 10.468.105 6.292-2.415 9.832-7.903 8.35-15.489l-6.719 2.564c.382 3.03-.592 5.742-3.877 7.014-1.822.678-3.56.571-4.916-.15-1.8-.952-2.86-2.457-5.34-8.94-2.479-6.484-2.69-8.328-1.992-10.235.53-1.461 1.76-2.69 3.582-3.37 3.283-1.27 5.784.129 7.5 2.629l6.78-2.585c-3.962-6.61-10.212-8.39-16.548-5.975-3.918 1.503-6.272 3.877-7.733 7.055-2.097 4.684-.7 8.519 1.78 15.001 2.479 6.485 3.983 10.278 8.665 12.376m34.921-8.15-9.915-34.961-6.823 1.928 9.915 34.961zm14.296-3.47-3.961-21.953 18.137 19.389 6.23-1.124-6.484-35.766-6.971 1.25 3.962 21.909-18.138-19.345-6.229 1.123 6.463 35.788zm30.021-8.072c2.627 2.331 5.742 3.54 9.874 3.349 3.878-.191 7.184-1.336 10.044-4.64 2.52-2.884 3.177-5.997 2.924-11.253l-.276-5.297-13.709.678.297 5.976 6.674-.34.063 1.336c.107 1.885-.275 3.538-1.377 4.916-1.06 1.335-2.754 2.182-4.958 2.287-1.928.106-3.496-.529-4.619-1.652-1.398-1.462-1.907-3.22-2.246-10.172-.34-6.926-.021-8.686 1.229-10.275 1.017-1.229 2.5-2.055 4.428-2.161 3.624-.17 5.805 1.547 6.801 4.98l7.141-.361c-1.271-6.06-5.784-11.357-14.24-10.933-4.13.19-7.139 1.716-9.513 4.3-3.431 3.795-3.283 7.883-2.945 14.812.36 6.928.616 11.018 4.408 14.45m53.372 4.751c6.696.762 12.353-2.5 14.536-9.917l-7.162-.804c-1.039 2.86-3.158 4.83-6.652 4.428-1.93-.213-3.433-1.102-4.302-2.373-1.144-1.675-1.42-3.518-.636-10.404.783-6.908 1.441-8.624 2.924-10.001 1.165-1.06 2.818-1.59 4.724-1.356 3.518.38 5.086 2.776 5.467 5.806l7.205.805c-.466-7.713-5.191-12.14-11.95-12.905-4.154-.465-7.353.552-10.108 2.712-4.026 3.18-4.534 7.248-5.319 14.134-.76 6.907-1.185 10.954 2.013 14.98 2.204 2.713 5.107 4.429 9.26 4.895m42.728 1.38-16.083-3.687 6.739-29.262-6.909-1.59-8.157 35.428 22.99 5.276zm13.488 11.585c7.035 2.48 14.302-.338 16.866-7.607l7.925-22.523-6.653-2.351-7.84 22.31c-1.398 3.942-4.576 5.467-8.2 4.197-3.602-1.273-5.086-4.45-3.708-8.392l7.86-22.29-6.695-2.374-7.924 22.546c-2.564 7.267 1.335 14.005 8.369 16.484m38.816-.24c2.882 1.442 3.348 3.92 2.246 6.103s-3.39 3.326-6.251 1.885l-6.61-3.326 4.004-7.988zm.02-16.505 6.188 3.115c2.691 1.356 3.454 3.623 2.332 5.847-1.124 2.247-3.391 2.988-6.082 1.633l-6.209-3.115zm-6.228 30.47c5.785 2.903 11.59 1.716 14.642-4.366 2.181-4.322.698-7.628-.807-9.535 2.035.043 5.574-1.08 7.375-4.683 2.796-5.572.89-10.996-5.445-14.175l-13.032-6.547-16.336 32.462zm48.47-5.641 4.363 3.22c1.929 1.42 2.86 3.073 2.946 4.96.127 2.054-1.124 3.982-4.513 8.6-3.39 4.6-4.873 6.358-6.886 6.845-1.822.487-3.687.085-5.616-1.335l-4.343-3.22zm-.975 29.983c3.665-1.187 5.911-4.154 9.492-8.985 3.559-4.852 5.742-7.904 5.784-11.74.043-4.448-1.716-7.838-5.7-10.783l-10.572-7.777-21.55 29.262 10.552 7.775c3.984 2.945 7.755 3.624 11.994 2.246m20.802 26.124 4.343-4.617-12.289-11.529 6.06-6.44 10.446 9.831 4.344-4.619-10.467-9.832 5.849-6.208 12.267 11.547 4.343-4.617-17.437-16.4-24.897 26.485zm30.79 13.57c.933 1.61 1.124 2.351 1.037 3.326-.147 1.081-.72 1.992-1.694 2.733-2.31 1.78-4.98 1.018-7.564-2.33-2.035-2.627-3.349-5.55-2.924-8.793l-6.442-.805c-.678 5.042.953 9.068 4.323 13.434 4.704 6.059 11.399 8.22 16.972 3.898 2.585-2.013 4.11-4.28 4.343-6.907.233-2.205-.338-4.344-1.992-7.247l-2.139-3.835c-.785-1.335-1.038-2.5-.933-3.476.085-1.038.657-1.8 1.42-2.393 1.97-1.527 4.725-1.398 7.035 1.588 1.482 1.886 2.945 4.302 2.584 7.416l6.273.826c.465-4.3-.784-7.925-3.835-11.865-4.81-6.229-11.357-7.226-16.486-3.263-2.415 1.886-3.772 4.026-4.046 6.442-.255 2.267.338 4.598 1.928 7.416zm1.945 28.619 3.707 6.06 25.596-15.679 4.959 8.094 5.403-3.306-13.624-22.246-5.382 3.304 4.937 8.116-25.596 15.658zm41.117 12.236 2.797 6.08c1.314 2.818.36 5.51-2.183 6.696-2.563 1.166-5.213.148-6.527-2.67l-2.796-6.081 8.709-4.026zm-27.27 12.585 13.179-6.082 2.14 4.64-10.192 12.523 3.454 7.459 10.828-13.941c2.627 2.668 6.801 4.173 11.441 2.033 5.51-2.563 8.264-8.666 5.17-15.383l-5.975-12.925-33.011 15.235zm38.29 26.938-11.251 8.262-2.733-8.602zm-27.08-.573 6.781.148 3.941 12.29-5.466 4.005 2.246 7.055 30.576-23.71-1.675-5.297-38.67-1.525zm32.878 20.28c-3.01.593-5.192 1.885-6.527 3.92-1.23 1.906-1.759 4.238-1.61 7.479l.19 4.387c.086 1.864-.063 2.627-.593 3.453-.593.89-1.525 1.442-2.733 1.674-2.86.551-4.895-1.336-5.7-5.51-.636-3.24-.467-6.462 1.335-9.131l-5.382-3.644c-2.883 4.194-3.22 8.539-2.183 13.941 1.463 7.522 6.485 12.46 13.391 11.124 3.221-.614 5.616-1.97 6.992-4.216 1.187-1.843 1.654-4.006 1.484-7.353l-.19-4.386c-.085-1.547.212-2.69.72-3.517.572-.89 1.42-1.314 2.373-1.505 2.459-.465 4.852.869 5.572 4.578.446 2.373.68 5.17-1.038 7.797l5.213 3.56c2.373-3.624 2.883-7.417 1.928-12.332-1.504-7.713-6.886-11.548-13.242-10.32m-3.855 41.355.53 7.395c.232 3.2-1.632 4.874-4.09 5.042-2.437.17-4.576-1.207-4.81-4.406l-.55-7.374zm14.726-1.06.487 6.929c.234 2.987-1.335 4.788-3.834 4.98-2.48.19-4.302-1.377-4.514-4.386l-.508-6.93zm-29.368 10.256c.467 6.462 4.472 10.85 11.252 10.34 4.83-.34 6.929-3.305 7.775-5.573.997 1.76 3.794 4.237 7.82 3.942 6.207-.446 9.874-4.874 9.365-11.952l-1.06-14.555-36.254 2.627zm28.25 35.635c-1.609 1.23-3.369 1.589-10.296 1.186-6.929-.402-8.581-.952-10.044-2.371-1.102-1.083-1.843-2.714-1.716-4.663a6.16 6.16 0 0 1 2.246-4.47c1.61-1.23 3.305-1.548 10.255-1.124 6.929.403 8.645.911 10.086 2.309 1.123 1.144 1.78 2.777 1.674 4.705-.106 1.95-.974 3.475-2.204 4.428m-9.153-18.54c-6.929-.403-11.018-.594-14.832 2.819-2.606 2.308-4.153 5.339-4.408 9.512-.232 4.175.975 7.332 3.264 9.917 3.412 3.814 7.479 4.175 14.429 4.577 6.928.382 11.02.53 14.832-2.882 2.586-2.309 4.153-5.276 4.387-9.45.254-4.195-.954-7.374-3.243-9.96-3.41-3.834-7.5-4.13-14.429-4.532m-22.83 44.55c-1.293 7.332 2.67 14.049 10.254 15.383l23.54 4.132 1.23-6.95-23.307-4.089c-4.11-.721-6.145-3.602-5.489-7.394.678-3.772 3.56-5.743 7.67-5.022l23.288 4.09 1.228-6.993-23.54-4.131c-7.586-1.336-13.583 3.621-14.874 10.975m11.766 39.092 1.97-6.377 9.174 2.818-1.97 6.398c-.933 2.967-3.432 4.324-6.103 3.497-2.69-.826-3.982-3.348-3.071-6.336m-17.525-12.417 13.837 4.281-1.504 4.874-15.934 2.5-2.436 7.84 17.374-3.115c.17 3.75 2.268 7.65 7.162 9.154 5.785 1.801 11.93-.911 14.111-7.967l4.196-13.625L602.02 415zm9.178 30.302c-6.336-2.86-10.065-4.493-14.875-2.692-3.263 1.271-5.784 3.497-7.479 7.268-1.59 3.538-2.098 7.014-.445 11.06 1.42 3.56 3.877 5.552 8.666 7.734l4.83 2.182 5.659-12.522-5.446-2.46-2.754 6.103-1.209-.551c-1.715-.784-3.03-1.865-3.75-3.495-.699-1.547-.677-3.433.212-5.446.805-1.76 2.097-2.86 3.602-3.349 1.95-.593 3.75-.232 10.065 2.629 6.335 2.86 7.734 3.941 8.602 5.784.614 1.462.678 3.178-.106 4.936-1.503 3.306-4.026 4.45-7.542 3.772l-2.924 6.527c5.975 1.631 12.734.041 16.23-7.691 1.696-3.772 1.696-7.12.509-10.404-1.822-4.81-5.51-6.527-11.845-9.388"/><path d="m94.586 145.143 138.828 121.792c.043.446.106.891.212 1.315 2.077 8.814 15.49 15.001 21.931 17.946.954.467 1.737.827 2.266 1.081 7.29 3.772 16.04 9.408 17.99 12.967 1.017 1.844 1.293 3.56.805 5.086-.55 1.695-2.013 3.136-4.258 4.216-.806.382-1.654.552-2.713.552-4.152 0-12.162-2.628-31.487-8.985-7.521-2.459-16.78-5.509-28.202-9.174-11.229-3.602-21.655-5.424-31-5.424-26.548 0-36.294 14.365-37.227 15.827-9.852 12.29-15.32 45.196-7.586 85.625.382 1.928.762 3.856 1.187 5.804 10.89 49.73 38.436 94.567 77.593 126.264 38.755 31.401 87.53 48.693 137.324 48.693 2.331 0 4.641-.064 6.971-.128 31.784-1.017 63.291-9.006 91.578-23.266l13.138-6.61-14.219 3.729c-5.169 1.356-23.9 5.784-48.521 5.784-28.541 0-70.157-6.144-106.24-35.363-39.518-31.996-52.59-75.454-56.871-98.508-5.997-32.375-2.034-61.023 5.254-70.048 6.971-8.603 18.52-10.977 30.766-13.477 12.862-2.627 26.19-5.36 34.665-15.827l.022-.022c8.475-10.488 8.39-24.07 8.284-37.229-.106-12.48-.191-24.282 6.801-32.886 7.692-9.49 37.44-19.746 72.127-19.746 27.376 0 67.528 6.103 103.465 35.195 62.38 50.534 61.85 129.843 61.108 145.227l-.72 14.727 3.75-14.26c21.846-82.977-7.119-171.481-73.78-225.471-53.33-43.183-111.24-49.645-141.01-49.645-43.416 0-76.449 12.714-86.726 25.278-1.737 1.675-22.269 23.054 4.006 68.885a3661 3661 0 0 0 14.852 25.701c13.117 22.567 16.23 27.928 15.34 31.678-.507 2.14-1.97 5.742-5.932 5.742-.762 0-1.59-.148-2.437-.403-3.898-1.186-11.251-8.56-16.42-14.895-.362-.466-.87-1.145-1.505-1.992-4.281-5.764-13.2-17.735-22.354-17.735-.382 0-.763.021-1.123.063L96.536 142.749c-.318-.233-1.762-1.197-2.123-1.176-.466.573-.932 1.166-1.398 1.739.044.426 1.4 1.57 1.571 1.83"/><path fill="#fff" d="m236.42 258.243.212-.276c1.291-1.59 2.711-2.797 4.215-3.602L126.132 168.7l107.638 94.436c.467-1.652 1.356-3.283 2.65-4.893"/><path fill="#fff" d="M245.638 256.25c-2.436 0-4.597 1.208-6.59 3.666l-.211.254c-2.056 2.543-2.755 4.937-2.204 7.374 1.717 7.351 14.683 13.307 20.215 15.85 1.017.465 1.843.868 2.414 1.144 1.633.847 16.04 8.39 19.262 14.196 1.44 2.585 1.8 5.192 1.038 7.543-.806 2.521-2.84 4.618-5.87 6.06-1.228.572-2.52.848-4.025.848-4.663 0-12.248-2.48-32.461-9.133-7.523-2.459-16.76-5.488-28.204-9.174-10.91-3.496-21.018-5.277-30.045-5.277-25.658 0-34.537 14.303-34.622 14.452l-.128.169c-9.916 12.226-15.106 46.679-5.848 88.886 10.743 49.052 37.908 93.274 76.514 124.527 38.203 30.957 86.28 47.993 135.375 47.993 29.091 0 58.184-5.976 84.86-17.333a215.935 215.946 0 0 1-35.893 3.03c-29.072.021-71.406-6.25-108.211-36.042-29.856-24.176-50.43-59.816-57.952-100.35-6.4-34.496-1.76-63.121 5.89-72.55 7.65-9.473 20.3-12.056 32.526-14.557 12.352-2.542 25.129-5.15 32.905-14.768 7.797-9.62 7.713-22.652 7.608-35.258-.085-12.48-.191-25.406 7.479-34.856 8.328-10.276 38.479-20.913 74.542-20.913 27.863 0 68.778 6.229 105.414 35.893 52.337 42.378 61.194 104.566 62.274 133.934 15.256-77.804-13.668-158.576-75.814-208.9-52.59-42.589-109.694-48.945-139.062-48.945-42.526 0-74.648 12.162-84.373 24.197l-.149.148c-.212.213-21.018 20.66 4.493 65.177a4233 4233 0 0 0 14.854 25.68c14.28 24.58 16.844 28.986 15.658 33.966-1.23 5.15-4.493 8.095-8.942 8.095-1.08 0-2.204-.191-3.348-.53-6.377-1.95-16.74-14.473-17.905-15.913a58 58 0 0 1-1.588-2.077c-3.666-4.937-12.29-16.505-19.876-16.505"/><path d="M547.05 405.273c0-72.236-58.783-131.02-131.041-131.02s-131.042 58.784-131.042 131.02c0 72.258 58.784 131.04 131.042 131.04s131.041-58.782 131.041-131.04"/><path fill="#fff" d="M416.009 277.95c-70.22 0-127.344 57.125-127.344 127.323 0 70.22 57.124 127.344 127.344 127.344s127.344-57.124 127.344-127.344c0-70.198-57.124-127.324-127.344-127.324"/><g fill="#004996"><path d="M491.273 466.51c9.897 0 19.366-1.821 29.856-11.696 10.488-9.894 12.925-23.413 12.925-30.065 0-6.655-2.84-20.575-12.12-28.246s-27.63-11.697-31.466-12.502c-3.835-.826-10.891-2.034-10.891-11.4 0-9.386 6.95-12.416 10.891-12.416s6.95 3.03 9.386 5.445c2.416 2.417 1.208 11.21 11.802 11.21 10.596 0 10.596-12.418 2.416-24.22-8.158-11.8-19.069-12.416-24.218-12.416-5.13 0-31.17 3.03-31.17 32.4 0 29.344 30.26 31.76 39.052 34.197 8.772 2.415 16.336 9.365 16.336 19.663s-9.98 19.662-22.693 19.662-17.247-6.038-19.069-10.593c-1.822-4.535-3.644-13.604-5.15-19.049s-10.297-13.922-10.297-13.922-34.495-26.633-40.238-32.396c1.505 0 32.672-2.12 32.672-32.991 0-30.852-36.295-32.377-36.295-32.377h-56.299c-4.852 0-7.924 4.535-7.924 9.09v95.328c0 6.04 6.315 9.98 10.848 9.98s9.79-5.742 9.79-9.79v-84.733h50.238c3.623 0 9.685 4.45 9.685 11.908 0 7.48-7.058 12.31-11.295 12.31h-34.304c-4.238 0-8.285 5.446-8.285 10.087 0 4.64 4.238 8.262 4.238 8.262s39.156 30.068 47.42 35.916c-2.628.213-42.377 9.895-42.377 49.836s35.914 54.265 45.597 54.265h46.425s8.666-1.801 8.666-9.875c0-8.072-8.666-9.682-8.666-9.682h-43.184c-3.835 0-28.054-3.221-28.054-32.695 0-29.453 30.66-32.08 32.482-32.08s6.865 0 11.506 1.42c6.06 40.745 31.868 42.166 41.763 42.166"/><path d="M374.25 442.196h-36.614v-39.644l-2.564-2.563v-21.042l-5.616-7.86-3.94-40.555-3.92 40.555-6.357 7.861v20.892l-4.238 4.237v59.307s16.548 27.229 37.78 37.526h39.39l5.763-4.534s-19.684-7.267-19.684-54.18"/></g></svg>