<svg xmlns="http://www.w3.org/2000/svg" xmlns:xlink="http://www.w3.org/1999/xlink" width="250.4" height="249.794" viewBox="0 0 250.4 249.794"><linearGradient id="a"><stop offset="0" stop-color="#ffefaf"/><stop offset=".005" stop-color="#ffefaf"/><stop offset="1" stop-color="#ffcd16"/></linearGradient><linearGradient xlink:href="#a" id="b" x1="137.7" x2="161.2" y1="106.8" y2="106.8" gradientUnits="userSpaceOnUse"/><linearGradient xlink:href="#a" id="c" x1="139.6" x2="158.2" y1="116.4" y2="116.4" gradientUnits="userSpaceOnUse"/><linearGradient xlink:href="#a" id="d" x1="89.9" x2="108" y1="106.7" y2="106.7" gradientUnits="userSpaceOnUse"/><linearGradient id="e" x1="120.6" x2="129.7" y1="136.4" y2="136.4" gradientUnits="userSpaceOnUse"><stop offset="0" stop-color="#ffefaf"/><stop offset="1" stop-color="#f28c00"/></linearGradient><linearGradient id="f" x1="148.8" x2="170.9" y1="52.2" y2="52.2" gradientUnits="userSpaceOnUse"><stop offset="0" stop-color="#042453"/><stop offset="1" stop-color="#002e5f"/></linearGradient><linearGradient xlink:href="#a" id="g" x1="96.7" x2="157.7" y1="58.5" y2="58.5" gradientUnits="userSpaceOnUse"/><linearGradient id="h" x1="105.3" x2="147.3" y1="64.2" y2="56" gradientUnits="userSpaceOnUse"><stop offset="0" stop-color="#002e5f"/><stop offset=".129" stop-color="#002e5f"/><stop offset=".258" stop-color="#a4bde4"/><stop offset=".418" stop-color="#002e5f"/><stop offset=".778" stop-color="#002e5f"/><stop offset="1" stop-color="#002e5f"/></linearGradient><g fill="#002d62" stroke="gray"><path fill-rule="evenodd" stroke-width=".8" d="m41.7 77.545-24-16 3.1-4.6 19.9 13.3 4.9-7.4 4 2.7zm-6.4-38.7 14.1 14.4c1.9 2 3.7 2.1 5.6.3 2-1.9 1.8-3.8-.1-5.7l-14-14.5 3.9-3.8 14.1 14.4c4.4 4.6 3.6 9.1-.5 13.1-4 3.9-8.5 4.6-13 .1l-14-14.5zm31.5-24.1 2.6 4.2-5.4 3.4 12.6 20.3-4.6 2.9-12.7-20.3-5.4 3.4-2.6-4.1zm9.5 5.5c-2.4-6.6.2-10.3 5.2-12.2s9.4-.8 11.9 5.9l3.6 9.6c2.4 6.7-.2 10.4-5.2 12.3-5 1.8-9.4.7-11.9-5.9zm9 8.4c1.1 3 2.7 3.3 4.8 2.5 2-.7 3-2 1.9-5l-4-11c-1.2-3-2.8-3.3-4.8-2.6-2.1.8-3.1 2.1-2 5.1zm18.6 2.6-3.5-28.5 6-.8 9.6 16h.1l-2.1-16.9 5-.6 3.5 28.6-5.2.6-10.6-17.4h-.1l2.3 18.4zm53.9-26.6-1 4.8-6.3-1.2-4.5 23.4-5.4-1 4.5-23.5-6.3-1.2 1-4.8zm3.2 10.6c2.7-6.5 7.2-7.5 12.1-5.4s7.4 5.9 4.7 12.4l-4 9.5c-2.7 6.6-7.2 7.5-12.1 5.4-4.9-2-7.4-5.8-4.7-12.4zm.9 12.3c-1.3 2.9-.3 4.3 1.7 5.1 2 .9 3.7.6 4.9-2.4l4.5-10.8c1.2-2.9.3-4.3-1.7-5.1-2.1-.9-3.7-.6-4.9 2.4zm28.4-9.6 4 3.1-8.7 17.2h.1l14.8-12.3 4.1 3.3-8.6 17.3h.1l14.7-12.3 4 3.2-22.8 18.6-4.2-3.3 9.1-17.9v-.1l-15.7 12.7-4.1-3.3zm7.8 44.7 23.6-16.5 3.4 4.9-9.5 16.1 14-9.8 2.9 4.2-23.6 16.5-3-4.3 10.4-17.6h-.1l-15.2 10.6zM16.6 185.445l24.4-15.3 7.3 11.7-3.6 2.3-4.7-7.5-6.3 4 3.5 5.6-3.6 2.3-3.5-5.7-10.9 6.8zm28.5 3.7c3-2.8 7.1-3.3 10.6.5s2.7 7.8-.2 10.6l-10.9 10.1c-3 2.8-7 3.3-10.6-.5-3.5-3.8-2.7-7.8.3-10.6zm-7.4 13.6c-1.6 1.5-1.9 2.7-.6 4.1 1.4 1.5 2.6 1.2 4.1-.2l10.7-10c1.6-1.4 1.9-2.6.6-4-1.4-1.5-2.6-1.3-4.1.2zm21.8 1.1c2.4-3.3 6.3-4.6 10.5-1.6s4.2 7.1 1.9 10.4l-8.7 12.1c-2.3 3.3-6.2 4.6-10.4 1.6s-4.3-7.1-1.9-10.4zm-4.5 14.8c-1.3 1.8-1.4 3 .3 4.1 1.6 1.2 2.7.7 4-1l8.4-11.9c1.3-1.7 1.4-3-.2-4.1-1.7-1.2-2.8-.7-4 1.1zm25.1-4.8-4.3-2.1 1.9-3.8 13.1 6.2-1.9 3.9-4.3-2.1-10.5 22.1-4.5-2.1zm13 1.2 7.1 1.9c5.1 1.4 6.7 4.6 5.5 9.3-.7 2.4-2.3 4.6-4.9 5 2.1 1.7 3.1 4 2.1 7.6-1.2 4.6-4.2 7.5-9.6 6l-7.6-2zm-1.5 25.2 2 .5c2.5.7 3.8-.5 4.6-3.3.7-2.9 0-4.6-2.8-5.3l-1.6-.5zm3.3-12.4 1.8.4c1.8.5 3.5-.4 4.1-2.7.7-2.6.1-4.2-2.1-4.7l-1.8-.5zm15 20.4-4.7-.5 7.9-28.2 6.1.6 2.6 29.2-4.7-.5-.3-6.4-5.4-.5zm2.6-10.5 3.9.4-.8-12.5h-.1zm15.8 11.4-2.1-28.7 5-.4 1.7 24.5 7.7-.6.3 4.3zm18.8-1.9-6.4-28.1 4.9-1.1 5.4 23.9 7.6-1.7.9 4.2zm28.3-30.3-1-1.9c-1.1-2.2-2.6-2.6-3.7-2-1.8.9-1.9 2.1-.9 4l6.8 13c1 1.9 2 2.5 3.8 1.6 1.6-.8 1.6-2 .8-3.7l-1.6-3.1 4.3-2.3 1.6 3c1.8 3.6 1.2 7.6-3.1 9.9-4.6 2.4-8.3.6-10.2-3l-6.8-13.2c-1.9-3.6-1.3-7.6 3.3-10 4.4-2.3 8.2-.2 10.2 3.6l.9 1.9zm20.8 9.7-17.6-22.8 3.9-3 15 19.3 6.2-4.7 2.6 3.4zm-7.2-30.9 3.4-3.6 15.9 14.9c1.5 1.5 2.8 1.6 4.1.3 1.2-1.3 1-2.7-.5-4.1l-15.9-14.9 3.4-3.6 15.7 14.8c3.6 3.3 3.6 7.3.4 10.7s-7.2 3.7-10.8.3zm12.9-14.3 3.9-6.3c2.8-4.5 6.3-5.1 10.5-2.5 2.1 1.3 3.7 3.6 3.3 6.1 2.3-1.5 4.7-1.8 7.9.2 4 2.5 6 6.2 3 11l-4.1 6.6zm12.6 2 1-1.5c1-1.6.6-3.5-1.4-4.8-2.3-1.4-4-1.2-5.2.6l-.9 1.6zm11 6.8 1.1-1.7c1.3-2.3.5-3.9-1.9-5.4-2.5-1.6-4.4-1.4-5.9 1.1l-.9 1.4z"/><g stroke-width=".4"><path d="M.2 130.545c1 0 1.7-.2 1.7-1.7v-9.5c0-1.5-.7-1.7-1.7-1.7v-.4h8.7l.1 2.5h-.5c-.2-1.2-.8-1.7-2.2-1.7H4.6c-1 0-1 .2-1 1.7v3.6H6c1.3 0 1.8-.3 1.8-1.7h.4v4.3h-.4c0-1.2-.5-1.8-1.8-1.8H3.6v4.3c0 1.6.1 1.7 1 1.7h1.8c1.5 0 2.1-.5 2.4-1.9h.5l-.2 2.7H.2zm18.3-10.3c-.1-1.1-.9-2.4-3-2.4-1.2 0-2.4.9-2.4 2.2 0 1.9 2.3 2.5 4 3.5 1.5 1 2.5 1.8 2.5 3.8 0 2.6-2.1 3.8-4.7 3.8-1.3 0-2.8-.3-3.3-.4l-.1-2.9h.4c.2 1.1 1.1 2.4 3.1 2.4 1.7 0 2.8-1.2 2.8-2.6 0-2.2-3.2-2.9-4.9-4.4-.9-.7-1.3-1.4-1.3-2.7 0-2.5 1.9-3.5 4.3-3.5 1.3 0 2.1.2 3 .4l.1 2.8zm4.2 10.3c1.2 0 1.8-.2 1.8-1.7v-10.8h-1.1c-2 0-2.3.9-2.4 2h-.5l.1-2.8h9.6l.1 2.8h-.5c-.1-1.3-.6-2-2.5-2h-1.1v10.8c0 1.5.7 1.7 1.9 1.7v.4h-5.4z"/><path fill-rule="evenodd" d="M214.1 130.545c1.6 0 1.9-.2 1.9-2.2v-6.8c0-1.1-.2-1.6-1-1.6-.3 0-.9.2-1.1.3v-.4l3-1.7h.6v10.2c0 2 .4 2.2 1.5 2.2v.4h-4.9zm8-3c0-2.2 1.1-2.9 2.3-3.2v-.1c-1.1-.3-2.1-1-2.1-2.9 0-2 1.5-3.3 3.6-3.3s3.5 1.2 3.5 3.3c0 2-1.2 2.7-2.1 2.9v.1c1.1.3 2.4 1 2.4 3.2 0 2.6-1.6 3.5-3.8 3.5-2.4 0-3.8-1.3-3.8-3.5zm3.8 2.7c1.4 0 2.1-1.2 2.1-2.7 0-1.6-.7-2.8-2.1-2.8-1.5 0-2.1 1.2-2.1 2.8 0 1.5.6 2.7 2.1 2.7zm0-6.4c1.4 0 1.8-1.1 1.8-2.5 0-1.3-.5-2.4-1.8-2.4s-1.9 1.2-1.9 2.4c0 1.3.5 2.5 1.9 2.5zm6.5 3.7c0-2.2 1.1-2.9 2.3-3.2v-.1c-1.1-.3-2.1-1-2.1-2.9 0-2 1.5-3.3 3.6-3.3s3.5 1.2 3.5 3.3c0 2-1.2 2.7-2.1 2.9v.1c1.1.3 2.4 1 2.4 3.2 0 2.6-1.6 3.5-3.8 3.5-2.4 0-3.8-1.3-3.8-3.5zm3.8 2.7c1.4 0 2.1-1.2 2.1-2.7 0-1.6-.7-2.8-2.1-2.8-1.5 0-2.1 1.2-2.1 2.8 0 1.5.6 2.7 2.1 2.7zm0-6.4c1.4 0 1.8-1.1 1.8-2.5 0-1.3-.5-2.4-1.8-2.4s-1.9 1.2-1.9 2.4c0 1.3.5 2.5 1.9 2.5zm8.3 0c.3-.1 1.1-.6 2.3-.6 1.9 0 3.4 1.4 3.4 3.5 0 3-2.4 4.3-4.8 4.3-1.4 0-2.4-.3-2.8-.3v-.9c.7.2 1.2.4 2.1.4 2 0 3.8-1.2 3.8-3.6 0-1.1-.8-2.5-2.3-2.5-1.1 0-1.7.7-2.1 1.1h-1l.3-7h6v1h-4.6z"/></g></g><path fill="#fff" fill-rule="evenodd" d="m102.1 81.745-14.2 7.1-12.9-3.3-5.2 10.6 7.7 3.2 3 16.3-4.7 12.1-8.5 6.9 5.6 8.4 1.8 25.5 5.8 13 11.5 4.2 7.1-1 4.1 7.9 15.5 7.6 6.5 7.5 6.5-7.5 15.4-7.6 4.2-7.9 7 1 11.5-4.2 5.9-13 1.8-25.5 5.5-8.4-8.4-6.9-4.8-12.1 3.1-16.3 7.7-3.2-5.3-10.6-12.8 3.3-14.3-7.1-10.7.2-3.2 3.8h-18.2l-3.2-3.8z"/><path fill="#f28c00" fill-rule="evenodd" d="m75 125.645 40.8-.1v-42.9s-5.8-3.1-10.2-.9c-4.3 2.3-13.4 6-21.5 5.3-5-.3-5.5-1.5-5.5-1.5l-6.8 11.8s9 5.6 9.4 9.2c0 0 3 6.6-.2 11.8-3.2 5.1-6 7.3-6 7.3"/><path fill="#002e5f" fill-rule="evenodd" d="m176.1 125.645-41.5-.1v-44.1s5.8-1.9 10.2.3c4.4 2.3 13.4 6 21.6 5.3 4.9-.3 5.5-1.5 5.5-1.5l6.8 11.8s-9.1 5.6-9.5 9.2c0 0-3 6.6.2 11.8 3.2 5.1 6.7 7.3 6.7 7.3M115.6 199.145v-54.6l-44.7-.2s3.5 8.4 3.7 18.4c.2 10.1 1.5 18 16.6 21.4 10.8 2.5 24.4 15 24.4 15"/><path fill="#f28c00" fill-rule="evenodd" d="M134.7 197.545v-53l44.8-.2s-3.7 8.4-3.9 18.4c-.1 10.1-1.4 18-16.6 21.4-10.8 2.5-24.3 13.4-24.3 13.4"/><path fill="none" stroke="#000" d="m181 134.145-4.7-8.6h-41.4v-38.8h-19.3v38.8H74.5l-4.6 8.3 3 10.9h42.7v54.7l9.7 4.9 9.6-4.9v-54.7H178z"/><path fill="#b3b3b3" fill-rule="evenodd" stroke="#000" stroke-linecap="round" stroke-width="1.2" d="M125.7 83.445s5.8.1 6.5-.3c.7-.3 2.9-4.6 13-4 10.2.5 15 5.5 18.9 6.4 3.9.8 4.3.2 4.3.2s-1.9-3.5 1.7-5.4c3.5-1.9 6.3 2 6.8 3.5.6 1.6 1.2 3.8 1.9 4.9.6 1.1 4.6 4.6 5.5 6.5s.1 4.9-1.1 5.5c-4.6 2.3-6.2-1.4-6.2-1.4s-5.6 3.5-3.1 15.4c2.6 12 8.2 16.8 8.2 16.8s-3.1-4.1 1.9-6.1c2.7-1.1 4.9 2 5.2 3.1.7 3.4-1.3 5.9-3.8 7.8-2.5 1.8-7.3 5-6.6 18.1.6 13 1.8 20.1-5.8 28.3-7.5 8.1-20.8 4.9-20.8 4.9s-2.7 6.3-7 9.5c-5.7 4.3-13.8 4.1-16.1 8.9-.2.4 2.3 6.9-3.8 6.9h-.3c-6.1 0-3.5-6.5-3.7-6.9-2.4-4.8-10.4-4.6-16.2-8.9-4.2-3.2-6.9-9.5-6.9-9.5s-13.4 3.2-20.9-4.9c-7.5-8.2-6.4-15.3-5.7-28.3.6-13.1-4.1-16.3-6.7-18.1-2.5-1.9-4.5-4.4-3.7-7.8.3-1.1 2.4-4.2 5.2-3.1 4.9 2 1.9 6.1 1.9 6.1s5.6-4.8 8.1-16.8c2.6-11.9-3.1-15.4-3.1-15.4s-1.5 3.7-6.1 1.4c-1.2-.6-2-3.6-1.2-5.5.9-1.9 4.9-5.4 5.6-6.5.6-1.1 1.3-3.3 1.8-4.9.6-1.5 3.4-5.4 6.9-3.5s1.6 5.4 1.6 5.4.5.6 4.4-.2c3.8-.9 8.7-5.9 18.8-6.4 10.2-.6 12.4 3.7 13.1 4 .6.4 6.5.3 6.5.3zm-1 4.6-5.3.1s-2.8 3.8-6.2 1.3c-2.8-2-.1-4.8-.1-4.8s-.1-1.2-4-1.2c-5 0-11.4 6.4-19 7.5-7.7 1.1-12.8-2.7-12.8-2.7s-.3 1.9-.9 3c-.7 1.1-1.9 2.2-1.9 2.2s11 3.3 8.9 22.2c-1.6 15-12.9 20-12.9 20s4.7 3 6.2 11.5c1.1 6.2-.1 15.9 1.5 22.4 1.2 4.7 4.1 11.3 12 12.9 7.8 1.7 8.5-1.6 10.7-.6s.2 4.8 5.6 9c1.7 1.4 8.3 3.5 11.7 5.7 2.3 1.4 6.9 7.3 6.9 7.3v-.1s4.7-5.8 6.9-7.2c3.5-2.2 10-4.3 11.7-5.7 5.4-4.2 3.5-8 5.7-9s2.8 2.3 10.7.6c7.8-1.6 10.7-8.2 11.9-12.9 1.7-6.5.4-16.2 1.5-22.4 1.6-8.5 6.2-11.5 6.2-11.5s-11.2-5-12.9-20c-2.1-18.9 9-22.2 9-22.2s-1.3-1.1-1.9-2.2c-.7-1.1-.9-3-.9-3s-5.2 3.8-12.8 2.7-14-7.5-19-7.5c-4 0-4.1 1.2-4.1 1.2s2.7 2.8-.1 4.8c-3.3 2.5-6.2-1.3-6.2-1.3l-5.3-.1z"/><path fill-rule="evenodd" d="M153.1 97.145c1.4.1 3 1.6 2.5 3 1 .1 2 .5 2.7 1.1.7.7 1.2 2 .9 3 .9.9 2.8 1.7 2.5 3.7-.1.5-.4.8-.7 1.1.9.8 1.7 2.7.7 4 .4.7.8 1.5.5 2.4-.2.6-.7 1.1-.6 1.6-1.2.8-3 .8-4.9 1.1-1.2.2-2.5.6-3.9.7-2.7.1-5.5.2-8.4 0-.5 0-1.1-.2-1.6-.2-1-.2-2.2-.3-2.9-.5-.5-.2-1.2-.8-1.7-1.2-.4-.3-.8-.4-1-.9-.5-1.2.1-2.4.7-3-1.2-1.4 0-3.3 1.1-4-.5-.3-.5-1.8-.2-2.5.5-1 1.7-1.7 2.4-2.2-.6-2.4 1.8-4.2 3.7-4.6 0-1.6 1.5-2.5 2.9-2.9.2-.2.2-.5.3-.7.6-.5 1.8-.7 2.5-.8.6.2 1.3.3 1.7.7.1.1.1.3.2.4.2.2.6.3.6.7"/><path fill="#ffefaf" fill-rule="evenodd" d="M150.2 96.145c.3 0 .5.2.6 0-.2-.1-.5-.1-.6 0"/><path fill="url(#b)" d="M148.1 97.5c-1.4 0-2.4.9-2.7 1.9 0 .3.4.2.4.6-.4.4-1 .2-1.4.3-1.3.5-2.6 1.7-2.7 3.4.1.2.5.2.5.5-1.2 1.1-3.2 1.5-2.9 4.2.4 0 .8 0 .9.4-.5.3-1 .7-1.4 1.2-.5.6-1.1 1.4-.5 2.1.4-.2.9-.2 1.1.2-.6.6-1.2 1.1-1.7 1.8-.2 1.2.4 1.7.9 2.3 2.5-1.1 5.8-1.6 9.3-1.8-.5-1.3.4-3.3 1.4-3.5 1.9-.4 3.1 1.4 2.6 3.5 2.6.1 4.9.6 7 1.2.2.2.6.3.7.6q.5-.1.9-.3c.2-.9 1.1-1.8.5-2.9-1.6 0-.3-.9 0-1.6.6-1.5-.8-2.2-1.4-3.1.2-.4.6-.6.8-.9.8-2.1-1.8-2.6-2.5-3.5.3-.9.3-1.8-.1-2.4-.7-.9-3.3-1-3.5-2-.1-.3.2-.7.1-.9-.1-.8-1-1.2-1.8-1.1-.3-.4-.9-.5-1.5-.5-1 0-2.2.3-3 .3" transform="translate(.2 .345)"/><path fill="url(#c)" d="M146.1 115.3c-.9 0-1.8.3-2.6.4-1.6.1-2.9.5-3.9 1.1 5.3 1.3 13.4 1 18.6-.3-2.4-.9-5.9-1.3-9.3-1.3q-1.5 0-2.8.1" transform="translate(.2 .345)"/><path fill-rule="evenodd" d="M152.2 100.245c-1.1-.3-2.8-.2-3.9 0-.4.1-.8.1-.9.4.2.3.6.1.9.1q1.1-.1 2.3 0c.9 0 1.7.4 2.4.1 0-.4-.5-.5-.8-.6M155.7 103.745c.1.2.1.4.4.5.1-.1.2-.2.2-.4-.1-.2-.5-.3-.6-.1M156.8 104.145h.2v-.3h-.3c0 .1 0 .2.1.3M154.8 104.145c-.7-.1-1.6-.3-2.4-.2.4.2 1.9.8 2.4.2M143.6 104.445c.5.3 1.5-.2 2.2-.2 0-.2.3-.2.4-.3-.9.2-2.1 0-2.6.5M158.4 107.445c-.3-.2-.9-.2-1.5-.2.1.4 1.2.7 1.5.2M158.8 107.745q.1.4.6.5c0-.2.1-.2.1-.3-.1-.2-.5-.4-.7-.2M148.8 107.745h-2.4c-1.7.1-3 .3-4.2.6-.3.1-.8.1-.9.5.6 0 1.3-.3 2.1-.4 1.7-.2 3.8-.2 5.7-.2.3 0 .7.1.9-.1 0-.5-.8-.3-1.2-.4M159.8 109.145c-1.2-.5-3.2-1-4.6-.8 1.6.4 3.2.7 4.7 1.2 0-.2-.1-.3-.1-.4M159 111.645c-.2-.4-.7-.4-1.2-.4.1.4.9.6 1.2.4M146.2 111.345c-1.5.1-3 .3-4.2.6-.4.1-1.1.1-1.2.6 1.7-.5 3.9-.7 5.9-.8.9 0 1.5.2 2.1 0-.1-.7-1.9-.5-2.6-.4M155.8 111.945c1.1.2 2.2.4 3.3.7.1.2.7.4.7 0-.5-.3-1.2-.4-1.9-.6-.8-.1-1.6-.3-2.3-.4v.1q.1 0 .2.2M159.9 112.045c.1-.3-.2-.3-.6-.3.1.3.4.5.6.3M159.4 115.645c.2.2.3.4.7.5 0-.2.1-.2.1-.3-.3-.8-1.5-1.1-2.6-1.2.3.6 1.2.7 1.8 1"/><path fill="url(#d)" d="m99.5 91-.8 2-1.1-2.3-.7.8-.5 1.7-.3-1.1-.7-.5-.3 2-.1.8-.7-.8-.7-.5-.5 1.6L93 96l-.9-.7-.2.9.1 1.5v.4l-1-.3v2.9l-1 .2.3.3.1 1.4.6 1.2.1.8-1.2-.2.8 1.8.9 1.1.8.4.5 1.1.5 2 .1.9-.4 1.1.4 1 .5.9-2.8 6.5 1.7.7.9 1h1.6l2.1.3 2.3-.3 2.2.1 1.9-1.1 1 .1 1.4-.8-1.5-3.3-.8-2.9-.1-.7.7-1 .4-1.2-.7-.6-.4-.1.3-1.5.3-1.1.9-1.3 1-1.6.8-.4.5-1.1-.7-.8.5-.6.5-.8-1.5-.8 1.2-1.9.1-.5-1.5.1v-.8l.7-1.6-1-.5-1.3.5-.1-.8.9-2.7h-1l-1.9 1.2.4-1.8-.1-1.1-1.4 1.2-.6.9-.4-1.7-.2-1.7z" transform="translate(.2 .345)"/><g fill-rule="evenodd"><path d="M101.2 93.045c.6-.4 1-1 1.6-1.3v-.4c1.1.2.8 1.9.5 2.9.7-.3 1.1-1.1 2-1 .2-.2.4-.4.8-.2.1 1.4-.6 2.3-.9 3.4.6-.3 2.1-.3 1.6.6-.7-.2-1.5.2-2.1.5-.3-.3-.1-.8-.4-1.1.3-.8.8-1.5 1-2.4-1.4-.3-1.6 1.3-2.9 1.4-.7-.6.8-2.1.5-3.2-.9.7-1.3 1.7-2 2.6-.4-.2-.1-1.1-.5-1.3q.1-1.4-.1-2.5c-.4.3-.4.8-.5 1.2-.2.4-.5.8-.6 1.2-.1.2.1.6-.2.7-.6-.3-.6-1.4-.9-2-.1-.1-.3-.6-.4-.6-.2 0-.7 1.5-.7 1.8s.3.7-.1.9c-.8-.1-.5-1.4-1-1.8-.1.7-.4 1.8-.2 2.5 0 .3.3.4.1.6-.5.2-.5-.6-1-.6-.2-.4-.4-.8-.9-1-.2.6-.6 2 .1 2.4-.1.4-.4.6-.7.6-.3-.1-.4-.8-.8-.8-.1.5 0 1.2.1 1.7.1 0 .2-.1.4.1.4.6-.3.9-.6 1.2-.4 0-.3-.4-.8-.3-.2.7 0 1.7.2 2.4.3.2.7.7.5 1.1-.9.3-.9-.6-1.4-.8-.4 1.5.8 2.4 1.1 3.6-.4.6-1.1.4-1.6 0 .3.8 1 1.8 1.8 2.3.1 0-.1-.2.1-.1.6 1 1.1 2.1 1.3 3.5 0 .1.3 0 .3.2.1.4.3.7.6 1-.2.6-1 .8-.9 1.5 0 .4.4.4.4.9-1.5.4-1.3-2.2-.4-2.6-.1-1.4-.5-2.5-1-3.6-1-.3-1.7-1.1-2.2-2-.4-.6-.7-1.3-.6-2 .4-.2.7 0 1 .1-.2-1-.7-1.6-.6-2.9 0-.2-.3-.2-.3-.5.1-.3.7-.2 1-.2 0-1 .2-2.3-.1-3.1.4-.2.6.2 1 .2.2-.8-.1-1.7.1-2.5.3-.3.7 0 1.1.1.2-.8.3-1.7.7-2.5.7 0 .8.6 1.3.9.2-.8.2-1.9.6-2.4q.7.2 1 .8c.3-.6.9-1 .8-1.8.5 0 .6.5.8.8q.4.4.7.9c.5-.6.8-1.6 1.7-2 .5.6.4 1.9.6 2.9"/><path d="M104.4 111.545c1.2.1 1.8 2.1.7 2.7 0 .1.1.2.1.4-.2.2-.6.1-.8.2-.2 0 .1.1.1.2.3 1.8.8 3.6 1.6 5 .4.6 1.1 1.5.5 2-.9 0-1.7 1.1-2.7.5 0 .1-.1.4-.2.5-.5 0-1 .5-1.5.6s-1-.1-1.5-.1c-1.6-.1-3.7.9-4.9 0-1.2.4-2.7 0-3-.9-1-.1-2-.6-1.9-1.5 0-.2.3-.4.5-.6.2-.4.3-.9.6-1.4.7-1.1 1.5-2.6 2-3.9-.1-.2-.5-.1-.5-.4.9-.2 2.1-.3 2.9 0-.2.8-1.4 0-2 .3-1.1 2.1-1.8 4.1-2.7 6.2.1.3.5.4 1.1.4.2-.2.2-.6.4-.7.3.1.4.3.4.7.5-.8.8-1.9 1.2-2.8.2.8-.4 1.6-.5 2.4-.1.5-.1 1-.3 1.4.1.3.8.2 1 .1.3-1.3.6-2.8 1.2-3.8.4 1.2-.5 2.4-.3 3.7.4.5 1.7.7 2.2.1 0-.5 0-1.1.5-1.2.3.3.1.8.1 1.3.4.1.9 0 1.3-.1.1-1.2-.1-3.3.3-4.6.2.2.4.7.4 1 .2 1.1 0 2.5.2 3.7.7.3 1.4-.3 2-.3.2-.1.3-.2.4-.4h.5c-.1-1.1-.5-2.7-.5-3.9.4.1.6.6.7.9.2.8.3 2.1.6 2.8.4-.2 1-.3 1.4-.6-.9-2-1.7-4-2.1-6.6-1.3-.4-3 .6-3.8-.2.3.1.5-.3.9-.4.9-.3 2.1 0 3.2-.2.2-.5.9-1.3.2-1.8-.2 0-.1.2-.3.2-1.1-.2-2.4-.2-3.6-.2.1-.6 1.2-.1 1.6-.4q.3.1.8.1c-.1-.7.4-1.7.8-2.3.5.6-.5 1.4-.4 2.2.1.1.2 0 .3 0 .2-1.9 1.1-3 1.8-4.4.4-.4.9-.8 1-1.5.6-.1.8-.5 1.1-.9-.4-.4-.6-.8-.6-1.6.4-.1.7-.3.8-.6-.5-.5-1.7-.6-1.4-1.7.5-.5 1.1-.8 1.2-1.5-.7-.2-1.3.7-1.8.3 0-.3.3-.3.3-.5-.2-.2-.2-.3-.2-.7q.9-.7 1.3-2c.3-.2.3-.8.8-.6.1 1.1-.6 2.1-1.1 2.9.5.1 1.2-.3 1.7-.1.2 1.3-.9 2-1.5 2.8.3.2.6.2 1 .3.2-.1.3-.4.7-.2.3.9-.6 1.7-1.2 2.3.2.2.6 0 .9.3 0 1-.7 1.7-1.5 2-.2 1.2-1.5 1.4-1.8 2.6 0 .1.1 0 .1 0-.2.8-.7 1.6-.8 2.5M97.2 97.245c-.1-.6-.2-1.2-.1-1.9-.1-.1-.1-.2-.2-.3-.2.7-.4 1.9.3 2.2M99.3 96.945c.2-.5.5-1.3 0-1.5-.1.4-.4 1.3 0 1.5M101.2 97.345c0-.7-.2-1.2-.8-1.1.5.4.4 1.3.6 1.8.3.1.2-.4.2-.7M95.1 97.045c-.4.7-.4 2.3.4 2.6.1-.9-.5-1.7.1-2.3.2.2.3.5.5.9.1.4.1.8.4 1 .2-1-.2-2.5-1.4-2.2M103 98.245c.8.5 0 1.3-.1 2q.1 0 .1.1c.6-.3 1.1-1.5.6-2.2 0-.1.1-.1.1-.2-.2 0-.1-.2-.3-.2 0 .3-.3.3-.4.5M101.7 100.745c.4-.2 1-1 .7-1.6-.2.6-1 1-.7 1.6"/><path d="M104.8 102.345c.5 0 .7-1 .3-1.1-.1.3-.5.8-.3 1.1M96.4 102.745c.2-.2.1-.6 0-.8-.6-.4-.7.9 0 .8M95.7 104.245c-.2-.2-.4-.2-.6-.4-.3-.4-.2-1.2-.3-1.8-.1 0-.2-.1-.3-.1-.5.8.2 3.2 1.2 2.3M101.3 103.345c.2-.2.3-.5.3-.8-.1-.1-.1-.2-.3-.1-.1.3-.4.7 0 .9M105.4 104.445c.6.6 1.4-1.7.6-1.8-.1.7-.7 1.1-.6 1.8M99 102.945c-.1.6-.4 1.8.1 2.2.4-.4.5-2.1-.1-2.2M101.5 105.045c.2-.2.3-1 0-1.1-.2.3-.5.9 0 1.1M104.5 104.945c-.3.3-1 2-.5 2.4.4-.1.4-.7.5-1 .1-.4.4-.8.3-1.3q-.1 0-.3-.1M96.1 106.245c-.2 1.8.6 3.7.4 5.6-.4.1-1.1-.1-1 .4.2.1.8 0 1.2.1.1-.1.1-.3.3-.3-.1-1.6-.2-3.3-.5-4.6-.1-.4 0-.9-.3-1.2zM101.8 109.845c0 .3-.3.7 0 .9.4-1 1-2.6 1-3.8v-.1c-.4.9-.7 2-1 3M99.4 108.345c.2-.3 0-.7-.4-.7 0 .3 0 .7.4.7M99.5 111.945c0 .1.1.4.3.4.3-.9.3-2.6.3-3.5h-.2c0 .8-.6 2.2-.4 3.1M98.9 109.745q0 .3.3.3.2-.1.2-.3c-.2 0-.5-.3-.5 0M99.2 111.645c0-.4-.2-.5-.4-.5-.2.3.2.7.4.5M98 112.245c.2.2.4.1.7 0 0 .2.5.2.4-.1-.3-.1-.7-.1-1-.2-.1.1-.2.2-.1.3M155.1 146.045c.1.4 0 .9.4 1.1.5-.1.8-.6 1.2-.9.5.2.2.9.4 1.2.6 0 .9-.8 1.5-.4.5.3-.3 1-.1 1.6.6-.1 1-.9 1.7-.7.3.2 0 .6 0 1.1.4.3.9.1 1.3.2.3.9-.6 1.3-1 2-.7.9-1.3 2.1-1.9 3.2.2.2 1 .3.9.7-.2.3-.6.3-.8.7.1.5.9.6.7 1.1-.2.4-.9.3-1.1.7 0 .5.6.9.6 1.3-.1.3-.6.1-.8.3 0 .5.3.8.1 1.3-.4 0-.8-.1-1 .1 0 .4 0 .9-.1 1.2-.7-.3-1.4-.1-1.5.8-.7 0-1.4.3-1.4 1q-.1.2-.4.1c-.2 1.5-.1 2.9.6 3.9.7-1.1 1.3-2.5 2.3-3.3.3.3.5.7 1.1.8.1-.6-.9-.8-.9-1.5.6-.1.7.3 1 .4.8.2 1.6-.6 1.9-1.4.2-.6-.1-1.2 0-1.8 1 .1.4 1.3 1.1 1.5.4.1.5-.3.8-.5.2-.2.6-.4.7-.6.5-.6.7-1.4 1-2 .9 0 .2 1.3.9 1.5q1.1 0 2.1-.6c.2-.1.4-.4.6-.5.1-.1 1.1-.5 1.2-.5q.2 0 .4.3c-.5 1-2.2 1.6-1.7 3.2.2.1.6 0 .7.2-.3.9-1.5.8-1.5 1.8s1.6 1 1.6 2.1c-1.1.1-1.8.7-2.1 1.7-.1.5 0 1-.2 1.3-.3.1-.3-.4-.6-.4-.2 0-.5-.1-.7 0-1 .4-.8 1.9-1.2 2.6-.4 0-.4-.3-.7-.4-.9-.2-1.1 1.3-1.6 1.8-.7-.1-.5-1-1.3-1.1s-.9 1.3-1.7 1.6c-.5-.3-.7-.9-1.3-1.2-.5.3-.9.2-1.2-.2-.4.5-.8 1.3-1.1 2.2-.1.4-.2.9-.4 1.4-.2.6-.5 1-.5 1.7-.7.3-1.4 1.5-2.2 1.9-.6.4-1.4.3-1.5-.5.3-1 .2-2.4.7-3.5-.4-.5-1-.9-1.7-1.3-.3 0-.4.3-.7.3-.8-.3-1.6-.3-2.3 0-.5.3-.9 1.1-1.3.2.6-1.3-.4-1.8-1.6-1.7-.8 0-1.3.8-1.9.6.3-.7.5-1.7.1-2.4-.5-.6-2.5-.2-1.6-1.5.8-.4 1.8-.6 2.2-1.4.2-.5-.1-1.3-.7-1.5-.5-.2-1.5-.4-2.1-.6-.6-.1-1.4 0-1.3-.6.1-.3.4-.3.8-.5.8-.4 1.6-1 1.8-2.2-.3-.7-1.7-.2-1.9-.8.4-.6 1.3-.9 1.5-1.7.3-.9-.5-1.1-.6-1.9.5-.5 2-.6 1.9-1.4 0-.4-.8-.6-.7-1.1s1.1-.7 1.4-1.1c.5-.8.8-1.7.8-2.7.2 0 .2.1.4.1.4 1-.6 2.9.2 3.7 1.2.3 2.1-1.9 2.9-.7-.8.9-1.7 3-.7 4.1.8.1 1.4-.9 2-.2-.4.9-1 1.6-1.2 2.9.2.4.5.7.7 1 1.1.3 1.7-1 2.8-.7-.2.9-1 1.4-.9 2.5 0 .3.4 1 .6 1.2.2.3.7.6.7.9 0 .5-.8.9-1 1.3-.1.3-.2.7-.1 1.1 0 .4.4.7.4 1-.1.5-.7.7-.5 1.2.8.5 1.9.7 2.4 1.5.5-.7.7-1.8 1.3-2.5-.7-.7-.6-1.9-.9-3-.1-.5-.1-.5-.1-1.2 0-.2-.2-.5-.2-.8 0-.6.1-1.1.2-1.3-.1-.7.2-1.6-.4-2-.4.1-.8.2-1.1-.2.1-.5.5-1 0-1.2-.3-.2-.6.3-1.1.1q0-.1-.1-.2c-.1-.2.2-.5.2-.8-.1-.4-1-.1-1.2-.5-.2-.5.4-.7.4-1 .1-.6-.8-.5-1-1 .2-.7.9-.6 1.1-1.2 0-.4-.7-.3-.8-.7.3-.4 1.2-.2 1.3-.8-.4-.4-.9-1.2.3-1.1q.5-.3.8-.7c.1-.3-.2-.4-.2-.7-.1-.3.2-.1.3-.3-.3-1.5-1.1-2.6-1.5-4 .8.2.8-.7 1-1.2.6-.1.4.7.9.7.6 0 .6-.9.8-1.4.5-.1.4.4.6.5.6 0 .6-1 1.2-.8.3.1 0 .9.5 1 .7.1.6-.9 1.4-.9.1-.1.3-.1.5 0m2.4 8.2c-.3-.3-.7-.3-.9-.7-.5.3-1-.1-1.4-.3-.2.2-.6.2-.9.2q-.3-.2-.8-.5-.3.3-.9.3c-.2-.1-.5-.3-.9-.4-.2.4-.6.6-1.3.4-.1.7-.7 1.1-1.2 1.4.4.6-.3 1.3-.7 1.4.4.6-.3 1.3-.7 1.5.8.3.9 1 .6 1.8.2.1.4.2.7.2.2.3.2.6.2 1h.6c.3.3.9.6.6 1.4 2.3.5.5 3.2 1.3 4.8 0 .2-.1.2-.1.4.5 1 .4 2.4 1 3.3-.1.3.1.4.1.7-.4.9-1 1.6-1.3 2.5-.3.1-.4.3-.7.3-.7-.7-1.8-1.2-2.8-1.7-.3-.6-.2-1.4.2-1.9-.9-1.2 0-2.7.7-3.4-1-.6-1.4-1.8-1.1-3.2-1.9.6-3.3-1.2-2.3-3.2-1.8-.3-1.8-1.9-1.6-3.7-.7 0-.9.2-1.4-.2-.2-.3-.3-1-.6-1.1-.2 0-.8.9-.9.9 1.2 1-.1 2.4-1.2 2.6.7 1.1.4 2.4-.5 3.1.6.1 1.1.3 1.4.6.1.7-.5 1.8-.9 2.3-.3.3-.9.4-.9.6 1.7.3 3.5 1.1 3.4 2.5-.2 1.2-1.4 1.5-2 2.3 1.1.3 1.3 1.3 1.5 2.4 1.2-.5 3.3-.1 3.3 1.3.7-.2 1.3-.5 2.3-.4 0-.1.1-.2.3-.2 1.6.1 2.2 1.1 3.1 1.7-.1.8-.3 1.6-.5 2.5-.1.2-.3.3-.2.5.7-.4 1.3-1.1 2.3-1.1.5-1.4.9-2.9 1.5-4 .3-.5.6-1.4 1.1-1.6.3.1.4.5.8.5.2.1.4 0 .7 0 .5.2.6.9 1.1 1.1.4-.5.6-1.5 1.3-1.5.7-.1 1.1.3 1.6.7.4-.8 1.1-1.9 2.1-1 0-1.5.7-3.4 2.3-2.5.2-1.4.9-2.1 1.8-2.5-1.3-.5-1.7-2.7-.3-3.2-.3-.4-.3-1-.2-1.7-.8.3-2.5.2-2.9-.7-.2.6-.6.7-1 1.1-.5.5-.8 1.2-1.8.9-.5 1.1-1.2 1.7-2.3 2 .4.6.5 1.9-.2 2.6.8 1.3-.8 3.5-2.1 2.7-.1-1.6 1.1-2.8 1.4-4.5-.1-.2-.5-.2-.7-.3-.7 1-1.5 2-2 3.4-.5-.1-.4-.5-.8-.6-.1-.5-.5-1-.6-1.6 0-.2.1-.3.1-.5 0-.3-.3-.6-.2-.8 0-.4.1-1.5.2-1.9.1-.1.3-.2.4-.3.4-.6.6-1.2 1.4-1 .2-.7.7-.9 1.5-.9q0-.4.1-.9c.2-.3.7-.1.8-.5.1-.2 0-.5 0-.7.1-.3.3-.3.5-.6-.5-.5-.2-1.5.3-1.9-.2-.4-.5-.9-.1-1.4-.5 0-.5-.6-.7-.8m-5.8 23.6c.3.1.4 0 .4-.2-.2 0-.3.1-.4.2m2.8-31.1c-.4.3-.4.9-.9.9-.6.1-.7-.4-1.2-.7-.1.5-.5.7-1.2.5 0 .9-.8 1.2-1.6.8-.9.4-.6 1.1-.2 1.9.1.3.3.4.3.6.3.5.3 1.1.4 1.6.2.3.6.7 1.1.4.1-.2.1-.7.3-.8.3 0 .2.4.4.5.7.5 1.2.2 1.6-.3.4.3.4.7.8.8.6.1.9-.4 1.3-.5.2.2.1.5.1.6.5.2 1-.1 1.3-.1.2.2 0 .4-.1.5.6.7 1.1-.1 1.7 0 .7-1.1 1.3-2.4 2.1-3.4-.5-.3-.9-.7-1.2-1.1-.5.7-1.7.2-1.8-.7-.7.2-1.1-.4-1.4-.8-.8.7-1.3-.2-1.8-.7m2.2 22.5c.5.1 1.4-1.2.8-1.8-.5.3-.8 1.2-.8 1.8"/><path fill="#a71681" d="M156.3 147.445c.3.4.7 1 1.4.8.1.9 1.3 1.4 1.8.7.3.4.7.8 1.2 1.1-.8 1-1.4 2.3-2.1 3.4-.6-.1-1.1.7-1.7 0 .1-.1.3-.3.1-.5-.3 0-.8.3-1.3.1 0-.1.1-.4-.1-.6-.4.1-.7.6-1.3.5-.4-.1-.4-.5-.8-.8-.4.5-.9.8-1.6.3-.2-.1-.1-.5-.4-.5-.2.1-.2.6-.3.8-.5.3-.9-.1-1.1-.4-.1-.5-.1-1.1-.4-1.6 0-.2-.2-.3-.3-.6-.4-.8-.7-1.5.2-1.9.8.4 1.6.1 1.6-.8.7.2 1.1 0 1.2-.5.5.3.6.8 1.2.7.5 0 .5-.6.9-.9.5.5 1 1.4 1.8.7m1.4 2.1c-.2.4-.5.8-.8 1.3-.2.4-.6 1.1.1 1.2.4-.7.9-1.3 1.1-2.4-.1 0-.2-.1-.4-.1m1.8-.1c-.4.5-2 2.5-2.1 3.1 0 .1.1.4.2.5 0-.1.2-.1.3 0 .6-1.3 1.5-2.3 1.8-3.5-.1 0-.1-.1-.2-.1m-4.9 1.3c0-.4.2-.9 0-1.1-.2.3-.3.9 0 1.1"/><path d="M159.7 149.545c-.3 1.2-1.2 2.2-1.8 3.5-.1-.1-.3-.1-.3 0-.1-.1-.2-.4-.2-.5.1-.6 1.7-2.6 2.1-3.1.1 0 .1.1.2.1M158.1 149.645c-.2 1.1-.7 1.7-1.1 2.4-.7-.1-.3-.8-.1-1.2.3-.5.6-.9.8-1.3.2 0 .3.1.4.1M154.6 149.645c.2.2 0 .7 0 1.1-.3-.2-.2-.8 0-1.1M152.4 153.845c-.1.1-.1.2-.1.3-.2-.1-.3-.2-.3-.4.1-.1.3 0 .4.1M151.1 153.745c.2.1.2.1.3.2 0 .2-.1.4-.2.5l-.2-.2c0-.2 0-.4.1-.5M157.4 155.445c-.5-.1-1-.2-1-.6.4-.1 1.1 0 1 .6M155.4 154.745h.2c-.1.5-.2.7-.4.9-.4-.3.1-.6.2-.9M157.3 156.945c-.7.6-1-1.4-.1-.7.1.2.1.3.1.7M156 156.545c-.1.4-.3.9-.7.9 0-.4.3-1.1.7-.9M157 158.145c.1 1.1-.8 1.9-1.6 1.6.4-.4 1-1 1.4-1.7.1 0 .1.1.2.1M155 158.545q.1 0 .1.1c0 .6-.6 1.2-1.1 1.1.2-.5.7-.8 1-1.2M155 160.845c-.1.2-.2.3-.2.4-.2 0-.3.1-.4 0-.2-.5.3-.8.6-.4M143.4 159.345c.3.3.4.9.4 1.3-.5-.2-.6-.8-.4-1.3M162.6 165.145c-.1.9-.9 1.8-1.5 2.5.3-.9 1-1.7 1.5-2.5M142.8 163.045c.4 1.2.6 2.4.9 3.6-.7-.9-.8-2.2-1-3.4q.1-.1.1-.2"/><path fill="#f28c00" d="M157.5 167.445c.6.6-.3 1.9-.8 1.8 0-.6.3-1.5.8-1.8"/><path d="M154 169.445c-.4 0-.6-.3-.5-.6.4.1.7.2.5.6M153 169.245c.3.1.4.3.3.7 0 0-.1 0-.1.1-.3-.1-.4-.5-.2-.8M158.1 170.445q.2.1.3.3c-.2 0-.3.1-.4 0q0-.2.1-.3M145.6 170.145c.3.1.4.4.6.7.4 0 .8.2.7.5-.1.8-1.5-.5-1.3-1.2"/><path fill="#95c11f" d="M152.1 177.645c0 .2-.1.3-.4.2.1-.1.2-.2.4-.2M158.2 155.045c-.4.5-.1 1 .1 1.4-.5.4-.8 1.4-.3 1.9-.2.3-.4.3-.5.6 0 .2.1.5 0 .7-.1.4-.6.2-.8.5q-.1.5-.1.9c-.8 0-1.3.2-1.5.9-.8-.2-1 .4-1.4 1-.1.1-.3.2-.4.3-.1.4-.2 1.5-.2 1.9-.1.2.2.5.2.8 0 .2-.1.3-.1.5.1.6.5 1.1.6 1.6.4.1.3.5.8.6.5-1.4 1.3-2.4 2-3.4.2.1.6.1.7.3-.3 1.7-1.5 2.9-1.4 4.5 1.3.8 2.9-1.4 2.1-2.7.7-.7.6-2 .2-2.6 1.1-.3 1.8-.9 2.3-2 1 .3 1.3-.4 1.8-.9.4-.4.8-.5 1-1.1.4.9 2.1 1 2.9.7-.1.7-.1 1.3.2 1.7-1.4.5-1 2.7.3 3.2-.9.4-1.6 1.1-1.8 2.5-1.6-.9-2.3 1-2.3 2.5-1-.9-1.7.2-2.1 1-.5-.4-.9-.8-1.6-.7-.7 0-.9 1-1.3 1.5-.5-.2-.6-.9-1.1-1.1-.3 0-.5.1-.7 0-.4 0-.5-.4-.8-.5-.5.2-.8 1.1-1.1 1.6-.6 1.1-1 2.6-1.5 3.9-1 .1-1.6.8-2.3 1.2-.1-.2.1-.3.2-.5.2-.9.4-1.7.5-2.5-.9-.6-1.5-1.6-3.1-1.7-.2 0-.3.1-.3.2-1-.1-1.6.2-2.3.4 0-1.4-2.1-1.8-3.3-1.3-.2-1.1-.4-2.1-1.5-2.4.6-.8 1.8-1.1 2-2.3.1-1.4-1.7-2.2-3.4-2.5 0-.2.6-.3.9-.6.4-.5 1-1.6.9-2.3-.3-.3-.8-.5-1.4-.6.9-.7 1.2-2 .5-3.1 1.1-.2 2.4-1.6 1.2-2.6.1 0 .7-.9.9-.9.3.1.4.8.6 1.1.5.4.7.2 1.4.2-.3 1.8-.2 3.4 1.6 3.7-1 2 .4 3.8 2.4 3.2-.4 1.4 0 2.6 1 3.2-.7.7-1.6 2.2-.7 3.4-.4.5-.5 1.3-.2 1.9 1 .5 2.1 1 2.8 1.7.3 0 .4-.2.7-.3.3-.9.9-1.6 1.3-2.5 0-.4-.2-.4-.1-.7-.6-.9-.5-2.3-1-3.3 0-.2.1-.2.1-.4-.8-1.6 1-4.3-1.3-4.8.3-.8-.3-1.1-.6-1.4h-.6c0-.4 0-.7-.2-1-.3 0-.5-.1-.7-.2.3-.8.2-1.5-.6-1.8.4-.2 1.1-.9.7-1.5.4-.1 1.1-.8.7-1.4.5-.3 1.1-.7 1.2-1.4.7.2 1.1 0 1.3-.4.4.1.7.3.9.4q.6 0 .9-.3.5.2.8.5c.3 0 .7 0 .9-.2.4.2.9.6 1.4.3.2.4.6.4.9.7.2.2.2.8.7.8m-.2 15.7c.1.1.2 0 .4 0q-.1-.2-.3-.3-.1.1-.1.3m-4.8-.7c0-.1.1-.1.1-.1.1-.4 0-.6-.3-.7-.2.3-.1.7.2.8m.3-1.2c-.1.3.1.6.5.6.2-.4-.1-.5-.5-.6m-9.7-8.2c0-.4-.1-1-.4-1.3-.2.5-.1 1.1.4 1.3m10.6.6c.1.1.2 0 .4 0 0-.1.1-.2.2-.4-.3-.4-.8-.1-.6.4m-.4-1.5c.5.1 1.1-.5 1.1-1.1q0-.1-.1-.1c-.3.4-.8.7-1 1.2m2.8-1.7c-.4.7-1 1.3-1.4 1.7.8.3 1.7-.5 1.6-1.6-.1 0-.1-.1-.2-.1m-1.5-.6c.4 0 .6-.5.7-.9-.4-.2-.7.5-.7.9m1.9-1.2c-.9-.7-.6 1.3.1.7 0-.4 0-.5-.1-.7m-2-.6c.2-.2.3-.4.4-.9h-.2c-.1.3-.6.6-.2.9m1.2-.8c0 .4.5.5 1 .6.1-.6-.6-.7-1-.6m-5.4-.6.2.2c.1-.1.2-.3.2-.5-.1-.1-.1-.1-.3-.2-.1.1-.1.3-.1.5m1-.5c0 .2.1.3.3.4 0-.1 0-.2.1-.3-.1-.1-.3-.2-.4-.1m-5.1 17.6c.1-.3-.3-.5-.7-.5-.2-.3-.3-.6-.6-.7-.2.7 1.2 2 1.3 1.2"/><path d="M142.6 162.645s-.1 1 .2 2.2.9 2 .9 2l-.6-3.3zM144.3 168.145s0 .7.2 1l.6.4zM160.9 167.945c.6-.4 2.2-2.7 2.2-3.3s-1.3 1.5-1.3 1.5zM160.2 168.845s-.4 1-.8 1.2c-.4.3-.9.3-.9.3l1-1.1zM154.6 156.345c.2.3-.6.8-.6.8l.2-.6zM154.1 158.245c.3-.2 0-.5-.1-.4-.2 0-.4.4-.4.4zM153.2 160.145c-.1.5.3.9.3.9l.1-.6zM152.9 158.945l.6.3-.3.1zM157.2 149.045l-1.1 2.2-.5.2.5-1.4.7-.9zM155.3 148.245l-.5 3.4.3.3.4-2.3zM154 154.245c.1.2.1.5.1.5h-.3z"/><path fill="#fff" d="M96.6 147.745c.1.3.5.3.7.5.8-1 2.2-1.5 3.4-.8 1.1.7 3.4 3.3 2.6 5.1-.2.3-.7.6-.6.9.1.5.9.3 1.3.5.5.3.6 1.4.6 2.4-.1 1.3-.6 3.2-1.5 3.8-.2.2-.8.5-1.1.4-.4 0-.6-.4-1.2-.3-.5.1-.9 1.4-1.6 1.7-.5.3-1.5.6-2.5.7-.7.1-1.5 0-2.2-.1-.3 0-.6 0-.9-.1-.7-.2-1.4-1.6-.7-2.5-.1-.4-.6-.2-1-.3-.3-.1-.5-.5-.7-.5-.4 0-.9.4-1.5.2-1-.3-1.7-1.8-1.8-3.1-.2-2.1.5-3.9 2.7-3.6.1-.4-.1-.5-.1-.8-.3-.3-.9-.3-1.2-.5 0-.9.3-1.7.8-2.3.5-.7 1.4-1.5 2.2-1.8.3-.2.8-.4 1.1-.5.1 0 .3.1.5 0 .5 0 1.2-.4 2-.2.5.2.8.5.7 1.2m1 5.2c-.4.4-.9.4-1.3.5.1-.2.1-.4-.2-.4-.1.2.2.3-.1.4-.8-.1-1.7-1-2.3-.5-.1.8.5 1.2.7 1.9-.4.5-1.1.7-1.1 1.7.1 0 .2.1.4.1.7-.8 2-.1 2.3.7-.1.5.1 1 .5 1 .3-.2.2-.6.1-.9.3-.6.5-.9 1-1.3q.45-.3.6-.6c.3-.2.9-.3.9-.6.1-.2-.4-.5-.6-.8-.3-.5-.2-1 .1-1.4-.3-.9-.6-.1-1 .2m5.3 2.3c-.1.6.1 1.4 0 2.1 0 .2-.2.4-.1.6.8-.2.6-2.5.2-2.9h-.1zm-12.3 3c0-.1.2-.1.2-.2 0-.3-.3-.3-.5-.4-.2-.4-.2-.9-.2-1.5-.2-.1 0 .1-.1.1-.1-.6.1-1.4-.2-1.7-.2 1.2-.7 3.5.8 3.7m7-1.3c.2 0 .2.2.3.2.4-.1.3-.6.6-.7-.2-.7-.7.2-.9.5m1.9-7.7c.3.7 1.4.5 1.3 1.7.2.2.3 0 .5.1.1-1.1-1-1.7-1.8-1.8m-5.7-.8c-.5.5-1.2.8-1.7 1.4-.2.1-.3.3-.3.5.5-.4.9-1 1.6-1.2q0 .2.3.2c.2-.2.5-.3.5-.7-.1-.1-.2-.1-.4-.2m1.8 12.2c-.2-.1-.4-.1-.5 0 0 .2.2.4.3.5.6.1 2.1-.4 2.3-.6-.4-.5-1.5 0-2.1.1"/><path d="M94.2 148.645c0 .4-.3.5-.5.6q-.3 0-.3-.2c-.7.2-1.1.8-1.6 1.3 0-.2.1-.5.3-.6.5-.5 1.2-.8 1.7-1.3.2 0 .3 0 .4.2M101.3 151.045c-.2-.2-.3 0-.5-.2.1-1.1-1-1-1.3-1.7.8.2 1.9.7 1.8 1.9M98.6 152.745c-.3.4-.4.9-.1 1.4.2.3.7.6.6.8 0 .3-.6.4-.9.6q-.15.3-.6.6c-.5.4-.7.7-1 1.3.1.3.2.7-.1.9-.4 0-.6-.5-.5-1-.3-.8-1.6-1.5-2.3-.7-.2 0-.3-.1-.4-.1 0-1 .7-1.2 1.1-1.7-.2-.7-.8-1.1-.7-1.9.6-.5 1.5.4 2.3.5.3-.1 0-.2.1-.4.3 0 .3.2.2.4.4-.1.9-.1 1.3-.5.4-.3.7-1.1 1-.2m-1.3 1.5c-.4-1.2-2.7.2-2 1.2.3 0 .4.2.6.3.8-.2 1.6-.7 1.4-1.5"/><path fill="#ffefaf" d="M95.9 155.745c-.2-.1-.3-.3-.7-.3-.6-1 1.7-2.4 2.1-1.2.2.8-.6 1.3-1.4 1.5"/><path d="M89.8 154.445c.3.4.1 1.2.2 1.8.1 0-.1-.3.1-.2 0 .6 0 1.2.2 1.6.2.1.5.1.5.3s-.2.1-.2.3c-1.5-.2-1-2.6-.8-3.8M102.9 155.045h.1c.4.4.6 2.7-.2 2.9-.1-.2.1-.4.1-.6.1-.7-.1-1.5 0-2.1zM98.5 156.445c-.3 0-.2.5-.6.6-.1 0-.1-.1-.3-.1.2-.3.7-1.2.9-.5M92.5 158.945c.7.1-.2.5 0 0"/><path fill="#95c11f" d="M108.5 162.845c0 .2.2.1.3.2-.1.5-.3.7-.5 1.1.1.1.1.2.2.2q-.6 1.2-1.4 2.3c-.1.2.1.2.1.4-.4.6-1.1.9-1.5 1.5-.1.1-.2.3-.3.4-.2.2-.4.2-.6.3-.1.1-.2.3-.4.4-.6.4-1.4.5-1.9 1.1 0-1 .3-1.6.4-2.4-.5.2-.5 1-.7 1.4-.5-.1-.6-.8-.7-1.3s-.3-1.1-.3-1.7c.2.1.3 0 .5-.1-.1-.9.1-1.6.3-2.1.2 0 .2.2.3.2.6-.4.5-1.1.8-1.6.3-.4.8-.6 1-1.1.2.1.3 0 .4 0 .9-1.5 2.4-2.2 4.3-2.6q.1 0 .1.1c-.2.8.2 1.5.1 2.1-.1.4-.5.7-.5 1.2m-2.2-.1c-.5.8-1.1 1.3-1.4 2.3-.2.2-.6.5-.4.8.5-.1.7-.7.9-1.1s.5-.9.8-1.2c.2-.2.5-.3.4-.7 0-.1-.2-.1-.3-.1m-2.6 5.1c.2-.4.1-.9 0-1.2.1.1.3.1.3.1.1-.1.4-.3.2-.6-.3 0-.3.3-.5.3 0-.1-.1-.4 0-.5-.2.1-.1-.2-.3-.1-.1.5-.5 2 .3 2"/><path d="M97.7 160.545c-.2.2-1.7.7-2.3.5-.1 0-.3-.2-.3-.4.1-.1.3-.1.4 0 .7-.1 1.8-.6 2.2-.1M106.6 162.845c.1.4-.2.5-.4.7-.3.3-.6.8-.8 1.2s-.4 1-.9 1.1c-.2-.3.2-.6.4-.8.3-1 .9-1.5 1.4-2.3.1 0 .3 0 .3.1"/><path fill="#002e5f" d="M95.8 163.645c.1.8.2 1.6.3 2.5-.2-.1-.3-.4-.3-.7-.6-.4-.6-1.6-1.5-1.6-.1-.2-.3-.3-.3-.5.5 0 1.4 0 1.8.3"/><path fill="#95c11f" d="M97.7 163.345c.3 1.9.8 3.6 1.6 5 .4.6.9 1.1 1.3 1.7.5.6.8 1.2 1.2 1.8.7.9 1.7 1.8 2.6 2.6 1.6 1.3 3.4 2.5 4.4 4.4-.3.5-.3 1.3-.5 2-.4-.6-.6-1.3-1-1.8-.8-1.1-1.9-1.8-2.8-2.6 0-.2-.1-.3-.1-.4-1.2-.7-2.1-1.7-3.1-2.6 0-.1-.1-.2-.1-.3-.5-.3-.6-1-1-1.5-.3-.3-.8-.5-.8-1-.6-.3-.9-1.1-1.3-1.8-.3-.5-.6-.9-.8-1.4-.5-1.1-.6-2.5-.9-3.9.4 0 .8-.1 1.3-.2"/><path d="M90.6 164.745c0 .3-.5.1-.4-.1.1-.1.3 0 .4.1M91 164.945c.2 0 .3.2.5.2q0 .3-.4.2c0-.1-.2-.2-.1-.4M91.5 165.345c.3.1.6.1.8.2-.1.3-.3.3-.5.3-.2-.1-.3-.2-.3-.5M103.4 165.845c.2-.1.1.2.3.1-.1.1 0 .4 0 .5.2 0 .2-.3.5-.3.2.3-.1.5-.2.6 0 0-.2 0-.3-.1.1.3.2.8 0 1.2-.8 0-.4-1.4-.3-2"/><path fill="#95c11f" d="M110 166.445c.2 0-.1.2 0 .4.6.3 1.3 0 1.8.4 0 0 0 .2.1.3s.3.2.5.3q.4.5.5 1.3c.5.7.5 1.9.7 2.8-.7.2-1.1-.3-1.7-.2-.2 0-.4.2-.6.2-.5 0-1.1-.4-1.6-.4-.6 0-1.3.1-1.9 0-1-.1-1.5-.7-2.1-1-.3-.1-.2.2-.3.3-.5-.1-.6-.4-.8-.8.7-.6 1.5-1.5 2.6-1.4.4 0 .8.3 1.2.3.7.1 1.3-.3 1.9.1l.2-.2c-.1-.9-1.5-.4-2.1-.2-.3-.2-1-.5-1.8-.3-.1-.1.2-.3.3-.4.3-.4.8-.8 1.2-1.1.7.4 1-.4 1.9-.4m-.7 2.6c0 .2.2.2.5.2 0-.3-.3-.3-.5-.2m1.4.6c-.1-.1-.2-.3-.4-.3 0 .2.2.5.4.3"/><path fill="#002e5f" d="M96.4 167.345q.3.3.3.7c-.2 0-.3-.2-.6-.2.1-.2.3-.3.3-.5"/><path d="M109.8 169.245c-.3 0-.5 0-.5-.2.2-.1.5-.1.5.2M110.3 169.345c.2 0 .3.2.4.3-.2.2-.4-.1-.4-.3"/><path fill="#95c11f" d="M96.1 171.245c-1.3 0-1.9.7-2.7 1.3-.5-.1-.9.2-1.2.4.1.3.3 0 .7 0-.2.3-.3.6-.6.8-.4.2-1.2.2-1 .9.6-.2 1.1-.6 1.6-.9.1-.1.1-.2.2-.4.2-.3 1.5-1.4 2.2-1.6.5-.1.7 0 1 .2-.1.2-.2.6-.3.8-.1.3.2.2.2.4-.2.5-1 .7-.9 1.4-.2.3-.7.3-.6.9-.2.3-.8.3-.8.8-1 .3-1.7 1-2.9 1.1-.2 0-.2.2-.3.3-1-.2-1.9.4-2.5 0-.1-.1.1-.3.2-.4.3-1 .6-1.9 1.1-2.8.1-1.1 1.1-1.8 1.9-2.4.1 0 .1-.2.2-.3.9-.6 2.4-1.3 3.8-.6.3-.1.7-.1.7.1"/><path fill="#fff" d="M109.1 180.945c-.1-.4.2-.6 0 0"/><path fill="#95c11f" d="M87.3 161.345c.4 0 .7.5 1.1.7h.5c.5.1.8.6 1.4.1.4.4.9.6 1.7.4.6.6 1.6.9 2 1.8.6.1.9.5.9 1.3.7.3.5 1.4.9 2-1.4-.2-1.7-2-2.5-3-.1.8.4 1.3.6 1.9-.3 0-.4-.2-.8-.2.3.7 1.3.7 1.6 1.4.5 0 .8.2 1 .5-.6.1-1.1.6-1.7.6-.3 0-.7-.2-1-.2-.5-.1-.8 0-1.2-.2-.2-.1-.3-.3-.5-.4-.5-.1-.9-.1-1.2-.3-.4-.2-.7-.6-1-.7 0-.1.2-.1.3-.3-.7-.7-1.8-1.5-1.7-2.8-.1-.3-.3-.6-.3-1 .2 0 .2-.1.4-.1 0-.7-.4-.9-.5-1.5m3.8 4q.4.1.4-.2c-.2-.1-.3-.2-.5-.2-.1.2.1.3.1.4m-.9-.7c-.1.2.4.4.4.1-.1-.1-.3-.2-.4-.1m1.6 1.2c.2 0 .4 0 .5-.3-.2-.1-.5-.1-.8-.2 0 .3.1.4.3.5"/><path d="M97.4 147.045c.8-.4 1.8-.9 2.9-.5 1.7.5 3.5 2.7 3.8 4.5.2.8.1 1.5-.2 2.1 2.5 1.1 1.6 6.4-.2 7.7-.7.5-1.7.6-2.4.2-.6 1.1-1.7 1.7-2.9 2.1 0 3.5 1.7 5.5 3.3 7.4.1-.5-.4-.9-.6-1.5-.2-1.1-.5-2.5-.3-3.6.2-.2.3.2.4.3.5-.8.5-2.1 1.4-2.5.2-.5.7-.9 1.1-1.4.1-.1.2-.4.3-.5.2-.2.5-.2.7-.4.7-.5 1.2-1.2 2.3-1.4.9-.2 1.8-.7 2.9-.5-.1.3-.6.4-.6.8-.1.3.1.7.3.9-.2.5-.1 1-.4 1.3 0 .3.3.2.4.4-.1.4-.3.6-.4.9-.1.2.2.1.2.3-.4.9-.9 1.6-1.4 2.4.1.1.2.1.3.2.8-.3 1.9-.1 2.9-.2.1.2 0 .4-.1.4 1.4.3 1.9 1.5 2.5 2.5-.1.4.3.8.3 1.3 0 .1-.1.3 0 .4 0 .6.6 1.1.2 1.6 0 .3.3.2.3.4-.4.3-.7-.1-1-.2-.2-.1-.5-.1-.7-.1-.3-.1-.4-.3-.7-.3-.2 0-.4.2-.6.2-.5.1-1.1 0-1.7 0-.6-.1-1.2.1-1.7 0-.8-.1-1.4-.5-1.9-.9-.9.3-1.5-.5-1.9-1-.4.1-.7.1-.9.3-.3.2-.3.7-.6.8 0 .2.2.3.1.5.7.9 1.7 1.7 2.6 2.5.1-.2.3-.4.5-.5.3.4.3.8.5 1.2.4.6 1.2 1 1.8 1.6.7.7 1.6 1.6 1.5 2.9 0 .2-.1.5-.1.8 0 .2.1.3 0 .5 0 .1-.2.2-.3.4-.1.4 0 .9-.3 1.2-.6.1-.5-.6-.7-.9-.3 0-.3.1-.5 0q-.8-2.1-2.6-3.7c-.6-.5-1.2-1-1.7-1.5-.6-.6-1.1-1.3-1.8-1.7-.4-.2-1-.2-1.3-.6.1-.2.4-.2.6-.2-.7-1.2-1.7-2.5-3.9-2.2-.1.4-.4.7-.1 1-.1.8-.9 1.1-.8 1.8-.3.3-.5.6-.9.7 0 .1.1.2 0 .4-.2.3-.7.4-.8.8-1.1.6-2.2.7-3.1 1.4-.1 0-.2.2-.3.3-.5.2-1.1 0-1.5.3-.9-.4-2-.2-2.8-.2 0-.5.3-.6.7-.7q1-1.4 1.4-3.6c.3-.2.3-.5.6-.9.2-.3.8-.5 1-.9.1-.1.1-.3.2-.5.2-.2.7-.3 1.2-.6.1-.1.2-.3.4-.4.4-.2 1-.2 1.4-.3.4.2 1.2.2 1.6 0 .9.5 2 .8 3.3.7-.6-.7-1-2.4-2-2.4-.5 0-.8.5-1.3.7-1.3-.1-3 .2-3.7-.6-1.1 0-1.8-.3-2.4-.8v-.3c-.8-.4-1.3-1.3-1.7-2.2-.3-.7-.4-1-.5-1.8 0-.4-.3-.7-.3-1.2 0-.1.2-.1.4-.2-.2-.6-.8-1.3-.7-2.1.5-.1.7.4.8.7.4.2.7.4 1 .6.5-.4.9.1 1.3.2.1 0 0-.3.1-.4.7 0 .9.5 1.4.7.4.3.9.2 1.3.4-.2-.7-.4-1.2-.3-2l-.6-.3c-4.2 1.5-6.1-6.8-2.4-7.9-.5-.6-.7-1.5-.3-2.6.5-1.5 2.3-2.7 3.9-3.3.2-.1.5-.3.7-.3h.8c1.6 0 2.9-.1 3.3 1.1m-1.3 20.8c.3 0 .4.2.6.2q0-.4-.3-.7c0 .2-.2.3-.3.5m12-1c-.4.3-.9.7-1.2 1.1-.1.1-.4.3-.3.4.8-.2 1.5.1 1.8.3.6-.2 2-.7 2.1.2l-.2.2c-.6-.4-1.2 0-1.9-.1-.4 0-.8-.3-1.2-.3-1.1-.1-1.9.8-2.6 1.4.2.4.3.7.8.8.1-.1 0-.4.3-.3.6.3 1.1.9 2.1 1 .6.1 1.3 0 1.9 0 .5.1 1.1.4 1.6.4.2 0 .4-.2.6-.2.6-.1 1 .4 1.7.2-.2-.9-.2-2.1-.7-2.8q-.1-.8-.5-1.3c-.2-.2-.4-.2-.5-.3s-.1-.3-.1-.3c-.5-.4-1.2-.1-1.8-.4-.1-.2.2-.4 0-.4-.9 0-1.2.8-1.9.4m-11.7-3.3c.3 1.4.4 2.8.9 3.9.2.5.5.9.8 1.4.4.7.7 1.5 1.3 1.8 0 .5.5.7.8 1 .4.5.5 1.2 1 1.5 0 .1.1.2.1.3 1 .9 1.9 1.9 3.1 2.6 0 .1.1.2.1.4.9.8 2 1.5 2.8 2.6.4.5.6 1.2 1 1.8.2-.7.2-1.5.5-2-1-1.9-2.8-3.1-4.4-4.4-.9-.8-1.9-1.7-2.6-2.6-.4-.6-.7-1.2-1.2-1.8-.4-.6-.9-1.1-1.3-1.7-.8-1.3-1.3-3.1-1.6-5-.5.1-.9.2-1.3.2m-2.4-.2c0 .2.2.3.3.5.9 0 .9 1.2 1.5 1.6 0 .3.1.6.3.7-.1-.9-.2-1.7-.3-2.5-.4-.3-1.3-.3-1.8-.3m-6.2-.5c-.2 0-.2.1-.4.1 0 .4.2.7.3 1-.1 1.3 1 2.1 1.7 2.8-.1.2-.3.2-.3.3.3.2.6.5 1 .7.3.2.7.2 1.2.3.2.1.3.3.5.4.4.2.7.1 1.2.2.3 0 .7.2 1 .2.7 0 1.1-.5 1.8-.6-.3-.3-.6-.5-1.1-.5-.3-.7-1.3-.7-1.6-1.4.4 0 .5.2.8.2-.2-.6-.7-1.1-.6-1.9.8 1 1.1 2.8 2.6 3-.5-.6-.3-1.7-1-2 0-.8-.3-1.2-.9-1.3-.4-.9-1.4-1.2-2-1.8-.8.2-1.3 0-1.7-.4-.6.5-.9 0-1.4-.1h-.5c-.4-.1-.7-.7-1.1-.7.1.6.5.8.5 1.5m21.2-1.2c.1-.6-.3-1.3-.1-2.1q0-.1-.1 0c-1.9.3-3.4 1.1-4.3 2.5-.1 0-.2.1-.4 0-.2.5-.7.7-1 1.1-.3.5-.2 1.2-.8 1.6-.1 0-.1-.2-.3-.2-.2.5-.4 1.2-.3 2.1-.2.1-.3.2-.5.1 0 .6.2 1.2.3 1.7s.2 1.2.7 1.3c.2-.4.2-1.2.7-1.4-.1.8-.4 1.4-.4 2.4.5-.6 1.3-.7 1.9-1.1.2-.1.3-.3.4-.4.2-.1.4-.1.6-.3.1-.1.2-.3.3-.4.4-.6 1.1-.9 1.5-1.5 0-.2-.2-.2-.1-.4q.8-1.1 1.4-2.3c-.1 0-.1-.1-.2-.2.2-.4.4-.6.5-1.1-.1-.1-.3 0-.3-.2 0-.5.4-.8.5-1.2m-13.1-15.1c-.8-.2-1.5.2-2 .2h-.5c-.3.1-.8.3-1.1.5-.8.4-1.7 1.1-2.2 1.8-.5.6-.8 1.4-.8 2.3.3.2.9.2 1.2.5 0 .3.2.4.1.8-2.2-.3-2.9 1.5-2.7 3.6.1 1.3.8 2.8 1.8 3.1.6.2 1.1-.2 1.5-.2.2 0 .4.4.7.5.4.1.9-.1 1 .3-.7.9 0 2.3.7 2.5.3.1.6.1.9.1.7.1 1.5.2 2.2.1 1-.1 2-.4 2.5-.7.7-.3 1.1-1.6 1.6-1.7.6-.1.8.3 1.2.4.3 0 .9-.3 1.1-.5.9-.6 1.4-2.5 1.5-3.8 0-1-.1-2.1-.6-2.4-.4-.2-1.2 0-1.3-.5-.1-.3.4-.6.6-.9.8-1.8-1.5-4.4-2.6-5.1-1.2-.7-2.6-.2-3.4.8-.2-.2-.6-.2-.7-.5.1-.7-.2-1-.7-1.2m-.4 24.6c-1.5-.7-3 0-3.9.6-.1.1-.1.3-.2.3-.8.6-1.8 1.3-1.9 2.4-.5.9-.8 1.8-1.1 2.8-.1.1-.3.3-.2.4.6.4 1.5-.2 2.5 0 .1-.1.1-.3.3-.3 1.2-.1 1.9-.8 2.9-1.1 0-.5.6-.5.8-.8-.1-.6.4-.6.5-.9 0-.7.8-.9 1-1.4 0-.2-.3-.1-.2-.4.1-.2.2-.6.3-.8-.3-.2-.5-.3-1-.2-.7.2-2 1.3-2.2 1.6-.1.2-.1.3-.2.4-.5.3-1 .7-1.6.9-.2-.7.6-.7 1-.9.3-.2.4-.5.6-.8-.4 0-.6.3-.7 0 .3-.2.7-.5 1.2-.4.8-.6 1.4-1.3 2.7-1.3 0-.2-.4-.2-.6-.1"/><path d="M90.5 175.445c-.2.1-.6.6-.6.6h.4zM135.9 133.845c1.6.6 2.9 1.3 3.4 1.6 1.8 1.2-2.2 3.9-4.1 3.9-1.6.1-4.1-1.9-5.4-3.1q.1.4.3.9l2.4 1.7s.6 2.8 1.3 3.8c.8.9-1.7-1-2.1-3.1-.1-.2-.8-.7-1.3-1.1q.1.5.1 1.2l1 1.7s.3 2 .5 2.8c.3 1.1 1.1 2 1.1 2s-1.1-.1-1.6-1.2c-.3-.8-.7-3.2-.7-3.2l-.2-.3c-.1 1-.6 2.2-1.7 4.2-1.8 3.2-3.1 3.6-3.7 3.6-.4 0-4.7-3.7-5.3-7.8l-.3.5s-.4 2.3-.7 3.2c-.4 1-1.5 1.2-1.5 1.2s.9-.9 1-1.8c.1-.8.6-3.1.6-3.1l.9-1.9q.1-.1.1-.2l.2-1c-.6.4-1.4 1-1.4 1.2-.5 2.1-2.9 4-2.2 3.1.7-1 1.4-3.8 1.4-3.8l2.7-1.9q.2-.5.5-.9c-1.1.9-3.8 2.9-5.3 3.3-2 .5-7-1.6-4.4-3.4 1.2-.8 2.1-1.4 3.1-1.8-1.7.5-2.7.8-3.8.3-1.6-.7-5.6-2.7-3.3-5.9 2.3-3.1 11.2 1.2 13.9 1.9-.4-.6-1.6-2-1.7-2.1-.1-.2 1.2-1.4 1.2-1.4s-.7-.9-.6-1.4c.2-.4.1-.1.2.2.2.3 1 1.1.9 1.5-.1.3-.7.8-.7 1.1 0 .2 1 1.3 1.2 1.5q.1 0 .1-.1c.7-.8.4-1.1.3-1.6-.1-.6-.3-2 .7-2.1q.3-.1.5-.2c-.1-.4-.3-1.3-.7-1.6-.5-.5-2.5-1.4-2.5-1.4s.1-.7 2.6.9c.9.6 1.2 1.3 1.3 1.7.3-.3.7-.6 1.4-.6.5 0 .8.1 1.1.3.1-.4.4-1 1.1-1.6 2.1-1.6 2.5-.7 2.5-.7s-1.4.3-2.3 1.2c-.4.3-.6 1.2-.7 1.6q.2.2.5.2c.6.1 1.6 1.1 1 2.1-.5.9-.3 1.1.1 1.7.4-.4.9-.9 1-1.1 0-.3-.6-.9-.6-1.3-.1-.4.9-1.2 1.1-1.5.1-.3.1-.6.2-.1.1.4-.7 1.4-.7 1.4s1.1 1.4.9 1.6c0 .1-.5.5-1 1.1 4.3-1.7 14.2-3.7 14.4-.5.2 2.7-3.2 4.7-4.5 4.9-.8.1-2.2-.1-3.8-.3m-14.3-.3v-.1h-.1z"/></g><path fill="url(#e)" d="M123.5 126.8c-.2.5-1 .7-1 1.3 0 1-.1.8.3 1.6.1.2 0 .8 0 1 .1.5-.1 1-.2 1.2-.8.7.7 2.4-.2 3.2s-1.8 2.1-1.8 4.1c.1.1.3.7.4.9-.1.8.7.9.6 1.6 0 .1-.5.6-.5.8 0 .9.6 1 .9 1.5 0 .1.2.4.3.5.2.5.6.3.9 1.2.2.1.1 0-.1 0-.1 0-.2-.1-.2-.1.3 1 .3 1.1.9 1.7.2.2 1 0 1 .3.6 0 .7.1 1-.3.2-.2.9 0 1.1-.3.5-.5 1.1-1.6 1.2-2.4.1-.1-.3-.2-.3-.3 0-.9.4-1.3.5-1.9l.6-.6c0-.5.7-1.4.8-2-1.2-1.6-.2-2.2-.4-3.4-.4-.7-.3-.8-.8-1.3-.4-.4-.5-.7-.4-1 0-.1.3-1 .3-1.1-.1-1-.4-.8-.7-1.5-.1-.1-.5-.2-.6-.3-.1-.2-.2-.1-.1-.3.1-.3.4-.4.6-.5s.6-.4.6-.9c-.2-1.5.2-1.8-.1-2-.4-.3-.8-.4-.9-.6-.1-.3-.3-1.1-.7-1.3-.7-.4-.7-.4-.8-.4-.1.1-.2.1-.5 0h-.2c-.8 0-1 .7-1.5 1.6" transform="translate(.2 .345)"/><path fill-rule="evenodd" d="M121.3 139.645s-.1-1.9 3.9-1.9c4.1 0 3.9 1.8 3.9 1.8s-2.8.5-3.8.5c-1.6-.2-3.9.3-4-.4M122.1 141.545h3.2c2.2-.1 3.4.3 3.6.8.3.6-1.2 1.3-3.5 1.3-2.4 0-2.8.1-3.2-.4-.4-.4-1.3-1.7-.1-1.7M122.9 145.245c2.2-.1 3-.4 4.1.1 1 .5 2.2 1 .7 1.4-1.4.5-2.8.6-3.7.4-.9-.1-1.2-.7-1.4-1.2-.2-.6.3-.7.3-.7M127.9 132.345l-.1-.1c1.1-.8-.2-2.4.2-2.7.7-.7-.7-2.1-2.5-2-3.1.1-2.6 2.4-2.5 3 .2.5.4.6.3 1 0 .2-.2.4-.3.7-.2.4-.2.9-.2.9.1.4.1.9.7 1.5.4.4.4.8 2.4.7 1.5-.1 1.9-.6 2.2-1.4.3-.9.1-1.2-.2-1.6"/><path fill="#fff" fill-rule="evenodd" d="M122.1 131.645c-.8-.1-8.8-3.2-10.3-3.2s-3.4-.2-3.8 1.9c-.4 2 2.3 3.1 3 3.2s3.7-.1 8.8.2c1.9.1 2.5.5 2.2-.2s.1-1.9.1-1.9"/><path fill="#fff" fill-rule="evenodd" d="M120.6 133.345c-3.2.6-4.5 1.1-5.9 1.8-1.4.8-3.5 1.8-2.8 2.3s2 1.6 4.1 1.1c2-.6 6.2-3.7 6.2-4.2-.1-1.6-1.6-1-1.6-1M128.7 131.445c.9-.3 7.8-2.9 11.1-3.2s3.5.8 3.3 1.2c-.1.4-1.2 3.1-3.1 3.6-1.8.5-8.1 0-9.8.9-1.1.7-.9-.2-1.1-.9s-1-1.5-.4-1.6"/><path fill="#fff" fill-rule="evenodd" d="M129.9 132.645c.8-.3 5.9 1.8 6.8 2.4.9.5 2.2.8 2 1.4s-2.5 2.6-3.6 2.2c-1.5-.6-3.2-1.6-4.2-2.3s-2.1-1.1-1.8-1.8c.3-.8-.3-1.6.8-1.9"/><path fill-rule="evenodd" d="m118.8 132.145-5.5-1.1 2.4.8 3.3.3zM131.3 131.845s5.1-.6 5.7-.8c.5-.2 1 0 1 0s-1.2.6-2.6.7-4.1.1-4.1.1M119.2 135.345s-1 .3-1.9.5q-.2.1-.4.1c-.9.3-1.7.5-1.8.5-.2 0 1.3 0 2.3-.4s1.8-.7 1.8-.7M131.9 134.845s1.7 1.2 2.7 1.6c.9.4.4.4.4.4s-.9-.3-1.5-.7-1.6-1.3-1.6-1.3"/><path d="M173.7 55.845c0-1.4-2.7-2.4-3.6-3.1 1-1.2 2.5-1.5 3.8-2.3-.3-1.8-3.7-1.2-5-1.3-3.8-.1-7.5.2-11.3.3 1.5-.8 3.1-1.4 4.8-2.1.6-.2 3.3-.9 3.5-1.7.5-1.9-4.4-1.6-5.3-1.6-.1-.9 1.2-2.9-.5-3-1-.1-2.4 1.4-3.2 1.8-1.7.8-3.5 1.7-5.1 2.8-1.2.8-1.3 1.2-2.8.6-.6-.2-2.2-.5-3.1-1.3-2.1-2-3.9-3-6.8-3.6-12-2.2-25.2.4-34 9.4-.8.8-1.8 1.8-2.1 3-.2.9.5 2.3.1 3.1-.1.4-1.7 1.1-2 1.4q-.9.6-1.7 1.4c-1.1 1.1-1.9 2.2-2.5 3.6-1.2 2.7-1.4 6.1.4 8.6 1.7 2.4 5.3 3.3 7.9 3.9 2.5.6 10.7 1.8 17.6 1.1 8.5-.9 13.7-2.5 17.8-4.3 5.9-2.7 13.1-6.2 16.6-11.8.2-.4.5-.8.7-1.2q.5-.6.8-1.3.2-.8.2-1.7v-.6q.9-.1 1.7-.1c1.1-.1 2.2-.2 3.3-.2 3.3.1 6.6.7 9.8.7zc0-.1 0 .1 0 0"/><path fill="#f28c00" fill-rule="evenodd" d="M159.5 42.745c.2.4 0 1.5.1 2.1 1.2.7 3.1.2 4.5.6-.8.5-1.7.8-2.5 1.1-2.5 1.1-4.9 2.2-7.3 3.6s-4.6 3.1-7 4.6c-.1-1.4-.5-2.6-.6-4.1.9-.5 1.8-1.5 3.3-2.5 3.3-2.1 9.5-5.4 9.5-5.4"/><path fill="url(#f)" d="M159.9 50h-1.2c-1.5 0-3.1 0-4 .3-1.2.5-2.2 1.3-3.2 1.9-.8.6-1.6 1.1-2.3 1.7-.2.2-.4.5-.4.6 3.6-.2 7.2-.2 11-.2 1.9 0 3.8-.2 5.6-.1 1.9.1 3.7.4 5.5.3-.4-1-2.1-1.1-2.1-2.3-.1-1 1.4-1.2 1.6-2-2.6-.2-5.3-.3-8-.3q-1.2 0-2.5.1" transform="translate(.2 .345)"/><g fill="url(#g)" transform="translate(.2 .345)"><path d="M121.7 42.4c-3.1.8-6.3 2-9.1 3.6-1.4.8-2.8 1.6-4.1 2.5-1.2 1-2.4 1.9-3.5 3.2-.9 1-1.7 2-1.1 3.5.5 1.1 2 2.1 3.1 2.6 3.5 1.7 7.4 1.9 11.2 1.8 6.1 0 13-1.3 18.3-4.5 2.5-1.6 5.7-4 7-6.7.6-1.2.8-2.3.5-3.6-.2-1-.8-1.2-2-1.6-3.7-1.2-7.8-1.8-11.9-1.8-2.8 0-5.7.3-8.4 1M146.4 49.4c.8-.7 1.9-1.2 2.6-2.1-.9-.5-2-.6-3-.7-.1.7.2 1.9.4 2.8"/><path d="M153.5 55.2c-1.3 0-2.6.2-3.9.1-.3 0-2-.3-2.3.1-.2.2.1.9 0 1.6-.2 1.6-2.5 3.9-4.1 5.2-4 3.2-9.3 5.6-14.3 6.7-5.5 1.2-11.5 2.1-17 .4-2.2-.7-4.9-1.7-6.1-3.8-1.2-2.3-1.8-5.5-2.4-8-3.1 1.6-5.8 4.7-6.5 8.2-.8 3.6 1.3 6.1 4.3 7.4 3.5 1.6 7.4 1.6 11.2 2.1 3.9.6 7.8.4 11.7 0 3.7-.3 6.7-.9 10.8-2.2 3.8-1.1 7.7-2.5 11.1-4.7 3.1-1.9 6.2-4.3 8.8-7 1-1 2.1-2.6 2.6-3.9.4-1.2.4-1.7-.6-2-.4-.2-.9-.3-1.4-.3-.7 0-1.4.1-1.9.1"/></g><path fill="url(#h)" d="M132.4 59.4c-7.5 3.1-15.7 2.9-19.4 2.5-5-.6-8-3.2-8.8-3.5.4 2 1 4 1.4 6 .2.6.7 1.1 1 1.6.1.3.8.7 1.1 1 .8.7 1.1.7 2.1 1.1 1.6.8 2.9 1.1 4.8 1.4 1.3.2 2.6.5 4 .5 1.3 0 2.7-.2 4.2-.3 1.4-.2 2.7-.5 4.2-.8s3-.6 4.3-1c.3-.1 1-.3 1.3-.4 2-.8 3.1-1.1 4.8-2l2-1.2c1.4-.7 2.2-1.9 3.5-2.4 1.5-1.7 3.5-2.5 3.9-4.6.4-1.7 0-2.9-.3-4.5-.1-.7-.3-1.6-.4-2.4-.1-.7-.1-2.5-.7-2.9-.1-.1-1.1 7.9-13 11.9" transform="translate(.2 .345)"/></svg>