<svg xmlns="http://www.w3.org/2000/svg" width="300" height="300.001" fill-rule="evenodd" stroke-linejoin="round" stroke-miterlimit="2" clip-rule="evenodd" viewBox="0 0 300 300.001"><path fill="#be9c15" d="M150 0c82.288 0 150 67.713 150 150s-67.712 150-150 150S0 232.289 0 150 67.713 0 150 0"/><path fill="#fff" d="M150 3.92c80.137 0 146.08 65.943 146.08 146.08S230.138 296.08 150 296.08 3.92 230.139 3.92 150 69.863 3.92 150 3.92"/><path fill="#ac152a" d="M150 9.497c77.078 0 140.503 63.426 140.503 140.503S227.078 290.503 150 290.503 9.497 227.078 9.497 150 72.923 9.497 150 9.497"/><path fill="#fff" d="M150 57.772c50.595 0 92.229 41.633 92.229 92.228S200.595 242.23 150 242.23 57.772 200.596 57.772 150 99.405 57.772 150 57.772"/><path fill="#be9c15" d="M150 63.35c12.325 0 24.046 2.58 34.662 7.22.19 1.343.372 2.921.538 4.465-10.684-5.026-22.613-7.84-35.2-7.84-20.669 0-39.572 7.577-54.082 20.105-2.29.23-4.675.546-6.784 1.04C104.782 72.89 126.28 63.35 150 63.35m45.285 12.77a87 87 0 0 1 18.09 14.802 51 51 0 0 1-.506 5.195 83.3 83.3 0 0 0-14.24-13.135c-.99-2.297-2.1-4.626-3.344-6.863m28.381 28.25c8.23 13.252 12.985 28.886 12.985 45.63 0 47.848-38.803 86.65-86.65 86.65S63.35 197.849 63.35 150c0-13.646 3.16-26.554 8.782-38.038a28.3 28.3 0 0 0 2.344 4.04c-4.678 10.374-7.282 21.883-7.282 33.998 0 45.725 37.081 82.806 82.806 82.806s82.806-37.08 82.806-82.806c0-13.517-3.24-26.278-8.988-37.55a60 60 0 0 0-.152-8.08"/><path fill="#ac152a" d="M169.672 88.357v61.194q-.314.09-.626.178c-3.95 1.107-7.814 2.02-11.696 2.63V96.841l7.464-8.949c-2.366.832-4.93 1.812-7.464 2.745v-8.814a203 203 0 0 1 12.322 6.533m26.759 21.654v23.741c-2.204 2.9-5.002 5.475-7.846 7.426a48 48 0 0 1-4.476 2.707V97.878c2.15 1.619 4.265 3.371 6.077 5.187 2.14 2.143 4.37 4.44 6.245 6.946m0 65.692v36.007a77 77 0 0 1-9.279 6.003c-1.016-4.99-2.036-9.978-3.043-14.969v-17.8a34.3 34.3 0 0 0 12.322-9.241m26.166-52.087q.387 1.065.744 2.142v48.485a77 77 0 0 1-12.322 23.09v-51.447c5.672-7.043 9.494-14.468 11.578-22.27M139.981 226.58a77 77 0 0 1-9.465-1.832v-20.29c2.614-.073 5.225-.23 7.79-.445l.29-.024c.894 6.585 1.549 13.482 1.463 20.095-.009.708-.03 1.57-.078 2.496m-9.465-116.125v-35.2a77 77 0 0 1 7.857-1.608l.038.016c1.478.61 2.954 1.206 4.427 1.804V97.13c-3.81 2.787-7.138 6.337-9.921 10.017a102 102 0 0 0-2.4 3.308m12.322 10.984v29.442c-2.3-5.355-2.952-11.183-2.464-17.095.326-3.939 1.244-8.341 2.464-12.347m-26.91 97.879a77.3 77.3 0 0 1-12.32-7.578v-13.99c1.23 2.315 2.951 3.999 5.608 4.642 2.235.54 4.466.981 6.712 1.317zm-12.32-37.362V139.45c1.215.895 2.679 2.007 4.018 2.968l-.427 5.868c1.734 6.36 4.7 13.819 8.73 19.795v5.29q-.331.18-.655.337c-1.724.83-3.197 1.095-5.031 1.53-2.416.575-4.111 2.015-5.331 3.906-.562.871-.973 1.825-1.305 2.811m0-83.908V88.26a77.3 77.3 0 0 1 12.32-7.578v9.598c-4.19 2.535-8.785 5.06-12.32 7.766m12.32-3.39v29.823c-3.606-1.145-7.39-3.126-10.041-4.6.514-8.18 5.66-17.912 10.041-25.222M89.02 197.382a77.1 77.1 0 0 1-12.322-23.023v-48.715q.81-2.433 1.773-4.792l.102.107c3.083 3.18 6.684 6.002 10.447 8.655z"/><path fill="#be9c15" d="M143.353 235.148c.815-2.12 1.391-6.088 1.455-11.003.081-6.32-.585-14.21-1.637-21.752 11.12-1.728 19.765-6.35 23.604-12.894l-.61-.446c-2.48 2.416-5.5 5.05-9.378 6.667-4.483 1.87-11.477 2.943-18.875 3.56-4.9.41-9.98.746-14.627.528-5.11-.24-9.702-1.172-12.952-1.958-1.423-.344-2.15-1.341-2.706-2.445-1.563-3.103-1.378-7.795.453-12.294.638-1.569 1.377-2.916 3.11-3.327 1.419-.337 3.675-.76 6.143-1.948 2.045-.985 4.496-2.497 6.62-4.925.755-.863.732-1.66.275-2.11-5.01-4.614-9.367-12.846-12.222-23.312 3.413.275 7.637 1.279 10.94 2.557-2.798-4.127-9.857-9.504-17.994-15.096-8.004-5.5-17.064-11.203-22.97-17.297-5.611-5.79-8.451-11.958-6.124-17.075 2.875-6.322 12.447-9.15 24.184-10.066-9.488 2.858-16.821 7.801-17.03 13.394-.153 4.08 3.457 8.874 13.01 14.944 2.271-6.837 5.13-12.36 10.957-17.725-2.714 5.958-5.663 12.275-5.805 19.506-.04 2.01.097 1.911 1.822 2.881 6.008 3.377 13.996 7.35 20.157 6.32.895-.196 1.878-.8 2.655-1.752 1.115-1.367 1.811-3.246 2.658-4.952 2.317-4.664 5.015-9.257 8.163-13.419 3.438-4.546 8.231-9.463 13.999-12.013-4.665 5.481-8.514 12.2-11.143 19.337-1.98 5.378-3.27 11.243-3.693 16.361-.673 8.15.395 16.638 5.262 24.236 10.112.989 19.243-.517 29.274-3.329 7.71-2.162 15.015-5.142 20.943-9.208 5.437-3.728 10.023-8.927 12.401-14.21 2.404-5.34 2.481-10.773.842-15.432-2.002-5.687-6.273-11.04-10.967-15.741-4.837-4.844-14.179-11.227-24.297-16.81-9.212-5.084-18.944-9.396-29.03-13.553 10.553.864 20.089 3.92 28.936 7.719 6.557 2.815 12.737 5.97 18.67 9.3 1.064.596 1.763-1.381 1.806-3.498.075-3.777-1.147-10.032-2.076-13.8 2.173 3.536 4.012 7.128 5.177 9.532 1.913 3.947 2.982 6.575 4.079 9.261.75 1.838 1.436 3.704 2.731 6.039.722 1.302 1.41 2.07 2.144 3.062.646.875 1.331 1.975 2.11 3.06 2.592 3.611 5.552 8.137 7.872 11.842 3.865-5.234 5.46-14.794 5.142-22.879 6.977 23.04 2.079 41.255-11.438 56.492-3.783 4.265-8.246 8.183-13.293 11.896 2.22-.226 5.697-.567 7.917-.492-2.372 13.3-11.08 22.225-22.263 25.314-1.144.316-1.324.462-1.464 1.834-.102.994.166 3.21.571 5.856.49 3.193 1.254 7.013 1.865 10.067 1.835 9.183 3.734 18.353 5.58 27.533-7.338 5.536-35.207 8.407-40.933 7.663"/><g fill="#fff"><path d="M139.493 160.88c-.461.563-1.007 1.269-1.731 2.075-.932 1.038-2.034 2.092-3.186 3.37-2.112 2.346-4.022 4.792-6.047 6.754-1.713 1.66-4.057 3.355-6.081 4.626-3.319 2.083-6.111 2.844-10.35 4.192 7.906-.26 14.194-.573 15.664 1.094.872.989 1.49 4.4-1.095 7.267-.322.357-.2.66.157.618a2.32 2.32 0 0 0 1.572-.791c.634-.727 1.076-1.99 1.569-3.206 1.3-3.208 2.375-7.27 4.443-9.548 1.434-1.578 3.067-2.638 4.787-4.003 4.757-3.774 10.208-7.624 14.179-11.735-3.8-.721-11.26-.634-13.881-.713m49.17-69.505c7.632 5.597 14.096 13.14 17.306 20.725 1.568 3.704 2.56 7.78 2.5 11.967-.05 3.46-.43 6.136-2.266 10.578-.14.34-.16.691-.03.744s.412-.113.587-.353c2.893-3.964 4.156-8.989 3.85-13.804-.306-4.834-2.436-10.938-6.337-16.676-2.07-3.045-4.736-6.198-7.954-8.968-2.13-1.834-5.392-4.237-7.197-4.726-.51-.138-.888.2-.46.513M80.337 113.498c.702 1.562 2.618 3.9 5.546 6.32 3.186 2.631 9.014 6.203 15.564 10.324 3.83 2.41 7.693 4.863 11.427 7.42 4.795 3.282 9.295 6.684 14.254 11.782.172.176.442.044.467-.201.127-1.224-1.997-3.73-4.739-6.137-1.273-1.117-2.83-2.305-4.463-3.544-9.37-7.107-23.842-16.231-32.997-22.665-1.555-1.093-3.054-2.427-4.586-3.57-.363-.272-.66-.144-.473.27m71.403 63.557c-.333-2.44 2.248-5.227 5.635-5.5 1.707-.138 3.093 2.226 1.574 4.367-1.358 1.912-5.129 1.521-7.21 1.134zm22.104-12.376c1.11 1.221 2.22 2.366 3.329 3.587 9.699-2.679 17.43-6.104 19.766-9.014.25-.317.269-.74-.38-.406-7.542 2.929-16.636 4.408-22.715 5.833m-57.979-14.271c2.053 1.127 4.334 2.42 6.828 4.034 2.654 1.717 5.55 3.787 8.667 6.061.943-.606 2.164-1.482 3.024-1.854-4.263-3.074-11.135-6.969-18.35-8.626-.44-.17-.734.122-.169.385M84.025 66.916q-3.915 3.092-8.773 2.79l.111-4.117q3.873.084 6.285-1.822 2.3-1.815 1.077-3.363-.54-.682-1.477-.607-1.002.09-3.332 1.116-3.312 1.47-5.087 1.467-2.314.018-4.076-2.213-1.707-2.163-1.18-4.722.505-2.543 2.964-4.484 3.39-2.679 7.517-2.648l.264 4.078q-3.493.21-5.382 1.701-.979.773-1.202 1.614-.218.8.286 1.438.61.773 1.617.644.926-.14 3.473-1.264 3.135-1.367 5.045-1.287 2.236.118 3.819 2.121 1.833 2.321 1.255 4.959-.564 2.515-3.204 4.6M87.388 44.627l-5.35 3.089-2.06-3.567 14.568-8.41 2.06 3.566-5.35 3.09 8.091 14.014-3.868 2.233zM99.383 33.707l14.325-5.412 1.404 3.716-10.173 3.845 1.455 3.852 8.953-3.383 1.405 3.717-8.953 3.383 1.507 3.988 10.309-3.895 1.404 3.717-14.46 5.463zM117.674 27.227l4.855-.856 7.71 13.158 2.744-15.002 4.741-.836-4.532 21.56-3.885.686zM141.649 23.504h15.313v3.973h-10.876v4.119h9.57v3.972h-9.57v4.264h11.02v3.973H141.65zM164.315 23.853l4.043.786 6.953 14.085 2.385-12.27 4.327.841-3.874 19.928-3.73-.725-7.187-14.544-2.463 12.668-4.327-.84zM196.107 32.103l3.81 1.563.292 22.218-4.32-1.771.01-4.917-7.942-3.258-3.445 3.508-4.213-1.727zm-.187 12.838.003-7.115-4.994 5.068zM209.001 62.47q-3.91-2.658-4.701-6.807-.8-4.087 1.775-7.876 2.462-3.622 6.668-4.445 4.27-.816 8.037 1.745 3.885 2.64 5.03 6.785l-4.233 1.225q-.882-3.088-3.232-4.686-2.015-1.369-4.466-.756-2.46.574-3.942 2.757-1.565 2.302-1.153 4.792.389 2.472 2.62 3.989 2.085 1.418 4.162 1.356l1.63-2.399-3.718-2.527 2.168-3.19 7.293 4.956-4.957 7.292q-4.951.527-8.98-2.212M233.308 55.013l10.828 10.828-2.81 2.81-7.69-7.69-2.912 2.912 6.767 6.767-2.81 2.81-6.767-6.768-3.014 3.015 7.793 7.792-2.81 2.81-10.93-10.93zM66.583 217.886l8.546 9.391-2.466 2.245-6.077-6.678-2.626 2.389 5.356 5.885-2.467 2.244-5.356-5.885-4.774 4.345-2.47-2.713zM71.938 246.45q-2.963-2.399-3.336-5.95-.384-3.5 1.895-6.314 2.263-2.796 5.8-3.15 3.57-.36 6.532 2.04c2.962 2.4 3.093 3.588 3.354 5.966q.367 3.484-1.912 6.298-2.265 2.796-5.782 3.166-3.59.343-6.55-2.055m2.166-2.599q1.703 1.38 3.774 1.094 2.017-.297 3.412-2.018 1.38-1.704 1.231-3.755-.154-2.117-1.857-3.497t-3.755-1.079q-2.038.282-3.432 2.004-1.379 1.703-1.213 3.769.136 2.103 1.84 3.482M89.787 258.423q-3.301-1.906-4.225-5.355-.929-3.397.883-6.533 1.798-3.115 5.236-4.019 3.47-.912 6.771.994t4.246 5.367q.906 3.385-.904 6.52-1.799 3.115-5.216 4.031-3.49.9-6.791-1.005m1.732-2.906q1.898 1.096 3.899.49 1.947-.61 3.055-2.528 1.095-1.897.629-3.9-.484-2.068-2.382-3.163-1.898-1.096-3.878-.479-1.969.597-3.076 2.516-1.095 1.898-.608 3.913.464 2.055 2.361 3.151M109.493 253.1l-4.76-1.76 1.174-3.172 12.96 4.793-1.174 3.173-4.76-1.76-4.61 12.467-3.442-1.273zM120.363 253.074l7.544 1.742q2.808.648 3.915 2.419.857 1.372.466 3.066-.531 2.298-2.945 3.012 2.773 1.863 2.108 4.741-.504 2.182-2.443 2.957-1.835.75-4.667.096l-7.73-1.785zm5.26 8.133q2.577.595 2.985-1.169.386-1.671-1.959-2.212l-3.528-.815-.793 3.435zm-.559 6.766q2.53.584 2.948-1.226.408-1.765-2.239-2.375l-4.131-.954-.825 3.574zM141.303 256.859l3.376.218 6.048 17.221-3.828-.247-1.28-3.83-7.037-.456-1.762 3.634-3.733-.241zm3.218 10.043-1.862-5.539-2.56 5.254zM153.164 257.245l3.659-.275 1 13.303 8.291-.623.25 3.326-11.95.898zM166.615 256.022l3.6-.707 2.569 13.091 8.158-1.6.643 3.272-11.76 2.308zM199.969 263.901q-3.383 1.422-6.613.067-3.2-1.342-4.613-4.702-1.404-3.338-.123-6.564 1.306-3.288 4.797-4.756 3.405-1.43 7.004.002l-1.042 3.177q-2.609-.92-4.673-.052-1.932.813-2.616 2.754-.669 1.91.189 3.952.849 2.02 2.683 2.878 1.874.892 3.806.08 2.064-.869 3.284-3.5l3.121 1.401q-1.338 3.638-5.204 5.263M200.988 244.805l3.135-1.906 6.931 11.4 7.104-4.32 1.733 2.85-10.24 6.225zM228.277 246.953q-2.647 2.143-5.28 1.884-2.714-.285-4.992-3.1l-5.997-7.405 2.85-2.31 5.937 7.332q1.26 1.556 2.675 1.789 1.381.23 2.715-.85 1.333-1.079 1.425-2.44.08-1.415-1.148-2.934l-6.012-7.424 2.851-2.309 5.922 7.314q2.339 2.888 2.016 5.631-.296 2.662-2.962 4.822M225.07 227.475l5.28-5.662q1.965-2.109 4.054-2.182 1.616-.055 2.887 1.13 1.725 1.609 1.136 4.056 3-1.47 5.16.545 1.638 1.527 1.34 3.594-.27 1.965-2.251 4.09l-5.41 5.802zm9.674-.49q1.804-1.933.48-3.168-1.255-1.17-2.896.59l-2.47 2.648 2.58 2.405zm5.58 3.868q1.77-1.9.412-3.166-1.324-1.236-3.177.751l-2.891 3.101 2.682 2.502zM24.516 145.405l-2.888.71-.758-2.983 4.759-1.42h2.485V158.4h-3.598zM37.354 158.684q-3.077 0-5.444-1.965l1.918-2.77q1.774 1.421 3.621 1.42 2.96.001 3.361-3.763-1.325 1.137-3.36 1.136-2.724 0-4.309-1.42-1.61-1.443-1.61-3.977 0-2.508 1.752-4.142 1.776-1.657 4.568-1.657 2.983 0 4.782 1.799 1.965 1.965 1.965 6.297 0 4.118-1.847 6.533-1.94 2.509-5.397 2.509m.687-8.972q1.325 0 2.107-.71.733-.686.733-1.799t-.78-1.822-2.131-.71q-1.326 0-2.083.71-.734.686-.734 1.846 0 1.112.781 1.8c.781.687 1.223.685 2.107.685M261.36 144.966h-7.788v-3.149h11.93v2.746l-7.433 13.824h-4.119zM274.15 158.675q-3.008 0-4.783-1.774-1.964-1.965-1.964-6.32 0-4.025 1.775-6.44 1.918-2.603 5.492-2.603 2.888 0 5.184 1.823l-1.918 2.817q-1.751-1.326-3.385-1.326-2.91 0-3.337 3.834 1.61-1.065 3.432-1.065 2.557 0 4.142 1.35 1.681 1.444 1.681 3.976 0 2.51-1.799 4.143-1.8 1.585-4.52 1.585m-.143-3.124q1.326 0 2.107-.687.733-.685.733-1.798 0-1.066-.757-1.728-.804-.687-2.13-.687c-1.326 0-1.578.23-2.084.687q-.757.64-.757 1.751 0 1.065.781 1.752.781.71 2.107.71"/></g></svg>