<svg xmlns="http://www.w3.org/2000/svg" width="697.293" height="933.333" viewBox="0 0 697.293 933.333"><clipPath id="a"><path d="M0 1080h1080V0H0z"/></clipPath><g clip-path="url(#a)" transform="matrix(1.33333 0 0 -1.33333 -371.353 1186.667)"><path fill="#231f20" d="M539.997 890c-134.862 0-237.215-66.749-241.502-69.593l-7.762-5.141-1.843-9.122c-1.613-8.016-21.108-105.623-2.124-232.838C311.991 404.285 395.78 274 529.084 196.552L540.347 190l11.263 6.552c133.285 77.441 216.955 207.688 241.982 376.656 18.691 126.217-1.565 228.657-2.443 232.962l-1.844 9.106-7.75 5.136C777.266 823.251 674.91 890 540.051 890z"/><path fill="#fff" d="M539.915 877.91c-131.494 0-231.14-64.962-235.319-67.73l-3.878-2.565-.919-4.565c-.853-4.214-20.583-104.609-2.028-228.969 24.701-165.53 106.606-293.032 236.857-368.716l5.637-3.274 5.631 3.274c130.225 75.667 212.008 203.13 236.522 368.606 18.413 124.332-1.479 224.874-2.333 229.088l-.927 4.556-3.878 2.565c-4.17 2.768-103.815 67.73-235.312 67.73z"/><path fill="#f63440" d="M541.267 214.178c311.107 180.78 228.829 585.779 228.829 585.779s-99.5 65.866-229.124 65.866h-.055c-129.628 0-229.13-65.866-229.13-65.866s-81.63-404.998 229.48-585.78"/><path fill="#fff" d="M572.623 591.047c0-17.995-14.587-32.583-32.583-32.583s-32.58 14.588-32.58 32.583c0 17.993 14.585 32.58 32.58 32.58 17.996 0 32.583-14.587 32.583-32.58"/><path fill="#231f20" d="m443.553 544.916-.521-.574-3.717-18.909 5.04-2.124c21.772 31.557 57.616 50.397 95.883 50.397 37.994 0 73.7-18.633 95.5-49.84l5.03 2.133-3.618 18.43-.528.576c-24.701 27.115-59.856 42.667-96.461 42.667-36.771 0-71.984-15.583-96.608-42.756M533.13 812.415l-31.926-31.923 38.836-38.839 38.842 38.839-38.842 38.832z"/><path fill="#fff" d="m565.053 780.492-25.013-25.018-25.015 25.018 25.015 25.011zM638.158 525.46c-21.547 30.85-57.308 56.427-97.791 56.427-40.733 0-76.68-25.822-98.183-56.991l-4.18-21.25 204.176 1.133-.413 2.338z"/><g fill="#231f20"><path d="m462.534 834.788-78.574-78.571 226.684-226.682 85.478 85.479L469.443 841.7z"/><path d="m603.737 834.788-219.774-219.77 85.48-85.483 226.68 226.682-85.475 85.483z"/><path d="m462.534 834.788-78.574-78.571 226.684-226.682 85.478 85.479L469.443 841.7z"/></g><path fill="#fff" d="m682.299 756.216-71.65 71.66-70.606-70.602-70.6 70.602-71.66-71.66 70.6-70.599-70.6-70.599 71.66-71.659 70.6 70.598 70.6-70.598 71.656 71.654-70.596 70.604z"/><g fill="#231f20"><path d="M565.38 685.03c0-14.448-11.707-26.155-26.158-26.155-14.445 0-26.157 11.707-26.157 26.155s11.711 26.162 26.156 26.162c14.451 0 26.158-11.714 26.158-26.162M419.757 617.063l53.602-53.602 14.889 14.892-19.795 19.793 19.095 19.095-12.09 12.086-18.569-18.569-9.28 9.286 23.472 23.472-12.438 12.437zM615.257 804.416s-13.745-13.753-37.575-37.578c-21.02-21.019 22.949-63.936 40.645-46.243l40.293 40.291-14.717 14.712-35.213-35.208c-7.007-7.01-20.498 7.88-14.19 14.184 6.306 6.312 35.3 35.302 35.3 35.302zM450.059 762.963l9.895-9.897s9.9 9.896 10.95 10.95c4.849 4.848-5.78 14.366-10.33 9.811-4.558-4.555-10.515-10.865-10.515-10.865m6.48 29.49c.586.586 2.458 2.803 4.906 3.036 28.23 2.677 27.677-25.343 27.677-25.343 16.238 0 30.658-18.744 30.658-18.744l-13.023-12.554c-14.247 14.25-18.101 18.571-22.714 13.958l-12.262-12.26 18.394-18.397-13.666-13.662-52.197 52.201s28.265 27.79 32.227 31.764M642.92 595.257c9.656 14.662 8.653 33.86-3.222 45.74-13.762 13.756-37.118 12.71-52.167-2.338-15.053-15.053-16.094-38.405-2.337-52.17 12.17-12.17 32.49-12.11 47.29-1.677l-13.673 13.61c-6.946-4.06-15.4-3.364-20.225 1.462-6.034 6.029-4.723 17.127 2.935 24.778 7.656 7.658 18.75 8.97 24.783 2.94 4.814-4.817 6.996-11.748 2.973-18.69zM437.821 475.722l-1.652-8.395 207.364 1.92-1.642 8.363zM443.497 505.712l-.523-.576-6.787-12.516 4.728-2.256c21.773 31.555 61.479 46.678 99.742 46.678 37.995 0 76.673-18.75 97.419-44.852l2.361.524-3.345 12.504-.533.581c-24.694 27.11-59.717 40.872-96.317 40.872-36.771 0-72.123-13.798-96.745-40.959"/></g><path fill="#fff" d="m442 496.969-4.178-21.247zM641.58 479.19l-3.605 18.344h-.004z"/><path fill="#fff" d="M639.655 491.852c-18.262 21.305-50.871 45.226-99.663 45.226-45.679 0-78.007-20.144-99.511-45.672l-5.648-14.852 204.068 1.546 8.468 4.908-7.22 8.265z"/><path fill="#231f20" d="m654.459 469.345-5.098 25.922-12.657 64.386-10.53-2.127 8.326-42.331 3.475-17.662 3.605-18.343.312-1.58 1.642-8.363 3.715-18.913 10.527 2.129zM443.38 559.652l-12.708-64.642-5.464-27.787-2.9-14.76 10.523-2.129 3.338 16.992 1.652 8.395L442 496.97l3.57 18.144 8.334 42.413z"/><path fill="#fff" d="M663.363 400.54c0-68.49-55.524-124.02-124.023-124.02-68.494 0-124.021 55.53-124.021 124.02 0 68.498 55.527 124.022 124.02 124.022 68.5 0 124.024-55.524 124.024-124.021"/><path fill="#231f20" d="M549.914 282.566c19.39 16.546 58.87 58.858 55.522 126.968 7.128 3.504 32.333 11.45 52.858-2.769.106-2.062.163-4.136.163-6.224 0-62.074-47.767-112.959-108.543-117.975M421.626 400.541c0 .358.019.703.024 1.056 37.025-41.535 65.869-55.428 82.755-59.933-11.34-10.454-25.438-20.676-41.995-30.502-24.975 21.713-40.784 53.683-40.784 89.38m47.036 94.478c10.749-6.684 68.59-44.887 68.964-91.997a54 54 0 0 0-.237-5.374c-53.578 14.407-88.17 62.928-93.89 71.427a119 119 0 0 0 25.163 25.944m121.997 12.586c-61.52 3.842-88.582-16.769-92.796-20.379-8.42 6.677-15.768 11.472-20.012 14.081 18.075 11.18 39.375 17.652 62.192 17.652 18.11 0 35.268-4.08 50.616-11.354m51.45-47.038c-55.177 30.24-109.883-7.095-110.87-7.779-7.43 10.558-16.31 19.745-24.851 27.303l.35-.257c.278.26 28.788 25.565 105.975 14.165a119 119 0 0 0 29.396-33.432m-96.776-35.64c-2.064 6.648-4.947 12.972-8.381 18.938 7.783 5.074 63.579 38.46 114.502-3.142a117.3 117.3 0 0 0 5.376-20.666c-23.172 12.903-46.944 4.011-55.791-.218-17.988 15.696-41.681 11.385-55.706 5.088m-31.31-73.619c-12.651 2.405-47.245 14.751-91.3 65.195a117.6 117.6 0 0 0 14.05 41.976c9.093-13.037 43.567-57.605 98.487-71.866-3.444-11.832-10.637-23.674-21.236-35.305m17.365-68.836c-22.071 1.593-42.454 9.232-59.521 21.276 51.368 30.643 77.273 64.07 76.969 99.401a74 74 0 0 1-.867 10.584c7.142 3.542 29.487 12.617 46.143-2.376 4.867-76.587-51.66-120.965-62.724-128.885m8.654 247.693c-71.478 0-129.63-58.15-129.63-129.625 0-71.479 58.152-129.63 129.63-129.63s129.627 58.151 129.627 129.63c0 71.475-58.15 129.625-129.627 129.625"/><path fill="#231f20" d="M520.389 523.83v19.517s-2.441 27.643 19.512 27.643c21.95 0 19.104-28.05 19.104-28.05v-19.516z"/></g></svg>