<svg xmlns="http://www.w3.org/2000/svg" width="480" height="480" viewBox="375 375 480 480"><path fill="#fff" d="M614.684 845.422c-27.094 0-53.622-4.702-79.016-14.019-27.965-10.262-53.38-25.66-75.537-45.767s-39.942-43.912-52.863-70.754c-13.377-27.792-20.925-57.634-22.431-88.698s3.117-61.496 13.741-90.453a229.6 229.6 0 0 1 20.48-42.048 230 230 0 0 1 29.05-37.538 230 230 0 0 1 36.327-31.037 229.5 229.5 0 0 1 40.872-22.399c28.407-12.017 58.58-18.108 89.68-18.108s61.274 6.091 89.681 18.108c27.436 11.604 52.075 28.215 73.231 49.372 17.543 17.543 31.96 37.48 42.99 59.42l.013-.007c14.506 28.812 22.66 59.887 24.235 92.364s-3.533 64.199-15.185 94.282l-.05-.019a228.4 228.4 0 0 1-16.098 33.359 231.2 231.2 0 0 1-31.216 41.588 231.3 231.3 0 0 1-41.485 34.788c-34.18 22.404-73.939 35.298-114.982 37.288q-5.735.279-11.438.278"/><path fill="#cbb37f" d="M662.541 635.406c-.498.409-46.728 37.702-47.548 38.368-.832-.666-47.077-37.979-47.567-38.368v-86.74a89003 89003 0 0 1 43.137 34.82 2420 2420 0 0 1 4.43 3.564s1.686-1.37 4.443-3.588c11.494-9.281 41.41-33.433 43.105-34.795zm33.872 14.75V506.79c0-1.884-1.522-3.415-3.385-3.415H665.69c-.765 0-1.514.265-2.111.748 0 0-43.952 35.451-48.587 39.191-.842-.664-48.596-39.19-48.596-39.19a3.4 3.4 0 0 0-2.12-.75h-27.332c-1.868 0-3.39 1.532-3.39 3.416v143.365c0 1.04.464 2.01 1.271 2.67 0 0 60.737 48.992 63.611 51.319h-61.492a3.4 3.4 0 0 0-3.39 3.41v27.23c0 1.887 1.522 3.415 3.39 3.415h156.08c1.863 0 3.385-1.528 3.385-3.416v-27.23c0-1.887-1.522-3.41-3.385-3.41h-61.492c2.869-2.326 63.605-51.318 63.605-51.318a3.44 3.44 0 0 0 1.272-2.67"/><g fill="#100f0d"><path d="m465.264 571.243-.963 5.676-22.553-3.65-.04.239 21.275 11.165-.767 4.516-24.223 3.963-.033.2 22.92 3.71-.964 5.676-29.878-4.836 1.547-9.114 21.427-3.347.027-.16-19.195-9.803 1.54-9.072zM438.505 558.13l1.832-5.467 28.786 9.193-1.832 5.468-28.787-9.194M442.87 545.457l2.403-5.254 22.693 9.896 4.974-10.877 4.963 2.165-7.376 16.129-27.655-12.06M459.71 523.854l-4.902 7.994-4.663-2.726 12.851-20.96 4.664 2.725-4.902 7.995 21.324 12.467-3.048 4.971zM495.453 508.25c3.625-4.01 3.151-10.038-1.08-13.685s-10.415-3.356-14.04.654c-3.624 4.011-3.123 10.008 1.109 13.654s10.387 3.386 14.011-.623m-19.38-16.704c5.957-6.592 15.906-7.313 22.501-1.629 6.627 5.71 7.1 15.414 1.142 22.005-5.958 6.593-15.849 7.31-22.475 1.6-6.596-5.685-7.127-15.383-1.169-21.976M534.353 482.078l-4.81 3.46-24.664-7.626-.134.096 12.401 16.443-4.744 3.411-17.961-23.816 4.777-3.435 24.59 7.528.166-.121-12.326-16.345 4.744-3.412zM536.018 447.926l5.465-2.148 4.68 11.352 4.713-15.044 6.812-2.678-5.77 17.469 18.043 9.592-7.12 2.799-15.113-8.343 5.066 12.29-5.465 2.15zM565.602 437.22l18.946-4.147 1.189 5.178-13.197 2.89 1.515 6.6 12.51-2.736 1.094 4.95-12.47 2.729 1.597 6.957 13.805-3.022 1.19 5.18-19.555 4.279zM603.208 449.426l-12.05-17.566 6.835-.37 7.931 12.352 6.361-13.124 6.587-.357-9.784 18.707.648 11.407-5.884.318zM649.359 463.53l-5.921-.778-12.301-22.218-.166-.022-2.787 20.237-5.839-.768 4.039-29.309 5.88.772 12.317 22.099.206.026 2.772-20.115 5.839.767zM662.637 436.615l18.494 5.777-1.656 5.055-12.883-4.023-2.11 6.443 12.21 3.815-1.62 4.81-12.17-3.802-2.225 6.792 13.475 4.21-1.657 5.055-19.086-5.964zM680.622 466.103c1.195 2.387 3.152 4.464 5.271 5.49 2.454 1.188 4.679.817 5.563-.925.736-1.453.1-3.027-2.303-5.681l-.875-1.013c-3.894-4.28-4.76-7.683-2.955-11.242 2.378-4.68 7.512-6.04 12.903-3.432 2.937 1.422 5.785 3.93 7.184 6.282l-4.813 3.005c-1.436-2.096-2.962-3.558-4.561-4.333-2.157-1.043-4.27-.71-5.082.888-.681 1.343-.063 2.954 2.509 5.826l1.023 1.173c3.69 4.137 4.48 7.414 2.712 10.9-2.487 4.9-7.993 6.259-13.644 3.525-3.384-1.638-6.437-4.563-7.894-7.53z"/></g><path fill="#ce142c" d="M727.144 466.75c7.194 5.289 8.702 14.918 3.411 21.78-5.317 6.895-15.185 8.109-22.379 2.821-7.194-5.29-8.693-14.862-3.378-21.756 5.29-6.862 15.153-8.133 22.346-2.845"/><g fill="#100f0d"><path d="M734.41 507.121c3.89 4.375 9.915 4.847 14.27 1.155 4.323-3.666 4.623-9.448.706-13.854l-3.102-3.487-14.976 12.698zm11.958-23.877 7.32 8.23c6.2 6.974 5.828 15.823-.877 21.51-6.674 5.657-15.82 4.826-21.996-2.119l-7.317-8.228zM755.118 535.852c2.656 4.677 8.632 6.261 13.566 3.589 4.936-2.672 6.726-8.46 4.07-13.137s-8.61-6.225-13.545-3.553c-4.936 2.673-6.746 8.424-4.09 13.101m22.608-12.24c4.366 7.69 1.73 17.085-5.964 21.25-7.729 4.185-17.25 1.37-21.615-6.318-4.365-7.69-1.746-17.03 5.984-21.214 7.693-4.165 17.229-1.406 21.595 6.283M767.447 580.352l-1.743-5.58 15.554-20.181-.048-.156-20 5.961-1.72-5.503 28.967-8.633 1.733 5.541-15.436 20.146.06.194 19.88-5.925 1.72 5.502zM775.772 585.182c-1.391 2.284-2.102 5.018-1.822 7.312.325 2.654 1.86 4.271 3.838 4.04 1.647-.191 2.647-1.574 3.61-4.99l.387-1.27c1.539-5.523 3.982-8.093 8.02-8.564 5.314-.619 9.288 2.833 10 8.666.39 3.179-.203 6.879-1.451 9.309l-5.211-2.29c1.011-2.321 1.43-4.369 1.219-6.098-.286-2.333-1.728-3.88-3.54-3.667-1.525.177-2.567 1.564-3.622 5.237l-.446 1.479c-1.527 5.278-3.904 7.718-7.858 8.179-5.56.648-9.74-3.107-10.487-9.222-.448-3.662.388-7.757 2.134-10.572zM491.243 722.053l11.136 11.784-3.314 3.13-7.742-8.194-4.35 4.11 7.217 7.638-3.162 2.988-7.216-7.639-7.638 7.217-3.393-3.59zM501.7 760.883c3.62 2.828 8.764 2.122 11.679-1.607 2.913-3.729 2.354-8.892-1.266-11.72-3.62-2.827-8.737-2.1-11.65 1.63s-2.381 8.87 1.237 11.697m13.348-17.083c5.95 4.65 7.067 12.942 2.526 18.754-4.564 5.84-12.857 6.735-18.809 2.086-5.95-4.648-7.06-12.89-2.497-18.732 4.54-5.813 12.828-6.756 18.78-2.108M529.496 778.852c4.064 2.14 9 .531 11.206-3.656 2.204-4.187.737-9.168-3.327-11.308s-8.97-.516-11.175 3.673c-2.206 4.187-.77 9.15 3.296 11.291m10.1-19.182c6.681 3.518 9.254 11.48 5.817 18.007-3.454 6.558-11.458 8.91-18.138 5.392-6.682-3.518-9.24-11.433-5.786-17.99 3.437-6.527 11.426-8.928 18.108-5.41M557.814 773.34l-7.552-2.65 1.511-4.301 19.798 6.95-1.51 4.3-7.551-2.65-6.905 19.667-4.695-1.648zM581.536 786.248c2.59.524 4.435-.346 4.821-2.255.393-1.946-.968-3.462-3.56-3.986l-3.855-.779-1.26 6.242zm-1.939 10.471c2.796.565 4.784-.31 5.197-2.358.408-2.011-1.084-3.591-3.88-4.156l-4.025-.813-1.317 6.514zm-4.671-22.562 9.277 1.874c5.15 1.04 8.221 4.465 7.442 8.32-.483 2.387-2.267 4.015-5.1 4.685l-.027.136c2.624 1.595 3.853 4.116 3.317 6.775-.8 3.956-5.07 6.113-10.151 5.085l-9.789-1.977zM611.285 794.983l-3.53-10.04-4.6 9.626zm-5.728-16.109 5.212.266 9.305 25.907-5.352-.272-1.853-5.322-11.746-.598-2.455 5.1-5.212-.265zM623.793 779.213l4.92-.44 1.848 20.76 10.19-.906.403 4.539-15.109 1.344zM642.493 777.292l4.84-1 4.218 20.411 10.019-2.071.923 4.464-14.857 3.071zM699.652 781.005c-1.233 3.88-4.002 6.899-7.786 8.494-7.021 2.96-14.73-.097-17.637-6.99-2.88-6.831.308-14.406 7.363-17.38 3.848-1.623 7.846-1.457 11.312.405l-2.59 4.339a7.99 7.99 0 0 0-6.933-.324c-4.201 1.771-6.058 6.594-4.233 10.923 1.838 4.36 6.634 6.418 10.866 4.633 2.31-.973 3.897-2.851 4.63-5.501zM693.873 759.948l4.256-2.51 10.584 17.957 8.813-5.195 2.314 3.927-13.069 7.703zM712.848 748.059l9.149 11.798c2.238 2.887 5.742 3.429 8.436 1.34 2.695-2.09 2.98-5.527.72-8.442l-9.148-11.796 3.905-3.029 9.383 12.1c3.752 4.839 2.956 11.138-1.939 14.933-4.922 3.817-11.254 3.092-15.029-1.776l-9.382-12.1zM750.44 743.257c1.976-2.057 2.302-4.205.797-5.652-1.481-1.422-3.614-1.01-5.59 1.048l-2.844 2.96 4.791 4.603zm-7.8-7.252c1.834-1.907 2.088-3.928.683-5.278-1.43-1.375-3.441-1.04-5.273.867l-2.724 2.836 4.592 4.411zm-13.748-.905 6.556-6.825c3.641-3.788 8.178-4.544 11.013-1.82 1.757 1.688 2.174 4.067 1.219 6.817l.1.097c2.753-1.36 5.541-1.046 7.498.834 2.91 2.796 2.44 7.555-1.152 11.292l-6.918 7.201z"/></g><path fill="#231f20" d="M826.423 615.014c0 116.587-94.85 211.436-211.437 211.436S403.55 731.6 403.55 615.014c0-116.589 94.85-211.437 211.436-211.437s211.437 94.852 211.437 211.437M614.986 395.06c-121.283 0-219.953 98.67-219.953 219.954s98.669 219.953 219.953 219.953 219.954-98.67 219.954-219.953S736.268 395.06 614.986 395.06"/><path fill="#231f20" d="M614.986 486.371c-17.537 0-34.463 3.477-50.404 10.342 2.206.075 4.353.869 6.082 2.254l3.542 2.858c13.073-4.747 26.787-7.155 40.78-7.155 13.975 0 27.676 2.4 40.736 7.139l3.507-2.828a10.3 10.3 0 0 1 6.159-2.27c-15.938-6.865-32.867-10.34-50.402-10.34"/><path fill="#cbb37f" d="m581.935 508.387 5.756 4.644a104.3 104.3 0 0 1 54.587-.013l5.757-4.646a110.52 110.52 0 0 0-66.1.015"/><path fill="#231f20" d="M526.634 533.65v-11.867c-25.318 24.147-39.774 57.753-39.774 92.706 0 34.956 14.463 68.57 39.79 92.718a10.2 10.2 0 0 1 4.095-7.629c-22.963-22.71-35.586-52.857-35.586-85.089 0-29.986 11.173-58.671 31.475-80.838M703.243 521.707v11.854c20.353 22.183 31.555 50.898 31.555 80.921 0 32.247-12.636 62.405-35.621 85.124a10.2 10.2 0 0 1 4.055 7.66c25.374-24.153 39.864-57.793 39.864-92.784 0-34.987-14.485-68.623-39.853-92.775M699.005 701.247q-.015-.016-.033-.033c.012.01.02.022.033.033"/><path fill="#cbb37f" d="M725.892 614.215c0-24.258-8.118-48.063-22.916-67.359v10.487c11.02 16.99 16.841 36.647 16.841 56.872 0 32.098-14.3 61.737-39.343 81.791h9.337c22.936-20.999 36.081-50.787 36.081-81.79M540.16 696.005h9.336c-25.046-20.054-39.346-49.693-39.346-81.79 0-20.181 5.799-39.799 16.766-56.757v-10.506c-14.748 19.28-22.84 43.049-22.84 67.262 0 31.001 13.147 60.789 36.084 81.79"/><path fill="#5b4e31" d="M584.563 714.842h2.795l3.099 4.986 3.098-4.986h2.795v11.787h-2.576v-7.694l-3.317 5.033h-.068l-3.283-4.983v7.644h-2.543zM604.226 714.842h2.795l3.099 4.986 3.097-4.986h2.796v11.787h-2.577v-7.694l-3.316 5.033h-.068l-3.284-4.983v7.644h-2.542zM624 714.842h2.592v11.787h-2.593zM633.576 714.842h2.864l3.08 8.303 3.083-8.303h2.796l-4.767 11.871h-2.29z"/><path fill="#cbb37f" d="M614.986 384.644c-127.022 0-230.356 103.34-230.356 230.37 0 127.02 103.34 230.356 230.356 230.356s230.37-103.34 230.37-230.356c0-127.023-103.34-230.37-230.37-230.37m0 470.358c-132.334 0-239.988-107.661-239.988-239.988 0-132.335 107.661-240.002 239.988-240.002 132.333 0 240.002 107.66 240.002 240.002 0 132.332-107.662 239.988-240.002 239.988"/></svg>