<svg xmlns="http://www.w3.org/2000/svg" width="925.955" height="925.953" viewBox="0 0 925.955 925.953"><clipPath id="a"><path d="M0 1080h1080V0H0z"/></clipPath><g clip-path="url(#a)" transform="matrix(1.33333 0 0 -1.33333 -257.265 1181.764)"><path fill="#22378a" d="M540.182 886.323c191.771 0 347.233-155.461 347.233-347.233 0-191.771-155.462-347.232-347.233-347.232S192.949 347.319 192.949 539.09s155.462 347.233 347.233 347.233"/><path fill="#12284c" d="M540.182 769.492c127.247 0 230.402-103.154 230.402-230.402S667.429 308.688 540.182 308.688 309.78 411.843 309.78 539.09c0 127.248 103.155 230.402 230.402 230.402"/><path fill="#fce200" d="M637.573 549.188c-6.917-7.354-10.176-15.901-17.133-23.295 7.155 15.027-7.95 22.42-30.609 44.085 17.133-7.354 30.609-13.476 47.702-20.79zm48.736-68.612a43.72 43.72 0 0 0-7.951-33.749c24.05 5.565 31.802 19.876 42.694 35.22a57.64 57.64 0 0 1-27.588 45.595l-51.2 30.212 1.073 23.096c-133.288 43.409-191.008 82.485-214.342 119.852a193.7 193.7 0 0 1 47.066-102.441c-26.475-.199-88.925-100.97-116.751-181.388 52.271-73.112 142.262-109.186 230.561-92.423-.438 73.223-21.546 173.994 96.279 156.066z"/><path fill="none" stroke="#fce200" stroke-miterlimit="10" stroke-width="5.446" d="M540.182 769.492c127.247 0 230.402-103.154 230.402-230.402S667.429 308.688 540.182 308.688 309.78 411.843 309.78 539.09c0 127.248 103.155 230.402 230.402 230.402z"/><path fill="none" stroke="#fce200" stroke-miterlimit="10" stroke-width="8.586" d="M540.182 876.028c186.085 0 336.937-150.852 336.937-336.937S726.267 202.154 540.182 202.154 203.245 353.006 203.245 539.091s150.852 336.937 336.937 336.937z"/><g fill="#fff"><path d="M324.09 700.324a17.93 17.93 0 0 0 8.189-14.112c.238-9.421-7.712-17.531-15.344-21.188l-8.149 10.336c4.73 3.021 13.754 8.785 8.586 14.151-5.168 5.367-16.855-13.833-31.802-3.021-12.879 9.382-7.513 25.322 5.327 33.432l7.156-9.819c-3.379-2.107-10.058-8.785-5.089-13.078 2.107-1.909 5.089-.954 7.513.556 6.202 4.532 15.106 9.064 23.613 2.743M330.133 746.675c-3.419 3.299-10.574-4.492-7.314-7.712l20.591-19.876c3.975-3.657 11.131 3.975 7.314 7.672zm8.825 9.262 20.711-19.876c5.803-5.525 7.433-15.066-.954-23.851s-18.167-7.95-23.852-2.345l-20.71 19.876c-5.804 5.525-7.593 14.787 1.192 23.851s17.809 7.871 23.613 2.345M395.445 745.363l-22.738-17.849v.915l-35.777 45.516 10.057 7.95 28.224-35.777 11.926 8.746 7.433-9.461zM411.624 756.295h1.034l-12.324-7.593.279.994-29.933 48.378-1.074.199 12.363 7.593-.318-1.034zM426.889 827.41l23.533-51.995.954-.358-12.919-5.844.358.954-9.938 21.943-8.309-3.776 9.938-21.943.915-.358-12.92-5.843.358.954-23.772 52.035-.874.278 12.8 5.844v-.835l7.95-18.485 8.309 3.737-8.309 18.484-.715.239 12.919 5.844-.357-.915zM479.4 842.874l10.455-40.666c2.663-10.296-3.975-17.571-13.436-19.876-8.825-2.266-18.962.715-21.625 10.971l-10.455 40.667-.954.397 14.271 3.657-.557-.954 10.495-40.745c1.192-4.771 10.812-2.386 9.58 2.464l-10.534 40.905-.954.556 14.271 3.697zM527.5 790.64l-28.78-2.981.636.715-5.884 57.68 12.681 1.272 4.651-45.476 14.669 1.511 1.232-11.926zM560.693 790.243l-28.9.795.716.596 1.709 57.839 12.761-.358-1.312-45.714 14.748-.398-.318-11.925zM608.833 843.153l.755-.199zm39.752-12.164-16.974-55.891.437-.875-13.555 3.975.874.477 3.975 13.715 4.532 13.476-10.852-6.559-5.446 11.528-3.975-14.033-3.976-13.436.478-.874-13.556 3.975.875.477 17.013 55.931.756-.199 12.641-27.389 25.64 15.662zM681.937 798.114c2.226 4.214-7.275 9.024-9.381 4.969l-13.317-25.362c-2.465-4.69 6.996-9.54 9.421-4.929zm11.289-5.923-13.118-25.401c-3.697-7.076-12.442-11.29-23.175-5.645s-12.522 15.344-8.825 22.42l13.317 25.441c3.737 7.076 12.164 11.329 23.454 5.406 11.289-5.923 12.323-15.105 8.347-22.221M724.908 769.651c2.902 3.737-5.605 10.097-8.388 6.48l-17.49-22.659c-3.26-4.174 5.207-10.614 8.387-6.48zm10.097-7.95-17.491-22.738c-4.889-6.361-14.231-8.945-23.851-1.551s-9.66 17.292-4.77 23.613l17.491 22.658c4.889 6.321 13.913 9.064 23.851 1.273s9.659-16.895 4.77-23.255M742.797 734.272l4.373-4.691c.947-.977 2.508-1 3.485-.053l.053.053 8.626 7.951c.977.947 1 2.508.053 3.485l-.053.053-4.373 4.69zm11.926 28.542v1.033l13.555-14.589c5.776-5.101 6.322-13.919 1.221-19.694a14 14 0 0 0-1.539-1.493l-8.467-7.951a11.93 11.93 0 0 0-12.403-3.299l-9.501-19.439v-1.033l-10.216 10.812h1.074l8.864 15.901-3.061 3.299-12.601-11.687v-1.073l-9.7 10.455h1.153zM771.299 677.944a17.93 17.93 0 0 0-16.139-2.226c-8.825 3.339-13.357 13.754-13.834 22.181l12.482 3.737c1.034-5.525 2.942-15.901 9.898-13.317 6.957 2.584-6.479 20.87 9.223 30.609 13.516 8.428 26.276-2.584 28.939-17.53l-11.925-2.902c-.676 3.975-4.333 12.601-10.177 9.659-2.584-1.272-2.822-4.372-2.345-7.195 2.107-7.552 2.981-17.371-6.122-23.016M334.346 370.304l-7.95-6.559 7.95-9.302h.994l-10.852-9.024v.994l-7.752 9.302-17.054-14.271v-.994l-9.063 10.892h.994l44.323 37.009 16.974-20.313h.994l-10.892-9.103v.994zM364.399 336.396c3.18 3.538-4.81 10.534-7.95 7.116l-19.201-21.188c-3.577-3.975 4.373-11.011 7.951-7.116zm9.461-8.547-19.2-21.227c-5.367-5.923-14.867-7.95-23.851.318s-8.308 18.007-2.942 23.851l19.2 21.228c5.367 5.923 14.549 7.95 23.851-.597 9.302-8.546 8.269-17.65 2.942-23.573M400.454 310c2.544 3.975-6.48 9.58-8.944 5.724l-15.424-24.089c-2.862-4.492 6.122-10.137 8.944-5.725zm10.733-6.877-15.424-24.09c-4.293-6.758-13.356-10.176-23.573-3.617-10.216 6.559-11.17 16.338-6.837 23.096l15.424 24.089c4.293 6.758 13.038 10.256 23.851 3.379s10.892-16.338 6.559-22.857M451.853 301.096l-4.889-11.329-10.097 4.372-17.929-41.699.358-.915-13.038 5.605.954.398 18.047 41.739-10.296 4.453 4.89 11.289zM467.714 274.86l5.764-1.471c2.862 0 5.804 7.235 1.59 8.269l-5.327 1.351zm2.186-24.845 1.948 7.95a2.464 2.464 0 0 1-1.789 2.902l-5.525 1.392-3.141-12.562 5.526-1.351a2.423 2.423 0 0 1 2.981 1.669m19.638 25.72a13.28 13.28 0 0 0-8.587-9.819 8.944 8.944 0 0 0 3.419-10.733l-1.829-7.553c-2.504-10.018-8.467-13.555-18.166-11.131l-18.882 4.731.834.517 13.914 55.334-.517.875 18.683-4.691c7.67-1.382 12.768-8.721 11.385-16.391a14 14 0 0 0-.254-1.139M512.912 268.579l-4.611-18.206 6.32-.517-1.59 18.723zm3.498-30.887-11.925.954-2.783-8.507.636-.755-14.668 1.192.914.676 19.041 55.653-.676.795 15.026-1.233-.834-.675 9.938-57.959.636-.795-14.589 1.233.835.636zM577.19 229.066l-28.86-2.147.676.676-4.333 57.68 12.721.954 3.418-45.595 14.708 1.113.915-11.926zM615.83 236.142l-28.343-6.003.556.796-11.528 56.686 12.522 2.544 9.103-44.801 14.43 2.942 2.425-11.925zM661.425 268.142a2.504 2.504 0 0 1 3.334-1.195l.005.002 12.323 5.566 5.248-11.608-12.324-5.565c-7.647-3.496-16.68-.132-20.177 7.516l-.017.037-11.528 25.52c-3.479 7.68-.074 16.725 7.606 20.204l.067.03 11.925 5.287 5.247-11.607-11.925-5.327a2.465 2.465 0 0 1-1.324-3.225q.025-.058.052-.114zM713.102 279.233l-24.726-15.026.279.914-30.013 49.451 10.892 6.639 23.851-39.116 12.601 7.672 6.242-10.296zM716.083 354.8l26.952-32.239c6.797-8.149 3.975-17.57-3.538-23.851s-17.451-7.553-24.249.596l-26.991 32.279h-1.034l11.29 9.461v-1.113l26.991-32.279c3.141-3.776 10.773 2.505 7.593 6.361l-26.992 32.278h-1.113l11.33 9.461zM766.926 346.81l-6.122 5.247a2.543 2.543 0 0 1-3.418-.318l-3.737-4.333 9.779-8.427 3.737 4.333a2.505 2.505 0 0 1-.199 3.458zm-23.175 9.183 3.975 4.531c1.232 2.584-3.975 8.428-6.678 5.128l-3.578-4.174zm9.103 19.876a13.36 13.36 0 0 0 4.73-11.926 8.904 8.904 0 0 0 11.131-1.749l6.042-5.247c7.95-6.718 8.308-13.635 1.789-21.188l-12.721-14.788v1.034l-43.21 37.247h-.994l12.602 14.589c4.703 6.215 13.554 7.439 19.769 2.736q.445-.338.862-.708"/></g></g></svg>