<svg xmlns="http://www.w3.org/2000/svg" width="316" height="316" fill-rule="evenodd" viewBox="0 0 48001.761 47999.041"><g fill-rule="nonzero"><path fill="#ae9962" d="M.16 24026.747C-15.718 10770.548 10715.028 12.457 23972.11-3.42c13255.316-15.878 24013.408 10715.75 24030.168 23971.95 15.877 13254.434-10716.633 24012.526-23971.95 24028.404C10774.129 48013.693 16.92 37281.182 1.042 24026.747z"/><path d="M1033.099 24025.865C1018.103 11341.267 11288.393 1045.395 23972.99 1029.518c12683.716-14.996 22977.823 10255.295 22993.701 22939.893 14.996 12683.716-10253.53 22978.705-22938.128 22993.7S1048.094 36708.7 1033.099 24024.983z"/><path fill="#ae9962" d="M7469.782 24017.926c-11.467-9147.377 7394.645-16572.012 16542.022-16583.48 9147.377-10.585 16572.012 7395.527 16582.598 16543.786 11.467 9145.613-7394.645 16571.13-16542.022 16582.598-9148.259 11.467-16571.13-7395.527-16582.597-16542.022z"/><path fill="#ae9962" d="M43620.887 14508.006c48.515 321.084-2.647 625.409-156.132 920.912-124.376 235.521-286.682 435.758-489.565 602.475-201.12 163.188-404.884 297.267-610.414 406.648-520.439 266.394-1016.179 387.242-1484.574 361.66-631.583-32.637-1095.568-345.782-1402.539-938.554l-863.576-1688.339 3919.17-2004.131 863.576 1689.221c120.848 242.578 196.709 458.692 224.054 649.226zm-1361.963-1195.245-2558.09 1307.272 385.478 755.96c197.59 385.477 523.085 557.487 985.306 516.028 249.634-23.817 517.793-111.145 809.768-258.455 400.473-203.765 673.924-420.762 821.235-657.165 149.957-231.11 130.55-533.67-58.219-909.445l-385.478-755.96zM40476.2 9750.84c63.512 169.363 84.682 340.49 64.394 520.439-15.878 143.782-54.69 283.154-116.438 417.233-60.864 131.433-153.485 255.81-280.507 377.539-152.604 142.018-337.845 246.106-560.134 306.089-216.996 60.864-437.521 29.109-667.75-89.975 79.39 203.765 91.739 387.242 37.93 553.077-51.161 162.306-188.769 349.312-414.586 563.662l-216.115 202c-144.664 135.844-238.167 231.993-282.272 296.386-66.157 95.267-90.856 191.416-68.804 293.74l-80.27 74.978-690.685-739.2c50.28-84.681 95.267-150.839 130.55-203.765 74.097-101.441 157.015-195.826 251.4-287.564l294.62-284.036c203.766-193.18 303.443-357.25 304.325-496.623 1.764-133.197-89.092-297.267-275.215-499.268l-648.343-694.213-1260.521 1179.368-613.06-655.4 3214.372-3007.08 1474.872 1577.195c204.647 228.464 341.372 425.172 403.12 596.3zm-1822.418-995.891-863.576 808.003 711.855 761.253q211.704 224.935 370.482 291.093c185.24 76.742 366.071 29.991 548.666-137.608 194.062-181.712 265.512-366.953 211.704-561.015-29.992-106.735-113.791-231.993-249.635-380.186l-730.378-781.54zm-4625.733 389.888c-456.927 129.669-957.96 37.93-1505.744-273.45-543.374-313.146-875.926-700.388-994.127-1164.373-176.42-584.832-67.04-1217.298 326.377-1907.982 402.238-698.623 895.331-1111.446 1486.338-1238.469 456.928-130.55 958.843-37.93 1505.745 274.333 543.374 313.146 875.043 700.388 993.245 1164.372 182.594 570.72 72.332 1204.067-328.141 1907.1-393.417 682.746-885.629 1093.805-1483.693 1240.233zm-164.952-867.104c319.32-125.258 604.238-403.12 851.226-831.82 245.224-427.819 342.255-809.768 291.093-1152.905-50.28-338.727-231.11-598.064-548.666-783.305-314.91-183.477-632.466-209.94-957.079-85.564-319.32 125.258-603.356 403.12-852.99 830.938-246.988 429.583-344.901 815.06-291.093 1155.551 52.926 340.491 236.403 601.593 554.84 784.187 314.91 183.477 631.584 209.058 951.786 82.918zM29187.085 6847.85c-398.71 256.69-905.917 314.91-1519.859 177.302-612.177-140.254-1041.76-413.705-1291.394-823-339.609-506.325-418.998-1144.083-245.224-1919.45 179.948-785.068 531.024-1324.031 1058.52-1619.535 398.71-257.573 905.035-316.674 1520.74-178.184 610.414 140.254 1040.878 414.587 1290.513 823 339.608 491.33 419.88 1129.97 241.695 1919.449-176.42 767.427-526.614 1306.39-1054.991 1620.418m-411.941-781.54c269.922-213.47 460.456-561.017 570.719-1045.29 110.262-479.862 90.856-873.278-58.22-1186.424-147.31-309.617-396.062-505.443-753.312-590.125-354.605-80.27-667.75-14.996-939.437 198.473-269.04 214.35-460.456 562.78-573.365 1044.406-111.145 483.39-92.62 880.336 59.983 1190.835 149.075 309.617 401.355 506.325 760.37 588.36 354.604 81.154 663.34 14.114 933.262-200.236m-8170.892-3762.157 961.489-67.922 1967.083 2940.04-218.761-3065.298 854.755-59.983 312.263 4390.212-917.384 64.393-2014.716-2989.437 222.289 3118.223-854.755 60.865-313.146-4390.211zm-2179.67 1286.101-2200.84 761.253 305.208 883.864 2020.89-698.623 249.635 721.557-2020.891 698.624 369.6 1069.987 2304.045-796.536 257.573 748.02-3151.743 1089.394-1437.823-4159.984 3050.302-1054.11 254.927 736.554zm-6180.874 1902.69 842.405-613.06 427.819 3087.35 973.838 1337.264-743.61 541.61-973.839-1337.264-2848.3-1324.032 876.807-637.758 1866.524 1011.768-420.762-2064.996zm-3061.77 3384.618-1526.032 1759.79 706.562 611.295 1400.775-1614.243 577.775 500.15-1401.657 1615.125 855.637 741.846 1595.719-1840.942 598.064 517.792-2184.962 2520.16-3324.635-2883.585L8594.46 8366.826l588.36 510.736zm-5316.416 6446.387 1414.006-2782.144 688.92 351.076-999.419 1967.083 903.27 458.692 875.044-1721.86 680.98 345.784-875.042 1721.86 1644.234 837.112-412.823 814.178-3919.17-1990.017zm4998.86 17652.585c11.468 179.948-17.641 351.076-89.974 516.91-57.336 133.197-134.079 254.045-232.874 365.19-97.913 107.616-222.29 198.472-378.42 278.743-187.888 90.857-395.182 137.608-626.292 129.67-224.935-5.293-426.936-99.678-613.06-282.273 17.643 217.879-24.698 397.827-124.375 539.845-97.914 141.136-283.155 278.744-560.134 418.116l-266.394 128.786c-179.066 88.21-298.15 152.604-357.25 201.12-90.857 71.45-142.019 157.013-151.722 260.219l-99.677 48.515-444.579-908.563c74.097-67.04 135.844-117.32 185.241-157.014 98.796-76.742 206.412-142.018 323.731-202l364.307-185.242c251.399-125.258 395.181-253.162 436.64-387.241 40.577-125.259.882-308.735-117.32-557.488l-417.233-852.99-1549.85 759.488-395.18-807.122 3953.572-1935.327 949.14 1939.738c128.786 278.743 200.236 507.207 209.94 688.038zm-1451.054-1483.692-1062.048 519.556 458.692 935.909c90.856 185.24 179.948 313.145 268.158 387.241 156.132 126.14 342.255 135.844 566.308 28.228 238.167-117.32 361.661-272.57 366.072-473.688 1.764-112.027-41.459-255.809-127.905-436.64l-470.159-960.606zm1874.463 8157.66c-474.57-10.585-927.087-245.223-1360.199-702.151-427.818-458.692-631.583-926.205-609.53-1404.303 1.764-611.296 291.092-1183.779 869.75-1728.034 589.243-551.313 1180.25-801.83 1782.724-751.55q711.855 14.555 1360.198 703.916c427.819 457.81 631.584 924.441 609.531 1403.421 7.057 598.064-282.272 1171.43-870.632 1726.27-576.012 538.081-1167.9 789.48-1781.842 753.313zm96.149-877.69c343.136-27.344 695.094-209.057 1057.637-546.901 359.897-336.08 563.662-673.925 614.824-1017.061 51.162-338.727-45.87-639.523-294.621-911.21-249.635-265.512-546.02-385.477-890.04-360.779-343.136 26.463-695.094 208.176-1060.283 545.138-362.543 337.844-568.073 678.335-615.706 1020.59-48.516 340.49 49.397 643.933 299.914 912.973 249.634 265.512 543.373 382.832 887.392 357.25zm3834.488-999.418 2992.966 1937.973-424.29 653.636-1104.39-714.5-1969.73 3039.716-777.13-502.797 1969.73-3039.717-1110.564-719.793zm3920.053 2322.569 3392.556 1097.332-239.049 741.846-1253.464-404.884-1115.856 3445.483-880.336-284.918 1115.856-3446.365-1258.756-407.53zm7701.615 4975.044-26.463 791.244-3333.456-113.791 148.193-4397.269 3225.84 108.499-25.582 777.13-2328.744-77.625-30.873 935.026 2136.446 71.45-25.58 763.899-2137.33-72.333-37.047 1131.735zm4259.66-4253.486c178.185 29.109 337.845 96.149 481.627 203.765 119.084 85.563 218.761 187.887 305.207 308.735 82.035 119.083 142.9 261.101 186.123 433.11 46.751 202.002 44.987 415.47-14.996 637.76-57.336 217.878-193.18 394.298-411.94 534.552 216.114 32.638 381.067 112.909 498.386 242.577 115.555 127.023 206.411 337.845 279.626 639.523l66.157 288.447c45.87 194.062 82.036 323.73 117.32 392.534 49.397 104.97 119.965 173.774 219.642 205.53l24.7 107.616-985.306 229.346c-47.634-87.328-82.036-158.779-111.145-215.233-51.162-114.673-91.738-233.756-123.494-361.66l-99.677-396.946c-67.04-273.45-157.896-441.05-278.744-511.618-112.909-68.804-301.678-71.45-568.954-11.467l-925.323 215.232 390.77 1681.283-875.925 202.883-995.891-4287.006 2102.926-488.684c301.678-63.51 539.845-81.153 718.912-49.397zm-1773.02 1079.69 267.276 1152.905 1014.415-236.403c201.119-45.87 347.547-104.088 438.404-174.656 158.778-122.612 208.175-302.56 155.25-545.138-59.984-258.455-185.242-413.705-380.186-463.102-106.734-26.463-258.455-16.76-453.4 26.463l-1040.877 241.695zm5998.28-3055.594c317.556-66.158 624.526-29.992 928.85 108.498 241.696 111.145 449.872 263.748 627.174 456.928 173.774 193.18 317.556 389.006 437.522 588.36 293.739 507.208 440.168 993.245 440.168 1462.522-.883 632.466-286.683 1113.21-864.458 1450.173l-1641.589 950.021-2205.25-3808.907 1640.706-950.904c235.521-133.197 447.225-220.525 636.877-258.456zm-1121.15 1422.827 1438.706 2485.758 734.789-424.29c374.892-216.997 528.378-551.313 463.102-1010.887-35.284-246.988-136.725-509.854-298.15-796.536-224.053-386.36-456.045-650.108-699.505-784.187-239.049-138.49-538.963-103.206-905.034 105.852l-733.025 425.172zm3849.485-3651.894 707.444-761.252 4284.36 1855.938-679.217 730.379-855.637-408.412-1105.271 1186.424 454.281 839.76-654.518 704.797-2153.206-4148.516zm1965.319 1907.1 761.252-817.707-1641.588-778.012 879.454 1595.72zm1779.195-7079.734 619.235-1168.783 3888.296 2061.468-401.355 757.724-2740.685-1458.994c-73.214-39.694 2312.866 2215.835 2312.866 2215.835l-411.058 818.59s-3261.124-686.275-3183.5-649.226l2766.267 1466.05-400.474 757.724-3889.179-2061.468 626.291-1182.896 3361.683 771.837-2549.269-2327.861z"/><path fill="#e2001a" d="m20299.927 22849.144-9.703-8357.016 3676.593-4.41v8326.142z"/><path fill="#ae9962" d="M42552.664 24153.77c-.882-601.593 486.037-1087.63 1086.747-1088.512s1086.747 485.155 1087.63 1085.865c.881 599.828-484.274 1088.512-1084.984 1089.394-601.592.882-1089.393-486.037-1089.393-1085.865z"/><path fill="#e2001a" d="m23972.11 13258.953-9267.343 121.73.882 1117.62 1099.978-1.764s1217.298-.882 1219.945 1721.859c1.764 1712.156 19.406 16083.33 19.406 16083.33 1.764 1223.472-1031.175 1302.861-1429.884 1302.861-825.646 0-825.646.882-825.646.882l1.764 1188.189 7949.486-9.703-1.764-1188.189s-736.554 1.764-1010.005 1.764c0 0-1436.059-106.734-1437.823-1321.386-1.764-1498.687-9.703-8205.294-9.703-8205.294l3684.532 5.293v15809.878c-8671.926 10.585-15675.8-7197.936-15686.385-15868.979S15294.892 8307.725 23965.935 8297.14l5.292 4962.695z"/><path fill="#fff" d="M23966.817 39885.141c8671.043-10.585 15744.603-7236.748 15734.017-15907.791S32637.86 8284.79 23966.817 8295.376l5.292 4962.694 7569.3-86.445 679.217 5380.81-1222.59 1.764s-262.866-1849.764-1502.217-2811.253c-826.527-641.287-1866.523-1291.394-3671.3-1289.63-970.31.882-1856.82 26.463-1856.82 26.463v8333.199c306.088 0 1545.439-345.784 1545.439-1805.66 0-576.892-17.642-581.303-17.642-581.303l1025-.882 1323.15 7183.822-1223.473 32.638c-224.935-856.52-780.658-3760.392-2654.238-3567.212v15809.878z"/><path fill="#ae9962" d="M3236.585 24153.77c-.883-601.593 486.037-1087.63 1086.747-1088.512s1086.747 485.155 1087.63 1085.865c.881 599.828-485.156 1088.512-1084.984 1089.394-601.592.882-1089.393-486.037-1089.393-1085.865z"/></g><path fill="none" stroke="#ae9962" stroke-width="407.9615469" d="M23954.467 7963.706v32176.362"/></svg>