<svg xmlns="http://www.w3.org/2000/svg" width="177.655" height="273.41" viewBox="0 0 47.005 72.34"><clipPath id="a"><path d="M0 247h231V0H0z"/></clipPath><g clip-path="url(#a)" transform="matrix(.35278 0 0 -.35278 -16.573 78.699)"><path fill="#fff" d="M50.763 101.609c0 46.022 28.137 83.329 62.848 83.329 34.709 0 62.843-37.307 62.843-83.329 0-46.023-28.134-83.33-62.843-83.33-34.711 0-62.848 37.307-62.848 83.33"/><path fill="none" stroke="#231f20" stroke-miterlimit="3.864" stroke-width=".506" d="M50.763 101.609c0 46.022 28.137 83.329 62.848 83.329 34.709 0 62.843-37.307 62.843-83.329 0-46.023-28.134-83.33-62.843-83.33-34.711 0-62.848 37.307-62.848 83.33z"/><g fill-rule="evenodd"><path fill="#a90432" d="M156.558 94.939a44 44 0 0 0 1.137-10.005c0-24.211-19.627-43.838-43.84-43.838s-43.84 19.627-43.84 43.838c0 24.21 19.627 43.836 43.84 43.836 12.088 0 23.033-4.893 31.006-12.805l-7.127-7.239c-6.119 6.22-14.463 9.942-23.879 9.942-18.631 0-33.736-15.104-33.736-33.734s15.105-33.735 33.736-33.735c18.633 0 33.758 15.104 33.758 33.735h-12.621v9.994z"/><path fill="#fdb912" d="M106.708 130.171c-3.225 2.26-5.355 6.005-5.355 10.243 0 6.903 5.597 12.5 12.501 12.5 6.905 0 12.502-5.597 12.545-12.5h9.932c-.043 12.389-10.088 22.432-22.477 22.432s-22.433-10.043-22.433-22.432c0-7.554 3.734-14.234 9.455-18.301l27.115-18.202c6.842-5.251 9.324-13.882 9.324-18.978 0-12.957-10.503-23.459-23.461-23.459s-23.46 10.502-23.46 23.459c0 3.363.876 7.103 2.144 9.995h-9.646c-1.018-3.141-1.413-6.517-1.413-9.995 0-17.881 14.495-32.373 32.375-32.373s32.375 14.492 32.375 32.373c0 10.662-5.142 20.119-13.095 26.017z"/><path fill="#a90432" d="M147.634 84.934h-12.643v9.995l21.567.01a44 44 0 0 0 1.137-10.005z"/><path fill="#231f20" d="M102.142 84.848h-2.014v7.049h-2.445v1.337q.633 0 1.252.131.618.144.978.401.373.274.604.59.246.317.287.692h1.338zM107.464 93.623q-.66 0-1.006-.403-.345-.402-.461-.762a2.9 2.9 0 0 1-.099-.762q0-.389.099-.733.116-.332.475-.72.374-.374 1.051-.374.647 0 1.007.374.373.388.475.72.1.33.1.719.001.474-.145.891-.13.431-.344.633a1.25 1.25 0 0 1-.504.302 1.8 1.8 0 0 1-.648.115m-1.266-6.387q-.056-.344.274-.748.346-.388.82-.387h.172q.504 0 .863.272.36.288.491.647.142.361.23.763.1.417.1.748 0 .275-.086.518-.418-.547-.807-.675a5 5 0 0 0-.574-.174 1.6 1.6 0 0 0-.346-.043h-.445q-.232.043-.619.102-.375.071-.934.488-.563.418-.908 1.15-.33.748-.33 1.77 0 1.136.431 1.928.446.79 1.194 1.251.75.475 1.683.474.259.001.518-.043.603 0 1.512-.56.92-.548 1.134-1.409.273-.62.405-1.411a9 9 0 0 0 .142-1.639q0-1.151-.23-2.274a6.8 6.8 0 0 0-.676-1.956 2.53 2.53 0 0 0-1.279-1.18 4.5 4.5 0 0 0-1.641-.33q-1.595 0-2.389.993-.79.992-.675 1.725zM116.83 87.035q.287.777.287 2.862 0 2.088-.201 2.633-.2.547-.547.72a1.54 1.54 0 0 1-.748.186q-.416 0-.748-.172-.331-.159-.545-.72-.203-.56-.203-2.647 0-2.085.203-2.632.2-.546.545-.733.346-.173.748-.173.417 0 .748.158a.94.94 0 0 1 .461.518m-3.682-1.524q-.575.704-.806 1.826a13 13 0 0 0-.231 2.56q0 1.397.231 2.532.232 1.151.718 1.741.49.603 1.137.848.648.26 1.424.259.764 0 1.41-.259a2.65 2.65 0 0 0 1.151-.848q.489-.59.72-1.727.23-1.12.231-2.546 0-1.395-.231-2.546-.231-1.135-.72-1.74a2.7 2.7 0 0 0-1.135-.833 3.8 3.8 0 0 0-1.426-.26 3.9 3.9 0 0 0-1.424.26 2.43 2.43 0 0 0-1.049.733M122.065 87.495q0-.56.303-.92.315-.36 1.207-.359.791-.001 1.152.547.358.56.359 1.38.001.891-.289 1.28-.271.389-.603.532a1.5 1.5 0 0 1-.676.158h-.158a1.5 1.5 0 0 1-.705-.229 1.1 1.1 0 0 1-.445-.519h-1.829l.922 5.683h5.436v-1.814h-4.199l-.346-2.099q.246.157.504.273.259.129.488.201a2.5 2.5 0 0 0 .777.115q.246 0 .475-.028.245-.028.949-.274.705-.243 1.223-1.151.519-.89.519-2.012 0-1.209-.519-2.058c-.519-.849-.748-.987-1.207-1.265q-.677-.418-1.799-.418-.95 0-1.482.201a4 4 0 0 0-1.022.605q-.487.403-.762.92-.258.519-.259 1.251z"/><g fill="#fdb912"><path d="m81.134 182.487-12 5.411 1.488 12.574-8.654-9.613-13.488 5.806 7.127-12.871-8.627-9.581 12.32 2.762 6.664-11.336 2.231 13.274zM146.067 182.487l12 5.411-1.488 12.574 8.654-9.613 13.488 5.806-7.127-12.871 8.627-9.581-12.32 2.762-6.664-11.336-2.231 13.274zM110.003 194.263l-7.576 10.764 7.68 10.067-12.342-3.871-8.658 11.86-.415-14.706-12.3-3.857 12.011-3.891-.033-13.149 8.676 10.29zM117.22 194.26l7.576 10.763-7.68 10.067 12.342-3.87 8.658 11.86.415-14.707 12.3-3.857-12.011-3.89.033-13.15-8.676 10.29z"/></g></g></g></svg>